M48
; DRILL file {KiCad (6.0.4-0)} date 2022 May 05, Thursday 16:46:57
; FORMAT={-:-/ absolute / inch / decimal}
; #@! TF.CreationDate,2022-05-05T16:46:57+02:00
; #@! TF.GenerationSoftware,Kicad,Pcbnew,(6.0.4-0)
; #@! TF.FileFunction,Plated,1,2,PTH
FMAT,2
INCH
; #@! TA.AperFunction,Plated,PTH,ComponentDrill
T1C0.0079
; #@! TA.AperFunction,Plated,PTH,ViaDrill
T2C0.0157
; #@! TA.AperFunction,Plated,PTH,ComponentDrill
T3C0.0276
; #@! TA.AperFunction,Plated,PTH,ComponentDrill
T4C0.0276
; #@! TA.AperFunction,Plated,PTH,ComponentDrill
T5C0.0354
; #@! TA.AperFunction,Plated,PTH,ComponentDrill
T6C0.0394
; #@! TA.AperFunction,Plated,PTH,ComponentDrill
T7C0.0472
; #@! TA.AperFunction,Plated,PTH,ComponentDrill
T8C0.0591
%
G90
G05
T1
X3.1831Y-3.5288
X3.1831Y-3.601
X3.2192Y-3.4926
X3.2192Y-3.5649
X3.2192Y-3.6371
X3.2553Y-3.5288
X3.2553Y-3.601
X3.2914Y-3.4926
X3.2914Y-3.5649
X3.2914Y-3.6371
X3.3276Y-3.5288
X3.3276Y-3.601
T2
X2.4075Y-4.2598
X2.4087Y-4.3142
X2.4087Y-4.3728
X2.5161Y-3.4846
X2.5161Y-3.8453
X2.5555Y-1.9559
X2.5575Y-2.6268
X2.5587Y-2.0866
X2.561Y-4.0114
X2.6268Y-2.7102
X2.6516Y-3.5055
X2.6531Y-4.0992
X2.6835Y-3.5504
X2.6976Y-3.9476
X2.7677Y-3.4587
X2.8016Y-3.0846
X2.8075Y-4.0996
X2.813Y-3.1386
X2.8232Y-4.7626
X2.8614Y-3.0807
X2.8642Y-3.1417
X2.9406Y-3.8421
X2.9453Y-5.1787
X2.9469Y-3.4457
X2.9579Y-3.7803
X3.0008Y-3.4925
X3.015Y-4.0165
X3.0445Y-4.2409
X3.0472Y-3.8539
X3.0886Y-3.8185
X3.0961Y-3.3453
X3.0976Y-4.302
X3.1146Y-3.4925
X3.1287Y-2.7866
X3.1506Y-3.1222
X3.1547Y-5.1961
X3.1693Y-3.363
X3.1929Y-4.2091
X3.1965Y-4.0882
X3.2Y-2.7177
X3.211Y-4.8732
X3.2118Y-2.0106
X3.2622Y-2.6756
X3.2871Y-4.0038
X3.2882Y-4.0685
X3.3331Y-3.8567
X3.3437Y-4.4882
X3.3736Y-4.2059
X3.385Y-4.513
X3.4Y-3.4453
X3.4051Y-3.0394
X3.428Y-4.6646
X3.4543Y-3.4016
X3.4551Y-3.015
X3.4598Y-2.2713
X3.487Y-4.4492
X3.4906Y-3.7673
X3.498Y-4.6657
X3.5075Y-3.3449
X3.5469Y-2.815
X3.5531Y-4.2445
X3.5713Y-1.9886
X3.5988Y-2.6937
X3.6008Y-4.3445
X3.6193Y-2.9319
X3.6618Y-4.2811
X3.6846Y-1.9862
X3.7374Y-4.1996
T3
X2.8009Y-5.1467
X3.0285Y-5.1467
T6
X2.3252Y-3.5949
X2.3252Y-3.6949
X2.3252Y-3.7949
X2.3252Y-3.8949
X2.3252Y-3.9949
X2.3252Y-4.0949
X2.3252Y-4.1949
T7
X2.2752Y-4.7256
X2.4752Y-4.7256
T8
X2.4747Y-4.8451
T4
G00X2.7446Y-5.1054
M15
G01X2.7446Y-5.1487
M16
G05
G00X2.7446Y-5.2798
M15
G01X2.7446Y-5.3034
M16
G05
G00X3.0848Y-5.1054
M15
G01X3.0848Y-5.1487
M16
G05
G00X3.0848Y-5.2798
M15
G01X3.0848Y-5.3034
M16
G05
T5
G00X2.2837Y-5.0066
M15
G01X2.2837Y-4.9593
M16
G05
G00X2.2837Y-5.1916
M15
G01X2.2837Y-5.1444
M16
G05
G00X2.5062Y-5.1483
M15
G01X2.4432Y-5.1483
M16
G05
G00X2.6656Y-5.0066
M15
G01X2.6656Y-4.9593
M16
G05
G00X2.6656Y-5.1916
M15
G01X2.6656Y-5.1444
M16
G05
T0
M30
