%TF.GenerationSoftware,KiCad,Pcbnew,(6.0.0-0)*%
%TF.CreationDate,2022-03-22T14:17:05+01:00*%
%TF.ProjectId,GlowTowerPCB,476c6f77-546f-4776-9572-5043422e6b69,rev?*%
%TF.SameCoordinates,Original*%
%TF.FileFunction,Legend,Top*%
%TF.FilePolarity,Positive*%
%FSLAX46Y46*%
G04 Gerber Fmt 4.6, Leading zero omitted, Abs format (unit mm)*
G04 Created by KiCad (PCBNEW (6.0.0-0)) date 2022-03-22 14:17:05*
%MOMM*%
%LPD*%
G01*
G04 APERTURE LIST*
%ADD10C,0.734422*%
%ADD11C,0.150000*%
%ADD12C,0.127000*%
%ADD13C,0.200000*%
%ADD14C,0.120000*%
%ADD15C,0.250000*%
%ADD16C,0.254001*%
%ADD17C,0.059995*%
G04 APERTURE END LIST*
D10*
X84786724Y-60439676D02*
G75*
G03*
X84786724Y-60439676I-367211J0D01*
G01*
D11*
X57214361Y-104860780D02*
X57785790Y-104860780D01*
X57500076Y-105860780D02*
X57500076Y-104860780D01*
X58119123Y-105336971D02*
X58452457Y-105336971D01*
X58595314Y-105860780D02*
X58119123Y-105860780D01*
X58119123Y-104860780D01*
X58595314Y-104860780D01*
X58976266Y-105813161D02*
X59119123Y-105860780D01*
X59357219Y-105860780D01*
X59452457Y-105813161D01*
X59500076Y-105765542D01*
X59547695Y-105670304D01*
X59547695Y-105575066D01*
X59500076Y-105479828D01*
X59452457Y-105432209D01*
X59357219Y-105384590D01*
X59166742Y-105336971D01*
X59071504Y-105289352D01*
X59023885Y-105241733D01*
X58976266Y-105146495D01*
X58976266Y-105051257D01*
X59023885Y-104956019D01*
X59071504Y-104908400D01*
X59166742Y-104860780D01*
X59404838Y-104860780D01*
X59547695Y-104908400D01*
X59833409Y-104860780D02*
X60404838Y-104860780D01*
X60119123Y-105860780D02*
X60119123Y-104860780D01*
X80470000Y-68847380D02*
X79993809Y-68847380D01*
X79993809Y-67847380D01*
X80803333Y-68323571D02*
X81136666Y-68323571D01*
X81279523Y-68847380D02*
X80803333Y-68847380D01*
X80803333Y-67847380D01*
X81279523Y-67847380D01*
X81708095Y-68847380D02*
X81708095Y-67847380D01*
X81946190Y-67847380D01*
X82089047Y-67895000D01*
X82184285Y-67990238D01*
X82231904Y-68085476D01*
X82279523Y-68275952D01*
X82279523Y-68418809D01*
X82231904Y-68609285D01*
X82184285Y-68704523D01*
X82089047Y-68799761D01*
X81946190Y-68847380D01*
X81708095Y-68847380D01*
X83993809Y-68847380D02*
X83422380Y-68847380D01*
X83708095Y-68847380D02*
X83708095Y-67847380D01*
X83612857Y-67990238D01*
X83517619Y-68085476D01*
X83422380Y-68133095D01*
X80493809Y-70457380D02*
X80493809Y-69457380D01*
X81160476Y-69457380D02*
X81350952Y-69457380D01*
X81446190Y-69505000D01*
X81541428Y-69600238D01*
X81589047Y-69790714D01*
X81589047Y-70124047D01*
X81541428Y-70314523D01*
X81446190Y-70409761D01*
X81350952Y-70457380D01*
X81160476Y-70457380D01*
X81065238Y-70409761D01*
X80970000Y-70314523D01*
X80922380Y-70124047D01*
X80922380Y-69790714D01*
X80970000Y-69600238D01*
X81065238Y-69505000D01*
X81160476Y-69457380D01*
X82541428Y-70457380D02*
X81970000Y-70457380D01*
X82255714Y-70457380D02*
X82255714Y-69457380D01*
X82160476Y-69600238D01*
X82065238Y-69695476D01*
X81970000Y-69743095D01*
X83398571Y-69457380D02*
X83208095Y-69457380D01*
X83112857Y-69505000D01*
X83065238Y-69552619D01*
X82970000Y-69695476D01*
X82922380Y-69885952D01*
X82922380Y-70266904D01*
X82970000Y-70362142D01*
X83017619Y-70409761D01*
X83112857Y-70457380D01*
X83303333Y-70457380D01*
X83398571Y-70409761D01*
X83446190Y-70362142D01*
X83493809Y-70266904D01*
X83493809Y-70028809D01*
X83446190Y-69933571D01*
X83398571Y-69885952D01*
X83303333Y-69838333D01*
X83112857Y-69838333D01*
X83017619Y-69885952D01*
X82970000Y-69933571D01*
X82922380Y-70028809D01*
X56847219Y-97780780D02*
X56513885Y-97304590D01*
X56275790Y-97780780D02*
X56275790Y-96780780D01*
X56656742Y-96780780D01*
X56751980Y-96828400D01*
X56799600Y-96876019D01*
X56847219Y-96971257D01*
X56847219Y-97114114D01*
X56799600Y-97209352D01*
X56751980Y-97256971D01*
X56656742Y-97304590D01*
X56275790Y-97304590D01*
X57275790Y-97256971D02*
X57609123Y-97256971D01*
X57751980Y-97780780D02*
X57275790Y-97780780D01*
X57275790Y-96780780D01*
X57751980Y-96780780D01*
X58132933Y-97733161D02*
X58275790Y-97780780D01*
X58513885Y-97780780D01*
X58609123Y-97733161D01*
X58656742Y-97685542D01*
X58704361Y-97590304D01*
X58704361Y-97495066D01*
X58656742Y-97399828D01*
X58609123Y-97352209D01*
X58513885Y-97304590D01*
X58323409Y-97256971D01*
X58228171Y-97209352D01*
X58180552Y-97161733D01*
X58132933Y-97066495D01*
X58132933Y-96971257D01*
X58180552Y-96876019D01*
X58228171Y-96828400D01*
X58323409Y-96780780D01*
X58561504Y-96780780D01*
X58704361Y-96828400D01*
X59132933Y-97256971D02*
X59466266Y-97256971D01*
X59609123Y-97780780D02*
X59132933Y-97780780D01*
X59132933Y-96780780D01*
X59609123Y-96780780D01*
X59894838Y-96780780D02*
X60466266Y-96780780D01*
X60180552Y-97780780D02*
X60180552Y-96780780D01*
X86180119Y-105783904D02*
X86180119Y-104983904D01*
X86713452Y-104983904D02*
X86865833Y-104983904D01*
X86942023Y-105022000D01*
X87018214Y-105098190D01*
X87056309Y-105250571D01*
X87056309Y-105517238D01*
X87018214Y-105669619D01*
X86942023Y-105745809D01*
X86865833Y-105783904D01*
X86713452Y-105783904D01*
X86637261Y-105745809D01*
X86561071Y-105669619D01*
X86522976Y-105517238D01*
X86522976Y-105250571D01*
X86561071Y-105098190D01*
X86637261Y-105022000D01*
X86713452Y-104983904D01*
X87818214Y-105783904D02*
X87361071Y-105783904D01*
X87589642Y-105783904D02*
X87589642Y-104983904D01*
X87513452Y-105098190D01*
X87437261Y-105174380D01*
X87361071Y-105212476D01*
X88122976Y-105060095D02*
X88161071Y-105022000D01*
X88237261Y-104983904D01*
X88427738Y-104983904D01*
X88503928Y-105022000D01*
X88542023Y-105060095D01*
X88580119Y-105136285D01*
X88580119Y-105212476D01*
X88542023Y-105326761D01*
X88084880Y-105783904D01*
X88580119Y-105783904D01*
X86180119Y-108359904D02*
X86180119Y-107559904D01*
X86713452Y-107559904D02*
X86865833Y-107559904D01*
X86942023Y-107598000D01*
X87018214Y-107674190D01*
X87056309Y-107826571D01*
X87056309Y-108093238D01*
X87018214Y-108245619D01*
X86942023Y-108321809D01*
X86865833Y-108359904D01*
X86713452Y-108359904D01*
X86637261Y-108321809D01*
X86561071Y-108245619D01*
X86522976Y-108093238D01*
X86522976Y-107826571D01*
X86561071Y-107674190D01*
X86637261Y-107598000D01*
X86713452Y-107559904D01*
X87818214Y-108359904D02*
X87361071Y-108359904D01*
X87589642Y-108359904D02*
X87589642Y-107559904D01*
X87513452Y-107674190D01*
X87437261Y-107750380D01*
X87361071Y-107788476D01*
X88084880Y-107559904D02*
X88580119Y-107559904D01*
X88313452Y-107864666D01*
X88427738Y-107864666D01*
X88503928Y-107902761D01*
X88542023Y-107940857D01*
X88580119Y-108017047D01*
X88580119Y-108207523D01*
X88542023Y-108283714D01*
X88503928Y-108321809D01*
X88427738Y-108359904D01*
X88199166Y-108359904D01*
X88122976Y-108321809D01*
X88084880Y-108283714D01*
X86180119Y-110935904D02*
X86180119Y-110135904D01*
X86713452Y-110135904D02*
X86865833Y-110135904D01*
X86942023Y-110174000D01*
X87018214Y-110250190D01*
X87056309Y-110402571D01*
X87056309Y-110669238D01*
X87018214Y-110821619D01*
X86942023Y-110897809D01*
X86865833Y-110935904D01*
X86713452Y-110935904D01*
X86637261Y-110897809D01*
X86561071Y-110821619D01*
X86522976Y-110669238D01*
X86522976Y-110402571D01*
X86561071Y-110250190D01*
X86637261Y-110174000D01*
X86713452Y-110135904D01*
X87361071Y-110212095D02*
X87399166Y-110174000D01*
X87475357Y-110135904D01*
X87665833Y-110135904D01*
X87742023Y-110174000D01*
X87780119Y-110212095D01*
X87818214Y-110288285D01*
X87818214Y-110364476D01*
X87780119Y-110478761D01*
X87322976Y-110935904D01*
X87818214Y-110935904D01*
X88580119Y-110935904D02*
X88122976Y-110935904D01*
X88351547Y-110935904D02*
X88351547Y-110135904D01*
X88275357Y-110250190D01*
X88199166Y-110326380D01*
X88122976Y-110364476D01*
X86180119Y-113511904D02*
X86180119Y-112711904D01*
X86713452Y-112711904D02*
X86865833Y-112711904D01*
X86942023Y-112750000D01*
X87018214Y-112826190D01*
X87056309Y-112978571D01*
X87056309Y-113245238D01*
X87018214Y-113397619D01*
X86942023Y-113473809D01*
X86865833Y-113511904D01*
X86713452Y-113511904D01*
X86637261Y-113473809D01*
X86561071Y-113397619D01*
X86522976Y-113245238D01*
X86522976Y-112978571D01*
X86561071Y-112826190D01*
X86637261Y-112750000D01*
X86713452Y-112711904D01*
X87361071Y-112788095D02*
X87399166Y-112750000D01*
X87475357Y-112711904D01*
X87665833Y-112711904D01*
X87742023Y-112750000D01*
X87780119Y-112788095D01*
X87818214Y-112864285D01*
X87818214Y-112940476D01*
X87780119Y-113054761D01*
X87322976Y-113511904D01*
X87818214Y-113511904D01*
X88542023Y-112711904D02*
X88161071Y-112711904D01*
X88122976Y-113092857D01*
X88161071Y-113054761D01*
X88237261Y-113016666D01*
X88427738Y-113016666D01*
X88503928Y-113054761D01*
X88542023Y-113092857D01*
X88580119Y-113169047D01*
X88580119Y-113359523D01*
X88542023Y-113435714D01*
X88503928Y-113473809D01*
X88427738Y-113511904D01*
X88237261Y-113511904D01*
X88161071Y-113473809D01*
X88122976Y-113435714D01*
X86180119Y-116087904D02*
X86180119Y-115287904D01*
X86713452Y-115287904D02*
X86865833Y-115287904D01*
X86942023Y-115326000D01*
X87018214Y-115402190D01*
X87056309Y-115554571D01*
X87056309Y-115821238D01*
X87018214Y-115973619D01*
X86942023Y-116049809D01*
X86865833Y-116087904D01*
X86713452Y-116087904D01*
X86637261Y-116049809D01*
X86561071Y-115973619D01*
X86522976Y-115821238D01*
X86522976Y-115554571D01*
X86561071Y-115402190D01*
X86637261Y-115326000D01*
X86713452Y-115287904D01*
X87361071Y-115364095D02*
X87399166Y-115326000D01*
X87475357Y-115287904D01*
X87665833Y-115287904D01*
X87742023Y-115326000D01*
X87780119Y-115364095D01*
X87818214Y-115440285D01*
X87818214Y-115516476D01*
X87780119Y-115630761D01*
X87322976Y-116087904D01*
X87818214Y-116087904D01*
X88503928Y-115287904D02*
X88351547Y-115287904D01*
X88275357Y-115326000D01*
X88237261Y-115364095D01*
X88161071Y-115478380D01*
X88122976Y-115630761D01*
X88122976Y-115935523D01*
X88161071Y-116011714D01*
X88199166Y-116049809D01*
X88275357Y-116087904D01*
X88427738Y-116087904D01*
X88503928Y-116049809D01*
X88542023Y-116011714D01*
X88580119Y-115935523D01*
X88580119Y-115745047D01*
X88542023Y-115668857D01*
X88503928Y-115630761D01*
X88427738Y-115592666D01*
X88275357Y-115592666D01*
X88199166Y-115630761D01*
X88161071Y-115668857D01*
X88122976Y-115745047D01*
X86256309Y-117863904D02*
X86751547Y-117863904D01*
X86484880Y-118168666D01*
X86599166Y-118168666D01*
X86675357Y-118206761D01*
X86713452Y-118244857D01*
X86751547Y-118321047D01*
X86751547Y-118511523D01*
X86713452Y-118587714D01*
X86675357Y-118625809D01*
X86599166Y-118663904D01*
X86370595Y-118663904D01*
X86294404Y-118625809D01*
X86256309Y-118587714D01*
X87094404Y-118587714D02*
X87132500Y-118625809D01*
X87094404Y-118663904D01*
X87056309Y-118625809D01*
X87094404Y-118587714D01*
X87094404Y-118663904D01*
X87399166Y-117863904D02*
X87894404Y-117863904D01*
X87627738Y-118168666D01*
X87742023Y-118168666D01*
X87818214Y-118206761D01*
X87856309Y-118244857D01*
X87894404Y-118321047D01*
X87894404Y-118511523D01*
X87856309Y-118587714D01*
X87818214Y-118625809D01*
X87742023Y-118663904D01*
X87513452Y-118663904D01*
X87437261Y-118625809D01*
X87399166Y-118587714D01*
X88122976Y-117863904D02*
X88389642Y-118663904D01*
X88656309Y-117863904D01*
X86903928Y-120478000D02*
X86827738Y-120439904D01*
X86713452Y-120439904D01*
X86599166Y-120478000D01*
X86522976Y-120554190D01*
X86484880Y-120630380D01*
X86446785Y-120782761D01*
X86446785Y-120897047D01*
X86484880Y-121049428D01*
X86522976Y-121125619D01*
X86599166Y-121201809D01*
X86713452Y-121239904D01*
X86789642Y-121239904D01*
X86903928Y-121201809D01*
X86942023Y-121163714D01*
X86942023Y-120897047D01*
X86789642Y-120897047D01*
X87284880Y-121239904D02*
X87284880Y-120439904D01*
X87742023Y-121239904D01*
X87742023Y-120439904D01*
X88122976Y-121239904D02*
X88122976Y-120439904D01*
X88313452Y-120439904D01*
X88427738Y-120478000D01*
X88503928Y-120554190D01*
X88542023Y-120630380D01*
X88580119Y-120782761D01*
X88580119Y-120897047D01*
X88542023Y-121049428D01*
X88503928Y-121125619D01*
X88427738Y-121201809D01*
X88313452Y-121239904D01*
X88122976Y-121239904D01*
%TO.C,U1*%
X84853780Y-68343400D02*
X85091876Y-68343400D01*
X84996638Y-68581495D02*
X85091876Y-68343400D01*
X84996638Y-68105304D01*
X85282352Y-68486257D02*
X85091876Y-68343400D01*
X85282352Y-68200542D01*
D12*
%TO.C,MK1*%
X64731200Y-92253000D02*
X61731200Y-92253000D01*
X61731200Y-92253000D02*
X61731200Y-88253000D01*
X64731200Y-88253000D02*
X64731200Y-92253000D01*
X61731200Y-88253000D02*
X64731200Y-88253000D01*
D13*
X61431200Y-88628000D02*
G75*
G03*
X61431200Y-88628000I-100000J0D01*
G01*
D14*
%TO.C,R2*%
X87164724Y-69847500D02*
X86655276Y-69847500D01*
X87164724Y-70892500D02*
X86655276Y-70892500D01*
%TO.C,Q3*%
X68940000Y-101620000D02*
X68290000Y-101620000D01*
X68940000Y-98500000D02*
X69590000Y-98500000D01*
X68940000Y-98500000D02*
X68290000Y-98500000D01*
X68940000Y-101620000D02*
X70615000Y-101620000D01*
%TO.C,R4*%
X56137500Y-121885276D02*
X56137500Y-122394724D01*
X57182500Y-121885276D02*
X57182500Y-122394724D01*
%TO.C,Q2*%
X73390000Y-100790000D02*
X73390000Y-100140000D01*
X76510000Y-100790000D02*
X76510000Y-100140000D01*
X76510000Y-100790000D02*
X76510000Y-101440000D01*
X73390000Y-100790000D02*
X73390000Y-102465000D01*
%TO.C,F1*%
X74364832Y-122459424D02*
X71592328Y-122459424D01*
X74364832Y-125879424D02*
X71592328Y-125879424D01*
%TO.C,Q4*%
X85210000Y-111250000D02*
X85210000Y-111900000D01*
X82090000Y-111250000D02*
X82090000Y-111900000D01*
X85210000Y-111250000D02*
X85210000Y-109575000D01*
X82090000Y-111250000D02*
X82090000Y-110600000D01*
%TO.C,R8*%
X72932500Y-100245276D02*
X72932500Y-100754724D01*
X71887500Y-100245276D02*
X71887500Y-100754724D01*
%TO.C,Q1*%
X80040000Y-100780000D02*
X80040000Y-100130000D01*
X76920000Y-100780000D02*
X76920000Y-100130000D01*
X80040000Y-100780000D02*
X80040000Y-101430000D01*
X76920000Y-100780000D02*
X76920000Y-102455000D01*
%TO.C,C11*%
X62626267Y-93367000D02*
X62333733Y-93367000D01*
X62626267Y-94387000D02*
X62333733Y-94387000D01*
%TO.C,J1*%
X88910000Y-106820000D02*
X91570000Y-106820000D01*
X90240000Y-104220000D02*
X91570000Y-104220000D01*
X91570000Y-106820000D02*
X91570000Y-122120000D01*
X91570000Y-104220000D02*
X91570000Y-105550000D01*
X88910000Y-106820000D02*
X88910000Y-122120000D01*
X88910000Y-122120000D02*
X91570000Y-122120000D01*
%TO.C,C12*%
X61201500Y-91072467D02*
X61201500Y-90779933D01*
X60181500Y-91072467D02*
X60181500Y-90779933D01*
%TO.C,C1*%
X85712800Y-62913933D02*
X85712800Y-63206467D01*
X84692800Y-62913933D02*
X84692800Y-63206467D01*
%TO.C,C7*%
X70697367Y-110299000D02*
X70404833Y-110299000D01*
X70697367Y-111319000D02*
X70404833Y-111319000D01*
%TO.C,R9*%
X80467500Y-100434724D02*
X80467500Y-99925276D01*
X81512500Y-100434724D02*
X81512500Y-99925276D01*
%TO.C,C5*%
X83083713Y-77025024D02*
X83376247Y-77025024D01*
X83083713Y-78045024D02*
X83376247Y-78045024D01*
%TO.C,U1*%
X91402700Y-67517900D02*
X91402700Y-63022100D01*
X86297300Y-63022100D02*
X86297300Y-67517900D01*
X86297300Y-65574800D02*
G75*
G03*
X86297300Y-64965200I0J304800D01*
G01*
%TO.C,R10*%
X62147776Y-101057500D02*
X62657224Y-101057500D01*
X62147776Y-102102500D02*
X62657224Y-102102500D01*
%TO.C,C10*%
X83728767Y-102830000D02*
X83436233Y-102830000D01*
X83728767Y-103850000D02*
X83436233Y-103850000D01*
D12*
%TO.C,U2*%
X66291218Y-95072963D02*
X66291218Y-97522963D01*
X66941218Y-79522963D02*
X66291218Y-79522963D01*
X66291218Y-97522963D02*
X66941218Y-97522963D01*
X66291218Y-79522963D02*
X66291218Y-81972963D01*
D13*
X84391218Y-78522963D02*
G75*
G03*
X84391218Y-78522963I-100000J0D01*
G01*
D14*
%TO.C,R1*%
X63568724Y-86613700D02*
X63059276Y-86613700D01*
X63568724Y-87658700D02*
X63059276Y-87658700D01*
D11*
%TO.C,U3*%
X64670000Y-108950000D02*
X64670000Y-109450000D01*
X64670000Y-104450000D02*
X65170000Y-104450000D01*
X69670000Y-109450000D02*
X69170000Y-109450000D01*
X69670000Y-104450000D02*
X69170000Y-104450000D01*
X64670000Y-109450000D02*
X65170000Y-109450000D01*
X69670000Y-104950000D02*
X69670000Y-104450000D01*
X64670000Y-104950000D02*
X64670000Y-104450000D01*
X69670000Y-108950000D02*
X69670000Y-109450000D01*
D15*
X70114400Y-104156000D02*
G75*
G03*
X70114400Y-104156000I-125000J0D01*
G01*
D14*
%TO.C,R3*%
X57707500Y-121905276D02*
X57707500Y-122414724D01*
X58752500Y-121905276D02*
X58752500Y-122414724D01*
%TO.C,C2*%
X68301250Y-114726250D02*
X67513750Y-114726250D01*
X62650000Y-116424437D02*
X62650000Y-122180000D01*
X69470000Y-116424437D02*
X69470000Y-122180000D01*
X68405563Y-115360000D02*
X69470000Y-116424437D01*
X67907500Y-114332500D02*
X67907500Y-115120000D01*
X68405563Y-115360000D02*
X67120000Y-115360000D01*
X69470000Y-122180000D02*
X67120000Y-122180000D01*
X63714437Y-115360000D02*
X62650000Y-116424437D01*
X63714437Y-115360000D02*
X65000000Y-115360000D01*
X62650000Y-122180000D02*
X65000000Y-122180000D01*
D16*
%TO.C,RJ1*%
X67904151Y-124088848D02*
X67904151Y-129688873D01*
X55704100Y-129688873D02*
X55704075Y-124088822D01*
X55704100Y-124088873D02*
X67904126Y-124088873D01*
D17*
X67934123Y-124088898D02*
G75*
G03*
X67934123Y-124088898I-29997J0D01*
G01*
D14*
%TO.C,C3*%
X57030000Y-71670000D02*
X57030000Y-74020000D01*
X63850000Y-72734437D02*
X62785563Y-71670000D01*
X63850000Y-77425563D02*
X63850000Y-76140000D01*
X63850000Y-77425563D02*
X62785563Y-78490000D01*
X57030000Y-78490000D02*
X57030000Y-76140000D01*
X64877500Y-76927500D02*
X64090000Y-76927500D01*
X62785563Y-78490000D02*
X57030000Y-78490000D01*
X64483750Y-77321250D02*
X64483750Y-76533750D01*
X63850000Y-72734437D02*
X63850000Y-74020000D01*
X62785563Y-71670000D02*
X57030000Y-71670000D01*
%TO.C,C9*%
X77111267Y-111600000D02*
X76818733Y-111600000D01*
X77111267Y-110580000D02*
X76818733Y-110580000D01*
%TO.C,U4*%
X81612500Y-103190000D02*
X81612500Y-104450000D01*
X81612500Y-110010000D02*
X81612500Y-108750000D01*
X77852500Y-110010000D02*
X81612500Y-110010000D01*
X75602500Y-103190000D02*
X81612500Y-103190000D01*
%TO.C,C4*%
X70403733Y-112970000D02*
X70696267Y-112970000D01*
X70403733Y-111950000D02*
X70696267Y-111950000D01*
D16*
%TO.C,F2*%
X82882180Y-118936386D02*
X82882180Y-122036462D01*
X69882180Y-122036462D02*
X69882180Y-118936386D01*
X69882180Y-118936386D02*
X82882180Y-118936386D01*
X82882180Y-122036208D02*
X69882180Y-122036208D01*
D17*
X69785177Y-122163462D02*
G75*
G03*
X69785177Y-122163462I-29997J0D01*
G01*
%TD*%
M02*
