%TF.GenerationSoftware,KiCad,Pcbnew,(6.0.4-0)*%
%TF.CreationDate,2022-06-27T20:16:55+02:00*%
%TF.ProjectId,GlowTowerPCB,476c6f77-546f-4776-9572-5043422e6b69,rev?*%
%TF.SameCoordinates,Original*%
%TF.FileFunction,Legend,Bot*%
%TF.FilePolarity,Positive*%
%FSLAX46Y46*%
G04 Gerber Fmt 4.6, Leading zero omitted, Abs format (unit mm)*
G04 Created by KiCad (PCBNEW (6.0.4-0)) date 2022-06-27 20:16:55*
%MOMM*%
%LPD*%
G01*
G04 APERTURE LIST*
%ADD10C,0.150000*%
G04 APERTURE END LIST*
D10*
X75880952Y-132297380D02*
X75880952Y-131297380D01*
X75404761Y-131630714D02*
X75404761Y-132297380D01*
X75404761Y-131725952D02*
X75357142Y-131678333D01*
X75261904Y-131630714D01*
X75119047Y-131630714D01*
X75023809Y-131678333D01*
X74976190Y-131773571D01*
X74976190Y-132297380D01*
X74500000Y-131630714D02*
X74500000Y-132630714D01*
X74500000Y-131678333D02*
X74404761Y-131630714D01*
X74214285Y-131630714D01*
X74119047Y-131678333D01*
X74071428Y-131725952D01*
X74023809Y-131821190D01*
X74023809Y-132106904D01*
X74071428Y-132202142D01*
X74119047Y-132249761D01*
X74214285Y-132297380D01*
X74404761Y-132297380D01*
X74500000Y-132249761D01*
X73166666Y-131630714D02*
X73166666Y-132297380D01*
X73595238Y-131630714D02*
X73595238Y-132154523D01*
X73547619Y-132249761D01*
X73452380Y-132297380D01*
X73309523Y-132297380D01*
X73214285Y-132249761D01*
X73166666Y-132202142D01*
X72833333Y-131630714D02*
X72452380Y-131630714D01*
X72690476Y-131297380D02*
X72690476Y-132154523D01*
X72642857Y-132249761D01*
X72547619Y-132297380D01*
X72452380Y-132297380D01*
X72119047Y-132202142D02*
X72071428Y-132249761D01*
X72119047Y-132297380D01*
X72166666Y-132249761D01*
X72119047Y-132202142D01*
X72119047Y-132297380D01*
X72119047Y-131678333D02*
X72071428Y-131725952D01*
X72119047Y-131773571D01*
X72166666Y-131725952D01*
X72119047Y-131678333D01*
X72119047Y-131773571D01*
X75714285Y-132907380D02*
X76190476Y-132907380D01*
X76238095Y-133383571D01*
X76190476Y-133335952D01*
X76095238Y-133288333D01*
X75857142Y-133288333D01*
X75761904Y-133335952D01*
X75714285Y-133383571D01*
X75666666Y-133478809D01*
X75666666Y-133716904D01*
X75714285Y-133812142D01*
X75761904Y-133859761D01*
X75857142Y-133907380D01*
X76095238Y-133907380D01*
X76190476Y-133859761D01*
X76238095Y-133812142D01*
X75380952Y-132907380D02*
X75047619Y-133907380D01*
X74714285Y-132907380D01*
X74333333Y-133859761D02*
X74333333Y-133907380D01*
X74380952Y-134002619D01*
X74428571Y-134050238D01*
X73238095Y-132907380D02*
X72619047Y-132907380D01*
X72952380Y-133288333D01*
X72809523Y-133288333D01*
X72714285Y-133335952D01*
X72666666Y-133383571D01*
X72619047Y-133478809D01*
X72619047Y-133716904D01*
X72666666Y-133812142D01*
X72714285Y-133859761D01*
X72809523Y-133907380D01*
X73095238Y-133907380D01*
X73190476Y-133859761D01*
X73238095Y-133812142D01*
X72238095Y-133621666D02*
X71761904Y-133621666D01*
X72333333Y-133907380D02*
X72000000Y-132907380D01*
X71666666Y-133907380D01*
X57312023Y-91543904D02*
X57312023Y-90743904D01*
X56778690Y-90743904D02*
X56626309Y-90743904D01*
X56550119Y-90782000D01*
X56473928Y-90858190D01*
X56435833Y-91010571D01*
X56435833Y-91277238D01*
X56473928Y-91429619D01*
X56550119Y-91505809D01*
X56626309Y-91543904D01*
X56778690Y-91543904D01*
X56854880Y-91505809D01*
X56931071Y-91429619D01*
X56969166Y-91277238D01*
X56969166Y-91010571D01*
X56931071Y-90858190D01*
X56854880Y-90782000D01*
X56778690Y-90743904D01*
X55673928Y-91543904D02*
X56131071Y-91543904D01*
X55902500Y-91543904D02*
X55902500Y-90743904D01*
X55978690Y-90858190D01*
X56054880Y-90934380D01*
X56131071Y-90972476D01*
X55369166Y-90820095D02*
X55331071Y-90782000D01*
X55254880Y-90743904D01*
X55064404Y-90743904D01*
X54988214Y-90782000D01*
X54950119Y-90820095D01*
X54912023Y-90896285D01*
X54912023Y-90972476D01*
X54950119Y-91086761D01*
X55407261Y-91543904D01*
X54912023Y-91543904D01*
X57312023Y-94119904D02*
X57312023Y-93319904D01*
X56778690Y-93319904D02*
X56626309Y-93319904D01*
X56550119Y-93358000D01*
X56473928Y-93434190D01*
X56435833Y-93586571D01*
X56435833Y-93853238D01*
X56473928Y-94005619D01*
X56550119Y-94081809D01*
X56626309Y-94119904D01*
X56778690Y-94119904D01*
X56854880Y-94081809D01*
X56931071Y-94005619D01*
X56969166Y-93853238D01*
X56969166Y-93586571D01*
X56931071Y-93434190D01*
X56854880Y-93358000D01*
X56778690Y-93319904D01*
X55673928Y-94119904D02*
X56131071Y-94119904D01*
X55902500Y-94119904D02*
X55902500Y-93319904D01*
X55978690Y-93434190D01*
X56054880Y-93510380D01*
X56131071Y-93548476D01*
X55407261Y-93319904D02*
X54912023Y-93319904D01*
X55178690Y-93624666D01*
X55064404Y-93624666D01*
X54988214Y-93662761D01*
X54950119Y-93700857D01*
X54912023Y-93777047D01*
X54912023Y-93967523D01*
X54950119Y-94043714D01*
X54988214Y-94081809D01*
X55064404Y-94119904D01*
X55292976Y-94119904D01*
X55369166Y-94081809D01*
X55407261Y-94043714D01*
X57312023Y-96695904D02*
X57312023Y-95895904D01*
X56778690Y-95895904D02*
X56626309Y-95895904D01*
X56550119Y-95934000D01*
X56473928Y-96010190D01*
X56435833Y-96162571D01*
X56435833Y-96429238D01*
X56473928Y-96581619D01*
X56550119Y-96657809D01*
X56626309Y-96695904D01*
X56778690Y-96695904D01*
X56854880Y-96657809D01*
X56931071Y-96581619D01*
X56969166Y-96429238D01*
X56969166Y-96162571D01*
X56931071Y-96010190D01*
X56854880Y-95934000D01*
X56778690Y-95895904D01*
X56131071Y-95972095D02*
X56092976Y-95934000D01*
X56016785Y-95895904D01*
X55826309Y-95895904D01*
X55750119Y-95934000D01*
X55712023Y-95972095D01*
X55673928Y-96048285D01*
X55673928Y-96124476D01*
X55712023Y-96238761D01*
X56169166Y-96695904D01*
X55673928Y-96695904D01*
X54950119Y-95895904D02*
X55331071Y-95895904D01*
X55369166Y-96276857D01*
X55331071Y-96238761D01*
X55254880Y-96200666D01*
X55064404Y-96200666D01*
X54988214Y-96238761D01*
X54950119Y-96276857D01*
X54912023Y-96353047D01*
X54912023Y-96543523D01*
X54950119Y-96619714D01*
X54988214Y-96657809D01*
X55064404Y-96695904D01*
X55254880Y-96695904D01*
X55331071Y-96657809D01*
X55369166Y-96619714D01*
X57312023Y-99271904D02*
X57312023Y-98471904D01*
X56778690Y-98471904D02*
X56626309Y-98471904D01*
X56550119Y-98510000D01*
X56473928Y-98586190D01*
X56435833Y-98738571D01*
X56435833Y-99005238D01*
X56473928Y-99157619D01*
X56550119Y-99233809D01*
X56626309Y-99271904D01*
X56778690Y-99271904D01*
X56854880Y-99233809D01*
X56931071Y-99157619D01*
X56969166Y-99005238D01*
X56969166Y-98738571D01*
X56931071Y-98586190D01*
X56854880Y-98510000D01*
X56778690Y-98471904D01*
X56131071Y-98548095D02*
X56092976Y-98510000D01*
X56016785Y-98471904D01*
X55826309Y-98471904D01*
X55750119Y-98510000D01*
X55712023Y-98548095D01*
X55673928Y-98624285D01*
X55673928Y-98700476D01*
X55712023Y-98814761D01*
X56169166Y-99271904D01*
X55673928Y-99271904D01*
X54988214Y-98471904D02*
X55140595Y-98471904D01*
X55216785Y-98510000D01*
X55254880Y-98548095D01*
X55331071Y-98662380D01*
X55369166Y-98814761D01*
X55369166Y-99119523D01*
X55331071Y-99195714D01*
X55292976Y-99233809D01*
X55216785Y-99271904D01*
X55064404Y-99271904D01*
X54988214Y-99233809D01*
X54950119Y-99195714D01*
X54912023Y-99119523D01*
X54912023Y-98929047D01*
X54950119Y-98852857D01*
X54988214Y-98814761D01*
X55064404Y-98776666D01*
X55216785Y-98776666D01*
X55292976Y-98814761D01*
X55331071Y-98852857D01*
X55369166Y-98929047D01*
X57388214Y-101047904D02*
X56892976Y-101047904D01*
X57159642Y-101352666D01*
X57045357Y-101352666D01*
X56969166Y-101390761D01*
X56931071Y-101428857D01*
X56892976Y-101505047D01*
X56892976Y-101695523D01*
X56931071Y-101771714D01*
X56969166Y-101809809D01*
X57045357Y-101847904D01*
X57273928Y-101847904D01*
X57350119Y-101809809D01*
X57388214Y-101771714D01*
X56550119Y-101771714D02*
X56512023Y-101809809D01*
X56550119Y-101847904D01*
X56588214Y-101809809D01*
X56550119Y-101771714D01*
X56550119Y-101847904D01*
X56245357Y-101047904D02*
X55750119Y-101047904D01*
X56016785Y-101352666D01*
X55902500Y-101352666D01*
X55826309Y-101390761D01*
X55788214Y-101428857D01*
X55750119Y-101505047D01*
X55750119Y-101695523D01*
X55788214Y-101771714D01*
X55826309Y-101809809D01*
X55902500Y-101847904D01*
X56131071Y-101847904D01*
X56207261Y-101809809D01*
X56245357Y-101771714D01*
X55521547Y-101047904D02*
X55254880Y-101847904D01*
X54988214Y-101047904D01*
X56931071Y-103623904D02*
X57312023Y-103623904D01*
X57350119Y-104004857D01*
X57312023Y-103966761D01*
X57235833Y-103928666D01*
X57045357Y-103928666D01*
X56969166Y-103966761D01*
X56931071Y-104004857D01*
X56892976Y-104081047D01*
X56892976Y-104271523D01*
X56931071Y-104347714D01*
X56969166Y-104385809D01*
X57045357Y-104423904D01*
X57235833Y-104423904D01*
X57312023Y-104385809D01*
X57350119Y-104347714D01*
X56664404Y-103623904D02*
X56397738Y-104423904D01*
X56131071Y-103623904D01*
X56892976Y-106238000D02*
X56969166Y-106199904D01*
X57083452Y-106199904D01*
X57197738Y-106238000D01*
X57273928Y-106314190D01*
X57312023Y-106390380D01*
X57350119Y-106542761D01*
X57350119Y-106657047D01*
X57312023Y-106809428D01*
X57273928Y-106885619D01*
X57197738Y-106961809D01*
X57083452Y-106999904D01*
X57007261Y-106999904D01*
X56892976Y-106961809D01*
X56854880Y-106923714D01*
X56854880Y-106657047D01*
X57007261Y-106657047D01*
X56512023Y-106999904D02*
X56512023Y-106199904D01*
X56054880Y-106999904D01*
X56054880Y-106199904D01*
X55673928Y-106999904D02*
X55673928Y-106199904D01*
X55483452Y-106199904D01*
X55369166Y-106238000D01*
X55292976Y-106314190D01*
X55254880Y-106390380D01*
X55216785Y-106542761D01*
X55216785Y-106657047D01*
X55254880Y-106809428D01*
X55292976Y-106885619D01*
X55369166Y-106961809D01*
X55483452Y-106999904D01*
X55673928Y-106999904D01*
X64680952Y-126937380D02*
X64680952Y-125937380D01*
X64204761Y-126270714D02*
X64204761Y-126937380D01*
X64204761Y-126365952D02*
X64157142Y-126318333D01*
X64061904Y-126270714D01*
X63919047Y-126270714D01*
X63823809Y-126318333D01*
X63776190Y-126413571D01*
X63776190Y-126937380D01*
X63300000Y-126270714D02*
X63300000Y-127270714D01*
X63300000Y-126318333D02*
X63204761Y-126270714D01*
X63014285Y-126270714D01*
X62919047Y-126318333D01*
X62871428Y-126365952D01*
X62823809Y-126461190D01*
X62823809Y-126746904D01*
X62871428Y-126842142D01*
X62919047Y-126889761D01*
X63014285Y-126937380D01*
X63204761Y-126937380D01*
X63300000Y-126889761D01*
X61966666Y-126270714D02*
X61966666Y-126937380D01*
X62395238Y-126270714D02*
X62395238Y-126794523D01*
X62347619Y-126889761D01*
X62252380Y-126937380D01*
X62109523Y-126937380D01*
X62014285Y-126889761D01*
X61966666Y-126842142D01*
X61633333Y-126270714D02*
X61252380Y-126270714D01*
X61490476Y-125937380D02*
X61490476Y-126794523D01*
X61442857Y-126889761D01*
X61347619Y-126937380D01*
X61252380Y-126937380D01*
X60919047Y-126842142D02*
X60871428Y-126889761D01*
X60919047Y-126937380D01*
X60966666Y-126889761D01*
X60919047Y-126842142D01*
X60919047Y-126937380D01*
X60919047Y-126318333D02*
X60871428Y-126365952D01*
X60919047Y-126413571D01*
X60966666Y-126365952D01*
X60919047Y-126318333D01*
X60919047Y-126413571D01*
X64514285Y-127547380D02*
X64990476Y-127547380D01*
X65038095Y-128023571D01*
X64990476Y-127975952D01*
X64895238Y-127928333D01*
X64657142Y-127928333D01*
X64561904Y-127975952D01*
X64514285Y-128023571D01*
X64466666Y-128118809D01*
X64466666Y-128356904D01*
X64514285Y-128452142D01*
X64561904Y-128499761D01*
X64657142Y-128547380D01*
X64895238Y-128547380D01*
X64990476Y-128499761D01*
X65038095Y-128452142D01*
X64180952Y-127547380D02*
X63847619Y-128547380D01*
X63514285Y-127547380D01*
X63133333Y-128499761D02*
X63133333Y-128547380D01*
X63180952Y-128642619D01*
X63228571Y-128690238D01*
X61800000Y-127975952D02*
X61895238Y-127928333D01*
X61942857Y-127880714D01*
X61990476Y-127785476D01*
X61990476Y-127737857D01*
X61942857Y-127642619D01*
X61895238Y-127595000D01*
X61800000Y-127547380D01*
X61609523Y-127547380D01*
X61514285Y-127595000D01*
X61466666Y-127642619D01*
X61419047Y-127737857D01*
X61419047Y-127785476D01*
X61466666Y-127880714D01*
X61514285Y-127928333D01*
X61609523Y-127975952D01*
X61800000Y-127975952D01*
X61895238Y-128023571D01*
X61942857Y-128071190D01*
X61990476Y-128166428D01*
X61990476Y-128356904D01*
X61942857Y-128452142D01*
X61895238Y-128499761D01*
X61800000Y-128547380D01*
X61609523Y-128547380D01*
X61514285Y-128499761D01*
X61466666Y-128452142D01*
X61419047Y-128356904D01*
X61419047Y-128166428D01*
X61466666Y-128071190D01*
X61514285Y-128023571D01*
X61609523Y-127975952D01*
X61038095Y-128261666D02*
X60561904Y-128261666D01*
X61133333Y-128547380D02*
X60800000Y-127547380D01*
X60466666Y-128547380D01*
M02*
