%TF.GenerationSoftware,KiCad,Pcbnew,(6.0.0-0)*%
%TF.CreationDate,2022-03-10T20:06:04+01:00*%
%TF.ProjectId,GlowTowerPCB,476c6f77-546f-4776-9572-5043422e6b69,rev?*%
%TF.SameCoordinates,Original*%
%TF.FileFunction,Soldermask,Bot*%
%TF.FilePolarity,Negative*%
%FSLAX46Y46*%
G04 Gerber Fmt 4.6, Leading zero omitted, Abs format (unit mm)*
G04 Created by KiCad (PCBNEW (6.0.0-0)) date 2022-03-10 20:06:04*
%MOMM*%
%LPD*%
G01*
G04 APERTURE LIST*
%ADD10C,2.000000*%
%ADD11C,2.100000*%
%ADD12R,1.600000X1.600000*%
%ADD13C,1.600000*%
%ADD14C,0.300000*%
%ADD15C,0.700000*%
%ADD16O,1.200000X2.200000*%
%ADD17O,1.200000X1.800000*%
%ADD18C,1.800000*%
%ADD19O,1.600000X3.000000*%
%ADD20O,3.200000X1.600000*%
%ADD21C,2.300000*%
%ADD22R,1.700000X1.700000*%
%ADD23O,1.700000X1.700000*%
%ADD24C,0.500000*%
G04 APERTURE END LIST*
D10*
%TO.C,F2*%
X73842048Y-120486297D03*
X78922058Y-120486297D03*
%TD*%
D11*
%TO.C,RJ1*%
X67798513Y-131096873D03*
X55809713Y-131096873D03*
D12*
X64354164Y-126248944D03*
D13*
X63334098Y-128788949D03*
X62314032Y-126248944D03*
X61294220Y-128788949D03*
X60274154Y-126248944D03*
X59254088Y-128788949D03*
%TD*%
D14*
%TO.C,U2*%
X78636218Y-86605463D03*
X78636218Y-88440463D03*
X77718718Y-85687963D03*
X77718718Y-87522963D03*
X77718718Y-89357963D03*
X76801218Y-86605463D03*
X76801218Y-88440463D03*
X75883718Y-85687963D03*
X75883718Y-87522963D03*
X75883718Y-89357963D03*
X74966218Y-86605463D03*
X74966218Y-88440463D03*
%TD*%
D15*
%TO.C,USB1*%
X77534780Y-130783924D03*
X71754780Y-130783924D03*
D16*
X78964780Y-130283924D03*
D17*
X70324780Y-134463924D03*
D16*
X70324780Y-130283924D03*
D17*
X78964780Y-134463924D03*
%TD*%
D18*
%TO.C,J2*%
X86091047Y-134377924D03*
D19*
X90941047Y-131627924D03*
X81241047Y-131627924D03*
X81241047Y-126927924D03*
X90941047Y-126927924D03*
D20*
X86091047Y-131127924D03*
D21*
X86091047Y-123427924D03*
%TD*%
D22*
%TO.C,J1*%
X90240000Y-105550000D03*
D23*
X90240000Y-108090000D03*
X90240000Y-110630000D03*
X90240000Y-113170000D03*
X90240000Y-115710000D03*
X90240000Y-118250000D03*
X90240000Y-120790000D03*
%TD*%
D24*
%TO.C,MK1*%
X63231200Y-91153000D03*
%TD*%
M02*
