%TF.GenerationSoftware,KiCad,Pcbnew,(6.0.0-0)*%
%TF.CreationDate,2022-02-21T19:04:22+01:00*%
%TF.ProjectId,GlowTowerPCB,476c6f77-546f-4776-9572-5043422e6b69,rev?*%
%TF.SameCoordinates,Original*%
%TF.FileFunction,Copper,L1,Top*%
%TF.FilePolarity,Positive*%
%FSLAX46Y46*%
G04 Gerber Fmt 4.6, Leading zero omitted, Abs format (unit mm)*
G04 Created by KiCad (PCBNEW (6.0.0-0)) date 2022-02-21 19:04:22*
%MOMM*%
%LPD*%
G01*
G04 APERTURE LIST*
G04 Aperture macros list*
%AMRoundRect*
0 Rectangle with rounded corners*
0 $1 Rounding radius*
0 $2 $3 $4 $5 $6 $7 $8 $9 X,Y pos of 4 corners*
0 Add a 4 corners polygon primitive as box body*
4,1,4,$2,$3,$4,$5,$6,$7,$8,$9,$2,$3,0*
0 Add four circle primitives for the rounded corners*
1,1,$1+$1,$2,$3*
1,1,$1+$1,$4,$5*
1,1,$1+$1,$6,$7*
1,1,$1+$1,$8,$9*
0 Add four rect primitives between the rounded corners*
20,1,$1+$1,$2,$3,$4,$5,0*
20,1,$1+$1,$4,$5,$6,$7,0*
20,1,$1+$1,$6,$7,$8,$9,0*
20,1,$1+$1,$8,$9,$2,$3,0*%
%AMHorizOval*
0 Thick line with rounded ends*
0 $1 width*
0 $2 $3 position (X,Y) of the first rounded end (center of the circle)*
0 $4 $5 position (X,Y) of the second rounded end (center of the circle)*
0 Add line between two ends*
20,1,$1,$2,$3,$4,$5,0*
0 Add two circle primitives to create the rounded ends*
1,1,$1,$2,$3*
1,1,$1,$4,$5*%
%AMRotRect*
0 Rectangle, with rotation*
0 The origin of the aperture is its center*
0 $1 length*
0 $2 width*
0 $3 Rotation angle, in degrees counterclockwise*
0 Add horizontal line*
21,1,$1,$2,0,0,$3*%
G04 Aperture macros list end*
%TA.AperFunction,EtchedComponent*%
%ADD10C,0.300000*%
%TD*%
%TA.AperFunction,SMDPad,CuDef*%
%ADD11R,0.400000X0.600000*%
%TD*%
%TA.AperFunction,SMDPad,CuDef*%
%ADD12RoundRect,0.040000X0.210000X-0.040000X0.210000X0.040000X-0.210000X0.040000X-0.210000X-0.040000X0*%
%TD*%
%TA.AperFunction,SMDPad,CuDef*%
%ADD13RoundRect,0.250000X0.550000X-1.500000X0.550000X1.500000X-0.550000X1.500000X-0.550000X-1.500000X0*%
%TD*%
%TA.AperFunction,SMDPad,CuDef*%
%ADD14RoundRect,0.237500X-0.008839X-0.344715X0.344715X0.008839X0.008839X0.344715X-0.344715X-0.008839X0*%
%TD*%
%TA.AperFunction,SMDPad,CuDef*%
%ADD15RoundRect,0.150000X0.150000X-0.587500X0.150000X0.587500X-0.150000X0.587500X-0.150000X-0.587500X0*%
%TD*%
%TA.AperFunction,SMDPad,CuDef*%
%ADD16RotRect,2.000000X3.500000X225.000000*%
%TD*%
%TA.AperFunction,SMDPad,CuDef*%
%ADD17RoundRect,0.237500X-0.250000X-0.237500X0.250000X-0.237500X0.250000X0.237500X-0.250000X0.237500X0*%
%TD*%
%TA.AperFunction,SMDPad,CuDef*%
%ADD18RoundRect,0.237500X0.300000X0.237500X-0.300000X0.237500X-0.300000X-0.237500X0.300000X-0.237500X0*%
%TD*%
%TA.AperFunction,ComponentPad*%
%ADD19R,1.700000X1.700000*%
%TD*%
%TA.AperFunction,ComponentPad*%
%ADD20O,1.700000X1.700000*%
%TD*%
%TA.AperFunction,SMDPad,CuDef*%
%ADD21R,2.500000X1.800000*%
%TD*%
%TA.AperFunction,ComponentPad*%
%ADD22C,1.800000*%
%TD*%
%TA.AperFunction,ComponentPad*%
%ADD23HorizOval,1.600000X0.121554X0.689365X-0.121554X-0.689365X0*%
%TD*%
%TA.AperFunction,ComponentPad*%
%ADD24HorizOval,1.600000X-0.787846X0.138919X0.787846X-0.138919X0*%
%TD*%
%TA.AperFunction,ComponentPad*%
%ADD25C,2.300000*%
%TD*%
%TA.AperFunction,SMDPad,CuDef*%
%ADD26RotRect,2.000000X3.500000X315.000000*%
%TD*%
%TA.AperFunction,SMDPad,CuDef*%
%ADD27RoundRect,0.237500X-0.300000X-0.237500X0.300000X-0.237500X0.300000X0.237500X-0.300000X0.237500X0*%
%TD*%
%TA.AperFunction,SMDPad,CuDef*%
%ADD28R,0.900000X1.500000*%
%TD*%
%TA.AperFunction,SMDPad,CuDef*%
%ADD29RoundRect,0.237500X0.250000X0.237500X-0.250000X0.237500X-0.250000X-0.237500X0.250000X-0.237500X0*%
%TD*%
%TA.AperFunction,SMDPad,CuDef*%
%ADD30RoundRect,0.237500X-0.237500X0.300000X-0.237500X-0.300000X0.237500X-0.300000X0.237500X0.300000X0*%
%TD*%
%TA.AperFunction,SMDPad,CuDef*%
%ADD31RoundRect,0.237500X-0.344715X0.008839X0.008839X-0.344715X0.344715X-0.008839X-0.008839X0.344715X0*%
%TD*%
%TA.AperFunction,SMDPad,CuDef*%
%ADD32RotRect,2.000000X3.500000X45.000000*%
%TD*%
%TA.AperFunction,ComponentPad*%
%ADD33R,2.200000X2.200000*%
%TD*%
%TA.AperFunction,ComponentPad*%
%ADD34C,2.200000*%
%TD*%
%TA.AperFunction,ComponentPad*%
%ADD35C,0.700000*%
%TD*%
%TA.AperFunction,SMDPad,CuDef*%
%ADD36RotRect,0.600000X1.300000X10.000000*%
%TD*%
%TA.AperFunction,SMDPad,CuDef*%
%ADD37RotRect,0.300000X1.300000X10.000000*%
%TD*%
%TA.AperFunction,ComponentPad*%
%ADD38HorizOval,1.200000X-0.052094X0.295442X0.052094X-0.295442X0*%
%TD*%
%TA.AperFunction,ComponentPad*%
%ADD39HorizOval,1.200000X-0.086824X0.492404X0.086824X-0.492404X0*%
%TD*%
%TA.AperFunction,SMDPad,CuDef*%
%ADD40R,1.676400X0.355600*%
%TD*%
%TA.AperFunction,SMDPad,CuDef*%
%ADD41RoundRect,0.237500X0.237500X-0.300000X0.237500X0.300000X-0.237500X0.300000X-0.237500X-0.300000X0*%
%TD*%
%TA.AperFunction,SMDPad,CuDef*%
%ADD42R,0.900000X2.000000*%
%TD*%
%TA.AperFunction,SMDPad,CuDef*%
%ADD43R,2.000000X0.900000*%
%TD*%
%TA.AperFunction,SMDPad,CuDef*%
%ADD44R,1.330000X1.330000*%
%TD*%
%TA.AperFunction,ComponentPad*%
%ADD45C,0.300000*%
%TD*%
%TA.AperFunction,SMDPad,CuDef*%
%ADD46R,0.250000X0.900000*%
%TD*%
%TA.AperFunction,SMDPad,CuDef*%
%ADD47R,0.900000X0.250000*%
%TD*%
%TA.AperFunction,SMDPad,CuDef*%
%ADD48R,3.250000X3.250000*%
%TD*%
%TA.AperFunction,SMDPad,CuDef*%
%ADD49RotRect,2.000000X3.500000X135.000000*%
%TD*%
%TA.AperFunction,SMDPad,CuDef*%
%ADD50RoundRect,0.237500X0.344715X-0.008839X-0.008839X0.344715X-0.344715X0.008839X0.008839X-0.344715X0*%
%TD*%
%TA.AperFunction,SMDPad,CuDef*%
%ADD51RoundRect,0.237500X0.008839X0.344715X-0.344715X-0.008839X-0.008839X-0.344715X0.344715X0.008839X0*%
%TD*%
%TA.AperFunction,SMDPad,CuDef*%
%ADD52R,1.500000X2.000000*%
%TD*%
%TA.AperFunction,SMDPad,CuDef*%
%ADD53R,3.800000X2.000000*%
%TD*%
%TA.AperFunction,ComponentPad*%
%ADD54C,2.000000*%
%TD*%
%TA.AperFunction,ViaPad*%
%ADD55C,0.800000*%
%TD*%
%TA.AperFunction,Conductor*%
%ADD56C,0.700000*%
%TD*%
G04 APERTURE END LIST*
D10*
%TO.C,MK1*%
X162502000Y-112274600D02*
G75*
G03*
X162502000Y-112274600I-675000J0D01*
G01*
%TD*%
D11*
%TO.P,MK1,1,LR*%
%TO.N,GND*%
X159252000Y-113349600D03*
%TO.P,MK1,2,CONFIG*%
X159902000Y-113349600D03*
%TO.P,MK1,3,VDD*%
%TO.N,+3V3*%
X160552000Y-113349600D03*
D12*
%TO.P,MK1,4,GND*%
%TO.N,GND*%
X162628800Y-112274600D03*
D11*
%TO.P,MK1,5,WS*%
%TO.N,IO15{slash}WS*%
X160552000Y-111199600D03*
%TO.P,MK1,6,SCK*%
%TO.N,IO14{slash}SCK*%
X159902000Y-111199600D03*
%TO.P,MK1,7,SD*%
%TO.N,Net-(MK1-Pad7)*%
X159252000Y-111199600D03*
%TD*%
D13*
%TO.P,C6,1*%
%TO.N,+5V*%
X144500600Y-123958000D03*
%TO.P,C6,2*%
%TO.N,GND*%
X144500600Y-118358000D03*
%TD*%
D14*
%TO.P,R2,1*%
%TO.N,Net-(R2-Pad1)*%
X139801565Y-57099235D03*
%TO.P,R2,2*%
%TO.N,LED1 DATA OUT*%
X141092035Y-55808765D03*
%TD*%
D15*
%TO.P,Q2,1*%
%TO.N,Net-(Q2-Pad1)*%
X134609800Y-111122700D03*
%TO.P,Q2,2*%
%TO.N,RESET*%
X136509800Y-111122700D03*
%TO.P,Q2,3*%
%TO.N,RTS*%
X135559800Y-109247700D03*
%TD*%
D16*
%TO.P,U5,1,5V*%
%TO.N,+5V*%
X145034927Y-55980674D03*
%TO.P,U5,2,Data*%
%TO.N,LED1 DATA OUT*%
X142910000Y-58105600D03*
%TO.P,U5,3,GND*%
%TO.N,GND*%
X140817600Y-60198000D03*
%TD*%
D17*
%TO.P,R8,1*%
%TO.N,RTS*%
X136145900Y-107365800D03*
%TO.P,R8,2*%
%TO.N,Net-(Q1-Pad1)*%
X137970900Y-107365800D03*
%TD*%
D15*
%TO.P,Q1,1*%
%TO.N,Net-(Q1-Pad1)*%
X138267400Y-111122700D03*
%TO.P,Q1,2*%
%TO.N,DTR*%
X140167400Y-111122700D03*
%TO.P,Q1,3*%
%TO.N,IO0*%
X139217400Y-109247700D03*
%TD*%
D18*
%TO.P,C11,1*%
%TO.N,GND*%
X169756900Y-110385400D03*
%TO.P,C11,2*%
%TO.N,RESET*%
X168031900Y-110385400D03*
%TD*%
D19*
%TO.P,J1,1,Pin_1*%
%TO.N,+3V3*%
X134137000Y-87451800D03*
D20*
%TO.P,J1,2,Pin_2*%
%TO.N,IO12{slash}MISO*%
X134137000Y-89991800D03*
%TO.P,J1,3,Pin_3*%
%TO.N,IO13{slash}MOSI*%
X134137000Y-92531800D03*
%TO.P,J1,4,Pin_4*%
%TO.N,IO21*%
X134137000Y-95071800D03*
%TO.P,J1,5,Pin_5*%
%TO.N,IO25{slash}A1{slash}DAC1*%
X134137000Y-97611800D03*
%TO.P,J1,6,Pin_6*%
%TO.N,IO26{slash}A0{slash}DAC2*%
X134137000Y-100151800D03*
%TD*%
D21*
%TO.P,D1,1,K*%
%TO.N,+5V*%
X168451500Y-122580400D03*
%TO.P,D1,2,A*%
%TO.N,Net-(F2-Pad1)*%
X164451500Y-122580400D03*
%TD*%
D22*
%TO.P,J2,*%
%TO.N,*%
X138166319Y-138170713D03*
D23*
%TO.P,J2,1*%
%TO.N,GND*%
X144236316Y-131676089D03*
X133867534Y-134620298D03*
X134683680Y-129991702D03*
X143420169Y-136304685D03*
D24*
%TO.P,J2,2*%
%TO.N,N/C*%
X138730676Y-134970088D03*
D25*
%TO.P,J2,3*%
%TO.N,Net-(F2-Pad2)*%
X140067767Y-127387068D03*
%TD*%
D26*
%TO.P,U8,1,5V*%
%TO.N,+5V*%
X140791274Y-66674073D03*
%TO.P,U8,2,Data*%
%TO.N,LED4 DATA OUT*%
X142916200Y-68799000D03*
%TO.P,U8,3,GND*%
%TO.N,GND*%
X145008600Y-70891400D03*
%TD*%
D18*
%TO.P,C12,1*%
%TO.N,GND*%
X162634000Y-114935000D03*
%TO.P,C12,2*%
%TO.N,+3V3*%
X160909000Y-114935000D03*
%TD*%
D27*
%TO.P,C1,1*%
%TO.N,+5V*%
X145428600Y-82133200D03*
%TO.P,C1,2*%
%TO.N,GND*%
X147153600Y-82133200D03*
%TD*%
D28*
%TO.P,SW1,1,1*%
%TO.N,GND*%
X169837800Y-112298400D03*
X169837800Y-116098400D03*
%TO.P,SW1,2,2*%
%TO.N,RESET*%
X168337800Y-112298400D03*
X168337800Y-116098400D03*
%TD*%
D27*
%TO.P,C7,1*%
%TO.N,+3V3*%
X168325800Y-133451600D03*
%TO.P,C7,2*%
%TO.N,GND*%
X170050800Y-133451600D03*
%TD*%
D29*
%TO.P,R9,1*%
%TO.N,DTR*%
X138402700Y-113080800D03*
%TO.P,R9,2*%
%TO.N,Net-(Q2-Pad1)*%
X136577700Y-113080800D03*
%TD*%
D30*
%TO.P,C5,1*%
%TO.N,+3V3*%
X144272000Y-106350900D03*
%TO.P,C5,2*%
%TO.N,GND*%
X144272000Y-108075900D03*
%TD*%
D31*
%TO.P,R4,1*%
%TO.N,LED4 DATA OUT*%
X140705765Y-70728765D03*
%TO.P,R4,2*%
%TO.N,Net-(R4-Pad2)*%
X141996235Y-72019235D03*
%TD*%
D32*
%TO.P,U6,1,5V*%
%TO.N,+5V*%
X151443506Y-70831878D03*
%TO.P,U6,2,Data*%
%TO.N,LED3 DATA OUT*%
X153568433Y-68706952D03*
%TO.P,U6,3,GND*%
%TO.N,GND*%
X155660833Y-66614552D03*
%TD*%
D33*
%TO.P,P1,1,1*%
%TO.N,unconnected-(P1-Pad1)*%
X148254708Y-134113666D03*
D34*
%TO.P,P1,2,2*%
%TO.N,unconnected-(P1-Pad2)*%
X152064716Y-134113666D03*
%TO.P,P1,3,3*%
%TO.N,unconnected-(P1-Pad3)*%
X155874724Y-134113666D03*
%TD*%
D35*
%TO.P,USB1,*%
%TO.N,*%
X161821874Y-134887563D03*
X167514063Y-133883876D03*
D36*
%TO.P,USB1,A1B12,GND*%
%TO.N,GND*%
X161301260Y-133720232D03*
%TO.P,USB1,A4B9,VBUS*%
%TO.N,VBUS*%
X162089106Y-133581314D03*
D37*
%TO.P,USB1,A5,CC1*%
%TO.N,USB-C CC1*%
X163221635Y-133381618D03*
%TO.P,USB1,A6,DP1*%
%TO.N,USB-C DATA+*%
X164206443Y-133207970D03*
%TO.P,USB1,A7,DN1*%
%TO.N,USB-C DATA-*%
X164698846Y-133121146D03*
%TO.P,USB1,A8,SBU1*%
%TO.N,unconnected-(USB1-PadA8)*%
X165683654Y-132947498D03*
D36*
%TO.P,USB1,B1A12,GND*%
%TO.N,GND*%
X167604029Y-132608884D03*
%TO.P,USB1,B4A9,VBUS*%
%TO.N,VBUS*%
X166816183Y-132747802D03*
D37*
%TO.P,USB1,B5,CC2*%
%TO.N,USB-C CC2*%
X166176058Y-132860674D03*
%TO.P,USB1,B6,DP2*%
%TO.N,USB-C DATA+*%
X165191250Y-133034322D03*
%TO.P,USB1,B7,DN2*%
%TO.N,USB-C DATA-*%
X163714039Y-133294794D03*
%TO.P,USB1,B8,SBU2*%
%TO.N,unconnected-(USB1-PadB8)*%
X162729231Y-133468442D03*
D38*
%TO.P,USB1,SHELL,SHELL*%
%TO.N,GND*%
X169561363Y-137259652D03*
D39*
X160326775Y-134643476D03*
D38*
X161052624Y-138759972D03*
D39*
X168835514Y-133143156D03*
%TD*%
D40*
%TO.P,U1,1,1A*%
%TO.N,IO16{slash}LED1*%
X151320300Y-80436001D03*
%TO.P,U1,2,1B*%
%TO.N,GND*%
X151320300Y-79786000D03*
%TO.P,U1,3,1Y*%
%TO.N,Net-(R2-Pad1)*%
X151320300Y-79135999D03*
%TO.P,U1,4,2A*%
%TO.N,IO17{slash}LED2*%
X151320300Y-78486000D03*
%TO.P,U1,5,2B*%
%TO.N,GND*%
X151320300Y-77836001D03*
%TO.P,U1,6,2Y*%
%TO.N,Net-(R1-Pad1)*%
X151320300Y-77186000D03*
%TO.P,U1,7,GND*%
%TO.N,GND*%
X151320300Y-76536001D03*
%TO.P,U1,8,3Y*%
%TO.N,Net-(R3-Pad2)*%
X145681500Y-76535999D03*
%TO.P,U1,9,3A*%
%TO.N,IO18{slash}LED3*%
X145681500Y-77186000D03*
%TO.P,U1,10,3B*%
%TO.N,GND*%
X145681500Y-77835999D03*
%TO.P,U1,11,4Y*%
%TO.N,Net-(R4-Pad2)*%
X145681500Y-78486000D03*
%TO.P,U1,12,4A*%
%TO.N,IO19{slash}LED4*%
X145681500Y-79135999D03*
%TO.P,U1,13,4B*%
%TO.N,GND*%
X145681500Y-79786000D03*
%TO.P,U1,14,VCC*%
%TO.N,+5V*%
X145681500Y-80435999D03*
%TD*%
D17*
%TO.P,R10,1*%
%TO.N,RESET*%
X168112500Y-117988000D03*
%TO.P,R10,2*%
%TO.N,+3V3*%
X169937500Y-117988000D03*
%TD*%
D41*
%TO.P,C10,1*%
%TO.N,GND*%
X145973800Y-108075900D03*
%TO.P,C10,2*%
%TO.N,+3V3*%
X145973800Y-106350900D03*
%TD*%
D13*
%TO.P,C8,1*%
%TO.N,+5V*%
X137287000Y-123958000D03*
%TO.P,C8,2*%
%TO.N,GND*%
X137287000Y-118358000D03*
%TD*%
D17*
%TO.P,R7,1*%
%TO.N,IO32{slash}SD*%
X157253300Y-109677200D03*
%TO.P,R7,2*%
%TO.N,Net-(MK1-Pad7)*%
X159078300Y-109677200D03*
%TD*%
D42*
%TO.P,U2,1,GND*%
%TO.N,GND*%
X163051279Y-84879189D03*
%TO.P,U2,2,3V3*%
%TO.N,+3V3*%
X161781279Y-84879189D03*
%TO.P,U2,3,EN*%
%TO.N,RESET*%
X160511279Y-84879189D03*
%TO.P,U2,4,SENSOR_VP*%
%TO.N,IO36{slash}A4{slash}SENSOR_VP*%
X159241279Y-84879189D03*
%TO.P,U2,5,SENSOR_VN*%
%TO.N,I39{slash}A3{slash}SENSOR_VN*%
X157971279Y-84879189D03*
%TO.P,U2,6,IO34*%
%TO.N,I34{slash}A2*%
X156701279Y-84879189D03*
%TO.P,U2,7,IO35*%
%TO.N,IO35*%
X155431279Y-84879189D03*
%TO.P,U2,8,IO32*%
%TO.N,IO32{slash}SD*%
X154161279Y-84879189D03*
%TO.P,U2,9,IO33*%
%TO.N,IO33*%
X152891279Y-84879189D03*
%TO.P,U2,10,IO25*%
%TO.N,IO25{slash}A1{slash}DAC1*%
X151621279Y-84879189D03*
%TO.P,U2,11,IO26*%
%TO.N,IO26{slash}A0{slash}DAC2*%
X150351279Y-84879189D03*
%TO.P,U2,12,IO27*%
%TO.N,IO27*%
X149081279Y-84879189D03*
%TO.P,U2,13,IO14*%
%TO.N,IO14{slash}SCK*%
X147811279Y-84879189D03*
%TO.P,U2,14,IO12*%
%TO.N,IO12{slash}MISO*%
X146541279Y-84879189D03*
D43*
%TO.P,U2,15,GND*%
%TO.N,GND*%
X145541279Y-87664189D03*
%TO.P,U2,16,IO13*%
%TO.N,IO13{slash}MOSI*%
X145541279Y-88934189D03*
%TO.P,U2,17,NC*%
%TO.N,unconnected-(U2-Pad17)*%
X145541279Y-90204189D03*
%TO.P,U2,18,NC*%
%TO.N,unconnected-(U2-Pad18)*%
X145541279Y-91474189D03*
%TO.P,U2,19,NC*%
%TO.N,unconnected-(U2-Pad19)*%
X145541279Y-92744189D03*
%TO.P,U2,20,NC*%
%TO.N,unconnected-(U2-Pad20)*%
X145541279Y-94014189D03*
%TO.P,U2,21,NC*%
%TO.N,unconnected-(U2-Pad21)*%
X145541279Y-95284189D03*
%TO.P,U2,22,NC*%
%TO.N,unconnected-(U2-Pad22)*%
X145541279Y-96554189D03*
%TO.P,U2,23,IO15*%
%TO.N,IO15{slash}WS*%
X145541279Y-97824189D03*
%TO.P,U2,24,IO2*%
%TO.N,IO2*%
X145541279Y-99094189D03*
D42*
%TO.P,U2,25,IO0*%
%TO.N,IO0*%
X146541279Y-101879189D03*
%TO.P,U2,26,IO4*%
%TO.N,IO4{slash}A5*%
X147811279Y-101879189D03*
%TO.P,U2,27,IO16*%
%TO.N,IO16{slash}LED1*%
X149081279Y-101879189D03*
%TO.P,U2,28,IO17*%
%TO.N,IO17{slash}LED2*%
X150351279Y-101879189D03*
%TO.P,U2,29,IO5*%
%TO.N,IO5*%
X151621279Y-101879189D03*
%TO.P,U2,30,IO18*%
%TO.N,IO18{slash}LED3*%
X152891279Y-101879189D03*
%TO.P,U2,31,IO19*%
%TO.N,IO19{slash}LED4*%
X154161279Y-101879189D03*
%TO.P,U2,32,NC1*%
%TO.N,unconnected-(U2-Pad32)*%
X155431279Y-101879189D03*
%TO.P,U2,33,IO21*%
%TO.N,IO21*%
X156701279Y-101879189D03*
%TO.P,U2,34,RXD0*%
%TO.N,RXD0*%
X157971279Y-101879189D03*
%TO.P,U2,35,TXD0*%
%TO.N,TXD0*%
X159241279Y-101879189D03*
%TO.P,U2,36,IO22*%
%TO.N,IO22*%
X160511279Y-101879189D03*
%TO.P,U2,37,IO23*%
%TO.N,IO23*%
X161781279Y-101879189D03*
%TO.P,U2,38,GND*%
%TO.N,GND*%
X163051279Y-101879189D03*
D44*
%TO.P,U2,39_1,GND*%
X157386279Y-90544189D03*
%TO.P,U2,39_2,GND*%
X157386279Y-92379189D03*
%TO.P,U2,39_3,GND*%
X157386279Y-94214189D03*
%TO.P,U2,39_4,GND*%
X155551279Y-90544189D03*
%TO.P,U2,39_5,GND*%
X155551279Y-92379189D03*
%TO.P,U2,39_6,GND*%
X155551279Y-94214189D03*
%TO.P,U2,39_7,GND*%
X153716279Y-90544189D03*
%TO.P,U2,39_8,GND*%
X153716279Y-92379189D03*
%TO.P,U2,39_9,GND*%
X153716279Y-94214189D03*
D45*
%TO.P,U2,39_10,GND*%
X157386279Y-91461689D03*
%TO.P,U2,39_11,GND*%
X157386279Y-93296689D03*
%TO.P,U2,39_12,GND*%
X156468779Y-90544189D03*
%TO.P,U2,39_13,GND*%
X156468779Y-92379189D03*
%TO.P,U2,39_14,GND*%
X156468779Y-94214189D03*
%TO.P,U2,39_15,GND*%
X155551279Y-91461689D03*
%TO.P,U2,39_16,GND*%
X155551279Y-93296689D03*
%TO.P,U2,39_17,GND*%
X154633779Y-90544189D03*
%TO.P,U2,39_18,GND*%
X154633779Y-92379189D03*
%TO.P,U2,39_19,GND*%
X154633779Y-94214189D03*
%TO.P,U2,39_20,GND*%
X153716279Y-91461689D03*
%TO.P,U2,39_21,GND*%
X153716279Y-93296689D03*
%TD*%
D46*
%TO.P,U3,1,DCD*%
%TO.N,unconnected-(U3-Pad1)*%
X165267501Y-130312613D03*
%TO.P,U3,2,RI*%
%TO.N,unconnected-(U3-Pad2)*%
X165767501Y-130312613D03*
%TO.P,U3,3,GND*%
%TO.N,GND*%
X166267501Y-130312613D03*
%TO.P,U3,4,D+*%
%TO.N,USB-C DATA+*%
X166767501Y-130312613D03*
%TO.P,U3,5,D-*%
%TO.N,USB-C DATA-*%
X167267500Y-130312613D03*
%TO.P,U3,6,VDD*%
%TO.N,+3V3*%
X167767500Y-130312613D03*
%TO.P,U3,7,REGIN*%
X168267500Y-130312613D03*
D47*
%TO.P,U3,8,VBUS*%
%TO.N,VBUS*%
X169167514Y-129412599D03*
%TO.P,U3,9,~{RST}*%
%TO.N,unconnected-(U3-Pad9)*%
X169167514Y-128912599D03*
%TO.P,U3,10,NC*%
%TO.N,unconnected-(U3-Pad10)*%
X169167514Y-128412599D03*
%TO.P,U3,11,~{SUSPEND}*%
%TO.N,unconnected-(U3-Pad11)*%
X169167514Y-127912599D03*
%TO.P,U3,12,SUSPEND*%
%TO.N,unconnected-(U3-Pad12)*%
X169167514Y-127412600D03*
%TO.P,U3,13,NC*%
%TO.N,unconnected-(U3-Pad13)*%
X169167514Y-126912600D03*
%TO.P,U3,14,NC*%
%TO.N,unconnected-(U3-Pad14)*%
X169167514Y-126412600D03*
D46*
%TO.P,U3,15,NC*%
%TO.N,unconnected-(U3-Pad15)*%
X168267500Y-125512586D03*
%TO.P,U3,16,NC*%
%TO.N,unconnected-(U3-Pad16)*%
X167767500Y-125512586D03*
%TO.P,U3,17,NC*%
%TO.N,unconnected-(U3-Pad17)*%
X167267500Y-125512586D03*
%TO.P,U3,18,NC*%
%TO.N,unconnected-(U3-Pad18)*%
X166767501Y-125512586D03*
%TO.P,U3,19,NC*%
%TO.N,unconnected-(U3-Pad19)*%
X166267501Y-125512586D03*
%TO.P,U3,20,NC*%
%TO.N,unconnected-(U3-Pad20)*%
X165767501Y-125512586D03*
%TO.P,U3,21,NC*%
%TO.N,unconnected-(U3-Pad21)*%
X165267501Y-125512586D03*
D47*
%TO.P,U3,22,NC*%
%TO.N,unconnected-(U3-Pad22)*%
X164367487Y-126412600D03*
%TO.P,U3,23,CTS*%
%TO.N,unconnected-(U3-Pad23)*%
X164367487Y-126912600D03*
%TO.P,U3,24,RTS*%
%TO.N,RTS*%
X164367487Y-127412600D03*
%TO.P,U3,25,RXD*%
%TO.N,TXD0*%
X164367487Y-127912599D03*
%TO.P,U3,26,TXD*%
%TO.N,RXD0*%
X164367487Y-128412599D03*
%TO.P,U3,27,DSR*%
%TO.N,unconnected-(U3-Pad27)*%
X164367487Y-128912599D03*
%TO.P,U3,28,DTR*%
%TO.N,DTR*%
X164367487Y-129412599D03*
D48*
%TO.P,U3,29,GND_PAD*%
%TO.N,GND*%
X166767500Y-127912600D03*
%TD*%
D49*
%TO.P,U7,1,5V*%
%TO.N,+5V*%
X155677526Y-60275127D03*
%TO.P,U7,2,Data*%
%TO.N,LED2 DATA OUT*%
X153552600Y-58150200D03*
%TO.P,U7,3,GND*%
%TO.N,GND*%
X151460200Y-56057800D03*
%TD*%
D13*
%TO.P,C2,1*%
%TO.N,+5V*%
X159054800Y-123958000D03*
%TO.P,C2,2*%
%TO.N,GND*%
X159054800Y-118358000D03*
%TD*%
D50*
%TO.P,R1,1*%
%TO.N,Net-(R1-Pad1)*%
X156601235Y-57084035D03*
%TO.P,R1,2*%
%TO.N,LED2 DATA OUT*%
X155310765Y-55793565D03*
%TD*%
D13*
%TO.P,C3,1*%
%TO.N,+5V*%
X151765000Y-123958000D03*
%TO.P,C3,2*%
%TO.N,GND*%
X151765000Y-118358000D03*
%TD*%
D30*
%TO.P,C9,1*%
%TO.N,GND*%
X154914600Y-111862700D03*
%TO.P,C9,2*%
%TO.N,+5V*%
X154914600Y-113587700D03*
%TD*%
D51*
%TO.P,R3,1*%
%TO.N,LED3 DATA OUT*%
X156194835Y-70017565D03*
%TO.P,R3,2*%
%TO.N,Net-(R3-Pad2)*%
X154904365Y-71308035D03*
%TD*%
D52*
%TO.P,U4,1,GND*%
%TO.N,GND*%
X148093400Y-113106600D03*
%TO.P,U4,2,Vout*%
%TO.N,+3V3*%
X150393400Y-113106600D03*
%TO.P,U4,3,Vin*%
%TO.N,+5V*%
X152693400Y-113106600D03*
D53*
%TO.P,U4,4,Vout*%
%TO.N,+3V3*%
X150393400Y-106806600D03*
%TD*%
D21*
%TO.P,D2,1,K*%
%TO.N,unconnected-(D2-Pad1)*%
X158647100Y-130886200D03*
%TO.P,D2,2,A*%
%TO.N,unconnected-(D2-Pad2)*%
X154647100Y-130886200D03*
%TD*%
D18*
%TO.P,C4,1*%
%TO.N,GND*%
X170051900Y-131800600D03*
%TO.P,C4,2*%
%TO.N,+3V3*%
X168326900Y-131800600D03*
%TD*%
D54*
%TO.P,F2,1,1*%
%TO.N,Net-(F2-Pad1)*%
X154021135Y-127436524D03*
%TO.P,F2,2,2*%
%TO.N,Net-(F2-Pad2)*%
X148941125Y-127436524D03*
%TD*%
D55*
%TO.N,GND*%
X137769600Y-57226200D03*
X139960000Y-118358000D03*
X155168600Y-52552600D03*
X141833600Y-75412600D03*
X160578800Y-71247000D03*
X137724800Y-118358000D03*
X142220600Y-118358000D03*
%TO.N,+5V*%
X157169200Y-123958000D03*
X159054800Y-123958000D03*
X158978732Y-125298068D03*
%TD*%
D56*
%TO.N,GND*%
X140817600Y-60198000D02*
X140741400Y-60198000D01*
X155660833Y-66614552D02*
X155946352Y-66614552D01*
X155946352Y-66614552D02*
X160578800Y-71247000D01*
X141833600Y-74066400D02*
X145008600Y-70891400D01*
X140741400Y-60198000D02*
X137769600Y-57226200D01*
X141833600Y-75412600D02*
X141833600Y-74066400D01*
X154965400Y-52552600D02*
X151460200Y-56057800D01*
X155168600Y-52552600D02*
X154965400Y-52552600D01*
%TD*%
M02*
