%TF.GenerationSoftware,KiCad,Pcbnew,(6.0.4-0)*%
%TF.CreationDate,2022-06-04T13:34:37+02:00*%
%TF.ProjectId,GlowTowerPCB,476c6f77-546f-4776-9572-5043422e6b69,rev?*%
%TF.SameCoordinates,Original*%
%TF.FileFunction,Paste,Top*%
%TF.FilePolarity,Positive*%
%FSLAX46Y46*%
G04 Gerber Fmt 4.6, Leading zero omitted, Abs format (unit mm)*
G04 Created by KiCad (PCBNEW (6.0.4-0)) date 2022-06-04 13:34:37*
%MOMM*%
%LPD*%
G01*
G04 APERTURE LIST*
G04 Aperture macros list*
%AMRoundRect*
0 Rectangle with rounded corners*
0 $1 Rounding radius*
0 $2 $3 $4 $5 $6 $7 $8 $9 X,Y pos of 4 corners*
0 Add a 4 corners polygon primitive as box body*
4,1,4,$2,$3,$4,$5,$6,$7,$8,$9,$2,$3,0*
0 Add four circle primitives for the rounded corners*
1,1,$1+$1,$2,$3*
1,1,$1+$1,$4,$5*
1,1,$1+$1,$6,$7*
1,1,$1+$1,$8,$9*
0 Add four rect primitives between the rounded corners*
20,1,$1+$1,$2,$3,$4,$5,0*
20,1,$1+$1,$4,$5,$6,$7,0*
20,1,$1+$1,$6,$7,$8,$9,0*
20,1,$1+$1,$8,$9,$2,$3,0*%
G04 Aperture macros list end*
%ADD10O,0.250013X0.750013*%
%ADD11RoundRect,0.237500X-0.300000X-0.237500X0.300000X-0.237500X0.300000X0.237500X-0.300000X0.237500X0*%
%ADD12R,1.050013X0.550013*%
%ADD13R,0.450013X1.400000*%
%ADD14R,2.400000X0.450013*%
%ADD15RoundRect,0.237500X0.250000X0.237500X-0.250000X0.237500X-0.250000X-0.237500X0.250000X-0.237500X0*%
%ADD16RoundRect,0.237500X-0.237500X0.250000X-0.237500X-0.250000X0.237500X-0.250000X0.237500X0.250000X0*%
%ADD17RoundRect,0.250000X0.400000X1.450000X-0.400000X1.450000X-0.400000X-1.450000X0.400000X-1.450000X0*%
%ADD18C,0.800000*%
%ADD19RoundRect,0.237500X-0.250000X-0.237500X0.250000X-0.237500X0.250000X0.237500X-0.250000X0.237500X0*%
%ADD20R,0.900000X1.500000*%
%ADD21RoundRect,0.237500X0.237500X-0.300000X0.237500X0.300000X-0.237500X0.300000X-0.237500X-0.300000X0*%
%ADD22RoundRect,0.237500X-0.237500X0.300000X-0.237500X-0.300000X0.237500X-0.300000X0.237500X0.300000X0*%
%ADD23RoundRect,0.237500X0.300000X0.237500X-0.300000X0.237500X-0.300000X-0.237500X0.300000X-0.237500X0*%
%ADD24R,0.600000X1.300000*%
%ADD25R,0.300000X1.300000*%
%ADD26R,0.900000X2.000000*%
%ADD27R,2.000000X0.900000*%
%ADD28R,1.330000X1.330000*%
%ADD29R,0.900000X0.900000*%
%ADD30R,0.900000X0.250000*%
%ADD31R,0.250000X0.900000*%
%ADD32RoundRect,0.250000X-1.500000X-0.550000X1.500000X-0.550000X1.500000X0.550000X-1.500000X0.550000X0*%
%ADD33RoundRect,0.250000X-0.550000X1.500000X-0.550000X-1.500000X0.550000X-1.500000X0.550000X1.500000X0*%
%ADD34R,0.600000X0.419990*%
%ADD35R,1.500000X2.000000*%
%ADD36R,3.800000X2.000000*%
G04 APERTURE END LIST*
D10*
%TO.C,U1*%
X93308039Y-68080089D03*
X93808166Y-68080089D03*
X94308039Y-68080089D03*
X94808166Y-68080089D03*
X94808166Y-71179911D03*
X94308039Y-71179911D03*
X93808166Y-71179911D03*
X93308039Y-71179911D03*
%TD*%
D11*
%TO.C,C13*%
X93357500Y-65940000D03*
X95082500Y-65940000D03*
%TD*%
D12*
%TO.C,U10*%
X84185083Y-105025545D03*
X82834816Y-105025545D03*
X82834816Y-105875431D03*
X84185083Y-105875431D03*
D13*
X85234867Y-105450488D03*
D14*
X83509949Y-104225443D03*
D13*
X81785032Y-105450488D03*
D14*
X83509949Y-106675532D03*
%TD*%
D15*
%TO.C,R2*%
X94342500Y-74270000D03*
X92517500Y-74270000D03*
%TD*%
D16*
%TO.C,R4*%
X78310000Y-123717500D03*
X78310000Y-125542500D03*
%TD*%
D15*
%TO.C,R5*%
X95382500Y-48870000D03*
X93557500Y-48870000D03*
%TD*%
D17*
%TO.C,F1*%
X76245000Y-124520000D03*
X71795000Y-124520000D03*
%TD*%
D18*
%TO.C,U14*%
X94585400Y-58984000D03*
X90038800Y-58095000D03*
X93163000Y-57485400D03*
X94763200Y-60000000D03*
X90927800Y-57460000D03*
X89480000Y-58958600D03*
X89505400Y-61041400D03*
X90064200Y-61955800D03*
X94001200Y-58069600D03*
X93112200Y-62540000D03*
X92020000Y-57231400D03*
X94585400Y-61092200D03*
X92020000Y-62768600D03*
X90978600Y-62565400D03*
X94001200Y-61955800D03*
X89276800Y-60000000D03*
%TD*%
D19*
%TO.C,R6*%
X84637500Y-80610000D03*
X86462500Y-80610000D03*
%TD*%
D11*
%TO.C,C11*%
X73717500Y-102420000D03*
X75442500Y-102420000D03*
%TD*%
D20*
%TO.C,SW2*%
X93752500Y-42920000D03*
X93752500Y-46720000D03*
X95252500Y-46720000D03*
X95252500Y-42920000D03*
%TD*%
%TO.C,SW3*%
X82937500Y-46780000D03*
X82937500Y-42980000D03*
X81437500Y-42980000D03*
X81437500Y-46780000D03*
%TD*%
D21*
%TO.C,C6*%
X86770000Y-106252500D03*
X86770000Y-104527500D03*
%TD*%
D22*
%TO.C,C1*%
X91550000Y-72112500D03*
X91550000Y-70387500D03*
%TD*%
D18*
%TO.C,U12*%
X55710030Y-62768600D03*
X58275430Y-61092200D03*
X53170030Y-58958600D03*
X57691230Y-61955800D03*
X54617830Y-57460000D03*
X52966830Y-60000000D03*
X58453230Y-60000000D03*
X55710030Y-57231400D03*
X56853030Y-57485400D03*
X53754230Y-61955800D03*
X53728830Y-58095000D03*
X56802230Y-62540000D03*
X54668630Y-62565400D03*
X57691230Y-58069600D03*
X53195430Y-61041400D03*
X58275430Y-58984000D03*
%TD*%
D20*
%TO.C,SW1*%
X89947500Y-46780000D03*
X89947500Y-42980000D03*
X88447500Y-42980000D03*
X88447500Y-46780000D03*
%TD*%
D23*
%TO.C,C7*%
X88995000Y-115390000D03*
X87270000Y-115390000D03*
%TD*%
%TO.C,C5*%
X90122500Y-80610000D03*
X88397500Y-80610000D03*
%TD*%
D24*
%TO.C,USB1*%
X70833733Y-129486000D03*
X71633733Y-129486000D03*
D25*
X72783733Y-129486000D03*
X73783733Y-129486000D03*
X74283733Y-129486000D03*
X75283733Y-129486000D03*
D24*
X77233733Y-129486000D03*
X76433733Y-129486000D03*
D25*
X75783733Y-129486000D03*
X74783733Y-129486000D03*
X73283733Y-129486000D03*
X72283733Y-129486000D03*
%TD*%
D19*
%TO.C,R7*%
X73667500Y-104340000D03*
X75492500Y-104340000D03*
%TD*%
D22*
%TO.C,C10*%
X62750000Y-98407500D03*
X62750000Y-100132500D03*
%TD*%
D26*
%TO.C,U2*%
X90185150Y-83047900D03*
X88915150Y-83047900D03*
X87645150Y-83047900D03*
X86375150Y-83047900D03*
X85105150Y-83047900D03*
X83835150Y-83047900D03*
X82565150Y-83047900D03*
X81295150Y-83047900D03*
X80025150Y-83047900D03*
X78755150Y-83047900D03*
X77485150Y-83047900D03*
X76215150Y-83047900D03*
X74945150Y-83047900D03*
X73675150Y-83047900D03*
D27*
X72675150Y-85832900D03*
X72675150Y-87102900D03*
X72675150Y-88372900D03*
X72675150Y-89642900D03*
X72675150Y-90912900D03*
X72675150Y-92182900D03*
X72675150Y-93452900D03*
X72675150Y-94722900D03*
X72675150Y-95992900D03*
X72675150Y-97262900D03*
D26*
X73675150Y-100047900D03*
X74945150Y-100047900D03*
X76215150Y-100047900D03*
X77485150Y-100047900D03*
X78755150Y-100047900D03*
X80025150Y-100047900D03*
X81295150Y-100047900D03*
X82565150Y-100047900D03*
X83835150Y-100047900D03*
X85105150Y-100047900D03*
X86375150Y-100047900D03*
X87645150Y-100047900D03*
X88915150Y-100047900D03*
X90185150Y-100047900D03*
D28*
X84520150Y-88712900D03*
X84520150Y-90547900D03*
X84520150Y-92382900D03*
X82685150Y-88712900D03*
X82685150Y-90547900D03*
X82685150Y-92382900D03*
X80850150Y-88712900D03*
X80850150Y-90547900D03*
X80850150Y-92382900D03*
%TD*%
D19*
%TO.C,R1*%
X88317500Y-48870000D03*
X90142500Y-48870000D03*
%TD*%
D29*
%TO.C,U3*%
X91880301Y-112727000D03*
X92980301Y-112727000D03*
X91880301Y-113827000D03*
X94080301Y-112727000D03*
X92980301Y-114927000D03*
X94080301Y-113827000D03*
X91880301Y-114927000D03*
X94080301Y-114927000D03*
X92980301Y-113827000D03*
D30*
X90580288Y-112327001D03*
X90580288Y-112827001D03*
X90580288Y-113327001D03*
X90580288Y-113827001D03*
X90580288Y-114327000D03*
X90580288Y-114827000D03*
X90580288Y-115327000D03*
D31*
X91480302Y-116227014D03*
X91980302Y-116227014D03*
X92480302Y-116227014D03*
X92980302Y-116227014D03*
X93480301Y-116227014D03*
X93980301Y-116227014D03*
X94480301Y-116227014D03*
D30*
X95380315Y-115327000D03*
X95380315Y-114827000D03*
X95380315Y-114327000D03*
X95380315Y-113827001D03*
X95380315Y-113327001D03*
X95380315Y-112827001D03*
X95380315Y-112327001D03*
D31*
X94480301Y-111426987D03*
X93980301Y-111426987D03*
X93480301Y-111426987D03*
X92980302Y-111426987D03*
X92480302Y-111426987D03*
X91980302Y-111426987D03*
X91480302Y-111426987D03*
%TD*%
D16*
%TO.C,R3*%
X80210000Y-123717500D03*
X80210000Y-125542500D03*
%TD*%
D32*
%TO.C,C2*%
X55580000Y-113540000D03*
X61180000Y-113540000D03*
%TD*%
D18*
%TO.C,U13*%
X71376800Y-44580000D03*
X74120000Y-47348600D03*
X76863200Y-44580000D03*
X71580000Y-43538600D03*
X75212200Y-47120000D03*
X72138800Y-42675000D03*
X73027800Y-42040000D03*
X75263000Y-42065400D03*
X76101200Y-46535800D03*
X73078600Y-47145400D03*
X72164200Y-46535800D03*
X74120000Y-41811400D03*
X76685400Y-43564000D03*
X76685400Y-45672200D03*
X76101200Y-42649600D03*
X71605400Y-45621400D03*
%TD*%
D33*
%TO.C,C3*%
X74440000Y-73780000D03*
X74440000Y-79380000D03*
%TD*%
D22*
%TO.C,C9*%
X70400000Y-104987500D03*
X70400000Y-106712500D03*
%TD*%
D34*
%TO.C,U9*%
X91560038Y-106620013D03*
X91560038Y-107270000D03*
X91560038Y-107919987D03*
X93459962Y-107919987D03*
X93459962Y-107270000D03*
X93459962Y-106620013D03*
%TD*%
D35*
%TO.C,U4*%
X63470000Y-106292500D03*
X65770000Y-106292500D03*
X68070000Y-106292500D03*
D36*
X65770000Y-99992500D03*
%TD*%
D11*
%TO.C,C8*%
X84687500Y-78750000D03*
X86412500Y-78750000D03*
%TD*%
D18*
%TO.C,U11*%
X71336800Y-112900000D03*
X76645400Y-111884000D03*
X76645400Y-113992200D03*
X76061200Y-110969600D03*
X73038600Y-115465400D03*
X71565400Y-113941400D03*
X75172200Y-115440000D03*
X76061200Y-114855800D03*
X72124200Y-114855800D03*
X71540000Y-111858600D03*
X74080000Y-115668600D03*
X72098800Y-110995000D03*
X72987800Y-110360000D03*
X76823200Y-112900000D03*
X74080000Y-110131400D03*
X75223000Y-110385400D03*
%TD*%
D11*
%TO.C,C4*%
X87277500Y-117150000D03*
X89002500Y-117150000D03*
%TD*%
D21*
%TO.C,C12*%
X88580000Y-106252500D03*
X88580000Y-104527500D03*
%TD*%
M02*
