%TF.GenerationSoftware,KiCad,Pcbnew,(6.0.6-0)*%
%TF.CreationDate,2022-07-27T22:33:04+02:00*%
%TF.ProjectId,GlowTowerPCB,476c6f77-546f-4776-9572-5043422e6b69,rev?*%
%TF.SameCoordinates,Original*%
%TF.FileFunction,Soldermask,Bot*%
%TF.FilePolarity,Negative*%
%FSLAX46Y46*%
G04 Gerber Fmt 4.6, Leading zero omitted, Abs format (unit mm)*
G04 Created by KiCad (PCBNEW (6.0.6-0)) date 2022-07-27 22:33:04*
%MOMM*%
%LPD*%
G01*
G04 APERTURE LIST*
%ADD10C,4.300000*%
%ADD11R,1.700000X1.700000*%
%ADD12O,1.700000X1.700000*%
%ADD13C,2.300000*%
%ADD14O,3.200000X1.600000*%
%ADD15O,1.600000X3.000000*%
%ADD16C,1.800000*%
%ADD17O,1.200000X2.200000*%
%ADD18O,1.200000X1.800000*%
%ADD19C,0.700025*%
%ADD20C,2.000000*%
%ADD21C,0.800000*%
%ADD22C,1.300000*%
G04 APERTURE END LIST*
D10*
%TO.C,U14*%
X92029970Y-60002540D03*
%TD*%
D11*
%TO.C,J1*%
X59060000Y-91310000D03*
D12*
X59060000Y-93850000D03*
X59060000Y-96390000D03*
X59060000Y-98930000D03*
X59060000Y-101470000D03*
X59060000Y-104010000D03*
X59060000Y-106550000D03*
%TD*%
D10*
%TO.C,U12*%
X55720000Y-60002540D03*
%TD*%
D13*
%TO.C,PWR1*%
X62856627Y-123066452D03*
D14*
X62856627Y-130766477D03*
D15*
X67706767Y-131266604D03*
X67706767Y-126566579D03*
X58006741Y-126566579D03*
X58006741Y-131266604D03*
D16*
X62856627Y-134016668D03*
%TD*%
D17*
%TO.C,USB1*%
X78340041Y-130232408D03*
X69699959Y-130232408D03*
D18*
X78340041Y-134412494D03*
X69699959Y-134412494D03*
D19*
X71129982Y-130732535D03*
X76910018Y-130732535D03*
%TD*%
D10*
%TO.C,U13*%
X74129970Y-44582540D03*
%TD*%
%TO.C,U11*%
X74089970Y-112902540D03*
%TD*%
D20*
%TO.C,F2*%
X57789865Y-120029876D03*
X62869875Y-120029876D03*
%TD*%
D21*
X71729600Y-99263200D03*
X74642879Y-101550609D03*
D22*
X83260000Y-130960000D03*
X85760000Y-44840000D03*
D21*
X66870000Y-96930000D03*
X95090000Y-64724500D03*
X65050000Y-101890000D03*
X83520000Y-103340000D03*
X82240000Y-94640000D03*
X83491860Y-101697402D03*
X71310000Y-104130000D03*
X63910000Y-97670000D03*
X88570000Y-113010000D03*
X65750000Y-110590000D03*
X81560000Y-123780000D03*
X64600000Y-109630000D03*
X84390000Y-94570000D03*
X85570000Y-40700000D03*
X76580000Y-102020000D03*
X84660000Y-97960000D03*
X63910000Y-88510000D03*
X67060000Y-111400000D03*
X87070000Y-118480000D03*
X68520000Y-100270000D03*
X89090000Y-84960000D03*
X88145415Y-79664585D03*
X67390000Y-104120000D03*
X88850000Y-118510000D03*
X89340000Y-77820000D03*
X78680000Y-109270000D03*
X70300000Y-87850000D03*
X77640000Y-116350000D03*
X75300000Y-117860000D03*
X78410000Y-117190000D03*
X61530000Y-115540000D03*
X62760000Y-115510000D03*
X60730000Y-114860000D03*
X52940000Y-113630000D03*
X53024569Y-115769975D03*
X54137272Y-114657272D03*
X75130000Y-96020000D03*
X81190000Y-103840000D03*
X81100000Y-106910000D03*
X77400000Y-97890000D03*
X74850000Y-87520000D03*
X79110000Y-88710000D03*
X86360000Y-87510000D03*
X85689986Y-106829882D03*
X86490000Y-77200000D03*
X94930000Y-106670000D03*
X87740000Y-86400000D03*
X90710000Y-50510000D03*
X78640000Y-84970000D03*
X67350000Y-89040000D03*
X76220000Y-88710000D03*
X68160000Y-90180000D03*
X91460000Y-74390000D03*
X82860000Y-67960000D03*
X88660000Y-95690000D03*
X77330000Y-107720000D03*
X74690000Y-97590000D03*
X78450000Y-96990000D03*
X93590000Y-50450000D03*
X90600000Y-107840000D03*
X94130000Y-69260000D03*
X90210000Y-73020000D03*
X87760000Y-76580000D03*
X80500000Y-85420000D03*
X74810000Y-131540000D03*
X84930000Y-114000000D03*
X85980000Y-114630000D03*
X80130000Y-131980000D03*
X93010000Y-108740000D03*
X91460000Y-110350000D03*
X64960000Y-66720000D03*
X64990000Y-53000000D03*
X87880000Y-57690000D03*
X79470000Y-70780000D03*
X90090000Y-71500000D03*
X80025150Y-79304850D03*
X72680000Y-78250000D03*
X64910000Y-49680000D03*
X71160000Y-78350000D03*
X66720000Y-68840000D03*
X81580000Y-51070000D03*
X72750000Y-79800000D03*
X71450000Y-79720000D03*
X81280000Y-69030000D03*
X69400000Y-98890000D03*
X60320000Y-109880000D03*
X79390000Y-103510000D03*
X79502000Y-98044000D03*
M02*
