%TF.GenerationSoftware,KiCad,Pcbnew,(6.0.0-0)*%
%TF.CreationDate,2022-03-31T12:40:58+02:00*%
%TF.ProjectId,GlowTowerPCB,476c6f77-546f-4776-9572-5043422e6b69,rev?*%
%TF.SameCoordinates,Original*%
%TF.FileFunction,Copper,L2,Bot*%
%TF.FilePolarity,Positive*%
%FSLAX46Y46*%
G04 Gerber Fmt 4.6, Leading zero omitted, Abs format (unit mm)*
G04 Created by KiCad (PCBNEW (6.0.0-0)) date 2022-03-31 12:40:58*
%MOMM*%
%LPD*%
G01*
G04 APERTURE LIST*
%TA.AperFunction,ComponentPad*%
%ADD10O,1.700000X1.700000*%
%TD*%
%TA.AperFunction,ComponentPad*%
%ADD11R,1.700000X1.700000*%
%TD*%
%TA.AperFunction,ComponentPad*%
%ADD12C,2.300000*%
%TD*%
%TA.AperFunction,ComponentPad*%
%ADD13O,3.200000X1.600000*%
%TD*%
%TA.AperFunction,ComponentPad*%
%ADD14O,1.600000X3.000000*%
%TD*%
%TA.AperFunction,ComponentPad*%
%ADD15C,1.800000*%
%TD*%
%TA.AperFunction,ComponentPad*%
%ADD16O,1.200000X1.800000*%
%TD*%
%TA.AperFunction,ComponentPad*%
%ADD17O,1.200000X2.200000*%
%TD*%
%TA.AperFunction,ComponentPad*%
%ADD18C,0.700000*%
%TD*%
%TA.AperFunction,ComponentPad*%
%ADD19C,0.300000*%
%TD*%
%TA.AperFunction,ComponentPad*%
%ADD20C,1.600000*%
%TD*%
%TA.AperFunction,ComponentPad*%
%ADD21R,1.600000X1.600000*%
%TD*%
%TA.AperFunction,ComponentPad*%
%ADD22C,2.000000*%
%TD*%
%TA.AperFunction,ViaPad*%
%ADD23C,0.800000*%
%TD*%
%TA.AperFunction,Conductor*%
%ADD24C,0.200000*%
%TD*%
%TA.AperFunction,Conductor*%
%ADD25C,0.250000*%
%TD*%
%TA.AperFunction,Conductor*%
%ADD26C,2.000000*%
%TD*%
%TA.AperFunction,Conductor*%
%ADD27C,0.160000*%
%TD*%
%TA.AperFunction,Conductor*%
%ADD28C,4.500000*%
%TD*%
%TA.AperFunction,Conductor*%
%ADD29C,4.000000*%
%TD*%
%TA.AperFunction,Conductor*%
%ADD30C,3.000000*%
%TD*%
%TA.AperFunction,Conductor*%
%ADD31C,5.500000*%
%TD*%
%TA.AperFunction,Conductor*%
%ADD32C,1.000000*%
%TD*%
G04 APERTURE END LIST*
D10*
%TO.P,J1,7,Pin_7*%
%TO.N,GND*%
X90240000Y-120790000D03*
%TO.P,J1,6,Pin_6*%
%TO.N,+3V3*%
X90240000Y-118250000D03*
%TO.P,J1,5,Pin_5*%
%TO.N,IO26{slash}A0{slash}DAC2*%
X90240000Y-115710000D03*
%TO.P,J1,4,Pin_4*%
%TO.N,IO25{slash}A1{slash}DAC1*%
X90240000Y-113170000D03*
%TO.P,J1,3,Pin_3*%
%TO.N,IO21*%
X90240000Y-110630000D03*
%TO.P,J1,2,Pin_2*%
%TO.N,IO13{slash}MOSI*%
X90240000Y-108090000D03*
D11*
%TO.P,J1,1,Pin_1*%
%TO.N,IO12{slash}MISO*%
X90240000Y-105550000D03*
%TD*%
D12*
%TO.P,J2,3*%
%TO.N,Net-(F2-Pad2)*%
X86091047Y-123427924D03*
D13*
%TO.P,J2,2*%
%TO.N,N/C*%
X86091047Y-131127924D03*
D14*
%TO.P,J2,1*%
%TO.N,GND*%
X90941047Y-126927924D03*
X81241047Y-126927924D03*
X81241047Y-131627924D03*
X90941047Y-131627924D03*
D15*
%TO.P,J2,*%
%TO.N,*%
X86091047Y-134377924D03*
%TD*%
D16*
%TO.P,USB1,SHELL,SHELL*%
%TO.N,GND*%
X78964780Y-134463924D03*
D17*
X70324780Y-130283924D03*
D16*
X70324780Y-134463924D03*
D17*
X78964780Y-130283924D03*
D18*
%TO.P,USB1,*%
%TO.N,*%
X71754780Y-130783924D03*
X77534780Y-130783924D03*
%TD*%
D19*
%TO.P,U2,39_21,GND*%
%TO.N,GND*%
X74966218Y-88440463D03*
%TO.P,U2,39_20,GND*%
X74966218Y-86605463D03*
%TO.P,U2,39_19,GND*%
X75883718Y-89357963D03*
%TO.P,U2,39_18,GND*%
X75883718Y-87522963D03*
%TO.P,U2,39_17,GND*%
X75883718Y-85687963D03*
%TO.P,U2,39_16,GND*%
X76801218Y-88440463D03*
%TO.P,U2,39_15,GND*%
X76801218Y-86605463D03*
%TO.P,U2,39_14,GND*%
X77718718Y-89357963D03*
%TO.P,U2,39_13,GND*%
X77718718Y-87522963D03*
%TO.P,U2,39_12,GND*%
X77718718Y-85687963D03*
%TO.P,U2,39_11,GND*%
X78636218Y-88440463D03*
%TO.P,U2,39_10,GND*%
X78636218Y-86605463D03*
%TD*%
D20*
%TO.P,RJ1,6,6*%
%TO.N,unconnected-(RJ1-Pad6)*%
X59254088Y-128788949D03*
%TO.P,RJ1,5,5*%
%TO.N,unconnected-(RJ1-Pad5)*%
X60274154Y-126248944D03*
%TO.P,RJ1,4,4*%
%TO.N,GND*%
X61294220Y-128788949D03*
%TO.P,RJ1,3,3*%
%TO.N,LED1 DATA IN*%
X62314032Y-126248944D03*
%TO.P,RJ1,2,2*%
%TO.N,RECEIVER 5V*%
X63334098Y-128788949D03*
D21*
%TO.P,RJ1,1,1*%
%TO.N,unconnected-(RJ1-Pad1)*%
X64354164Y-126248944D03*
%TD*%
D22*
%TO.P,F2,2,2*%
%TO.N,Net-(F2-Pad2)*%
X78922058Y-120486297D03*
%TO.P,F2,1,1*%
%TO.N,+5V*%
X73842048Y-120486297D03*
%TD*%
D23*
%TO.N,RECEIVER 5V*%
X75970000Y-115610000D03*
%TO.N,GND*%
X64300000Y-65170000D03*
%TO.N,+5V*%
X80120000Y-49510000D03*
%TO.N,GND*%
X88210000Y-51370000D03*
X56710000Y-120020000D03*
X64600000Y-58440000D03*
X57600000Y-77560000D03*
X57640000Y-75080000D03*
X67389433Y-122999433D03*
X67669328Y-103409140D03*
X69720000Y-109560000D03*
X71606414Y-84791394D03*
X61540000Y-105280000D03*
X89900000Y-65240000D03*
X83430000Y-65070000D03*
X74740000Y-104320000D03*
X66070567Y-122999433D03*
X68690567Y-122999433D03*
X59320000Y-77560000D03*
X57190000Y-72490000D03*
X68890000Y-84000000D03*
X58410000Y-76250000D03*
X78160000Y-112510000D03*
%TO.N,+3V3*%
X60680000Y-98460000D03*
X65510000Y-101820000D03*
X62425191Y-100861789D03*
X60750000Y-88590000D03*
X62423912Y-98317489D03*
X83040000Y-81980000D03*
X60570000Y-95820000D03*
X80340000Y-110880000D03*
%TO.N,+5V*%
X86540000Y-60450000D03*
X76240000Y-77190000D03*
%TO.N,Net-(Q1-Pad1)*%
X76190000Y-101430000D03*
X73700000Y-101440000D03*
%TO.N,IO14{slash}SCK*%
X65950000Y-80710000D03*
X63310000Y-89200000D03*
%TO.N,IO32{slash}SD*%
X64660000Y-85920000D03*
X68600000Y-86520000D03*
%TO.N,RESET*%
X60570000Y-100590000D03*
X71340000Y-98680000D03*
X78450000Y-101580000D03*
X81610000Y-81440000D03*
X75000500Y-99770000D03*
%TO.N,IO25{slash}A1{slash}DAC1*%
X76630000Y-81870000D03*
X82451865Y-92179668D03*
X88320000Y-114280000D03*
X72750000Y-82010000D03*
%TO.N,IO26{slash}A0{slash}DAC2*%
X82090014Y-93111368D03*
X76230000Y-82935500D03*
X88490000Y-116920000D03*
X71580000Y-82240000D03*
%TO.N,IO12{slash}MISO*%
X69330000Y-88220000D03*
X88300000Y-106520000D03*
X83290000Y-95180000D03*
X71860000Y-90160000D03*
X78740000Y-90710000D03*
X68970000Y-82190000D03*
%TO.N,IO13{slash}MOSI*%
X79310000Y-82460000D03*
X72920000Y-84760000D03*
X88470000Y-109120000D03*
X82080000Y-86040000D03*
%TO.N,IO0*%
X76970000Y-95190000D03*
X77620000Y-98940000D03*
%TO.N,IO21*%
X88290000Y-111780000D03*
X78240000Y-95550000D03*
X81310000Y-88780000D03*
X82650000Y-91200000D03*
%TO.N,RXD0*%
X79540000Y-99339500D03*
X70670000Y-104270000D03*
%TO.N,TXD0*%
X71260000Y-105120000D03*
X78610000Y-94080000D03*
%TO.N,VBUS*%
X76450000Y-122840000D03*
X74330000Y-106530000D03*
X79420000Y-116020000D03*
X76480000Y-116830000D03*
%TO.N,USB-C DATA+*%
X73390000Y-108870000D03*
X79180000Y-123760000D03*
%TO.N,USB-C DATA-*%
X76710378Y-133620378D03*
X77290000Y-123870000D03*
X74490000Y-135000000D03*
X73604438Y-107862377D03*
%TO.N,RTS*%
X69590000Y-100009500D03*
X71660000Y-106260000D03*
%TO.N,DTR*%
X69830000Y-103347580D03*
X78860500Y-102924770D03*
%TO.N,USB-C CC2*%
X73030000Y-132930000D03*
X75730000Y-132780000D03*
%TO.N,RECEIVER 5V*%
X75083358Y-105476760D03*
X76920000Y-112490000D03*
X61830000Y-119920000D03*
%TO.N,LED1 DATA IN*%
X65890000Y-111660000D03*
X68060000Y-98940000D03*
X84050000Y-75950000D03*
X60440000Y-118960000D03*
%TO.N,IO33{slash}TESTBUTTON*%
X70160000Y-84430000D03*
X63220500Y-105010000D03*
%TD*%
D24*
%TO.N,VBUS*%
X76480000Y-116830000D02*
X76540000Y-116890000D01*
X76540000Y-116890000D02*
X76540000Y-122750000D01*
X76540000Y-122750000D02*
X76450000Y-122840000D01*
D25*
%TO.N,RECEIVER 5V*%
X75340000Y-114980000D02*
X75970000Y-115610000D01*
X75140000Y-114980000D02*
X75340000Y-114980000D01*
D26*
%TO.N,GND*%
X64300000Y-65380000D02*
X57190000Y-72490000D01*
X64300000Y-65170000D02*
X64300000Y-65380000D01*
%TO.N,+5V*%
X80120000Y-49510000D02*
X82200000Y-49510000D01*
X82200000Y-49510000D02*
X86540000Y-53850000D01*
X86540000Y-53850000D02*
X86540000Y-60450000D01*
%TO.N,GND*%
X89910000Y-53070000D02*
X88210000Y-51370000D01*
X89910000Y-53470000D02*
X89910000Y-53070000D01*
D27*
%TO.N,Net-(Q1-Pad1)*%
X76190000Y-101430000D02*
X73710000Y-101430000D01*
X73710000Y-101430000D02*
X73700000Y-101440000D01*
%TO.N,RESET*%
X75000500Y-99770000D02*
X77180000Y-99770000D01*
X77180000Y-99770000D02*
X77745000Y-100335000D01*
D28*
%TO.N,GND*%
X68690567Y-122999433D02*
X69729433Y-122999433D01*
X70215293Y-123485293D02*
X70215293Y-128265294D01*
D29*
X81588971Y-126940000D02*
X81408971Y-126760000D01*
D26*
X90941047Y-131627924D02*
X90941047Y-130931047D01*
X89910000Y-65230000D02*
X89910000Y-53470000D01*
X90863123Y-126850000D02*
X90390000Y-126850000D01*
D29*
X87130000Y-126940000D02*
X81588971Y-126940000D01*
D26*
X83430000Y-65260000D02*
X71590000Y-77100000D01*
X70324780Y-134463924D02*
X70135259Y-134274403D01*
D30*
X90300000Y-126940000D02*
X89930000Y-126940000D01*
D25*
X67670000Y-107040000D02*
X67670000Y-107530000D01*
D26*
X66610000Y-77310000D02*
X65190000Y-77310000D01*
D27*
X69960000Y-81070000D02*
X70790000Y-80240000D01*
D28*
X67389433Y-122999433D02*
X68690567Y-122999433D01*
D26*
X89900000Y-65240000D02*
X89910000Y-65230000D01*
D28*
X56710000Y-117900000D02*
X56710000Y-109980000D01*
D31*
X81241047Y-132358953D02*
X80690000Y-132910000D01*
D30*
X90390000Y-126850000D02*
X90300000Y-126940000D01*
D26*
X57110000Y-65930000D02*
X64600000Y-58440000D01*
D32*
X68260000Y-107670000D02*
X72200000Y-107670000D01*
X65780000Y-107170000D02*
X63430000Y-107170000D01*
D28*
X70215293Y-123485293D02*
X73657924Y-126927924D01*
D25*
X69700000Y-109560000D02*
X69720000Y-109560000D01*
X67670000Y-107530000D02*
X69700000Y-109560000D01*
D32*
X59410000Y-105280000D02*
X56710000Y-107980000D01*
D26*
X70790000Y-80240000D02*
X69540000Y-80240000D01*
D28*
X56710000Y-117900000D02*
X56710000Y-120020000D01*
D32*
X63430000Y-107170000D02*
X61540000Y-105280000D01*
D28*
X56710000Y-120020000D02*
X59689433Y-122999433D01*
D26*
X68580000Y-73220000D02*
X65690000Y-76110000D01*
D32*
X73230489Y-105774685D02*
X74685174Y-104320000D01*
X72200000Y-107670000D02*
X73230489Y-106639511D01*
X66790000Y-106200000D02*
X68260000Y-107670000D01*
D26*
X66680000Y-77100000D02*
X65690000Y-76110000D01*
D27*
X69965500Y-82924500D02*
X68890000Y-84000000D01*
X71606414Y-84791394D02*
X72690000Y-85874980D01*
D32*
X66790000Y-106160000D02*
X65780000Y-107170000D01*
D28*
X57600000Y-77560000D02*
X59320000Y-77560000D01*
D32*
X73230489Y-106639511D02*
X73230489Y-105774685D01*
D26*
X77010000Y-80240000D02*
X70790000Y-80240000D01*
D27*
X72690000Y-85874980D02*
X72690000Y-87710000D01*
D26*
X89890000Y-65250000D02*
X89890000Y-67980000D01*
D28*
X60950000Y-77560000D02*
X61200000Y-77310000D01*
X59689433Y-122999433D02*
X66070567Y-122999433D01*
D26*
X89890000Y-67980000D02*
X86320000Y-71550000D01*
D28*
X60140000Y-76250000D02*
X58410000Y-76250000D01*
X61200000Y-77310000D02*
X60140000Y-76250000D01*
D26*
X83430000Y-65070000D02*
X83430000Y-65260000D01*
X57190000Y-72490000D02*
X57110000Y-72410000D01*
X85700000Y-71550000D02*
X77010000Y-80240000D01*
D25*
X78160000Y-112510000D02*
X81408971Y-115758971D01*
X81408971Y-115758971D02*
X81408971Y-126760000D01*
D28*
X56670000Y-109940000D02*
X56670000Y-81840000D01*
D26*
X65690000Y-76110000D02*
X65190000Y-76610000D01*
D28*
X69729433Y-122999433D02*
X70215293Y-123485293D01*
D31*
X81241047Y-126927924D02*
X81241047Y-132358953D01*
D27*
X73719537Y-88440463D02*
X74966218Y-88440463D01*
D25*
X66790000Y-106160000D02*
X67670000Y-107040000D01*
D28*
X56710000Y-109980000D02*
X56670000Y-109940000D01*
D27*
X72690000Y-87710000D02*
X73570000Y-88590000D01*
X69965500Y-82650000D02*
X69965500Y-82924500D01*
D25*
X67669328Y-105280672D02*
X67669328Y-103409140D01*
D26*
X65190000Y-76610000D02*
X65190000Y-77310000D01*
D25*
X66790000Y-106160000D02*
X67669328Y-105280672D01*
D32*
X56710000Y-107980000D02*
X56710000Y-117900000D01*
X61540000Y-105280000D02*
X59410000Y-105280000D01*
D26*
X57110000Y-72410000D02*
X57110000Y-65930000D01*
X81408971Y-126760000D02*
X81241047Y-126927924D01*
D28*
X59320000Y-77560000D02*
X60950000Y-77560000D01*
D27*
X69960000Y-82644500D02*
X69960000Y-81070000D01*
D28*
X73657924Y-126927924D02*
X81241047Y-126927924D01*
D26*
X90941047Y-126927924D02*
X90863123Y-126850000D01*
X70135259Y-134274403D02*
X70135259Y-130283924D01*
X87130000Y-127120000D02*
X87130000Y-126940000D01*
D32*
X66790000Y-106160000D02*
X66790000Y-106200000D01*
D29*
X89930000Y-126940000D02*
X87130000Y-126940000D01*
D26*
X69540000Y-80240000D02*
X66610000Y-77310000D01*
D27*
X73570000Y-88590000D02*
X73719537Y-88440463D01*
D28*
X66070567Y-122999433D02*
X67389433Y-122999433D01*
X56670000Y-81840000D02*
X60950000Y-77560000D01*
D26*
X71590000Y-77100000D02*
X66680000Y-77100000D01*
X90941047Y-130931047D02*
X87130000Y-127120000D01*
D31*
X65190000Y-77310000D02*
X62520000Y-77310000D01*
D32*
X74685174Y-104320000D02*
X74740000Y-104320000D01*
D28*
X57100000Y-77560000D02*
X57600000Y-77560000D01*
D26*
X89900000Y-65240000D02*
X89890000Y-65250000D01*
X90941047Y-131627924D02*
X90941047Y-126927924D01*
X86320000Y-71550000D02*
X85700000Y-71550000D01*
D32*
%TO.N,+3V3*%
X80854567Y-87680489D02*
X80659520Y-87485442D01*
X82168796Y-109051204D02*
X80280000Y-107162408D01*
X81765433Y-87680489D02*
X80854567Y-87680489D01*
D27*
X60822511Y-98317489D02*
X62423912Y-98317489D01*
X60750000Y-95640000D02*
X60750000Y-88590000D01*
D32*
X80659520Y-84360480D02*
X83040000Y-81980000D01*
D27*
X60570000Y-95820000D02*
X60750000Y-95640000D01*
D32*
X82409511Y-88324567D02*
X81765433Y-87680489D01*
X80659520Y-87485442D02*
X80659520Y-84360480D01*
X80340000Y-110880000D02*
X82168796Y-109051204D01*
D27*
X60680000Y-98460000D02*
X60822511Y-98317489D01*
D32*
X82409511Y-89885545D02*
X82409511Y-88324567D01*
D27*
X63383402Y-101820000D02*
X65510000Y-101820000D01*
D32*
X81019520Y-92860480D02*
X81019520Y-91275536D01*
X80639511Y-98884067D02*
X80280000Y-98524556D01*
X80639511Y-106802897D02*
X80639511Y-98884067D01*
X80280000Y-107162408D02*
X80639511Y-106802897D01*
D27*
X62425191Y-100861789D02*
X63383402Y-101820000D01*
D32*
X80280000Y-98524556D02*
X80280000Y-93600000D01*
X80280000Y-93600000D02*
X81019520Y-92860480D01*
X81019520Y-91275536D02*
X82409511Y-89885545D01*
D26*
%TO.N,+5V*%
X86540000Y-66890000D02*
X86320000Y-67110000D01*
X86320000Y-67110000D02*
X76240000Y-77190000D01*
X76240000Y-77190000D02*
X76050000Y-77190000D01*
X86540000Y-60450000D02*
X86540000Y-66890000D01*
D27*
%TO.N,IO14{slash}SCK*%
X65950000Y-80710000D02*
X65950000Y-82740000D01*
X65950000Y-82740000D02*
X63510000Y-85180000D01*
X63510000Y-89000000D02*
X63310000Y-89200000D01*
X63510000Y-85180000D02*
X63510000Y-89000000D01*
%TO.N,IO32{slash}SD*%
X64660000Y-85920000D02*
X65260000Y-86520000D01*
X65260000Y-86520000D02*
X68600000Y-86520000D01*
%TO.N,RESET*%
X77745000Y-100335000D02*
X77770000Y-100360000D01*
X77745000Y-100335000D02*
X77735000Y-100335000D01*
X79420000Y-91670000D02*
X79740000Y-91350000D01*
X79740000Y-83760000D02*
X81610000Y-81890000D01*
X71340000Y-97550000D02*
X77220000Y-91670000D01*
X77735000Y-100335000D02*
X78450000Y-101050000D01*
X71210000Y-98550000D02*
X71340000Y-98680000D01*
X71340000Y-98680000D02*
X71340000Y-97550000D01*
X60570000Y-100590000D02*
X61190000Y-99970000D01*
X61190000Y-99970000D02*
X68370000Y-99970000D01*
X78450000Y-101050000D02*
X78450000Y-101580000D01*
X79740000Y-91350000D02*
X79740000Y-83760000D01*
X81610000Y-81890000D02*
X81610000Y-81440000D01*
X77220000Y-91670000D02*
X79420000Y-91670000D01*
X68370000Y-99970000D02*
X69790000Y-98550000D01*
X69790000Y-98550000D02*
X71210000Y-98550000D01*
%TO.N,IO25{slash}A1{slash}DAC1*%
X82451865Y-92179668D02*
X82798531Y-92526334D01*
X82798531Y-92526334D02*
X82798531Y-93363826D01*
X86230000Y-112190000D02*
X88320000Y-114280000D01*
X81778551Y-106158551D02*
X86230000Y-110610000D01*
X81560000Y-98193711D02*
X81778551Y-98412262D01*
X76630000Y-81870000D02*
X72890000Y-81870000D01*
X86230000Y-110610000D02*
X86230000Y-112190000D01*
X81560000Y-94330000D02*
X81560000Y-98193711D01*
X82099121Y-93790879D02*
X81560000Y-94330000D01*
X82371478Y-93790879D02*
X82099121Y-93790879D01*
X72890000Y-81870000D02*
X72750000Y-82010000D01*
X82798531Y-93363826D02*
X82371478Y-93790879D01*
X81778551Y-98412262D02*
X81778551Y-106158551D01*
%TO.N,IO26{slash}A0{slash}DAC2*%
X76214500Y-82920000D02*
X76230000Y-82935500D01*
X81110000Y-98252148D02*
X81419031Y-98561180D01*
X82090014Y-93111368D02*
X81799040Y-93402342D01*
X81382408Y-107162408D02*
X85559511Y-111339511D01*
X81110000Y-94020000D02*
X81110000Y-98252148D01*
X72260000Y-82920000D02*
X76214500Y-82920000D01*
X85559511Y-111339511D02*
X85559511Y-113229511D01*
X71580000Y-82240000D02*
X72260000Y-82920000D01*
X81727658Y-93402342D02*
X81110000Y-94020000D01*
X81419031Y-98561180D02*
X81419031Y-107125784D01*
X81799040Y-93402342D02*
X81727658Y-93402342D01*
X85559511Y-113229511D02*
X88490000Y-116160000D01*
X88490000Y-116160000D02*
X88490000Y-116920000D01*
X81419031Y-107125784D02*
X81382408Y-107162408D01*
%TO.N,IO12{slash}MISO*%
X68210489Y-82959511D02*
X67490000Y-83680000D01*
X72410000Y-90710000D02*
X78740000Y-90710000D01*
X83500000Y-104100000D02*
X85920000Y-106520000D01*
X83290000Y-95180000D02*
X83500000Y-95390000D01*
X67490000Y-85040000D02*
X67760000Y-85310000D01*
X71860000Y-90160000D02*
X72410000Y-90710000D01*
X69500000Y-85780000D02*
X69500000Y-88120000D01*
X68210489Y-82949511D02*
X68210489Y-82959511D01*
X68970000Y-82190000D02*
X68210489Y-82949511D01*
X68140000Y-85690000D02*
X69410000Y-85690000D01*
X67490000Y-83680000D02*
X67490000Y-85040000D01*
X69410000Y-85690000D02*
X69500000Y-85780000D01*
X67760000Y-85310000D02*
X68140000Y-85690000D01*
X69500000Y-88120000D02*
X69400000Y-88220000D01*
X69400000Y-88220000D02*
X69330000Y-88220000D01*
X83500000Y-95390000D02*
X83500000Y-104100000D01*
X85920000Y-106520000D02*
X88300000Y-106520000D01*
%TO.N,IO13{slash}MOSI*%
X82497591Y-104917591D02*
X82497591Y-98114426D01*
X84470000Y-92730000D02*
X84470000Y-88430000D01*
X82497591Y-98114426D02*
X82470000Y-98086835D01*
X73300000Y-84380000D02*
X77390000Y-84380000D01*
X82470000Y-94730000D02*
X84470000Y-92730000D01*
X86700000Y-109120000D02*
X82497591Y-104917591D01*
X72920000Y-84760000D02*
X73300000Y-84380000D01*
X88470000Y-109120000D02*
X86700000Y-109120000D01*
X77390000Y-84380000D02*
X79310000Y-82460000D01*
X84470000Y-88430000D02*
X82080000Y-86040000D01*
X82470000Y-98086835D02*
X82470000Y-94730000D01*
%TO.N,IO0*%
X77620000Y-98940000D02*
X76970000Y-98290000D01*
X76970000Y-98290000D02*
X76970000Y-95190000D01*
%TO.N,IO21*%
X82499601Y-94150399D02*
X82520396Y-94150399D01*
X79289511Y-94500489D02*
X78240000Y-95550000D01*
X88290000Y-111780000D02*
X82138071Y-105628071D01*
X81310000Y-88780000D02*
X80240000Y-89850000D01*
X80240000Y-89850000D02*
X80240000Y-92350000D01*
X82138071Y-105628071D02*
X82138071Y-98263344D01*
X83259511Y-93411284D02*
X83259511Y-91809511D01*
X79289511Y-93300489D02*
X79289511Y-94500489D01*
X82138071Y-98263344D02*
X82030000Y-98155273D01*
X80240000Y-92350000D02*
X79289511Y-93300489D01*
X83259511Y-91809511D02*
X82650000Y-91200000D01*
X82030000Y-94620000D02*
X82499601Y-94150399D01*
X82520396Y-94150399D02*
X83259511Y-93411284D01*
X82030000Y-98155273D02*
X82030000Y-94620000D01*
%TO.N,RXD0*%
X79540000Y-103300000D02*
X79540000Y-99339500D01*
X78820000Y-104020000D02*
X79540000Y-103300000D01*
X70670000Y-104270000D02*
X71040000Y-104270000D01*
X75062887Y-103540480D02*
X75542407Y-104020000D01*
X71040000Y-104270000D02*
X71769520Y-103540480D01*
X75542407Y-104020000D02*
X78820000Y-104020000D01*
X71769520Y-103540480D02*
X75062887Y-103540480D01*
%TO.N,TXD0*%
X69150489Y-103066116D02*
X69150489Y-104080489D01*
X76100000Y-94080000D02*
X72019511Y-98160489D01*
X69150489Y-104080489D02*
X70190000Y-105120000D01*
X72019511Y-98160489D02*
X72019511Y-100197094D01*
X70190000Y-105120000D02*
X71260000Y-105120000D01*
X72019511Y-100197094D02*
X69150489Y-103066116D01*
X78610000Y-94080000D02*
X76100000Y-94080000D01*
D24*
%TO.N,VBUS*%
X74330000Y-106530000D02*
X74350000Y-106550000D01*
X79420000Y-115980000D02*
X79420000Y-116020000D01*
X74350000Y-106550000D02*
X74350000Y-110910000D01*
X74350000Y-110910000D02*
X79420000Y-115980000D01*
%TO.N,USB-C DATA+*%
X80770000Y-118500000D02*
X80770000Y-122170000D01*
X73450000Y-108930000D02*
X73450000Y-111180000D01*
X73450000Y-111180000D02*
X80770000Y-118500000D01*
X80770000Y-122170000D02*
X79180000Y-123760000D01*
X73390000Y-108870000D02*
X73450000Y-108930000D01*
%TO.N,USB-C DATA-*%
X72380000Y-108890741D02*
X72380000Y-110840000D01*
X73604438Y-107862377D02*
X73408364Y-107862377D01*
X76710378Y-133620378D02*
X75869622Y-133620378D01*
X72380000Y-110840000D02*
X77280000Y-115740000D01*
X77280000Y-115740000D02*
X77280000Y-123860000D01*
X75869622Y-133620378D02*
X74490000Y-135000000D01*
X77280000Y-123860000D02*
X77290000Y-123870000D01*
X73408364Y-107862377D02*
X72380000Y-108890741D01*
D27*
%TO.N,RTS*%
X68560000Y-104450000D02*
X68560000Y-101039500D01*
X68560000Y-101039500D02*
X69590000Y-100009500D01*
X71660000Y-106260000D02*
X70370000Y-106260000D01*
X70370000Y-106260000D02*
X68560000Y-104450000D01*
%TO.N,DTR*%
X78615270Y-103170000D02*
X71200000Y-103170000D01*
X71022420Y-103347580D02*
X69830000Y-103347580D01*
X71200000Y-103170000D02*
X71022420Y-103347580D01*
X78860500Y-102924770D02*
X78615270Y-103170000D01*
D25*
%TO.N,USB-C CC2*%
X75730000Y-132780000D02*
X75580000Y-132930000D01*
X75580000Y-132930000D02*
X73030000Y-132930000D01*
%TO.N,RECEIVER 5V*%
X64510000Y-117240000D02*
X61830000Y-119920000D01*
X74970000Y-107160000D02*
X74970000Y-110540000D01*
X74950000Y-114980000D02*
X72690000Y-117240000D01*
X75083358Y-106453358D02*
X75380000Y-106750000D01*
X74970000Y-110540000D02*
X76920000Y-112490000D01*
X75083358Y-105476760D02*
X75083358Y-106453358D01*
X75380000Y-106750000D02*
X74970000Y-107160000D01*
X72690000Y-117240000D02*
X64510000Y-117240000D01*
X75140000Y-114980000D02*
X74950000Y-114980000D01*
%TO.N,LED1 DATA IN*%
X70790000Y-93940000D02*
X70790000Y-84824614D01*
X70884511Y-84730103D02*
X70884511Y-83925489D01*
X60440000Y-117110000D02*
X65890000Y-111660000D01*
X76954511Y-82765489D02*
X83770000Y-75950000D01*
X76530114Y-83660000D02*
X76954511Y-83235603D01*
X70790000Y-84824614D02*
X70884511Y-84730103D01*
X68060000Y-96670000D02*
X70790000Y-93940000D01*
X68060000Y-98940000D02*
X68060000Y-96670000D01*
X71150000Y-83660000D02*
X76530114Y-83660000D01*
X60440000Y-118960000D02*
X60440000Y-117110000D01*
X76954511Y-83235603D02*
X76954511Y-82765489D01*
X70884511Y-83925489D02*
X71150000Y-83660000D01*
X83770000Y-75950000D02*
X84050000Y-75950000D01*
D27*
%TO.N,IO33{slash}TESTBUTTON*%
X61450500Y-103240000D02*
X59980000Y-103240000D01*
X69800000Y-89260000D02*
X70160000Y-88900000D01*
X68710000Y-89260000D02*
X69800000Y-89260000D01*
X63220500Y-105010000D02*
X61450500Y-103240000D01*
X59980000Y-103240000D02*
X59650000Y-102910000D01*
X59650000Y-98320000D02*
X68710000Y-89260000D01*
X70160000Y-88900000D02*
X70160000Y-84430000D01*
X59650000Y-102910000D02*
X59650000Y-98320000D01*
%TD*%
%TA.AperFunction,Conductor*%
%TO.N,GND*%
G36*
X88256590Y-47496914D02*
G01*
X88271391Y-47499219D01*
X88271394Y-47499219D01*
X88280263Y-47500600D01*
X88299587Y-47498073D01*
X88322103Y-47497161D01*
X88622633Y-47511926D01*
X88634927Y-47513136D01*
X88961672Y-47561605D01*
X88973782Y-47564013D01*
X89294207Y-47644275D01*
X89306040Y-47647865D01*
X89617027Y-47759139D01*
X89628451Y-47763870D01*
X89927056Y-47905099D01*
X89937961Y-47910928D01*
X90221278Y-48080742D01*
X90231559Y-48087612D01*
X90496862Y-48284374D01*
X90506420Y-48292218D01*
X90751163Y-48514040D01*
X90759907Y-48522784D01*
X90981729Y-48767527D01*
X90989573Y-48777085D01*
X91186335Y-49042388D01*
X91193205Y-49052669D01*
X91350662Y-49315369D01*
X91363019Y-49335986D01*
X91368848Y-49346891D01*
X91510077Y-49645496D01*
X91514808Y-49656920D01*
X91626082Y-49967907D01*
X91629671Y-49979738D01*
X91700304Y-50261718D01*
X91709932Y-50300157D01*
X91712342Y-50312275D01*
X91759621Y-50631001D01*
X91760810Y-50639015D01*
X91762022Y-50651321D01*
X91776423Y-50944476D01*
X91775076Y-50970038D01*
X91774728Y-50972271D01*
X91774728Y-50972275D01*
X91773347Y-50981144D01*
X91774511Y-50990046D01*
X91774511Y-50990049D01*
X91777469Y-51012665D01*
X91778533Y-51029003D01*
X91778533Y-71340136D01*
X91777033Y-71359520D01*
X91773347Y-71383194D01*
X91774511Y-71392096D01*
X91774511Y-71392098D01*
X91775338Y-71398423D01*
X91776081Y-71423751D01*
X91763990Y-71592807D01*
X91761432Y-71610601D01*
X91720013Y-71801002D01*
X91714947Y-71818252D01*
X91646851Y-72000822D01*
X91639384Y-72017174D01*
X91546002Y-72188193D01*
X91536285Y-72203312D01*
X91478549Y-72280439D01*
X91419510Y-72359306D01*
X91407737Y-72372892D01*
X91269961Y-72510668D01*
X91256374Y-72522441D01*
X91100381Y-72639216D01*
X91085267Y-72648930D01*
X90979553Y-72706654D01*
X90914243Y-72742315D01*
X90897891Y-72749782D01*
X90715321Y-72817878D01*
X90698073Y-72822943D01*
X90534555Y-72858515D01*
X90507670Y-72864363D01*
X90489875Y-72866921D01*
X90440976Y-72870418D01*
X90327902Y-72878505D01*
X90310000Y-72877761D01*
X90301675Y-72877659D01*
X90292803Y-72876278D01*
X90283901Y-72877442D01*
X90283898Y-72877442D01*
X90261282Y-72880400D01*
X90244944Y-72881464D01*
X87339740Y-72881464D01*
X87318836Y-72879718D01*
X87315670Y-72879185D01*
X87299072Y-72876393D01*
X87292744Y-72876316D01*
X87291392Y-72876299D01*
X87291388Y-72876299D01*
X87286533Y-72876240D01*
X87281718Y-72876930D01*
X87279243Y-72877091D01*
X87273648Y-72877659D01*
X86987471Y-72894969D01*
X86987465Y-72894970D01*
X86983675Y-72895199D01*
X86685232Y-72949891D01*
X86395558Y-73040157D01*
X86392088Y-73041719D01*
X86392082Y-73041721D01*
X86257217Y-73102419D01*
X86118877Y-73164681D01*
X86115620Y-73166650D01*
X86115616Y-73166652D01*
X85924863Y-73281967D01*
X85859222Y-73321648D01*
X85620381Y-73508768D01*
X85405837Y-73723312D01*
X85403484Y-73726316D01*
X85307553Y-73848763D01*
X85249797Y-73890051D01*
X85212620Y-73896985D01*
X85121418Y-73900063D01*
X85121440Y-73912589D01*
X85121746Y-74087216D01*
X85103575Y-74152621D01*
X85061750Y-74221808D01*
X84937226Y-74498489D01*
X84846960Y-74788163D01*
X84792268Y-75086606D01*
X84792039Y-75090395D01*
X84792038Y-75090402D01*
X84789939Y-75125115D01*
X84765861Y-75191903D01*
X84709497Y-75235072D01*
X84638741Y-75240916D01*
X84590108Y-75219444D01*
X84512094Y-75162763D01*
X84512093Y-75162762D01*
X84506752Y-75158882D01*
X84500724Y-75156198D01*
X84500722Y-75156197D01*
X84338319Y-75083891D01*
X84338318Y-75083891D01*
X84332288Y-75081206D01*
X84238888Y-75061353D01*
X84151944Y-75042872D01*
X84151939Y-75042872D01*
X84145487Y-75041500D01*
X83954513Y-75041500D01*
X83948061Y-75042872D01*
X83948056Y-75042872D01*
X83861112Y-75061353D01*
X83767712Y-75081206D01*
X83761682Y-75083891D01*
X83761681Y-75083891D01*
X83599278Y-75156197D01*
X83599276Y-75156198D01*
X83593248Y-75158882D01*
X83438747Y-75271134D01*
X83310960Y-75413056D01*
X83215473Y-75578444D01*
X83213432Y-75584726D01*
X83210295Y-75594381D01*
X83179557Y-75644539D01*
X77520729Y-81303366D01*
X77458417Y-81337392D01*
X77387602Y-81332327D01*
X77338001Y-81298584D01*
X77241253Y-81191134D01*
X77104060Y-81091457D01*
X77092094Y-81082763D01*
X77092093Y-81082762D01*
X77086752Y-81078882D01*
X77080724Y-81076198D01*
X77080722Y-81076197D01*
X76918319Y-81003891D01*
X76918318Y-81003891D01*
X76912288Y-81001206D01*
X76818888Y-80981353D01*
X76731944Y-80962872D01*
X76731939Y-80962872D01*
X76725487Y-80961500D01*
X76534513Y-80961500D01*
X76528061Y-80962872D01*
X76528056Y-80962872D01*
X76441112Y-80981353D01*
X76347712Y-81001206D01*
X76341682Y-81003891D01*
X76341681Y-81003891D01*
X76179278Y-81076197D01*
X76179276Y-81076198D01*
X76173248Y-81078882D01*
X76167907Y-81082762D01*
X76167906Y-81082763D01*
X76089355Y-81139834D01*
X76018747Y-81191134D01*
X76014336Y-81196033D01*
X76014327Y-81196041D01*
X75974918Y-81239810D01*
X75914472Y-81277050D01*
X75881282Y-81281500D01*
X73333878Y-81281500D01*
X73265757Y-81261498D01*
X73259817Y-81257436D01*
X73212094Y-81222763D01*
X73212093Y-81222762D01*
X73206752Y-81218882D01*
X73200724Y-81216198D01*
X73200722Y-81216197D01*
X73038319Y-81143891D01*
X73038318Y-81143891D01*
X73032288Y-81141206D01*
X72938887Y-81121353D01*
X72851944Y-81102872D01*
X72851939Y-81102872D01*
X72845487Y-81101500D01*
X72654513Y-81101500D01*
X72648061Y-81102872D01*
X72648056Y-81102872D01*
X72561113Y-81121353D01*
X72467712Y-81141206D01*
X72461682Y-81143891D01*
X72461681Y-81143891D01*
X72299278Y-81216197D01*
X72299276Y-81216198D01*
X72293248Y-81218882D01*
X72138747Y-81331134D01*
X72095131Y-81379574D01*
X72034689Y-81416812D01*
X71963705Y-81415461D01*
X71950249Y-81410369D01*
X71868319Y-81373891D01*
X71868317Y-81373891D01*
X71862288Y-81371206D01*
X71768887Y-81351353D01*
X71681944Y-81332872D01*
X71681939Y-81332872D01*
X71675487Y-81331500D01*
X71484513Y-81331500D01*
X71478061Y-81332872D01*
X71478056Y-81332872D01*
X71391113Y-81351353D01*
X71297712Y-81371206D01*
X71291682Y-81373891D01*
X71291681Y-81373891D01*
X71129278Y-81446197D01*
X71129276Y-81446198D01*
X71123248Y-81448882D01*
X70968747Y-81561134D01*
X70964326Y-81566044D01*
X70964325Y-81566045D01*
X70880832Y-81658774D01*
X70840960Y-81703056D01*
X70745473Y-81868444D01*
X70686458Y-82050072D01*
X70685768Y-82056633D01*
X70685768Y-82056635D01*
X70671751Y-82190000D01*
X70666496Y-82240000D01*
X70667186Y-82246565D01*
X70679481Y-82363542D01*
X70686458Y-82429928D01*
X70745473Y-82611556D01*
X70840960Y-82776944D01*
X70845378Y-82781851D01*
X70845379Y-82781852D01*
X70932341Y-82878433D01*
X70963059Y-82942440D01*
X70954294Y-83012894D01*
X70908831Y-83067425D01*
X70897268Y-83073732D01*
X70896407Y-83073982D01*
X70891638Y-83076803D01*
X70891626Y-83076809D01*
X70878972Y-83084293D01*
X70861224Y-83092988D01*
X70842383Y-83100448D01*
X70835967Y-83105110D01*
X70835966Y-83105110D01*
X70806613Y-83126436D01*
X70796693Y-83132952D01*
X70765465Y-83151420D01*
X70765462Y-83151422D01*
X70758638Y-83155458D01*
X70744314Y-83169782D01*
X70729287Y-83182617D01*
X70712893Y-83194528D01*
X70707840Y-83200636D01*
X70684711Y-83228594D01*
X70676722Y-83237372D01*
X70492253Y-83421841D01*
X70483973Y-83429376D01*
X70477493Y-83433489D01*
X70430867Y-83483141D01*
X70428112Y-83485983D01*
X70416936Y-83497159D01*
X70354624Y-83531185D01*
X70301644Y-83531311D01*
X70261944Y-83522872D01*
X70261940Y-83522872D01*
X70255487Y-83521500D01*
X70064513Y-83521500D01*
X70058061Y-83522872D01*
X70058056Y-83522872D01*
X69971113Y-83541353D01*
X69877712Y-83561206D01*
X69871682Y-83563891D01*
X69871681Y-83563891D01*
X69709278Y-83636197D01*
X69709276Y-83636198D01*
X69703248Y-83638882D01*
X69548747Y-83751134D01*
X69544326Y-83756044D01*
X69544325Y-83756045D01*
X69533392Y-83768188D01*
X69420960Y-83893056D01*
X69325473Y-84058444D01*
X69266458Y-84240072D01*
X69265768Y-84246633D01*
X69265768Y-84246635D01*
X69259646Y-84304886D01*
X69246496Y-84430000D01*
X69266458Y-84619928D01*
X69325473Y-84801556D01*
X69328776Y-84807278D01*
X69328777Y-84807279D01*
X69342129Y-84830405D01*
X69382550Y-84900415D01*
X69389527Y-84912500D01*
X69406265Y-84981495D01*
X69383045Y-85048587D01*
X69327238Y-85092474D01*
X69280408Y-85101500D01*
X68435955Y-85101500D01*
X68367834Y-85081498D01*
X68346860Y-85064595D01*
X68148859Y-84866594D01*
X68148855Y-84866591D01*
X68115405Y-84833141D01*
X68081379Y-84770829D01*
X68078500Y-84744046D01*
X68078500Y-83975955D01*
X68098502Y-83907834D01*
X68115405Y-83886860D01*
X68593507Y-83408758D01*
X68605898Y-83397891D01*
X68623662Y-83384260D01*
X68630212Y-83379234D01*
X68681848Y-83311941D01*
X68692715Y-83299550D01*
X68856860Y-83135405D01*
X68919172Y-83101379D01*
X68945955Y-83098500D01*
X69065487Y-83098500D01*
X69071939Y-83097128D01*
X69071944Y-83097128D01*
X69158888Y-83078647D01*
X69252288Y-83058794D01*
X69291073Y-83041526D01*
X69420722Y-82983803D01*
X69420724Y-82983802D01*
X69426752Y-82981118D01*
X69581253Y-82868866D01*
X69664020Y-82776944D01*
X69704621Y-82731852D01*
X69704622Y-82731851D01*
X69709040Y-82726944D01*
X69804527Y-82561556D01*
X69863542Y-82379928D01*
X69883504Y-82190000D01*
X69880924Y-82165453D01*
X69864232Y-82006635D01*
X69864232Y-82006633D01*
X69863542Y-82000072D01*
X69804527Y-81818444D01*
X69709040Y-81653056D01*
X69688216Y-81629928D01*
X69585675Y-81516045D01*
X69585674Y-81516044D01*
X69581253Y-81511134D01*
X69452193Y-81417366D01*
X69432094Y-81402763D01*
X69432093Y-81402762D01*
X69426752Y-81398882D01*
X69420724Y-81396198D01*
X69420722Y-81396197D01*
X69258319Y-81323891D01*
X69258318Y-81323891D01*
X69252288Y-81321206D01*
X69158888Y-81301353D01*
X69071944Y-81282872D01*
X69071939Y-81282872D01*
X69065487Y-81281500D01*
X68874513Y-81281500D01*
X68868061Y-81282872D01*
X68868056Y-81282872D01*
X68781112Y-81301353D01*
X68687712Y-81321206D01*
X68681682Y-81323891D01*
X68681681Y-81323891D01*
X68519278Y-81396197D01*
X68519276Y-81396198D01*
X68513248Y-81398882D01*
X68507907Y-81402762D01*
X68507906Y-81402763D01*
X68487807Y-81417366D01*
X68358747Y-81511134D01*
X68354326Y-81516044D01*
X68354325Y-81516045D01*
X68251785Y-81629928D01*
X68230960Y-81653056D01*
X68135473Y-81818444D01*
X68076458Y-82000072D01*
X68075768Y-82006633D01*
X68075768Y-82006635D01*
X68059076Y-82165453D01*
X68056496Y-82190000D01*
X68057186Y-82196565D01*
X68057186Y-82196567D01*
X68057940Y-82203739D01*
X68045171Y-82273578D01*
X68021726Y-82306009D01*
X67827471Y-82500264D01*
X67815080Y-82511131D01*
X67790766Y-82529788D01*
X67785740Y-82536338D01*
X67739130Y-82597081D01*
X67728263Y-82609472D01*
X67106982Y-83230753D01*
X67094591Y-83241620D01*
X67070277Y-83260277D01*
X66975946Y-83383211D01*
X66951384Y-83442510D01*
X66916647Y-83526370D01*
X66915569Y-83534557D01*
X66915569Y-83534558D01*
X66901324Y-83642763D01*
X66896422Y-83680000D01*
X66897500Y-83688188D01*
X66900422Y-83710384D01*
X66901500Y-83726830D01*
X66901500Y-84993170D01*
X66900422Y-85009615D01*
X66896422Y-85040000D01*
X66897500Y-85048189D01*
X66914853Y-85180000D01*
X66916647Y-85193630D01*
X66930400Y-85226830D01*
X66944588Y-85261082D01*
X66944589Y-85261085D01*
X66957074Y-85291226D01*
X66975946Y-85336789D01*
X67070277Y-85459723D01*
X67094594Y-85478382D01*
X67106978Y-85489243D01*
X67316591Y-85698855D01*
X67316594Y-85698859D01*
X67334141Y-85716406D01*
X67368165Y-85778716D01*
X67363101Y-85849532D01*
X67320554Y-85906368D01*
X67254034Y-85931179D01*
X67245045Y-85931500D01*
X65688164Y-85931500D01*
X65620043Y-85911498D01*
X65573550Y-85857842D01*
X65562854Y-85818671D01*
X65554232Y-85736634D01*
X65554231Y-85736631D01*
X65553542Y-85730072D01*
X65494527Y-85548444D01*
X65471624Y-85508774D01*
X65431262Y-85438866D01*
X65399040Y-85383056D01*
X65379302Y-85361134D01*
X65275675Y-85246045D01*
X65275674Y-85246044D01*
X65271253Y-85241134D01*
X65132769Y-85140519D01*
X65122094Y-85132763D01*
X65122093Y-85132762D01*
X65116752Y-85128882D01*
X65110724Y-85126198D01*
X65110722Y-85126197D01*
X64948319Y-85053891D01*
X64948318Y-85053891D01*
X64942288Y-85051206D01*
X64780654Y-85016849D01*
X64718182Y-84983122D01*
X64683860Y-84920972D01*
X64688588Y-84850133D01*
X64717757Y-84804508D01*
X66333018Y-83189247D01*
X66345409Y-83178380D01*
X66363173Y-83164749D01*
X66369723Y-83159723D01*
X66464054Y-83036789D01*
X66499451Y-82951333D01*
X66523353Y-82893630D01*
X66543578Y-82740000D01*
X66539578Y-82709616D01*
X66538500Y-82693170D01*
X66538500Y-81462502D01*
X66558502Y-81394381D01*
X66570864Y-81378192D01*
X66684621Y-81251852D01*
X66684622Y-81251851D01*
X66689040Y-81246944D01*
X66784527Y-81081556D01*
X66843542Y-80899928D01*
X66863504Y-80710000D01*
X66848772Y-80569834D01*
X66844232Y-80526635D01*
X66844232Y-80526633D01*
X66843542Y-80520072D01*
X66784527Y-80338444D01*
X66689040Y-80173056D01*
X66561253Y-80031134D01*
X66406752Y-79918882D01*
X66400724Y-79916198D01*
X66400722Y-79916197D01*
X66238319Y-79843891D01*
X66238318Y-79843891D01*
X66232288Y-79841206D01*
X66138888Y-79821353D01*
X66051944Y-79802872D01*
X66051939Y-79802872D01*
X66045487Y-79801500D01*
X65854513Y-79801500D01*
X65848061Y-79802872D01*
X65848056Y-79802872D01*
X65761112Y-79821353D01*
X65667712Y-79841206D01*
X65661682Y-79843891D01*
X65661681Y-79843891D01*
X65499278Y-79916197D01*
X65499276Y-79916198D01*
X65493248Y-79918882D01*
X65338747Y-80031134D01*
X65210960Y-80173056D01*
X65115473Y-80338444D01*
X65056458Y-80520072D01*
X65055768Y-80526633D01*
X65055768Y-80526635D01*
X65051228Y-80569834D01*
X65036496Y-80710000D01*
X65056458Y-80899928D01*
X65115473Y-81081556D01*
X65210960Y-81246944D01*
X65215378Y-81251851D01*
X65215379Y-81251852D01*
X65329136Y-81378192D01*
X65359854Y-81442199D01*
X65361500Y-81462502D01*
X65361500Y-82444045D01*
X65341498Y-82512166D01*
X65324595Y-82533140D01*
X63126982Y-84730753D01*
X63114591Y-84741620D01*
X63090277Y-84760277D01*
X62995946Y-84883211D01*
X62992786Y-84890839D01*
X62992783Y-84890845D01*
X62981400Y-84918326D01*
X62939808Y-85018737D01*
X62939807Y-85018742D01*
X62936647Y-85026370D01*
X62935570Y-85034554D01*
X62935569Y-85034556D01*
X62917760Y-85169834D01*
X62916422Y-85180000D01*
X62917500Y-85188188D01*
X62920422Y-85210384D01*
X62921500Y-85226830D01*
X62921500Y-88297527D01*
X62901498Y-88365648D01*
X62858703Y-88406453D01*
X62853248Y-88408882D01*
X62847912Y-88412759D01*
X62847910Y-88412760D01*
X62785057Y-88458426D01*
X62698747Y-88521134D01*
X62570960Y-88663056D01*
X62548883Y-88701295D01*
X62493287Y-88797590D01*
X62475473Y-88828444D01*
X62416458Y-89010072D01*
X62415768Y-89016633D01*
X62415768Y-89016635D01*
X62403536Y-89133019D01*
X62396496Y-89200000D01*
X62397186Y-89206565D01*
X62413532Y-89362084D01*
X62416458Y-89389928D01*
X62475473Y-89571556D01*
X62478776Y-89577278D01*
X62478777Y-89577279D01*
X62502373Y-89618148D01*
X62570960Y-89736944D01*
X62575378Y-89741851D01*
X62575379Y-89741852D01*
X62694325Y-89873955D01*
X62698747Y-89878866D01*
X62771078Y-89931418D01*
X62815639Y-89963793D01*
X62853248Y-89991118D01*
X62859274Y-89993801D01*
X62859281Y-89993805D01*
X62935453Y-90027718D01*
X62989549Y-90073698D01*
X63010199Y-90141625D01*
X62990847Y-90209933D01*
X62935379Y-90257965D01*
X62747200Y-90341600D01*
X62467800Y-90595600D01*
X62463513Y-90602031D01*
X62372210Y-90738984D01*
X62372209Y-90738987D01*
X62366200Y-90748000D01*
X62363573Y-90758510D01*
X62363572Y-90758511D01*
X62295938Y-91029047D01*
X62290000Y-91052800D01*
X62290000Y-91408400D01*
X62366200Y-91637000D01*
X62569400Y-91916400D01*
X62581008Y-91923033D01*
X62746073Y-92017356D01*
X62748385Y-92018711D01*
X62874200Y-92094200D01*
X62874200Y-92007097D01*
X62894202Y-91938976D01*
X62947858Y-91892483D01*
X63018132Y-91882379D01*
X63030140Y-91884706D01*
X63136810Y-91910808D01*
X63142412Y-91911156D01*
X63142415Y-91911156D01*
X63146025Y-91911380D01*
X63146035Y-91911380D01*
X63147964Y-91911500D01*
X63275493Y-91911500D01*
X63345236Y-91903369D01*
X63399611Y-91897030D01*
X63399615Y-91897029D01*
X63406881Y-91896182D01*
X63413759Y-91893686D01*
X63413765Y-91893684D01*
X63416410Y-91892724D01*
X63418338Y-91892603D01*
X63420890Y-91892000D01*
X63420993Y-91892437D01*
X63487268Y-91888283D01*
X63549278Y-91922857D01*
X63582752Y-91985467D01*
X63585400Y-92011163D01*
X63585400Y-92094200D01*
X63594407Y-92090340D01*
X63594408Y-92090340D01*
X63754796Y-92021602D01*
X63754798Y-92021601D01*
X63763200Y-92018000D01*
X63915600Y-91891000D01*
X63921348Y-91882379D01*
X64065176Y-91666636D01*
X64068000Y-91662400D01*
X64150320Y-91481296D01*
X64190427Y-91393061D01*
X64190427Y-91393060D01*
X64195000Y-91383000D01*
X64195914Y-91371127D01*
X64219540Y-91063982D01*
X64219540Y-91063981D01*
X64220400Y-91052800D01*
X64118800Y-90697200D01*
X64042600Y-90443200D01*
X64033059Y-90437900D01*
X64033059Y-90437899D01*
X63906264Y-90367458D01*
X63814000Y-90316200D01*
X63807493Y-90314248D01*
X63807491Y-90314247D01*
X63674945Y-90274483D01*
X63615445Y-90235750D01*
X63586331Y-90170997D01*
X63596846Y-90100784D01*
X63643653Y-90047402D01*
X63659903Y-90038690D01*
X63760719Y-89993805D01*
X63760726Y-89993801D01*
X63766752Y-89991118D01*
X63804362Y-89963793D01*
X63848922Y-89931418D01*
X63921253Y-89878866D01*
X63925675Y-89873955D01*
X64044621Y-89741852D01*
X64044622Y-89741851D01*
X64049040Y-89736944D01*
X64117627Y-89618148D01*
X64141223Y-89577279D01*
X64141224Y-89577278D01*
X64144527Y-89571556D01*
X64203542Y-89389928D01*
X64206469Y-89362084D01*
X64222814Y-89206565D01*
X64223504Y-89200000D01*
X64216464Y-89133019D01*
X64204232Y-89016635D01*
X64204232Y-89016633D01*
X64203542Y-89010072D01*
X64144527Y-88828444D01*
X64115381Y-88777961D01*
X64098500Y-88714962D01*
X64098500Y-86858504D01*
X64118502Y-86790383D01*
X64172158Y-86743890D01*
X64242432Y-86733786D01*
X64275747Y-86743396D01*
X64377712Y-86788794D01*
X64463435Y-86807015D01*
X64558056Y-86827128D01*
X64558061Y-86827128D01*
X64564513Y-86828500D01*
X64684045Y-86828500D01*
X64752166Y-86848502D01*
X64773140Y-86865405D01*
X64810753Y-86903018D01*
X64821620Y-86915409D01*
X64840277Y-86939723D01*
X64963211Y-87034054D01*
X65064440Y-87075984D01*
X65106370Y-87093352D01*
X65260000Y-87113578D01*
X65268188Y-87112500D01*
X65290383Y-87109578D01*
X65306829Y-87108500D01*
X67851282Y-87108500D01*
X67919403Y-87128502D01*
X67944918Y-87150190D01*
X67984327Y-87193959D01*
X67984336Y-87193967D01*
X67988747Y-87198866D01*
X67994086Y-87202745D01*
X68135699Y-87305633D01*
X68143248Y-87311118D01*
X68149276Y-87313802D01*
X68149278Y-87313803D01*
X68169969Y-87323015D01*
X68317712Y-87388794D01*
X68411112Y-87408647D01*
X68498056Y-87427128D01*
X68498061Y-87427128D01*
X68504513Y-87428500D01*
X68537163Y-87428500D01*
X68605284Y-87448502D01*
X68651777Y-87502158D01*
X68661881Y-87572432D01*
X68630801Y-87638808D01*
X68590960Y-87683056D01*
X68495473Y-87848444D01*
X68436458Y-88030072D01*
X68435768Y-88036633D01*
X68435768Y-88036635D01*
X68425501Y-88134319D01*
X68416496Y-88220000D01*
X68417186Y-88226565D01*
X68426013Y-88310545D01*
X68436458Y-88409928D01*
X68438498Y-88416206D01*
X68493936Y-88586827D01*
X68495964Y-88657794D01*
X68459301Y-88718592D01*
X68427953Y-88738581D01*
X68427995Y-88738654D01*
X68426330Y-88739615D01*
X68422322Y-88742171D01*
X68420842Y-88742784D01*
X68420835Y-88742788D01*
X68413211Y-88745946D01*
X68290277Y-88840277D01*
X68285251Y-88846827D01*
X68271617Y-88864595D01*
X68260750Y-88876986D01*
X61619752Y-95517983D01*
X61557440Y-95552009D01*
X61486625Y-95546944D01*
X61429789Y-95504397D01*
X61410824Y-95467824D01*
X61406569Y-95454729D01*
X61404527Y-95448444D01*
X61355381Y-95363320D01*
X61338500Y-95300321D01*
X61338500Y-89342502D01*
X61358502Y-89274381D01*
X61370864Y-89258192D01*
X61484621Y-89131852D01*
X61484622Y-89131851D01*
X61489040Y-89126944D01*
X61562353Y-88999962D01*
X61581223Y-88967279D01*
X61581224Y-88967278D01*
X61584527Y-88961556D01*
X61643542Y-88779928D01*
X61644300Y-88772722D01*
X61662814Y-88596565D01*
X61663504Y-88590000D01*
X61648794Y-88450043D01*
X61644232Y-88406635D01*
X61644232Y-88406633D01*
X61643542Y-88400072D01*
X61584527Y-88218444D01*
X61562206Y-88179782D01*
X61511933Y-88092708D01*
X61489040Y-88053056D01*
X61474255Y-88036635D01*
X61365675Y-87916045D01*
X61365674Y-87916044D01*
X61361253Y-87911134D01*
X61246207Y-87827548D01*
X61212094Y-87802763D01*
X61212093Y-87802762D01*
X61206752Y-87798882D01*
X61200724Y-87796198D01*
X61200722Y-87796197D01*
X61038319Y-87723891D01*
X61038318Y-87723891D01*
X61032288Y-87721206D01*
X60938887Y-87701353D01*
X60851944Y-87682872D01*
X60851939Y-87682872D01*
X60845487Y-87681500D01*
X60654513Y-87681500D01*
X60648061Y-87682872D01*
X60648056Y-87682872D01*
X60561113Y-87701353D01*
X60467712Y-87721206D01*
X60461682Y-87723891D01*
X60461681Y-87723891D01*
X60299278Y-87796197D01*
X60299276Y-87796198D01*
X60293248Y-87798882D01*
X60287907Y-87802762D01*
X60287906Y-87802763D01*
X60253793Y-87827548D01*
X60138747Y-87911134D01*
X60134326Y-87916044D01*
X60134325Y-87916045D01*
X60025746Y-88036635D01*
X60010960Y-88053056D01*
X59988067Y-88092708D01*
X59937795Y-88179782D01*
X59915473Y-88218444D01*
X59856458Y-88400072D01*
X59855768Y-88406633D01*
X59855768Y-88406635D01*
X59851206Y-88450043D01*
X59836496Y-88590000D01*
X59837186Y-88596565D01*
X59855701Y-88772722D01*
X59856458Y-88779928D01*
X59915473Y-88961556D01*
X59918776Y-88967278D01*
X59918777Y-88967279D01*
X59937647Y-88999962D01*
X60010960Y-89126944D01*
X60015378Y-89131851D01*
X60015379Y-89131852D01*
X60129136Y-89258192D01*
X60159854Y-89322199D01*
X60161500Y-89342502D01*
X60161500Y-94929625D01*
X60141498Y-94997746D01*
X60109561Y-95031561D01*
X59965983Y-95135877D01*
X59958747Y-95141134D01*
X59954326Y-95146044D01*
X59954325Y-95146045D01*
X59869042Y-95240762D01*
X59830960Y-95283056D01*
X59735473Y-95448444D01*
X59676458Y-95630072D01*
X59656496Y-95820000D01*
X59676458Y-96009928D01*
X59735473Y-96191556D01*
X59738776Y-96197278D01*
X59738777Y-96197279D01*
X59757014Y-96228866D01*
X59830960Y-96356944D01*
X59835378Y-96361851D01*
X59835379Y-96361852D01*
X59921166Y-96457128D01*
X59958747Y-96498866D01*
X60009202Y-96535524D01*
X60095054Y-96597899D01*
X60113248Y-96611118D01*
X60119274Y-96613801D01*
X60119281Y-96613805D01*
X60231790Y-96663896D01*
X60285886Y-96709876D01*
X60306536Y-96777803D01*
X60287184Y-96846111D01*
X60269637Y-96868098D01*
X59266982Y-97870753D01*
X59254591Y-97881620D01*
X59230277Y-97900277D01*
X59135946Y-98023211D01*
X59132786Y-98030841D01*
X59132785Y-98030842D01*
X59131944Y-98032872D01*
X59111384Y-98082510D01*
X59076647Y-98166370D01*
X59075569Y-98174557D01*
X59075569Y-98174558D01*
X59063525Y-98266045D01*
X59056422Y-98320000D01*
X59057500Y-98328188D01*
X59060422Y-98350384D01*
X59061500Y-98366830D01*
X59061500Y-102863170D01*
X59060422Y-102879615D01*
X59056422Y-102910000D01*
X59057500Y-102918189D01*
X59071039Y-103021028D01*
X59076647Y-103063630D01*
X59110920Y-103146370D01*
X59135946Y-103206789D01*
X59230277Y-103329723D01*
X59236827Y-103334749D01*
X59254591Y-103348380D01*
X59266982Y-103359247D01*
X59530753Y-103623018D01*
X59541620Y-103635409D01*
X59560277Y-103659723D01*
X59591141Y-103683406D01*
X59598246Y-103688858D01*
X59683211Y-103754054D01*
X59754784Y-103783700D01*
X59826370Y-103813352D01*
X59980000Y-103833578D01*
X59988188Y-103832500D01*
X60010383Y-103829578D01*
X60026829Y-103828500D01*
X61154545Y-103828500D01*
X61222666Y-103848502D01*
X61243640Y-103865405D01*
X62272226Y-104893991D01*
X62306252Y-104956303D01*
X62308440Y-104996261D01*
X62306996Y-105010000D01*
X62326958Y-105199928D01*
X62385973Y-105381556D01*
X62481460Y-105546944D01*
X62485878Y-105551851D01*
X62485879Y-105551852D01*
X62604825Y-105683955D01*
X62609247Y-105688866D01*
X62763748Y-105801118D01*
X62769776Y-105803802D01*
X62769778Y-105803803D01*
X62932181Y-105876109D01*
X62938212Y-105878794D01*
X63013180Y-105894729D01*
X63118556Y-105917128D01*
X63118561Y-105917128D01*
X63125013Y-105918500D01*
X63315987Y-105918500D01*
X63322439Y-105917128D01*
X63322444Y-105917128D01*
X63427820Y-105894729D01*
X63502788Y-105878794D01*
X63508819Y-105876109D01*
X63671222Y-105803803D01*
X63671224Y-105803802D01*
X63677252Y-105801118D01*
X63831753Y-105688866D01*
X63836175Y-105683955D01*
X63955121Y-105551852D01*
X63955122Y-105551851D01*
X63959540Y-105546944D01*
X64055027Y-105381556D01*
X64114042Y-105199928D01*
X64134004Y-105010000D01*
X64128360Y-104956303D01*
X64114732Y-104826635D01*
X64114732Y-104826633D01*
X64114042Y-104820072D01*
X64055027Y-104638444D01*
X64037431Y-104607966D01*
X64006637Y-104554630D01*
X63959540Y-104473056D01*
X63930798Y-104441134D01*
X63836175Y-104336045D01*
X63836174Y-104336044D01*
X63831753Y-104331134D01*
X63677252Y-104218882D01*
X63671224Y-104216198D01*
X63671222Y-104216197D01*
X63508819Y-104143891D01*
X63508818Y-104143891D01*
X63502788Y-104141206D01*
X63391101Y-104117466D01*
X63322444Y-104102872D01*
X63322439Y-104102872D01*
X63315987Y-104101500D01*
X63196455Y-104101500D01*
X63128334Y-104081498D01*
X63107360Y-104064595D01*
X61899747Y-102856982D01*
X61888880Y-102844591D01*
X61875249Y-102826827D01*
X61870223Y-102820277D01*
X61747289Y-102725946D01*
X61687990Y-102701384D01*
X61649456Y-102685422D01*
X61611761Y-102669808D01*
X61604130Y-102666647D01*
X61595943Y-102665569D01*
X61595942Y-102665569D01*
X61458689Y-102647500D01*
X61450500Y-102646422D01*
X61420116Y-102650422D01*
X61403670Y-102651500D01*
X60364500Y-102651500D01*
X60296379Y-102631498D01*
X60249886Y-102577842D01*
X60238500Y-102525500D01*
X60238500Y-101603931D01*
X60258502Y-101535810D01*
X60312158Y-101489317D01*
X60382432Y-101479213D01*
X60390697Y-101480685D01*
X60468047Y-101497127D01*
X60468060Y-101497128D01*
X60474513Y-101498500D01*
X60665487Y-101498500D01*
X60671939Y-101497128D01*
X60671944Y-101497128D01*
X60758887Y-101478647D01*
X60852288Y-101458794D01*
X60858319Y-101456109D01*
X61020722Y-101383803D01*
X61020724Y-101383802D01*
X61026752Y-101381118D01*
X61181253Y-101268866D01*
X61201270Y-101246635D01*
X61304621Y-101131852D01*
X61304622Y-101131851D01*
X61309040Y-101126944D01*
X61325625Y-101098218D01*
X61377008Y-101049225D01*
X61446721Y-101035789D01*
X61512632Y-101062175D01*
X61554577Y-101122281D01*
X61590664Y-101233345D01*
X61593967Y-101239067D01*
X61593968Y-101239068D01*
X61608337Y-101263955D01*
X61686151Y-101398733D01*
X61690569Y-101403640D01*
X61690570Y-101403641D01*
X61809516Y-101535744D01*
X61813938Y-101540655D01*
X61881118Y-101589464D01*
X61946043Y-101636635D01*
X61968439Y-101652907D01*
X61974467Y-101655591D01*
X61974469Y-101655592D01*
X62136872Y-101727898D01*
X62142903Y-101730583D01*
X62236303Y-101750436D01*
X62323247Y-101768917D01*
X62323252Y-101768917D01*
X62329704Y-101770289D01*
X62449236Y-101770289D01*
X62517357Y-101790291D01*
X62538331Y-101807194D01*
X62934155Y-102203018D01*
X62945022Y-102215409D01*
X62963679Y-102239723D01*
X63086613Y-102334054D01*
X63141875Y-102356944D01*
X63229772Y-102393353D01*
X63237959Y-102394431D01*
X63237960Y-102394431D01*
X63375213Y-102412500D01*
X63383402Y-102413578D01*
X63413787Y-102409578D01*
X63430232Y-102408500D01*
X64761282Y-102408500D01*
X64829403Y-102428502D01*
X64854918Y-102450190D01*
X64894327Y-102493959D01*
X64894336Y-102493967D01*
X64898747Y-102498866D01*
X64911101Y-102507842D01*
X65031847Y-102595569D01*
X65053248Y-102611118D01*
X65059276Y-102613802D01*
X65059278Y-102613803D01*
X65220138Y-102685422D01*
X65227712Y-102688794D01*
X65321113Y-102708647D01*
X65408056Y-102727128D01*
X65408061Y-102727128D01*
X65414513Y-102728500D01*
X65605487Y-102728500D01*
X65611939Y-102727128D01*
X65611944Y-102727128D01*
X65698887Y-102708647D01*
X65792288Y-102688794D01*
X65799862Y-102685422D01*
X65960722Y-102613803D01*
X65960724Y-102613802D01*
X65966752Y-102611118D01*
X66121253Y-102498866D01*
X66216257Y-102393353D01*
X66244621Y-102361852D01*
X66244622Y-102361851D01*
X66249040Y-102356944D01*
X66329700Y-102217237D01*
X66341223Y-102197279D01*
X66341224Y-102197278D01*
X66344527Y-102191556D01*
X66403542Y-102009928D01*
X66410825Y-101940639D01*
X66422814Y-101826565D01*
X66423504Y-101820000D01*
X66420905Y-101795271D01*
X66404232Y-101636635D01*
X66404232Y-101636633D01*
X66403542Y-101630072D01*
X66344527Y-101448444D01*
X66249040Y-101283056D01*
X66231842Y-101263955D01*
X66125675Y-101146045D01*
X66125671Y-101146041D01*
X66121253Y-101141134D01*
X66012576Y-101062175D01*
X65972094Y-101032763D01*
X65972093Y-101032762D01*
X65966752Y-101028882D01*
X65960724Y-101026198D01*
X65960722Y-101026197D01*
X65798319Y-100953891D01*
X65798318Y-100953891D01*
X65792288Y-100951206D01*
X65698887Y-100931353D01*
X65611944Y-100912872D01*
X65611939Y-100912872D01*
X65605487Y-100911500D01*
X65414513Y-100911500D01*
X65408061Y-100912872D01*
X65408056Y-100912872D01*
X65321113Y-100931353D01*
X65227712Y-100951206D01*
X65221682Y-100953891D01*
X65221681Y-100953891D01*
X65059278Y-101026197D01*
X65059276Y-101026198D01*
X65053248Y-101028882D01*
X65047907Y-101032762D01*
X65047906Y-101032763D01*
X64954665Y-101100507D01*
X64898747Y-101141134D01*
X64894336Y-101146033D01*
X64894327Y-101146041D01*
X64854918Y-101189810D01*
X64794472Y-101227050D01*
X64761282Y-101231500D01*
X63679357Y-101231500D01*
X63611236Y-101211498D01*
X63590262Y-101194595D01*
X63373465Y-100977798D01*
X63339439Y-100915486D01*
X63337251Y-100875528D01*
X63338005Y-100868356D01*
X63338005Y-100868354D01*
X63338695Y-100861789D01*
X63325532Y-100736546D01*
X63321446Y-100697670D01*
X63334218Y-100627832D01*
X63382720Y-100575985D01*
X63446756Y-100558500D01*
X67935307Y-100558500D01*
X68003428Y-100578502D01*
X68049921Y-100632158D01*
X68060025Y-100702432D01*
X68046197Y-100742384D01*
X68045946Y-100742711D01*
X68026822Y-100788882D01*
X67986647Y-100885870D01*
X67985569Y-100894057D01*
X67985569Y-100894058D01*
X67983632Y-100908774D01*
X67966422Y-101039500D01*
X67968916Y-101058444D01*
X67970422Y-101069884D01*
X67971500Y-101086330D01*
X67971500Y-104403170D01*
X67970422Y-104419615D01*
X67966422Y-104450000D01*
X67967500Y-104458189D01*
X67981991Y-104568260D01*
X67986647Y-104603630D01*
X67989805Y-104611254D01*
X67989807Y-104611261D01*
X68011914Y-104664629D01*
X68011915Y-104664630D01*
X68045946Y-104746789D01*
X68102178Y-104820072D01*
X68115640Y-104837615D01*
X68140277Y-104869723D01*
X68146827Y-104874749D01*
X68164591Y-104888380D01*
X68176982Y-104899247D01*
X69920750Y-106643014D01*
X69931617Y-106655405D01*
X69950277Y-106679723D01*
X70044638Y-106752129D01*
X70073211Y-106774054D01*
X70216371Y-106833353D01*
X70370000Y-106853578D01*
X70400385Y-106849578D01*
X70416830Y-106848500D01*
X70911282Y-106848500D01*
X70979403Y-106868502D01*
X71004918Y-106890190D01*
X71044327Y-106933959D01*
X71044336Y-106933967D01*
X71048747Y-106938866D01*
X71059439Y-106946634D01*
X71179762Y-107034054D01*
X71203248Y-107051118D01*
X71209276Y-107053802D01*
X71209278Y-107053803D01*
X71347929Y-107115534D01*
X71377712Y-107128794D01*
X71457121Y-107145673D01*
X71558056Y-107167128D01*
X71558061Y-107167128D01*
X71564513Y-107168500D01*
X71755487Y-107168500D01*
X71761939Y-107167128D01*
X71761944Y-107167128D01*
X71862879Y-107145673D01*
X71942288Y-107128794D01*
X71972071Y-107115534D01*
X72110722Y-107053803D01*
X72110724Y-107053802D01*
X72116752Y-107051118D01*
X72140239Y-107034054D01*
X72211513Y-106982270D01*
X72271253Y-106938866D01*
X72280906Y-106928145D01*
X72394621Y-106801852D01*
X72394622Y-106801851D01*
X72399040Y-106796944D01*
X72479195Y-106658112D01*
X72491223Y-106637279D01*
X72491224Y-106637278D01*
X72494527Y-106631556D01*
X72553542Y-106449928D01*
X72562420Y-106365464D01*
X72572814Y-106266565D01*
X72573504Y-106260000D01*
X72566247Y-106190954D01*
X72554232Y-106076635D01*
X72554232Y-106076633D01*
X72553542Y-106070072D01*
X72494527Y-105888444D01*
X72487406Y-105876109D01*
X72444109Y-105801118D01*
X72399040Y-105723056D01*
X72371752Y-105692749D01*
X72275675Y-105586045D01*
X72275674Y-105586044D01*
X72271253Y-105581134D01*
X72178792Y-105513957D01*
X72135439Y-105457734D01*
X72129364Y-105386998D01*
X72133021Y-105373085D01*
X72151502Y-105316206D01*
X72153542Y-105309928D01*
X72155970Y-105286832D01*
X72172814Y-105126565D01*
X72173504Y-105120000D01*
X72161253Y-105003435D01*
X72154232Y-104936635D01*
X72154232Y-104936633D01*
X72153542Y-104930072D01*
X72094527Y-104748444D01*
X71999040Y-104583056D01*
X71986462Y-104569086D01*
X71871253Y-104441134D01*
X71873367Y-104439231D01*
X71842679Y-104389425D01*
X71844027Y-104318441D01*
X71875132Y-104267133D01*
X71976380Y-104165885D01*
X72038692Y-104131859D01*
X72065475Y-104128980D01*
X74766931Y-104128980D01*
X74835052Y-104148982D01*
X74856026Y-104165885D01*
X75046885Y-104356744D01*
X75080911Y-104419056D01*
X75075846Y-104489871D01*
X75033299Y-104546707D01*
X74983989Y-104569085D01*
X74801070Y-104607966D01*
X74795040Y-104610651D01*
X74795039Y-104610651D01*
X74632636Y-104682957D01*
X74632634Y-104682958D01*
X74626606Y-104685642D01*
X74621265Y-104689522D01*
X74621264Y-104689523D01*
X74571201Y-104725896D01*
X74472105Y-104797894D01*
X74467684Y-104802804D01*
X74467683Y-104802805D01*
X74353092Y-104930072D01*
X74344318Y-104939816D01*
X74248831Y-105105204D01*
X74189816Y-105286832D01*
X74189126Y-105293393D01*
X74189126Y-105293395D01*
X74180521Y-105375271D01*
X74169854Y-105476760D01*
X74170544Y-105483325D01*
X74170544Y-105483327D01*
X74174288Y-105518953D01*
X74161515Y-105588791D01*
X74113013Y-105640637D01*
X74075173Y-105655369D01*
X74047712Y-105661206D01*
X74041682Y-105663891D01*
X74041681Y-105663891D01*
X73879278Y-105736197D01*
X73879276Y-105736198D01*
X73873248Y-105738882D01*
X73718747Y-105851134D01*
X73714326Y-105856044D01*
X73714325Y-105856045D01*
X73679615Y-105894595D01*
X73590960Y-105993056D01*
X73495473Y-106158444D01*
X73436458Y-106340072D01*
X73435768Y-106346633D01*
X73435768Y-106346635D01*
X73423026Y-106467868D01*
X73416496Y-106530000D01*
X73417186Y-106536565D01*
X73435436Y-106710201D01*
X73436458Y-106719928D01*
X73438498Y-106726206D01*
X73469002Y-106820088D01*
X73471030Y-106891055D01*
X73434367Y-106951853D01*
X73375367Y-106982270D01*
X73328614Y-106992208D01*
X73328605Y-106992211D01*
X73322150Y-106993583D01*
X73316120Y-106996268D01*
X73316119Y-106996268D01*
X73153716Y-107068574D01*
X73153714Y-107068575D01*
X73147686Y-107071259D01*
X73142345Y-107075139D01*
X73142344Y-107075140D01*
X73105006Y-107102268D01*
X72993185Y-107183511D01*
X72988764Y-107188421D01*
X72988763Y-107188422D01*
X72930277Y-107253378D01*
X72865398Y-107325433D01*
X72769911Y-107490821D01*
X72710896Y-107672449D01*
X72710568Y-107672343D01*
X72678153Y-107732039D01*
X71983766Y-108426426D01*
X71971375Y-108437293D01*
X71946013Y-108456754D01*
X71921526Y-108488666D01*
X71921523Y-108488669D01*
X71916976Y-108494595D01*
X71876263Y-108547653D01*
X71848476Y-108583865D01*
X71787472Y-108731142D01*
X71787162Y-108731891D01*
X71771500Y-108850856D01*
X71771500Y-108850861D01*
X71766250Y-108890741D01*
X71767328Y-108898929D01*
X71770422Y-108922431D01*
X71771500Y-108938877D01*
X71771500Y-110791864D01*
X71770422Y-110808307D01*
X71766250Y-110840000D01*
X71771500Y-110879880D01*
X71771500Y-110879885D01*
X71782413Y-110962773D01*
X71784609Y-110979455D01*
X71784609Y-110979457D01*
X71785850Y-110988882D01*
X71787162Y-110998851D01*
X71848476Y-111146876D01*
X71853503Y-111153427D01*
X71853504Y-111153429D01*
X71921520Y-111242069D01*
X71921526Y-111242075D01*
X71946013Y-111273987D01*
X71952568Y-111279017D01*
X71971379Y-111293452D01*
X71983770Y-111304319D01*
X74834563Y-114155112D01*
X74868589Y-114217424D01*
X74863524Y-114288239D01*
X74820977Y-114345075D01*
X74790480Y-114359703D01*
X74791202Y-114361526D01*
X74750098Y-114377800D01*
X74738868Y-114381645D01*
X74704017Y-114391770D01*
X74696407Y-114393981D01*
X74689584Y-114398016D01*
X74678966Y-114404295D01*
X74661213Y-114412992D01*
X74653568Y-114416019D01*
X74642383Y-114420448D01*
X74635968Y-114425109D01*
X74606612Y-114446437D01*
X74596695Y-114452951D01*
X74558638Y-114475458D01*
X74544317Y-114489779D01*
X74529284Y-114502619D01*
X74512893Y-114514528D01*
X74507842Y-114520634D01*
X74484702Y-114548605D01*
X74476712Y-114557384D01*
X72464500Y-116569595D01*
X72402188Y-116603621D01*
X72375405Y-116606500D01*
X64588763Y-116606500D01*
X64577579Y-116605973D01*
X64570091Y-116604299D01*
X64504897Y-116606348D01*
X64502033Y-116606438D01*
X64498075Y-116606500D01*
X64470144Y-116606500D01*
X64466229Y-116606995D01*
X64466225Y-116606995D01*
X64466167Y-116607003D01*
X64466138Y-116607006D01*
X64454296Y-116607939D01*
X64410110Y-116609327D01*
X64398868Y-116612593D01*
X64390658Y-116614978D01*
X64371306Y-116618986D01*
X64364235Y-116619880D01*
X64351203Y-116621526D01*
X64343834Y-116624443D01*
X64343832Y-116624444D01*
X64310097Y-116637800D01*
X64298869Y-116641645D01*
X64256407Y-116653982D01*
X64249585Y-116658016D01*
X64249579Y-116658019D01*
X64238968Y-116664294D01*
X64221218Y-116672990D01*
X64209756Y-116677528D01*
X64209751Y-116677531D01*
X64202383Y-116680448D01*
X64195968Y-116685109D01*
X64166625Y-116706427D01*
X64156707Y-116712943D01*
X64138360Y-116723794D01*
X64118637Y-116735458D01*
X64104313Y-116749782D01*
X64089281Y-116762621D01*
X64072893Y-116774528D01*
X64065687Y-116783239D01*
X64044712Y-116808593D01*
X64036722Y-116817373D01*
X61879500Y-118974595D01*
X61817188Y-119008621D01*
X61790405Y-119011500D01*
X61734513Y-119011500D01*
X61728061Y-119012872D01*
X61728056Y-119012872D01*
X61641112Y-119031353D01*
X61547712Y-119051206D01*
X61541685Y-119053889D01*
X61541677Y-119053892D01*
X61529774Y-119059192D01*
X61459407Y-119068626D01*
X61395110Y-119038519D01*
X61357297Y-118978430D01*
X61353216Y-118957256D01*
X61334232Y-118776635D01*
X61334232Y-118776633D01*
X61333542Y-118770072D01*
X61274527Y-118588444D01*
X61179040Y-118423056D01*
X61105863Y-118341785D01*
X61075147Y-118277779D01*
X61073500Y-118257476D01*
X61073500Y-117424594D01*
X61093502Y-117356473D01*
X61110405Y-117335499D01*
X65840500Y-112605405D01*
X65902812Y-112571379D01*
X65929595Y-112568500D01*
X65985487Y-112568500D01*
X65991939Y-112567128D01*
X65991944Y-112567128D01*
X66087925Y-112546726D01*
X66172288Y-112528794D01*
X66244676Y-112496565D01*
X66340722Y-112453803D01*
X66340724Y-112453802D01*
X66346752Y-112451118D01*
X66501253Y-112338866D01*
X66505675Y-112333955D01*
X66624621Y-112201852D01*
X66624622Y-112201851D01*
X66629040Y-112196944D01*
X66724527Y-112031556D01*
X66783542Y-111849928D01*
X66784469Y-111841114D01*
X66802814Y-111666565D01*
X66803504Y-111660000D01*
X66795398Y-111582872D01*
X66784232Y-111476635D01*
X66784232Y-111476633D01*
X66783542Y-111470072D01*
X66724527Y-111288444D01*
X66629040Y-111123056D01*
X66609302Y-111101134D01*
X66505675Y-110986045D01*
X66505674Y-110986044D01*
X66501253Y-110981134D01*
X66395937Y-110904617D01*
X66352094Y-110872763D01*
X66352093Y-110872762D01*
X66346752Y-110868882D01*
X66340724Y-110866198D01*
X66340722Y-110866197D01*
X66178319Y-110793891D01*
X66178318Y-110793891D01*
X66172288Y-110791206D01*
X66078887Y-110771353D01*
X65991944Y-110752872D01*
X65991939Y-110752872D01*
X65985487Y-110751500D01*
X65794513Y-110751500D01*
X65788061Y-110752872D01*
X65788056Y-110752872D01*
X65701112Y-110771353D01*
X65607712Y-110791206D01*
X65601682Y-110793891D01*
X65601681Y-110793891D01*
X65439278Y-110866197D01*
X65439276Y-110866198D01*
X65433248Y-110868882D01*
X65427907Y-110872762D01*
X65427906Y-110872763D01*
X65384063Y-110904617D01*
X65278747Y-110981134D01*
X65274326Y-110986044D01*
X65274325Y-110986045D01*
X65170699Y-111101134D01*
X65150960Y-111123056D01*
X65055473Y-111288444D01*
X64996458Y-111470072D01*
X64979569Y-111630767D01*
X64979093Y-111635293D01*
X64952080Y-111700950D01*
X64942878Y-111711218D01*
X62447608Y-114206487D01*
X60047747Y-116606348D01*
X60039461Y-116613888D01*
X60032982Y-116618000D01*
X60027557Y-116623777D01*
X59986357Y-116667651D01*
X59983602Y-116670493D01*
X59963865Y-116690230D01*
X59961385Y-116693427D01*
X59953682Y-116702447D01*
X59923414Y-116734679D01*
X59919595Y-116741625D01*
X59919593Y-116741628D01*
X59913652Y-116752434D01*
X59902801Y-116768953D01*
X59890386Y-116784959D01*
X59887241Y-116792228D01*
X59887238Y-116792232D01*
X59872826Y-116825537D01*
X59867609Y-116836187D01*
X59846305Y-116874940D01*
X59844334Y-116882615D01*
X59844334Y-116882616D01*
X59841267Y-116894562D01*
X59834863Y-116913266D01*
X59826819Y-116931855D01*
X59825580Y-116939678D01*
X59825577Y-116939688D01*
X59819901Y-116975524D01*
X59817495Y-116987144D01*
X59806500Y-117029970D01*
X59806500Y-117050224D01*
X59804949Y-117069934D01*
X59801780Y-117089943D01*
X59802526Y-117097835D01*
X59805941Y-117133961D01*
X59806500Y-117145819D01*
X59806500Y-118257476D01*
X59786498Y-118325597D01*
X59774142Y-118341779D01*
X59700960Y-118423056D01*
X59605473Y-118588444D01*
X59546458Y-118770072D01*
X59526496Y-118960000D01*
X59527186Y-118966565D01*
X59545483Y-119140648D01*
X59546458Y-119149928D01*
X59605473Y-119331556D01*
X59700960Y-119496944D01*
X59705378Y-119501851D01*
X59705379Y-119501852D01*
X59791021Y-119596967D01*
X59828747Y-119638866D01*
X59983248Y-119751118D01*
X59989276Y-119753802D01*
X59989278Y-119753803D01*
X60139775Y-119820808D01*
X60157712Y-119828794D01*
X60251113Y-119848647D01*
X60338056Y-119867128D01*
X60338061Y-119867128D01*
X60344513Y-119868500D01*
X60535487Y-119868500D01*
X60541939Y-119867128D01*
X60541944Y-119867128D01*
X60628887Y-119848647D01*
X60722288Y-119828794D01*
X60728315Y-119826111D01*
X60728323Y-119826108D01*
X60740226Y-119820808D01*
X60810593Y-119811374D01*
X60874890Y-119841481D01*
X60912703Y-119901570D01*
X60916784Y-119922744D01*
X60935768Y-120103365D01*
X60936458Y-120109928D01*
X60995473Y-120291556D01*
X61090960Y-120456944D01*
X61095378Y-120461851D01*
X61095379Y-120461852D01*
X61151502Y-120524183D01*
X61218747Y-120598866D01*
X61373248Y-120711118D01*
X61379276Y-120713802D01*
X61379278Y-120713803D01*
X61541681Y-120786109D01*
X61547712Y-120788794D01*
X61641112Y-120808647D01*
X61728056Y-120827128D01*
X61728061Y-120827128D01*
X61734513Y-120828500D01*
X61925487Y-120828500D01*
X61931939Y-120827128D01*
X61931944Y-120827128D01*
X62018888Y-120808647D01*
X62112288Y-120788794D01*
X62118319Y-120786109D01*
X62280722Y-120713803D01*
X62280724Y-120713802D01*
X62286752Y-120711118D01*
X62441253Y-120598866D01*
X62508498Y-120524183D01*
X62542611Y-120486297D01*
X72328883Y-120486297D01*
X72347513Y-120723008D01*
X72402943Y-120953891D01*
X72404836Y-120958462D01*
X72404837Y-120958464D01*
X72472184Y-121121054D01*
X72493808Y-121173260D01*
X72496394Y-121177480D01*
X72615289Y-121371499D01*
X72615293Y-121371505D01*
X72617872Y-121375713D01*
X72772079Y-121556266D01*
X72952632Y-121710473D01*
X72956840Y-121713052D01*
X72956846Y-121713056D01*
X73143013Y-121827139D01*
X73155085Y-121834537D01*
X73159655Y-121836430D01*
X73159659Y-121836432D01*
X73369881Y-121923508D01*
X73374454Y-121925402D01*
X73409776Y-121933882D01*
X73600524Y-121979677D01*
X73600530Y-121979678D01*
X73605337Y-121980832D01*
X73842048Y-121999462D01*
X74078759Y-121980832D01*
X74083566Y-121979678D01*
X74083572Y-121979677D01*
X74274320Y-121933882D01*
X74309642Y-121925402D01*
X74314215Y-121923508D01*
X74524437Y-121836432D01*
X74524441Y-121836430D01*
X74529011Y-121834537D01*
X74541083Y-121827139D01*
X74727250Y-121713056D01*
X74727256Y-121713052D01*
X74731464Y-121710473D01*
X74912017Y-121556266D01*
X75066224Y-121375713D01*
X75068803Y-121371505D01*
X75068807Y-121371499D01*
X75187702Y-121177480D01*
X75190288Y-121173260D01*
X75211913Y-121121054D01*
X75279259Y-120958464D01*
X75279260Y-120958462D01*
X75281153Y-120953891D01*
X75336583Y-120723008D01*
X75355213Y-120486297D01*
X75336583Y-120249586D01*
X75281153Y-120018703D01*
X75240269Y-119920000D01*
X75192183Y-119803908D01*
X75192181Y-119803904D01*
X75190288Y-119799334D01*
X75171028Y-119767905D01*
X75068807Y-119601095D01*
X75068803Y-119601089D01*
X75066224Y-119596881D01*
X74933016Y-119440915D01*
X74915225Y-119420084D01*
X74912017Y-119416328D01*
X74731464Y-119262121D01*
X74727256Y-119259542D01*
X74727250Y-119259538D01*
X74533231Y-119140643D01*
X74529011Y-119138057D01*
X74524441Y-119136164D01*
X74524437Y-119136162D01*
X74314215Y-119049086D01*
X74314213Y-119049085D01*
X74309642Y-119047192D01*
X74229439Y-119027937D01*
X74083572Y-118992917D01*
X74083566Y-118992916D01*
X74078759Y-118991762D01*
X73842048Y-118973132D01*
X73605337Y-118991762D01*
X73600530Y-118992916D01*
X73600524Y-118992917D01*
X73454657Y-119027937D01*
X73374454Y-119047192D01*
X73369883Y-119049085D01*
X73369881Y-119049086D01*
X73159659Y-119136162D01*
X73159655Y-119136164D01*
X73155085Y-119138057D01*
X73150865Y-119140643D01*
X72956846Y-119259538D01*
X72956840Y-119259542D01*
X72952632Y-119262121D01*
X72772079Y-119416328D01*
X72768871Y-119420084D01*
X72751080Y-119440915D01*
X72617872Y-119596881D01*
X72615293Y-119601089D01*
X72615289Y-119601095D01*
X72513068Y-119767905D01*
X72493808Y-119799334D01*
X72491915Y-119803904D01*
X72491913Y-119803908D01*
X72443827Y-119920000D01*
X72402943Y-120018703D01*
X72347513Y-120249586D01*
X72328883Y-120486297D01*
X62542611Y-120486297D01*
X62564621Y-120461852D01*
X62564622Y-120461851D01*
X62569040Y-120456944D01*
X62664527Y-120291556D01*
X62723542Y-120109928D01*
X62740907Y-119944706D01*
X62767920Y-119879050D01*
X62777122Y-119868782D01*
X64735499Y-117910405D01*
X64797811Y-117876379D01*
X64824594Y-117873500D01*
X72611233Y-117873500D01*
X72622416Y-117874027D01*
X72629909Y-117875702D01*
X72637835Y-117875453D01*
X72637836Y-117875453D01*
X72697986Y-117873562D01*
X72701945Y-117873500D01*
X72729856Y-117873500D01*
X72733791Y-117873003D01*
X72733856Y-117872995D01*
X72745693Y-117872062D01*
X72777951Y-117871048D01*
X72781970Y-117870922D01*
X72789889Y-117870673D01*
X72809343Y-117865021D01*
X72828700Y-117861013D01*
X72840930Y-117859468D01*
X72840931Y-117859468D01*
X72848797Y-117858474D01*
X72856168Y-117855555D01*
X72856170Y-117855555D01*
X72889912Y-117842196D01*
X72901142Y-117838351D01*
X72935983Y-117828229D01*
X72935984Y-117828229D01*
X72943593Y-117826018D01*
X72950412Y-117821985D01*
X72950417Y-117821983D01*
X72961028Y-117815707D01*
X72978776Y-117807012D01*
X72997617Y-117799552D01*
X73012425Y-117788794D01*
X73033387Y-117773564D01*
X73043307Y-117767048D01*
X73074535Y-117748580D01*
X73074538Y-117748578D01*
X73081362Y-117744542D01*
X73095683Y-117730221D01*
X73110717Y-117717380D01*
X73120694Y-117710131D01*
X73127107Y-117705472D01*
X73155298Y-117671395D01*
X73163288Y-117662616D01*
X74918688Y-115907216D01*
X74981000Y-115873190D01*
X75051815Y-115878255D01*
X75108651Y-115920802D01*
X75127615Y-115957373D01*
X75135473Y-115981556D01*
X75230960Y-116146944D01*
X75235378Y-116151851D01*
X75235379Y-116151852D01*
X75284906Y-116206857D01*
X75358747Y-116288866D01*
X75394357Y-116314738D01*
X75491437Y-116385271D01*
X75513248Y-116401118D01*
X75541391Y-116413648D01*
X75595487Y-116459627D01*
X75616137Y-116527554D01*
X75609976Y-116567692D01*
X75586458Y-116640072D01*
X75585768Y-116646638D01*
X75585767Y-116646642D01*
X75568746Y-116808593D01*
X75566496Y-116830000D01*
X75567186Y-116836565D01*
X75582175Y-116979174D01*
X75586458Y-117019928D01*
X75645473Y-117201556D01*
X75740960Y-117366944D01*
X75868747Y-117508866D01*
X75874088Y-117512746D01*
X75874093Y-117512751D01*
X75879562Y-117516724D01*
X75922915Y-117572946D01*
X75931500Y-117618659D01*
X75931500Y-122029545D01*
X75911498Y-122097666D01*
X75879561Y-122131481D01*
X75838747Y-122161134D01*
X75834326Y-122166044D01*
X75834325Y-122166045D01*
X75823392Y-122178188D01*
X75710960Y-122303056D01*
X75615473Y-122468444D01*
X75556458Y-122650072D01*
X75555768Y-122656633D01*
X75555768Y-122656635D01*
X75553604Y-122677227D01*
X75536496Y-122840000D01*
X75556458Y-123029928D01*
X75615473Y-123211556D01*
X75618776Y-123217278D01*
X75618777Y-123217279D01*
X75625414Y-123228774D01*
X75710960Y-123376944D01*
X75715378Y-123381851D01*
X75715379Y-123381852D01*
X75784505Y-123458624D01*
X75838747Y-123518866D01*
X75993248Y-123631118D01*
X75999276Y-123633802D01*
X75999278Y-123633803D01*
X76132206Y-123692986D01*
X76167712Y-123708794D01*
X76174164Y-123710166D01*
X76174169Y-123710167D01*
X76277535Y-123732138D01*
X76340009Y-123765867D01*
X76374330Y-123828016D01*
X76375976Y-123856830D01*
X76377186Y-123856830D01*
X76377186Y-123863435D01*
X76376496Y-123870000D01*
X76377186Y-123876565D01*
X76385557Y-123956206D01*
X76396458Y-124059928D01*
X76455473Y-124241556D01*
X76550960Y-124406944D01*
X76555378Y-124411851D01*
X76555379Y-124411852D01*
X76583199Y-124442749D01*
X76678747Y-124548866D01*
X76833248Y-124661118D01*
X76839276Y-124663802D01*
X76839278Y-124663803D01*
X76849828Y-124668500D01*
X77007712Y-124738794D01*
X77101113Y-124758647D01*
X77188056Y-124777128D01*
X77188061Y-124777128D01*
X77194513Y-124778500D01*
X77385487Y-124778500D01*
X77391939Y-124777128D01*
X77391944Y-124777128D01*
X77478887Y-124758647D01*
X77572288Y-124738794D01*
X77730172Y-124668500D01*
X77740722Y-124663803D01*
X77740724Y-124663802D01*
X77746752Y-124661118D01*
X77901253Y-124548866D01*
X77996801Y-124442749D01*
X78024621Y-124411852D01*
X78024622Y-124411851D01*
X78029040Y-124406944D01*
X78124527Y-124241556D01*
X78139511Y-124195440D01*
X78179584Y-124136834D01*
X78244981Y-124109197D01*
X78314938Y-124121304D01*
X78368463Y-124171376D01*
X78390089Y-124208832D01*
X78440960Y-124296944D01*
X78445378Y-124301851D01*
X78445379Y-124301852D01*
X78564325Y-124433955D01*
X78568747Y-124438866D01*
X78723248Y-124551118D01*
X78729276Y-124553802D01*
X78729278Y-124553803D01*
X78891681Y-124626109D01*
X78897712Y-124628794D01*
X78991113Y-124648647D01*
X79078056Y-124667128D01*
X79078061Y-124667128D01*
X79084513Y-124668500D01*
X79275487Y-124668500D01*
X79281939Y-124667128D01*
X79281944Y-124667128D01*
X79368887Y-124648647D01*
X79462288Y-124628794D01*
X79468319Y-124626109D01*
X79630722Y-124553803D01*
X79630724Y-124553802D01*
X79636752Y-124551118D01*
X79791253Y-124438866D01*
X79795675Y-124433955D01*
X79914621Y-124301852D01*
X79914622Y-124301851D01*
X79919040Y-124296944D01*
X80014527Y-124131556D01*
X80073542Y-123949928D01*
X80093504Y-123760000D01*
X80093316Y-123758214D01*
X80112816Y-123691804D01*
X80129719Y-123670830D01*
X80372625Y-123427924D01*
X84427419Y-123427924D01*
X84447901Y-123688173D01*
X84449055Y-123692980D01*
X84449056Y-123692986D01*
X84487471Y-123852993D01*
X84508843Y-123942013D01*
X84510736Y-123946584D01*
X84510737Y-123946586D01*
X84589541Y-124136834D01*
X84608744Y-124183195D01*
X84745144Y-124405780D01*
X84914684Y-124604287D01*
X85113191Y-124773827D01*
X85335776Y-124910227D01*
X85340346Y-124912120D01*
X85340350Y-124912122D01*
X85572385Y-125008234D01*
X85576958Y-125010128D01*
X85665978Y-125031500D01*
X85825985Y-125069915D01*
X85825991Y-125069916D01*
X85830798Y-125071070D01*
X86091047Y-125091552D01*
X86351296Y-125071070D01*
X86356103Y-125069916D01*
X86356109Y-125069915D01*
X86516116Y-125031500D01*
X86605136Y-125010128D01*
X86609709Y-125008234D01*
X86841744Y-124912122D01*
X86841748Y-124912120D01*
X86846318Y-124910227D01*
X87068903Y-124773827D01*
X87267410Y-124604287D01*
X87436950Y-124405780D01*
X87573350Y-124183195D01*
X87592554Y-124136834D01*
X87671357Y-123946586D01*
X87671358Y-123946584D01*
X87673251Y-123942013D01*
X87694623Y-123852993D01*
X87733038Y-123692986D01*
X87733039Y-123692980D01*
X87734193Y-123688173D01*
X87754675Y-123427924D01*
X87734193Y-123167675D01*
X87733039Y-123162868D01*
X87733038Y-123162862D01*
X87674406Y-122918647D01*
X87673251Y-122913835D01*
X87663878Y-122891206D01*
X87575245Y-122677227D01*
X87575243Y-122677223D01*
X87573350Y-122672653D01*
X87436950Y-122450068D01*
X87267410Y-122251561D01*
X87068903Y-122082021D01*
X86846318Y-121945621D01*
X86841748Y-121943728D01*
X86841744Y-121943726D01*
X86609709Y-121847614D01*
X86609707Y-121847613D01*
X86605136Y-121845720D01*
X86516116Y-121824348D01*
X86356109Y-121785933D01*
X86356103Y-121785932D01*
X86351296Y-121784778D01*
X86091047Y-121764296D01*
X85830798Y-121784778D01*
X85825991Y-121785932D01*
X85825985Y-121785933D01*
X85665978Y-121824348D01*
X85576958Y-121845720D01*
X85572387Y-121847613D01*
X85572385Y-121847614D01*
X85340350Y-121943726D01*
X85340346Y-121943728D01*
X85335776Y-121945621D01*
X85113191Y-122082021D01*
X84914684Y-122251561D01*
X84745144Y-122450068D01*
X84608744Y-122672653D01*
X84606851Y-122677223D01*
X84606849Y-122677227D01*
X84518216Y-122891206D01*
X84508843Y-122913835D01*
X84507688Y-122918647D01*
X84449056Y-123162862D01*
X84449055Y-123162868D01*
X84447901Y-123167675D01*
X84427419Y-123427924D01*
X80372625Y-123427924D01*
X81166234Y-122634315D01*
X81178625Y-122623448D01*
X81197437Y-122609013D01*
X81203987Y-122603987D01*
X81228474Y-122572075D01*
X81228478Y-122572071D01*
X81301524Y-122476876D01*
X81362838Y-122328851D01*
X81383751Y-122170000D01*
X81379578Y-122138301D01*
X81378500Y-122121856D01*
X81378500Y-121057966D01*
X88908257Y-121057966D01*
X88938565Y-121192446D01*
X88941645Y-121202275D01*
X89021770Y-121399603D01*
X89026413Y-121408794D01*
X89137694Y-121590388D01*
X89143777Y-121598699D01*
X89283213Y-121759667D01*
X89290580Y-121766883D01*
X89454434Y-121902916D01*
X89462881Y-121908831D01*
X89646756Y-122016279D01*
X89656042Y-122020729D01*
X89855001Y-122096703D01*
X89864899Y-122099579D01*
X89968250Y-122120606D01*
X89982299Y-122119410D01*
X89986000Y-122109065D01*
X89986000Y-121062115D01*
X89981525Y-121046876D01*
X89980135Y-121045671D01*
X89972452Y-121044000D01*
X88923225Y-121044000D01*
X88909694Y-121047973D01*
X88908257Y-121057966D01*
X81378500Y-121057966D01*
X81378500Y-118548136D01*
X81379578Y-118531690D01*
X81382672Y-118508188D01*
X81383750Y-118500000D01*
X81378500Y-118460122D01*
X81378500Y-118460115D01*
X81362838Y-118341150D01*
X81301524Y-118193125D01*
X81296497Y-118186574D01*
X81296495Y-118186570D01*
X81281722Y-118167318D01*
X81228483Y-118097936D01*
X81228477Y-118097928D01*
X81228474Y-118097925D01*
X81203987Y-118066013D01*
X81197432Y-118060983D01*
X81178621Y-118046548D01*
X81166230Y-118035681D01*
X80018443Y-116887894D01*
X79984417Y-116825582D01*
X79989482Y-116754767D01*
X80023227Y-116705163D01*
X80025906Y-116702751D01*
X80031253Y-116698866D01*
X80036158Y-116693419D01*
X80154621Y-116561852D01*
X80154622Y-116561851D01*
X80159040Y-116556944D01*
X80247457Y-116403802D01*
X80251223Y-116397279D01*
X80251224Y-116397278D01*
X80254527Y-116391556D01*
X80313542Y-116209928D01*
X80329980Y-116053534D01*
X80332814Y-116026565D01*
X80333504Y-116020000D01*
X80313542Y-115830072D01*
X80254527Y-115648444D01*
X80159040Y-115483056D01*
X80052224Y-115364424D01*
X80035675Y-115346045D01*
X80035674Y-115346044D01*
X80031253Y-115341134D01*
X79876752Y-115228882D01*
X79870724Y-115226198D01*
X79870722Y-115226197D01*
X79708319Y-115153891D01*
X79708318Y-115153891D01*
X79702288Y-115151206D01*
X79608887Y-115131353D01*
X79521944Y-115112872D01*
X79521939Y-115112872D01*
X79515487Y-115111500D01*
X79464239Y-115111500D01*
X79396118Y-115091498D01*
X79375144Y-115074595D01*
X77586502Y-113285953D01*
X77552476Y-113223641D01*
X77557541Y-113152826D01*
X77581957Y-113112553D01*
X77659040Y-113026944D01*
X77754527Y-112861556D01*
X77813542Y-112679928D01*
X77814864Y-112667356D01*
X77832814Y-112496565D01*
X77833504Y-112490000D01*
X77829417Y-112451118D01*
X77814232Y-112306635D01*
X77814232Y-112306633D01*
X77813542Y-112300072D01*
X77754527Y-112118444D01*
X77659040Y-111953056D01*
X77652899Y-111946235D01*
X77535675Y-111816045D01*
X77535674Y-111816044D01*
X77531253Y-111811134D01*
X77423333Y-111732725D01*
X77382094Y-111702763D01*
X77382093Y-111702762D01*
X77376752Y-111698882D01*
X77370724Y-111696198D01*
X77370722Y-111696197D01*
X77208319Y-111623891D01*
X77208318Y-111623891D01*
X77202288Y-111621206D01*
X77108888Y-111601353D01*
X77021944Y-111582872D01*
X77021939Y-111582872D01*
X77015487Y-111581500D01*
X76959595Y-111581500D01*
X76891474Y-111561498D01*
X76870500Y-111544595D01*
X75640405Y-110314500D01*
X75606379Y-110252188D01*
X75603500Y-110225405D01*
X75603500Y-107474594D01*
X75623502Y-107406473D01*
X75640405Y-107385499D01*
X75777182Y-107248722D01*
X75795453Y-107233606D01*
X75795710Y-107233431D01*
X75802271Y-107228972D01*
X75839418Y-107186837D01*
X75844837Y-107181067D01*
X75856135Y-107169769D01*
X75865936Y-107157134D01*
X75870981Y-107151036D01*
X75902877Y-107114857D01*
X75908120Y-107108910D01*
X75911861Y-107101568D01*
X75924567Y-107081546D01*
X75924757Y-107081301D01*
X75929614Y-107075040D01*
X75932760Y-107067770D01*
X75932763Y-107067765D01*
X75951919Y-107023497D01*
X75955281Y-107016350D01*
X75980785Y-106966296D01*
X75982583Y-106958251D01*
X75989909Y-106935706D01*
X75990032Y-106935421D01*
X75993181Y-106928145D01*
X76001967Y-106872674D01*
X76003451Y-106864899D01*
X76013971Y-106817834D01*
X76015702Y-106810091D01*
X76015443Y-106801852D01*
X76016933Y-106778185D01*
X76016980Y-106777889D01*
X76016980Y-106777886D01*
X76018220Y-106770057D01*
X76016899Y-106756081D01*
X76012935Y-106714142D01*
X76012438Y-106706245D01*
X76011153Y-106665387D01*
X76010673Y-106650110D01*
X76008376Y-106642203D01*
X76003932Y-106618905D01*
X76003903Y-106618603D01*
X76003157Y-106610707D01*
X76000086Y-106602176D01*
X75984132Y-106557861D01*
X75981686Y-106550335D01*
X75968229Y-106504017D01*
X75966018Y-106496407D01*
X75961984Y-106489587D01*
X75961981Y-106489579D01*
X75961823Y-106489312D01*
X75951733Y-106467868D01*
X75951629Y-106467580D01*
X75951625Y-106467573D01*
X75948939Y-106460111D01*
X75917364Y-106413650D01*
X75913122Y-106406965D01*
X75888579Y-106365464D01*
X75888578Y-106365463D01*
X75884542Y-106358638D01*
X75878725Y-106352821D01*
X75863607Y-106334547D01*
X75863432Y-106334289D01*
X75863428Y-106334285D01*
X75858973Y-106327729D01*
X75816830Y-106290575D01*
X75811060Y-106285156D01*
X75772961Y-106247057D01*
X75738935Y-106184745D01*
X75744000Y-106113930D01*
X75768417Y-106073656D01*
X75822398Y-106013704D01*
X75899496Y-105880166D01*
X75914581Y-105854039D01*
X75914582Y-105854038D01*
X75917885Y-105848316D01*
X75976900Y-105666688D01*
X75977621Y-105659833D01*
X75996172Y-105483325D01*
X75996862Y-105476760D01*
X75986195Y-105375271D01*
X75977590Y-105293395D01*
X75977590Y-105293393D01*
X75976900Y-105286832D01*
X75917885Y-105105204D01*
X75822398Y-104939816D01*
X75813625Y-104930072D01*
X75713444Y-104818810D01*
X75682726Y-104754803D01*
X75691491Y-104684349D01*
X75736954Y-104629818D01*
X75807080Y-104608500D01*
X78773170Y-104608500D01*
X78789615Y-104609578D01*
X78820000Y-104613578D01*
X78828189Y-104612500D01*
X78965442Y-104594431D01*
X78965443Y-104594431D01*
X78973630Y-104593353D01*
X79067113Y-104554630D01*
X79094211Y-104543406D01*
X79109158Y-104537215D01*
X79109159Y-104537214D01*
X79116789Y-104534054D01*
X79239723Y-104439723D01*
X79258382Y-104415406D01*
X79269244Y-104403022D01*
X79415916Y-104256350D01*
X79478228Y-104222324D01*
X79549043Y-104227389D01*
X79605879Y-104269936D01*
X79630690Y-104336456D01*
X79631011Y-104345445D01*
X79631011Y-106330097D01*
X79611009Y-106398218D01*
X79584308Y-106428015D01*
X79573245Y-106436974D01*
X79568453Y-106440855D01*
X79564508Y-106445590D01*
X79536157Y-106479618D01*
X79533500Y-106482674D01*
X79531691Y-106484483D01*
X79529744Y-106486853D01*
X79529737Y-106486861D01*
X79503061Y-106519338D01*
X79502634Y-106519854D01*
X79441854Y-106592804D01*
X79440155Y-106595920D01*
X79437897Y-106598669D01*
X79408502Y-106653490D01*
X79393055Y-106682298D01*
X79392637Y-106683071D01*
X79376120Y-106713365D01*
X79347178Y-106766449D01*
X79346113Y-106769847D01*
X79344438Y-106772971D01*
X79342637Y-106778862D01*
X79316726Y-106863612D01*
X79316466Y-106864451D01*
X79304779Y-106901745D01*
X79288035Y-106955176D01*
X79287651Y-106958711D01*
X79286613Y-106962106D01*
X79278668Y-107040323D01*
X79277015Y-107056593D01*
X79276928Y-107057416D01*
X79266676Y-107151796D01*
X79266985Y-107155332D01*
X79266626Y-107158870D01*
X79267205Y-107164995D01*
X79267205Y-107164996D01*
X79275560Y-107253378D01*
X79275640Y-107254255D01*
X79281438Y-107320525D01*
X79283913Y-107348821D01*
X79284905Y-107352235D01*
X79285239Y-107355770D01*
X79287001Y-107361680D01*
X79287001Y-107361681D01*
X79312349Y-107446712D01*
X79312597Y-107447554D01*
X79339091Y-107538744D01*
X79340725Y-107541897D01*
X79341741Y-107545304D01*
X79344617Y-107550758D01*
X79344619Y-107550764D01*
X79386012Y-107629273D01*
X79386392Y-107629998D01*
X79430108Y-107714334D01*
X79432325Y-107717111D01*
X79433982Y-107720254D01*
X79493749Y-107794060D01*
X79494146Y-107794554D01*
X79524536Y-107832623D01*
X79526738Y-107835381D01*
X79528558Y-107837201D01*
X79531150Y-107840247D01*
X79553107Y-107867361D01*
X79558447Y-107873955D01*
X79563182Y-107877900D01*
X79595208Y-107904583D01*
X79603649Y-107912292D01*
X80154660Y-108463302D01*
X80653467Y-108962109D01*
X80687492Y-109024421D01*
X80682428Y-109095236D01*
X80653467Y-109140299D01*
X79591691Y-110202075D01*
X79497897Y-110316261D01*
X79404438Y-110490563D01*
X79346613Y-110679698D01*
X79345990Y-110685833D01*
X79327396Y-110868882D01*
X79326626Y-110876462D01*
X79345239Y-111073362D01*
X79401741Y-111262896D01*
X79493982Y-111437846D01*
X79497858Y-111442632D01*
X79497859Y-111442634D01*
X79558191Y-111517137D01*
X79618447Y-111591547D01*
X79623182Y-111595492D01*
X79762081Y-111711218D01*
X79770396Y-111718146D01*
X79944041Y-111812822D01*
X79984548Y-111825516D01*
X80126886Y-111870122D01*
X80126889Y-111870123D01*
X80132768Y-111871965D01*
X80138891Y-111872630D01*
X80138895Y-111872631D01*
X80323263Y-111892659D01*
X80323267Y-111892659D01*
X80329388Y-111893324D01*
X80526413Y-111876087D01*
X80532330Y-111874368D01*
X80532335Y-111874367D01*
X80663064Y-111836386D01*
X80716336Y-111820909D01*
X80891926Y-111729892D01*
X80954316Y-111680087D01*
X81010223Y-111635458D01*
X81010230Y-111635451D01*
X81012973Y-111633262D01*
X82839577Y-109806657D01*
X82849378Y-109797832D01*
X82875554Y-109776635D01*
X82880343Y-109772757D01*
X82912641Y-109733992D01*
X82915296Y-109730938D01*
X82917105Y-109729129D01*
X82919059Y-109726751D01*
X82921136Y-109724460D01*
X82921712Y-109724983D01*
X82977681Y-109686892D01*
X83048653Y-109685020D01*
X83105450Y-109717715D01*
X84934106Y-111546370D01*
X84968131Y-111608682D01*
X84971011Y-111635465D01*
X84971011Y-113182681D01*
X84969933Y-113199126D01*
X84965933Y-113229511D01*
X84986158Y-113383141D01*
X85017195Y-113458069D01*
X85045457Y-113526300D01*
X85108911Y-113608994D01*
X85114795Y-113616662D01*
X85139788Y-113649234D01*
X85146338Y-113654260D01*
X85164102Y-113667891D01*
X85176493Y-113678758D01*
X87730116Y-116232381D01*
X87764142Y-116294693D01*
X87759077Y-116365508D01*
X87750140Y-116384476D01*
X87706752Y-116459627D01*
X87655473Y-116548444D01*
X87596458Y-116730072D01*
X87595768Y-116736633D01*
X87595768Y-116736635D01*
X87591347Y-116778699D01*
X87576496Y-116920000D01*
X87577186Y-116926565D01*
X87594358Y-117089943D01*
X87596458Y-117109928D01*
X87655473Y-117291556D01*
X87658776Y-117297278D01*
X87658777Y-117297279D01*
X87692686Y-117356010D01*
X87750960Y-117456944D01*
X87755378Y-117461851D01*
X87755379Y-117461852D01*
X87874325Y-117593955D01*
X87878747Y-117598866D01*
X88033248Y-117711118D01*
X88039276Y-117713802D01*
X88039278Y-117713803D01*
X88186399Y-117779305D01*
X88207712Y-117788794D01*
X88288476Y-117805961D01*
X88388056Y-117827128D01*
X88388061Y-117827128D01*
X88394513Y-117828500D01*
X88585487Y-117828500D01*
X88591940Y-117827128D01*
X88591953Y-117827127D01*
X88766588Y-117790006D01*
X88837378Y-117795407D01*
X88894011Y-117838224D01*
X88918505Y-117904861D01*
X88914203Y-117946922D01*
X88900989Y-117994570D01*
X88877251Y-118216695D01*
X88877548Y-118221848D01*
X88877548Y-118221851D01*
X88884899Y-118349338D01*
X88890110Y-118439715D01*
X88891247Y-118444761D01*
X88891248Y-118444767D01*
X88903696Y-118500000D01*
X88939222Y-118657639D01*
X89023266Y-118864616D01*
X89025965Y-118869020D01*
X89134441Y-119046037D01*
X89139987Y-119055088D01*
X89286250Y-119223938D01*
X89367235Y-119291173D01*
X89445172Y-119355877D01*
X89458126Y-119366632D01*
X89487107Y-119383567D01*
X89531955Y-119409774D01*
X89580679Y-119461412D01*
X89593750Y-119531195D01*
X89567019Y-119596967D01*
X89526562Y-119630327D01*
X89518457Y-119634546D01*
X89509738Y-119640036D01*
X89339433Y-119767905D01*
X89331726Y-119774748D01*
X89184590Y-119928717D01*
X89178104Y-119936727D01*
X89058098Y-120112649D01*
X89053000Y-120121623D01*
X88963338Y-120314783D01*
X88959775Y-120324470D01*
X88904389Y-120524183D01*
X88905912Y-120532607D01*
X88918292Y-120536000D01*
X90368000Y-120536000D01*
X90436121Y-120556002D01*
X90482614Y-120609658D01*
X90494000Y-120662000D01*
X90494000Y-122108517D01*
X90498064Y-122122359D01*
X90511478Y-122124393D01*
X90518184Y-122123534D01*
X90528262Y-122121392D01*
X90732255Y-122060191D01*
X90741842Y-122056433D01*
X90933095Y-121962739D01*
X90941945Y-121957464D01*
X91115328Y-121833792D01*
X91123200Y-121827139D01*
X91274052Y-121676812D01*
X91280730Y-121668965D01*
X91405003Y-121496020D01*
X91410313Y-121487183D01*
X91504670Y-121296267D01*
X91508466Y-121286680D01*
X91531974Y-121209306D01*
X91570916Y-121149941D01*
X91635770Y-121121054D01*
X91705946Y-121131815D01*
X91759164Y-121178808D01*
X91778533Y-121245934D01*
X91778533Y-124977644D01*
X91758531Y-125045765D01*
X91704875Y-125092258D01*
X91634601Y-125102362D01*
X91598065Y-125089720D01*
X91597545Y-125090836D01*
X91395100Y-124996434D01*
X91384808Y-124992688D01*
X91212544Y-124946530D01*
X91198448Y-124946866D01*
X91195047Y-124954808D01*
X91195047Y-128895891D01*
X91199020Y-128909422D01*
X91207569Y-128910651D01*
X91384808Y-128863160D01*
X91395100Y-128859414D01*
X91597545Y-128765012D01*
X91598435Y-128766920D01*
X91658552Y-128752348D01*
X91725639Y-128775581D01*
X91769516Y-128831396D01*
X91778533Y-128878204D01*
X91778533Y-129677644D01*
X91758531Y-129745765D01*
X91704875Y-129792258D01*
X91634601Y-129802362D01*
X91598065Y-129789720D01*
X91597545Y-129790836D01*
X91395100Y-129696434D01*
X91384808Y-129692688D01*
X91212544Y-129646530D01*
X91198448Y-129646866D01*
X91195047Y-129654808D01*
X91195047Y-133595891D01*
X91199522Y-133611130D01*
X91214382Y-133624006D01*
X91239406Y-133635434D01*
X91277791Y-133695159D01*
X91277793Y-133766155D01*
X91264971Y-133795436D01*
X91256058Y-133810306D01*
X91193205Y-133915169D01*
X91186335Y-133925450D01*
X90989573Y-134190753D01*
X90981729Y-134200311D01*
X90759907Y-134445054D01*
X90751163Y-134453798D01*
X90506420Y-134675620D01*
X90496862Y-134683464D01*
X90231559Y-134880226D01*
X90221278Y-134887096D01*
X90112857Y-134952081D01*
X90033035Y-134999925D01*
X89937961Y-135056910D01*
X89927056Y-135062739D01*
X89628451Y-135203968D01*
X89617027Y-135208699D01*
X89306040Y-135319973D01*
X89294209Y-135323562D01*
X88973782Y-135403825D01*
X88961672Y-135406233D01*
X88634927Y-135454702D01*
X88622631Y-135455913D01*
X88533877Y-135460273D01*
X88329471Y-135470314D01*
X88303909Y-135468967D01*
X88301676Y-135468619D01*
X88301672Y-135468619D01*
X88292803Y-135467238D01*
X88283901Y-135468402D01*
X88283898Y-135468402D01*
X88264616Y-135470924D01*
X88262261Y-135471232D01*
X88261282Y-135471360D01*
X88244944Y-135472424D01*
X87284785Y-135472424D01*
X87216664Y-135452422D01*
X87170171Y-135398766D01*
X87160067Y-135328492D01*
X87182463Y-135272898D01*
X87299482Y-135110049D01*
X87299486Y-135110043D01*
X87302505Y-135105841D01*
X87349688Y-135010374D01*
X87402831Y-134902846D01*
X87402832Y-134902844D01*
X87405125Y-134898204D01*
X87472455Y-134676595D01*
X87502687Y-134446965D01*
X87504374Y-134377924D01*
X87492753Y-134236572D01*
X87485820Y-134152242D01*
X87485819Y-134152236D01*
X87485396Y-134147091D01*
X87428972Y-133922457D01*
X87425803Y-133915169D01*
X87338677Y-133714792D01*
X87338675Y-133714789D01*
X87336617Y-133710055D01*
X87210811Y-133515589D01*
X87171014Y-133471852D01*
X87161181Y-133461046D01*
X87054934Y-133344282D01*
X87050883Y-133341083D01*
X87050879Y-133341079D01*
X86877224Y-133203935D01*
X86877219Y-133203932D01*
X86873170Y-133200734D01*
X86868654Y-133198241D01*
X86868651Y-133198239D01*
X86674926Y-133091297D01*
X86674922Y-133091295D01*
X86670402Y-133088800D01*
X86665533Y-133087076D01*
X86665529Y-133087074D01*
X86456950Y-133013212D01*
X86456946Y-133013211D01*
X86452075Y-133011486D01*
X86446982Y-133010579D01*
X86446979Y-133010578D01*
X86229142Y-132971775D01*
X86229136Y-132971774D01*
X86224053Y-132970869D01*
X86151143Y-132969978D01*
X85997628Y-132968103D01*
X85997626Y-132968103D01*
X85992458Y-132968040D01*
X85763511Y-133003074D01*
X85543361Y-133075030D01*
X85538773Y-133077418D01*
X85538769Y-133077420D01*
X85349785Y-133175799D01*
X85337919Y-133181976D01*
X85333786Y-133185079D01*
X85333783Y-133185081D01*
X85158410Y-133316755D01*
X85152702Y-133321041D01*
X84992686Y-133488488D01*
X84989772Y-133492760D01*
X84989771Y-133492761D01*
X84941748Y-133563160D01*
X84862166Y-133679823D01*
X84764649Y-133889905D01*
X84702754Y-134113093D01*
X84678142Y-134343393D01*
X84678439Y-134348546D01*
X84678439Y-134348549D01*
X84684114Y-134446965D01*
X84691474Y-134574621D01*
X84692611Y-134579667D01*
X84692612Y-134579673D01*
X84716003Y-134683464D01*
X84742393Y-134800566D01*
X84744335Y-134805348D01*
X84744336Y-134805352D01*
X84827587Y-135010374D01*
X84829531Y-135015161D01*
X84950548Y-135212643D01*
X84953929Y-135216546D01*
X84994971Y-135263926D01*
X85024454Y-135328512D01*
X85014340Y-135398784D01*
X84967838Y-135452432D01*
X84899734Y-135472424D01*
X80057559Y-135472424D01*
X79989438Y-135452422D01*
X79942945Y-135398766D01*
X79932841Y-135328492D01*
X79948290Y-135287212D01*
X79946939Y-135286512D01*
X79955197Y-135270579D01*
X80029741Y-135085612D01*
X80033135Y-135074154D01*
X80071637Y-134876996D01*
X80072714Y-134868133D01*
X80072780Y-134865424D01*
X80072780Y-134736039D01*
X80068305Y-134720800D01*
X80066915Y-134719595D01*
X80059232Y-134717924D01*
X77874895Y-134717924D01*
X77859656Y-134722399D01*
X77858451Y-134723789D01*
X77856780Y-134731472D01*
X77856780Y-134813756D01*
X77857065Y-134819732D01*
X77871251Y-134968418D01*
X77873510Y-134980152D01*
X77929652Y-135171523D01*
X77934082Y-135182599D01*
X77988744Y-135288732D01*
X78002153Y-135358451D01*
X77975740Y-135424351D01*
X77917891Y-135465510D01*
X77876728Y-135472424D01*
X75465177Y-135472424D01*
X75397056Y-135452422D01*
X75350563Y-135398766D01*
X75340459Y-135328492D01*
X75345344Y-135307487D01*
X75349750Y-135293929D01*
X75383542Y-135189928D01*
X75384313Y-135182599D01*
X75402814Y-135006565D01*
X75403504Y-135000000D01*
X75403316Y-134998214D01*
X75422816Y-134931804D01*
X75439719Y-134910830D01*
X75995333Y-134355216D01*
X76057645Y-134321190D01*
X76128460Y-134326255D01*
X76158489Y-134342375D01*
X76248284Y-134407615D01*
X76253626Y-134411496D01*
X76259654Y-134414180D01*
X76259656Y-134414181D01*
X76369432Y-134463056D01*
X76428090Y-134489172D01*
X76521490Y-134509025D01*
X76608434Y-134527506D01*
X76608439Y-134527506D01*
X76614891Y-134528878D01*
X76805865Y-134528878D01*
X76812317Y-134527506D01*
X76812322Y-134527506D01*
X76899266Y-134509025D01*
X76992666Y-134489172D01*
X77051324Y-134463056D01*
X77161100Y-134414181D01*
X77161102Y-134414180D01*
X77167130Y-134411496D01*
X77321631Y-134299244D01*
X77418366Y-134191809D01*
X77856780Y-134191809D01*
X77861255Y-134207048D01*
X77862645Y-134208253D01*
X77870328Y-134209924D01*
X78692665Y-134209924D01*
X78707904Y-134205449D01*
X78709109Y-134204059D01*
X78710780Y-134196376D01*
X78710780Y-134191809D01*
X79218780Y-134191809D01*
X79223255Y-134207048D01*
X79224645Y-134208253D01*
X79232328Y-134209924D01*
X80054665Y-134209924D01*
X80069904Y-134205449D01*
X80071109Y-134204059D01*
X80072780Y-134196376D01*
X80072780Y-134114092D01*
X80072495Y-134108116D01*
X80058309Y-133959430D01*
X80056050Y-133947696D01*
X79999908Y-133756325D01*
X79995478Y-133745249D01*
X79904161Y-133567946D01*
X79897711Y-133557900D01*
X79774518Y-133401067D01*
X79766281Y-133392418D01*
X79615657Y-133261712D01*
X79605933Y-133254777D01*
X79433313Y-133154914D01*
X79422449Y-133149940D01*
X79234053Y-133084517D01*
X79233064Y-133084276D01*
X79222772Y-133085744D01*
X79218780Y-133099309D01*
X79218780Y-134191809D01*
X78710780Y-134191809D01*
X78710780Y-133103522D01*
X78706807Y-133089991D01*
X78697381Y-133088636D01*
X78608243Y-133110118D01*
X78596948Y-133114007D01*
X78415398Y-133196553D01*
X78405056Y-133202500D01*
X78242383Y-133317892D01*
X78233355Y-133325685D01*
X78095438Y-133469755D01*
X78088042Y-133479120D01*
X77979859Y-133646665D01*
X77974363Y-133657269D01*
X77899819Y-133842236D01*
X77896425Y-133853694D01*
X77857923Y-134050852D01*
X77856846Y-134059715D01*
X77856780Y-134062424D01*
X77856780Y-134191809D01*
X77418366Y-134191809D01*
X77449418Y-134157322D01*
X77544905Y-133991934D01*
X77603920Y-133810306D01*
X77608561Y-133766155D01*
X77623192Y-133626943D01*
X77623882Y-133620378D01*
X77609627Y-133484751D01*
X77604610Y-133437013D01*
X77604610Y-133437011D01*
X77603920Y-133430450D01*
X77544905Y-133248822D01*
X77449418Y-133083434D01*
X77376358Y-133002292D01*
X77326053Y-132946423D01*
X77326052Y-132946422D01*
X77321631Y-132941512D01*
X77167130Y-132829260D01*
X77161102Y-132826576D01*
X77161100Y-132826575D01*
X76998697Y-132754269D01*
X76998696Y-132754269D01*
X76992666Y-132751584D01*
X76899265Y-132731731D01*
X76812322Y-132713250D01*
X76812317Y-132713250D01*
X76805865Y-132711878D01*
X76749795Y-132711878D01*
X76681674Y-132691876D01*
X76635181Y-132638220D01*
X76624485Y-132599043D01*
X76624232Y-132596637D01*
X76623542Y-132590072D01*
X76564527Y-132408444D01*
X76549426Y-132382289D01*
X79933047Y-132382289D01*
X79933285Y-132387754D01*
X79947519Y-132550443D01*
X79949422Y-132561236D01*
X80005811Y-132771685D01*
X80009557Y-132781977D01*
X80101633Y-132979435D01*
X80107116Y-132988931D01*
X80232075Y-133167391D01*
X80239131Y-133175799D01*
X80393172Y-133329840D01*
X80401580Y-133336896D01*
X80580040Y-133461855D01*
X80589536Y-133467338D01*
X80786994Y-133559414D01*
X80797286Y-133563160D01*
X80969550Y-133609318D01*
X80983646Y-133608982D01*
X80987047Y-133601040D01*
X80987047Y-133595891D01*
X81495047Y-133595891D01*
X81499020Y-133609422D01*
X81507569Y-133610651D01*
X81684808Y-133563160D01*
X81695100Y-133559414D01*
X81892558Y-133467338D01*
X81902054Y-133461855D01*
X82080514Y-133336896D01*
X82088922Y-133329840D01*
X82242963Y-133175799D01*
X82250019Y-133167391D01*
X82374978Y-132988931D01*
X82380461Y-132979435D01*
X82472537Y-132781977D01*
X82476283Y-132771685D01*
X82532672Y-132561236D01*
X82534575Y-132550443D01*
X82548809Y-132387754D01*
X82549047Y-132382289D01*
X82549047Y-131900039D01*
X82544572Y-131884800D01*
X82543182Y-131883595D01*
X82535499Y-131881924D01*
X81513162Y-131881924D01*
X81497923Y-131886399D01*
X81496718Y-131887789D01*
X81495047Y-131895472D01*
X81495047Y-133595891D01*
X80987047Y-133595891D01*
X80987047Y-131900039D01*
X80982572Y-131884800D01*
X80981182Y-131883595D01*
X80973499Y-131881924D01*
X79951162Y-131881924D01*
X79935923Y-131886399D01*
X79934718Y-131887789D01*
X79933047Y-131895472D01*
X79933047Y-132382289D01*
X76549426Y-132382289D01*
X76469040Y-132243056D01*
X76417995Y-132186364D01*
X76345675Y-132106045D01*
X76345674Y-132106044D01*
X76341253Y-132101134D01*
X76206992Y-132003587D01*
X76192094Y-131992763D01*
X76192093Y-131992762D01*
X76186752Y-131988882D01*
X76180724Y-131986198D01*
X76180722Y-131986197D01*
X76018319Y-131913891D01*
X76018318Y-131913891D01*
X76012288Y-131911206D01*
X75918888Y-131891353D01*
X75831944Y-131872872D01*
X75831939Y-131872872D01*
X75825487Y-131871500D01*
X75634513Y-131871500D01*
X75628061Y-131872872D01*
X75628056Y-131872872D01*
X75541112Y-131891353D01*
X75447712Y-131911206D01*
X75441682Y-131913891D01*
X75441681Y-131913891D01*
X75279278Y-131986197D01*
X75279276Y-131986198D01*
X75273248Y-131988882D01*
X75267907Y-131992762D01*
X75267906Y-131992763D01*
X75253008Y-132003587D01*
X75118747Y-132101134D01*
X75114326Y-132106044D01*
X75114325Y-132106045D01*
X75042006Y-132186364D01*
X74990960Y-132243056D01*
X74989586Y-132245435D01*
X74934496Y-132287915D01*
X74888784Y-132296500D01*
X73738200Y-132296500D01*
X73670079Y-132276498D01*
X73650853Y-132260157D01*
X73650580Y-132260460D01*
X73645668Y-132256037D01*
X73641253Y-132251134D01*
X73619671Y-132235454D01*
X73492094Y-132142763D01*
X73492093Y-132142762D01*
X73486752Y-132138882D01*
X73480724Y-132136198D01*
X73480722Y-132136197D01*
X73318319Y-132063891D01*
X73318318Y-132063891D01*
X73312288Y-132061206D01*
X73218888Y-132041353D01*
X73131944Y-132022872D01*
X73131939Y-132022872D01*
X73125487Y-132021500D01*
X72934513Y-132021500D01*
X72928061Y-132022872D01*
X72928056Y-132022872D01*
X72841112Y-132041353D01*
X72747712Y-132061206D01*
X72741682Y-132063891D01*
X72741681Y-132063891D01*
X72579278Y-132136197D01*
X72579276Y-132136198D01*
X72573248Y-132138882D01*
X72418747Y-132251134D01*
X72414326Y-132256044D01*
X72414325Y-132256045D01*
X72300655Y-132382289D01*
X72290960Y-132393056D01*
X72195473Y-132558444D01*
X72136458Y-132740072D01*
X72135768Y-132746633D01*
X72135768Y-132746635D01*
X72127366Y-132826575D01*
X72116496Y-132930000D01*
X72117186Y-132936565D01*
X72134734Y-133103522D01*
X72136458Y-133119928D01*
X72195473Y-133301556D01*
X72198776Y-133307278D01*
X72198777Y-133307279D01*
X72204930Y-133317936D01*
X72290960Y-133466944D01*
X72295378Y-133471851D01*
X72295379Y-133471852D01*
X72381905Y-133567949D01*
X72418747Y-133608866D01*
X72573248Y-133721118D01*
X72579276Y-133723802D01*
X72579278Y-133723803D01*
X72674403Y-133766155D01*
X72747712Y-133798794D01*
X72831407Y-133816584D01*
X72928056Y-133837128D01*
X72928061Y-133837128D01*
X72934513Y-133838500D01*
X73125487Y-133838500D01*
X73131939Y-133837128D01*
X73131944Y-133837128D01*
X73228593Y-133816584D01*
X73312288Y-133798794D01*
X73385597Y-133766155D01*
X73480722Y-133723803D01*
X73480724Y-133723802D01*
X73486752Y-133721118D01*
X73522482Y-133695159D01*
X73634444Y-133613813D01*
X73641253Y-133608866D01*
X73645668Y-133603963D01*
X73650580Y-133599540D01*
X73651705Y-133600789D01*
X73705014Y-133567949D01*
X73738200Y-133563500D01*
X74761761Y-133563500D01*
X74829882Y-133583502D01*
X74876375Y-133637158D01*
X74886479Y-133707432D01*
X74856985Y-133772012D01*
X74850856Y-133778595D01*
X74574856Y-134054595D01*
X74512544Y-134088621D01*
X74485761Y-134091500D01*
X74394513Y-134091500D01*
X74388061Y-134092872D01*
X74388056Y-134092872D01*
X74301113Y-134111353D01*
X74207712Y-134131206D01*
X74201682Y-134133891D01*
X74201681Y-134133891D01*
X74039278Y-134206197D01*
X74039276Y-134206198D01*
X74033248Y-134208882D01*
X73878747Y-134321134D01*
X73874326Y-134326044D01*
X73874325Y-134326045D01*
X73859622Y-134342375D01*
X73750960Y-134463056D01*
X73655473Y-134628444D01*
X73596458Y-134810072D01*
X73595768Y-134816633D01*
X73595768Y-134816635D01*
X73587715Y-134893253D01*
X73576496Y-135000000D01*
X73577186Y-135006565D01*
X73595688Y-135182599D01*
X73596458Y-135189928D01*
X73630251Y-135293929D01*
X73634656Y-135307487D01*
X73636684Y-135378455D01*
X73600021Y-135439253D01*
X73536309Y-135470579D01*
X73514823Y-135472424D01*
X71417559Y-135472424D01*
X71349438Y-135452422D01*
X71302945Y-135398766D01*
X71292841Y-135328492D01*
X71308290Y-135287212D01*
X71306939Y-135286512D01*
X71315197Y-135270579D01*
X71389741Y-135085612D01*
X71393135Y-135074154D01*
X71431637Y-134876996D01*
X71432714Y-134868133D01*
X71432780Y-134865424D01*
X71432780Y-134736039D01*
X71428305Y-134720800D01*
X71426915Y-134719595D01*
X71419232Y-134717924D01*
X69234895Y-134717924D01*
X69219656Y-134722399D01*
X69218451Y-134723789D01*
X69216780Y-134731472D01*
X69216780Y-134813756D01*
X69217065Y-134819732D01*
X69231251Y-134968418D01*
X69233510Y-134980152D01*
X69289652Y-135171523D01*
X69294082Y-135182599D01*
X69348744Y-135288732D01*
X69362153Y-135358451D01*
X69335740Y-135424351D01*
X69277891Y-135465510D01*
X69236728Y-135472424D01*
X58004356Y-135472424D01*
X57984971Y-135470924D01*
X57970170Y-135468619D01*
X57970167Y-135468619D01*
X57961298Y-135467238D01*
X57941974Y-135469765D01*
X57919458Y-135470677D01*
X57618928Y-135455912D01*
X57606634Y-135454702D01*
X57279889Y-135406233D01*
X57267779Y-135403825D01*
X56947352Y-135323562D01*
X56935521Y-135319973D01*
X56624534Y-135208699D01*
X56613110Y-135203968D01*
X56314505Y-135062739D01*
X56303600Y-135056910D01*
X56208527Y-134999925D01*
X56128704Y-134952081D01*
X56020283Y-134887096D01*
X56010002Y-134880226D01*
X55744699Y-134683464D01*
X55735141Y-134675620D01*
X55490398Y-134453798D01*
X55481654Y-134445054D01*
X55259832Y-134200311D01*
X55252855Y-134191809D01*
X69216780Y-134191809D01*
X69221255Y-134207048D01*
X69222645Y-134208253D01*
X69230328Y-134209924D01*
X70052665Y-134209924D01*
X70067904Y-134205449D01*
X70069109Y-134204059D01*
X70070780Y-134196376D01*
X70070780Y-134191809D01*
X70578780Y-134191809D01*
X70583255Y-134207048D01*
X70584645Y-134208253D01*
X70592328Y-134209924D01*
X71414665Y-134209924D01*
X71429904Y-134205449D01*
X71431109Y-134204059D01*
X71432780Y-134196376D01*
X71432780Y-134114092D01*
X71432495Y-134108116D01*
X71418309Y-133959430D01*
X71416050Y-133947696D01*
X71359908Y-133756325D01*
X71355478Y-133745249D01*
X71264161Y-133567946D01*
X71257711Y-133557900D01*
X71134518Y-133401067D01*
X71126281Y-133392418D01*
X70975657Y-133261712D01*
X70965933Y-133254777D01*
X70793313Y-133154914D01*
X70782449Y-133149940D01*
X70594053Y-133084517D01*
X70593064Y-133084276D01*
X70582772Y-133085744D01*
X70578780Y-133099309D01*
X70578780Y-134191809D01*
X70070780Y-134191809D01*
X70070780Y-133103522D01*
X70066807Y-133089991D01*
X70057381Y-133088636D01*
X69968243Y-133110118D01*
X69956948Y-133114007D01*
X69775398Y-133196553D01*
X69765056Y-133202500D01*
X69602383Y-133317892D01*
X69593355Y-133325685D01*
X69455438Y-133469755D01*
X69448042Y-133479120D01*
X69339859Y-133646665D01*
X69334363Y-133657269D01*
X69259819Y-133842236D01*
X69256425Y-133853694D01*
X69217923Y-134050852D01*
X69216846Y-134059715D01*
X69216780Y-134062424D01*
X69216780Y-134191809D01*
X55252855Y-134191809D01*
X55251988Y-134190753D01*
X55055226Y-133925450D01*
X55048356Y-133915169D01*
X54946510Y-133745249D01*
X54878540Y-133631848D01*
X54872713Y-133620947D01*
X54867844Y-133610651D01*
X54805634Y-133479120D01*
X54731484Y-133322342D01*
X54726753Y-133310918D01*
X54620231Y-133013212D01*
X54615479Y-132999929D01*
X54611889Y-132988098D01*
X54595692Y-132923435D01*
X54531627Y-132667673D01*
X54529217Y-132655554D01*
X54529191Y-132655373D01*
X54480750Y-132328818D01*
X54479539Y-132316517D01*
X54477710Y-132279284D01*
X54494345Y-132210264D01*
X54545655Y-132161195D01*
X54615349Y-132147655D01*
X54681299Y-132173944D01*
X54695106Y-132186528D01*
X54763480Y-132258832D01*
X54767506Y-132261910D01*
X54767507Y-132261911D01*
X54958694Y-132408085D01*
X54958698Y-132408088D01*
X54962714Y-132411158D01*
X54967172Y-132413548D01*
X54967173Y-132413549D01*
X55009391Y-132436186D01*
X55183739Y-132529670D01*
X55188520Y-132531316D01*
X55188524Y-132531318D01*
X55340925Y-132583794D01*
X55420869Y-132611321D01*
X55524402Y-132629204D01*
X55664093Y-132653333D01*
X55664099Y-132653334D01*
X55668003Y-132654008D01*
X55671964Y-132654188D01*
X55671965Y-132654188D01*
X55696644Y-132655309D01*
X55696663Y-132655309D01*
X55698063Y-132655373D01*
X55872728Y-132655373D01*
X55875236Y-132655171D01*
X55875241Y-132655171D01*
X56054657Y-132640736D01*
X56054662Y-132640735D01*
X56059698Y-132640330D01*
X56064606Y-132639125D01*
X56064609Y-132639124D01*
X56298338Y-132581714D01*
X56303252Y-132580507D01*
X56307904Y-132578532D01*
X56307908Y-132578531D01*
X56529454Y-132484490D01*
X56529455Y-132484490D01*
X56534109Y-132482514D01*
X56746328Y-132348873D01*
X56934451Y-132183020D01*
X57093637Y-131989224D01*
X57219791Y-131772469D01*
X57309668Y-131538334D01*
X57311096Y-131531502D01*
X57359919Y-131297794D01*
X57360954Y-131292840D01*
X57367375Y-131151441D01*
X66235895Y-131151441D01*
X66264721Y-131400572D01*
X66266100Y-131405446D01*
X66266101Y-131405450D01*
X66314692Y-131577167D01*
X66333007Y-131641890D01*
X66335141Y-131646465D01*
X66335143Y-131646472D01*
X66436379Y-131863572D01*
X66438997Y-131869186D01*
X66441839Y-131873367D01*
X66441839Y-131873368D01*
X66577118Y-132072425D01*
X66577121Y-132072429D01*
X66579964Y-132076612D01*
X66583441Y-132080289D01*
X66583442Y-132080290D01*
X66683751Y-132186364D01*
X66752280Y-132258832D01*
X66756306Y-132261910D01*
X66756307Y-132261911D01*
X66947494Y-132408085D01*
X66947498Y-132408088D01*
X66951514Y-132411158D01*
X66955972Y-132413548D01*
X66955973Y-132413549D01*
X66998191Y-132436186D01*
X67172539Y-132529670D01*
X67177320Y-132531316D01*
X67177324Y-132531318D01*
X67329725Y-132583794D01*
X67409669Y-132611321D01*
X67513202Y-132629204D01*
X67652893Y-132653333D01*
X67652899Y-132653334D01*
X67656803Y-132654008D01*
X67660764Y-132654188D01*
X67660765Y-132654188D01*
X67685444Y-132655309D01*
X67685463Y-132655309D01*
X67686863Y-132655373D01*
X67861528Y-132655373D01*
X67864036Y-132655171D01*
X67864041Y-132655171D01*
X68043457Y-132640736D01*
X68043462Y-132640735D01*
X68048498Y-132640330D01*
X68053406Y-132639125D01*
X68053409Y-132639124D01*
X68287138Y-132581714D01*
X68292052Y-132580507D01*
X68296704Y-132578532D01*
X68296708Y-132578531D01*
X68518254Y-132484490D01*
X68518255Y-132484490D01*
X68522909Y-132482514D01*
X68735128Y-132348873D01*
X68923251Y-132183020D01*
X69082437Y-131989224D01*
X69208591Y-131772469D01*
X69239070Y-131693071D01*
X69287817Y-131566081D01*
X69330903Y-131509653D01*
X69397657Y-131485477D01*
X69466884Y-131501229D01*
X69504533Y-131533402D01*
X69515041Y-131546779D01*
X69523279Y-131555430D01*
X69673903Y-131686136D01*
X69683627Y-131693071D01*
X69856247Y-131792934D01*
X69867111Y-131797908D01*
X70055507Y-131863331D01*
X70056496Y-131863572D01*
X70066788Y-131862104D01*
X70070780Y-131848539D01*
X70070780Y-131844326D01*
X70578780Y-131844326D01*
X70582753Y-131857857D01*
X70592179Y-131859212D01*
X70681317Y-131837730D01*
X70692612Y-131833841D01*
X70874162Y-131751295D01*
X70884504Y-131745348D01*
X71047177Y-131629956D01*
X71056205Y-131622163D01*
X71140826Y-131533767D01*
X71202381Y-131498391D01*
X71273291Y-131501910D01*
X71305904Y-131518962D01*
X71317818Y-131527618D01*
X71317824Y-131527621D01*
X71323165Y-131531502D01*
X71329193Y-131534186D01*
X71329195Y-131534187D01*
X71481997Y-131602219D01*
X71488028Y-131604904D01*
X71569226Y-131622163D01*
X71658091Y-131641052D01*
X71658095Y-131641052D01*
X71664548Y-131642424D01*
X71845012Y-131642424D01*
X71851465Y-131641052D01*
X71851469Y-131641052D01*
X71940334Y-131622163D01*
X72021532Y-131604904D01*
X72027563Y-131602219D01*
X72180365Y-131534187D01*
X72180367Y-131534186D01*
X72186395Y-131531502D01*
X72203655Y-131518962D01*
X72327049Y-131429311D01*
X72327051Y-131429309D01*
X72332393Y-131425428D01*
X72350381Y-131405450D01*
X72448728Y-131296225D01*
X72448729Y-131296224D01*
X72453147Y-131291317D01*
X72543379Y-131135031D01*
X72599145Y-130963399D01*
X72618009Y-130783924D01*
X76671551Y-130783924D01*
X76690415Y-130963399D01*
X76746181Y-131135031D01*
X76836413Y-131291317D01*
X76840831Y-131296224D01*
X76840832Y-131296225D01*
X76939179Y-131405450D01*
X76957167Y-131425428D01*
X76962509Y-131429309D01*
X76962511Y-131429311D01*
X77085905Y-131518962D01*
X77103165Y-131531502D01*
X77109193Y-131534186D01*
X77109195Y-131534187D01*
X77261997Y-131602219D01*
X77268028Y-131604904D01*
X77349226Y-131622163D01*
X77438091Y-131641052D01*
X77438095Y-131641052D01*
X77444548Y-131642424D01*
X77625012Y-131642424D01*
X77631465Y-131641052D01*
X77631469Y-131641052D01*
X77720334Y-131622163D01*
X77801532Y-131604904D01*
X77807563Y-131602219D01*
X77960365Y-131534187D01*
X77960367Y-131534186D01*
X77966395Y-131531502D01*
X77980679Y-131521124D01*
X78047548Y-131497267D01*
X78116699Y-131513349D01*
X78150749Y-131542590D01*
X78150908Y-131542439D01*
X78152409Y-131544016D01*
X78153827Y-131545233D01*
X78155043Y-131546781D01*
X78163279Y-131555430D01*
X78313903Y-131686136D01*
X78323627Y-131693071D01*
X78496247Y-131792934D01*
X78507111Y-131797908D01*
X78695507Y-131863331D01*
X78696496Y-131863572D01*
X78706788Y-131862104D01*
X78710780Y-131848539D01*
X78710780Y-131844326D01*
X79218780Y-131844326D01*
X79222753Y-131857857D01*
X79232179Y-131859212D01*
X79321317Y-131837730D01*
X79332612Y-131833841D01*
X79514162Y-131751295D01*
X79524504Y-131745348D01*
X79687177Y-131629956D01*
X79696205Y-131622163D01*
X79834122Y-131478093D01*
X79841518Y-131468728D01*
X79865507Y-131431576D01*
X79919263Y-131385198D01*
X79971359Y-131373924D01*
X80968932Y-131373924D01*
X80984171Y-131369449D01*
X80985376Y-131368059D01*
X80987047Y-131360376D01*
X80987047Y-131355809D01*
X81495047Y-131355809D01*
X81499522Y-131371048D01*
X81500912Y-131372253D01*
X81508595Y-131373924D01*
X82530932Y-131373924D01*
X82546171Y-131369449D01*
X82547376Y-131368059D01*
X82549047Y-131360376D01*
X82549047Y-131127924D01*
X83977549Y-131127924D01*
X83997504Y-131356011D01*
X83998928Y-131361324D01*
X83998928Y-131361326D01*
X84050939Y-131555430D01*
X84056763Y-131577167D01*
X84059086Y-131582148D01*
X84059086Y-131582149D01*
X84151198Y-131779686D01*
X84151201Y-131779691D01*
X84153524Y-131784673D01*
X84212701Y-131869186D01*
X84262879Y-131940847D01*
X84284849Y-131972224D01*
X84446747Y-132134122D01*
X84451255Y-132137279D01*
X84451258Y-132137281D01*
X84510999Y-132179112D01*
X84634298Y-132265447D01*
X84639280Y-132267770D01*
X84639285Y-132267773D01*
X84818988Y-132351569D01*
X84841804Y-132362208D01*
X84847112Y-132363630D01*
X84847114Y-132363631D01*
X85057645Y-132420043D01*
X85057647Y-132420043D01*
X85062960Y-132421467D01*
X85162527Y-132430178D01*
X85231196Y-132436186D01*
X85231203Y-132436186D01*
X85233920Y-132436424D01*
X86948174Y-132436424D01*
X86950891Y-132436186D01*
X86950898Y-132436186D01*
X87019567Y-132430178D01*
X87119134Y-132421467D01*
X87124447Y-132420043D01*
X87124449Y-132420043D01*
X87265348Y-132382289D01*
X89633047Y-132382289D01*
X89633285Y-132387754D01*
X89647519Y-132550443D01*
X89649422Y-132561236D01*
X89705811Y-132771685D01*
X89709557Y-132781977D01*
X89801633Y-132979435D01*
X89807116Y-132988931D01*
X89932075Y-133167391D01*
X89939131Y-133175799D01*
X90093172Y-133329840D01*
X90101580Y-133336896D01*
X90280040Y-133461855D01*
X90289536Y-133467338D01*
X90486994Y-133559414D01*
X90497286Y-133563160D01*
X90669550Y-133609318D01*
X90683646Y-133608982D01*
X90687047Y-133601040D01*
X90687047Y-131900039D01*
X90682572Y-131884800D01*
X90681182Y-131883595D01*
X90673499Y-131881924D01*
X89651162Y-131881924D01*
X89635923Y-131886399D01*
X89634718Y-131887789D01*
X89633047Y-131895472D01*
X89633047Y-132382289D01*
X87265348Y-132382289D01*
X87334980Y-132363631D01*
X87334982Y-132363630D01*
X87340290Y-132362208D01*
X87363106Y-132351569D01*
X87542809Y-132267773D01*
X87542814Y-132267770D01*
X87547796Y-132265447D01*
X87671095Y-132179112D01*
X87730836Y-132137281D01*
X87730839Y-132137279D01*
X87735347Y-132134122D01*
X87897245Y-131972224D01*
X87919216Y-131940847D01*
X87969393Y-131869186D01*
X88028570Y-131784673D01*
X88030893Y-131779691D01*
X88030896Y-131779686D01*
X88123008Y-131582149D01*
X88123008Y-131582148D01*
X88125331Y-131577167D01*
X88131156Y-131555430D01*
X88183166Y-131361326D01*
X88183166Y-131361324D01*
X88184590Y-131356011D01*
X88184608Y-131355809D01*
X89633047Y-131355809D01*
X89637522Y-131371048D01*
X89638912Y-131372253D01*
X89646595Y-131373924D01*
X90668932Y-131373924D01*
X90684171Y-131369449D01*
X90685376Y-131368059D01*
X90687047Y-131360376D01*
X90687047Y-129659957D01*
X90683074Y-129646426D01*
X90674525Y-129645197D01*
X90497286Y-129692688D01*
X90486994Y-129696434D01*
X90289536Y-129788510D01*
X90280040Y-129793993D01*
X90101580Y-129918952D01*
X90093172Y-129926008D01*
X89939131Y-130080049D01*
X89932075Y-130088457D01*
X89807116Y-130266917D01*
X89801633Y-130276413D01*
X89709557Y-130473871D01*
X89705811Y-130484163D01*
X89649422Y-130694612D01*
X89647519Y-130705405D01*
X89633285Y-130868094D01*
X89633047Y-130873559D01*
X89633047Y-131355809D01*
X88184608Y-131355809D01*
X88204545Y-131127924D01*
X88184590Y-130899837D01*
X88177549Y-130873559D01*
X88126754Y-130683991D01*
X88126753Y-130683989D01*
X88125331Y-130678681D01*
X88093777Y-130611013D01*
X88030896Y-130476162D01*
X88030893Y-130476157D01*
X88028570Y-130471175D01*
X87897245Y-130283624D01*
X87735347Y-130121726D01*
X87730839Y-130118569D01*
X87730836Y-130118567D01*
X87630184Y-130048090D01*
X87547796Y-129990401D01*
X87542814Y-129988078D01*
X87542809Y-129988075D01*
X87345272Y-129895963D01*
X87345271Y-129895963D01*
X87340290Y-129893640D01*
X87334982Y-129892218D01*
X87334980Y-129892217D01*
X87124449Y-129835805D01*
X87124447Y-129835805D01*
X87119134Y-129834381D01*
X87019567Y-129825670D01*
X86950898Y-129819662D01*
X86950891Y-129819662D01*
X86948174Y-129819424D01*
X85233920Y-129819424D01*
X85231203Y-129819662D01*
X85231196Y-129819662D01*
X85162527Y-129825670D01*
X85062960Y-129834381D01*
X85057647Y-129835805D01*
X85057645Y-129835805D01*
X84847114Y-129892217D01*
X84847112Y-129892218D01*
X84841804Y-129893640D01*
X84836823Y-129895963D01*
X84836822Y-129895963D01*
X84639285Y-129988075D01*
X84639280Y-129988078D01*
X84634298Y-129990401D01*
X84551910Y-130048090D01*
X84451258Y-130118567D01*
X84451255Y-130118569D01*
X84446747Y-130121726D01*
X84284849Y-130283624D01*
X84153524Y-130471175D01*
X84151201Y-130476157D01*
X84151198Y-130476162D01*
X84088317Y-130611013D01*
X84056763Y-130678681D01*
X84055341Y-130683989D01*
X84055340Y-130683991D01*
X84004545Y-130873559D01*
X83997504Y-130899837D01*
X83977549Y-131127924D01*
X82549047Y-131127924D01*
X82549047Y-130873559D01*
X82548809Y-130868094D01*
X82534575Y-130705405D01*
X82532672Y-130694612D01*
X82476283Y-130484163D01*
X82472537Y-130473871D01*
X82380461Y-130276413D01*
X82374978Y-130266917D01*
X82250019Y-130088457D01*
X82242963Y-130080049D01*
X82088922Y-129926008D01*
X82080514Y-129918952D01*
X81902054Y-129793993D01*
X81892558Y-129788510D01*
X81695100Y-129696434D01*
X81684808Y-129692688D01*
X81512544Y-129646530D01*
X81498448Y-129646866D01*
X81495047Y-129654808D01*
X81495047Y-131355809D01*
X80987047Y-131355809D01*
X80987047Y-129659957D01*
X80983074Y-129646426D01*
X80974525Y-129645197D01*
X80797286Y-129692688D01*
X80786994Y-129696434D01*
X80589536Y-129788510D01*
X80580040Y-129793993D01*
X80401580Y-129918952D01*
X80393172Y-129926008D01*
X80287875Y-130031305D01*
X80225563Y-130065331D01*
X80154748Y-130060266D01*
X80097912Y-130017719D01*
X80073101Y-129951199D01*
X80072780Y-129942210D01*
X80072780Y-129734092D01*
X80072495Y-129728116D01*
X80058309Y-129579430D01*
X80056050Y-129567696D01*
X79999908Y-129376325D01*
X79995478Y-129365249D01*
X79904161Y-129187946D01*
X79897711Y-129177900D01*
X79774518Y-129021067D01*
X79766281Y-129012418D01*
X79615657Y-128881712D01*
X79605933Y-128874777D01*
X79433313Y-128774914D01*
X79422449Y-128769940D01*
X79234053Y-128704517D01*
X79233064Y-128704276D01*
X79222772Y-128705744D01*
X79218780Y-128719309D01*
X79218780Y-131844326D01*
X78710780Y-131844326D01*
X78710780Y-128723522D01*
X78706807Y-128709991D01*
X78697381Y-128708636D01*
X78608243Y-128730118D01*
X78596948Y-128734007D01*
X78415398Y-128816553D01*
X78405056Y-128822500D01*
X78242383Y-128937892D01*
X78233355Y-128945685D01*
X78095438Y-129089755D01*
X78088042Y-129099120D01*
X77979859Y-129266665D01*
X77974363Y-129277269D01*
X77899819Y-129462236D01*
X77896425Y-129473694D01*
X77857923Y-129670852D01*
X77856846Y-129679715D01*
X77856780Y-129682424D01*
X77856780Y-129819090D01*
X77836778Y-129887211D01*
X77783122Y-129933704D01*
X77712848Y-129943808D01*
X77704584Y-129942337D01*
X77643167Y-129929283D01*
X77625012Y-129925424D01*
X77444548Y-129925424D01*
X77438095Y-129926796D01*
X77438091Y-129926796D01*
X77358057Y-129943808D01*
X77268028Y-129962944D01*
X77261999Y-129965628D01*
X77261997Y-129965629D01*
X77109196Y-130033661D01*
X77109194Y-130033662D01*
X77103166Y-130036346D01*
X77097825Y-130040226D01*
X77097824Y-130040227D01*
X76962511Y-130138537D01*
X76962509Y-130138539D01*
X76957167Y-130142420D01*
X76952746Y-130147330D01*
X76952745Y-130147331D01*
X76897314Y-130208894D01*
X76836413Y-130276531D01*
X76806038Y-130329142D01*
X76750116Y-130426002D01*
X76746181Y-130432817D01*
X76690415Y-130604449D01*
X76689725Y-130611012D01*
X76689725Y-130611013D01*
X76685058Y-130655412D01*
X76671551Y-130783924D01*
X72618009Y-130783924D01*
X72604502Y-130655412D01*
X72599835Y-130611013D01*
X72599835Y-130611012D01*
X72599145Y-130604449D01*
X72543379Y-130432817D01*
X72539445Y-130426002D01*
X72483522Y-130329142D01*
X72453147Y-130276531D01*
X72392247Y-130208894D01*
X72336815Y-130147331D01*
X72336814Y-130147330D01*
X72332393Y-130142420D01*
X72303911Y-130121726D01*
X72191737Y-130040227D01*
X72191736Y-130040226D01*
X72186395Y-130036346D01*
X72180367Y-130033662D01*
X72180365Y-130033661D01*
X72027563Y-129965629D01*
X72027561Y-129965629D01*
X72021532Y-129962944D01*
X71931503Y-129943808D01*
X71851469Y-129926796D01*
X71851465Y-129926796D01*
X71845012Y-129925424D01*
X71664548Y-129925424D01*
X71646393Y-129929283D01*
X71584976Y-129942337D01*
X71514186Y-129936935D01*
X71457553Y-129894118D01*
X71433060Y-129827480D01*
X71432780Y-129819090D01*
X71432780Y-129734092D01*
X71432495Y-129728116D01*
X71418309Y-129579430D01*
X71416050Y-129567696D01*
X71359908Y-129376325D01*
X71355478Y-129365249D01*
X71264161Y-129187946D01*
X71257711Y-129177900D01*
X71134518Y-129021067D01*
X71126281Y-129012418D01*
X70975657Y-128881712D01*
X70965933Y-128874777D01*
X70793313Y-128774914D01*
X70782449Y-128769940D01*
X70594053Y-128704517D01*
X70593064Y-128704276D01*
X70582772Y-128705744D01*
X70578780Y-128719309D01*
X70578780Y-131844326D01*
X70070780Y-131844326D01*
X70070780Y-128723522D01*
X70066807Y-128709991D01*
X70057381Y-128708636D01*
X69968243Y-128730118D01*
X69956948Y-128734007D01*
X69775398Y-128816553D01*
X69765056Y-128822500D01*
X69602383Y-128937892D01*
X69593355Y-128945685D01*
X69455438Y-129089755D01*
X69448042Y-129099120D01*
X69339859Y-129266665D01*
X69334363Y-129277269D01*
X69259819Y-129462236D01*
X69256425Y-129473694D01*
X69217923Y-129670852D01*
X69216846Y-129679715D01*
X69216780Y-129682424D01*
X69216780Y-130011705D01*
X69196778Y-130079826D01*
X69143122Y-130126319D01*
X69072848Y-130136423D01*
X69008268Y-130106929D01*
X68999231Y-130098278D01*
X68848226Y-129938594D01*
X68844746Y-129934914D01*
X68836178Y-129928363D01*
X68649532Y-129785661D01*
X68649528Y-129785658D01*
X68645512Y-129782588D01*
X68424487Y-129664076D01*
X68419706Y-129662430D01*
X68419702Y-129662428D01*
X68192146Y-129584074D01*
X68187357Y-129582425D01*
X68083824Y-129564542D01*
X67944133Y-129540413D01*
X67944127Y-129540412D01*
X67940223Y-129539738D01*
X67936262Y-129539558D01*
X67936261Y-129539558D01*
X67911582Y-129538437D01*
X67911563Y-129538437D01*
X67910163Y-129538373D01*
X67735498Y-129538373D01*
X67732990Y-129538575D01*
X67732985Y-129538575D01*
X67553569Y-129553010D01*
X67553564Y-129553011D01*
X67548528Y-129553416D01*
X67543620Y-129554621D01*
X67543617Y-129554622D01*
X67311839Y-129611553D01*
X67304974Y-129613239D01*
X67300322Y-129615214D01*
X67300318Y-129615215D01*
X67179574Y-129666468D01*
X67074117Y-129711232D01*
X66942694Y-129793993D01*
X66901933Y-129819662D01*
X66861898Y-129844873D01*
X66673775Y-130010726D01*
X66514589Y-130204522D01*
X66388435Y-130421277D01*
X66386622Y-130426000D01*
X66386621Y-130426002D01*
X66371011Y-130466667D01*
X66298558Y-130655412D01*
X66297525Y-130660358D01*
X66297523Y-130660364D01*
X66270797Y-130788296D01*
X66247272Y-130900906D01*
X66235895Y-131151441D01*
X57367375Y-131151441D01*
X57372331Y-131042305D01*
X57343505Y-130793174D01*
X57312610Y-130683991D01*
X57276597Y-130556725D01*
X57276596Y-130556723D01*
X57275219Y-130551856D01*
X57273085Y-130547281D01*
X57273083Y-130547274D01*
X57171366Y-130329142D01*
X57171364Y-130329138D01*
X57169229Y-130324560D01*
X57141409Y-130283624D01*
X57031108Y-130121321D01*
X57031105Y-130121317D01*
X57028262Y-130117134D01*
X56927638Y-130010726D01*
X56859426Y-129938594D01*
X56855946Y-129934914D01*
X56847378Y-129928363D01*
X56660732Y-129785661D01*
X56660728Y-129785658D01*
X56656712Y-129782588D01*
X56435687Y-129664076D01*
X56430906Y-129662430D01*
X56430902Y-129662428D01*
X56203346Y-129584074D01*
X56198557Y-129582425D01*
X56095024Y-129564542D01*
X55955333Y-129540413D01*
X55955327Y-129540412D01*
X55951423Y-129539738D01*
X55947462Y-129539558D01*
X55947461Y-129539558D01*
X55922782Y-129538437D01*
X55922763Y-129538437D01*
X55921363Y-129538373D01*
X55746698Y-129538373D01*
X55744190Y-129538575D01*
X55744185Y-129538575D01*
X55564769Y-129553010D01*
X55564764Y-129553011D01*
X55559728Y-129553416D01*
X55554820Y-129554621D01*
X55554817Y-129554622D01*
X55323039Y-129611553D01*
X55316174Y-129613239D01*
X55311522Y-129615214D01*
X55311518Y-129615215D01*
X55190774Y-129666468D01*
X55085317Y-129711232D01*
X54953894Y-129793993D01*
X54913133Y-129819662D01*
X54873098Y-129844873D01*
X54684975Y-130010726D01*
X54681757Y-130014644D01*
X54679667Y-130016808D01*
X54617958Y-130051917D01*
X54547065Y-130048090D01*
X54489495Y-130006543D01*
X54463525Y-129940466D01*
X54463028Y-129929283D01*
X54463028Y-128788949D01*
X57940590Y-128788949D01*
X57960545Y-129017036D01*
X57961969Y-129022349D01*
X57961969Y-129022351D01*
X58014159Y-129217123D01*
X58019804Y-129238192D01*
X58022127Y-129243173D01*
X58022127Y-129243174D01*
X58114239Y-129440711D01*
X58114242Y-129440716D01*
X58116565Y-129445698D01*
X58119722Y-129450206D01*
X58233034Y-129612032D01*
X58247890Y-129633249D01*
X58409788Y-129795147D01*
X58414296Y-129798304D01*
X58414299Y-129798306D01*
X58420092Y-129802362D01*
X58597339Y-129926472D01*
X58602321Y-129928795D01*
X58602326Y-129928798D01*
X58734436Y-129990401D01*
X58804845Y-130023233D01*
X58810153Y-130024655D01*
X58810155Y-130024656D01*
X59020686Y-130081068D01*
X59020688Y-130081068D01*
X59026001Y-130082492D01*
X59254088Y-130102447D01*
X59482175Y-130082492D01*
X59487488Y-130081068D01*
X59487490Y-130081068D01*
X59698021Y-130024656D01*
X59698023Y-130024655D01*
X59703331Y-130023233D01*
X59773740Y-129990401D01*
X59905850Y-129928798D01*
X59905855Y-129928795D01*
X59910837Y-129926472D01*
X59984331Y-129875011D01*
X60572713Y-129875011D01*
X60582009Y-129887026D01*
X60633214Y-129922880D01*
X60642709Y-129928363D01*
X60840167Y-130020439D01*
X60850459Y-130024185D01*
X61060908Y-130080574D01*
X61071701Y-130082477D01*
X61288745Y-130101466D01*
X61299695Y-130101466D01*
X61516739Y-130082477D01*
X61527532Y-130080574D01*
X61737981Y-130024185D01*
X61748273Y-130020439D01*
X61945731Y-129928363D01*
X61955226Y-129922880D01*
X62007268Y-129886440D01*
X62015644Y-129875961D01*
X62008576Y-129862515D01*
X61307032Y-129160971D01*
X61293088Y-129153357D01*
X61291255Y-129153488D01*
X61284640Y-129157739D01*
X60579143Y-129863236D01*
X60572713Y-129875011D01*
X59984331Y-129875011D01*
X60088084Y-129802362D01*
X60093877Y-129798306D01*
X60093880Y-129798304D01*
X60098388Y-129795147D01*
X60260286Y-129633249D01*
X60275143Y-129612032D01*
X60388454Y-129450206D01*
X60391611Y-129445698D01*
X60393934Y-129440716D01*
X60393937Y-129440711D01*
X60481260Y-129253444D01*
X60506360Y-129217599D01*
X60922198Y-128801761D01*
X60929812Y-128787817D01*
X60929681Y-128785984D01*
X60925430Y-128779369D01*
X60506360Y-128360299D01*
X60481260Y-128324454D01*
X60393937Y-128137187D01*
X60393934Y-128137182D01*
X60391611Y-128132200D01*
X60260286Y-127944649D01*
X60098388Y-127782751D01*
X60093877Y-127779593D01*
X60090105Y-127776427D01*
X60050781Y-127717316D01*
X60049657Y-127646328D01*
X60087091Y-127586002D01*
X60151196Y-127555490D01*
X60182081Y-127554387D01*
X60268678Y-127561963D01*
X60268679Y-127561963D01*
X60274154Y-127562442D01*
X60279629Y-127561963D01*
X60279630Y-127561963D01*
X60436718Y-127548220D01*
X60506322Y-127562209D01*
X60557315Y-127611609D01*
X60573029Y-127686713D01*
X60571674Y-127699802D01*
X60579864Y-127715383D01*
X61281408Y-128416927D01*
X61295352Y-128424541D01*
X61297185Y-128424410D01*
X61303800Y-128420159D01*
X62009297Y-127714662D01*
X62016911Y-127700718D01*
X62015630Y-127682802D01*
X62030721Y-127613428D01*
X62080923Y-127563226D01*
X62152290Y-127548292D01*
X62308556Y-127561963D01*
X62308557Y-127561963D01*
X62314032Y-127562442D01*
X62319507Y-127561963D01*
X62319508Y-127561963D01*
X62406105Y-127554387D01*
X62475710Y-127568376D01*
X62526702Y-127617776D01*
X62542892Y-127686902D01*
X62519139Y-127753807D01*
X62498081Y-127776427D01*
X62494309Y-127779593D01*
X62489798Y-127782751D01*
X62327900Y-127944649D01*
X62196575Y-128132200D01*
X62194252Y-128137182D01*
X62194249Y-128137187D01*
X62106704Y-128324930D01*
X62081604Y-128360775D01*
X61666242Y-128776137D01*
X61658628Y-128790081D01*
X61658759Y-128791914D01*
X61663010Y-128798529D01*
X62081604Y-129217123D01*
X62106704Y-129252968D01*
X62194249Y-129440711D01*
X62194252Y-129440716D01*
X62196575Y-129445698D01*
X62199732Y-129450206D01*
X62313044Y-129612032D01*
X62327900Y-129633249D01*
X62489798Y-129795147D01*
X62494306Y-129798304D01*
X62494309Y-129798306D01*
X62500102Y-129802362D01*
X62677349Y-129926472D01*
X62682331Y-129928795D01*
X62682336Y-129928798D01*
X62814446Y-129990401D01*
X62884855Y-130023233D01*
X62890163Y-130024655D01*
X62890165Y-130024656D01*
X63100696Y-130081068D01*
X63100698Y-130081068D01*
X63106011Y-130082492D01*
X63334098Y-130102447D01*
X63562185Y-130082492D01*
X63567498Y-130081068D01*
X63567500Y-130081068D01*
X63778031Y-130024656D01*
X63778033Y-130024655D01*
X63783341Y-130023233D01*
X63853750Y-129990401D01*
X63985860Y-129928798D01*
X63985865Y-129928795D01*
X63990847Y-129926472D01*
X64168094Y-129802362D01*
X64173887Y-129798306D01*
X64173890Y-129798304D01*
X64178398Y-129795147D01*
X64340296Y-129633249D01*
X64355153Y-129612032D01*
X64468464Y-129450206D01*
X64471621Y-129445698D01*
X64473944Y-129440716D01*
X64473947Y-129440711D01*
X64566059Y-129243174D01*
X64566059Y-129243173D01*
X64568382Y-129238192D01*
X64574028Y-129217123D01*
X64626217Y-129022351D01*
X64626217Y-129022349D01*
X64627641Y-129017036D01*
X64647596Y-128788949D01*
X64627641Y-128560862D01*
X64604848Y-128475799D01*
X64569805Y-128345016D01*
X64569804Y-128345014D01*
X64568382Y-128339706D01*
X64561270Y-128324454D01*
X64473947Y-128137187D01*
X64473944Y-128137182D01*
X64471621Y-128132200D01*
X64340296Y-127944649D01*
X64178398Y-127782751D01*
X64174252Y-127779848D01*
X64135005Y-127720850D01*
X64134395Y-127682289D01*
X79933047Y-127682289D01*
X79933285Y-127687754D01*
X79947519Y-127850443D01*
X79949422Y-127861236D01*
X80005811Y-128071685D01*
X80009557Y-128081977D01*
X80101633Y-128279435D01*
X80107116Y-128288931D01*
X80232075Y-128467391D01*
X80239131Y-128475799D01*
X80393172Y-128629840D01*
X80401580Y-128636896D01*
X80580040Y-128761855D01*
X80589536Y-128767338D01*
X80786994Y-128859414D01*
X80797286Y-128863160D01*
X80969550Y-128909318D01*
X80983646Y-128908982D01*
X80987047Y-128901040D01*
X80987047Y-128895891D01*
X81495047Y-128895891D01*
X81499020Y-128909422D01*
X81507569Y-128910651D01*
X81684808Y-128863160D01*
X81695100Y-128859414D01*
X81892558Y-128767338D01*
X81902054Y-128761855D01*
X82080514Y-128636896D01*
X82088922Y-128629840D01*
X82242963Y-128475799D01*
X82250019Y-128467391D01*
X82374978Y-128288931D01*
X82380461Y-128279435D01*
X82472537Y-128081977D01*
X82476283Y-128071685D01*
X82532672Y-127861236D01*
X82534575Y-127850443D01*
X82548809Y-127687754D01*
X82549047Y-127682289D01*
X89633047Y-127682289D01*
X89633285Y-127687754D01*
X89647519Y-127850443D01*
X89649422Y-127861236D01*
X89705811Y-128071685D01*
X89709557Y-128081977D01*
X89801633Y-128279435D01*
X89807116Y-128288931D01*
X89932075Y-128467391D01*
X89939131Y-128475799D01*
X90093172Y-128629840D01*
X90101580Y-128636896D01*
X90280040Y-128761855D01*
X90289536Y-128767338D01*
X90486994Y-128859414D01*
X90497286Y-128863160D01*
X90669550Y-128909318D01*
X90683646Y-128908982D01*
X90687047Y-128901040D01*
X90687047Y-127200039D01*
X90682572Y-127184800D01*
X90681182Y-127183595D01*
X90673499Y-127181924D01*
X89651162Y-127181924D01*
X89635923Y-127186399D01*
X89634718Y-127187789D01*
X89633047Y-127195472D01*
X89633047Y-127682289D01*
X82549047Y-127682289D01*
X82549047Y-127200039D01*
X82544572Y-127184800D01*
X82543182Y-127183595D01*
X82535499Y-127181924D01*
X81513162Y-127181924D01*
X81497923Y-127186399D01*
X81496718Y-127187789D01*
X81495047Y-127195472D01*
X81495047Y-128895891D01*
X80987047Y-128895891D01*
X80987047Y-127200039D01*
X80982572Y-127184800D01*
X80981182Y-127183595D01*
X80973499Y-127181924D01*
X79951162Y-127181924D01*
X79935923Y-127186399D01*
X79934718Y-127187789D01*
X79933047Y-127195472D01*
X79933047Y-127682289D01*
X64134395Y-127682289D01*
X64133882Y-127649862D01*
X64171316Y-127589537D01*
X64235422Y-127559026D01*
X64255324Y-127557444D01*
X65202298Y-127557444D01*
X65264480Y-127550689D01*
X65400869Y-127499559D01*
X65517425Y-127412205D01*
X65604779Y-127295649D01*
X65655909Y-127159260D01*
X65662664Y-127097078D01*
X65662664Y-126655809D01*
X79933047Y-126655809D01*
X79937522Y-126671048D01*
X79938912Y-126672253D01*
X79946595Y-126673924D01*
X80968932Y-126673924D01*
X80984171Y-126669449D01*
X80985376Y-126668059D01*
X80987047Y-126660376D01*
X80987047Y-126655809D01*
X81495047Y-126655809D01*
X81499522Y-126671048D01*
X81500912Y-126672253D01*
X81508595Y-126673924D01*
X82530932Y-126673924D01*
X82546171Y-126669449D01*
X82547376Y-126668059D01*
X82549047Y-126660376D01*
X82549047Y-126655809D01*
X89633047Y-126655809D01*
X89637522Y-126671048D01*
X89638912Y-126672253D01*
X89646595Y-126673924D01*
X90668932Y-126673924D01*
X90684171Y-126669449D01*
X90685376Y-126668059D01*
X90687047Y-126660376D01*
X90687047Y-124959957D01*
X90683074Y-124946426D01*
X90674525Y-124945197D01*
X90497286Y-124992688D01*
X90486994Y-124996434D01*
X90289536Y-125088510D01*
X90280040Y-125093993D01*
X90101580Y-125218952D01*
X90093172Y-125226008D01*
X89939131Y-125380049D01*
X89932075Y-125388457D01*
X89807116Y-125566917D01*
X89801633Y-125576413D01*
X89709557Y-125773871D01*
X89705811Y-125784163D01*
X89649422Y-125994612D01*
X89647519Y-126005405D01*
X89633285Y-126168094D01*
X89633047Y-126173559D01*
X89633047Y-126655809D01*
X82549047Y-126655809D01*
X82549047Y-126173559D01*
X82548809Y-126168094D01*
X82534575Y-126005405D01*
X82532672Y-125994612D01*
X82476283Y-125784163D01*
X82472537Y-125773871D01*
X82380461Y-125576413D01*
X82374978Y-125566917D01*
X82250019Y-125388457D01*
X82242963Y-125380049D01*
X82088922Y-125226008D01*
X82080514Y-125218952D01*
X81902054Y-125093993D01*
X81892558Y-125088510D01*
X81695100Y-124996434D01*
X81684808Y-124992688D01*
X81512544Y-124946530D01*
X81498448Y-124946866D01*
X81495047Y-124954808D01*
X81495047Y-126655809D01*
X80987047Y-126655809D01*
X80987047Y-124959957D01*
X80983074Y-124946426D01*
X80974525Y-124945197D01*
X80797286Y-124992688D01*
X80786994Y-124996434D01*
X80589536Y-125088510D01*
X80580040Y-125093993D01*
X80401580Y-125218952D01*
X80393172Y-125226008D01*
X80239131Y-125380049D01*
X80232075Y-125388457D01*
X80107116Y-125566917D01*
X80101633Y-125576413D01*
X80009557Y-125773871D01*
X80005811Y-125784163D01*
X79949422Y-125994612D01*
X79947519Y-126005405D01*
X79933285Y-126168094D01*
X79933047Y-126173559D01*
X79933047Y-126655809D01*
X65662664Y-126655809D01*
X65662664Y-125400810D01*
X65655909Y-125338628D01*
X65604779Y-125202239D01*
X65517425Y-125085683D01*
X65400869Y-124998329D01*
X65264480Y-124947199D01*
X65202298Y-124940444D01*
X63506030Y-124940444D01*
X63443848Y-124947199D01*
X63307459Y-124998329D01*
X63190903Y-125085683D01*
X63185523Y-125092862D01*
X63175656Y-125106027D01*
X63118796Y-125148541D01*
X63047977Y-125153565D01*
X63002560Y-125133673D01*
X63000604Y-125132303D01*
X62970781Y-125111421D01*
X62965799Y-125109098D01*
X62965794Y-125109095D01*
X62768257Y-125016983D01*
X62768256Y-125016983D01*
X62763275Y-125014660D01*
X62757967Y-125013238D01*
X62757965Y-125013237D01*
X62547434Y-124956825D01*
X62547432Y-124956825D01*
X62542119Y-124955401D01*
X62314032Y-124935446D01*
X62085945Y-124955401D01*
X62080632Y-124956825D01*
X62080630Y-124956825D01*
X61870099Y-125013237D01*
X61870097Y-125013238D01*
X61864789Y-125014660D01*
X61859808Y-125016983D01*
X61859807Y-125016983D01*
X61662270Y-125109095D01*
X61662265Y-125109098D01*
X61657283Y-125111421D01*
X61552421Y-125184846D01*
X61474243Y-125239587D01*
X61474240Y-125239589D01*
X61469732Y-125242746D01*
X61383188Y-125329290D01*
X61320876Y-125363316D01*
X61250061Y-125358251D01*
X61204998Y-125329290D01*
X61118454Y-125242746D01*
X61113946Y-125239589D01*
X61113943Y-125239587D01*
X61035765Y-125184846D01*
X60930903Y-125111421D01*
X60925921Y-125109098D01*
X60925916Y-125109095D01*
X60728379Y-125016983D01*
X60728378Y-125016983D01*
X60723397Y-125014660D01*
X60718089Y-125013238D01*
X60718087Y-125013237D01*
X60507556Y-124956825D01*
X60507554Y-124956825D01*
X60502241Y-124955401D01*
X60274154Y-124935446D01*
X60046067Y-124955401D01*
X60040754Y-124956825D01*
X60040752Y-124956825D01*
X59830221Y-125013237D01*
X59830219Y-125013238D01*
X59824911Y-125014660D01*
X59819930Y-125016983D01*
X59819929Y-125016983D01*
X59622392Y-125109095D01*
X59622387Y-125109098D01*
X59617405Y-125111421D01*
X59512543Y-125184846D01*
X59434365Y-125239587D01*
X59434362Y-125239589D01*
X59429854Y-125242746D01*
X59267956Y-125404644D01*
X59136631Y-125592195D01*
X59134308Y-125597177D01*
X59134305Y-125597182D01*
X59047115Y-125784163D01*
X59039870Y-125799701D01*
X58980611Y-126020857D01*
X58960656Y-126248944D01*
X58980611Y-126477031D01*
X58982035Y-126482344D01*
X58982035Y-126482346D01*
X59032170Y-126669449D01*
X59039870Y-126698187D01*
X59042193Y-126703168D01*
X59042193Y-126703169D01*
X59134305Y-126900706D01*
X59134308Y-126900711D01*
X59136631Y-126905693D01*
X59267956Y-127093244D01*
X59429854Y-127255142D01*
X59434365Y-127258300D01*
X59438137Y-127261466D01*
X59477461Y-127320577D01*
X59478585Y-127391565D01*
X59441151Y-127451891D01*
X59377046Y-127482403D01*
X59346161Y-127483506D01*
X59259564Y-127475930D01*
X59259563Y-127475930D01*
X59254088Y-127475451D01*
X59026001Y-127495406D01*
X59020688Y-127496830D01*
X59020686Y-127496830D01*
X58810155Y-127553242D01*
X58810153Y-127553243D01*
X58804845Y-127554665D01*
X58799864Y-127556988D01*
X58799863Y-127556988D01*
X58602326Y-127649100D01*
X58602321Y-127649103D01*
X58597339Y-127651426D01*
X58528251Y-127699802D01*
X58414299Y-127779592D01*
X58414296Y-127779594D01*
X58409788Y-127782751D01*
X58247890Y-127944649D01*
X58116565Y-128132200D01*
X58114242Y-128137182D01*
X58114239Y-128137187D01*
X58026916Y-128324454D01*
X58019804Y-128339706D01*
X58018382Y-128345014D01*
X58018381Y-128345016D01*
X57983338Y-128475799D01*
X57960545Y-128560862D01*
X57940590Y-128788949D01*
X54463028Y-128788949D01*
X54463028Y-77242817D01*
X74537514Y-77242817D01*
X74565415Y-77483956D01*
X74631510Y-77717532D01*
X74633644Y-77722108D01*
X74633646Y-77722114D01*
X74731962Y-77932954D01*
X74734099Y-77937536D01*
X74870544Y-78138307D01*
X75037332Y-78314681D01*
X75041358Y-78317759D01*
X75041359Y-78317760D01*
X75226154Y-78459047D01*
X75226158Y-78459050D01*
X75230174Y-78462120D01*
X75234632Y-78464510D01*
X75234633Y-78464511D01*
X75326335Y-78513681D01*
X75444109Y-78576831D01*
X75673631Y-78655862D01*
X75772978Y-78673022D01*
X75908926Y-78696504D01*
X75908932Y-78696505D01*
X75912836Y-78697179D01*
X75916797Y-78697359D01*
X75916798Y-78697359D01*
X75940506Y-78698436D01*
X75940525Y-78698436D01*
X75941925Y-78698500D01*
X76215984Y-78698500D01*
X76219502Y-78698549D01*
X76314150Y-78701193D01*
X76314153Y-78701193D01*
X76319205Y-78701334D01*
X76397098Y-78690941D01*
X76403639Y-78690242D01*
X76432332Y-78687933D01*
X76476923Y-78684346D01*
X76476927Y-78684345D01*
X76481965Y-78683940D01*
X76513878Y-78676101D01*
X76527258Y-78673574D01*
X76559820Y-78669229D01*
X76564661Y-78667768D01*
X76564663Y-78667767D01*
X76635029Y-78646522D01*
X76641392Y-78644781D01*
X76717706Y-78626037D01*
X76747952Y-78613199D01*
X76760763Y-78608561D01*
X76787362Y-78600530D01*
X76792208Y-78599067D01*
X76796756Y-78596849D01*
X76796763Y-78596846D01*
X76862818Y-78564629D01*
X76868820Y-78561893D01*
X76913504Y-78542925D01*
X76941156Y-78531188D01*
X76968956Y-78513681D01*
X76980860Y-78507055D01*
X77010388Y-78492654D01*
X77074600Y-78447357D01*
X77080086Y-78443699D01*
X77142286Y-78404529D01*
X77142287Y-78404528D01*
X77146567Y-78401833D01*
X77150356Y-78398492D01*
X77150362Y-78398488D01*
X77171217Y-78380102D01*
X77181912Y-78371656D01*
X77184863Y-78369574D01*
X77208747Y-78352726D01*
X77230250Y-78333091D01*
X77269966Y-78293375D01*
X77275736Y-78287956D01*
X77324858Y-78244650D01*
X77324861Y-78244647D01*
X77328655Y-78241302D01*
X77355179Y-78209011D01*
X77363449Y-78199892D01*
X87589666Y-67973675D01*
X87592188Y-67971221D01*
X87661012Y-67906138D01*
X87661014Y-67906135D01*
X87664681Y-67902668D01*
X87712411Y-67840239D01*
X87716552Y-67835108D01*
X87764191Y-67779133D01*
X87764192Y-67779132D01*
X87767470Y-67775280D01*
X87770089Y-67770955D01*
X87770093Y-67770950D01*
X87784491Y-67747176D01*
X87792163Y-67735929D01*
X87812120Y-67709826D01*
X87849243Y-67640592D01*
X87852507Y-67634868D01*
X87890602Y-67571966D01*
X87893221Y-67567642D01*
X87905528Y-67537181D01*
X87911308Y-67524841D01*
X87924440Y-67500350D01*
X87926831Y-67495891D01*
X87952412Y-67421599D01*
X87954722Y-67415421D01*
X87982258Y-67347266D01*
X87984155Y-67342571D01*
X87991432Y-67310539D01*
X87995163Y-67297441D01*
X88005862Y-67266369D01*
X88019243Y-67188900D01*
X88020526Y-67182482D01*
X88036815Y-67110786D01*
X88036815Y-67110785D01*
X88037935Y-67105856D01*
X88039999Y-67073047D01*
X88041585Y-67059547D01*
X88047179Y-67027164D01*
X88048500Y-66998075D01*
X88048500Y-66941892D01*
X88048749Y-66933980D01*
X88052860Y-66868641D01*
X88053178Y-66863587D01*
X88049101Y-66822008D01*
X88048500Y-66809712D01*
X88048500Y-53874016D01*
X88048549Y-53870498D01*
X88051193Y-53775850D01*
X88051193Y-53775847D01*
X88051334Y-53770795D01*
X88040941Y-53692902D01*
X88040241Y-53686353D01*
X88034346Y-53613077D01*
X88034345Y-53613073D01*
X88033940Y-53608035D01*
X88026101Y-53576122D01*
X88023573Y-53562738D01*
X88019898Y-53535194D01*
X88019229Y-53530180D01*
X87996522Y-53454971D01*
X87994781Y-53448608D01*
X87977244Y-53377209D01*
X87976037Y-53372294D01*
X87963199Y-53342048D01*
X87958561Y-53329237D01*
X87950530Y-53302638D01*
X87949067Y-53297792D01*
X87946849Y-53293244D01*
X87946846Y-53293237D01*
X87914629Y-53227182D01*
X87911893Y-53221180D01*
X87883162Y-53153495D01*
X87881188Y-53148844D01*
X87863681Y-53121044D01*
X87857052Y-53109134D01*
X87842654Y-53079612D01*
X87797357Y-53015400D01*
X87793699Y-53009914D01*
X87754529Y-52947714D01*
X87754528Y-52947713D01*
X87751833Y-52943433D01*
X87748492Y-52939644D01*
X87748488Y-52939638D01*
X87730102Y-52918783D01*
X87721656Y-52908088D01*
X87705009Y-52884490D01*
X87702726Y-52881253D01*
X87683091Y-52859750D01*
X87643375Y-52820034D01*
X87637956Y-52814264D01*
X87594650Y-52765142D01*
X87594647Y-52765139D01*
X87591302Y-52761345D01*
X87559011Y-52734821D01*
X87549892Y-52726551D01*
X83283675Y-48460334D01*
X83281221Y-48457812D01*
X83216138Y-48388988D01*
X83216135Y-48388986D01*
X83212668Y-48385319D01*
X83150239Y-48337589D01*
X83145108Y-48333448D01*
X83089133Y-48285809D01*
X83089132Y-48285808D01*
X83085280Y-48282530D01*
X83080955Y-48279911D01*
X83080950Y-48279907D01*
X83057176Y-48265509D01*
X83045929Y-48257837D01*
X83019826Y-48237880D01*
X82950592Y-48200757D01*
X82944868Y-48197493D01*
X82877642Y-48156779D01*
X82847181Y-48144472D01*
X82834841Y-48138692D01*
X82810350Y-48125560D01*
X82810351Y-48125560D01*
X82805891Y-48123169D01*
X82801110Y-48121523D01*
X82801106Y-48121521D01*
X82731599Y-48097588D01*
X82725421Y-48095278D01*
X82657266Y-48067742D01*
X82657267Y-48067742D01*
X82652571Y-48065845D01*
X82620539Y-48058568D01*
X82607441Y-48054837D01*
X82576369Y-48044138D01*
X82498900Y-48030757D01*
X82492496Y-48029477D01*
X82415856Y-48012065D01*
X82383047Y-48010001D01*
X82369547Y-48008415D01*
X82337164Y-48002821D01*
X82333207Y-48002641D01*
X82333204Y-48002641D01*
X82309494Y-48001564D01*
X82309475Y-48001564D01*
X82308075Y-48001500D01*
X82251892Y-48001500D01*
X82243980Y-48001251D01*
X82238386Y-48000899D01*
X82173587Y-47996822D01*
X82134545Y-48000650D01*
X82132008Y-48000899D01*
X82119712Y-48001500D01*
X80058999Y-48001500D01*
X80056491Y-48001702D01*
X80056486Y-48001702D01*
X79883076Y-48015654D01*
X79883071Y-48015655D01*
X79878035Y-48016060D01*
X79873127Y-48017266D01*
X79873124Y-48017266D01*
X79647208Y-48072756D01*
X79642294Y-48073963D01*
X79637642Y-48075938D01*
X79637638Y-48075939D01*
X79586637Y-48097588D01*
X79418844Y-48168812D01*
X79368110Y-48200761D01*
X79217712Y-48295472D01*
X79217709Y-48295474D01*
X79213433Y-48298167D01*
X79168714Y-48337592D01*
X79035142Y-48455350D01*
X79035139Y-48455353D01*
X79031345Y-48458698D01*
X78877266Y-48646278D01*
X78755159Y-48856078D01*
X78668167Y-49082702D01*
X78618526Y-49320320D01*
X78607514Y-49562817D01*
X78635415Y-49803956D01*
X78636791Y-49808820D01*
X78636792Y-49808823D01*
X78681808Y-49967907D01*
X78701510Y-50037532D01*
X78703644Y-50042108D01*
X78703646Y-50042114D01*
X78801962Y-50252954D01*
X78804099Y-50257536D01*
X78940544Y-50458307D01*
X79107332Y-50634681D01*
X79111358Y-50637759D01*
X79111359Y-50637760D01*
X79296154Y-50779047D01*
X79296158Y-50779050D01*
X79300174Y-50782120D01*
X79514109Y-50896831D01*
X79743631Y-50975862D01*
X79825767Y-50990049D01*
X79978926Y-51016504D01*
X79978932Y-51016505D01*
X79982836Y-51017179D01*
X79986797Y-51017359D01*
X79986798Y-51017359D01*
X80010506Y-51018436D01*
X80010525Y-51018436D01*
X80011925Y-51018500D01*
X81522969Y-51018500D01*
X81591090Y-51038502D01*
X81612064Y-51055405D01*
X84994595Y-54437936D01*
X85028621Y-54500248D01*
X85031500Y-54527031D01*
X85031500Y-66212969D01*
X85011498Y-66281090D01*
X84994595Y-66302064D01*
X75538186Y-75758473D01*
X75498323Y-75785362D01*
X75348844Y-75848812D01*
X75344560Y-75851510D01*
X75147712Y-75975472D01*
X75147709Y-75975474D01*
X75143433Y-75978167D01*
X75139639Y-75981512D01*
X74965142Y-76135350D01*
X74965139Y-76135353D01*
X74961345Y-76138698D01*
X74807266Y-76326278D01*
X74685159Y-76536078D01*
X74683346Y-76540801D01*
X74605422Y-76743803D01*
X74598167Y-76762702D01*
X74597133Y-76767652D01*
X74597132Y-76767655D01*
X74578154Y-76858500D01*
X74548526Y-77000320D01*
X74537514Y-77242817D01*
X54463028Y-77242817D01*
X54463028Y-59841325D01*
X65729192Y-59841325D01*
X65746723Y-60019324D01*
X65798644Y-60190483D01*
X65882959Y-60348224D01*
X65968214Y-60452108D01*
X65973433Y-60458930D01*
X65987081Y-60478099D01*
X65995839Y-60487073D01*
X66018153Y-60503796D01*
X66031677Y-60515523D01*
X73315815Y-67799661D01*
X73329358Y-67815671D01*
X73340988Y-67832006D01*
X73349747Y-67840981D01*
X73353639Y-67843897D01*
X73353646Y-67843904D01*
X73362557Y-67850582D01*
X73366928Y-67854010D01*
X73488596Y-67953861D01*
X73494054Y-67956779D01*
X73494055Y-67956779D01*
X73640879Y-68035259D01*
X73640882Y-68035260D01*
X73646337Y-68038176D01*
X73817496Y-68090097D01*
X73995495Y-68107628D01*
X74173494Y-68090097D01*
X74344653Y-68038176D01*
X74350108Y-68035260D01*
X74350111Y-68035259D01*
X74496931Y-67956781D01*
X74502394Y-67953861D01*
X74606278Y-67868606D01*
X74613100Y-67863387D01*
X74632269Y-67849739D01*
X74641243Y-67840981D01*
X74657966Y-67818667D01*
X74669693Y-67805143D01*
X81953831Y-60521005D01*
X81969841Y-60507462D01*
X81986176Y-60495832D01*
X81995151Y-60487073D01*
X81998067Y-60483181D01*
X81998074Y-60483174D01*
X82004752Y-60474263D01*
X82008180Y-60469892D01*
X82104104Y-60353009D01*
X82108031Y-60348224D01*
X82192346Y-60190483D01*
X82244267Y-60019324D01*
X82261798Y-59841325D01*
X82244267Y-59663326D01*
X82192346Y-59492167D01*
X82108031Y-59334426D01*
X82022776Y-59230542D01*
X82017557Y-59223720D01*
X82003909Y-59204551D01*
X81995151Y-59195577D01*
X81972837Y-59178854D01*
X81959313Y-59167127D01*
X74675175Y-51882989D01*
X74661632Y-51866979D01*
X74650002Y-51850644D01*
X74641243Y-51841669D01*
X74637351Y-51838753D01*
X74637344Y-51838746D01*
X74628433Y-51832068D01*
X74624062Y-51828640D01*
X74507179Y-51732716D01*
X74502394Y-51728789D01*
X74496931Y-51725869D01*
X74350111Y-51647391D01*
X74350108Y-51647390D01*
X74344653Y-51644474D01*
X74173494Y-51592553D01*
X73995495Y-51575022D01*
X73817496Y-51592553D01*
X73646337Y-51644474D01*
X73640882Y-51647390D01*
X73640879Y-51647391D01*
X73513226Y-51715624D01*
X73488596Y-51728789D01*
X73384712Y-51814044D01*
X73377890Y-51819263D01*
X73358721Y-51832911D01*
X73349747Y-51841669D01*
X73333024Y-51863983D01*
X73321297Y-51877507D01*
X66037159Y-59161645D01*
X66021149Y-59175188D01*
X66004814Y-59186818D01*
X65995839Y-59195577D01*
X65992923Y-59199469D01*
X65992916Y-59199476D01*
X65986238Y-59208387D01*
X65982810Y-59212758D01*
X65882959Y-59334426D01*
X65798644Y-59492167D01*
X65746723Y-59663326D01*
X65729192Y-59841325D01*
X54463028Y-59841325D01*
X54463028Y-51040621D01*
X54464774Y-51019717D01*
X54467292Y-51004749D01*
X54468099Y-50999953D01*
X54468252Y-50987414D01*
X54466076Y-50972218D01*
X54464955Y-50948177D01*
X54479539Y-50651320D01*
X54480751Y-50639015D01*
X54481940Y-50631001D01*
X54529219Y-50312275D01*
X54531629Y-50300157D01*
X54541258Y-50261718D01*
X54611890Y-49979738D01*
X54615479Y-49967907D01*
X54726753Y-49656920D01*
X54731484Y-49645496D01*
X54872713Y-49346891D01*
X54878542Y-49335986D01*
X54890900Y-49315369D01*
X55048356Y-49052669D01*
X55055226Y-49042388D01*
X55251988Y-48777085D01*
X55259832Y-48767527D01*
X55481654Y-48522784D01*
X55490398Y-48514040D01*
X55735141Y-48292218D01*
X55744699Y-48284374D01*
X56010002Y-48087612D01*
X56020283Y-48080742D01*
X56303600Y-47910928D01*
X56314505Y-47905099D01*
X56613110Y-47763870D01*
X56624534Y-47759139D01*
X56935521Y-47647865D01*
X56947354Y-47644275D01*
X57267779Y-47564013D01*
X57279889Y-47561605D01*
X57606634Y-47513136D01*
X57618930Y-47511925D01*
X57707684Y-47507565D01*
X57912090Y-47497524D01*
X57937652Y-47498871D01*
X57939885Y-47499219D01*
X57939889Y-47499219D01*
X57948758Y-47500600D01*
X57957660Y-47499436D01*
X57957663Y-47499436D01*
X57977819Y-47496800D01*
X57980280Y-47496478D01*
X57996617Y-47495414D01*
X88237205Y-47495414D01*
X88256590Y-47496914D01*
G37*
%TD.AperFunction*%
%TA.AperFunction,Conductor*%
G36*
X79065532Y-83640899D02*
G01*
X79122368Y-83683446D01*
X79147179Y-83749966D01*
X79147299Y-83753336D01*
X79146422Y-83760000D01*
X79147500Y-83768188D01*
X79150422Y-83790384D01*
X79151500Y-83806830D01*
X79151500Y-85924427D01*
X79131498Y-85992548D01*
X79077842Y-86039041D01*
X79007568Y-86049145D01*
X78966541Y-86035782D01*
X78880467Y-85990208D01*
X78866390Y-85984805D01*
X78726664Y-85949708D01*
X78711692Y-85947817D01*
X78567628Y-85947063D01*
X78552652Y-85948795D01*
X78519239Y-85956817D01*
X78448331Y-85953270D01*
X78390597Y-85911950D01*
X78364367Y-85845976D01*
X78365082Y-85816545D01*
X78380825Y-85705926D01*
X78381449Y-85697721D01*
X78381508Y-85692084D01*
X78381056Y-85683869D01*
X78363330Y-85537395D01*
X78359734Y-85522752D01*
X78308807Y-85387977D01*
X78301824Y-85374620D01*
X78288610Y-85355394D01*
X78278356Y-85347051D01*
X78264617Y-85354196D01*
X77943662Y-85675151D01*
X77936048Y-85689095D01*
X77936179Y-85690928D01*
X77940430Y-85697543D01*
X78278912Y-86036025D01*
X78278228Y-86036709D01*
X78288505Y-86045090D01*
X78291415Y-86048528D01*
X78759255Y-86516368D01*
X78793281Y-86578680D01*
X78788216Y-86649495D01*
X78759255Y-86694558D01*
X78288419Y-87165394D01*
X78286142Y-87163117D01*
X78275970Y-87173085D01*
X78278349Y-87175464D01*
X77943662Y-87510151D01*
X77936048Y-87524095D01*
X77936179Y-87525928D01*
X77940430Y-87532543D01*
X78278912Y-87871025D01*
X78278228Y-87871709D01*
X78288505Y-87880090D01*
X78291415Y-87883528D01*
X78759255Y-88351368D01*
X78793281Y-88413680D01*
X78788216Y-88484495D01*
X78759255Y-88529558D01*
X78288419Y-89000394D01*
X78286142Y-88998117D01*
X78275970Y-89008085D01*
X78278349Y-89010464D01*
X77383731Y-89905082D01*
X77376971Y-89917462D01*
X77378864Y-89919991D01*
X77403675Y-89986512D01*
X77388583Y-90055886D01*
X77338381Y-90106088D01*
X77277996Y-90121500D01*
X76327900Y-90121500D01*
X76259779Y-90101498D01*
X76213286Y-90047842D01*
X76203182Y-89977568D01*
X76224259Y-89931418D01*
X76227344Y-89919236D01*
X76224566Y-89910943D01*
X75896530Y-89582907D01*
X75882586Y-89575293D01*
X75880753Y-89575424D01*
X75874138Y-89579675D01*
X75548731Y-89905082D01*
X75541971Y-89917462D01*
X75543864Y-89919991D01*
X75568675Y-89986512D01*
X75553583Y-90055886D01*
X75503381Y-90106088D01*
X75442996Y-90121500D01*
X72882909Y-90121500D01*
X72814788Y-90101498D01*
X72768295Y-90047842D01*
X72757599Y-90008671D01*
X72754232Y-89976636D01*
X72754232Y-89976635D01*
X72753542Y-89970072D01*
X72745661Y-89945815D01*
X72705263Y-89821485D01*
X72694527Y-89788444D01*
X72599040Y-89623056D01*
X72471253Y-89481134D01*
X72316752Y-89368882D01*
X72310724Y-89366198D01*
X72310722Y-89366197D01*
X72148319Y-89293891D01*
X72148318Y-89293891D01*
X72142288Y-89291206D01*
X72037187Y-89268866D01*
X71961944Y-89252872D01*
X71961939Y-89252872D01*
X71955487Y-89251500D01*
X71764513Y-89251500D01*
X71758061Y-89252872D01*
X71758056Y-89252872D01*
X71577712Y-89291206D01*
X71577193Y-89288765D01*
X71517484Y-89290479D01*
X71456682Y-89253824D01*
X71425348Y-89190116D01*
X71423500Y-89168614D01*
X71423500Y-88999962D01*
X74624471Y-88999962D01*
X74629160Y-89006226D01*
X74715536Y-89053125D01*
X74729562Y-89058678D01*
X74868911Y-89095235D01*
X74883862Y-89097282D01*
X75027905Y-89099546D01*
X75042909Y-89097969D01*
X75084092Y-89088537D01*
X75154959Y-89092827D01*
X75212257Y-89134749D01*
X75237794Y-89200994D01*
X75237143Y-89227803D01*
X75221912Y-89343491D01*
X75221755Y-89358572D01*
X75237564Y-89501768D01*
X75241010Y-89516457D01*
X75290517Y-89651746D01*
X75297367Y-89665189D01*
X75314188Y-89690222D01*
X75324172Y-89698521D01*
X75338263Y-89691286D01*
X75658774Y-89370775D01*
X75665152Y-89359095D01*
X76101048Y-89359095D01*
X76101179Y-89360928D01*
X76105430Y-89367543D01*
X76431100Y-89693213D01*
X76443110Y-89699771D01*
X76454851Y-89690801D01*
X76460131Y-89683453D01*
X76467396Y-89670238D01*
X76521131Y-89536570D01*
X76525037Y-89521991D01*
X76545825Y-89375925D01*
X76546449Y-89367721D01*
X76546508Y-89362084D01*
X76546056Y-89353869D01*
X76530829Y-89228045D01*
X76542502Y-89158015D01*
X76590183Y-89105413D01*
X76658734Y-89086940D01*
X76687887Y-89091032D01*
X76703906Y-89095234D01*
X76718862Y-89097282D01*
X76862905Y-89099546D01*
X76877909Y-89097969D01*
X76919092Y-89088537D01*
X76989959Y-89092827D01*
X77047257Y-89134749D01*
X77072794Y-89200994D01*
X77072143Y-89227803D01*
X77056912Y-89343491D01*
X77056755Y-89358572D01*
X77072564Y-89501768D01*
X77076010Y-89516457D01*
X77125517Y-89651746D01*
X77132367Y-89665189D01*
X77149188Y-89690222D01*
X77159172Y-89698521D01*
X77173263Y-89691286D01*
X77493774Y-89370775D01*
X77501388Y-89356831D01*
X77501257Y-89354998D01*
X77497006Y-89348383D01*
X77158831Y-89010208D01*
X77159563Y-89009476D01*
X77148728Y-89000591D01*
X77146224Y-88997601D01*
X76814030Y-88665407D01*
X76800086Y-88657793D01*
X76798253Y-88657924D01*
X76791638Y-88662175D01*
X76453419Y-89000394D01*
X76451142Y-88998117D01*
X76440970Y-89008085D01*
X76443349Y-89010464D01*
X76108662Y-89345151D01*
X76101048Y-89359095D01*
X75665152Y-89359095D01*
X75666388Y-89356831D01*
X75666257Y-89354998D01*
X75662006Y-89348383D01*
X75323831Y-89010208D01*
X75324563Y-89009476D01*
X75313728Y-89000591D01*
X75311224Y-88997601D01*
X74979030Y-88665407D01*
X74965086Y-88657793D01*
X74963253Y-88657924D01*
X74956638Y-88662175D01*
X74631231Y-88987582D01*
X74624471Y-88999962D01*
X71423500Y-88999962D01*
X71423500Y-88441072D01*
X74304255Y-88441072D01*
X74320064Y-88584268D01*
X74323510Y-88598957D01*
X74373017Y-88734246D01*
X74379867Y-88747689D01*
X74396688Y-88772722D01*
X74406672Y-88781021D01*
X74420763Y-88773786D01*
X74741274Y-88453275D01*
X74747652Y-88441595D01*
X75183548Y-88441595D01*
X75183679Y-88443428D01*
X75187930Y-88450043D01*
X75526412Y-88788525D01*
X75525728Y-88789209D01*
X75536005Y-88797590D01*
X75538915Y-88801028D01*
X75870906Y-89133019D01*
X75884850Y-89140633D01*
X75886683Y-89140502D01*
X75893298Y-89136251D01*
X76231842Y-88797707D01*
X76234178Y-88800043D01*
X76244253Y-88790220D01*
X76241791Y-88787758D01*
X76576274Y-88453275D01*
X76582652Y-88441595D01*
X77018548Y-88441595D01*
X77018679Y-88443428D01*
X77022930Y-88450043D01*
X77361412Y-88788525D01*
X77360728Y-88789209D01*
X77371005Y-88797590D01*
X77373915Y-88801028D01*
X77705906Y-89133019D01*
X77719850Y-89140633D01*
X77721683Y-89140502D01*
X77728298Y-89136251D01*
X78066842Y-88797707D01*
X78069178Y-88800043D01*
X78079253Y-88790220D01*
X78076791Y-88787758D01*
X78411274Y-88453275D01*
X78418888Y-88439331D01*
X78418757Y-88437498D01*
X78414506Y-88430883D01*
X78076331Y-88092708D01*
X78077063Y-88091976D01*
X78066228Y-88083091D01*
X78063724Y-88080101D01*
X77731530Y-87747907D01*
X77717586Y-87740293D01*
X77715753Y-87740424D01*
X77709138Y-87744675D01*
X77370919Y-88082894D01*
X77368642Y-88080617D01*
X77358470Y-88090585D01*
X77360849Y-88092964D01*
X77026162Y-88427651D01*
X77018548Y-88441595D01*
X76582652Y-88441595D01*
X76583888Y-88439331D01*
X76583757Y-88437498D01*
X76579506Y-88430883D01*
X76241331Y-88092708D01*
X76242063Y-88091976D01*
X76231228Y-88083091D01*
X76228724Y-88080101D01*
X75896530Y-87747907D01*
X75882586Y-87740293D01*
X75880753Y-87740424D01*
X75874138Y-87744675D01*
X75535919Y-88082894D01*
X75533642Y-88080617D01*
X75523470Y-88090585D01*
X75525849Y-88092964D01*
X75191162Y-88427651D01*
X75183548Y-88441595D01*
X74747652Y-88441595D01*
X74748888Y-88439331D01*
X74748757Y-88437498D01*
X74744506Y-88430883D01*
X74419143Y-88105520D01*
X74407334Y-88099071D01*
X74395360Y-88108319D01*
X74386430Y-88121025D01*
X74379301Y-88134319D01*
X74326969Y-88268543D01*
X74323217Y-88283157D01*
X74304412Y-88425991D01*
X74304255Y-88441072D01*
X71423500Y-88441072D01*
X71423500Y-87881255D01*
X74623611Y-87881255D01*
X74625982Y-87888095D01*
X74953406Y-88215519D01*
X74967350Y-88223133D01*
X74969183Y-88223002D01*
X74975798Y-88218751D01*
X75314342Y-87880207D01*
X75316678Y-87882543D01*
X75326753Y-87872720D01*
X75324291Y-87870258D01*
X75658774Y-87535775D01*
X75665152Y-87524095D01*
X76101048Y-87524095D01*
X76101179Y-87525928D01*
X76105430Y-87532543D01*
X76443912Y-87871025D01*
X76443228Y-87871709D01*
X76453505Y-87880090D01*
X76456415Y-87883528D01*
X76788406Y-88215519D01*
X76802350Y-88223133D01*
X76804183Y-88223002D01*
X76810798Y-88218751D01*
X77149342Y-87880207D01*
X77151678Y-87882543D01*
X77161753Y-87872720D01*
X77159291Y-87870258D01*
X77493774Y-87535775D01*
X77501388Y-87521831D01*
X77501257Y-87519998D01*
X77497006Y-87513383D01*
X77158831Y-87175208D01*
X77159563Y-87174476D01*
X77148728Y-87165591D01*
X77146224Y-87162601D01*
X76814030Y-86830407D01*
X76800086Y-86822793D01*
X76798253Y-86822924D01*
X76791638Y-86827175D01*
X76453419Y-87165394D01*
X76451142Y-87163117D01*
X76440970Y-87173085D01*
X76443349Y-87175464D01*
X76108662Y-87510151D01*
X76101048Y-87524095D01*
X75665152Y-87524095D01*
X75666388Y-87521831D01*
X75666257Y-87519998D01*
X75662006Y-87513383D01*
X75323831Y-87175208D01*
X75324563Y-87174476D01*
X75313728Y-87165591D01*
X75311224Y-87162601D01*
X74979030Y-86830407D01*
X74965086Y-86822793D01*
X74963253Y-86822924D01*
X74956638Y-86827175D01*
X74631231Y-87152582D01*
X74624471Y-87164962D01*
X74629160Y-87171226D01*
X74715536Y-87218125D01*
X74729562Y-87223678D01*
X74868911Y-87260235D01*
X74883862Y-87262282D01*
X75027905Y-87264546D01*
X75042909Y-87262969D01*
X75084092Y-87253537D01*
X75154959Y-87257827D01*
X75212257Y-87299749D01*
X75237794Y-87365994D01*
X75237143Y-87392803D01*
X75221912Y-87508491D01*
X75221755Y-87523572D01*
X75236222Y-87654611D01*
X75223816Y-87724515D01*
X75175587Y-87776615D01*
X75106846Y-87794370D01*
X75080289Y-87790642D01*
X75056667Y-87784709D01*
X75041692Y-87782817D01*
X74897628Y-87782063D01*
X74882652Y-87783795D01*
X74742553Y-87817430D01*
X74728429Y-87822683D01*
X74633813Y-87871518D01*
X74623611Y-87881255D01*
X71423500Y-87881255D01*
X71423500Y-86606072D01*
X74304255Y-86606072D01*
X74320064Y-86749268D01*
X74323510Y-86763957D01*
X74373017Y-86899246D01*
X74379867Y-86912689D01*
X74396688Y-86937722D01*
X74406672Y-86946021D01*
X74420763Y-86938786D01*
X74741274Y-86618275D01*
X74747652Y-86606595D01*
X75183548Y-86606595D01*
X75183679Y-86608428D01*
X75187930Y-86615043D01*
X75526412Y-86953525D01*
X75525728Y-86954209D01*
X75536005Y-86962590D01*
X75538915Y-86966028D01*
X75870906Y-87298019D01*
X75884850Y-87305633D01*
X75886683Y-87305502D01*
X75893298Y-87301251D01*
X76231842Y-86962707D01*
X76234178Y-86965043D01*
X76244253Y-86955220D01*
X76241791Y-86952758D01*
X76576274Y-86618275D01*
X76582652Y-86606595D01*
X77018548Y-86606595D01*
X77018679Y-86608428D01*
X77022930Y-86615043D01*
X77361412Y-86953525D01*
X77360728Y-86954209D01*
X77371005Y-86962590D01*
X77373915Y-86966028D01*
X77705906Y-87298019D01*
X77719850Y-87305633D01*
X77721683Y-87305502D01*
X77728298Y-87301251D01*
X78066842Y-86962707D01*
X78069178Y-86965043D01*
X78079253Y-86955220D01*
X78076791Y-86952758D01*
X78411274Y-86618275D01*
X78418888Y-86604331D01*
X78418757Y-86602498D01*
X78414506Y-86595883D01*
X78076331Y-86257708D01*
X78077063Y-86256976D01*
X78066228Y-86248091D01*
X78063724Y-86245101D01*
X77731530Y-85912907D01*
X77717586Y-85905293D01*
X77715753Y-85905424D01*
X77709138Y-85909675D01*
X77370919Y-86247894D01*
X77368642Y-86245617D01*
X77358470Y-86255585D01*
X77360849Y-86257964D01*
X77026162Y-86592651D01*
X77018548Y-86606595D01*
X76582652Y-86606595D01*
X76583888Y-86604331D01*
X76583757Y-86602498D01*
X76579506Y-86595883D01*
X76241331Y-86257708D01*
X76242063Y-86256976D01*
X76231228Y-86248091D01*
X76228724Y-86245101D01*
X75896530Y-85912907D01*
X75882586Y-85905293D01*
X75880753Y-85905424D01*
X75874138Y-85909675D01*
X75535919Y-86247894D01*
X75533642Y-86245617D01*
X75523470Y-86255585D01*
X75525849Y-86257964D01*
X75191162Y-86592651D01*
X75183548Y-86606595D01*
X74747652Y-86606595D01*
X74748888Y-86604331D01*
X74748757Y-86602498D01*
X74744506Y-86595883D01*
X74419143Y-86270520D01*
X74407334Y-86264071D01*
X74395360Y-86273319D01*
X74386430Y-86286025D01*
X74379301Y-86299319D01*
X74326969Y-86433543D01*
X74323217Y-86448157D01*
X74304412Y-86590991D01*
X74304255Y-86606072D01*
X71423500Y-86606072D01*
X71423500Y-86046255D01*
X74623611Y-86046255D01*
X74625982Y-86053095D01*
X74953406Y-86380519D01*
X74967350Y-86388133D01*
X74969183Y-86388002D01*
X74975798Y-86383751D01*
X75314342Y-86045207D01*
X75316678Y-86047543D01*
X75326753Y-86037720D01*
X75324291Y-86035258D01*
X75658774Y-85700775D01*
X75665152Y-85689095D01*
X76101048Y-85689095D01*
X76101179Y-85690928D01*
X76105430Y-85697543D01*
X76443912Y-86036025D01*
X76443228Y-86036709D01*
X76453505Y-86045090D01*
X76456415Y-86048528D01*
X76788406Y-86380519D01*
X76802350Y-86388133D01*
X76804183Y-86388002D01*
X76810798Y-86383751D01*
X77149342Y-86045207D01*
X77151678Y-86047543D01*
X77161753Y-86037720D01*
X77159291Y-86035258D01*
X77493774Y-85700775D01*
X77501388Y-85686831D01*
X77501257Y-85684998D01*
X77497006Y-85678383D01*
X77171643Y-85353020D01*
X77159834Y-85346571D01*
X77147860Y-85355819D01*
X77138930Y-85368525D01*
X77131801Y-85381819D01*
X77079469Y-85516043D01*
X77075717Y-85530657D01*
X77056912Y-85673491D01*
X77056755Y-85688572D01*
X77071222Y-85819611D01*
X77058816Y-85889515D01*
X77010587Y-85941615D01*
X76941846Y-85959370D01*
X76915289Y-85955642D01*
X76891667Y-85949709D01*
X76876692Y-85947817D01*
X76732628Y-85947063D01*
X76717652Y-85948795D01*
X76684239Y-85956817D01*
X76613331Y-85953270D01*
X76555597Y-85911950D01*
X76529367Y-85845976D01*
X76530082Y-85816545D01*
X76545825Y-85705926D01*
X76546449Y-85697721D01*
X76546508Y-85692084D01*
X76546056Y-85683869D01*
X76528330Y-85537395D01*
X76524734Y-85522752D01*
X76473807Y-85387977D01*
X76466824Y-85374620D01*
X76453610Y-85355394D01*
X76443356Y-85347051D01*
X76429617Y-85354196D01*
X76108662Y-85675151D01*
X76101048Y-85689095D01*
X75665152Y-85689095D01*
X75666388Y-85686831D01*
X75666257Y-85684998D01*
X75662006Y-85678383D01*
X75336643Y-85353020D01*
X75324834Y-85346571D01*
X75312860Y-85355819D01*
X75303930Y-85368525D01*
X75296801Y-85381819D01*
X75244469Y-85516043D01*
X75240717Y-85530657D01*
X75221912Y-85673491D01*
X75221755Y-85688572D01*
X75236222Y-85819611D01*
X75223816Y-85889515D01*
X75175587Y-85941615D01*
X75106846Y-85959370D01*
X75080289Y-85955642D01*
X75056667Y-85949709D01*
X75041692Y-85947817D01*
X74897628Y-85947063D01*
X74882652Y-85948795D01*
X74742553Y-85982430D01*
X74728429Y-85987683D01*
X74633813Y-86036518D01*
X74623611Y-86046255D01*
X71423500Y-86046255D01*
X71423500Y-85105628D01*
X71436974Y-85056378D01*
X71434125Y-85055145D01*
X71451685Y-85014566D01*
X71456902Y-85003916D01*
X71478206Y-84965163D01*
X71483244Y-84945540D01*
X71489648Y-84926837D01*
X71494544Y-84915523D01*
X71494544Y-84915522D01*
X71497692Y-84908248D01*
X71498931Y-84900425D01*
X71498934Y-84900415D01*
X71504610Y-84864579D01*
X71507016Y-84852959D01*
X71516039Y-84817814D01*
X71516039Y-84817813D01*
X71518011Y-84810133D01*
X71518011Y-84789879D01*
X71519562Y-84770168D01*
X71521173Y-84760000D01*
X71522731Y-84750160D01*
X71518570Y-84706141D01*
X71518011Y-84694284D01*
X71518011Y-84419500D01*
X71538013Y-84351379D01*
X71591669Y-84304886D01*
X71644011Y-84293500D01*
X71942898Y-84293500D01*
X72011019Y-84313502D01*
X72057512Y-84367158D01*
X72067616Y-84437432D01*
X72062731Y-84458436D01*
X72026458Y-84570072D01*
X72006496Y-84760000D01*
X72007186Y-84766565D01*
X72025322Y-84939116D01*
X72026458Y-84949928D01*
X72085473Y-85131556D01*
X72180960Y-85296944D01*
X72185378Y-85301851D01*
X72185379Y-85301852D01*
X72262926Y-85387977D01*
X72308747Y-85438866D01*
X72363129Y-85478377D01*
X72451691Y-85542721D01*
X72463248Y-85551118D01*
X72469276Y-85553802D01*
X72469278Y-85553803D01*
X72471358Y-85554729D01*
X72637712Y-85628794D01*
X72731113Y-85648647D01*
X72818056Y-85667128D01*
X72818061Y-85667128D01*
X72824513Y-85668500D01*
X73015487Y-85668500D01*
X73021939Y-85667128D01*
X73021944Y-85667128D01*
X73108887Y-85648647D01*
X73202288Y-85628794D01*
X73368642Y-85554729D01*
X73370722Y-85553803D01*
X73370724Y-85553802D01*
X73376752Y-85551118D01*
X73388310Y-85542721D01*
X73476871Y-85478377D01*
X73531253Y-85438866D01*
X73577074Y-85387977D01*
X73654621Y-85301852D01*
X73654622Y-85301851D01*
X73659040Y-85296944D01*
X73754527Y-85131556D01*
X73756935Y-85124147D01*
X73779219Y-85055563D01*
X73819293Y-84996958D01*
X73884690Y-84969321D01*
X73899052Y-84968500D01*
X75418773Y-84968500D01*
X75486894Y-84988502D01*
X75533387Y-85042158D01*
X75543491Y-85112432D01*
X75541235Y-85124147D01*
X75540527Y-85127071D01*
X75543482Y-85135595D01*
X75870906Y-85463019D01*
X75884850Y-85470633D01*
X75886683Y-85470502D01*
X75893298Y-85466251D01*
X76219030Y-85140519D01*
X76226644Y-85126575D01*
X76224993Y-85103490D01*
X76240084Y-85034115D01*
X76290286Y-84983913D01*
X76350672Y-84968500D01*
X77253773Y-84968500D01*
X77321894Y-84988502D01*
X77368387Y-85042158D01*
X77378491Y-85112432D01*
X77376235Y-85124147D01*
X77375527Y-85127071D01*
X77378482Y-85135595D01*
X77705906Y-85463019D01*
X77719850Y-85470633D01*
X77721683Y-85470502D01*
X77728298Y-85466251D01*
X78054030Y-85140519D01*
X78060790Y-85128139D01*
X78056280Y-85122115D01*
X77962967Y-85072708D01*
X77948890Y-85067305D01*
X77834116Y-85038476D01*
X77772920Y-85002482D01*
X77740899Y-84939116D01*
X77748219Y-84868498D01*
X77788106Y-84816311D01*
X77803171Y-84804751D01*
X77803173Y-84804749D01*
X77809723Y-84799723D01*
X77828380Y-84775409D01*
X77839247Y-84763018D01*
X78932405Y-83669860D01*
X78994717Y-83635834D01*
X79065532Y-83640899D01*
G37*
%TD.AperFunction*%
%TD*%
M02*
