M48
; DRILL file {KiCad (6.0.0-0)} date 2022 February 21, Monday 19:04:22
; FORMAT={-:-/ absolute / inch / decimal}
; #@! TF.CreationDate,2022-02-21T19:04:22+01:00
; #@! TF.GenerationSoftware,Kicad,Pcbnew,(6.0.0-0)
; #@! TF.FileFunction,Plated,1,2,PTH
FMAT,2
INCH
; #@! TA.AperFunction,Plated,PTH,ComponentDrill
T1C0.0079
; #@! TA.AperFunction,Plated,PTH,ViaDrill
T2C0.0157
; #@! TA.AperFunction,Plated,PTH,ComponentDrill
T3C0.0276
; #@! TA.AperFunction,Plated,PTH,ComponentDrill
T4C0.0276
; #@! TA.AperFunction,Plated,PTH,ComponentDrill
T5C0.0354
; #@! TA.AperFunction,Plated,PTH,ComponentDrill
T6C0.0394
; #@! TA.AperFunction,Plated,PTH,ComponentDrill
T7C0.0472
; #@! TA.AperFunction,Plated,PTH,ComponentDrill
T8C0.0591
; #@! TA.AperFunction,Plated,PTH,ComponentDrill
T9C0.0591
; #@! TA.AperFunction,Plated,PTH,ComponentDrill
T10C0.0709
%
G90
G05
T1
X6.0518Y-3.6009
X6.0518Y-3.6731
X6.0879Y-3.5647
X6.0879Y-3.637
X6.0879Y-3.7092
X6.1241Y-3.6009
X6.1241Y-3.6731
X6.1602Y-3.5647
X6.1602Y-3.637
X6.1602Y-3.7092
X6.1963Y-3.6009
X6.1963Y-3.6731
T2
X5.4222Y-4.6598
X5.424Y-2.253
X5.5102Y-4.6598
X5.584Y-2.969
X5.5992Y-4.6598
X6.109Y-2.069
X6.1878Y-4.8802
X6.259Y-4.933
X6.262Y-4.8802
X6.322Y-2.805
T3
X6.3709Y-5.3105
X6.595Y-5.271
T6
X5.281Y-3.443
X5.281Y-3.543
X5.281Y-3.643
X5.281Y-3.743
X5.281Y-3.843
X5.281Y-3.943
T7
X5.8638Y-5.0172
X6.0638Y-5.0172
T8
X5.5145Y-5.0152
T9
X5.8368Y-5.2801
X5.9868Y-5.2801
X6.1368Y-5.2801
T10
X5.4396Y-5.4398
T4
G00X6.3083Y-5.2796
M15
G01X6.3158Y-5.3222
M16
G05
G00X6.3386Y-5.4514
M15
G01X6.3427Y-5.4746
M16
G05
G00X6.6433Y-5.2205
M15
G01X6.6508Y-5.2632
M16
G05
G00X6.6736Y-5.3923
M15
G01X6.6777Y-5.4156
M16
G05
T5
G00X5.2663Y-5.3233
M15
G01X5.2745Y-5.2767
M16
G05
G00X5.2984Y-5.141
M15
G01X5.3066Y-5.0945
M16
G05
G00X5.4929Y-5.3193
M15
G01X5.4308Y-5.3083
M16
G05
G00X5.6424Y-5.3896
M15
G01X5.6506Y-5.3431
M16
G05
G00X5.6745Y-5.2074
M15
G01X5.6827Y-5.1608
M16
G05
T0
M30
