%TF.GenerationSoftware,KiCad,Pcbnew,(6.0.0-0)*%
%TF.CreationDate,2022-03-31T12:40:58+02:00*%
%TF.ProjectId,GlowTowerPCB,476c6f77-546f-4776-9572-5043422e6b69,rev?*%
%TF.SameCoordinates,Original*%
%TF.FileFunction,Paste,Top*%
%TF.FilePolarity,Positive*%
%FSLAX46Y46*%
G04 Gerber Fmt 4.6, Leading zero omitted, Abs format (unit mm)*
G04 Created by KiCad (PCBNEW (6.0.0-0)) date 2022-03-31 12:40:58*
%MOMM*%
%LPD*%
G01*
G04 APERTURE LIST*
G04 Aperture macros list*
%AMRoundRect*
0 Rectangle with rounded corners*
0 $1 Rounding radius*
0 $2 $3 $4 $5 $6 $7 $8 $9 X,Y pos of 4 corners*
0 Add a 4 corners polygon primitive as box body*
4,1,4,$2,$3,$4,$5,$6,$7,$8,$9,$2,$3,0*
0 Add four circle primitives for the rounded corners*
1,1,$1+$1,$2,$3*
1,1,$1+$1,$4,$5*
1,1,$1+$1,$6,$7*
1,1,$1+$1,$8,$9*
0 Add four rect primitives between the rounded corners*
20,1,$1+$1,$2,$3,$4,$5,0*
20,1,$1+$1,$4,$5,$6,$7,0*
20,1,$1+$1,$6,$7,$8,$9,0*
20,1,$1+$1,$8,$9,$2,$3,0*%
G04 Aperture macros list end*
%ADD10C,0.010000*%
%ADD11C,0.240000*%
%ADD12RoundRect,0.150000X0.150000X-0.587500X0.150000X0.587500X-0.150000X0.587500X-0.150000X-0.587500X0*%
%ADD13RoundRect,0.237500X0.250000X0.237500X-0.250000X0.237500X-0.250000X-0.237500X0.250000X-0.237500X0*%
%ADD14RoundRect,0.150000X0.587500X0.150000X-0.587500X0.150000X-0.587500X-0.150000X0.587500X-0.150000X0*%
%ADD15RoundRect,0.237500X-0.237500X0.250000X-0.237500X-0.250000X0.237500X-0.250000X0.237500X0.250000X0*%
%ADD16RoundRect,0.150000X-0.150000X0.587500X-0.150000X-0.587500X0.150000X-0.587500X0.150000X0.587500X0*%
%ADD17RoundRect,0.250000X0.400000X1.450000X-0.400000X1.450000X-0.400000X-1.450000X0.400000X-1.450000X0*%
%ADD18RoundRect,0.237500X0.300000X0.237500X-0.300000X0.237500X-0.300000X-0.237500X0.300000X-0.237500X0*%
%ADD19R,0.900000X1.500000*%
%ADD20RoundRect,0.237500X0.237500X-0.300000X0.237500X0.300000X-0.237500X0.300000X-0.237500X-0.300000X0*%
%ADD21RoundRect,0.237500X-0.237500X0.300000X-0.237500X-0.300000X0.237500X-0.300000X0.237500X0.300000X0*%
%ADD22RoundRect,0.237500X0.237500X-0.250000X0.237500X0.250000X-0.237500X0.250000X-0.237500X-0.250000X0*%
%ADD23RoundRect,0.237500X-0.300000X-0.237500X0.300000X-0.237500X0.300000X0.237500X-0.300000X0.237500X0*%
%ADD24R,0.300000X1.300000*%
%ADD25R,0.600000X1.300000*%
%ADD26R,0.355600X1.676400*%
%ADD27RoundRect,0.237500X-0.250000X-0.237500X0.250000X-0.237500X0.250000X0.237500X-0.250000X0.237500X0*%
%ADD28R,1.330000X1.330000*%
%ADD29R,0.900000X2.000000*%
%ADD30R,2.000000X0.900000*%
%ADD31R,0.900000X0.250000*%
%ADD32R,0.250000X0.900000*%
%ADD33R,0.900000X0.900000*%
%ADD34RoundRect,0.250000X-0.550000X1.500000X-0.550000X-1.500000X0.550000X-1.500000X0.550000X1.500000X0*%
%ADD35RoundRect,0.250000X1.500000X0.550000X-1.500000X0.550000X-1.500000X-0.550000X1.500000X-0.550000X0*%
%ADD36R,2.000000X3.800000*%
%ADD37R,2.000000X1.500000*%
G04 APERTURE END LIST*
D10*
%TO.C,MK1*%
X61906200Y-89078000D02*
X62406200Y-89078000D01*
X62406200Y-89078000D02*
X62406200Y-89378000D01*
X62406200Y-89378000D02*
X61906200Y-89378000D01*
X61906200Y-89378000D02*
X61906200Y-89078000D01*
G36*
X62406200Y-89378000D02*
G01*
X61906200Y-89378000D01*
X61906200Y-89078000D01*
X62406200Y-89078000D01*
X62406200Y-89378000D01*
G37*
X62406200Y-89378000D02*
X61906200Y-89378000D01*
X61906200Y-89078000D01*
X62406200Y-89078000D01*
X62406200Y-89378000D01*
X61906200Y-89728000D02*
X62406200Y-89728000D01*
X62406200Y-89728000D02*
X62406200Y-90028000D01*
X62406200Y-90028000D02*
X61906200Y-90028000D01*
X61906200Y-90028000D02*
X61906200Y-89728000D01*
G36*
X62406200Y-90028000D02*
G01*
X61906200Y-90028000D01*
X61906200Y-89728000D01*
X62406200Y-89728000D01*
X62406200Y-90028000D01*
G37*
X62406200Y-90028000D02*
X61906200Y-90028000D01*
X61906200Y-89728000D01*
X62406200Y-89728000D01*
X62406200Y-90028000D01*
X61906200Y-88428000D02*
X62406200Y-88428000D01*
X62406200Y-88428000D02*
X62406200Y-88728000D01*
X62406200Y-88728000D02*
X61906200Y-88728000D01*
X61906200Y-88728000D02*
X61906200Y-88428000D01*
G36*
X62406200Y-88728000D02*
G01*
X61906200Y-88728000D01*
X61906200Y-88428000D01*
X62406200Y-88428000D01*
X62406200Y-88728000D01*
G37*
X62406200Y-88728000D02*
X61906200Y-88728000D01*
X61906200Y-88428000D01*
X62406200Y-88428000D01*
X62406200Y-88728000D01*
X64056200Y-89728000D02*
X64556200Y-89728000D01*
X64556200Y-89728000D02*
X64556200Y-90028000D01*
X64556200Y-90028000D02*
X64056200Y-90028000D01*
X64056200Y-90028000D02*
X64056200Y-89728000D01*
G36*
X64556200Y-90028000D02*
G01*
X64056200Y-90028000D01*
X64056200Y-89728000D01*
X64556200Y-89728000D01*
X64556200Y-90028000D01*
G37*
X64556200Y-90028000D02*
X64056200Y-90028000D01*
X64056200Y-89728000D01*
X64556200Y-89728000D01*
X64556200Y-90028000D01*
X64056200Y-89078000D02*
X64556200Y-89078000D01*
X64556200Y-89078000D02*
X64556200Y-89378000D01*
X64556200Y-89378000D02*
X64056200Y-89378000D01*
X64056200Y-89378000D02*
X64056200Y-89078000D01*
G36*
X64556200Y-89378000D02*
G01*
X64056200Y-89378000D01*
X64056200Y-89078000D01*
X64556200Y-89078000D01*
X64556200Y-89378000D01*
G37*
X64556200Y-89378000D02*
X64056200Y-89378000D01*
X64056200Y-89078000D01*
X64556200Y-89078000D01*
X64556200Y-89378000D01*
X64056200Y-88428000D02*
X64556200Y-88428000D01*
X64556200Y-88428000D02*
X64556200Y-88728000D01*
X64556200Y-88728000D02*
X64056200Y-88728000D01*
X64056200Y-88728000D02*
X64056200Y-88428000D01*
G36*
X64556200Y-88728000D02*
G01*
X64056200Y-88728000D01*
X64056200Y-88428000D01*
X64556200Y-88428000D01*
X64556200Y-88728000D01*
G37*
X64556200Y-88728000D02*
X64056200Y-88728000D01*
X64056200Y-88428000D01*
X64556200Y-88428000D01*
X64556200Y-88728000D01*
D11*
X63911200Y-90983000D02*
G75*
G03*
X63401200Y-90473000I-696673J-186673D01*
G01*
X63061200Y-90473000D02*
G75*
G03*
X62551200Y-90983000I186673J-696673D01*
G01*
X63401200Y-91833000D02*
G75*
G03*
X63911200Y-91323000I-186673J696673D01*
G01*
X62551200Y-91323000D02*
G75*
G03*
X63061200Y-91833000I696673J186673D01*
G01*
%TD*%
D12*
%TO.C,Q4*%
X73420000Y-113627500D03*
X75320000Y-113627500D03*
X74370000Y-111752500D03*
%TD*%
D13*
%TO.C,R5*%
X80050000Y-113860000D03*
X78225000Y-113860000D03*
%TD*%
%TO.C,R2*%
X85997500Y-70370000D03*
X87822500Y-70370000D03*
%TD*%
D14*
%TO.C,Q3*%
X68002500Y-100060000D03*
X69877500Y-99110000D03*
X69877500Y-101010000D03*
%TD*%
D15*
%TO.C,R4*%
X56660000Y-123052500D03*
X56660000Y-121227500D03*
%TD*%
D16*
%TO.C,Q2*%
X75900000Y-99852500D03*
X74000000Y-99852500D03*
X74950000Y-101727500D03*
%TD*%
D17*
%TO.C,F1*%
X70753580Y-124169424D03*
X75203580Y-124169424D03*
%TD*%
D15*
%TO.C,R8*%
X72410000Y-101412500D03*
X72410000Y-99587500D03*
%TD*%
D12*
%TO.C,Q1*%
X78480000Y-99842500D03*
X79430000Y-101717500D03*
X77530000Y-101717500D03*
%TD*%
D18*
%TO.C,C11*%
X61617500Y-93877000D03*
X63342500Y-93877000D03*
%TD*%
D19*
%TO.C,SW2*%
X63030000Y-103310000D03*
X63030000Y-107110000D03*
X61530000Y-107110000D03*
X61530000Y-103310000D03*
%TD*%
D20*
%TO.C,C12*%
X60691500Y-90063700D03*
X60691500Y-91788700D03*
%TD*%
D21*
%TO.C,C1*%
X85202800Y-63922700D03*
X85202800Y-62197700D03*
%TD*%
D19*
%TO.C,SW1*%
X61680000Y-95790000D03*
X61680000Y-99590000D03*
X63180000Y-99590000D03*
X63180000Y-95790000D03*
%TD*%
D18*
%TO.C,C7*%
X69688600Y-110809000D03*
X71413600Y-110809000D03*
%TD*%
D22*
%TO.C,R9*%
X80990000Y-99267500D03*
X80990000Y-101092500D03*
%TD*%
D23*
%TO.C,C5*%
X84092480Y-77535024D03*
X82367480Y-77535024D03*
%TD*%
D24*
%TO.C,USB1*%
X72894780Y-129543924D03*
X73894780Y-129543924D03*
X75394780Y-129543924D03*
X76394780Y-129543924D03*
D25*
X77044780Y-129543924D03*
X77844780Y-129543924D03*
D24*
X75894780Y-129543924D03*
X74894780Y-129543924D03*
X74394780Y-129543924D03*
X73394780Y-129543924D03*
D25*
X72244780Y-129543924D03*
X71444780Y-129543924D03*
%TD*%
D26*
%TO.C,U1*%
X86900001Y-62450600D03*
X87550000Y-62450600D03*
X88200001Y-62450600D03*
X88850000Y-62450600D03*
X89500001Y-62450600D03*
X90150000Y-62450600D03*
X90800001Y-62450600D03*
X90799999Y-68089400D03*
X90150000Y-68089400D03*
X89499999Y-68089400D03*
X88850000Y-68089400D03*
X88200001Y-68089400D03*
X87550000Y-68089400D03*
X86899999Y-68089400D03*
%TD*%
D27*
%TO.C,R10*%
X63315000Y-101580000D03*
X61490000Y-101580000D03*
%TD*%
D18*
%TO.C,C10*%
X82720000Y-103340000D03*
X84445000Y-103340000D03*
%TD*%
D28*
%TO.C,U2*%
X74966218Y-89357963D03*
X74966218Y-87522963D03*
X74966218Y-85687963D03*
X76801218Y-89357963D03*
X76801218Y-87522963D03*
X76801218Y-85687963D03*
X78636218Y-89357963D03*
X78636218Y-87522963D03*
X78636218Y-85687963D03*
D29*
X84301218Y-97022963D03*
X83031218Y-97022963D03*
X81761218Y-97022963D03*
X80491218Y-97022963D03*
X79221218Y-97022963D03*
X77951218Y-97022963D03*
X76681218Y-97022963D03*
X75411218Y-97022963D03*
X74141218Y-97022963D03*
X72871218Y-97022963D03*
X71601218Y-97022963D03*
X70331218Y-97022963D03*
X69061218Y-97022963D03*
X67791218Y-97022963D03*
D30*
X66791218Y-94237963D03*
X66791218Y-92967963D03*
X66791218Y-91697963D03*
X66791218Y-90427963D03*
X66791218Y-89157963D03*
X66791218Y-87887963D03*
X66791218Y-86617963D03*
X66791218Y-85347963D03*
X66791218Y-84077963D03*
X66791218Y-82807963D03*
D29*
X67791218Y-80022963D03*
X69061218Y-80022963D03*
X70331218Y-80022963D03*
X71601218Y-80022963D03*
X72871218Y-80022963D03*
X74141218Y-80022963D03*
X75411218Y-80022963D03*
X76681218Y-80022963D03*
X77951218Y-80022963D03*
X79221218Y-80022963D03*
X80491218Y-80022963D03*
X81761218Y-80022963D03*
X83031218Y-80022963D03*
X84301218Y-80022963D03*
%TD*%
D13*
%TO.C,R1*%
X62401500Y-87136200D03*
X64226500Y-87136200D03*
%TD*%
D31*
%TO.C,U3*%
X69570013Y-105450001D03*
X69570013Y-105950001D03*
X69570013Y-106450001D03*
X69570013Y-106950001D03*
X69570013Y-107450000D03*
X69570013Y-107950000D03*
X69570013Y-108450000D03*
D32*
X68669999Y-109350014D03*
X68169999Y-109350014D03*
X67669999Y-109350014D03*
X67169999Y-109350014D03*
X66670000Y-109350014D03*
X66170000Y-109350014D03*
X65670000Y-109350014D03*
D31*
X64769986Y-108450000D03*
X64769986Y-107950000D03*
X64769986Y-107450000D03*
X64769986Y-106950001D03*
X64769986Y-106450001D03*
X64769986Y-105950001D03*
X64769986Y-105450001D03*
D32*
X65670000Y-104549987D03*
X66170000Y-104549987D03*
X66670000Y-104549987D03*
X67169999Y-104549987D03*
X67669999Y-104549987D03*
X68169999Y-104549987D03*
X68669999Y-104549987D03*
D33*
X67170000Y-108050000D03*
X66070000Y-108050000D03*
X68270000Y-105850000D03*
X67170000Y-105850000D03*
X66070000Y-105850000D03*
X66070000Y-106950000D03*
X68270000Y-106950000D03*
X68270000Y-108050000D03*
X67170000Y-106950000D03*
%TD*%
D15*
%TO.C,R3*%
X58230000Y-123072500D03*
X58230000Y-121247500D03*
%TD*%
D34*
%TO.C,C2*%
X66060000Y-121570000D03*
X66060000Y-115970000D03*
%TD*%
D35*
%TO.C,C3*%
X57640000Y-75080000D03*
X63240000Y-75080000D03*
%TD*%
D18*
%TO.C,C9*%
X76102500Y-111090000D03*
X77827500Y-111090000D03*
%TD*%
D36*
%TO.C,U4*%
X82852500Y-106600000D03*
D37*
X76552500Y-108900000D03*
X76552500Y-106600000D03*
X76552500Y-104300000D03*
%TD*%
D23*
%TO.C,C4*%
X71412500Y-112460000D03*
X69687500Y-112460000D03*
%TD*%
M02*
