%TF.GenerationSoftware,KiCad,Pcbnew,(6.0.0-0)*%
%TF.CreationDate,2022-02-21T19:04:22+01:00*%
%TF.ProjectId,GlowTowerPCB,476c6f77-546f-4776-9572-5043422e6b69,rev?*%
%TF.SameCoordinates,Original*%
%TF.FileFunction,Paste,Top*%
%TF.FilePolarity,Positive*%
%FSLAX46Y46*%
G04 Gerber Fmt 4.6, Leading zero omitted, Abs format (unit mm)*
G04 Created by KiCad (PCBNEW (6.0.0-0)) date 2022-02-21 19:04:22*
%MOMM*%
%LPD*%
G01*
G04 APERTURE LIST*
G04 Aperture macros list*
%AMRoundRect*
0 Rectangle with rounded corners*
0 $1 Rounding radius*
0 $2 $3 $4 $5 $6 $7 $8 $9 X,Y pos of 4 corners*
0 Add a 4 corners polygon primitive as box body*
4,1,4,$2,$3,$4,$5,$6,$7,$8,$9,$2,$3,0*
0 Add four circle primitives for the rounded corners*
1,1,$1+$1,$2,$3*
1,1,$1+$1,$4,$5*
1,1,$1+$1,$6,$7*
1,1,$1+$1,$8,$9*
0 Add four rect primitives between the rounded corners*
20,1,$1+$1,$2,$3,$4,$5,0*
20,1,$1+$1,$4,$5,$6,$7,0*
20,1,$1+$1,$6,$7,$8,$9,0*
20,1,$1+$1,$8,$9,$2,$3,0*%
%AMRotRect*
0 Rectangle, with rotation*
0 The origin of the aperture is its center*
0 $1 length*
0 $2 width*
0 $3 Rotation angle, in degrees counterclockwise*
0 Add horizontal line*
21,1,$1,$2,0,0,$3*%
G04 Aperture macros list end*
%ADD10C,0.240000*%
%ADD11C,0.010000*%
%ADD12RoundRect,0.250000X0.550000X-1.500000X0.550000X1.500000X-0.550000X1.500000X-0.550000X-1.500000X0*%
%ADD13RoundRect,0.237500X-0.008839X-0.344715X0.344715X0.008839X0.008839X0.344715X-0.344715X-0.008839X0*%
%ADD14RoundRect,0.150000X0.150000X-0.587500X0.150000X0.587500X-0.150000X0.587500X-0.150000X-0.587500X0*%
%ADD15RoundRect,0.237500X-0.250000X-0.237500X0.250000X-0.237500X0.250000X0.237500X-0.250000X0.237500X0*%
%ADD16RoundRect,0.237500X0.300000X0.237500X-0.300000X0.237500X-0.300000X-0.237500X0.300000X-0.237500X0*%
%ADD17R,2.500000X1.800000*%
%ADD18RoundRect,0.237500X-0.300000X-0.237500X0.300000X-0.237500X0.300000X0.237500X-0.300000X0.237500X0*%
%ADD19R,0.900000X1.500000*%
%ADD20RoundRect,0.237500X0.250000X0.237500X-0.250000X0.237500X-0.250000X-0.237500X0.250000X-0.237500X0*%
%ADD21RoundRect,0.237500X-0.237500X0.300000X-0.237500X-0.300000X0.237500X-0.300000X0.237500X0.300000X0*%
%ADD22RoundRect,0.237500X-0.344715X0.008839X0.008839X-0.344715X0.344715X-0.008839X-0.008839X0.344715X0*%
%ADD23RotRect,0.600000X1.300000X10.000000*%
%ADD24RotRect,0.300000X1.300000X10.000000*%
%ADD25R,1.676400X0.355600*%
%ADD26RoundRect,0.237500X0.237500X-0.300000X0.237500X0.300000X-0.237500X0.300000X-0.237500X-0.300000X0*%
%ADD27R,0.900000X2.000000*%
%ADD28R,2.000000X0.900000*%
%ADD29R,1.330000X1.330000*%
%ADD30R,0.900000X0.900000*%
%ADD31R,0.250000X0.900000*%
%ADD32R,0.900000X0.250000*%
%ADD33RoundRect,0.237500X0.344715X-0.008839X-0.008839X0.344715X-0.344715X0.008839X0.008839X-0.344715X0*%
%ADD34RoundRect,0.237500X0.008839X0.344715X-0.344715X-0.008839X-0.008839X-0.344715X0.344715X0.008839X0*%
%ADD35R,1.500000X2.000000*%
%ADD36R,3.800000X2.000000*%
G04 APERTURE END LIST*
D10*
%TO.C,MK1*%
X162507000Y-112104600D02*
G75*
G03*
X161997000Y-111594600I-696673J-186673D01*
G01*
X161997000Y-112954600D02*
G75*
G03*
X162507000Y-112444600I-186673J696673D01*
G01*
X161147000Y-112444600D02*
G75*
G03*
X161657000Y-112954600I696673J186673D01*
G01*
X161657000Y-111594600D02*
G75*
G03*
X161147000Y-112104600I186673J-696673D01*
G01*
D11*
X160402000Y-111449600D02*
X160402000Y-110949600D01*
X160402000Y-110949600D02*
X160702000Y-110949600D01*
X160702000Y-110949600D02*
X160702000Y-111449600D01*
X160702000Y-111449600D02*
X160402000Y-111449600D01*
G36*
X160702000Y-111449600D02*
G01*
X160402000Y-111449600D01*
X160402000Y-110949600D01*
X160702000Y-110949600D01*
X160702000Y-111449600D01*
G37*
X160702000Y-111449600D02*
X160402000Y-111449600D01*
X160402000Y-110949600D01*
X160702000Y-110949600D01*
X160702000Y-111449600D01*
X159752000Y-113599600D02*
X159752000Y-113099600D01*
X159752000Y-113099600D02*
X160052000Y-113099600D01*
X160052000Y-113099600D02*
X160052000Y-113599600D01*
X160052000Y-113599600D02*
X159752000Y-113599600D01*
G36*
X160052000Y-113599600D02*
G01*
X159752000Y-113599600D01*
X159752000Y-113099600D01*
X160052000Y-113099600D01*
X160052000Y-113599600D01*
G37*
X160052000Y-113599600D02*
X159752000Y-113599600D01*
X159752000Y-113099600D01*
X160052000Y-113099600D01*
X160052000Y-113599600D01*
X159102000Y-111449600D02*
X159102000Y-110949600D01*
X159102000Y-110949600D02*
X159402000Y-110949600D01*
X159402000Y-110949600D02*
X159402000Y-111449600D01*
X159402000Y-111449600D02*
X159102000Y-111449600D01*
G36*
X159402000Y-111449600D02*
G01*
X159102000Y-111449600D01*
X159102000Y-110949600D01*
X159402000Y-110949600D01*
X159402000Y-111449600D01*
G37*
X159402000Y-111449600D02*
X159102000Y-111449600D01*
X159102000Y-110949600D01*
X159402000Y-110949600D01*
X159402000Y-111449600D01*
X159752000Y-111449600D02*
X159752000Y-110949600D01*
X159752000Y-110949600D02*
X160052000Y-110949600D01*
X160052000Y-110949600D02*
X160052000Y-111449600D01*
X160052000Y-111449600D02*
X159752000Y-111449600D01*
G36*
X160052000Y-111449600D02*
G01*
X159752000Y-111449600D01*
X159752000Y-110949600D01*
X160052000Y-110949600D01*
X160052000Y-111449600D01*
G37*
X160052000Y-111449600D02*
X159752000Y-111449600D01*
X159752000Y-110949600D01*
X160052000Y-110949600D01*
X160052000Y-111449600D01*
X160402000Y-113599600D02*
X160402000Y-113099600D01*
X160402000Y-113099600D02*
X160702000Y-113099600D01*
X160702000Y-113099600D02*
X160702000Y-113599600D01*
X160702000Y-113599600D02*
X160402000Y-113599600D01*
G36*
X160702000Y-113599600D02*
G01*
X160402000Y-113599600D01*
X160402000Y-113099600D01*
X160702000Y-113099600D01*
X160702000Y-113599600D01*
G37*
X160702000Y-113599600D02*
X160402000Y-113599600D01*
X160402000Y-113099600D01*
X160702000Y-113099600D01*
X160702000Y-113599600D01*
X159102000Y-113599600D02*
X159102000Y-113099600D01*
X159102000Y-113099600D02*
X159402000Y-113099600D01*
X159402000Y-113099600D02*
X159402000Y-113599600D01*
X159402000Y-113599600D02*
X159102000Y-113599600D01*
G36*
X159402000Y-113599600D02*
G01*
X159102000Y-113599600D01*
X159102000Y-113099600D01*
X159402000Y-113099600D01*
X159402000Y-113599600D01*
G37*
X159402000Y-113599600D02*
X159102000Y-113599600D01*
X159102000Y-113099600D01*
X159402000Y-113099600D01*
X159402000Y-113599600D01*
%TD*%
D12*
%TO.C,C6*%
X144500600Y-123958000D03*
X144500600Y-118358000D03*
%TD*%
D13*
%TO.C,R2*%
X139801565Y-57099235D03*
X141092035Y-55808765D03*
%TD*%
D14*
%TO.C,Q2*%
X134609800Y-111122700D03*
X136509800Y-111122700D03*
X135559800Y-109247700D03*
%TD*%
D15*
%TO.C,R8*%
X136145900Y-107365800D03*
X137970900Y-107365800D03*
%TD*%
D14*
%TO.C,Q1*%
X138267400Y-111122700D03*
X140167400Y-111122700D03*
X139217400Y-109247700D03*
%TD*%
D16*
%TO.C,C11*%
X169756900Y-110385400D03*
X168031900Y-110385400D03*
%TD*%
D17*
%TO.C,D1*%
X168451500Y-122580400D03*
X164451500Y-122580400D03*
%TD*%
D16*
%TO.C,C12*%
X162634000Y-114935000D03*
X160909000Y-114935000D03*
%TD*%
D18*
%TO.C,C1*%
X145428600Y-82133200D03*
X147153600Y-82133200D03*
%TD*%
D19*
%TO.C,SW1*%
X169837800Y-112298400D03*
X169837800Y-116098400D03*
X168337800Y-112298400D03*
X168337800Y-116098400D03*
%TD*%
D18*
%TO.C,C7*%
X168325800Y-133451600D03*
X170050800Y-133451600D03*
%TD*%
D20*
%TO.C,R9*%
X138402700Y-113080800D03*
X136577700Y-113080800D03*
%TD*%
D21*
%TO.C,C5*%
X144272000Y-106350900D03*
X144272000Y-108075900D03*
%TD*%
D22*
%TO.C,R4*%
X140705765Y-70728765D03*
X141996235Y-72019235D03*
%TD*%
D23*
%TO.C,USB1*%
X161301260Y-133720232D03*
X162089106Y-133581314D03*
D24*
X163221635Y-133381618D03*
X164206443Y-133207970D03*
X164698846Y-133121146D03*
X165683654Y-132947498D03*
D23*
X167604029Y-132608884D03*
X166816183Y-132747802D03*
D24*
X166176058Y-132860674D03*
X165191250Y-133034322D03*
X163714039Y-133294794D03*
X162729231Y-133468442D03*
%TD*%
D25*
%TO.C,U1*%
X151320300Y-80436001D03*
X151320300Y-79786000D03*
X151320300Y-79135999D03*
X151320300Y-78486000D03*
X151320300Y-77836001D03*
X151320300Y-77186000D03*
X151320300Y-76536001D03*
X145681500Y-76535999D03*
X145681500Y-77186000D03*
X145681500Y-77835999D03*
X145681500Y-78486000D03*
X145681500Y-79135999D03*
X145681500Y-79786000D03*
X145681500Y-80435999D03*
%TD*%
D15*
%TO.C,R10*%
X168112500Y-117988000D03*
X169937500Y-117988000D03*
%TD*%
D26*
%TO.C,C10*%
X145973800Y-108075900D03*
X145973800Y-106350900D03*
%TD*%
D12*
%TO.C,C8*%
X137287000Y-123958000D03*
X137287000Y-118358000D03*
%TD*%
D15*
%TO.C,R7*%
X157253300Y-109677200D03*
X159078300Y-109677200D03*
%TD*%
D27*
%TO.C,U2*%
X163051279Y-84879189D03*
X161781279Y-84879189D03*
X160511279Y-84879189D03*
X159241279Y-84879189D03*
X157971279Y-84879189D03*
X156701279Y-84879189D03*
X155431279Y-84879189D03*
X154161279Y-84879189D03*
X152891279Y-84879189D03*
X151621279Y-84879189D03*
X150351279Y-84879189D03*
X149081279Y-84879189D03*
X147811279Y-84879189D03*
X146541279Y-84879189D03*
D28*
X145541279Y-87664189D03*
X145541279Y-88934189D03*
X145541279Y-90204189D03*
X145541279Y-91474189D03*
X145541279Y-92744189D03*
X145541279Y-94014189D03*
X145541279Y-95284189D03*
X145541279Y-96554189D03*
X145541279Y-97824189D03*
X145541279Y-99094189D03*
D27*
X146541279Y-101879189D03*
X147811279Y-101879189D03*
X149081279Y-101879189D03*
X150351279Y-101879189D03*
X151621279Y-101879189D03*
X152891279Y-101879189D03*
X154161279Y-101879189D03*
X155431279Y-101879189D03*
X156701279Y-101879189D03*
X157971279Y-101879189D03*
X159241279Y-101879189D03*
X160511279Y-101879189D03*
X161781279Y-101879189D03*
X163051279Y-101879189D03*
D29*
X157386279Y-90544189D03*
X157386279Y-92379189D03*
X157386279Y-94214189D03*
X155551279Y-90544189D03*
X155551279Y-92379189D03*
X155551279Y-94214189D03*
X153716279Y-90544189D03*
X153716279Y-92379189D03*
X153716279Y-94214189D03*
%TD*%
D30*
%TO.C,U3*%
X165667500Y-129012600D03*
X167867500Y-126812600D03*
X165667500Y-127912600D03*
X166767500Y-129012600D03*
X166767500Y-126812600D03*
X165667500Y-126812600D03*
X167867500Y-129012600D03*
X167867500Y-127912600D03*
X166767500Y-127912600D03*
D31*
X165267501Y-130312613D03*
X165767501Y-130312613D03*
X166267501Y-130312613D03*
X166767501Y-130312613D03*
X167267500Y-130312613D03*
X167767500Y-130312613D03*
X168267500Y-130312613D03*
D32*
X169167514Y-129412599D03*
X169167514Y-128912599D03*
X169167514Y-128412599D03*
X169167514Y-127912599D03*
X169167514Y-127412600D03*
X169167514Y-126912600D03*
X169167514Y-126412600D03*
D31*
X168267500Y-125512586D03*
X167767500Y-125512586D03*
X167267500Y-125512586D03*
X166767501Y-125512586D03*
X166267501Y-125512586D03*
X165767501Y-125512586D03*
X165267501Y-125512586D03*
D32*
X164367487Y-126412600D03*
X164367487Y-126912600D03*
X164367487Y-127412600D03*
X164367487Y-127912599D03*
X164367487Y-128412599D03*
X164367487Y-128912599D03*
X164367487Y-129412599D03*
%TD*%
D12*
%TO.C,C2*%
X159054800Y-123958000D03*
X159054800Y-118358000D03*
%TD*%
D33*
%TO.C,R1*%
X156601235Y-57084035D03*
X155310765Y-55793565D03*
%TD*%
D12*
%TO.C,C3*%
X151765000Y-123958000D03*
X151765000Y-118358000D03*
%TD*%
D21*
%TO.C,C9*%
X154914600Y-111862700D03*
X154914600Y-113587700D03*
%TD*%
D34*
%TO.C,R3*%
X156194835Y-70017565D03*
X154904365Y-71308035D03*
%TD*%
D35*
%TO.C,U4*%
X148093400Y-113106600D03*
X150393400Y-113106600D03*
X152693400Y-113106600D03*
D36*
X150393400Y-106806600D03*
%TD*%
D17*
%TO.C,D2*%
X158647100Y-130886200D03*
X154647100Y-130886200D03*
%TD*%
D16*
%TO.C,C4*%
X170051900Y-131800600D03*
X168326900Y-131800600D03*
%TD*%
M02*
