M48
; DRILL file {KiCad (6.0.0-0)} date 2022 March 31, Thursday 12:40:58
; FORMAT={-:-/ absolute / inch / decimal}
; #@! TF.CreationDate,2022-03-31T12:40:58+02:00
; #@! TF.GenerationSoftware,Kicad,Pcbnew,(6.0.0-0)
; #@! TF.FileFunction,Plated,1,2,PTH
FMAT,2
INCH
; #@! TA.AperFunction,Plated,PTH,ComponentDrill
T1C0.0079
; #@! TA.AperFunction,Plated,PTH,ViaDrill
T2C0.0157
; #@! TA.AperFunction,Plated,PTH,ComponentDrill
T3C0.0276
; #@! TA.AperFunction,Plated,PTH,ComponentDrill
T4C0.0276
; #@! TA.AperFunction,Plated,PTH,ComponentDrill
T5C0.0354
; #@! TA.AperFunction,Plated,PTH,ComponentDrill
T6C0.0394
; #@! TA.AperFunction,Plated,PTH,ComponentDrill
T7C0.0472
; #@! TA.AperFunction,Plated,PTH,ComponentDrill
T8C0.0591
; #@! TA.AperFunction,Plated,PTH,ComponentDrill
T9C0.0709
%
G90
G05
T1
X2.9514Y-3.4097
X2.9514Y-3.4819
X2.9875Y-3.3735
X2.9875Y-3.4458
X2.9875Y-3.518
X3.0237Y-3.4097
X3.0237Y-3.4819
X3.0598Y-3.3735
X3.0598Y-3.4458
X3.0598Y-3.518
X3.0959Y-3.4097
X3.0959Y-3.4819
T2
X2.2327Y-4.7252
X2.2516Y-2.8539
X2.2677Y-3.0535
X2.2693Y-2.9559
X2.2996Y-3.002
X2.3354Y-3.0535
X2.3795Y-4.6835
X2.3846Y-3.7724
X2.3846Y-3.9602
X2.389Y-3.8764
X2.3917Y-3.4878
X2.4228Y-4.1449
X2.4343Y-4.7213
X2.4576Y-3.8708
X2.4577Y-3.9709
X2.489Y-4.1343
X2.4925Y-3.5118
X2.5315Y-2.5657
X2.5433Y-2.3008
X2.5457Y-3.3827
X2.5791Y-4.0087
X2.5941Y-4.3961
X2.5965Y-3.1776
X2.6012Y-4.8425
X2.6531Y-4.8425
X2.6641Y-4.0712
X2.6795Y-3.8953
X2.7008Y-3.4063
X2.7044Y-4.8425
X2.7122Y-3.3071
X2.7154Y-3.2358
X2.7295Y-3.4732
X2.7398Y-3.9374
X2.7449Y-4.3134
X2.7492Y-4.0688
X2.7622Y-3.324
X2.7823Y-4.1051
X2.8055Y-4.1386
X2.8087Y-3.885
X2.8181Y-3.2378
X2.8192Y-3.3382
X2.8213Y-4.1835
X2.8291Y-3.5496
X2.8642Y-3.2287
X2.8709Y-3.337
X2.8752Y-5.2335
X2.8894Y-4.2862
X2.8978Y-4.2466
X2.9016Y-3.9937
X2.9264Y-4.1941
X2.9327Y-5.315
X2.9425Y-4.1071
X2.9528Y-3.928
X2.956Y-4.1526
X2.9815Y-5.2276
X2.9909Y-4.5516
X2.9996Y-3.9933
X3.0012Y-3.2652
X3.0016Y-3.039
X3.0098Y-4.8362
X3.011Y-4.5996
X3.0169Y-3.2232
X3.0201Y-5.2606
X3.0283Y-4.4287
X3.0303Y-3.7476
X3.0429Y-4.8768
X3.0559Y-3.8953
X3.0772Y-4.4295
X3.0803Y-3.7618
X3.0886Y-3.9992
X3.0949Y-3.7039
X3.1Y-3.5713
X3.1047Y-4.0522
X3.1173Y-4.8724
X3.1224Y-3.2465
X3.1268Y-4.5677
X3.1315Y-3.911
X3.1543Y-1.9492
X3.163Y-4.3654
X3.2012Y-3.4953
X3.213Y-3.2063
X3.2315Y-3.3874
X3.2319Y-3.6658
X3.2461Y-3.6291
X3.2539Y-3.5906
X3.2693Y-3.2276
X3.2791Y-3.7472
X3.2846Y-2.5618
X3.3091Y-2.9902
X3.4071Y-2.3799
X3.4728Y-2.0224
X3.476Y-4.4008
X3.4764Y-4.1937
X3.4772Y-4.4992
X3.4831Y-4.2961
X3.4839Y-4.6031
X3.5394Y-2.5685
T3
X2.825Y-5.149
X3.0526Y-5.149
T6
X2.3328Y-5.0704
X2.373Y-4.9704
X2.4132Y-5.0704
X2.4533Y-4.9704
X2.4935Y-5.0704
X2.5336Y-4.9704
X3.5528Y-4.1555
X3.5528Y-4.2555
X3.5528Y-4.3555
X3.5528Y-4.4555
X3.5528Y-4.5555
X3.5528Y-4.6555
X3.5528Y-4.7555
T7
X2.9072Y-4.7436
X3.1072Y-4.7436
T8
X3.3894Y-4.8594
T9
X3.3894Y-5.2905
T4
G00X2.7687Y-5.1076
M15
G01X2.7687Y-5.1509
M16
G05
G00X2.7687Y-5.282
M15
G01X2.7687Y-5.3057
M16
G05
G00X3.1088Y-5.1076
M15
G01X3.1088Y-5.1509
M16
G05
G00X3.1088Y-5.282
M15
G01X3.1088Y-5.3057
M16
G05
T5
G00X3.1985Y-5.0208
M15
G01X3.1985Y-4.9735
M16
G05
G00X3.1985Y-5.2058
M15
G01X3.1985Y-5.1586
M16
G05
G00X3.4209Y-5.1625
M15
G01X3.3579Y-5.1625
M16
G05
G00X3.5804Y-5.0208
M15
G01X3.5804Y-4.9735
M16
G05
G00X3.5804Y-5.2058
M15
G01X3.5804Y-5.1586
M16
G05
T0
M30
