%TF.GenerationSoftware,KiCad,Pcbnew,(6.0.0-0)*%
%TF.CreationDate,2022-03-22T14:17:05+01:00*%
%TF.ProjectId,GlowTowerPCB,476c6f77-546f-4776-9572-5043422e6b69,rev?*%
%TF.SameCoordinates,Original*%
%TF.FileFunction,Soldermask,Top*%
%TF.FilePolarity,Negative*%
%FSLAX46Y46*%
G04 Gerber Fmt 4.6, Leading zero omitted, Abs format (unit mm)*
G04 Created by KiCad (PCBNEW (6.0.0-0)) date 2022-03-22 14:17:05*
%MOMM*%
%LPD*%
G01*
G04 APERTURE LIST*
G04 Aperture macros list*
%AMRoundRect*
0 Rectangle with rounded corners*
0 $1 Rounding radius*
0 $2 $3 $4 $5 $6 $7 $8 $9 X,Y pos of 4 corners*
0 Add a 4 corners polygon primitive as box body*
4,1,4,$2,$3,$4,$5,$6,$7,$8,$9,$2,$3,0*
0 Add four circle primitives for the rounded corners*
1,1,$1+$1,$2,$3*
1,1,$1+$1,$4,$5*
1,1,$1+$1,$6,$7*
1,1,$1+$1,$8,$9*
0 Add four rect primitives between the rounded corners*
20,1,$1+$1,$2,$3,$4,$5,0*
20,1,$1+$1,$4,$5,$6,$7,0*
20,1,$1+$1,$6,$7,$8,$9,0*
20,1,$1+$1,$8,$9,$2,$3,0*%
%AMRotRect*
0 Rectangle, with rotation*
0 The origin of the aperture is its center*
0 $1 length*
0 $2 width*
0 $3 Rotation angle, in degrees counterclockwise*
0 Add horizontal line*
21,1,$1,$2,0,0,$3*%
G04 Aperture macros list end*
%ADD10C,0.500000*%
%ADD11C,0.500000*%
%ADD12R,0.600000X0.400000*%
%ADD13RoundRect,0.237500X0.250000X0.237500X-0.250000X0.237500X-0.250000X-0.237500X0.250000X-0.237500X0*%
%ADD14RoundRect,0.150000X0.587500X0.150000X-0.587500X0.150000X-0.587500X-0.150000X0.587500X-0.150000X0*%
%ADD15RoundRect,0.237500X-0.237500X0.250000X-0.237500X-0.250000X0.237500X-0.250000X0.237500X0.250000X0*%
%ADD16RoundRect,0.150000X0.150000X-0.587500X0.150000X0.587500X-0.150000X0.587500X-0.150000X-0.587500X0*%
%ADD17RoundRect,0.250000X0.400000X1.450000X-0.400000X1.450000X-0.400000X-1.450000X0.400000X-1.450000X0*%
%ADD18RotRect,2.000000X3.500000X45.000000*%
%ADD19RoundRect,0.150000X-0.150000X0.587500X-0.150000X-0.587500X0.150000X-0.587500X0.150000X0.587500X0*%
%ADD20RoundRect,0.237500X0.300000X0.237500X-0.300000X0.237500X-0.300000X-0.237500X0.300000X-0.237500X0*%
%ADD21R,1.700000X1.700000*%
%ADD22O,1.700000X1.700000*%
%ADD23R,0.900000X1.500000*%
%ADD24C,1.800000*%
%ADD25O,1.600000X3.000000*%
%ADD26O,3.200000X1.600000*%
%ADD27C,2.300000*%
%ADD28RotRect,2.000000X3.500000X135.000000*%
%ADD29RoundRect,0.237500X0.237500X-0.300000X0.237500X0.300000X-0.237500X0.300000X-0.237500X-0.300000X0*%
%ADD30RoundRect,0.237500X-0.237500X0.300000X-0.237500X-0.300000X0.237500X-0.300000X0.237500X0.300000X0*%
%ADD31RoundRect,0.237500X0.237500X-0.250000X0.237500X0.250000X-0.237500X0.250000X-0.237500X-0.250000X0*%
%ADD32RoundRect,0.237500X-0.300000X-0.237500X0.300000X-0.237500X0.300000X0.237500X-0.300000X0.237500X0*%
%ADD33RotRect,2.000000X3.500000X225.000000*%
%ADD34C,0.700000*%
%ADD35R,0.600000X1.300000*%
%ADD36R,0.300000X1.300000*%
%ADD37O,1.200000X2.200000*%
%ADD38O,1.200000X1.800000*%
%ADD39R,0.355600X1.676400*%
%ADD40RoundRect,0.237500X-0.250000X-0.237500X0.250000X-0.237500X0.250000X0.237500X-0.250000X0.237500X0*%
%ADD41R,0.900000X2.000000*%
%ADD42R,2.000000X0.900000*%
%ADD43R,1.330000X1.330000*%
%ADD44C,0.300000*%
%ADD45R,0.250000X0.900000*%
%ADD46R,0.900000X0.250000*%
%ADD47R,3.250000X3.250000*%
%ADD48RotRect,2.000000X3.500000X315.000000*%
%ADD49RoundRect,0.250000X-0.550000X1.500000X-0.550000X-1.500000X0.550000X-1.500000X0.550000X1.500000X0*%
%ADD50C,2.100000*%
%ADD51R,1.600000X1.600000*%
%ADD52C,1.600000*%
%ADD53RoundRect,0.250000X1.500000X0.550000X-1.500000X0.550000X-1.500000X-0.550000X1.500000X-0.550000X0*%
%ADD54R,2.000000X1.500000*%
%ADD55R,2.000000X3.800000*%
%ADD56C,2.000000*%
G04 APERTURE END LIST*
D10*
%TO.C,MK1*%
X63901200Y-91153000D02*
G75*
G03*
X63901200Y-91153000I-670000J0D01*
G01*
%TD*%
D11*
%TO.C,MK1*%
X63231200Y-91153000D03*
D12*
X62156200Y-88578000D03*
X62156200Y-89228000D03*
X62156200Y-89878000D03*
X64306200Y-89878000D03*
X64306200Y-89228000D03*
X64306200Y-88578000D03*
%TD*%
D13*
%TO.C,R2*%
X87822500Y-70370000D03*
X85997500Y-70370000D03*
%TD*%
D14*
%TO.C,Q3*%
X69877500Y-101010000D03*
X69877500Y-99110000D03*
X68002500Y-100060000D03*
%TD*%
D15*
%TO.C,R4*%
X56660000Y-121227500D03*
X56660000Y-123052500D03*
%TD*%
D16*
%TO.C,Q2*%
X74000000Y-101727500D03*
X75900000Y-101727500D03*
X74950000Y-99852500D03*
%TD*%
D17*
%TO.C,F1*%
X75203580Y-124169424D03*
X70753580Y-124169424D03*
%TD*%
D18*
%TO.C,U5*%
X77237653Y-67355550D03*
X79362580Y-65230624D03*
X81454980Y-63138224D03*
%TD*%
D19*
%TO.C,Q4*%
X84600000Y-110312500D03*
X82700000Y-110312500D03*
X83650000Y-112187500D03*
%TD*%
D15*
%TO.C,R8*%
X72410000Y-99587500D03*
X72410000Y-101412500D03*
%TD*%
D16*
%TO.C,Q1*%
X77530000Y-101717500D03*
X79430000Y-101717500D03*
X78480000Y-99842500D03*
%TD*%
D20*
%TO.C,C11*%
X63342500Y-93877000D03*
X61617500Y-93877000D03*
%TD*%
D21*
%TO.C,J1*%
X90240000Y-105550000D03*
D22*
X90240000Y-108090000D03*
X90240000Y-110630000D03*
X90240000Y-113170000D03*
X90240000Y-115710000D03*
X90240000Y-118250000D03*
X90240000Y-120790000D03*
%TD*%
D23*
%TO.C,SW2*%
X61530000Y-103310000D03*
X61530000Y-107110000D03*
X63030000Y-107110000D03*
X63030000Y-103310000D03*
%TD*%
D24*
%TO.C,J2*%
X86091047Y-134377924D03*
D25*
X90941047Y-131627924D03*
X81241047Y-131627924D03*
X81241047Y-126927924D03*
X90941047Y-126927924D03*
D26*
X86091047Y-131127924D03*
D27*
X86091047Y-123427924D03*
%TD*%
D28*
%TO.C,U8*%
X81487506Y-56575551D03*
X79362580Y-54450624D03*
X77270180Y-52358224D03*
%TD*%
D29*
%TO.C,C12*%
X60691500Y-91788700D03*
X60691500Y-90063700D03*
%TD*%
D30*
%TO.C,C1*%
X85202800Y-62197700D03*
X85202800Y-63922700D03*
%TD*%
D23*
%TO.C,SW1*%
X63180000Y-95790000D03*
X63180000Y-99590000D03*
X61680000Y-99590000D03*
X61680000Y-95790000D03*
%TD*%
D20*
%TO.C,C7*%
X71413600Y-110809000D03*
X69688600Y-110809000D03*
%TD*%
D31*
%TO.C,R9*%
X80990000Y-101092500D03*
X80990000Y-99267500D03*
%TD*%
D32*
%TO.C,C5*%
X82367480Y-77535024D03*
X84092480Y-77535024D03*
%TD*%
D33*
%TO.C,U7*%
X70697507Y-52375698D03*
X68572580Y-54500624D03*
X66480180Y-56593024D03*
%TD*%
D34*
%TO.C,USB1*%
X77534780Y-130783924D03*
X71754780Y-130783924D03*
D35*
X71444780Y-129543924D03*
X72244780Y-129543924D03*
D36*
X73394780Y-129543924D03*
X74394780Y-129543924D03*
X74894780Y-129543924D03*
X75894780Y-129543924D03*
D35*
X77844780Y-129543924D03*
X77044780Y-129543924D03*
D36*
X76394780Y-129543924D03*
X75394780Y-129543924D03*
X73894780Y-129543924D03*
X72894780Y-129543924D03*
D37*
X78964780Y-130283924D03*
D38*
X70324780Y-134463924D03*
D37*
X70324780Y-130283924D03*
D38*
X78964780Y-134463924D03*
%TD*%
D39*
%TO.C,U1*%
X86899999Y-68089400D03*
X87550000Y-68089400D03*
X88200001Y-68089400D03*
X88850000Y-68089400D03*
X89499999Y-68089400D03*
X90150000Y-68089400D03*
X90799999Y-68089400D03*
X90800001Y-62450600D03*
X90150000Y-62450600D03*
X89500001Y-62450600D03*
X88850000Y-62450600D03*
X88200001Y-62450600D03*
X87550000Y-62450600D03*
X86900001Y-62450600D03*
%TD*%
D40*
%TO.C,R10*%
X61490000Y-101580000D03*
X63315000Y-101580000D03*
%TD*%
D20*
%TO.C,C10*%
X84445000Y-103340000D03*
X82720000Y-103340000D03*
%TD*%
D41*
%TO.C,U2*%
X84301218Y-80022963D03*
X83031218Y-80022963D03*
X81761218Y-80022963D03*
X80491218Y-80022963D03*
X79221218Y-80022963D03*
X77951218Y-80022963D03*
X76681218Y-80022963D03*
X75411218Y-80022963D03*
X74141218Y-80022963D03*
X72871218Y-80022963D03*
X71601218Y-80022963D03*
X70331218Y-80022963D03*
X69061218Y-80022963D03*
X67791218Y-80022963D03*
D42*
X66791218Y-82807963D03*
X66791218Y-84077963D03*
X66791218Y-85347963D03*
X66791218Y-86617963D03*
X66791218Y-87887963D03*
X66791218Y-89157963D03*
X66791218Y-90427963D03*
X66791218Y-91697963D03*
X66791218Y-92967963D03*
X66791218Y-94237963D03*
D41*
X67791218Y-97022963D03*
X69061218Y-97022963D03*
X70331218Y-97022963D03*
X71601218Y-97022963D03*
X72871218Y-97022963D03*
X74141218Y-97022963D03*
X75411218Y-97022963D03*
X76681218Y-97022963D03*
X77951218Y-97022963D03*
X79221218Y-97022963D03*
X80491218Y-97022963D03*
X81761218Y-97022963D03*
X83031218Y-97022963D03*
X84301218Y-97022963D03*
D43*
X78636218Y-85687963D03*
X78636218Y-87522963D03*
X78636218Y-89357963D03*
X76801218Y-85687963D03*
X76801218Y-87522963D03*
X76801218Y-89357963D03*
X74966218Y-85687963D03*
X74966218Y-87522963D03*
X74966218Y-89357963D03*
D44*
X78636218Y-86605463D03*
X78636218Y-88440463D03*
X77718718Y-85687963D03*
X77718718Y-87522963D03*
X77718718Y-89357963D03*
X76801218Y-86605463D03*
X76801218Y-88440463D03*
X75883718Y-85687963D03*
X75883718Y-87522963D03*
X75883718Y-89357963D03*
X74966218Y-86605463D03*
X74966218Y-88440463D03*
%TD*%
D13*
%TO.C,R1*%
X64226500Y-87136200D03*
X62401500Y-87136200D03*
%TD*%
D45*
%TO.C,U3*%
X68669999Y-104549987D03*
X68169999Y-104549987D03*
X67669999Y-104549987D03*
X67169999Y-104549987D03*
X66670000Y-104549987D03*
X66170000Y-104549987D03*
X65670000Y-104549987D03*
D46*
X64769986Y-105450001D03*
X64769986Y-105950001D03*
X64769986Y-106450001D03*
X64769986Y-106950001D03*
X64769986Y-107450000D03*
X64769986Y-107950000D03*
X64769986Y-108450000D03*
D45*
X65670000Y-109350014D03*
X66170000Y-109350014D03*
X66670000Y-109350014D03*
X67169999Y-109350014D03*
X67669999Y-109350014D03*
X68169999Y-109350014D03*
X68669999Y-109350014D03*
D46*
X69570013Y-108450000D03*
X69570013Y-107950000D03*
X69570013Y-107450000D03*
X69570013Y-106950001D03*
X69570013Y-106450001D03*
X69570013Y-105950001D03*
X69570013Y-105450001D03*
D47*
X67170000Y-106950000D03*
%TD*%
D15*
%TO.C,R3*%
X58230000Y-121247500D03*
X58230000Y-123072500D03*
%TD*%
D48*
%TO.C,U6*%
X66447654Y-63055697D03*
X68572580Y-65180624D03*
X70664980Y-67273024D03*
%TD*%
D49*
%TO.C,C2*%
X66060000Y-115970000D03*
X66060000Y-121570000D03*
%TD*%
D50*
%TO.C,RJ1*%
X67798513Y-131096873D03*
X55809713Y-131096873D03*
D51*
X64354164Y-126248944D03*
D52*
X63334098Y-128788949D03*
X62314032Y-126248944D03*
X61294220Y-128788949D03*
X60274154Y-126248944D03*
X59254088Y-128788949D03*
%TD*%
D53*
%TO.C,C3*%
X63240000Y-75080000D03*
X57640000Y-75080000D03*
%TD*%
D20*
%TO.C,C9*%
X77827500Y-111090000D03*
X76102500Y-111090000D03*
%TD*%
D54*
%TO.C,U4*%
X76552500Y-104300000D03*
X76552500Y-106600000D03*
X76552500Y-108900000D03*
D55*
X82852500Y-106600000D03*
%TD*%
D32*
%TO.C,C4*%
X69687500Y-112460000D03*
X71412500Y-112460000D03*
%TD*%
D56*
%TO.C,F2*%
X73842048Y-120486297D03*
X78922058Y-120486297D03*
%TD*%
M02*
