%TF.GenerationSoftware,KiCad,Pcbnew,(6.0.0-0)*%
%TF.CreationDate,2022-02-21T19:04:22+01:00*%
%TF.ProjectId,GlowTowerPCB,476c6f77-546f-4776-9572-5043422e6b69,rev?*%
%TF.SameCoordinates,Original*%
%TF.FileFunction,Copper,L2,Bot*%
%TF.FilePolarity,Positive*%
%FSLAX46Y46*%
G04 Gerber Fmt 4.6, Leading zero omitted, Abs format (unit mm)*
G04 Created by KiCad (PCBNEW (6.0.0-0)) date 2022-02-21 19:04:22*
%MOMM*%
%LPD*%
G01*
G04 APERTURE LIST*
G04 Aperture macros list*
%AMHorizOval*
0 Thick line with rounded ends*
0 $1 width*
0 $2 $3 position (X,Y) of the first rounded end (center of the circle)*
0 $4 $5 position (X,Y) of the second rounded end (center of the circle)*
0 Add line between two ends*
20,1,$1,$2,$3,$4,$5,0*
0 Add two circle primitives to create the rounded ends*
1,1,$1,$2,$3*
1,1,$1,$4,$5*%
G04 Aperture macros list end*
%TA.AperFunction,ComponentPad*%
%ADD10R,1.700000X1.700000*%
%TD*%
%TA.AperFunction,ComponentPad*%
%ADD11O,1.700000X1.700000*%
%TD*%
%TA.AperFunction,ComponentPad*%
%ADD12C,1.800000*%
%TD*%
%TA.AperFunction,ComponentPad*%
%ADD13HorizOval,1.600000X0.121554X0.689365X-0.121554X-0.689365X0*%
%TD*%
%TA.AperFunction,ComponentPad*%
%ADD14HorizOval,1.600000X-0.787846X0.138919X0.787846X-0.138919X0*%
%TD*%
%TA.AperFunction,ComponentPad*%
%ADD15C,2.300000*%
%TD*%
%TA.AperFunction,ComponentPad*%
%ADD16R,2.200000X2.200000*%
%TD*%
%TA.AperFunction,ComponentPad*%
%ADD17C,2.200000*%
%TD*%
%TA.AperFunction,ComponentPad*%
%ADD18C,0.700000*%
%TD*%
%TA.AperFunction,ComponentPad*%
%ADD19HorizOval,1.200000X-0.052094X0.295442X0.052094X-0.295442X0*%
%TD*%
%TA.AperFunction,ComponentPad*%
%ADD20HorizOval,1.200000X-0.086824X0.492404X0.086824X-0.492404X0*%
%TD*%
%TA.AperFunction,ComponentPad*%
%ADD21C,0.300000*%
%TD*%
%TA.AperFunction,ComponentPad*%
%ADD22C,2.000000*%
%TD*%
%TA.AperFunction,ViaPad*%
%ADD23C,0.800000*%
%TD*%
%TA.AperFunction,Conductor*%
%ADD24C,1.800000*%
%TD*%
%TA.AperFunction,Conductor*%
%ADD25C,5.300000*%
%TD*%
%TA.AperFunction,Conductor*%
%ADD26C,0.700000*%
%TD*%
G04 APERTURE END LIST*
D10*
%TO.P,J1,1,Pin_1*%
%TO.N,+3V3*%
X134137000Y-87451800D03*
D11*
%TO.P,J1,2,Pin_2*%
%TO.N,IO12{slash}MISO*%
X134137000Y-89991800D03*
%TO.P,J1,3,Pin_3*%
%TO.N,IO13{slash}MOSI*%
X134137000Y-92531800D03*
%TO.P,J1,4,Pin_4*%
%TO.N,IO21*%
X134137000Y-95071800D03*
%TO.P,J1,5,Pin_5*%
%TO.N,IO25{slash}A1{slash}DAC1*%
X134137000Y-97611800D03*
%TO.P,J1,6,Pin_6*%
%TO.N,IO26{slash}A0{slash}DAC2*%
X134137000Y-100151800D03*
%TD*%
D12*
%TO.P,J2,*%
%TO.N,*%
X138166319Y-138170713D03*
D13*
%TO.P,J2,1*%
%TO.N,GND*%
X144236316Y-131676089D03*
X133867534Y-134620298D03*
X134683680Y-129991702D03*
X143420169Y-136304685D03*
D14*
%TO.P,J2,2*%
%TO.N,N/C*%
X138730676Y-134970088D03*
D15*
%TO.P,J2,3*%
%TO.N,Net-(F2-Pad2)*%
X140067767Y-127387068D03*
%TD*%
D16*
%TO.P,P1,1,1*%
%TO.N,unconnected-(P1-Pad1)*%
X148254708Y-134113666D03*
D17*
%TO.P,P1,2,2*%
%TO.N,unconnected-(P1-Pad2)*%
X152064716Y-134113666D03*
%TO.P,P1,3,3*%
%TO.N,unconnected-(P1-Pad3)*%
X155874724Y-134113666D03*
%TD*%
D18*
%TO.P,USB1,*%
%TO.N,*%
X161821874Y-134887563D03*
X167514063Y-133883876D03*
D19*
%TO.P,USB1,SHELL,SHELL*%
%TO.N,GND*%
X169561363Y-137259652D03*
D20*
X160326775Y-134643476D03*
D19*
X161052624Y-138759972D03*
D20*
X168835514Y-133143156D03*
%TD*%
D21*
%TO.P,U2,39_10,GND*%
%TO.N,GND*%
X157386279Y-91461689D03*
%TO.P,U2,39_11,GND*%
X157386279Y-93296689D03*
%TO.P,U2,39_12,GND*%
X156468779Y-90544189D03*
%TO.P,U2,39_13,GND*%
X156468779Y-92379189D03*
%TO.P,U2,39_14,GND*%
X156468779Y-94214189D03*
%TO.P,U2,39_15,GND*%
X155551279Y-91461689D03*
%TO.P,U2,39_16,GND*%
X155551279Y-93296689D03*
%TO.P,U2,39_17,GND*%
X154633779Y-90544189D03*
%TO.P,U2,39_18,GND*%
X154633779Y-92379189D03*
%TO.P,U2,39_19,GND*%
X154633779Y-94214189D03*
%TO.P,U2,39_20,GND*%
X153716279Y-91461689D03*
%TO.P,U2,39_21,GND*%
X153716279Y-93296689D03*
%TD*%
D22*
%TO.P,F2,1,1*%
%TO.N,Net-(F2-Pad1)*%
X154021135Y-127436524D03*
%TO.P,F2,2,2*%
%TO.N,Net-(F2-Pad2)*%
X148941125Y-127436524D03*
%TD*%
D23*
%TO.N,GND*%
X137769600Y-57226200D03*
X139960000Y-118358000D03*
X155168600Y-52552600D03*
X141833600Y-75412600D03*
X160578800Y-71247000D03*
X137724800Y-118358000D03*
X142220600Y-118358000D03*
%TO.N,+5V*%
X157169200Y-123958000D03*
X159054800Y-123958000D03*
X158978732Y-125298068D03*
%TD*%
D24*
%TO.N,GND*%
X141833600Y-75438000D02*
X146888200Y-80492600D01*
D25*
X141833600Y-75412600D02*
X140004800Y-77241400D01*
X137724800Y-118358000D02*
X142220600Y-118358000D01*
X140004800Y-77241400D02*
X140004800Y-116142200D01*
D26*
X160578800Y-71247000D02*
X162483800Y-69342000D01*
X162483800Y-69342000D02*
X162483800Y-66878200D01*
X134569200Y-60426600D02*
X134569200Y-68173600D01*
X137769600Y-57226200D02*
X134569200Y-60426600D01*
D25*
X140004800Y-116142200D02*
X142220600Y-118358000D01*
X141833600Y-75412600D02*
X141833600Y-75438000D01*
D24*
X146888200Y-80492600D02*
X151333200Y-80492600D01*
D26*
X162483800Y-57277000D02*
X156743400Y-51536600D01*
X162483800Y-66878200D02*
X162483800Y-57277000D01*
D24*
X151333200Y-80492600D02*
X160578800Y-71247000D01*
D26*
X156743400Y-51536600D02*
X156184600Y-51536600D01*
X134569200Y-68173600D02*
X141833600Y-75438000D01*
X156184600Y-51536600D02*
X155168600Y-52552600D01*
%TD*%
M02*
