%TF.GenerationSoftware,KiCad,Pcbnew,(6.0.4-0)*%
%TF.CreationDate,2022-06-21T16:19:06+02:00*%
%TF.ProjectId,GlowTowerPCB,476c6f77-546f-4776-9572-5043422e6b69,rev?*%
%TF.SameCoordinates,Original*%
%TF.FileFunction,Soldermask,Top*%
%TF.FilePolarity,Negative*%
%FSLAX46Y46*%
G04 Gerber Fmt 4.6, Leading zero omitted, Abs format (unit mm)*
G04 Created by KiCad (PCBNEW (6.0.4-0)) date 2022-06-21 16:19:06*
%MOMM*%
%LPD*%
G01*
G04 APERTURE LIST*
G04 Aperture macros list*
%AMRoundRect*
0 Rectangle with rounded corners*
0 $1 Rounding radius*
0 $2 $3 $4 $5 $6 $7 $8 $9 X,Y pos of 4 corners*
0 Add a 4 corners polygon primitive as box body*
4,1,4,$2,$3,$4,$5,$6,$7,$8,$9,$2,$3,0*
0 Add four circle primitives for the rounded corners*
1,1,$1+$1,$2,$3*
1,1,$1+$1,$4,$5*
1,1,$1+$1,$6,$7*
1,1,$1+$1,$8,$9*
0 Add four rect primitives between the rounded corners*
20,1,$1+$1,$2,$3,$4,$5,0*
20,1,$1+$1,$4,$5,$6,$7,0*
20,1,$1+$1,$6,$7,$8,$9,0*
20,1,$1+$1,$8,$9,$2,$3,0*%
%AMRotRect*
0 Rectangle, with rotation*
0 The origin of the aperture is its center*
0 $1 length*
0 $2 width*
0 $3 Rotation angle, in degrees counterclockwise*
0 Add horizontal line*
21,1,$1,$2,0,0,$3*%
G04 Aperture macros list end*
%ADD10R,1.050013X0.550013*%
%ADD11R,0.450013X1.400000*%
%ADD12R,2.400000X0.450013*%
%ADD13RoundRect,0.237500X0.250000X0.237500X-0.250000X0.237500X-0.250000X-0.237500X0.250000X-0.237500X0*%
%ADD14RoundRect,0.237500X-0.237500X0.250000X-0.237500X-0.250000X0.237500X-0.250000X0.237500X0.250000X0*%
%ADD15RoundRect,0.250000X0.400000X1.450000X-0.400000X1.450000X-0.400000X-1.450000X0.400000X-1.450000X0*%
%ADD16RotRect,2.000000X3.500000X45.000000*%
%ADD17RoundRect,0.237500X-0.300000X-0.237500X0.300000X-0.237500X0.300000X0.237500X-0.300000X0.237500X0*%
%ADD18C,4.249987*%
%ADD19C,6.428530*%
%ADD20RoundRect,0.237500X-0.250000X-0.237500X0.250000X-0.237500X0.250000X0.237500X-0.250000X0.237500X0*%
%ADD21R,1.700000X1.700000*%
%ADD22O,1.700000X1.700000*%
%ADD23R,0.900000X1.500000*%
%ADD24RoundRect,0.237500X0.237500X-0.300000X0.237500X0.300000X-0.237500X0.300000X-0.237500X-0.300000X0*%
%ADD25RotRect,2.000000X3.500000X135.000000*%
%ADD26RoundRect,0.237500X-0.237500X0.300000X-0.237500X-0.300000X0.237500X-0.300000X0.237500X0.300000X0*%
%ADD27RoundRect,0.237500X0.300000X0.237500X-0.300000X0.237500X-0.300000X-0.237500X0.300000X-0.237500X0*%
%ADD28C,1.800000*%
%ADD29O,1.600000X3.000000*%
%ADD30O,3.200000X1.600000*%
%ADD31C,2.300000*%
%ADD32RotRect,2.000000X3.500000X225.000000*%
%ADD33C,0.700025*%
%ADD34R,0.600000X1.300000*%
%ADD35R,0.300000X1.300000*%
%ADD36O,1.200000X1.800000*%
%ADD37O,1.200000X2.200000*%
%ADD38O,0.250013X0.750013*%
%ADD39R,0.900000X2.000000*%
%ADD40R,2.000000X0.900000*%
%ADD41R,1.330000X1.330000*%
%ADD42R,0.900000X0.280010*%
%ADD43R,0.280010X0.900000*%
%ADD44R,3.300000X3.300000*%
%ADD45RotRect,2.000000X3.500000X315.000000*%
%ADD46RoundRect,0.250000X-1.500000X-0.550000X1.500000X-0.550000X1.500000X0.550000X-1.500000X0.550000X0*%
%ADD47RoundRect,0.250000X-0.550000X1.500000X-0.550000X-1.500000X0.550000X-1.500000X0.550000X1.500000X0*%
%ADD48R,0.600000X0.419990*%
%ADD49R,1.500000X2.000000*%
%ADD50R,3.800000X2.000000*%
%ADD51C,2.000000*%
G04 APERTURE END LIST*
D10*
%TO.C,U10*%
X84185083Y-105025545D03*
X82834816Y-105025545D03*
X82834816Y-105875431D03*
X84185083Y-105875431D03*
D11*
X85234867Y-105450488D03*
D12*
X83509949Y-104225443D03*
D11*
X81785032Y-105450488D03*
D12*
X83509949Y-106675532D03*
%TD*%
D13*
%TO.C,R2*%
X94342500Y-74270000D03*
X92517500Y-74270000D03*
%TD*%
D14*
%TO.C,R4*%
X78310000Y-123717500D03*
X78310000Y-125542500D03*
%TD*%
D13*
%TO.C,R5*%
X95382500Y-48870000D03*
X93557500Y-48870000D03*
%TD*%
D15*
%TO.C,F1*%
X76245000Y-124520000D03*
X71795000Y-124520000D03*
%TD*%
D16*
%TO.C,U5*%
X82778671Y-62751329D03*
X80870000Y-64660000D03*
X78961331Y-66568669D03*
X77052661Y-68477338D03*
%TD*%
D17*
%TO.C,C13*%
X93357500Y-65940000D03*
X95082500Y-65940000D03*
%TD*%
D18*
%TO.C,U14*%
X92029970Y-60002540D03*
D19*
X92029970Y-60002540D03*
%TD*%
D20*
%TO.C,R6*%
X84637500Y-80610000D03*
X86462500Y-80610000D03*
%TD*%
D17*
%TO.C,C11*%
X73717500Y-102420000D03*
X75442500Y-102420000D03*
%TD*%
D21*
%TO.C,J1*%
X59060000Y-91310000D03*
D22*
X59060000Y-93850000D03*
X59060000Y-96390000D03*
X59060000Y-98930000D03*
X59060000Y-101470000D03*
X59060000Y-104010000D03*
X59060000Y-106550000D03*
%TD*%
D23*
%TO.C,SW2*%
X93752436Y-46719924D03*
X93752436Y-42920076D03*
X95252564Y-42920076D03*
X95252564Y-46719924D03*
%TD*%
%TO.C,SW3*%
X82937564Y-42980076D03*
X82937564Y-46779924D03*
X81437436Y-42980076D03*
X81437436Y-46779924D03*
%TD*%
D24*
%TO.C,C6*%
X86770000Y-106252500D03*
X86770000Y-104527500D03*
%TD*%
D25*
%TO.C,U8*%
X82750880Y-56893775D03*
X80842211Y-54985105D03*
X78933542Y-53076436D03*
X77024871Y-51167765D03*
%TD*%
D26*
%TO.C,C1*%
X91550000Y-70387500D03*
X91550000Y-72112500D03*
%TD*%
D18*
%TO.C,U12*%
X55720000Y-60002540D03*
D19*
X55720000Y-60002540D03*
%TD*%
D23*
%TO.C,SW1*%
X89947564Y-42980076D03*
X89947564Y-46779924D03*
X88447436Y-42980076D03*
X88447436Y-46779924D03*
%TD*%
D27*
%TO.C,C7*%
X88995000Y-115390000D03*
X87270000Y-115390000D03*
%TD*%
D28*
%TO.C,PWR1*%
X62856627Y-134016668D03*
D29*
X58006741Y-131266604D03*
X58006741Y-126566579D03*
X67706767Y-126566579D03*
X67706767Y-131266604D03*
D30*
X62856627Y-130766477D03*
D31*
X62856627Y-123066452D03*
%TD*%
D27*
%TO.C,C5*%
X90122500Y-80610000D03*
X88397500Y-80610000D03*
%TD*%
D32*
%TO.C,U7*%
X65243990Y-56946009D03*
X67152661Y-55037338D03*
X69061330Y-53128669D03*
X70970000Y-51220000D03*
%TD*%
D33*
%TO.C,USB1*%
X76910018Y-130732535D03*
X71129982Y-130732535D03*
D34*
X70820102Y-129489964D03*
X71619949Y-129489964D03*
D35*
X72770064Y-129489964D03*
X73770064Y-129489964D03*
X74269936Y-129489964D03*
X75269936Y-129489964D03*
D34*
X77219898Y-129489964D03*
X76420051Y-129489964D03*
D35*
X75770064Y-129489964D03*
X74770064Y-129489964D03*
X73269936Y-129489964D03*
X72269936Y-129489964D03*
D36*
X69699959Y-134412494D03*
X78340041Y-134412494D03*
D37*
X69699959Y-130232408D03*
X78340041Y-130232408D03*
%TD*%
D38*
%TO.C,U1*%
X93308039Y-71179911D03*
X93808166Y-71179911D03*
X94308039Y-71179911D03*
X94808166Y-71179911D03*
X94808166Y-68080089D03*
X94308039Y-68080089D03*
X93808166Y-68080089D03*
X93308039Y-68080089D03*
%TD*%
D20*
%TO.C,R7*%
X73667500Y-104340000D03*
X75492500Y-104340000D03*
%TD*%
D26*
%TO.C,C10*%
X62750000Y-98407500D03*
X62750000Y-100132500D03*
%TD*%
D39*
%TO.C,U2*%
X90183300Y-83025100D03*
X88913300Y-83025100D03*
X87643300Y-83025100D03*
X86373300Y-83025100D03*
X85103300Y-83025100D03*
X83833300Y-83025100D03*
X82563300Y-83025100D03*
X81293300Y-83025100D03*
X80023300Y-83025100D03*
X78753300Y-83025100D03*
X77483300Y-83025100D03*
X76213300Y-83025100D03*
X74943300Y-83025100D03*
X73673300Y-83025100D03*
D40*
X72673300Y-85810100D03*
X72673300Y-87080100D03*
X72673300Y-88350100D03*
X72673300Y-89620100D03*
X72673300Y-90890100D03*
X72673300Y-92160100D03*
X72673300Y-93430100D03*
X72673300Y-94700100D03*
X72673300Y-95970100D03*
X72673300Y-97240100D03*
D39*
X73673300Y-100025100D03*
X74943300Y-100025100D03*
X76213300Y-100025100D03*
X77483300Y-100025100D03*
X78753300Y-100025100D03*
X80023300Y-100025100D03*
X81293300Y-100025100D03*
X82563300Y-100025100D03*
X83833300Y-100025100D03*
X85103300Y-100025100D03*
X86373300Y-100025100D03*
X87643300Y-100025100D03*
X88913300Y-100025100D03*
X90183300Y-100025100D03*
D41*
X84518300Y-90525100D03*
X80848300Y-90525100D03*
X80848300Y-88690100D03*
X82683300Y-92360100D03*
X82683300Y-90525100D03*
X84518300Y-88690100D03*
X82683300Y-88690100D03*
X84518300Y-92360100D03*
X80848300Y-92360100D03*
%TD*%
D20*
%TO.C,R1*%
X88317500Y-48870000D03*
X90142500Y-48870000D03*
%TD*%
D42*
%TO.C,U3*%
X90480352Y-112325933D03*
X90480352Y-112826314D03*
X90480352Y-113326695D03*
X90480352Y-113827076D03*
X90480352Y-114327457D03*
X90480352Y-114827838D03*
X90480352Y-115328219D03*
D43*
X91479082Y-116327203D03*
X91979463Y-116327203D03*
X92479844Y-116327203D03*
X92980225Y-116327203D03*
X93480606Y-116327203D03*
X93980987Y-116327203D03*
X94481368Y-116327203D03*
D42*
X95480352Y-115328219D03*
X95480352Y-114827838D03*
X95480352Y-114327457D03*
X95480352Y-113827076D03*
X95480352Y-113326695D03*
X95480352Y-112826314D03*
X95480352Y-112325933D03*
D43*
X94481368Y-111327203D03*
X93980987Y-111327203D03*
X93480606Y-111327203D03*
X92980225Y-111327203D03*
X92479844Y-111327203D03*
X91979463Y-111327203D03*
X91479082Y-111327203D03*
D44*
X92980225Y-113827076D03*
%TD*%
D14*
%TO.C,R3*%
X80210000Y-123717500D03*
X80210000Y-125542500D03*
%TD*%
D45*
%TO.C,U6*%
X65232662Y-62732661D03*
X67141331Y-64641331D03*
X69050000Y-66550000D03*
X70958671Y-68458671D03*
%TD*%
D46*
%TO.C,C2*%
X55580000Y-113540000D03*
X61180000Y-113540000D03*
%TD*%
D19*
%TO.C,U13*%
X74129970Y-44582540D03*
%TD*%
D47*
%TO.C,C3*%
X74440000Y-73780000D03*
X74440000Y-79380000D03*
%TD*%
D26*
%TO.C,C9*%
X70400000Y-104987500D03*
X70400000Y-106712500D03*
%TD*%
D48*
%TO.C,U9*%
X91560038Y-106620013D03*
X91560038Y-107270000D03*
X91560038Y-107919987D03*
X93459962Y-107919987D03*
X93459962Y-107270000D03*
X93459962Y-106620013D03*
%TD*%
D49*
%TO.C,U4*%
X63470000Y-106292500D03*
X65770000Y-106292500D03*
X68070000Y-106292500D03*
D50*
X65770000Y-99992500D03*
%TD*%
D17*
%TO.C,C8*%
X84687500Y-78750000D03*
X86412500Y-78750000D03*
%TD*%
D19*
%TO.C,U11*%
X74089970Y-112902540D03*
%TD*%
D17*
%TO.C,C4*%
X87277500Y-117150000D03*
X89002500Y-117150000D03*
%TD*%
D51*
%TO.C,F2*%
X57789865Y-120029876D03*
X62869875Y-120029876D03*
%TD*%
D24*
%TO.C,C12*%
X88580000Y-106252500D03*
X88580000Y-104527500D03*
%TD*%
M02*
