%TF.GenerationSoftware,KiCad,Pcbnew,(6.0.6-0)*%
%TF.CreationDate,2022-07-27T22:33:04+02:00*%
%TF.ProjectId,GlowTowerPCB,476c6f77-546f-4776-9572-5043422e6b69,rev?*%
%TF.SameCoordinates,Original*%
%TF.FileFunction,Other,Comment*%
%FSLAX46Y46*%
G04 Gerber Fmt 4.6, Leading zero omitted, Abs format (unit mm)*
G04 Created by KiCad (PCBNEW (6.0.6-0)) date 2022-07-27 22:33:04*
%MOMM*%
%LPD*%
G01*
G04 APERTURE LIST*
%ADD10C,0.150000*%
%ADD11C,0.100000*%
G04 APERTURE END LIST*
D10*
%TO.C,U2*%
X95079666Y-94269104D02*
X95079666Y-93792914D01*
X95365380Y-94364342D02*
X94365380Y-94031009D01*
X95365380Y-93697676D01*
X94698714Y-93364342D02*
X95365380Y-93364342D01*
X94793952Y-93364342D02*
X94746333Y-93316723D01*
X94698714Y-93221485D01*
X94698714Y-93078628D01*
X94746333Y-92983390D01*
X94841571Y-92935771D01*
X95365380Y-92935771D01*
X94698714Y-92602438D02*
X94698714Y-92221485D01*
X94365380Y-92459580D02*
X95222523Y-92459580D01*
X95317761Y-92411961D01*
X95365380Y-92316723D01*
X95365380Y-92221485D01*
X95317761Y-91507200D02*
X95365380Y-91602438D01*
X95365380Y-91792914D01*
X95317761Y-91888152D01*
X95222523Y-91935771D01*
X94841571Y-91935771D01*
X94746333Y-91888152D01*
X94698714Y-91792914D01*
X94698714Y-91602438D01*
X94746333Y-91507200D01*
X94841571Y-91459580D01*
X94936809Y-91459580D01*
X95032047Y-91935771D01*
X94698714Y-91031009D02*
X95365380Y-91031009D01*
X94793952Y-91031009D02*
X94746333Y-90983390D01*
X94698714Y-90888152D01*
X94698714Y-90745295D01*
X94746333Y-90650057D01*
X94841571Y-90602438D01*
X95365380Y-90602438D01*
X94698714Y-90126247D02*
X95365380Y-90126247D01*
X94793952Y-90126247D02*
X94746333Y-90078628D01*
X94698714Y-89983390D01*
X94698714Y-89840533D01*
X94746333Y-89745295D01*
X94841571Y-89697676D01*
X95365380Y-89697676D01*
X95365380Y-88792914D02*
X94841571Y-88792914D01*
X94746333Y-88840533D01*
X94698714Y-88935771D01*
X94698714Y-89126247D01*
X94746333Y-89221485D01*
X95317761Y-88792914D02*
X95365380Y-88888152D01*
X95365380Y-89126247D01*
X95317761Y-89221485D01*
X95222523Y-89269104D01*
X95127285Y-89269104D01*
X95032047Y-89221485D01*
X94984428Y-89126247D01*
X94984428Y-88888152D01*
X94936809Y-88792914D01*
D11*
X100249904Y-99033390D02*
X100011809Y-99033390D01*
X99988000Y-99271485D01*
X100011809Y-99247676D01*
X100059428Y-99223866D01*
X100178476Y-99223866D01*
X100226095Y-99247676D01*
X100249904Y-99271485D01*
X100273714Y-99319104D01*
X100273714Y-99438152D01*
X100249904Y-99485771D01*
X100226095Y-99509580D01*
X100178476Y-99533390D01*
X100059428Y-99533390D01*
X100011809Y-99509580D01*
X99988000Y-99485771D01*
X100868952Y-99533390D02*
X100868952Y-99200057D01*
X100868952Y-99247676D02*
X100892761Y-99223866D01*
X100940380Y-99200057D01*
X101011809Y-99200057D01*
X101059428Y-99223866D01*
X101083238Y-99271485D01*
X101083238Y-99533390D01*
X101083238Y-99271485D02*
X101107047Y-99223866D01*
X101154666Y-99200057D01*
X101226095Y-99200057D01*
X101273714Y-99223866D01*
X101297523Y-99271485D01*
X101297523Y-99533390D01*
X101535619Y-99533390D02*
X101535619Y-99200057D01*
X101535619Y-99247676D02*
X101559428Y-99223866D01*
X101607047Y-99200057D01*
X101678476Y-99200057D01*
X101726095Y-99223866D01*
X101749904Y-99271485D01*
X101749904Y-99533390D01*
X101749904Y-99271485D02*
X101773714Y-99223866D01*
X101821333Y-99200057D01*
X101892761Y-99200057D01*
X101940380Y-99223866D01*
X101964190Y-99271485D01*
X101964190Y-99533390D01*
X96014190Y-104045295D02*
X96014190Y-104283390D01*
X96252285Y-104307200D01*
X96228476Y-104283390D01*
X96204666Y-104235771D01*
X96204666Y-104116723D01*
X96228476Y-104069104D01*
X96252285Y-104045295D01*
X96299904Y-104021485D01*
X96418952Y-104021485D01*
X96466571Y-104045295D01*
X96490380Y-104069104D01*
X96514190Y-104116723D01*
X96514190Y-104235771D01*
X96490380Y-104283390D01*
X96466571Y-104307200D01*
X96514190Y-103426247D02*
X96180857Y-103426247D01*
X96228476Y-103426247D02*
X96204666Y-103402438D01*
X96180857Y-103354819D01*
X96180857Y-103283390D01*
X96204666Y-103235771D01*
X96252285Y-103211961D01*
X96514190Y-103211961D01*
X96252285Y-103211961D02*
X96204666Y-103188152D01*
X96180857Y-103140533D01*
X96180857Y-103069104D01*
X96204666Y-103021485D01*
X96252285Y-102997676D01*
X96514190Y-102997676D01*
X96514190Y-102759580D02*
X96180857Y-102759580D01*
X96228476Y-102759580D02*
X96204666Y-102735771D01*
X96180857Y-102688152D01*
X96180857Y-102616723D01*
X96204666Y-102569104D01*
X96252285Y-102545295D01*
X96514190Y-102545295D01*
X96252285Y-102545295D02*
X96204666Y-102521485D01*
X96180857Y-102473866D01*
X96180857Y-102402438D01*
X96204666Y-102354819D01*
X96252285Y-102331009D01*
X96514190Y-102331009D01*
D10*
X101365380Y-97578628D02*
X100365380Y-97578628D01*
X101365380Y-97007200D02*
X100793952Y-97435771D01*
X100365380Y-97007200D02*
X100936809Y-97578628D01*
X100841571Y-96578628D02*
X100841571Y-96245295D01*
X101365380Y-96102438D02*
X101365380Y-96578628D01*
X100365380Y-96578628D01*
X100365380Y-96102438D01*
X100841571Y-95673866D02*
X100841571Y-95340533D01*
X101365380Y-95197676D02*
X101365380Y-95673866D01*
X100365380Y-95673866D01*
X100365380Y-95197676D01*
X101365380Y-94769104D02*
X100365380Y-94769104D01*
X100365380Y-94388152D01*
X100413000Y-94292914D01*
X100460619Y-94245295D01*
X100555857Y-94197676D01*
X100698714Y-94197676D01*
X100793952Y-94245295D01*
X100841571Y-94292914D01*
X100889190Y-94388152D01*
X100889190Y-94769104D01*
X100984428Y-93769104D02*
X100984428Y-93007200D01*
X100365380Y-92340533D02*
X100365380Y-92150057D01*
X100413000Y-92054819D01*
X100508238Y-91959580D01*
X100698714Y-91911961D01*
X101032047Y-91911961D01*
X101222523Y-91959580D01*
X101317761Y-92054819D01*
X101365380Y-92150057D01*
X101365380Y-92340533D01*
X101317761Y-92435771D01*
X101222523Y-92531009D01*
X101032047Y-92578628D01*
X100698714Y-92578628D01*
X100508238Y-92531009D01*
X100413000Y-92435771D01*
X100365380Y-92340533D01*
X100365380Y-91483390D02*
X101174904Y-91483390D01*
X101270142Y-91435771D01*
X101317761Y-91388152D01*
X101365380Y-91292914D01*
X101365380Y-91102438D01*
X101317761Y-91007200D01*
X101270142Y-90959580D01*
X101174904Y-90911961D01*
X100365380Y-90911961D01*
X100365380Y-90578628D02*
X100365380Y-90007200D01*
X101365380Y-90292914D02*
X100365380Y-90292914D01*
X100365380Y-89007200D02*
X100365380Y-88340533D01*
X101365380Y-89007200D01*
X101365380Y-88340533D01*
X100365380Y-87769104D02*
X100365380Y-87578628D01*
X100413000Y-87483390D01*
X100508238Y-87388152D01*
X100698714Y-87340533D01*
X101032047Y-87340533D01*
X101222523Y-87388152D01*
X101317761Y-87483390D01*
X101365380Y-87578628D01*
X101365380Y-87769104D01*
X101317761Y-87864342D01*
X101222523Y-87959580D01*
X101032047Y-88007200D01*
X100698714Y-88007200D01*
X100508238Y-87959580D01*
X100413000Y-87864342D01*
X100365380Y-87769104D01*
X101365380Y-86911961D02*
X100365380Y-86911961D01*
X101365380Y-86340533D01*
X100365380Y-86340533D01*
X100841571Y-85864342D02*
X100841571Y-85531009D01*
X101365380Y-85388152D02*
X101365380Y-85864342D01*
X100365380Y-85864342D01*
X100365380Y-85388152D01*
D11*
X96014190Y-81045295D02*
X96014190Y-81283390D01*
X96252285Y-81307200D01*
X96228476Y-81283390D01*
X96204666Y-81235771D01*
X96204666Y-81116723D01*
X96228476Y-81069104D01*
X96252285Y-81045295D01*
X96299904Y-81021485D01*
X96418952Y-81021485D01*
X96466571Y-81045295D01*
X96490380Y-81069104D01*
X96514190Y-81116723D01*
X96514190Y-81235771D01*
X96490380Y-81283390D01*
X96466571Y-81307200D01*
X96514190Y-80426247D02*
X96180857Y-80426247D01*
X96228476Y-80426247D02*
X96204666Y-80402438D01*
X96180857Y-80354819D01*
X96180857Y-80283390D01*
X96204666Y-80235771D01*
X96252285Y-80211961D01*
X96514190Y-80211961D01*
X96252285Y-80211961D02*
X96204666Y-80188152D01*
X96180857Y-80140533D01*
X96180857Y-80069104D01*
X96204666Y-80021485D01*
X96252285Y-79997676D01*
X96514190Y-79997676D01*
X96514190Y-79759580D02*
X96180857Y-79759580D01*
X96228476Y-79759580D02*
X96204666Y-79735771D01*
X96180857Y-79688152D01*
X96180857Y-79616723D01*
X96204666Y-79569104D01*
X96252285Y-79545295D01*
X96514190Y-79545295D01*
X96252285Y-79545295D02*
X96204666Y-79521485D01*
X96180857Y-79473866D01*
X96180857Y-79402438D01*
X96204666Y-79354819D01*
X96252285Y-79331009D01*
X96514190Y-79331009D01*
X95788000Y-105307200D02*
X95588000Y-105107200D01*
X102513000Y-99907200D02*
X102313000Y-99707200D01*
X95788000Y-82307200D02*
X95588000Y-82107200D01*
X97913000Y-99907200D02*
X98113000Y-100107200D01*
X102513000Y-99907200D02*
X102313000Y-100107200D01*
X95788000Y-77707200D02*
X95588000Y-77907200D01*
X95788000Y-100707200D02*
X95988000Y-100907200D01*
X95788000Y-77707200D02*
X95788000Y-82307200D01*
X97913000Y-99907200D02*
X102513000Y-99907200D01*
X95788000Y-100707200D02*
X95788000Y-105307200D01*
X95788000Y-82307200D02*
X95988000Y-82107200D01*
X95788000Y-105307200D02*
X95988000Y-105107200D01*
X97913000Y-99907200D02*
X98113000Y-99707200D01*
X95788000Y-77707200D02*
X95988000Y-77907200D01*
X95788000Y-100707200D02*
X95588000Y-100907200D01*
%TD*%
M02*
