%TF.GenerationSoftware,KiCad,Pcbnew,(6.0.6-0)*%
%TF.CreationDate,2022-07-27T22:33:04+02:00*%
%TF.ProjectId,GlowTowerPCB,476c6f77-546f-4776-9572-5043422e6b69,rev?*%
%TF.SameCoordinates,Original*%
%TF.FileFunction,Legend,Bot*%
%TF.FilePolarity,Positive*%
%FSLAX46Y46*%
G04 Gerber Fmt 4.6, Leading zero omitted, Abs format (unit mm)*
G04 Created by KiCad (PCBNEW (6.0.6-0)) date 2022-07-27 22:33:04*
%MOMM*%
%LPD*%
G01*
G04 APERTURE LIST*
%ADD10C,0.150000*%
%ADD11C,4.300000*%
%ADD12R,1.700000X1.700000*%
%ADD13O,1.700000X1.700000*%
%ADD14C,2.300000*%
%ADD15O,3.200000X1.600000*%
%ADD16O,1.600000X3.000000*%
%ADD17C,1.800000*%
%ADD18O,1.200000X2.200000*%
%ADD19O,1.200000X1.800000*%
%ADD20C,0.700025*%
%ADD21C,2.000000*%
%ADD22C,0.800000*%
%ADD23C,1.300000*%
G04 APERTURE END LIST*
D10*
X75880952Y-132297380D02*
X75880952Y-131297380D01*
X75404761Y-131630714D02*
X75404761Y-132297380D01*
X75404761Y-131725952D02*
X75357142Y-131678333D01*
X75261904Y-131630714D01*
X75119047Y-131630714D01*
X75023809Y-131678333D01*
X74976190Y-131773571D01*
X74976190Y-132297380D01*
X74500000Y-131630714D02*
X74500000Y-132630714D01*
X74500000Y-131678333D02*
X74404761Y-131630714D01*
X74214285Y-131630714D01*
X74119047Y-131678333D01*
X74071428Y-131725952D01*
X74023809Y-131821190D01*
X74023809Y-132106904D01*
X74071428Y-132202142D01*
X74119047Y-132249761D01*
X74214285Y-132297380D01*
X74404761Y-132297380D01*
X74500000Y-132249761D01*
X73166666Y-131630714D02*
X73166666Y-132297380D01*
X73595238Y-131630714D02*
X73595238Y-132154523D01*
X73547619Y-132249761D01*
X73452380Y-132297380D01*
X73309523Y-132297380D01*
X73214285Y-132249761D01*
X73166666Y-132202142D01*
X72833333Y-131630714D02*
X72452380Y-131630714D01*
X72690476Y-131297380D02*
X72690476Y-132154523D01*
X72642857Y-132249761D01*
X72547619Y-132297380D01*
X72452380Y-132297380D01*
X72119047Y-132202142D02*
X72071428Y-132249761D01*
X72119047Y-132297380D01*
X72166666Y-132249761D01*
X72119047Y-132202142D01*
X72119047Y-132297380D01*
X72119047Y-131678333D02*
X72071428Y-131725952D01*
X72119047Y-131773571D01*
X72166666Y-131725952D01*
X72119047Y-131678333D01*
X72119047Y-131773571D01*
X75714285Y-132907380D02*
X76190476Y-132907380D01*
X76238095Y-133383571D01*
X76190476Y-133335952D01*
X76095238Y-133288333D01*
X75857142Y-133288333D01*
X75761904Y-133335952D01*
X75714285Y-133383571D01*
X75666666Y-133478809D01*
X75666666Y-133716904D01*
X75714285Y-133812142D01*
X75761904Y-133859761D01*
X75857142Y-133907380D01*
X76095238Y-133907380D01*
X76190476Y-133859761D01*
X76238095Y-133812142D01*
X75380952Y-132907380D02*
X75047619Y-133907380D01*
X74714285Y-132907380D01*
X74333333Y-133859761D02*
X74333333Y-133907380D01*
X74380952Y-134002619D01*
X74428571Y-134050238D01*
X73238095Y-132907380D02*
X72619047Y-132907380D01*
X72952380Y-133288333D01*
X72809523Y-133288333D01*
X72714285Y-133335952D01*
X72666666Y-133383571D01*
X72619047Y-133478809D01*
X72619047Y-133716904D01*
X72666666Y-133812142D01*
X72714285Y-133859761D01*
X72809523Y-133907380D01*
X73095238Y-133907380D01*
X73190476Y-133859761D01*
X73238095Y-133812142D01*
X72238095Y-133621666D02*
X71761904Y-133621666D01*
X72333333Y-133907380D02*
X72000000Y-132907380D01*
X71666666Y-133907380D01*
X57312023Y-91543904D02*
X57312023Y-90743904D01*
X56778690Y-90743904D02*
X56626309Y-90743904D01*
X56550119Y-90782000D01*
X56473928Y-90858190D01*
X56435833Y-91010571D01*
X56435833Y-91277238D01*
X56473928Y-91429619D01*
X56550119Y-91505809D01*
X56626309Y-91543904D01*
X56778690Y-91543904D01*
X56854880Y-91505809D01*
X56931071Y-91429619D01*
X56969166Y-91277238D01*
X56969166Y-91010571D01*
X56931071Y-90858190D01*
X56854880Y-90782000D01*
X56778690Y-90743904D01*
X55673928Y-91543904D02*
X56131071Y-91543904D01*
X55902500Y-91543904D02*
X55902500Y-90743904D01*
X55978690Y-90858190D01*
X56054880Y-90934380D01*
X56131071Y-90972476D01*
X55369166Y-90820095D02*
X55331071Y-90782000D01*
X55254880Y-90743904D01*
X55064404Y-90743904D01*
X54988214Y-90782000D01*
X54950119Y-90820095D01*
X54912023Y-90896285D01*
X54912023Y-90972476D01*
X54950119Y-91086761D01*
X55407261Y-91543904D01*
X54912023Y-91543904D01*
X57312023Y-94119904D02*
X57312023Y-93319904D01*
X56778690Y-93319904D02*
X56626309Y-93319904D01*
X56550119Y-93358000D01*
X56473928Y-93434190D01*
X56435833Y-93586571D01*
X56435833Y-93853238D01*
X56473928Y-94005619D01*
X56550119Y-94081809D01*
X56626309Y-94119904D01*
X56778690Y-94119904D01*
X56854880Y-94081809D01*
X56931071Y-94005619D01*
X56969166Y-93853238D01*
X56969166Y-93586571D01*
X56931071Y-93434190D01*
X56854880Y-93358000D01*
X56778690Y-93319904D01*
X55673928Y-94119904D02*
X56131071Y-94119904D01*
X55902500Y-94119904D02*
X55902500Y-93319904D01*
X55978690Y-93434190D01*
X56054880Y-93510380D01*
X56131071Y-93548476D01*
X55407261Y-93319904D02*
X54912023Y-93319904D01*
X55178690Y-93624666D01*
X55064404Y-93624666D01*
X54988214Y-93662761D01*
X54950119Y-93700857D01*
X54912023Y-93777047D01*
X54912023Y-93967523D01*
X54950119Y-94043714D01*
X54988214Y-94081809D01*
X55064404Y-94119904D01*
X55292976Y-94119904D01*
X55369166Y-94081809D01*
X55407261Y-94043714D01*
X57312023Y-96695904D02*
X57312023Y-95895904D01*
X56778690Y-95895904D02*
X56626309Y-95895904D01*
X56550119Y-95934000D01*
X56473928Y-96010190D01*
X56435833Y-96162571D01*
X56435833Y-96429238D01*
X56473928Y-96581619D01*
X56550119Y-96657809D01*
X56626309Y-96695904D01*
X56778690Y-96695904D01*
X56854880Y-96657809D01*
X56931071Y-96581619D01*
X56969166Y-96429238D01*
X56969166Y-96162571D01*
X56931071Y-96010190D01*
X56854880Y-95934000D01*
X56778690Y-95895904D01*
X56131071Y-95972095D02*
X56092976Y-95934000D01*
X56016785Y-95895904D01*
X55826309Y-95895904D01*
X55750119Y-95934000D01*
X55712023Y-95972095D01*
X55673928Y-96048285D01*
X55673928Y-96124476D01*
X55712023Y-96238761D01*
X56169166Y-96695904D01*
X55673928Y-96695904D01*
X54950119Y-95895904D02*
X55331071Y-95895904D01*
X55369166Y-96276857D01*
X55331071Y-96238761D01*
X55254880Y-96200666D01*
X55064404Y-96200666D01*
X54988214Y-96238761D01*
X54950119Y-96276857D01*
X54912023Y-96353047D01*
X54912023Y-96543523D01*
X54950119Y-96619714D01*
X54988214Y-96657809D01*
X55064404Y-96695904D01*
X55254880Y-96695904D01*
X55331071Y-96657809D01*
X55369166Y-96619714D01*
X57312023Y-99271904D02*
X57312023Y-98471904D01*
X56778690Y-98471904D02*
X56626309Y-98471904D01*
X56550119Y-98510000D01*
X56473928Y-98586190D01*
X56435833Y-98738571D01*
X56435833Y-99005238D01*
X56473928Y-99157619D01*
X56550119Y-99233809D01*
X56626309Y-99271904D01*
X56778690Y-99271904D01*
X56854880Y-99233809D01*
X56931071Y-99157619D01*
X56969166Y-99005238D01*
X56969166Y-98738571D01*
X56931071Y-98586190D01*
X56854880Y-98510000D01*
X56778690Y-98471904D01*
X56131071Y-98548095D02*
X56092976Y-98510000D01*
X56016785Y-98471904D01*
X55826309Y-98471904D01*
X55750119Y-98510000D01*
X55712023Y-98548095D01*
X55673928Y-98624285D01*
X55673928Y-98700476D01*
X55712023Y-98814761D01*
X56169166Y-99271904D01*
X55673928Y-99271904D01*
X54988214Y-98471904D02*
X55140595Y-98471904D01*
X55216785Y-98510000D01*
X55254880Y-98548095D01*
X55331071Y-98662380D01*
X55369166Y-98814761D01*
X55369166Y-99119523D01*
X55331071Y-99195714D01*
X55292976Y-99233809D01*
X55216785Y-99271904D01*
X55064404Y-99271904D01*
X54988214Y-99233809D01*
X54950119Y-99195714D01*
X54912023Y-99119523D01*
X54912023Y-98929047D01*
X54950119Y-98852857D01*
X54988214Y-98814761D01*
X55064404Y-98776666D01*
X55216785Y-98776666D01*
X55292976Y-98814761D01*
X55331071Y-98852857D01*
X55369166Y-98929047D01*
X57388214Y-101047904D02*
X56892976Y-101047904D01*
X57159642Y-101352666D01*
X57045357Y-101352666D01*
X56969166Y-101390761D01*
X56931071Y-101428857D01*
X56892976Y-101505047D01*
X56892976Y-101695523D01*
X56931071Y-101771714D01*
X56969166Y-101809809D01*
X57045357Y-101847904D01*
X57273928Y-101847904D01*
X57350119Y-101809809D01*
X57388214Y-101771714D01*
X56550119Y-101771714D02*
X56512023Y-101809809D01*
X56550119Y-101847904D01*
X56588214Y-101809809D01*
X56550119Y-101771714D01*
X56550119Y-101847904D01*
X56245357Y-101047904D02*
X55750119Y-101047904D01*
X56016785Y-101352666D01*
X55902500Y-101352666D01*
X55826309Y-101390761D01*
X55788214Y-101428857D01*
X55750119Y-101505047D01*
X55750119Y-101695523D01*
X55788214Y-101771714D01*
X55826309Y-101809809D01*
X55902500Y-101847904D01*
X56131071Y-101847904D01*
X56207261Y-101809809D01*
X56245357Y-101771714D01*
X55521547Y-101047904D02*
X55254880Y-101847904D01*
X54988214Y-101047904D01*
X56931071Y-103623904D02*
X57312023Y-103623904D01*
X57350119Y-104004857D01*
X57312023Y-103966761D01*
X57235833Y-103928666D01*
X57045357Y-103928666D01*
X56969166Y-103966761D01*
X56931071Y-104004857D01*
X56892976Y-104081047D01*
X56892976Y-104271523D01*
X56931071Y-104347714D01*
X56969166Y-104385809D01*
X57045357Y-104423904D01*
X57235833Y-104423904D01*
X57312023Y-104385809D01*
X57350119Y-104347714D01*
X56664404Y-103623904D02*
X56397738Y-104423904D01*
X56131071Y-103623904D01*
X56892976Y-106238000D02*
X56969166Y-106199904D01*
X57083452Y-106199904D01*
X57197738Y-106238000D01*
X57273928Y-106314190D01*
X57312023Y-106390380D01*
X57350119Y-106542761D01*
X57350119Y-106657047D01*
X57312023Y-106809428D01*
X57273928Y-106885619D01*
X57197738Y-106961809D01*
X57083452Y-106999904D01*
X57007261Y-106999904D01*
X56892976Y-106961809D01*
X56854880Y-106923714D01*
X56854880Y-106657047D01*
X57007261Y-106657047D01*
X56512023Y-106999904D02*
X56512023Y-106199904D01*
X56054880Y-106999904D01*
X56054880Y-106199904D01*
X55673928Y-106999904D02*
X55673928Y-106199904D01*
X55483452Y-106199904D01*
X55369166Y-106238000D01*
X55292976Y-106314190D01*
X55254880Y-106390380D01*
X55216785Y-106542761D01*
X55216785Y-106657047D01*
X55254880Y-106809428D01*
X55292976Y-106885619D01*
X55369166Y-106961809D01*
X55483452Y-106999904D01*
X55673928Y-106999904D01*
X64680952Y-126937380D02*
X64680952Y-125937380D01*
X64204761Y-126270714D02*
X64204761Y-126937380D01*
X64204761Y-126365952D02*
X64157142Y-126318333D01*
X64061904Y-126270714D01*
X63919047Y-126270714D01*
X63823809Y-126318333D01*
X63776190Y-126413571D01*
X63776190Y-126937380D01*
X63300000Y-126270714D02*
X63300000Y-127270714D01*
X63300000Y-126318333D02*
X63204761Y-126270714D01*
X63014285Y-126270714D01*
X62919047Y-126318333D01*
X62871428Y-126365952D01*
X62823809Y-126461190D01*
X62823809Y-126746904D01*
X62871428Y-126842142D01*
X62919047Y-126889761D01*
X63014285Y-126937380D01*
X63204761Y-126937380D01*
X63300000Y-126889761D01*
X61966666Y-126270714D02*
X61966666Y-126937380D01*
X62395238Y-126270714D02*
X62395238Y-126794523D01*
X62347619Y-126889761D01*
X62252380Y-126937380D01*
X62109523Y-126937380D01*
X62014285Y-126889761D01*
X61966666Y-126842142D01*
X61633333Y-126270714D02*
X61252380Y-126270714D01*
X61490476Y-125937380D02*
X61490476Y-126794523D01*
X61442857Y-126889761D01*
X61347619Y-126937380D01*
X61252380Y-126937380D01*
X60919047Y-126842142D02*
X60871428Y-126889761D01*
X60919047Y-126937380D01*
X60966666Y-126889761D01*
X60919047Y-126842142D01*
X60919047Y-126937380D01*
X60919047Y-126318333D02*
X60871428Y-126365952D01*
X60919047Y-126413571D01*
X60966666Y-126365952D01*
X60919047Y-126318333D01*
X60919047Y-126413571D01*
X64514285Y-127547380D02*
X64990476Y-127547380D01*
X65038095Y-128023571D01*
X64990476Y-127975952D01*
X64895238Y-127928333D01*
X64657142Y-127928333D01*
X64561904Y-127975952D01*
X64514285Y-128023571D01*
X64466666Y-128118809D01*
X64466666Y-128356904D01*
X64514285Y-128452142D01*
X64561904Y-128499761D01*
X64657142Y-128547380D01*
X64895238Y-128547380D01*
X64990476Y-128499761D01*
X65038095Y-128452142D01*
X64180952Y-127547380D02*
X63847619Y-128547380D01*
X63514285Y-127547380D01*
X63133333Y-128499761D02*
X63133333Y-128547380D01*
X63180952Y-128642619D01*
X63228571Y-128690238D01*
X61800000Y-127975952D02*
X61895238Y-127928333D01*
X61942857Y-127880714D01*
X61990476Y-127785476D01*
X61990476Y-127737857D01*
X61942857Y-127642619D01*
X61895238Y-127595000D01*
X61800000Y-127547380D01*
X61609523Y-127547380D01*
X61514285Y-127595000D01*
X61466666Y-127642619D01*
X61419047Y-127737857D01*
X61419047Y-127785476D01*
X61466666Y-127880714D01*
X61514285Y-127928333D01*
X61609523Y-127975952D01*
X61800000Y-127975952D01*
X61895238Y-128023571D01*
X61942857Y-128071190D01*
X61990476Y-128166428D01*
X61990476Y-128356904D01*
X61942857Y-128452142D01*
X61895238Y-128499761D01*
X61800000Y-128547380D01*
X61609523Y-128547380D01*
X61514285Y-128499761D01*
X61466666Y-128452142D01*
X61419047Y-128356904D01*
X61419047Y-128166428D01*
X61466666Y-128071190D01*
X61514285Y-128023571D01*
X61609523Y-127975952D01*
X61038095Y-128261666D02*
X60561904Y-128261666D01*
X61133333Y-128547380D02*
X60800000Y-127547380D01*
X60466666Y-128547380D01*
%LPC*%
D11*
%TO.C,U14*%
X92029970Y-60002540D03*
%TD*%
D12*
%TO.C,J1*%
X59060000Y-91310000D03*
D13*
X59060000Y-93850000D03*
X59060000Y-96390000D03*
X59060000Y-98930000D03*
X59060000Y-101470000D03*
X59060000Y-104010000D03*
X59060000Y-106550000D03*
%TD*%
D11*
%TO.C,U12*%
X55720000Y-60002540D03*
%TD*%
D14*
%TO.C,PWR1*%
X62856627Y-123066452D03*
D15*
X62856627Y-130766477D03*
D16*
X67706767Y-131266604D03*
X67706767Y-126566579D03*
X58006741Y-126566579D03*
X58006741Y-131266604D03*
D17*
X62856627Y-134016668D03*
%TD*%
D18*
%TO.C,USB1*%
X78340041Y-130232408D03*
X69699959Y-130232408D03*
D19*
X78340041Y-134412494D03*
X69699959Y-134412494D03*
D20*
X71129982Y-130732535D03*
X76910018Y-130732535D03*
%TD*%
D11*
%TO.C,U13*%
X74129970Y-44582540D03*
%TD*%
%TO.C,U11*%
X74089970Y-112902540D03*
%TD*%
D21*
%TO.C,F2*%
X57789865Y-120029876D03*
X62869875Y-120029876D03*
%TD*%
D22*
X71729600Y-99263200D03*
X74642879Y-101550609D03*
D23*
X83260000Y-130960000D03*
X85760000Y-44840000D03*
D22*
X66870000Y-96930000D03*
X95090000Y-64724500D03*
X65050000Y-101890000D03*
X83520000Y-103340000D03*
X82240000Y-94640000D03*
X83491860Y-101697402D03*
X71310000Y-104130000D03*
X63910000Y-97670000D03*
X88570000Y-113010000D03*
X65750000Y-110590000D03*
X81560000Y-123780000D03*
X64600000Y-109630000D03*
X84390000Y-94570000D03*
X85570000Y-40700000D03*
X76580000Y-102020000D03*
X84660000Y-97960000D03*
X63910000Y-88510000D03*
X67060000Y-111400000D03*
X87070000Y-118480000D03*
X68520000Y-100270000D03*
X89090000Y-84960000D03*
X88145415Y-79664585D03*
X67390000Y-104120000D03*
X88850000Y-118510000D03*
X89340000Y-77820000D03*
X78680000Y-109270000D03*
X70300000Y-87850000D03*
X77640000Y-116350000D03*
X75300000Y-117860000D03*
X78410000Y-117190000D03*
X61530000Y-115540000D03*
X62760000Y-115510000D03*
X60730000Y-114860000D03*
X52940000Y-113630000D03*
X53024569Y-115769975D03*
X54137272Y-114657272D03*
X75130000Y-96020000D03*
X81190000Y-103840000D03*
X81100000Y-106910000D03*
X77400000Y-97890000D03*
X74850000Y-87520000D03*
X79110000Y-88710000D03*
X86360000Y-87510000D03*
X85689986Y-106829882D03*
X86490000Y-77200000D03*
X94930000Y-106670000D03*
X87740000Y-86400000D03*
X90710000Y-50510000D03*
X78640000Y-84970000D03*
X67350000Y-89040000D03*
X76220000Y-88710000D03*
X68160000Y-90180000D03*
X91460000Y-74390000D03*
X82860000Y-67960000D03*
X88660000Y-95690000D03*
X77330000Y-107720000D03*
X74690000Y-97590000D03*
X78450000Y-96990000D03*
X93590000Y-50450000D03*
X90600000Y-107840000D03*
X94130000Y-69260000D03*
X90210000Y-73020000D03*
X87760000Y-76580000D03*
X80500000Y-85420000D03*
X74810000Y-131540000D03*
X84930000Y-114000000D03*
X85980000Y-114630000D03*
X80130000Y-131980000D03*
X93010000Y-108740000D03*
X91460000Y-110350000D03*
X64960000Y-66720000D03*
X64990000Y-53000000D03*
X87880000Y-57690000D03*
X79470000Y-70780000D03*
X90090000Y-71500000D03*
X80025150Y-79304850D03*
X72680000Y-78250000D03*
X64910000Y-49680000D03*
X71160000Y-78350000D03*
X66720000Y-68840000D03*
X81580000Y-51070000D03*
X72750000Y-79800000D03*
X71450000Y-79720000D03*
X81280000Y-69030000D03*
X69400000Y-98890000D03*
X60320000Y-109880000D03*
X79390000Y-103510000D03*
X79502000Y-98044000D03*
M02*
