%TF.GenerationSoftware,KiCad,Pcbnew,(6.0.6-0)*%
%TF.CreationDate,2022-07-27T22:33:04+02:00*%
%TF.ProjectId,GlowTowerPCB,476c6f77-546f-4776-9572-5043422e6b69,rev?*%
%TF.SameCoordinates,Original*%
%TF.FileFunction,Soldermask,Top*%
%TF.FilePolarity,Negative*%
%FSLAX46Y46*%
G04 Gerber Fmt 4.6, Leading zero omitted, Abs format (unit mm)*
G04 Created by KiCad (PCBNEW (6.0.6-0)) date 2022-07-27 22:33:04*
%MOMM*%
%LPD*%
G01*
G04 APERTURE LIST*
G04 Aperture macros list*
%AMRoundRect*
0 Rectangle with rounded corners*
0 $1 Rounding radius*
0 $2 $3 $4 $5 $6 $7 $8 $9 X,Y pos of 4 corners*
0 Add a 4 corners polygon primitive as box body*
4,1,4,$2,$3,$4,$5,$6,$7,$8,$9,$2,$3,0*
0 Add four circle primitives for the rounded corners*
1,1,$1+$1,$2,$3*
1,1,$1+$1,$4,$5*
1,1,$1+$1,$6,$7*
1,1,$1+$1,$8,$9*
0 Add four rect primitives between the rounded corners*
20,1,$1+$1,$2,$3,$4,$5,0*
20,1,$1+$1,$4,$5,$6,$7,0*
20,1,$1+$1,$6,$7,$8,$9,0*
20,1,$1+$1,$8,$9,$2,$3,0*%
%AMRotRect*
0 Rectangle, with rotation*
0 The origin of the aperture is its center*
0 $1 length*
0 $2 width*
0 $3 Rotation angle, in degrees counterclockwise*
0 Add horizontal line*
21,1,$1,$2,0,0,$3*%
%AMFreePoly0*
4,1,112,3.105582,3.191654,3.458980,3.129341,3.803230,3.028022,4.134041,2.888962,4.447289,2.713894,4.739071,2.504999,5.005748,2.264881,5.243998,1.996534,5.450851,1.703301,5.623729,1.388838,5.760476,1.057065,5.859388,0.712116,5.919233,0.358291,5.939265,0.000000,5.938012,-0.089748,5.907984,-0.447339,5.838283,-0.799355,5.729777,-1.141408,5.583820,-1.469234,5.402230,-1.778747,
5.187270,-2.066090,4.941620,-2.327680,4.668342,-2.560258,4.370841,-2.760925,4.052827,-2.927179,3.718263,-3.056948,3.371318,-3.148614,3.016317,-3.201036,2.657686,-3.213560,2.299893,-3.186029,1.947399,-3.118788,1.604597,-3.012673,1.275760,-2.869007,0.964987,-2.689582,0.676150,-2.476634,0.412851,-2.232816,0.178371,-1.961168,-0.024367,-1.665076,-0.192837,-1.348230,-0.324939,-1.014580,
-0.419026,-0.668283,-0.473925,-0.313657,-0.481420,-0.134825,-0.481581,-0.134460,-0.499164,0.000000,0.505984,0.000000,0.524968,-0.289640,0.581595,-0.574324,0.674897,-0.849181,0.803276,-1.109508,0.964536,-1.350851,1.155919,-1.569081,1.374149,-1.760464,1.615492,-1.921724,1.875819,-2.050103,2.150676,-2.143405,2.435360,-2.200032,2.725000,-2.219016,3.014640,-2.200032,3.299324,-2.143405,
3.574181,-2.050103,3.834508,-1.921724,4.075851,-1.760464,4.294081,-1.569081,4.485464,-1.350851,4.646724,-1.109508,4.775103,-0.849181,4.868405,-0.574324,4.925032,-0.289640,4.944016,0.000000,4.925032,0.289640,4.868405,0.574324,4.775103,0.849181,4.646724,1.109508,4.485464,1.350851,4.294081,1.569081,4.075851,1.760464,3.834508,1.921724,3.574181,2.050103,3.299324,2.143405,
3.014640,2.200032,2.725000,2.219016,2.435360,2.200032,2.150676,2.143405,1.875819,2.050103,1.615492,1.921724,1.374149,1.760464,1.155919,1.569081,0.964536,1.350851,0.803276,1.109508,0.674897,0.849181,0.581595,0.574324,0.524968,0.289640,0.505984,0.000000,-0.499164,0.000000,-0.499963,0.006109,-0.484897,0.102868,-0.463920,0.402854,-0.399140,0.755809,-0.295421,1.099343,
-0.154055,1.429175,0.023196,1.741194,0.234123,2.031510,0.476097,2.296505,0.746101,2.532875,1.040770,2.737676,1.356433,2.908354,1.689153,3.042782,2.034784,3.139284,2.389018,3.196657,2.747440,3.214187,3.105582,3.191654,3.105582,3.191654,$1*%
G04 Aperture macros list end*
%ADD10R,1.050013X0.550013*%
%ADD11R,0.450013X1.400000*%
%ADD12R,2.400000X0.450013*%
%ADD13R,2.046380X1.620015*%
%ADD14RoundRect,0.237500X0.250000X0.237500X-0.250000X0.237500X-0.250000X-0.237500X0.250000X-0.237500X0*%
%ADD15RoundRect,0.237500X0.237500X-0.250000X0.237500X0.250000X-0.237500X0.250000X-0.237500X-0.250000X0*%
%ADD16RoundRect,0.237500X-0.237500X0.250000X-0.237500X-0.250000X0.237500X-0.250000X0.237500X0.250000X0*%
%ADD17RoundRect,0.250000X0.400000X1.450000X-0.400000X1.450000X-0.400000X-1.450000X0.400000X-1.450000X0*%
%ADD18RotRect,2.000000X3.500000X45.000000*%
%ADD19RoundRect,0.237500X-0.300000X-0.237500X0.300000X-0.237500X0.300000X0.237500X-0.300000X0.237500X0*%
%ADD20FreePoly0,0.000000*%
%ADD21C,4.300000*%
%ADD22RoundRect,0.237500X-0.250000X-0.237500X0.250000X-0.237500X0.250000X0.237500X-0.250000X0.237500X0*%
%ADD23R,1.700000X1.700000*%
%ADD24O,1.700000X1.700000*%
%ADD25R,0.900000X1.500000*%
%ADD26RoundRect,0.237500X0.237500X-0.300000X0.237500X0.300000X-0.237500X0.300000X-0.237500X-0.300000X0*%
%ADD27RotRect,2.000000X3.500000X135.000000*%
%ADD28RoundRect,0.237500X-0.237500X0.300000X-0.237500X-0.300000X0.237500X-0.300000X0.237500X0.300000X0*%
%ADD29RoundRect,0.237500X0.300000X0.237500X-0.300000X0.237500X-0.300000X-0.237500X0.300000X-0.237500X0*%
%ADD30C,2.300000*%
%ADD31O,3.200000X1.600000*%
%ADD32O,1.600000X3.000000*%
%ADD33C,1.800000*%
%ADD34RotRect,2.000000X3.500000X225.000000*%
%ADD35O,1.200000X2.200000*%
%ADD36O,1.200000X1.800000*%
%ADD37R,0.300000X1.300000*%
%ADD38R,0.600000X1.300000*%
%ADD39C,0.700025*%
%ADD40O,0.250013X0.750013*%
%ADD41R,0.900000X2.000000*%
%ADD42R,2.000000X0.900000*%
%ADD43R,1.330000X1.330000*%
%ADD44R,0.900000X0.280010*%
%ADD45R,0.280010X0.900000*%
%ADD46R,3.300000X3.300000*%
%ADD47RotRect,2.000000X3.500000X315.000000*%
%ADD48RoundRect,0.250000X-1.500000X-0.550000X1.500000X-0.550000X1.500000X0.550000X-1.500000X0.550000X0*%
%ADD49RoundRect,0.250000X-0.550000X1.500000X-0.550000X-1.500000X0.550000X-1.500000X0.550000X1.500000X0*%
%ADD50R,0.600000X0.419990*%
%ADD51R,1.500000X2.000000*%
%ADD52R,3.800000X2.000000*%
%ADD53C,2.000000*%
%ADD54C,0.800000*%
%ADD55C,1.300000*%
G04 APERTURE END LIST*
D10*
%TO.C,U10*%
X84185083Y-105025545D03*
X82834816Y-105025545D03*
X82834816Y-105875431D03*
X84185083Y-105875431D03*
D11*
X85234867Y-105450488D03*
D12*
X83509949Y-104225443D03*
D11*
X81785032Y-105450488D03*
D12*
X83509949Y-106675532D03*
%TD*%
D13*
%TO.C,U22*%
X53024569Y-115769975D03*
X58155380Y-115769975D03*
%TD*%
D14*
%TO.C,R2*%
X94342500Y-74270000D03*
X92517500Y-74270000D03*
%TD*%
D15*
%TO.C,R9*%
X82580000Y-118362500D03*
X82580000Y-116537500D03*
%TD*%
D16*
%TO.C,R4*%
X78310000Y-123717500D03*
X78310000Y-125542500D03*
%TD*%
D14*
%TO.C,R5*%
X95382500Y-48870000D03*
X93557500Y-48870000D03*
%TD*%
D17*
%TO.C,F1*%
X76245000Y-124520000D03*
X71795000Y-124520000D03*
%TD*%
D18*
%TO.C,U5*%
X82778671Y-62751329D03*
X80870000Y-64660000D03*
X78961331Y-66568669D03*
X77052661Y-68477338D03*
%TD*%
D19*
%TO.C,C13*%
X93357500Y-65940000D03*
X95082500Y-65940000D03*
%TD*%
D13*
%TO.C,U15*%
X76895431Y-120960025D03*
X71764620Y-120960025D03*
%TD*%
%TO.C,U20*%
X53024569Y-112629975D03*
X58155380Y-112629975D03*
%TD*%
D20*
%TO.C,U14*%
X89302200Y-60000000D03*
D21*
X92029970Y-60002540D03*
%TD*%
D22*
%TO.C,R6*%
X84637500Y-80610000D03*
X86462500Y-80610000D03*
%TD*%
D19*
%TO.C,C11*%
X75436900Y-102524800D03*
X73711900Y-102524800D03*
%TD*%
D23*
%TO.C,J1*%
X59060000Y-91310000D03*
D24*
X59060000Y-93850000D03*
X59060000Y-96390000D03*
X59060000Y-98930000D03*
X59060000Y-101470000D03*
X59060000Y-104010000D03*
X59060000Y-106550000D03*
%TD*%
D25*
%TO.C,SW2*%
X93752436Y-46719924D03*
X93752436Y-42920076D03*
X95252564Y-42920076D03*
X95252564Y-46719924D03*
%TD*%
D13*
%TO.C,U21*%
X53024569Y-109529975D03*
X58155380Y-109529975D03*
%TD*%
D25*
%TO.C,SW3*%
X82937564Y-42980076D03*
X82937564Y-46779924D03*
X81437436Y-42980076D03*
X81437436Y-46779924D03*
%TD*%
D26*
%TO.C,C6*%
X86770000Y-106252500D03*
X86770000Y-104527500D03*
%TD*%
D27*
%TO.C,U8*%
X82750880Y-56893775D03*
X80842211Y-54985105D03*
X78933542Y-53076436D03*
X77024871Y-51167765D03*
%TD*%
D28*
%TO.C,C1*%
X91550000Y-70387500D03*
X91550000Y-72112500D03*
%TD*%
D20*
%TO.C,U12*%
X52992230Y-60000000D03*
D21*
X55720000Y-60002540D03*
%TD*%
D25*
%TO.C,SW1*%
X89947564Y-42980076D03*
X89947564Y-46779924D03*
X88447436Y-42980076D03*
X88447436Y-46779924D03*
%TD*%
D29*
%TO.C,C7*%
X88995000Y-115390000D03*
X87270000Y-115390000D03*
%TD*%
D30*
%TO.C,PWR1*%
X62856627Y-123066452D03*
D31*
X62856627Y-130766477D03*
D32*
X67706767Y-131266604D03*
X67706767Y-126566579D03*
X58006741Y-126566579D03*
X58006741Y-131266604D03*
D33*
X62856627Y-134016668D03*
%TD*%
D29*
%TO.C,C5*%
X90122500Y-80610000D03*
X88397500Y-80610000D03*
%TD*%
D34*
%TO.C,U7*%
X65243990Y-56946009D03*
X67152661Y-55037338D03*
X69061330Y-53128669D03*
X70970000Y-51220000D03*
%TD*%
D35*
%TO.C,USB1*%
X78340041Y-130232408D03*
X69699959Y-130232408D03*
D36*
X78340041Y-134412494D03*
X69699959Y-134412494D03*
D37*
X72269936Y-129489964D03*
X73269936Y-129489964D03*
X74770064Y-129489964D03*
X75770064Y-129489964D03*
D38*
X76420051Y-129489964D03*
X77219898Y-129489964D03*
D37*
X75269936Y-129489964D03*
X74269936Y-129489964D03*
X73770064Y-129489964D03*
X72770064Y-129489964D03*
D38*
X71619949Y-129489964D03*
X70820102Y-129489964D03*
D39*
X71129982Y-130732535D03*
X76910018Y-130732535D03*
%TD*%
D22*
%TO.C,R10*%
X68437500Y-97640000D03*
X70262500Y-97640000D03*
%TD*%
D40*
%TO.C,U1*%
X93308039Y-71179911D03*
X93808166Y-71179911D03*
X94308039Y-71179911D03*
X94808166Y-71179911D03*
X94808166Y-68080089D03*
X94308039Y-68080089D03*
X93808166Y-68080089D03*
X93308039Y-68080089D03*
%TD*%
D22*
%TO.C,R7*%
X75486900Y-104444800D03*
X73661900Y-104444800D03*
%TD*%
D28*
%TO.C,C10*%
X62750000Y-98407500D03*
X62750000Y-100132500D03*
%TD*%
D41*
%TO.C,U2*%
X90183300Y-83025100D03*
X88913300Y-83025100D03*
X87643300Y-83025100D03*
X86373300Y-83025100D03*
X85103300Y-83025100D03*
X83833300Y-83025100D03*
X82563300Y-83025100D03*
X81293300Y-83025100D03*
X80023300Y-83025100D03*
X78753300Y-83025100D03*
X77483300Y-83025100D03*
X76213300Y-83025100D03*
X74943300Y-83025100D03*
X73673300Y-83025100D03*
D42*
X72673300Y-85810100D03*
X72673300Y-87080100D03*
X72673300Y-88350100D03*
X72673300Y-89620100D03*
X72673300Y-90890100D03*
X72673300Y-92160100D03*
X72673300Y-93430100D03*
X72673300Y-94700100D03*
X72673300Y-95970100D03*
X72673300Y-97240100D03*
D41*
X73673300Y-100025100D03*
X74943300Y-100025100D03*
X76213300Y-100025100D03*
X77483300Y-100025100D03*
X78753300Y-100025100D03*
X80023300Y-100025100D03*
X81293300Y-100025100D03*
X82563300Y-100025100D03*
X83833300Y-100025100D03*
X85103300Y-100025100D03*
X86373300Y-100025100D03*
X87643300Y-100025100D03*
X88913300Y-100025100D03*
X90183300Y-100025100D03*
D43*
X84518300Y-90525100D03*
X80848300Y-90525100D03*
X80848300Y-88690100D03*
X82683300Y-92360100D03*
X82683300Y-90525100D03*
X84518300Y-88690100D03*
X82683300Y-88690100D03*
X84518300Y-92360100D03*
X80848300Y-92360100D03*
%TD*%
D13*
%TO.C,U16*%
X76845431Y-117770025D03*
X71714620Y-117770025D03*
%TD*%
D22*
%TO.C,R1*%
X88317500Y-48870000D03*
X90142500Y-48870000D03*
%TD*%
D44*
%TO.C,U3*%
X90480352Y-112325933D03*
X90480352Y-112826314D03*
X90480352Y-113326695D03*
X90480352Y-113827076D03*
X90480352Y-114327457D03*
X90480352Y-114827838D03*
X90480352Y-115328219D03*
D45*
X91479082Y-116327203D03*
X91979463Y-116327203D03*
X92479844Y-116327203D03*
X92980225Y-116327203D03*
X93480606Y-116327203D03*
X93980987Y-116327203D03*
X94481368Y-116327203D03*
D44*
X95480352Y-115328219D03*
X95480352Y-114827838D03*
X95480352Y-114327457D03*
X95480352Y-113827076D03*
X95480352Y-113326695D03*
X95480352Y-112826314D03*
X95480352Y-112325933D03*
D45*
X94481368Y-111327203D03*
X93980987Y-111327203D03*
X93480606Y-111327203D03*
X92980225Y-111327203D03*
X92479844Y-111327203D03*
X91979463Y-111327203D03*
X91479082Y-111327203D03*
D46*
X92980225Y-113827076D03*
%TD*%
D16*
%TO.C,R3*%
X80210000Y-123717500D03*
X80210000Y-125542500D03*
%TD*%
D47*
%TO.C,U6*%
X65232662Y-62732661D03*
X67141331Y-64641331D03*
X69050000Y-66550000D03*
X70958671Y-68458671D03*
%TD*%
D48*
%TO.C,C2*%
X61580000Y-113490000D03*
X67180000Y-113490000D03*
%TD*%
D16*
%TO.C,R8*%
X80870000Y-116537500D03*
X80870000Y-118362500D03*
%TD*%
D20*
%TO.C,U13*%
X71402200Y-44580000D03*
D21*
X74129970Y-44582540D03*
%TD*%
D49*
%TO.C,C3*%
X74440000Y-73780000D03*
X74440000Y-79380000D03*
%TD*%
D28*
%TO.C,C9*%
X70400000Y-104987500D03*
X70400000Y-106712500D03*
%TD*%
D50*
%TO.C,U9*%
X91560038Y-106620013D03*
X91560038Y-107270000D03*
X91560038Y-107919987D03*
X93459962Y-107919987D03*
X93459962Y-107270000D03*
X93459962Y-106620013D03*
%TD*%
D51*
%TO.C,U4*%
X63470000Y-106292500D03*
X65770000Y-106292500D03*
X68070000Y-106292500D03*
D52*
X65770000Y-99992500D03*
%TD*%
D19*
%TO.C,C8*%
X84687500Y-78750000D03*
X86412500Y-78750000D03*
%TD*%
D20*
%TO.C,U11*%
X71362200Y-112900000D03*
D21*
X74089970Y-112902540D03*
%TD*%
D19*
%TO.C,C4*%
X87277500Y-117150000D03*
X89002500Y-117150000D03*
%TD*%
D53*
%TO.C,F2*%
X57789865Y-120029876D03*
X62869875Y-120029876D03*
%TD*%
D14*
%TO.C,R11*%
X70262500Y-95930000D03*
X68437500Y-95930000D03*
%TD*%
D26*
%TO.C,C12*%
X88580000Y-106252500D03*
X88580000Y-104527500D03*
%TD*%
D54*
X71729600Y-99263200D03*
X74642879Y-101550609D03*
D55*
X83260000Y-130960000D03*
X85760000Y-44840000D03*
D54*
X66870000Y-96930000D03*
X95090000Y-64724500D03*
X65050000Y-101890000D03*
X83520000Y-103340000D03*
X82240000Y-94640000D03*
X83491860Y-101697402D03*
X71310000Y-104130000D03*
X63910000Y-97670000D03*
X88570000Y-113010000D03*
X65750000Y-110590000D03*
X81560000Y-123780000D03*
X64600000Y-109630000D03*
X84390000Y-94570000D03*
X85570000Y-40700000D03*
X76580000Y-102020000D03*
X84660000Y-97960000D03*
X63910000Y-88510000D03*
X67060000Y-111400000D03*
X87070000Y-118480000D03*
X68520000Y-100270000D03*
X89090000Y-84960000D03*
X88145415Y-79664585D03*
X67390000Y-104120000D03*
X88850000Y-118510000D03*
X89340000Y-77820000D03*
X78680000Y-109270000D03*
X70300000Y-87850000D03*
X77640000Y-116350000D03*
X75300000Y-117860000D03*
X78410000Y-117190000D03*
X61530000Y-115540000D03*
X62760000Y-115510000D03*
X60730000Y-114860000D03*
X52940000Y-113630000D03*
X53024569Y-115769975D03*
X54137272Y-114657272D03*
X75130000Y-96020000D03*
X81190000Y-103840000D03*
X81100000Y-106910000D03*
X77400000Y-97890000D03*
X74850000Y-87520000D03*
X79110000Y-88710000D03*
X86360000Y-87510000D03*
X85689986Y-106829882D03*
X86490000Y-77200000D03*
X94930000Y-106670000D03*
X87740000Y-86400000D03*
X90710000Y-50510000D03*
X78640000Y-84970000D03*
X67350000Y-89040000D03*
X76220000Y-88710000D03*
X68160000Y-90180000D03*
X91460000Y-74390000D03*
X82860000Y-67960000D03*
X88660000Y-95690000D03*
X77330000Y-107720000D03*
X74690000Y-97590000D03*
X78450000Y-96990000D03*
X93590000Y-50450000D03*
X90600000Y-107840000D03*
X94130000Y-69260000D03*
X90210000Y-73020000D03*
X87760000Y-76580000D03*
X80500000Y-85420000D03*
X74810000Y-131540000D03*
X84930000Y-114000000D03*
X85980000Y-114630000D03*
X80130000Y-131980000D03*
X93010000Y-108740000D03*
X91460000Y-110350000D03*
X64960000Y-66720000D03*
X64990000Y-53000000D03*
X87880000Y-57690000D03*
X79470000Y-70780000D03*
X90090000Y-71500000D03*
X80025150Y-79304850D03*
X72680000Y-78250000D03*
X64910000Y-49680000D03*
X71160000Y-78350000D03*
X66720000Y-68840000D03*
X81580000Y-51070000D03*
X72750000Y-79800000D03*
X71450000Y-79720000D03*
X81280000Y-69030000D03*
X69400000Y-98890000D03*
X60320000Y-109880000D03*
X79390000Y-103510000D03*
X79502000Y-98044000D03*
M02*
