M48
; DRILL file {KiCad (6.0.4-0)} date 2022 April 23, Saturday 10:57:22
; FORMAT={-:-/ absolute / inch / decimal}
; #@! TF.CreationDate,2022-04-23T10:57:22+02:00
; #@! TF.GenerationSoftware,Kicad,Pcbnew,(6.0.4-0)
; #@! TF.FileFunction,Plated,1,2,PTH
FMAT,2
INCH
; #@! TA.AperFunction,Plated,PTH,ViaDrill
T1C0.0157
; #@! TA.AperFunction,Plated,PTH,ComponentDrill
T2C0.0591
%
G90
G05
T1
X2.0413Y-3.4819
X2.0457Y-7.4217
X2.0575Y-8.0551
X2.0579Y-6.7579
X2.0587Y-8.7114
X2.0602Y-5.4524
X2.0602Y-9.3744
X2.061Y-6.1047
X2.0622Y-2.8276
X2.0622Y-4.7906
X2.0638Y-2.1701
X2.0638Y-4.1394
X2.0642Y-1.5024
X2.0681Y-10.0256
X2.0717Y-1.0984
X2.0925Y-10.6335
X2.1205Y-1.1004
X2.1252Y-3.2039
X2.1252Y-4.5161
X2.1256Y-7.789
X2.126Y-3.8602
X2.1272Y-5.8307
X2.1276Y-2.5469
X2.1276Y-10.4138
X2.128Y-1.8913
X2.128Y-5.1744
X2.1295Y-7.1358
X2.1295Y-8.4516
X2.1299Y-6.4874
X2.1335Y-10.6346
X2.1343Y-9.7689
X2.1402Y-9.1031
T2
X1.8549Y-3.5335
X1.8551Y-8.1984
X2.2482Y-3.5335
X2.2496Y-8.1984
T0
M30
