%TF.GenerationSoftware,KiCad,Pcbnew,(6.0.4-0)*%
%TF.CreationDate,2022-04-23T10:57:22+02:00*%
%TF.ProjectId,GlowLEDsPCB,476c6f77-4c45-4447-9350-43422e6b6963,rev?*%
%TF.SameCoordinates,Original*%
%TF.FileFunction,Copper,L1,Top*%
%TF.FilePolarity,Positive*%
%FSLAX46Y46*%
G04 Gerber Fmt 4.6, Leading zero omitted, Abs format (unit mm)*
G04 Created by KiCad (PCBNEW (6.0.4-0)) date 2022-04-23 10:57:22*
%MOMM*%
%LPD*%
G01*
G04 APERTURE LIST*
G04 Aperture macros list*
%AMRoundRect*
0 Rectangle with rounded corners*
0 $1 Rounding radius*
0 $2 $3 $4 $5 $6 $7 $8 $9 X,Y pos of 4 corners*
0 Add a 4 corners polygon primitive as box body*
4,1,4,$2,$3,$4,$5,$6,$7,$8,$9,$2,$3,0*
0 Add four circle primitives for the rounded corners*
1,1,$1+$1,$2,$3*
1,1,$1+$1,$4,$5*
1,1,$1+$1,$6,$7*
1,1,$1+$1,$8,$9*
0 Add four rect primitives between the rounded corners*
20,1,$1+$1,$2,$3,$4,$5,0*
20,1,$1+$1,$4,$5,$6,$7,0*
20,1,$1+$1,$6,$7,$8,$9,0*
20,1,$1+$1,$8,$9,$2,$3,0*%
G04 Aperture macros list end*
%TA.AperFunction,SMDPad,CuDef*%
%ADD10RoundRect,0.237500X-0.300000X-0.237500X0.300000X-0.237500X0.300000X0.237500X-0.300000X0.237500X0*%
%TD*%
%TA.AperFunction,SMDPad,CuDef*%
%ADD11R,1.000000X1.500000*%
%TD*%
%TA.AperFunction,ComponentPad*%
%ADD12C,2.500000*%
%TD*%
%TA.AperFunction,SMDPad,CuDef*%
%ADD13R,1.600000X2.800000*%
%TD*%
%TA.AperFunction,SMDPad,CuDef*%
%ADD14R,2.000000X2.800000*%
%TD*%
%TA.AperFunction,ViaPad*%
%ADD15C,0.800000*%
%TD*%
%TA.AperFunction,Conductor*%
%ADD16C,0.500000*%
%TD*%
%TA.AperFunction,Conductor*%
%ADD17C,0.250000*%
%TD*%
%TA.AperFunction,Conductor*%
%ADD18C,0.200000*%
%TD*%
%TA.AperFunction,Conductor*%
%ADD19C,1.500000*%
%TD*%
%TA.AperFunction,Conductor*%
%ADD20C,1.000000*%
%TD*%
%TA.AperFunction,Conductor*%
%ADD21C,1.200000*%
%TD*%
%TA.AperFunction,Conductor*%
%ADD22C,1.300000*%
%TD*%
%TA.AperFunction,Conductor*%
%ADD23C,2.000000*%
%TD*%
%TA.AperFunction,Conductor*%
%ADD24C,0.160000*%
%TD*%
%TA.AperFunction,Conductor*%
%ADD25C,1.400000*%
%TD*%
%TA.AperFunction,Conductor*%
%ADD26C,1.600000*%
%TD*%
%TA.AperFunction,Conductor*%
%ADD27C,1.700000*%
%TD*%
G04 APERTURE END LIST*
D10*
%TO.P,C4,1*%
%TO.N,+5V*%
X50107500Y-220350000D03*
%TO.P,C4,2*%
%TO.N,GND*%
X51832500Y-220350000D03*
%TD*%
D11*
%TO.P,D14,1,VDD*%
%TO.N,+5V*%
X50467800Y-51360185D03*
%TO.P,D14,2,DOUT*%
%TO.N,Net-(D14-Pad2)*%
X53667800Y-51360185D03*
%TO.P,D14,3,VSS*%
%TO.N,GND*%
X53667800Y-46460185D03*
%TO.P,D14,4,DIN*%
%TO.N,Net-(D13-Pad2)*%
X50467800Y-46460185D03*
%TD*%
%TO.P,D1,1,VDD*%
%TO.N,+5V*%
X50467800Y-268200000D03*
%TO.P,D1,2,DOUT*%
%TO.N,Net-(D1-Pad2)*%
X53667800Y-268200000D03*
%TO.P,D1,3,VSS*%
%TO.N,GND*%
X53667800Y-263300000D03*
%TO.P,D1,4,DIN*%
%TO.N,Net-(D1-Pad4)*%
X50467800Y-263300000D03*
%TD*%
%TO.P,D13,1,VDD*%
%TO.N,+5V*%
X50467800Y-68040170D03*
%TO.P,D13,2,DOUT*%
%TO.N,Net-(D13-Pad2)*%
X53667800Y-68040170D03*
%TO.P,D13,3,VSS*%
%TO.N,GND*%
X53667800Y-63140170D03*
%TO.P,D13,4,DIN*%
%TO.N,Net-(D12-Pad2)*%
X50467800Y-63140170D03*
%TD*%
D10*
%TO.P,C5,1*%
%TO.N,+5V*%
X50107500Y-203640000D03*
%TO.P,C5,2*%
%TO.N,GND*%
X51832500Y-203640000D03*
%TD*%
D12*
%TO.P,H4,1*%
%TO.N,GND*%
X47120000Y-208240000D03*
%TD*%
D10*
%TO.P,C10,1*%
%TO.N,+5V*%
X50107500Y-120470000D03*
%TO.P,C10,2*%
%TO.N,GND*%
X51832500Y-120470000D03*
%TD*%
%TO.P,C2,1*%
%TO.N,+5V*%
X50107500Y-253680000D03*
%TO.P,C2,2*%
%TO.N,GND*%
X51832500Y-253680000D03*
%TD*%
D13*
%TO.P,U2,1,5V*%
%TO.N,+5V*%
X48276200Y-25704400D03*
D14*
%TO.P,U2,2,Data*%
%TO.N,Net-(D15-Pad2)*%
X50775466Y-25704400D03*
%TO.P,U2,3,GND*%
%TO.N,GND*%
X53474732Y-25704400D03*
D13*
%TO.P,U2,4,BUTTON*%
%TO.N,BUTTON*%
X55974000Y-25704400D03*
%TD*%
D11*
%TO.P,D11,1,VDD*%
%TO.N,+5V*%
X50467800Y-101400140D03*
%TO.P,D11,2,DOUT*%
%TO.N,Net-(D11-Pad2)*%
X53667800Y-101400140D03*
%TO.P,D11,3,VSS*%
%TO.N,GND*%
X53667800Y-96500140D03*
%TO.P,D11,4,DIN*%
%TO.N,Net-(D10-Pad2)*%
X50467800Y-96500140D03*
%TD*%
%TO.P,D3,1,VDD*%
%TO.N,+5V*%
X50467800Y-234840020D03*
%TO.P,D3,2,DOUT*%
%TO.N,Net-(D3-Pad2)*%
X53667800Y-234840020D03*
%TO.P,D3,3,VSS*%
%TO.N,GND*%
X53667800Y-229940020D03*
%TO.P,D3,4,DIN*%
%TO.N,Net-(D2-Pad2)*%
X50467800Y-229940020D03*
%TD*%
D10*
%TO.P,C9,1*%
%TO.N,+5V*%
X50107500Y-137130000D03*
%TO.P,C9,2*%
%TO.N,GND*%
X51832500Y-137130000D03*
%TD*%
%TO.P,C14,1*%
%TO.N,+5V*%
X50107500Y-53830000D03*
%TO.P,C14,2*%
%TO.N,GND*%
X51832500Y-53830000D03*
%TD*%
D12*
%TO.P,H1,1*%
%TO.N,GND*%
X57104600Y-89750000D03*
%TD*%
D10*
%TO.P,C13,1*%
%TO.N,+5V*%
X50107500Y-70460000D03*
%TO.P,C13,2*%
%TO.N,GND*%
X51832500Y-70460000D03*
%TD*%
%TO.P,C3,1*%
%TO.N,+5V*%
X50107500Y-237110000D03*
%TO.P,C3,2*%
%TO.N,GND*%
X51832500Y-237110000D03*
%TD*%
%TO.P,C7,1*%
%TO.N,+5V*%
X50107500Y-170380000D03*
%TO.P,C7,2*%
%TO.N,GND*%
X51832500Y-170380000D03*
%TD*%
D12*
%TO.P,H3,1*%
%TO.N,GND*%
X57140000Y-208240000D03*
%TD*%
D13*
%TO.P,U1,1,5V*%
%TO.N,+5V*%
X48276200Y-272314400D03*
D14*
%TO.P,U1,2,Data*%
%TO.N,Net-(D1-Pad4)*%
X50775466Y-272314400D03*
%TO.P,U1,3,GND*%
%TO.N,GND*%
X53474732Y-272314400D03*
D13*
%TO.P,U1,4,BUTTON*%
%TO.N,BUTTON*%
X55974000Y-272314400D03*
%TD*%
D10*
%TO.P,C1,1*%
%TO.N,+5V*%
X50107500Y-269950000D03*
%TO.P,C1,2*%
%TO.N,GND*%
X51832500Y-269950000D03*
%TD*%
D11*
%TO.P,D15,1,VDD*%
%TO.N,+5V*%
X50467800Y-34680200D03*
%TO.P,D15,2,DOUT*%
%TO.N,Net-(D15-Pad2)*%
X53667800Y-34680200D03*
%TO.P,D15,3,VSS*%
%TO.N,GND*%
X53667800Y-29780200D03*
%TO.P,D15,4,DIN*%
%TO.N,Net-(D14-Pad2)*%
X50467800Y-29780200D03*
%TD*%
%TO.P,D6,1,VDD*%
%TO.N,+5V*%
X50467800Y-184800065D03*
%TO.P,D6,2,DOUT*%
%TO.N,Net-(D6-Pad2)*%
X53667800Y-184800065D03*
%TO.P,D6,3,VSS*%
%TO.N,GND*%
X53667800Y-179900065D03*
%TO.P,D6,4,DIN*%
%TO.N,Net-(D5-Pad2)*%
X50467800Y-179900065D03*
%TD*%
%TO.P,D8,1,VDD*%
%TO.N,+5V*%
X50467800Y-151440095D03*
%TO.P,D8,2,DOUT*%
%TO.N,Net-(D8-Pad2)*%
X53667800Y-151440095D03*
%TO.P,D8,3,VSS*%
%TO.N,GND*%
X53667800Y-146540095D03*
%TO.P,D8,4,DIN*%
%TO.N,Net-(D7-Pad2)*%
X50467800Y-146540095D03*
%TD*%
D10*
%TO.P,C15,1*%
%TO.N,+5V*%
X50107500Y-37090000D03*
%TO.P,C15,2*%
%TO.N,GND*%
X51832500Y-37090000D03*
%TD*%
D11*
%TO.P,D10,1,VDD*%
%TO.N,+5V*%
X50467800Y-118080125D03*
%TO.P,D10,2,DOUT*%
%TO.N,Net-(D10-Pad2)*%
X53667800Y-118080125D03*
%TO.P,D10,3,VSS*%
%TO.N,GND*%
X53667800Y-113180125D03*
%TO.P,D10,4,DIN*%
%TO.N,Net-(D10-Pad4)*%
X50467800Y-113180125D03*
%TD*%
D10*
%TO.P,C8,1*%
%TO.N,+5V*%
X50107500Y-153780000D03*
%TO.P,C8,2*%
%TO.N,GND*%
X51832500Y-153780000D03*
%TD*%
D11*
%TO.P,D2,1,VDD*%
%TO.N,+5V*%
X50467800Y-251520005D03*
%TO.P,D2,2,DOUT*%
%TO.N,Net-(D2-Pad2)*%
X53667800Y-251520005D03*
%TO.P,D2,3,VSS*%
%TO.N,GND*%
X53667800Y-246620005D03*
%TO.P,D2,4,DIN*%
%TO.N,Net-(D1-Pad2)*%
X50467800Y-246620005D03*
%TD*%
D12*
%TO.P,H2,1*%
%TO.N,GND*%
X47114600Y-89750000D03*
%TD*%
D11*
%TO.P,D4,1,VDD*%
%TO.N,+5V*%
X50467800Y-218160035D03*
%TO.P,D4,2,DOUT*%
%TO.N,Net-(D4-Pad2)*%
X53667800Y-218160035D03*
%TO.P,D4,3,VSS*%
%TO.N,GND*%
X53667800Y-213260035D03*
%TO.P,D4,4,DIN*%
%TO.N,Net-(D3-Pad2)*%
X50467800Y-213260035D03*
%TD*%
D10*
%TO.P,C11,1*%
%TO.N,+5V*%
X50107500Y-103860000D03*
%TO.P,C11,2*%
%TO.N,GND*%
X51832500Y-103860000D03*
%TD*%
%TO.P,C6,1*%
%TO.N,+5V*%
X50107500Y-187030000D03*
%TO.P,C6,2*%
%TO.N,GND*%
X51832500Y-187030000D03*
%TD*%
%TO.P,C12,1*%
%TO.N,+5V*%
X50107500Y-87140000D03*
%TO.P,C12,2*%
%TO.N,GND*%
X51832500Y-87140000D03*
%TD*%
D11*
%TO.P,D7,1,VDD*%
%TO.N,+5V*%
X50467800Y-168120080D03*
%TO.P,D7,2,DOUT*%
%TO.N,Net-(D7-Pad2)*%
X53667800Y-168120080D03*
%TO.P,D7,3,VSS*%
%TO.N,GND*%
X53667800Y-163220080D03*
%TO.P,D7,4,DIN*%
%TO.N,Net-(D6-Pad2)*%
X50467800Y-163220080D03*
%TD*%
%TO.P,D9,1,VDD*%
%TO.N,+5V*%
X50467800Y-134760110D03*
%TO.P,D9,2,DOUT*%
%TO.N,Net-(D10-Pad4)*%
X53667800Y-134760110D03*
%TO.P,D9,3,VSS*%
%TO.N,GND*%
X53667800Y-129860110D03*
%TO.P,D9,4,DIN*%
%TO.N,Net-(D8-Pad2)*%
X50467800Y-129860110D03*
%TD*%
%TO.P,D5,1,VDD*%
%TO.N,+5V*%
X50467800Y-201480050D03*
%TO.P,D5,2,DOUT*%
%TO.N,Net-(D5-Pad2)*%
X53667800Y-201480050D03*
%TO.P,D5,3,VSS*%
%TO.N,GND*%
X53667800Y-196580050D03*
%TO.P,D5,4,DIN*%
%TO.N,Net-(D4-Pad2)*%
X50467800Y-196580050D03*
%TD*%
%TO.P,D12,1,VDD*%
%TO.N,+5V*%
X50467800Y-84720155D03*
%TO.P,D12,2,DOUT*%
%TO.N,Net-(D12-Pad2)*%
X53667800Y-84720155D03*
%TO.P,D12,3,VSS*%
%TO.N,GND*%
X53667800Y-79820155D03*
%TO.P,D12,4,DIN*%
%TO.N,Net-(D11-Pad2)*%
X50467800Y-79820155D03*
%TD*%
D15*
%TO.N,GND*%
X54210000Y-248130000D03*
X51850000Y-88440000D03*
X52290000Y-221270000D03*
X54090000Y-214670000D03*
X53860000Y-27950000D03*
X54360000Y-231220000D03*
X52430000Y-38160000D03*
X54050000Y-131430000D03*
X54040000Y-64690000D03*
X54050000Y-48040000D03*
X53980000Y-114710000D03*
X52330000Y-238110000D03*
X52260000Y-204600000D03*
X54090000Y-181250000D03*
X54030000Y-148100000D03*
X52330000Y-138490000D03*
X53990000Y-197840000D03*
X51960000Y-188510000D03*
X52380000Y-121680000D03*
X54100000Y-164780000D03*
X52270000Y-171650000D03*
X52350000Y-155060000D03*
X52420000Y-105140000D03*
X53980000Y-81380000D03*
X52420000Y-55120000D03*
X53150000Y-270090000D03*
X52620000Y-27900000D03*
X54190000Y-270120000D03*
X52530000Y-254650000D03*
X54040000Y-264510000D03*
X54000000Y-98050000D03*
X52380000Y-71820000D03*
%TD*%
D16*
%TO.N,Net-(D11-Pad2)*%
X51980000Y-97770000D02*
X51980000Y-95650000D01*
X50467800Y-81997800D02*
X50467800Y-79820155D01*
X52990000Y-94640000D02*
X52990000Y-86230000D01*
X53667800Y-101400140D02*
X53667800Y-99457800D01*
X51980000Y-95650000D02*
X52990000Y-94640000D01*
X53667800Y-99457800D02*
X51980000Y-97770000D01*
X52080000Y-83610000D02*
X50467800Y-81997800D01*
X52990000Y-86230000D02*
X52080000Y-85320000D01*
X52080000Y-85320000D02*
X52080000Y-83610000D01*
D17*
%TO.N,GND*%
X51850000Y-88440000D02*
X51832500Y-88422500D01*
X51832500Y-88422500D02*
X51832500Y-87140000D01*
D16*
%TO.N,Net-(D4-Pad2)*%
X53667800Y-218160035D02*
X53667800Y-216087800D01*
X53667800Y-216087800D02*
X52050000Y-214470000D01*
X51910000Y-201900000D02*
X51910000Y-200320000D01*
X52050000Y-214470000D02*
X52050000Y-212300000D01*
X52050000Y-212300000D02*
X53140000Y-211210000D01*
X53140000Y-211210000D02*
X53140000Y-203130000D01*
X53140000Y-203130000D02*
X51910000Y-201900000D01*
X51910000Y-200320000D02*
X50467800Y-198877800D01*
X50467800Y-198877800D02*
X50467800Y-196580050D01*
%TO.N,Net-(D5-Pad2)*%
X53667800Y-201480050D02*
X53667800Y-199537800D01*
X53667800Y-199537800D02*
X52040000Y-197910000D01*
X52040000Y-195680000D02*
X53490000Y-194230000D01*
X52040000Y-197910000D02*
X52040000Y-195680000D01*
X52010000Y-183680000D02*
X50467800Y-182137800D01*
X53490000Y-194230000D02*
X53490000Y-186940000D01*
X53490000Y-186940000D02*
X52010000Y-185460000D01*
X52010000Y-185460000D02*
X52010000Y-183680000D01*
X50467800Y-182137800D02*
X50467800Y-179900065D01*
%TO.N,Net-(D3-Pad2)*%
X53667800Y-234840020D02*
X53667800Y-232637800D01*
X53667800Y-232637800D02*
X51940000Y-230910000D01*
X51940000Y-230910000D02*
X51940000Y-228580000D01*
X51940000Y-228580000D02*
X53560000Y-226960000D01*
X53560000Y-226960000D02*
X53560000Y-220230000D01*
X53560000Y-220230000D02*
X52010000Y-218680000D01*
X50467800Y-215407800D02*
X50467800Y-213260035D01*
X52010000Y-218680000D02*
X52010000Y-216950000D01*
X52010000Y-216950000D02*
X50467800Y-215407800D01*
%TO.N,Net-(D2-Pad2)*%
X53667800Y-251520005D02*
X53667800Y-249537800D01*
X53667800Y-249537800D02*
X51920000Y-247790000D01*
X51920000Y-247790000D02*
X51920000Y-245380000D01*
X53410000Y-243890000D02*
X53410000Y-236820000D01*
X51920000Y-245380000D02*
X53410000Y-243890000D01*
X53410000Y-236820000D02*
X51910000Y-235320000D01*
X51910000Y-235320000D02*
X51910000Y-233580000D01*
X51910000Y-233580000D02*
X50467800Y-232137800D01*
X50467800Y-232137800D02*
X50467800Y-229940020D01*
%TO.N,Net-(D1-Pad2)*%
X53667800Y-268200000D02*
X53667800Y-265977800D01*
X53667800Y-265977800D02*
X51890000Y-264200000D01*
X51890000Y-264200000D02*
X51890000Y-262280000D01*
X51890000Y-262280000D02*
X53670000Y-260500000D01*
X53670000Y-260500000D02*
X53670000Y-253820000D01*
X53670000Y-253820000D02*
X52060000Y-252210000D01*
X52060000Y-252210000D02*
X52060000Y-250530000D01*
X52060000Y-250530000D02*
X50467800Y-248937800D01*
X50467800Y-248937800D02*
X50467800Y-246620005D01*
%TO.N,Net-(D1-Pad4)*%
X52010000Y-268460000D02*
X52010000Y-266840000D01*
X52010000Y-266840000D02*
X50467800Y-265297800D01*
X50467800Y-265297800D02*
X50467800Y-263300000D01*
D18*
X50944520Y-270409940D02*
X50944520Y-269525480D01*
X50944520Y-269525480D02*
X52010000Y-268460000D01*
X50934520Y-270419940D02*
X50944520Y-270409940D01*
X50934520Y-272185346D02*
X50934520Y-270419940D01*
X50785466Y-272334400D02*
X50934520Y-272185346D01*
D17*
%TO.N,GND*%
X51960000Y-188510000D02*
X51832500Y-188382500D01*
X51832500Y-188382500D02*
X51832500Y-187030000D01*
D16*
%TO.N,Net-(D6-Pad2)*%
X53667800Y-184800065D02*
X53667800Y-182857800D01*
X53667800Y-182857800D02*
X52010000Y-181200000D01*
X52010000Y-181200000D02*
X52010000Y-178900000D01*
X52010000Y-178900000D02*
X53630000Y-177280000D01*
X53630000Y-177280000D02*
X53630000Y-170310000D01*
X53630000Y-170310000D02*
X52050000Y-168730000D01*
X52050000Y-168730000D02*
X52050000Y-167060000D01*
X52050000Y-167060000D02*
X50467800Y-165477800D01*
X50467800Y-165477800D02*
X50467800Y-163220080D01*
%TO.N,Net-(D7-Pad2)*%
X53667800Y-168120080D02*
X53667800Y-166048530D01*
X51960000Y-148740000D02*
X50467800Y-147247800D01*
X53580000Y-160750000D02*
X53580000Y-153560000D01*
X53667800Y-166048530D02*
X52080000Y-164460730D01*
X52080000Y-164460730D02*
X52080000Y-162250000D01*
X52080000Y-162250000D02*
X53580000Y-160750000D01*
X53580000Y-153560000D02*
X51960000Y-151940000D01*
X51960000Y-151940000D02*
X51960000Y-148740000D01*
X50467800Y-147247800D02*
X50467800Y-146540095D01*
%TO.N,Net-(D8-Pad2)*%
X53667800Y-151440095D02*
X53667800Y-149227800D01*
X53667800Y-149227800D02*
X52130000Y-147690000D01*
X50467800Y-131977800D02*
X50467800Y-129860110D01*
X52130000Y-147690000D02*
X52130000Y-145410000D01*
X52130000Y-145410000D02*
X53610000Y-143930000D01*
X53610000Y-143930000D02*
X53610000Y-136970000D01*
X53610000Y-136970000D02*
X52070000Y-135430000D01*
X52070000Y-135430000D02*
X52070000Y-133580000D01*
X52070000Y-133580000D02*
X50467800Y-131977800D01*
%TO.N,Net-(D10-Pad4)*%
X52080000Y-131050000D02*
X52080000Y-128700000D01*
X52080000Y-128700000D02*
X53540000Y-127240000D01*
X53667800Y-132637800D02*
X52080000Y-131050000D01*
X53540000Y-127240000D02*
X53540000Y-120140000D01*
X53667800Y-134760110D02*
X53667800Y-132637800D01*
X53540000Y-120140000D02*
X52080000Y-118680000D01*
X52080000Y-118680000D02*
X52080000Y-116870000D01*
X52080000Y-116870000D02*
X50467800Y-115257800D01*
X50467800Y-115257800D02*
X50467800Y-113180125D01*
%TO.N,Net-(D10-Pad2)*%
X53667800Y-118080125D02*
X53667800Y-116197800D01*
X52040000Y-114570000D02*
X52040000Y-111820000D01*
X53667800Y-116197800D02*
X52040000Y-114570000D01*
X52040000Y-111820000D02*
X53670000Y-110190000D01*
X53670000Y-110190000D02*
X53670000Y-103790000D01*
X53670000Y-103790000D02*
X52050000Y-102170000D01*
X52050000Y-102170000D02*
X52050000Y-100180000D01*
X52050000Y-100180000D02*
X50467800Y-98597800D01*
X50467800Y-98597800D02*
X50467800Y-97087800D01*
%TO.N,Net-(D12-Pad2)*%
X53667800Y-84720155D02*
X53667800Y-82777800D01*
X53560000Y-70330000D02*
X52110000Y-68880000D01*
X53667800Y-82777800D02*
X52040000Y-81150000D01*
X52040000Y-81150000D02*
X52040000Y-78780000D01*
X52040000Y-78780000D02*
X53560000Y-77260000D01*
X53560000Y-77260000D02*
X53560000Y-70330000D01*
X52110000Y-68880000D02*
X52110000Y-66790000D01*
X52110000Y-66790000D02*
X50467800Y-65147800D01*
X50467800Y-65147800D02*
X50467800Y-63140170D01*
%TO.N,Net-(D13-Pad2)*%
X53667800Y-68040170D02*
X53667800Y-66107800D01*
X52040000Y-64480000D02*
X52040000Y-62080000D01*
X52040000Y-62080000D02*
X53630000Y-60490000D01*
X52000000Y-52040000D02*
X52000000Y-49690000D01*
X52000000Y-49690000D02*
X50467800Y-48157800D01*
X53667800Y-66107800D02*
X52040000Y-64480000D01*
X53630000Y-60490000D02*
X53630000Y-53670000D01*
X53630000Y-53670000D02*
X52000000Y-52040000D01*
X50467800Y-48157800D02*
X50467800Y-47057800D01*
%TO.N,Net-(D14-Pad2)*%
X53667800Y-51360185D02*
X53667800Y-49207800D01*
X53667800Y-49207800D02*
X52070000Y-47610000D01*
X52040000Y-35430000D02*
X52040000Y-33070000D01*
X52070000Y-47610000D02*
X52070000Y-45340000D01*
X53720000Y-43690000D02*
X53720000Y-37110000D01*
X52070000Y-45340000D02*
X53720000Y-43690000D01*
X50467800Y-31497800D02*
X50467800Y-29780200D01*
X53720000Y-37110000D02*
X52040000Y-35430000D01*
X52040000Y-33070000D02*
X50467800Y-31497800D01*
D19*
%TO.N,+5V*%
X48560000Y-28370000D02*
X48560000Y-29230000D01*
D20*
X50107500Y-187030000D02*
X50107500Y-185160365D01*
X50107500Y-87140000D02*
X50107500Y-85080455D01*
X50107500Y-53830000D02*
X50107500Y-51720485D01*
D21*
X49503800Y-269293800D02*
X50045000Y-269835000D01*
D20*
X50107500Y-170380000D02*
X50107500Y-168480380D01*
X50107500Y-51720485D02*
X50467800Y-51360185D01*
D17*
X50107500Y-251880305D02*
X50467800Y-251520005D01*
D20*
X50107500Y-237110000D02*
X50107500Y-235200320D01*
X50107500Y-185160365D02*
X50467800Y-184800065D01*
D19*
X48560000Y-29230000D02*
X48560000Y-33493000D01*
D20*
X50107500Y-37090000D02*
X50107500Y-35040500D01*
X50107500Y-101760440D02*
X50467800Y-101400140D01*
X50107500Y-68400470D02*
X50467800Y-68040170D01*
D21*
X50045000Y-269835000D02*
X50045000Y-269950000D01*
D20*
X50107500Y-35040500D02*
X50467800Y-34680200D01*
D19*
X48750000Y-28180000D02*
X48560000Y-28370000D01*
D20*
X50107500Y-203640000D02*
X50107500Y-201840350D01*
D21*
X48086200Y-270443800D02*
X48086200Y-272094400D01*
D17*
X50107500Y-268560300D02*
X50467800Y-268200000D01*
D20*
X50107500Y-253680000D02*
X50107500Y-251880305D01*
X50107500Y-153780000D02*
X50107500Y-151800395D01*
X50107500Y-201840350D02*
X50467800Y-201480050D01*
D21*
X48086200Y-269293800D02*
X49503800Y-269293800D01*
D20*
X50107500Y-151800395D02*
X50467800Y-151440095D01*
X50107500Y-85080455D02*
X50467800Y-84720155D01*
X50107500Y-88732500D02*
X50060000Y-88780000D01*
X50107500Y-269950000D02*
X50107500Y-268560300D01*
D19*
X48251200Y-27681200D02*
X48750000Y-28180000D01*
D20*
X50107500Y-168480380D02*
X50467800Y-168120080D01*
X50107500Y-87140000D02*
X50107500Y-88732500D01*
X50107500Y-70460000D02*
X50107500Y-68400470D01*
D19*
X48251200Y-25804400D02*
X48251200Y-27681200D01*
D22*
X48340000Y-26169600D02*
X48086000Y-25915600D01*
D20*
X50107500Y-220350000D02*
X50107500Y-218520335D01*
D21*
X48086200Y-269293800D02*
X48086200Y-270443800D01*
D20*
X50107500Y-120470000D02*
X50107500Y-118440425D01*
X50107500Y-135120410D02*
X50467800Y-134760110D01*
X50107500Y-118440425D02*
X50467800Y-118080125D01*
X50107500Y-137130000D02*
X50107500Y-135120410D01*
D19*
X48560000Y-33493000D02*
X50107500Y-35040500D01*
D20*
X50107500Y-103860000D02*
X50107500Y-101760440D01*
D17*
X50107500Y-218520335D02*
X50467800Y-218160035D01*
X50107500Y-235200320D02*
X50467800Y-234840020D01*
%TO.N,GND*%
X51832500Y-171212500D02*
X52270000Y-171650000D01*
X53667800Y-214247800D02*
X54090000Y-214670000D01*
X51832500Y-137130000D02*
X51832500Y-137992500D01*
X51832500Y-103860000D02*
X51832500Y-104552500D01*
X53667800Y-264137800D02*
X53667800Y-263300000D01*
X53667800Y-46460185D02*
X53667800Y-47657800D01*
X53667800Y-96500140D02*
X53667800Y-97717800D01*
X51832500Y-220812500D02*
X51832500Y-220350000D01*
X51832500Y-153780000D02*
X51832500Y-154542500D01*
X51832500Y-53830000D02*
X51832500Y-54532500D01*
X53667800Y-180827800D02*
X54090000Y-181250000D01*
X53667800Y-163220080D02*
X53667800Y-164347800D01*
X53484732Y-270424732D02*
X53150000Y-270090000D01*
X51832500Y-70460000D02*
X51832500Y-71272500D01*
X53667800Y-246620005D02*
X53667800Y-247587800D01*
X53667800Y-97717800D02*
X54000000Y-98050000D01*
X51832500Y-71272500D02*
X52380000Y-71820000D01*
X53667800Y-114397800D02*
X53980000Y-114710000D01*
D23*
X53484732Y-272334400D02*
X53484732Y-270424732D01*
D17*
X51832500Y-237110000D02*
X51832500Y-237612500D01*
X53667800Y-164347800D02*
X54100000Y-164780000D01*
X53667800Y-79820155D02*
X53667800Y-81067800D01*
X51832500Y-121132500D02*
X52380000Y-121680000D01*
X53667800Y-230527800D02*
X54360000Y-231220000D01*
X53667800Y-147737800D02*
X54030000Y-148100000D01*
D20*
X53667800Y-29780200D02*
X53667800Y-27757800D01*
D17*
X51832500Y-104552500D02*
X52420000Y-105140000D01*
X51832500Y-253952500D02*
X52530000Y-254650000D01*
X51832500Y-203640000D02*
X51832500Y-204172500D01*
X53667800Y-197517800D02*
X53667800Y-196580050D01*
X53667800Y-129860110D02*
X53667800Y-131047800D01*
X53667800Y-229940020D02*
X53667800Y-230527800D01*
X51832500Y-204172500D02*
X52260000Y-204600000D01*
D20*
X53474732Y-27564732D02*
X53860000Y-27950000D01*
D23*
X53474732Y-25804400D02*
X53474732Y-27564732D01*
D17*
X53667800Y-179900065D02*
X53667800Y-180827800D01*
X53990000Y-197840000D02*
X53667800Y-197517800D01*
X51832500Y-237612500D02*
X52330000Y-238110000D01*
X53667800Y-63140170D02*
X53667800Y-64317800D01*
D20*
X53474732Y-27045268D02*
X52620000Y-27900000D01*
D17*
X53667800Y-131047800D02*
X54050000Y-131430000D01*
X53667800Y-146540095D02*
X53667800Y-147737800D01*
X53010000Y-269950000D02*
X53484732Y-270424732D01*
X51832500Y-137992500D02*
X52330000Y-138490000D01*
X53484732Y-270424732D02*
X53885268Y-270424732D01*
X53667800Y-47657800D02*
X54050000Y-48040000D01*
X53667800Y-247587800D02*
X54210000Y-248130000D01*
X53667800Y-113180125D02*
X53667800Y-114397800D01*
X54040000Y-264510000D02*
X53667800Y-264137800D01*
X53667800Y-213260035D02*
X53667800Y-214247800D01*
X51832500Y-37562500D02*
X52430000Y-38160000D01*
D20*
X53667800Y-27757800D02*
X53474732Y-27564732D01*
D17*
X52290000Y-221270000D02*
X51832500Y-220812500D01*
X51832500Y-253680000D02*
X51832500Y-253952500D01*
X51822500Y-269950000D02*
X53010000Y-269950000D01*
X53667800Y-64317800D02*
X54040000Y-64690000D01*
X51832500Y-37090000D02*
X51832500Y-37562500D01*
X53667800Y-81067800D02*
X53980000Y-81380000D01*
X51832500Y-154542500D02*
X52350000Y-155060000D01*
X51832500Y-170380000D02*
X51832500Y-171212500D01*
X51832500Y-54532500D02*
X52420000Y-55120000D01*
D20*
X53885268Y-270424732D02*
X54190000Y-270120000D01*
D17*
X51832500Y-120470000D02*
X51832500Y-121132500D01*
D24*
%TO.N,Net-(D10-Pad2)*%
X50467800Y-97087800D02*
X50467800Y-96500140D01*
%TO.N,Net-(D13-Pad2)*%
X50467800Y-47057800D02*
X50467800Y-46460185D01*
D16*
%TO.N,Net-(D15-Pad2)*%
X52150000Y-29140000D02*
X50775466Y-27765466D01*
X53667800Y-32397800D02*
X52150000Y-30880000D01*
X52150000Y-30880000D02*
X52150000Y-29580000D01*
X50775466Y-27765466D02*
X50775466Y-25804400D01*
X52150000Y-29580000D02*
X52150000Y-29140000D01*
X53667800Y-34680200D02*
X53667800Y-32397800D01*
D25*
%TO.N,BUTTON*%
X55890000Y-272215400D02*
X56009000Y-272334400D01*
X55890000Y-268380000D02*
X55890000Y-270490000D01*
D20*
X56180000Y-272090400D02*
X56184000Y-272094400D01*
D25*
X55890000Y-270490000D02*
X55890000Y-272215400D01*
D26*
X55820000Y-210400000D02*
X54800000Y-209380000D01*
X54800000Y-209380000D02*
X54800000Y-207220000D01*
X55820000Y-231809919D02*
X55820000Y-210400000D01*
X55820000Y-87420000D02*
X55820000Y-25983400D01*
X55790000Y-269210000D02*
X55790000Y-231999919D01*
X55870000Y-206150000D02*
X55870000Y-92070000D01*
X54740000Y-88500000D02*
X55820000Y-87420000D01*
X55810000Y-269230000D02*
X55790000Y-269210000D01*
D27*
X55820000Y-25983400D02*
X55999000Y-25804400D01*
D26*
X54800000Y-207220000D02*
X55870000Y-206150000D01*
X54740000Y-90940000D02*
X54740000Y-88500000D01*
X55870000Y-92070000D02*
X54740000Y-90940000D01*
%TD*%
%TA.AperFunction,Conductor*%
%TO.N,+5V*%
G36*
X48472321Y-25470402D02*
G01*
X48518814Y-25524058D01*
X48530200Y-25576400D01*
X48530200Y-27594284D01*
X48534675Y-27609523D01*
X48536065Y-27610728D01*
X48543748Y-27612399D01*
X49120869Y-27612399D01*
X49127690Y-27612029D01*
X49178552Y-27606505D01*
X49193804Y-27602879D01*
X49314254Y-27557724D01*
X49329848Y-27549186D01*
X49349851Y-27534195D01*
X49416357Y-27509347D01*
X49485740Y-27524400D01*
X49500981Y-27534195D01*
X49528761Y-27555015D01*
X49665150Y-27606145D01*
X49727332Y-27612900D01*
X49887036Y-27612900D01*
X49955157Y-27632902D01*
X50001650Y-27686558D01*
X50012068Y-27738831D01*
X50012267Y-27738815D01*
X50012861Y-27746114D01*
X50016551Y-27791484D01*
X50016966Y-27801699D01*
X50016966Y-27809759D01*
X50017391Y-27813403D01*
X50020255Y-27837973D01*
X50020688Y-27842348D01*
X50026606Y-27915103D01*
X50028862Y-27922067D01*
X50030053Y-27928026D01*
X50031437Y-27933881D01*
X50032284Y-27941147D01*
X50057201Y-28009793D01*
X50058618Y-28013921D01*
X50081115Y-28083365D01*
X50084911Y-28089620D01*
X50087417Y-28095094D01*
X50090136Y-28100524D01*
X50092633Y-28107403D01*
X50096646Y-28113523D01*
X50096646Y-28113524D01*
X50132652Y-28168442D01*
X50134989Y-28172146D01*
X50172871Y-28234573D01*
X50176587Y-28238781D01*
X50176588Y-28238782D01*
X50180269Y-28242950D01*
X50180242Y-28242974D01*
X50182895Y-28245966D01*
X50185598Y-28249199D01*
X50189610Y-28255318D01*
X50194922Y-28260350D01*
X50194926Y-28260355D01*
X50241239Y-28304228D01*
X50276937Y-28365597D01*
X50273789Y-28436524D01*
X50232795Y-28494489D01*
X50166970Y-28521090D01*
X50154586Y-28521700D01*
X49919666Y-28521700D01*
X49857484Y-28528455D01*
X49721095Y-28579585D01*
X49604539Y-28666939D01*
X49517185Y-28783495D01*
X49466055Y-28919884D01*
X49459300Y-28982066D01*
X49459300Y-30578334D01*
X49466055Y-30640516D01*
X49517185Y-30776905D01*
X49604539Y-30893461D01*
X49611719Y-30898842D01*
X49658865Y-30934176D01*
X49701380Y-30991035D01*
X49709300Y-31035002D01*
X49709300Y-31430730D01*
X49707867Y-31449680D01*
X49704601Y-31471149D01*
X49705194Y-31478441D01*
X49705194Y-31478444D01*
X49708885Y-31523818D01*
X49709300Y-31534033D01*
X49709300Y-31542093D01*
X49709725Y-31545737D01*
X49712589Y-31570307D01*
X49713022Y-31574682D01*
X49718940Y-31647437D01*
X49721196Y-31654401D01*
X49722387Y-31660360D01*
X49723771Y-31666215D01*
X49724618Y-31673481D01*
X49749535Y-31742127D01*
X49750952Y-31746255D01*
X49773449Y-31815699D01*
X49777245Y-31821954D01*
X49779751Y-31827428D01*
X49782470Y-31832858D01*
X49784967Y-31839737D01*
X49788980Y-31845857D01*
X49788980Y-31845858D01*
X49824986Y-31900776D01*
X49827323Y-31904480D01*
X49865205Y-31966907D01*
X49868921Y-31971115D01*
X49868922Y-31971116D01*
X49872603Y-31975284D01*
X49872576Y-31975308D01*
X49875229Y-31978300D01*
X49877932Y-31981533D01*
X49881944Y-31987652D01*
X49887256Y-31992684D01*
X49938183Y-32040928D01*
X49940625Y-32043306D01*
X51104424Y-33207105D01*
X51138450Y-33269417D01*
X51133385Y-33340232D01*
X51090838Y-33397068D01*
X51024318Y-33421879D01*
X51015329Y-33422200D01*
X50739915Y-33422200D01*
X50724676Y-33426675D01*
X50723471Y-33428065D01*
X50721800Y-33435748D01*
X50721800Y-34808200D01*
X50701798Y-34876321D01*
X50648142Y-34922814D01*
X50595800Y-34934200D01*
X49477916Y-34934200D01*
X49462677Y-34938675D01*
X49461472Y-34940065D01*
X49459801Y-34947748D01*
X49459801Y-35474869D01*
X49460171Y-35481690D01*
X49465695Y-35532552D01*
X49469321Y-35547804D01*
X49514476Y-35668254D01*
X49523014Y-35683849D01*
X49599515Y-35785924D01*
X49612076Y-35798485D01*
X49714157Y-35874990D01*
X49722816Y-35879731D01*
X49772962Y-35929990D01*
X49787975Y-35999381D01*
X49763089Y-36065873D01*
X49706205Y-36108355D01*
X49675309Y-36115577D01*
X49660869Y-36117075D01*
X49647472Y-36119968D01*
X49496047Y-36170488D01*
X49482885Y-36176653D01*
X49347508Y-36260426D01*
X49336110Y-36269460D01*
X49223637Y-36382129D01*
X49214625Y-36393540D01*
X49131088Y-36529063D01*
X49124944Y-36542241D01*
X49074685Y-36693766D01*
X49071819Y-36707132D01*
X49062328Y-36799770D01*
X49062000Y-36806185D01*
X49062000Y-36817885D01*
X49066475Y-36833124D01*
X49067865Y-36834329D01*
X49075548Y-36836000D01*
X50235500Y-36836000D01*
X50303621Y-36856002D01*
X50350114Y-36909658D01*
X50361500Y-36962000D01*
X50361500Y-38054885D01*
X50365975Y-38070124D01*
X50367365Y-38071329D01*
X50375048Y-38073000D01*
X50453766Y-38073000D01*
X50460282Y-38072663D01*
X50554132Y-38062925D01*
X50567528Y-38060032D01*
X50718953Y-38009512D01*
X50732115Y-38003347D01*
X50867492Y-37919574D01*
X50878894Y-37910536D01*
X50880567Y-37908861D01*
X50881993Y-37908081D01*
X50884627Y-37905993D01*
X50884984Y-37906444D01*
X50942849Y-37874781D01*
X51013669Y-37879784D01*
X51058754Y-37908701D01*
X51060593Y-37910536D01*
X51066997Y-37916929D01*
X51215080Y-38008209D01*
X51380191Y-38062974D01*
X51387031Y-38063675D01*
X51387032Y-38063675D01*
X51391930Y-38064177D01*
X51398990Y-38064900D01*
X51464718Y-38091740D01*
X51475245Y-38101149D01*
X51482878Y-38108782D01*
X51516904Y-38171094D01*
X51519092Y-38184703D01*
X51536458Y-38349928D01*
X51595473Y-38531556D01*
X51690960Y-38696944D01*
X51818747Y-38838866D01*
X51973248Y-38951118D01*
X51979276Y-38953802D01*
X51979278Y-38953803D01*
X52122179Y-39017426D01*
X52147712Y-39028794D01*
X52241112Y-39048647D01*
X52328056Y-39067128D01*
X52328061Y-39067128D01*
X52334513Y-39068500D01*
X52525487Y-39068500D01*
X52531939Y-39067128D01*
X52531944Y-39067128D01*
X52618888Y-39048647D01*
X52712288Y-39028794D01*
X52784252Y-38996754D01*
X52854618Y-38987320D01*
X52918915Y-39017426D01*
X52956729Y-39077515D01*
X52961500Y-39111861D01*
X52961500Y-43323629D01*
X52941498Y-43391750D01*
X52924595Y-43412724D01*
X51581089Y-44756230D01*
X51566677Y-44768616D01*
X51555082Y-44777149D01*
X51555077Y-44777154D01*
X51549182Y-44781492D01*
X51544443Y-44787070D01*
X51544440Y-44787073D01*
X51514965Y-44821768D01*
X51508035Y-44829284D01*
X51502340Y-44834979D01*
X51500060Y-44837861D01*
X51484719Y-44857251D01*
X51481928Y-44860655D01*
X51439409Y-44910703D01*
X51434667Y-44916285D01*
X51431339Y-44922801D01*
X51427972Y-44927850D01*
X51424805Y-44932979D01*
X51420266Y-44938716D01*
X51389345Y-45004875D01*
X51387442Y-45008769D01*
X51354231Y-45073808D01*
X51352492Y-45080916D01*
X51350393Y-45086559D01*
X51348476Y-45092321D01*
X51345378Y-45098950D01*
X51343888Y-45106115D01*
X51334856Y-45149537D01*
X51301401Y-45212157D01*
X51239402Y-45246750D01*
X51167266Y-45241861D01*
X51141269Y-45232115D01*
X51078116Y-45208440D01*
X51015934Y-45201685D01*
X49919666Y-45201685D01*
X49857484Y-45208440D01*
X49721095Y-45259570D01*
X49604539Y-45346924D01*
X49517185Y-45463480D01*
X49466055Y-45599869D01*
X49459300Y-45662051D01*
X49459300Y-47258319D01*
X49466055Y-47320501D01*
X49517185Y-47456890D01*
X49604539Y-47573446D01*
X49611719Y-47578827D01*
X49658865Y-47614161D01*
X49701380Y-47671020D01*
X49709300Y-47714987D01*
X49709300Y-48090730D01*
X49707867Y-48109680D01*
X49704601Y-48131149D01*
X49705194Y-48138441D01*
X49705194Y-48138444D01*
X49708885Y-48183818D01*
X49709300Y-48194033D01*
X49709300Y-48202093D01*
X49709725Y-48205737D01*
X49712589Y-48230307D01*
X49713022Y-48234682D01*
X49718940Y-48307437D01*
X49721196Y-48314401D01*
X49722387Y-48320360D01*
X49723771Y-48326215D01*
X49724618Y-48333481D01*
X49749535Y-48402127D01*
X49750952Y-48406255D01*
X49773449Y-48475699D01*
X49777245Y-48481954D01*
X49779751Y-48487428D01*
X49782470Y-48492858D01*
X49784967Y-48499737D01*
X49788980Y-48505857D01*
X49788980Y-48505858D01*
X49824986Y-48560776D01*
X49827323Y-48564480D01*
X49865205Y-48626907D01*
X49868921Y-48631115D01*
X49868922Y-48631116D01*
X49872603Y-48635284D01*
X49872576Y-48635308D01*
X49875229Y-48638300D01*
X49877932Y-48641533D01*
X49881944Y-48647652D01*
X49887256Y-48652684D01*
X49938183Y-48700928D01*
X49940625Y-48703306D01*
X51125945Y-49888626D01*
X51159971Y-49950938D01*
X51154906Y-50021753D01*
X51112359Y-50078589D01*
X51045839Y-50103400D01*
X51023239Y-50102984D01*
X51019278Y-50102554D01*
X51012472Y-50102185D01*
X50739915Y-50102185D01*
X50724676Y-50106660D01*
X50723471Y-50108050D01*
X50721800Y-50115733D01*
X50721800Y-51488185D01*
X50701798Y-51556306D01*
X50648142Y-51602799D01*
X50595800Y-51614185D01*
X49477916Y-51614185D01*
X49462677Y-51618660D01*
X49461472Y-51620050D01*
X49459801Y-51627733D01*
X49459801Y-52154854D01*
X49460171Y-52161675D01*
X49465695Y-52212537D01*
X49469321Y-52227789D01*
X49514476Y-52348239D01*
X49523014Y-52363834D01*
X49599515Y-52465909D01*
X49612076Y-52478470D01*
X49714151Y-52554971D01*
X49729746Y-52563509D01*
X49835135Y-52603018D01*
X49891899Y-52645660D01*
X49916599Y-52712221D01*
X49901391Y-52781570D01*
X49851105Y-52831688D01*
X49790905Y-52847000D01*
X49761234Y-52847000D01*
X49754718Y-52847337D01*
X49660868Y-52857075D01*
X49647472Y-52859968D01*
X49496047Y-52910488D01*
X49482885Y-52916653D01*
X49347508Y-53000426D01*
X49336110Y-53009460D01*
X49223637Y-53122129D01*
X49214625Y-53133540D01*
X49131088Y-53269063D01*
X49124944Y-53282241D01*
X49074685Y-53433766D01*
X49071819Y-53447132D01*
X49062328Y-53539770D01*
X49062000Y-53546185D01*
X49062000Y-53557885D01*
X49066475Y-53573124D01*
X49067865Y-53574329D01*
X49075548Y-53576000D01*
X50235500Y-53576000D01*
X50303621Y-53596002D01*
X50350114Y-53649658D01*
X50361500Y-53702000D01*
X50361500Y-54794885D01*
X50365975Y-54810124D01*
X50367365Y-54811329D01*
X50375048Y-54813000D01*
X50453766Y-54813000D01*
X50460282Y-54812663D01*
X50554132Y-54802925D01*
X50567528Y-54800032D01*
X50718953Y-54749512D01*
X50732115Y-54743347D01*
X50867492Y-54659574D01*
X50878894Y-54650536D01*
X50880567Y-54648861D01*
X50881993Y-54648081D01*
X50884627Y-54645993D01*
X50884984Y-54646444D01*
X50942849Y-54614781D01*
X51013669Y-54619784D01*
X51058754Y-54648701D01*
X51060593Y-54650536D01*
X51066997Y-54656929D01*
X51073227Y-54660769D01*
X51073228Y-54660770D01*
X51203257Y-54740921D01*
X51243750Y-54787707D01*
X51246481Y-54786092D01*
X51256793Y-54803528D01*
X51265488Y-54821276D01*
X51272948Y-54840117D01*
X51277610Y-54846533D01*
X51277610Y-54846534D01*
X51298936Y-54875887D01*
X51305452Y-54885807D01*
X51327958Y-54923862D01*
X51342279Y-54938183D01*
X51355119Y-54953216D01*
X51367028Y-54969607D01*
X51373134Y-54974658D01*
X51401105Y-54997798D01*
X51409884Y-55005788D01*
X51472878Y-55068782D01*
X51506904Y-55131094D01*
X51509092Y-55144703D01*
X51526458Y-55309928D01*
X51585473Y-55491556D01*
X51680960Y-55656944D01*
X51808747Y-55798866D01*
X51963248Y-55911118D01*
X51969276Y-55913802D01*
X51969278Y-55913803D01*
X52131681Y-55986109D01*
X52137712Y-55988794D01*
X52231113Y-56008647D01*
X52318056Y-56027128D01*
X52318061Y-56027128D01*
X52324513Y-56028500D01*
X52515487Y-56028500D01*
X52521939Y-56027128D01*
X52521944Y-56027128D01*
X52695833Y-55990166D01*
X52695832Y-55990166D01*
X52702288Y-55988794D01*
X52707069Y-55986665D01*
X52777528Y-55984651D01*
X52838327Y-56021312D01*
X52869654Y-56085023D01*
X52871500Y-56106512D01*
X52871500Y-60123629D01*
X52851498Y-60191750D01*
X52834595Y-60212724D01*
X51551089Y-61496230D01*
X51536677Y-61508616D01*
X51525082Y-61517149D01*
X51525077Y-61517154D01*
X51519182Y-61521492D01*
X51514443Y-61527070D01*
X51514440Y-61527073D01*
X51484965Y-61561768D01*
X51478035Y-61569284D01*
X51472340Y-61574979D01*
X51470060Y-61577861D01*
X51454719Y-61597251D01*
X51451928Y-61600655D01*
X51409409Y-61650703D01*
X51404667Y-61656285D01*
X51401339Y-61662801D01*
X51397972Y-61667850D01*
X51394805Y-61672979D01*
X51390266Y-61678716D01*
X51359345Y-61744875D01*
X51357442Y-61748769D01*
X51324231Y-61813808D01*
X51322491Y-61820919D01*
X51320393Y-61826560D01*
X51318476Y-61832321D01*
X51315378Y-61838950D01*
X51315113Y-61840225D01*
X51276038Y-61896517D01*
X51210449Y-61923694D01*
X51152736Y-61916399D01*
X51078116Y-61888425D01*
X51015934Y-61881670D01*
X49919666Y-61881670D01*
X49857484Y-61888425D01*
X49721095Y-61939555D01*
X49604539Y-62026909D01*
X49517185Y-62143465D01*
X49466055Y-62279854D01*
X49459300Y-62342036D01*
X49459300Y-63938304D01*
X49466055Y-64000486D01*
X49517185Y-64136875D01*
X49604539Y-64253431D01*
X49611719Y-64258812D01*
X49658865Y-64294146D01*
X49701380Y-64351005D01*
X49709300Y-64394972D01*
X49709300Y-65080730D01*
X49707867Y-65099680D01*
X49704601Y-65121149D01*
X49705194Y-65128441D01*
X49705194Y-65128444D01*
X49708885Y-65173818D01*
X49709300Y-65184033D01*
X49709300Y-65192093D01*
X49709725Y-65195737D01*
X49712589Y-65220307D01*
X49713022Y-65224682D01*
X49718940Y-65297437D01*
X49721196Y-65304401D01*
X49722387Y-65310360D01*
X49723771Y-65316215D01*
X49724618Y-65323481D01*
X49749535Y-65392127D01*
X49750952Y-65396255D01*
X49773449Y-65465699D01*
X49777245Y-65471954D01*
X49779751Y-65477428D01*
X49782470Y-65482858D01*
X49784967Y-65489737D01*
X49788980Y-65495857D01*
X49788980Y-65495858D01*
X49824986Y-65550776D01*
X49827323Y-65554480D01*
X49865205Y-65616907D01*
X49868921Y-65621115D01*
X49868922Y-65621116D01*
X49872603Y-65625284D01*
X49872576Y-65625308D01*
X49875229Y-65628300D01*
X49877932Y-65631533D01*
X49881944Y-65637652D01*
X49887256Y-65642684D01*
X49938183Y-65690928D01*
X49940625Y-65693306D01*
X50814394Y-66567075D01*
X50848420Y-66629387D01*
X50843355Y-66700202D01*
X50800808Y-66757038D01*
X50756293Y-66773642D01*
X50757298Y-66777066D01*
X50724676Y-66786645D01*
X50723471Y-66788035D01*
X50721800Y-66795718D01*
X50721800Y-68168170D01*
X50701798Y-68236291D01*
X50648142Y-68282784D01*
X50595800Y-68294170D01*
X49477916Y-68294170D01*
X49462677Y-68298645D01*
X49461472Y-68300035D01*
X49459801Y-68307718D01*
X49459801Y-68834839D01*
X49460171Y-68841660D01*
X49465695Y-68892522D01*
X49469321Y-68907774D01*
X49514476Y-69028224D01*
X49523014Y-69043819D01*
X49599515Y-69145894D01*
X49612076Y-69158455D01*
X49714151Y-69234956D01*
X49737618Y-69247804D01*
X49735882Y-69250974D01*
X49778874Y-69283231D01*
X49803612Y-69349778D01*
X49788444Y-69419136D01*
X49738187Y-69469283D01*
X49690929Y-69483956D01*
X49660867Y-69487076D01*
X49647472Y-69489968D01*
X49496047Y-69540488D01*
X49482885Y-69546653D01*
X49347508Y-69630426D01*
X49336110Y-69639460D01*
X49223637Y-69752129D01*
X49214625Y-69763540D01*
X49131088Y-69899063D01*
X49124944Y-69912241D01*
X49074685Y-70063766D01*
X49071819Y-70077132D01*
X49062328Y-70169770D01*
X49062000Y-70176185D01*
X49062000Y-70187885D01*
X49066475Y-70203124D01*
X49067865Y-70204329D01*
X49075548Y-70206000D01*
X50235500Y-70206000D01*
X50303621Y-70226002D01*
X50350114Y-70279658D01*
X50361500Y-70332000D01*
X50361500Y-71424885D01*
X50365975Y-71440124D01*
X50367365Y-71441329D01*
X50375048Y-71443000D01*
X50453766Y-71443000D01*
X50460282Y-71442663D01*
X50554132Y-71432925D01*
X50567528Y-71430032D01*
X50718953Y-71379512D01*
X50732115Y-71373347D01*
X50867492Y-71289574D01*
X50878894Y-71280536D01*
X50880567Y-71278861D01*
X50881993Y-71278081D01*
X50884627Y-71275993D01*
X50884984Y-71276444D01*
X50942849Y-71244781D01*
X51013669Y-71249784D01*
X51058754Y-71278701D01*
X51060593Y-71280536D01*
X51066997Y-71286929D01*
X51073227Y-71290769D01*
X51073228Y-71290770D01*
X51155572Y-71341527D01*
X51203065Y-71394299D01*
X51211498Y-71417455D01*
X51213032Y-71423432D01*
X51214026Y-71431297D01*
X51216942Y-71438663D01*
X51216944Y-71438669D01*
X51230304Y-71472412D01*
X51234149Y-71483642D01*
X51246482Y-71526093D01*
X51250515Y-71532912D01*
X51250517Y-71532917D01*
X51256793Y-71543528D01*
X51265488Y-71561276D01*
X51272948Y-71580117D01*
X51277610Y-71586533D01*
X51277610Y-71586534D01*
X51298936Y-71615887D01*
X51305452Y-71625807D01*
X51327958Y-71663862D01*
X51342279Y-71678183D01*
X51355119Y-71693216D01*
X51367028Y-71709607D01*
X51373136Y-71714660D01*
X51401098Y-71737792D01*
X51409878Y-71745782D01*
X51432878Y-71768782D01*
X51466904Y-71831094D01*
X51469092Y-71844703D01*
X51486458Y-72009928D01*
X51545473Y-72191556D01*
X51640960Y-72356944D01*
X51768747Y-72498866D01*
X51923248Y-72611118D01*
X51929276Y-72613802D01*
X51929278Y-72613803D01*
X52091681Y-72686109D01*
X52097712Y-72688794D01*
X52191113Y-72708647D01*
X52278056Y-72727128D01*
X52278061Y-72727128D01*
X52284513Y-72728500D01*
X52475487Y-72728500D01*
X52481939Y-72727128D01*
X52481944Y-72727128D01*
X52649303Y-72691554D01*
X52720094Y-72696956D01*
X52776726Y-72739773D01*
X52801220Y-72806410D01*
X52801500Y-72814801D01*
X52801500Y-76893629D01*
X52781498Y-76961750D01*
X52764595Y-76982724D01*
X51551089Y-78196230D01*
X51536677Y-78208616D01*
X51525082Y-78217149D01*
X51525077Y-78217154D01*
X51519182Y-78221492D01*
X51514443Y-78227070D01*
X51514440Y-78227073D01*
X51484965Y-78261768D01*
X51478035Y-78269284D01*
X51472340Y-78274979D01*
X51470060Y-78277861D01*
X51454719Y-78297251D01*
X51451928Y-78300655D01*
X51412929Y-78346560D01*
X51404667Y-78356285D01*
X51401339Y-78362801D01*
X51397972Y-78367850D01*
X51394805Y-78372979D01*
X51390266Y-78378716D01*
X51359345Y-78444875D01*
X51357442Y-78448769D01*
X51324231Y-78513808D01*
X51322490Y-78520923D01*
X51321126Y-78524591D01*
X51278634Y-78581469D01*
X51212138Y-78606344D01*
X51158797Y-78598656D01*
X51132285Y-78588717D01*
X51078116Y-78568410D01*
X51015934Y-78561655D01*
X49919666Y-78561655D01*
X49857484Y-78568410D01*
X49721095Y-78619540D01*
X49604539Y-78706894D01*
X49517185Y-78823450D01*
X49466055Y-78959839D01*
X49459300Y-79022021D01*
X49459300Y-80618289D01*
X49466055Y-80680471D01*
X49517185Y-80816860D01*
X49604539Y-80933416D01*
X49611719Y-80938797D01*
X49658865Y-80974131D01*
X49701380Y-81030990D01*
X49709300Y-81074957D01*
X49709300Y-81930730D01*
X49707867Y-81949680D01*
X49704601Y-81971149D01*
X49705194Y-81978441D01*
X49705194Y-81978444D01*
X49708885Y-82023818D01*
X49709300Y-82034033D01*
X49709300Y-82042093D01*
X49709725Y-82045737D01*
X49712589Y-82070307D01*
X49713022Y-82074682D01*
X49718940Y-82147437D01*
X49721196Y-82154401D01*
X49722387Y-82160360D01*
X49723771Y-82166215D01*
X49724618Y-82173481D01*
X49749535Y-82242127D01*
X49750952Y-82246255D01*
X49768466Y-82300316D01*
X49773449Y-82315699D01*
X49777245Y-82321954D01*
X49779751Y-82327428D01*
X49782470Y-82332858D01*
X49784967Y-82339737D01*
X49788980Y-82345857D01*
X49788980Y-82345858D01*
X49824986Y-82400776D01*
X49827323Y-82404480D01*
X49865205Y-82466907D01*
X49868921Y-82471115D01*
X49868922Y-82471116D01*
X49872603Y-82475284D01*
X49872576Y-82475308D01*
X49875229Y-82478300D01*
X49877932Y-82481533D01*
X49881944Y-82487652D01*
X49887256Y-82492684D01*
X49938183Y-82540928D01*
X49940625Y-82543306D01*
X50706381Y-83309062D01*
X50740407Y-83371374D01*
X50735342Y-83442189D01*
X50725472Y-83458825D01*
X50721800Y-83475703D01*
X50721800Y-84848155D01*
X50701798Y-84916276D01*
X50648142Y-84962769D01*
X50595800Y-84974155D01*
X49477916Y-84974155D01*
X49462677Y-84978630D01*
X49461472Y-84980020D01*
X49459801Y-84987703D01*
X49459801Y-85514824D01*
X49460171Y-85521645D01*
X49465695Y-85572507D01*
X49469321Y-85587759D01*
X49514476Y-85708209D01*
X49523014Y-85723804D01*
X49599515Y-85825879D01*
X49612076Y-85838440D01*
X49714151Y-85914941D01*
X49737618Y-85927789D01*
X49735890Y-85930944D01*
X49778936Y-85963270D01*
X49803646Y-86029827D01*
X49788450Y-86099179D01*
X49738172Y-86149305D01*
X49690959Y-86163953D01*
X49660868Y-86167076D01*
X49647472Y-86169968D01*
X49496047Y-86220488D01*
X49482885Y-86226653D01*
X49347508Y-86310426D01*
X49336110Y-86319460D01*
X49223637Y-86432129D01*
X49214625Y-86443540D01*
X49131088Y-86579063D01*
X49124944Y-86592241D01*
X49074685Y-86743766D01*
X49071819Y-86757132D01*
X49062328Y-86849770D01*
X49062000Y-86856185D01*
X49062000Y-86867885D01*
X49066475Y-86883124D01*
X49067865Y-86884329D01*
X49075548Y-86886000D01*
X50235500Y-86886000D01*
X50303621Y-86906002D01*
X50350114Y-86959658D01*
X50361500Y-87012000D01*
X50361500Y-88104885D01*
X50365975Y-88120124D01*
X50367365Y-88121329D01*
X50375048Y-88123000D01*
X50453766Y-88123000D01*
X50460282Y-88122663D01*
X50554132Y-88112925D01*
X50567528Y-88110032D01*
X50718953Y-88059512D01*
X50732117Y-88053346D01*
X50800534Y-88011008D01*
X50868986Y-87992170D01*
X50936756Y-88013331D01*
X50982327Y-88067772D01*
X50991231Y-88138208D01*
X50986670Y-88157088D01*
X50970236Y-88207668D01*
X50956458Y-88250072D01*
X50936496Y-88440000D01*
X50956458Y-88629928D01*
X51015473Y-88811556D01*
X51110960Y-88976944D01*
X51115378Y-88981851D01*
X51115379Y-88981852D01*
X51123457Y-88990823D01*
X51238747Y-89118866D01*
X51393248Y-89231118D01*
X51399276Y-89233802D01*
X51399278Y-89233803D01*
X51561681Y-89306109D01*
X51567712Y-89308794D01*
X51646110Y-89325458D01*
X51748056Y-89347128D01*
X51748061Y-89347128D01*
X51754513Y-89348500D01*
X51945487Y-89348500D01*
X51951940Y-89347128D01*
X51951953Y-89347127D01*
X52079303Y-89320057D01*
X52150093Y-89325458D01*
X52206726Y-89368275D01*
X52231220Y-89434912D01*
X52231500Y-89443303D01*
X52231500Y-94273629D01*
X52211498Y-94341750D01*
X52194595Y-94362724D01*
X51491089Y-95066230D01*
X51476677Y-95078616D01*
X51465082Y-95087149D01*
X51465077Y-95087154D01*
X51459182Y-95091492D01*
X51454443Y-95097070D01*
X51454440Y-95097073D01*
X51424965Y-95131768D01*
X51418035Y-95139284D01*
X51412340Y-95144979D01*
X51410060Y-95147861D01*
X51394719Y-95167251D01*
X51391928Y-95170655D01*
X51352533Y-95217026D01*
X51344667Y-95226285D01*
X51341338Y-95232804D01*
X51337277Y-95238893D01*
X51336873Y-95238623D01*
X51336837Y-95238656D01*
X51330865Y-95247958D01*
X51330287Y-95248689D01*
X51327832Y-95246748D01*
X51285463Y-95284820D01*
X51215383Y-95296190D01*
X51186832Y-95289151D01*
X51175279Y-95284820D01*
X51078116Y-95248395D01*
X51015934Y-95241640D01*
X49919666Y-95241640D01*
X49857484Y-95248395D01*
X49721095Y-95299525D01*
X49604539Y-95386879D01*
X49517185Y-95503435D01*
X49466055Y-95639824D01*
X49459300Y-95702006D01*
X49459300Y-97298274D01*
X49466055Y-97360456D01*
X49517185Y-97496845D01*
X49604539Y-97613401D01*
X49611719Y-97618782D01*
X49658865Y-97654116D01*
X49701380Y-97710975D01*
X49709300Y-97754942D01*
X49709300Y-98530730D01*
X49707867Y-98549680D01*
X49704601Y-98571149D01*
X49705194Y-98578441D01*
X49705194Y-98578444D01*
X49708885Y-98623818D01*
X49709300Y-98634033D01*
X49709300Y-98642093D01*
X49709725Y-98645737D01*
X49712589Y-98670307D01*
X49713022Y-98674682D01*
X49718940Y-98747437D01*
X49721196Y-98754401D01*
X49722387Y-98760360D01*
X49723771Y-98766215D01*
X49724618Y-98773481D01*
X49749535Y-98842127D01*
X49750952Y-98846255D01*
X49759746Y-98873399D01*
X49773449Y-98915699D01*
X49777245Y-98921954D01*
X49779751Y-98927428D01*
X49782470Y-98932858D01*
X49784967Y-98939737D01*
X49788980Y-98945857D01*
X49788980Y-98945858D01*
X49824986Y-99000776D01*
X49827323Y-99004480D01*
X49865205Y-99066907D01*
X49868921Y-99071115D01*
X49868922Y-99071116D01*
X49872603Y-99075284D01*
X49872576Y-99075308D01*
X49875229Y-99078300D01*
X49877932Y-99081533D01*
X49881944Y-99087652D01*
X49887256Y-99092684D01*
X49938183Y-99140928D01*
X49940625Y-99143306D01*
X50744005Y-99946686D01*
X50778031Y-100008998D01*
X50772966Y-100079813D01*
X50745863Y-100116019D01*
X50748904Y-100118654D01*
X50723471Y-100148005D01*
X50721800Y-100155688D01*
X50721800Y-101528140D01*
X50701798Y-101596261D01*
X50648142Y-101642754D01*
X50595800Y-101654140D01*
X49477916Y-101654140D01*
X49462677Y-101658615D01*
X49461472Y-101660005D01*
X49459801Y-101667688D01*
X49459801Y-102194809D01*
X49460171Y-102201630D01*
X49465695Y-102252492D01*
X49469321Y-102267744D01*
X49514476Y-102388194D01*
X49523014Y-102403789D01*
X49599515Y-102505864D01*
X49612076Y-102518425D01*
X49714151Y-102594926D01*
X49729746Y-102603464D01*
X49808581Y-102633018D01*
X49865345Y-102675660D01*
X49890045Y-102742221D01*
X49874838Y-102811570D01*
X49824552Y-102861688D01*
X49764351Y-102877000D01*
X49761234Y-102877000D01*
X49754718Y-102877337D01*
X49660868Y-102887075D01*
X49647472Y-102889968D01*
X49496047Y-102940488D01*
X49482885Y-102946653D01*
X49347508Y-103030426D01*
X49336110Y-103039460D01*
X49223637Y-103152129D01*
X49214625Y-103163540D01*
X49131088Y-103299063D01*
X49124944Y-103312241D01*
X49074685Y-103463766D01*
X49071819Y-103477132D01*
X49062328Y-103569770D01*
X49062000Y-103576185D01*
X49062000Y-103587885D01*
X49066475Y-103603124D01*
X49067865Y-103604329D01*
X49075548Y-103606000D01*
X50235500Y-103606000D01*
X50303621Y-103626002D01*
X50350114Y-103679658D01*
X50361500Y-103732000D01*
X50361500Y-104824885D01*
X50365975Y-104840124D01*
X50367365Y-104841329D01*
X50375048Y-104843000D01*
X50453766Y-104843000D01*
X50460282Y-104842663D01*
X50554132Y-104832925D01*
X50567528Y-104830032D01*
X50718953Y-104779512D01*
X50732115Y-104773347D01*
X50867492Y-104689574D01*
X50878894Y-104680536D01*
X50880567Y-104678861D01*
X50881993Y-104678081D01*
X50884627Y-104675993D01*
X50884984Y-104676444D01*
X50942849Y-104644781D01*
X51013669Y-104649784D01*
X51058754Y-104678701D01*
X51060593Y-104680536D01*
X51066997Y-104686929D01*
X51212053Y-104776343D01*
X51254392Y-104819467D01*
X51256797Y-104823534D01*
X51265488Y-104841276D01*
X51272948Y-104860117D01*
X51277610Y-104866533D01*
X51277610Y-104866534D01*
X51298936Y-104895887D01*
X51305452Y-104905807D01*
X51327958Y-104943862D01*
X51342279Y-104958183D01*
X51355119Y-104973216D01*
X51367028Y-104989607D01*
X51373134Y-104994658D01*
X51401105Y-105017798D01*
X51409884Y-105025788D01*
X51472878Y-105088782D01*
X51506904Y-105151094D01*
X51509092Y-105164703D01*
X51526458Y-105329928D01*
X51585473Y-105511556D01*
X51680960Y-105676944D01*
X51808747Y-105818866D01*
X51963248Y-105931118D01*
X51969276Y-105933802D01*
X51969278Y-105933803D01*
X52084559Y-105985129D01*
X52137712Y-106008794D01*
X52231112Y-106028647D01*
X52318056Y-106047128D01*
X52318061Y-106047128D01*
X52324513Y-106048500D01*
X52515487Y-106048500D01*
X52521939Y-106047128D01*
X52521944Y-106047128D01*
X52608888Y-106028647D01*
X52702288Y-106008794D01*
X52734252Y-105994563D01*
X52804618Y-105985129D01*
X52868915Y-106015235D01*
X52906728Y-106075324D01*
X52911500Y-106109670D01*
X52911500Y-109823629D01*
X52891498Y-109891750D01*
X52874595Y-109912724D01*
X51551089Y-111236230D01*
X51536677Y-111248616D01*
X51525082Y-111257149D01*
X51525077Y-111257154D01*
X51519182Y-111261492D01*
X51514443Y-111267070D01*
X51514440Y-111267073D01*
X51484965Y-111301768D01*
X51478035Y-111309284D01*
X51472340Y-111314979D01*
X51470060Y-111317861D01*
X51454719Y-111337251D01*
X51451928Y-111340655D01*
X51409409Y-111390703D01*
X51404667Y-111396285D01*
X51401339Y-111402801D01*
X51397972Y-111407850D01*
X51394805Y-111412979D01*
X51390266Y-111418716D01*
X51359345Y-111484875D01*
X51357442Y-111488769D01*
X51324231Y-111553808D01*
X51322492Y-111560916D01*
X51320393Y-111566559D01*
X51318476Y-111572322D01*
X51315378Y-111578950D01*
X51313888Y-111586112D01*
X51313888Y-111586113D01*
X51300514Y-111650412D01*
X51299544Y-111654696D01*
X51282192Y-111725610D01*
X51281500Y-111736764D01*
X51281464Y-111736762D01*
X51281225Y-111740755D01*
X51280851Y-111744947D01*
X51279360Y-111752115D01*
X51279558Y-111759431D01*
X51281178Y-111819316D01*
X51263025Y-111887952D01*
X51210647Y-111935879D01*
X51140672Y-111947880D01*
X51110996Y-111940705D01*
X51085521Y-111931155D01*
X51085514Y-111931153D01*
X51078116Y-111928380D01*
X51015934Y-111921625D01*
X49919666Y-111921625D01*
X49857484Y-111928380D01*
X49721095Y-111979510D01*
X49604539Y-112066864D01*
X49517185Y-112183420D01*
X49466055Y-112319809D01*
X49459300Y-112381991D01*
X49459300Y-113978259D01*
X49466055Y-114040441D01*
X49517185Y-114176830D01*
X49604539Y-114293386D01*
X49611719Y-114298767D01*
X49658865Y-114334101D01*
X49701380Y-114390960D01*
X49709300Y-114434927D01*
X49709300Y-115190730D01*
X49707867Y-115209680D01*
X49704601Y-115231149D01*
X49705194Y-115238441D01*
X49705194Y-115238444D01*
X49708885Y-115283818D01*
X49709300Y-115294033D01*
X49709300Y-115302093D01*
X49709725Y-115305737D01*
X49712589Y-115330307D01*
X49713022Y-115334682D01*
X49718940Y-115407437D01*
X49721196Y-115414401D01*
X49722387Y-115420360D01*
X49723771Y-115426215D01*
X49724618Y-115433481D01*
X49749535Y-115502127D01*
X49750952Y-115506255D01*
X49763558Y-115545166D01*
X49773449Y-115575699D01*
X49777245Y-115581954D01*
X49779751Y-115587428D01*
X49782470Y-115592858D01*
X49784967Y-115599737D01*
X49788980Y-115605857D01*
X49788980Y-115605858D01*
X49824986Y-115660776D01*
X49827323Y-115664480D01*
X49865205Y-115726907D01*
X49868921Y-115731115D01*
X49868922Y-115731116D01*
X49872603Y-115735284D01*
X49872576Y-115735308D01*
X49875229Y-115738300D01*
X49877932Y-115741533D01*
X49881944Y-115747652D01*
X49887256Y-115752684D01*
X49938183Y-115800928D01*
X49940625Y-115803306D01*
X50759453Y-116622134D01*
X50793479Y-116684446D01*
X50788414Y-116755261D01*
X50745867Y-116812097D01*
X50730636Y-116819721D01*
X50723471Y-116827990D01*
X50721800Y-116835673D01*
X50721800Y-118208125D01*
X50701798Y-118276246D01*
X50648142Y-118322739D01*
X50595800Y-118334125D01*
X49477916Y-118334125D01*
X49462677Y-118338600D01*
X49461472Y-118339990D01*
X49459801Y-118347673D01*
X49459801Y-118874794D01*
X49460171Y-118881615D01*
X49465695Y-118932477D01*
X49469321Y-118947729D01*
X49514476Y-119068179D01*
X49523014Y-119083774D01*
X49599515Y-119185849D01*
X49612076Y-119198410D01*
X49711298Y-119272773D01*
X49753813Y-119329632D01*
X49758839Y-119400451D01*
X49724779Y-119462744D01*
X49662328Y-119496760D01*
X49647475Y-119499967D01*
X49496047Y-119550488D01*
X49482885Y-119556653D01*
X49347508Y-119640426D01*
X49336110Y-119649460D01*
X49223637Y-119762129D01*
X49214625Y-119773540D01*
X49131088Y-119909063D01*
X49124944Y-119922241D01*
X49074685Y-120073766D01*
X49071819Y-120087132D01*
X49062328Y-120179770D01*
X49062000Y-120186185D01*
X49062000Y-120197885D01*
X49066475Y-120213124D01*
X49067865Y-120214329D01*
X49075548Y-120216000D01*
X50235500Y-120216000D01*
X50303621Y-120236002D01*
X50350114Y-120289658D01*
X50361500Y-120342000D01*
X50361500Y-121434885D01*
X50365975Y-121450124D01*
X50367365Y-121451329D01*
X50375048Y-121453000D01*
X50453766Y-121453000D01*
X50460282Y-121452663D01*
X50554132Y-121442925D01*
X50567528Y-121440032D01*
X50718953Y-121389512D01*
X50732115Y-121383347D01*
X50867492Y-121299574D01*
X50878894Y-121290536D01*
X50880567Y-121288861D01*
X50881993Y-121288081D01*
X50884627Y-121285993D01*
X50884984Y-121286444D01*
X50942849Y-121254781D01*
X51013669Y-121259784D01*
X51058754Y-121288701D01*
X51060593Y-121290536D01*
X51066997Y-121296929D01*
X51215080Y-121388209D01*
X51219013Y-121389513D01*
X51271055Y-121435337D01*
X51272948Y-121440117D01*
X51281094Y-121451329D01*
X51298936Y-121475887D01*
X51305452Y-121485807D01*
X51327958Y-121523862D01*
X51342279Y-121538183D01*
X51355119Y-121553216D01*
X51367028Y-121569607D01*
X51373136Y-121574660D01*
X51401098Y-121597792D01*
X51409878Y-121605782D01*
X51432878Y-121628782D01*
X51466904Y-121691094D01*
X51469092Y-121704703D01*
X51486458Y-121869928D01*
X51545473Y-122051556D01*
X51640960Y-122216944D01*
X51768747Y-122358866D01*
X51923248Y-122471118D01*
X51929276Y-122473802D01*
X51929278Y-122473803D01*
X52091681Y-122546109D01*
X52097712Y-122548794D01*
X52191112Y-122568647D01*
X52278056Y-122587128D01*
X52278061Y-122587128D01*
X52284513Y-122588500D01*
X52475487Y-122588500D01*
X52481939Y-122587128D01*
X52481944Y-122587128D01*
X52583728Y-122565493D01*
X52629304Y-122555805D01*
X52700094Y-122561207D01*
X52756726Y-122604024D01*
X52781220Y-122670661D01*
X52781500Y-122679052D01*
X52781500Y-126873629D01*
X52761498Y-126941750D01*
X52744595Y-126962724D01*
X51591089Y-128116230D01*
X51576677Y-128128616D01*
X51565082Y-128137149D01*
X51565077Y-128137154D01*
X51559182Y-128141492D01*
X51554443Y-128147070D01*
X51554440Y-128147073D01*
X51524965Y-128181768D01*
X51518035Y-128189284D01*
X51512340Y-128194979D01*
X51510060Y-128197861D01*
X51494719Y-128217251D01*
X51491928Y-128220655D01*
X51449409Y-128270703D01*
X51444667Y-128276285D01*
X51441339Y-128282801D01*
X51437972Y-128287850D01*
X51434805Y-128292979D01*
X51430266Y-128298716D01*
X51399345Y-128364875D01*
X51397442Y-128368769D01*
X51364231Y-128433808D01*
X51362492Y-128440916D01*
X51360393Y-128446559D01*
X51358476Y-128452322D01*
X51355378Y-128458950D01*
X51353888Y-128466112D01*
X51353888Y-128466113D01*
X51340514Y-128530412D01*
X51339551Y-128534666D01*
X51334797Y-128554095D01*
X51299180Y-128615507D01*
X51236012Y-128647916D01*
X51168180Y-128642128D01*
X51085518Y-128611139D01*
X51085512Y-128611137D01*
X51078116Y-128608365D01*
X51015934Y-128601610D01*
X49919666Y-128601610D01*
X49857484Y-128608365D01*
X49721095Y-128659495D01*
X49604539Y-128746849D01*
X49517185Y-128863405D01*
X49466055Y-128999794D01*
X49459300Y-129061976D01*
X49459300Y-130658244D01*
X49466055Y-130720426D01*
X49517185Y-130856815D01*
X49604539Y-130973371D01*
X49658865Y-131014086D01*
X49701380Y-131070945D01*
X49709300Y-131114912D01*
X49709300Y-131910730D01*
X49707867Y-131929680D01*
X49704601Y-131951149D01*
X49705194Y-131958441D01*
X49705194Y-131958444D01*
X49708885Y-132003818D01*
X49709300Y-132014033D01*
X49709300Y-132022093D01*
X49709725Y-132025737D01*
X49712589Y-132050307D01*
X49713022Y-132054682D01*
X49718940Y-132127437D01*
X49721196Y-132134401D01*
X49722387Y-132140360D01*
X49723771Y-132146215D01*
X49724618Y-132153481D01*
X49749535Y-132222127D01*
X49750952Y-132226255D01*
X49773449Y-132295699D01*
X49777245Y-132301954D01*
X49779751Y-132307428D01*
X49782470Y-132312858D01*
X49784967Y-132319737D01*
X49788980Y-132325857D01*
X49788980Y-132325858D01*
X49824986Y-132380776D01*
X49827323Y-132384480D01*
X49865205Y-132446907D01*
X49868921Y-132451115D01*
X49868922Y-132451116D01*
X49872603Y-132455284D01*
X49872576Y-132455308D01*
X49875229Y-132458300D01*
X49877932Y-132461533D01*
X49881944Y-132467652D01*
X49887256Y-132472684D01*
X49938183Y-132520928D01*
X49940625Y-132523306D01*
X50734214Y-133316895D01*
X50768240Y-133379207D01*
X50763175Y-133450022D01*
X50740344Y-133488501D01*
X50723472Y-133507973D01*
X50721800Y-133515658D01*
X50721800Y-134888110D01*
X50701798Y-134956231D01*
X50648142Y-135002724D01*
X50595800Y-135014110D01*
X49477916Y-135014110D01*
X49462677Y-135018585D01*
X49461472Y-135019975D01*
X49459801Y-135027658D01*
X49459801Y-135554779D01*
X49460171Y-135561600D01*
X49465695Y-135612462D01*
X49469321Y-135627714D01*
X49514476Y-135748164D01*
X49523014Y-135763759D01*
X49599515Y-135865834D01*
X49612076Y-135878395D01*
X49690597Y-135937243D01*
X49733112Y-135994102D01*
X49738138Y-136064920D01*
X49704078Y-136127214D01*
X49653079Y-136154996D01*
X49654010Y-136157787D01*
X49496047Y-136210488D01*
X49482885Y-136216653D01*
X49347508Y-136300426D01*
X49336110Y-136309460D01*
X49223637Y-136422129D01*
X49214625Y-136433540D01*
X49131088Y-136569063D01*
X49124944Y-136582241D01*
X49074685Y-136733766D01*
X49071819Y-136747132D01*
X49062328Y-136839770D01*
X49062000Y-136846185D01*
X49062000Y-136857885D01*
X49066475Y-136873124D01*
X49067865Y-136874329D01*
X49075548Y-136876000D01*
X50235500Y-136876000D01*
X50303621Y-136896002D01*
X50350114Y-136949658D01*
X50361500Y-137002000D01*
X50361500Y-138094885D01*
X50365975Y-138110124D01*
X50367365Y-138111329D01*
X50375048Y-138113000D01*
X50453766Y-138113000D01*
X50460282Y-138112663D01*
X50554132Y-138102925D01*
X50567528Y-138100032D01*
X50718953Y-138049512D01*
X50732115Y-138043347D01*
X50867492Y-137959574D01*
X50878894Y-137950536D01*
X50880567Y-137948861D01*
X50881993Y-137948081D01*
X50884627Y-137945993D01*
X50884984Y-137946444D01*
X50942849Y-137914781D01*
X51013669Y-137919784D01*
X51058754Y-137948701D01*
X51060593Y-137950536D01*
X51066997Y-137956929D01*
X51073227Y-137960769D01*
X51073228Y-137960770D01*
X51144476Y-138004688D01*
X51191969Y-138057460D01*
X51201712Y-138088717D01*
X51201827Y-138092389D01*
X51207330Y-138111329D01*
X51207478Y-138111839D01*
X51211487Y-138131200D01*
X51214026Y-138151297D01*
X51216945Y-138158668D01*
X51216945Y-138158670D01*
X51230304Y-138192412D01*
X51234149Y-138203642D01*
X51246482Y-138246093D01*
X51250515Y-138252912D01*
X51250517Y-138252917D01*
X51256793Y-138263528D01*
X51265488Y-138281276D01*
X51272948Y-138300117D01*
X51277610Y-138306533D01*
X51277610Y-138306534D01*
X51298936Y-138335887D01*
X51305452Y-138345807D01*
X51327958Y-138383862D01*
X51342279Y-138398183D01*
X51355119Y-138413216D01*
X51367028Y-138429607D01*
X51373132Y-138434657D01*
X51373138Y-138434663D01*
X51374636Y-138435902D01*
X51375492Y-138437170D01*
X51378564Y-138440441D01*
X51378036Y-138440936D01*
X51414374Y-138494736D01*
X51419629Y-138519814D01*
X51436458Y-138679928D01*
X51495473Y-138861556D01*
X51590960Y-139026944D01*
X51718747Y-139168866D01*
X51873248Y-139281118D01*
X51879276Y-139283802D01*
X51879278Y-139283803D01*
X51985748Y-139331206D01*
X52047712Y-139358794D01*
X52141112Y-139378647D01*
X52228056Y-139397128D01*
X52228061Y-139397128D01*
X52234513Y-139398500D01*
X52425487Y-139398500D01*
X52431939Y-139397128D01*
X52431944Y-139397128D01*
X52518888Y-139378647D01*
X52612288Y-139358794D01*
X52674252Y-139331206D01*
X52744618Y-139321772D01*
X52808915Y-139351878D01*
X52846728Y-139411967D01*
X52851500Y-139446313D01*
X52851500Y-143563629D01*
X52831498Y-143631750D01*
X52814595Y-143652724D01*
X51641089Y-144826230D01*
X51626677Y-144838616D01*
X51615082Y-144847149D01*
X51615077Y-144847154D01*
X51609182Y-144851492D01*
X51604443Y-144857070D01*
X51604440Y-144857073D01*
X51574965Y-144891768D01*
X51568035Y-144899284D01*
X51562340Y-144904979D01*
X51560060Y-144907861D01*
X51544719Y-144927251D01*
X51541928Y-144930655D01*
X51499409Y-144980703D01*
X51494667Y-144986285D01*
X51491339Y-144992801D01*
X51487972Y-144997850D01*
X51484805Y-145002979D01*
X51480266Y-145008716D01*
X51449345Y-145074875D01*
X51447442Y-145078769D01*
X51414231Y-145143808D01*
X51412492Y-145150916D01*
X51410393Y-145156559D01*
X51408476Y-145162322D01*
X51405378Y-145168950D01*
X51403888Y-145176112D01*
X51403888Y-145176113D01*
X51390514Y-145240412D01*
X51389554Y-145244654D01*
X51387092Y-145254716D01*
X51351474Y-145316127D01*
X51288306Y-145348536D01*
X51217644Y-145341648D01*
X51216976Y-145341332D01*
X51214505Y-145339480D01*
X51206098Y-145336328D01*
X51150832Y-145315610D01*
X51078116Y-145288350D01*
X51015934Y-145281595D01*
X49919666Y-145281595D01*
X49857484Y-145288350D01*
X49721095Y-145339480D01*
X49604539Y-145426834D01*
X49517185Y-145543390D01*
X49466055Y-145679779D01*
X49459300Y-145741961D01*
X49459300Y-147338229D01*
X49466055Y-147400411D01*
X49517185Y-147536800D01*
X49604539Y-147653356D01*
X49721095Y-147740710D01*
X49857484Y-147791840D01*
X49905002Y-147797002D01*
X49970564Y-147824244D01*
X49980489Y-147833170D01*
X51164595Y-149017276D01*
X51198621Y-149079588D01*
X51201500Y-149106371D01*
X51201500Y-150061829D01*
X51181498Y-150129950D01*
X51127842Y-150176443D01*
X51061893Y-150187092D01*
X51019288Y-150182464D01*
X51012472Y-150182095D01*
X50739915Y-150182095D01*
X50724676Y-150186570D01*
X50723471Y-150187960D01*
X50721800Y-150195643D01*
X50721800Y-151568095D01*
X50701798Y-151636216D01*
X50648142Y-151682709D01*
X50595800Y-151694095D01*
X49477916Y-151694095D01*
X49462677Y-151698570D01*
X49461472Y-151699960D01*
X49459801Y-151707643D01*
X49459801Y-152234764D01*
X49460171Y-152241585D01*
X49465695Y-152292447D01*
X49469321Y-152307699D01*
X49514476Y-152428149D01*
X49523014Y-152443744D01*
X49599515Y-152545819D01*
X49612075Y-152558379D01*
X49662814Y-152596405D01*
X49705330Y-152653264D01*
X49710356Y-152724082D01*
X49676297Y-152786376D01*
X49627126Y-152816756D01*
X49496047Y-152860488D01*
X49482885Y-152866653D01*
X49347508Y-152950426D01*
X49336110Y-152959460D01*
X49223637Y-153072129D01*
X49214625Y-153083540D01*
X49131088Y-153219063D01*
X49124944Y-153232241D01*
X49074685Y-153383766D01*
X49071819Y-153397132D01*
X49062328Y-153489770D01*
X49062000Y-153496185D01*
X49062000Y-153507885D01*
X49066475Y-153523124D01*
X49067865Y-153524329D01*
X49075548Y-153526000D01*
X50235500Y-153526000D01*
X50303621Y-153546002D01*
X50350114Y-153599658D01*
X50361500Y-153652000D01*
X50361500Y-154744885D01*
X50365975Y-154760124D01*
X50367365Y-154761329D01*
X50375048Y-154763000D01*
X50453766Y-154763000D01*
X50460282Y-154762663D01*
X50554132Y-154752925D01*
X50567528Y-154750032D01*
X50718953Y-154699512D01*
X50732115Y-154693347D01*
X50867492Y-154609574D01*
X50878894Y-154600536D01*
X50880567Y-154598861D01*
X50881993Y-154598081D01*
X50884627Y-154595993D01*
X50884984Y-154596444D01*
X50942849Y-154564781D01*
X51013669Y-154569784D01*
X51058754Y-154598701D01*
X51060593Y-154600536D01*
X51066997Y-154606929D01*
X51073227Y-154610769D01*
X51073228Y-154610770D01*
X51176440Y-154674391D01*
X51223933Y-154727163D01*
X51227479Y-154735275D01*
X51230307Y-154742419D01*
X51234149Y-154753642D01*
X51236868Y-154763000D01*
X51246482Y-154796093D01*
X51250515Y-154802912D01*
X51250517Y-154802917D01*
X51256793Y-154813528D01*
X51265488Y-154831276D01*
X51272948Y-154850117D01*
X51277610Y-154856533D01*
X51277610Y-154856534D01*
X51298936Y-154885887D01*
X51305452Y-154895807D01*
X51327958Y-154933862D01*
X51342279Y-154948183D01*
X51355119Y-154963216D01*
X51367028Y-154979607D01*
X51373132Y-154984657D01*
X51373137Y-154984662D01*
X51394237Y-155002117D01*
X51433976Y-155060951D01*
X51439232Y-155086032D01*
X51456458Y-155249928D01*
X51515473Y-155431556D01*
X51610960Y-155596944D01*
X51738747Y-155738866D01*
X51893248Y-155851118D01*
X51899276Y-155853802D01*
X51899278Y-155853803D01*
X52034560Y-155914034D01*
X52067712Y-155928794D01*
X52161113Y-155948647D01*
X52248056Y-155967128D01*
X52248061Y-155967128D01*
X52254513Y-155968500D01*
X52445487Y-155968500D01*
X52451939Y-155967128D01*
X52451944Y-155967128D01*
X52538887Y-155948647D01*
X52632288Y-155928794D01*
X52644253Y-155923467D01*
X52714620Y-155914034D01*
X52778917Y-155944142D01*
X52816729Y-156004232D01*
X52821500Y-156038575D01*
X52821500Y-160383629D01*
X52801498Y-160451750D01*
X52784595Y-160472724D01*
X51591089Y-161666230D01*
X51576677Y-161678616D01*
X51565082Y-161687149D01*
X51565077Y-161687154D01*
X51559182Y-161691492D01*
X51554443Y-161697070D01*
X51554440Y-161697073D01*
X51524965Y-161731768D01*
X51518035Y-161739284D01*
X51512340Y-161744979D01*
X51510060Y-161747861D01*
X51494719Y-161767251D01*
X51491928Y-161770655D01*
X51449409Y-161820703D01*
X51444667Y-161826285D01*
X51441339Y-161832801D01*
X51437972Y-161837850D01*
X51434805Y-161842979D01*
X51430266Y-161848716D01*
X51399345Y-161914875D01*
X51397439Y-161918774D01*
X51375686Y-161961375D01*
X51326893Y-162012948D01*
X51257963Y-162029955D01*
X51215064Y-162017974D01*
X51214505Y-162019465D01*
X51078116Y-161968335D01*
X51015934Y-161961580D01*
X49919666Y-161961580D01*
X49857484Y-161968335D01*
X49721095Y-162019465D01*
X49604539Y-162106819D01*
X49517185Y-162223375D01*
X49466055Y-162359764D01*
X49459300Y-162421946D01*
X49459300Y-164018214D01*
X49466055Y-164080396D01*
X49517185Y-164216785D01*
X49604539Y-164333341D01*
X49611719Y-164338722D01*
X49658865Y-164374056D01*
X49701380Y-164430915D01*
X49709300Y-164474882D01*
X49709300Y-165410730D01*
X49707867Y-165429680D01*
X49704601Y-165451149D01*
X49705194Y-165458441D01*
X49705194Y-165458444D01*
X49708885Y-165503818D01*
X49709300Y-165514033D01*
X49709300Y-165522093D01*
X49709725Y-165525737D01*
X49712589Y-165550307D01*
X49713022Y-165554682D01*
X49718940Y-165627437D01*
X49721196Y-165634401D01*
X49722387Y-165640360D01*
X49723771Y-165646215D01*
X49724618Y-165653481D01*
X49749535Y-165722127D01*
X49750952Y-165726255D01*
X49773449Y-165795699D01*
X49777245Y-165801954D01*
X49779751Y-165807428D01*
X49782470Y-165812858D01*
X49784967Y-165819737D01*
X49788980Y-165825857D01*
X49788980Y-165825858D01*
X49824986Y-165880776D01*
X49827323Y-165884480D01*
X49865205Y-165946907D01*
X49868921Y-165951115D01*
X49868922Y-165951116D01*
X49872603Y-165955284D01*
X49872576Y-165955308D01*
X49875229Y-165958300D01*
X49877932Y-165961533D01*
X49881944Y-165967652D01*
X49887256Y-165972684D01*
X49938183Y-166020928D01*
X49940625Y-166023306D01*
X50685861Y-166768542D01*
X50719887Y-166830854D01*
X50719888Y-166862080D01*
X50721800Y-166862080D01*
X50721800Y-168248080D01*
X50701798Y-168316201D01*
X50648142Y-168362694D01*
X50595800Y-168374080D01*
X49477916Y-168374080D01*
X49462677Y-168378555D01*
X49461472Y-168379945D01*
X49459801Y-168387628D01*
X49459801Y-168914749D01*
X49460171Y-168921570D01*
X49465695Y-168972432D01*
X49469321Y-168987684D01*
X49514476Y-169108134D01*
X49523014Y-169123729D01*
X49599515Y-169225804D01*
X49605488Y-169231777D01*
X49639514Y-169294089D01*
X49634449Y-169364904D01*
X49591902Y-169421740D01*
X49556269Y-169440396D01*
X49496047Y-169460488D01*
X49482885Y-169466653D01*
X49347508Y-169550426D01*
X49336110Y-169559460D01*
X49223637Y-169672129D01*
X49214625Y-169683540D01*
X49131088Y-169819063D01*
X49124944Y-169832241D01*
X49074685Y-169983766D01*
X49071819Y-169997132D01*
X49062328Y-170089770D01*
X49062000Y-170096185D01*
X49062000Y-170107885D01*
X49066475Y-170123124D01*
X49067865Y-170124329D01*
X49075548Y-170126000D01*
X50235500Y-170126000D01*
X50303621Y-170146002D01*
X50350114Y-170199658D01*
X50361500Y-170252000D01*
X50361500Y-171344885D01*
X50365975Y-171360124D01*
X50367365Y-171361329D01*
X50375048Y-171363000D01*
X50453766Y-171363000D01*
X50460282Y-171362663D01*
X50554132Y-171352925D01*
X50567528Y-171350032D01*
X50718953Y-171299512D01*
X50732115Y-171293347D01*
X50867492Y-171209574D01*
X50878894Y-171200536D01*
X50880567Y-171198861D01*
X50881993Y-171198081D01*
X50884627Y-171195993D01*
X50884984Y-171196444D01*
X50942849Y-171164781D01*
X51013669Y-171169784D01*
X51058754Y-171198701D01*
X51060593Y-171200536D01*
X51066997Y-171206929D01*
X51073227Y-171210769D01*
X51073228Y-171210770D01*
X51152583Y-171259685D01*
X51200076Y-171312457D01*
X51207224Y-171330975D01*
X51207238Y-171331022D01*
X51211487Y-171351200D01*
X51214026Y-171371297D01*
X51216945Y-171378668D01*
X51216945Y-171378670D01*
X51230304Y-171412412D01*
X51234149Y-171423642D01*
X51246482Y-171466093D01*
X51250515Y-171472912D01*
X51250517Y-171472917D01*
X51256793Y-171483528D01*
X51265488Y-171501276D01*
X51272948Y-171520117D01*
X51277610Y-171526533D01*
X51277610Y-171526534D01*
X51298936Y-171555887D01*
X51305452Y-171565807D01*
X51327958Y-171603862D01*
X51333241Y-171609145D01*
X51358914Y-171673007D01*
X51376458Y-171839928D01*
X51435473Y-172021556D01*
X51530960Y-172186944D01*
X51658747Y-172328866D01*
X51813248Y-172441118D01*
X51819276Y-172443802D01*
X51819278Y-172443803D01*
X51981681Y-172516109D01*
X51987712Y-172518794D01*
X52081112Y-172538647D01*
X52168056Y-172557128D01*
X52168061Y-172557128D01*
X52174513Y-172558500D01*
X52365487Y-172558500D01*
X52371939Y-172557128D01*
X52371944Y-172557128D01*
X52458888Y-172538647D01*
X52552288Y-172518794D01*
X52694252Y-172455588D01*
X52764618Y-172446154D01*
X52828915Y-172476260D01*
X52866729Y-172536349D01*
X52871500Y-172570695D01*
X52871500Y-176913629D01*
X52851498Y-176981750D01*
X52834595Y-177002724D01*
X51521089Y-178316230D01*
X51506677Y-178328616D01*
X51495082Y-178337149D01*
X51495077Y-178337154D01*
X51489182Y-178341492D01*
X51484443Y-178347070D01*
X51484440Y-178347073D01*
X51454965Y-178381768D01*
X51448035Y-178389284D01*
X51442340Y-178394979D01*
X51440060Y-178397861D01*
X51424719Y-178417251D01*
X51421928Y-178420655D01*
X51379409Y-178470703D01*
X51374667Y-178476285D01*
X51371339Y-178482801D01*
X51367972Y-178487850D01*
X51364805Y-178492979D01*
X51360266Y-178498716D01*
X51329345Y-178564875D01*
X51327439Y-178568774D01*
X51304432Y-178613831D01*
X51255639Y-178665404D01*
X51186709Y-178682411D01*
X51147987Y-178674513D01*
X51078116Y-178648320D01*
X51015934Y-178641565D01*
X49919666Y-178641565D01*
X49857484Y-178648320D01*
X49721095Y-178699450D01*
X49604539Y-178786804D01*
X49517185Y-178903360D01*
X49466055Y-179039749D01*
X49459300Y-179101931D01*
X49459300Y-180698199D01*
X49466055Y-180760381D01*
X49517185Y-180896770D01*
X49604539Y-181013326D01*
X49611719Y-181018707D01*
X49658865Y-181054041D01*
X49701380Y-181110900D01*
X49709300Y-181154867D01*
X49709300Y-182070730D01*
X49707867Y-182089680D01*
X49704601Y-182111149D01*
X49705194Y-182118441D01*
X49705194Y-182118444D01*
X49708885Y-182163818D01*
X49709300Y-182174033D01*
X49709300Y-182182093D01*
X49709725Y-182185737D01*
X49712589Y-182210307D01*
X49713022Y-182214682D01*
X49713262Y-182217626D01*
X49718940Y-182287437D01*
X49721196Y-182294401D01*
X49722387Y-182300360D01*
X49723771Y-182306215D01*
X49724618Y-182313481D01*
X49749535Y-182382127D01*
X49750952Y-182386255D01*
X49751742Y-182388692D01*
X49773449Y-182455699D01*
X49777245Y-182461954D01*
X49779751Y-182467428D01*
X49782470Y-182472858D01*
X49784967Y-182479737D01*
X49788980Y-182485857D01*
X49788980Y-182485858D01*
X49824986Y-182540776D01*
X49827323Y-182544480D01*
X49865205Y-182606907D01*
X49868921Y-182611115D01*
X49868922Y-182611116D01*
X49872603Y-182615284D01*
X49872576Y-182615308D01*
X49875229Y-182618300D01*
X49877932Y-182621533D01*
X49881944Y-182627652D01*
X49887256Y-182632684D01*
X49938183Y-182680928D01*
X49940625Y-182683306D01*
X50689432Y-183432113D01*
X50723458Y-183494425D01*
X50723458Y-183547990D01*
X50721800Y-183555612D01*
X50721800Y-184928065D01*
X50701798Y-184996186D01*
X50648142Y-185042679D01*
X50595800Y-185054065D01*
X49477916Y-185054065D01*
X49462677Y-185058540D01*
X49461472Y-185059930D01*
X49459801Y-185067613D01*
X49459801Y-185594734D01*
X49460171Y-185601555D01*
X49465695Y-185652417D01*
X49469321Y-185667669D01*
X49514476Y-185788119D01*
X49523014Y-185803714D01*
X49596772Y-185902129D01*
X49621620Y-185968636D01*
X49606567Y-186038018D01*
X49556393Y-186088248D01*
X49535821Y-186097218D01*
X49496049Y-186110487D01*
X49482885Y-186116653D01*
X49347508Y-186200426D01*
X49336110Y-186209460D01*
X49223637Y-186322129D01*
X49214625Y-186333540D01*
X49131088Y-186469063D01*
X49124944Y-186482241D01*
X49074685Y-186633766D01*
X49071819Y-186647132D01*
X49062328Y-186739770D01*
X49062000Y-186746185D01*
X49062000Y-186757885D01*
X49066475Y-186773124D01*
X49067865Y-186774329D01*
X49075548Y-186776000D01*
X50235500Y-186776000D01*
X50303621Y-186796002D01*
X50350114Y-186849658D01*
X50361500Y-186902000D01*
X50361500Y-187994885D01*
X50365975Y-188010124D01*
X50367365Y-188011329D01*
X50375048Y-188013000D01*
X50453766Y-188013000D01*
X50460282Y-188012663D01*
X50554132Y-188002925D01*
X50567528Y-188000032D01*
X50718953Y-187949512D01*
X50732115Y-187943347D01*
X50867492Y-187859574D01*
X50878894Y-187850536D01*
X50880567Y-187848861D01*
X50881993Y-187848081D01*
X50884627Y-187845993D01*
X50884984Y-187846444D01*
X50942849Y-187814781D01*
X51013669Y-187819784D01*
X51058754Y-187848701D01*
X51060593Y-187850536D01*
X51066997Y-187856929D01*
X51073227Y-187860769D01*
X51073228Y-187860770D01*
X51125782Y-187893165D01*
X51173276Y-187945938D01*
X51184698Y-188016009D01*
X51168785Y-188063425D01*
X51125473Y-188138444D01*
X51066458Y-188320072D01*
X51046496Y-188510000D01*
X51066458Y-188699928D01*
X51125473Y-188881556D01*
X51220960Y-189046944D01*
X51348747Y-189188866D01*
X51503248Y-189301118D01*
X51509276Y-189303802D01*
X51509278Y-189303803D01*
X51545049Y-189319729D01*
X51677712Y-189378794D01*
X51771113Y-189398647D01*
X51858056Y-189417128D01*
X51858061Y-189417128D01*
X51864513Y-189418500D01*
X52055487Y-189418500D01*
X52061939Y-189417128D01*
X52061944Y-189417128D01*
X52148887Y-189398647D01*
X52242288Y-189378794D01*
X52374951Y-189319729D01*
X52410722Y-189303803D01*
X52410724Y-189303802D01*
X52416752Y-189301118D01*
X52422094Y-189297237D01*
X52531439Y-189217793D01*
X52598307Y-189193934D01*
X52667458Y-189210015D01*
X52716939Y-189260929D01*
X52731500Y-189319729D01*
X52731500Y-193863629D01*
X52711498Y-193931750D01*
X52694595Y-193952724D01*
X51551089Y-195096230D01*
X51536677Y-195108616D01*
X51525082Y-195117149D01*
X51525077Y-195117154D01*
X51519182Y-195121492D01*
X51514443Y-195127070D01*
X51514440Y-195127073D01*
X51484965Y-195161768D01*
X51478035Y-195169284D01*
X51472340Y-195174979D01*
X51470060Y-195177861D01*
X51454719Y-195197251D01*
X51451928Y-195200655D01*
X51411797Y-195247892D01*
X51404667Y-195256285D01*
X51401339Y-195262801D01*
X51397972Y-195267850D01*
X51394805Y-195272979D01*
X51390266Y-195278716D01*
X51379595Y-195301548D01*
X51373295Y-195315028D01*
X51326332Y-195368272D01*
X51258038Y-195387674D01*
X51215571Y-195376592D01*
X51214505Y-195379435D01*
X51078116Y-195328305D01*
X51015934Y-195321550D01*
X49919666Y-195321550D01*
X49857484Y-195328305D01*
X49721095Y-195379435D01*
X49604539Y-195466789D01*
X49517185Y-195583345D01*
X49466055Y-195719734D01*
X49459300Y-195781916D01*
X49459300Y-197378184D01*
X49466055Y-197440366D01*
X49517185Y-197576755D01*
X49604539Y-197693311D01*
X49611719Y-197698692D01*
X49658865Y-197734026D01*
X49701380Y-197790885D01*
X49709300Y-197834852D01*
X49709300Y-198810730D01*
X49707867Y-198829680D01*
X49704601Y-198851149D01*
X49705194Y-198858441D01*
X49705194Y-198858444D01*
X49708885Y-198903818D01*
X49709300Y-198914033D01*
X49709300Y-198922093D01*
X49709725Y-198925737D01*
X49712589Y-198950307D01*
X49713022Y-198954682D01*
X49718940Y-199027437D01*
X49721196Y-199034401D01*
X49722387Y-199040360D01*
X49723771Y-199046215D01*
X49724618Y-199053481D01*
X49749535Y-199122127D01*
X49750952Y-199126255D01*
X49773449Y-199195699D01*
X49777245Y-199201954D01*
X49779751Y-199207428D01*
X49782470Y-199212858D01*
X49784967Y-199219737D01*
X49788980Y-199225857D01*
X49788980Y-199225858D01*
X49824986Y-199280776D01*
X49827323Y-199284480D01*
X49865205Y-199346907D01*
X49868921Y-199351115D01*
X49868922Y-199351116D01*
X49872603Y-199355284D01*
X49872576Y-199355308D01*
X49875229Y-199358300D01*
X49877932Y-199361533D01*
X49881944Y-199367652D01*
X49887256Y-199372684D01*
X49938183Y-199420928D01*
X49940625Y-199423306D01*
X50684895Y-200167576D01*
X50718921Y-200229888D01*
X50721800Y-200256671D01*
X50721800Y-201608050D01*
X50701798Y-201676171D01*
X50648142Y-201722664D01*
X50595800Y-201734050D01*
X49477916Y-201734050D01*
X49462677Y-201738525D01*
X49461472Y-201739915D01*
X49459801Y-201747598D01*
X49459801Y-202274719D01*
X49460171Y-202281540D01*
X49465695Y-202332402D01*
X49469321Y-202347654D01*
X49514476Y-202468104D01*
X49523012Y-202483694D01*
X49554813Y-202526126D01*
X49579661Y-202592632D01*
X49564609Y-202662015D01*
X49514435Y-202712245D01*
X49502678Y-202717373D01*
X49502681Y-202717380D01*
X49482885Y-202726653D01*
X49347508Y-202810426D01*
X49336110Y-202819460D01*
X49223637Y-202932129D01*
X49214625Y-202943540D01*
X49131088Y-203079063D01*
X49124944Y-203092241D01*
X49074685Y-203243766D01*
X49071819Y-203257132D01*
X49062328Y-203349770D01*
X49062000Y-203356185D01*
X49062000Y-203367885D01*
X49066475Y-203383124D01*
X49067865Y-203384329D01*
X49075548Y-203386000D01*
X50235500Y-203386000D01*
X50303621Y-203406002D01*
X50350114Y-203459658D01*
X50361500Y-203512000D01*
X50361500Y-204604885D01*
X50365975Y-204620124D01*
X50367365Y-204621329D01*
X50375048Y-204623000D01*
X50453766Y-204623000D01*
X50460282Y-204622663D01*
X50554132Y-204612925D01*
X50567528Y-204610032D01*
X50718953Y-204559512D01*
X50732115Y-204553347D01*
X50867492Y-204469574D01*
X50878894Y-204460536D01*
X50880567Y-204458861D01*
X50881993Y-204458081D01*
X50884627Y-204455993D01*
X50884984Y-204456444D01*
X50942849Y-204424781D01*
X51013669Y-204429784D01*
X51058754Y-204458701D01*
X51060593Y-204460536D01*
X51066997Y-204466929D01*
X51215080Y-204558209D01*
X51269546Y-204576275D01*
X51327905Y-204616704D01*
X51355188Y-204682696D01*
X51366458Y-204789928D01*
X51425473Y-204971556D01*
X51520960Y-205136944D01*
X51648747Y-205278866D01*
X51803248Y-205391118D01*
X51809276Y-205393802D01*
X51809278Y-205393803D01*
X51971681Y-205466109D01*
X51977712Y-205468794D01*
X52071113Y-205488647D01*
X52158056Y-205507128D01*
X52158061Y-205507128D01*
X52164513Y-205508500D01*
X52255500Y-205508500D01*
X52323621Y-205528502D01*
X52370114Y-205582158D01*
X52381500Y-205634500D01*
X52381500Y-210843629D01*
X52361498Y-210911750D01*
X52344595Y-210932724D01*
X51561089Y-211716230D01*
X51546677Y-211728616D01*
X51535082Y-211737149D01*
X51535077Y-211737154D01*
X51529182Y-211741492D01*
X51524443Y-211747070D01*
X51524440Y-211747073D01*
X51494965Y-211781768D01*
X51488035Y-211789284D01*
X51482340Y-211794979D01*
X51480060Y-211797861D01*
X51464719Y-211817251D01*
X51461928Y-211820655D01*
X51419409Y-211870703D01*
X51414667Y-211876285D01*
X51411339Y-211882801D01*
X51407972Y-211887850D01*
X51404805Y-211892979D01*
X51400266Y-211898716D01*
X51369345Y-211964875D01*
X51367438Y-211968777D01*
X51355160Y-211992821D01*
X51306366Y-212044393D01*
X51237436Y-212061398D01*
X51198715Y-212053500D01*
X51085518Y-212011064D01*
X51085512Y-212011062D01*
X51078116Y-212008290D01*
X51015934Y-212001535D01*
X49919666Y-212001535D01*
X49857484Y-212008290D01*
X49721095Y-212059420D01*
X49604539Y-212146774D01*
X49517185Y-212263330D01*
X49466055Y-212399719D01*
X49459300Y-212461901D01*
X49459300Y-214058169D01*
X49466055Y-214120351D01*
X49517185Y-214256740D01*
X49604539Y-214373296D01*
X49658865Y-214414011D01*
X49701380Y-214470870D01*
X49709300Y-214514837D01*
X49709300Y-215340730D01*
X49707867Y-215359680D01*
X49704601Y-215381149D01*
X49705194Y-215388441D01*
X49705194Y-215388444D01*
X49708885Y-215433818D01*
X49709300Y-215444033D01*
X49709300Y-215452093D01*
X49709725Y-215455737D01*
X49712589Y-215480307D01*
X49713022Y-215484682D01*
X49717424Y-215538794D01*
X49718940Y-215557437D01*
X49721196Y-215564401D01*
X49722387Y-215570360D01*
X49723771Y-215576215D01*
X49724618Y-215583481D01*
X49749535Y-215652127D01*
X49750952Y-215656255D01*
X49773449Y-215725699D01*
X49777245Y-215731954D01*
X49779751Y-215737428D01*
X49782470Y-215742858D01*
X49784967Y-215749737D01*
X49788980Y-215755857D01*
X49788980Y-215755858D01*
X49824986Y-215810776D01*
X49827323Y-215814480D01*
X49865205Y-215876907D01*
X49868921Y-215881115D01*
X49868922Y-215881116D01*
X49872603Y-215885284D01*
X49872576Y-215885308D01*
X49875229Y-215888300D01*
X49877932Y-215891533D01*
X49881944Y-215897652D01*
X49887256Y-215902684D01*
X49938183Y-215950928D01*
X49940625Y-215953306D01*
X50720252Y-216732933D01*
X50754278Y-216795245D01*
X50749213Y-216866060D01*
X50726383Y-216904539D01*
X50723471Y-216907899D01*
X50721800Y-216915583D01*
X50721800Y-218288035D01*
X50701798Y-218356156D01*
X50648142Y-218402649D01*
X50595800Y-218414035D01*
X49477916Y-218414035D01*
X49462677Y-218418510D01*
X49461472Y-218419900D01*
X49459801Y-218427583D01*
X49459801Y-218954704D01*
X49460171Y-218961525D01*
X49465695Y-219012387D01*
X49469321Y-219027639D01*
X49514476Y-219148089D01*
X49523014Y-219163684D01*
X49572808Y-219230124D01*
X49597656Y-219296631D01*
X49582603Y-219366013D01*
X49532428Y-219416243D01*
X49511857Y-219425213D01*
X49496049Y-219430487D01*
X49482885Y-219436653D01*
X49347508Y-219520426D01*
X49336110Y-219529460D01*
X49223637Y-219642129D01*
X49214625Y-219653540D01*
X49131088Y-219789063D01*
X49124944Y-219802241D01*
X49074685Y-219953766D01*
X49071819Y-219967132D01*
X49062328Y-220059770D01*
X49062000Y-220066185D01*
X49062000Y-220077885D01*
X49066475Y-220093124D01*
X49067865Y-220094329D01*
X49075548Y-220096000D01*
X50235500Y-220096000D01*
X50303621Y-220116002D01*
X50350114Y-220169658D01*
X50361500Y-220222000D01*
X50361500Y-221314885D01*
X50365975Y-221330124D01*
X50367365Y-221331329D01*
X50375048Y-221333000D01*
X50453766Y-221333000D01*
X50460282Y-221332663D01*
X50554132Y-221322925D01*
X50567528Y-221320032D01*
X50718953Y-221269512D01*
X50732115Y-221263347D01*
X50867492Y-221179574D01*
X50878894Y-221170536D01*
X50880567Y-221168861D01*
X50881993Y-221168081D01*
X50884627Y-221165993D01*
X50884984Y-221166444D01*
X50942849Y-221134781D01*
X51013669Y-221139784D01*
X51058754Y-221168701D01*
X51060593Y-221170536D01*
X51066997Y-221176929D01*
X51215080Y-221268209D01*
X51291688Y-221293619D01*
X51304984Y-221298029D01*
X51363344Y-221338460D01*
X51390627Y-221404451D01*
X51396458Y-221459928D01*
X51455473Y-221641556D01*
X51550960Y-221806944D01*
X51678747Y-221948866D01*
X51833248Y-222061118D01*
X51839276Y-222063802D01*
X51839278Y-222063803D01*
X52001679Y-222136108D01*
X52007712Y-222138794D01*
X52101112Y-222158647D01*
X52188056Y-222177128D01*
X52188061Y-222177128D01*
X52194513Y-222178500D01*
X52385487Y-222178500D01*
X52391939Y-222177128D01*
X52391944Y-222177128D01*
X52478888Y-222158647D01*
X52572288Y-222138794D01*
X52578315Y-222136111D01*
X52578323Y-222136108D01*
X52624252Y-222115659D01*
X52694619Y-222106225D01*
X52758916Y-222136332D01*
X52796729Y-222196421D01*
X52801500Y-222230766D01*
X52801500Y-226593629D01*
X52781498Y-226661750D01*
X52764595Y-226682724D01*
X51451089Y-227996230D01*
X51436677Y-228008616D01*
X51425082Y-228017149D01*
X51425077Y-228017154D01*
X51419182Y-228021492D01*
X51414443Y-228027070D01*
X51414440Y-228027073D01*
X51384965Y-228061768D01*
X51378035Y-228069284D01*
X51372340Y-228074979D01*
X51370060Y-228077861D01*
X51354719Y-228097251D01*
X51351928Y-228100655D01*
X51309409Y-228150703D01*
X51304667Y-228156285D01*
X51301339Y-228162801D01*
X51297972Y-228167850D01*
X51294805Y-228172979D01*
X51290266Y-228178716D01*
X51259345Y-228244875D01*
X51257442Y-228248769D01*
X51224231Y-228313808D01*
X51222492Y-228320916D01*
X51220393Y-228326559D01*
X51218476Y-228332322D01*
X51215378Y-228338950D01*
X51213888Y-228346112D01*
X51213888Y-228346113D01*
X51200514Y-228410412D01*
X51199544Y-228414696D01*
X51182192Y-228485610D01*
X51181500Y-228496764D01*
X51181464Y-228496762D01*
X51181225Y-228500755D01*
X51180851Y-228504948D01*
X51179360Y-228512115D01*
X51179558Y-228519430D01*
X51180536Y-228555568D01*
X51162384Y-228624205D01*
X51110006Y-228672133D01*
X51040975Y-228684240D01*
X51019333Y-228681889D01*
X51019329Y-228681889D01*
X51015934Y-228681520D01*
X49919666Y-228681520D01*
X49857484Y-228688275D01*
X49721095Y-228739405D01*
X49604539Y-228826759D01*
X49517185Y-228943315D01*
X49466055Y-229079704D01*
X49459300Y-229141886D01*
X49459300Y-230738154D01*
X49466055Y-230800336D01*
X49517185Y-230936725D01*
X49604539Y-231053281D01*
X49611719Y-231058662D01*
X49658865Y-231093996D01*
X49701380Y-231150855D01*
X49709300Y-231194822D01*
X49709300Y-232070730D01*
X49707867Y-232089680D01*
X49704601Y-232111149D01*
X49705194Y-232118441D01*
X49705194Y-232118444D01*
X49708885Y-232163818D01*
X49709300Y-232174033D01*
X49709300Y-232182093D01*
X49709725Y-232185737D01*
X49712589Y-232210307D01*
X49713022Y-232214682D01*
X49718940Y-232287437D01*
X49721196Y-232294401D01*
X49722387Y-232300360D01*
X49723771Y-232306215D01*
X49724618Y-232313481D01*
X49749535Y-232382127D01*
X49750952Y-232386255D01*
X49773449Y-232455699D01*
X49777245Y-232461954D01*
X49779751Y-232467428D01*
X49782470Y-232472858D01*
X49784967Y-232479737D01*
X49788980Y-232485857D01*
X49788980Y-232485858D01*
X49824986Y-232540776D01*
X49827323Y-232544480D01*
X49865205Y-232606907D01*
X49868921Y-232611115D01*
X49868922Y-232611116D01*
X49872603Y-232615284D01*
X49872576Y-232615308D01*
X49875229Y-232618300D01*
X49877932Y-232621533D01*
X49881944Y-232627652D01*
X49887256Y-232632684D01*
X49938183Y-232680928D01*
X49940625Y-232683306D01*
X50697034Y-233439715D01*
X50731060Y-233502027D01*
X50727215Y-233555788D01*
X50730307Y-233556461D01*
X50721800Y-233595568D01*
X50721800Y-234968020D01*
X50701798Y-235036141D01*
X50648142Y-235082634D01*
X50595800Y-235094020D01*
X49477916Y-235094020D01*
X49462677Y-235098495D01*
X49461472Y-235099885D01*
X49459801Y-235107568D01*
X49459801Y-235634689D01*
X49460171Y-235641510D01*
X49465695Y-235692372D01*
X49469321Y-235707624D01*
X49514476Y-235828074D01*
X49523014Y-235843669D01*
X49599515Y-235945744D01*
X49613031Y-235959260D01*
X49647057Y-236021572D01*
X49641992Y-236092387D01*
X49599445Y-236149223D01*
X49563813Y-236167878D01*
X49496052Y-236190485D01*
X49482885Y-236196653D01*
X49347508Y-236280426D01*
X49336110Y-236289460D01*
X49223637Y-236402129D01*
X49214625Y-236413540D01*
X49131088Y-236549063D01*
X49124944Y-236562241D01*
X49074685Y-236713766D01*
X49071819Y-236727132D01*
X49062328Y-236819770D01*
X49062000Y-236826185D01*
X49062000Y-236837885D01*
X49066475Y-236853124D01*
X49067865Y-236854329D01*
X49075548Y-236856000D01*
X50235500Y-236856000D01*
X50303621Y-236876002D01*
X50350114Y-236929658D01*
X50361500Y-236982000D01*
X50361500Y-238074885D01*
X50365975Y-238090124D01*
X50367365Y-238091329D01*
X50375048Y-238093000D01*
X50453766Y-238093000D01*
X50460282Y-238092663D01*
X50554132Y-238082925D01*
X50567528Y-238080032D01*
X50718953Y-238029512D01*
X50732115Y-238023347D01*
X50867492Y-237939574D01*
X50878894Y-237930536D01*
X50880567Y-237928861D01*
X50881993Y-237928081D01*
X50884627Y-237925993D01*
X50884984Y-237926444D01*
X50942849Y-237894781D01*
X51013669Y-237899784D01*
X51058754Y-237928701D01*
X51060593Y-237930536D01*
X51066997Y-237936929D01*
X51215080Y-238028209D01*
X51331901Y-238066957D01*
X51337717Y-238068886D01*
X51396077Y-238109317D01*
X51423360Y-238175308D01*
X51436458Y-238299928D01*
X51495473Y-238481556D01*
X51590960Y-238646944D01*
X51718747Y-238788866D01*
X51873248Y-238901118D01*
X51879276Y-238903802D01*
X51879278Y-238903803D01*
X52008500Y-238961336D01*
X52047712Y-238978794D01*
X52141113Y-238998647D01*
X52228056Y-239017128D01*
X52228061Y-239017128D01*
X52234513Y-239018500D01*
X52425487Y-239018500D01*
X52431939Y-239017128D01*
X52431944Y-239017128D01*
X52499303Y-239002810D01*
X52570094Y-239008212D01*
X52626727Y-239051029D01*
X52651220Y-239117667D01*
X52651500Y-239126057D01*
X52651500Y-243523629D01*
X52631498Y-243591750D01*
X52614595Y-243612724D01*
X51431089Y-244796230D01*
X51416677Y-244808616D01*
X51405082Y-244817149D01*
X51405077Y-244817154D01*
X51399182Y-244821492D01*
X51394443Y-244827070D01*
X51394440Y-244827073D01*
X51364965Y-244861768D01*
X51358035Y-244869284D01*
X51352340Y-244874979D01*
X51350060Y-244877861D01*
X51334719Y-244897251D01*
X51331928Y-244900655D01*
X51289409Y-244950703D01*
X51284667Y-244956285D01*
X51281339Y-244962801D01*
X51277972Y-244967850D01*
X51274805Y-244972979D01*
X51270266Y-244978716D01*
X51239345Y-245044875D01*
X51237442Y-245048769D01*
X51204231Y-245113808D01*
X51202492Y-245120916D01*
X51200393Y-245126559D01*
X51198476Y-245132322D01*
X51195378Y-245138950D01*
X51193888Y-245146112D01*
X51193888Y-245146113D01*
X51180514Y-245210412D01*
X51179543Y-245214701D01*
X51166555Y-245267779D01*
X51130935Y-245329194D01*
X51067766Y-245361601D01*
X51030560Y-245363094D01*
X51015934Y-245361505D01*
X49919666Y-245361505D01*
X49857484Y-245368260D01*
X49721095Y-245419390D01*
X49604539Y-245506744D01*
X49517185Y-245623300D01*
X49466055Y-245759689D01*
X49459300Y-245821871D01*
X49459300Y-247418139D01*
X49466055Y-247480321D01*
X49517185Y-247616710D01*
X49604539Y-247733266D01*
X49611719Y-247738647D01*
X49658865Y-247773981D01*
X49701380Y-247830840D01*
X49709300Y-247874807D01*
X49709300Y-248870730D01*
X49707867Y-248889680D01*
X49704601Y-248911149D01*
X49705194Y-248918441D01*
X49705194Y-248918444D01*
X49708885Y-248963818D01*
X49709300Y-248974033D01*
X49709300Y-248982093D01*
X49709725Y-248985737D01*
X49712589Y-249010307D01*
X49713022Y-249014682D01*
X49718940Y-249087437D01*
X49721196Y-249094401D01*
X49722387Y-249100360D01*
X49723771Y-249106215D01*
X49724618Y-249113481D01*
X49749535Y-249182127D01*
X49750952Y-249186255D01*
X49773449Y-249255699D01*
X49777245Y-249261954D01*
X49779751Y-249267428D01*
X49782470Y-249272858D01*
X49784967Y-249279737D01*
X49788980Y-249285857D01*
X49788980Y-249285858D01*
X49824986Y-249340776D01*
X49827323Y-249344480D01*
X49865205Y-249406907D01*
X49868921Y-249411115D01*
X49868922Y-249411116D01*
X49872603Y-249415284D01*
X49872576Y-249415308D01*
X49875228Y-249418299D01*
X49877932Y-249421533D01*
X49881944Y-249427652D01*
X49887257Y-249432685D01*
X49938146Y-249480893D01*
X49940588Y-249483269D01*
X50598966Y-250141646D01*
X50684895Y-250227575D01*
X50718920Y-250289888D01*
X50721800Y-250316671D01*
X50721800Y-251648005D01*
X50701798Y-251716126D01*
X50648142Y-251762619D01*
X50595800Y-251774005D01*
X49477916Y-251774005D01*
X49462677Y-251778480D01*
X49461472Y-251779870D01*
X49459801Y-251787553D01*
X49459801Y-252314674D01*
X49460171Y-252321495D01*
X49465695Y-252372357D01*
X49469321Y-252387609D01*
X49514476Y-252508059D01*
X49523011Y-252523649D01*
X49554840Y-252566118D01*
X49579687Y-252632625D01*
X49564634Y-252702007D01*
X49514459Y-252752237D01*
X49502679Y-252757375D01*
X49502681Y-252757380D01*
X49482885Y-252766653D01*
X49347508Y-252850426D01*
X49336110Y-252859460D01*
X49223637Y-252972129D01*
X49214625Y-252983540D01*
X49131088Y-253119063D01*
X49124944Y-253132241D01*
X49074685Y-253283766D01*
X49071819Y-253297132D01*
X49062328Y-253389770D01*
X49062000Y-253396185D01*
X49062000Y-253407885D01*
X49066475Y-253423124D01*
X49067865Y-253424329D01*
X49075548Y-253426000D01*
X50235500Y-253426000D01*
X50303621Y-253446002D01*
X50350114Y-253499658D01*
X50361500Y-253552000D01*
X50361500Y-254644885D01*
X50365975Y-254660124D01*
X50367365Y-254661329D01*
X50375048Y-254663000D01*
X50453766Y-254663000D01*
X50460282Y-254662663D01*
X50554132Y-254652925D01*
X50567528Y-254650032D01*
X50718953Y-254599512D01*
X50732115Y-254593347D01*
X50867492Y-254509574D01*
X50878894Y-254500536D01*
X50880567Y-254498861D01*
X50881993Y-254498081D01*
X50884627Y-254495993D01*
X50884984Y-254496444D01*
X50942849Y-254464781D01*
X51013669Y-254469784D01*
X51058754Y-254498701D01*
X51060593Y-254500536D01*
X51066997Y-254506929D01*
X51215080Y-254598209D01*
X51380191Y-254652974D01*
X51387027Y-254653674D01*
X51387030Y-254653675D01*
X51434370Y-254658525D01*
X51482928Y-254663500D01*
X51504464Y-254663500D01*
X51572585Y-254683502D01*
X51619078Y-254737158D01*
X51629774Y-254776328D01*
X51636458Y-254839928D01*
X51695473Y-255021556D01*
X51790960Y-255186944D01*
X51918747Y-255328866D01*
X52073248Y-255441118D01*
X52079276Y-255443802D01*
X52079278Y-255443803D01*
X52241681Y-255516109D01*
X52247712Y-255518794D01*
X52326110Y-255535458D01*
X52428056Y-255557128D01*
X52428061Y-255557128D01*
X52434513Y-255558500D01*
X52625487Y-255558500D01*
X52631940Y-255557128D01*
X52631953Y-255557127D01*
X52759303Y-255530057D01*
X52830093Y-255535458D01*
X52886726Y-255578275D01*
X52911220Y-255644912D01*
X52911500Y-255653303D01*
X52911500Y-260133629D01*
X52891498Y-260201750D01*
X52874595Y-260222724D01*
X51401089Y-261696230D01*
X51386677Y-261708616D01*
X51375082Y-261717149D01*
X51375077Y-261717154D01*
X51369182Y-261721492D01*
X51364443Y-261727070D01*
X51364440Y-261727073D01*
X51334965Y-261761768D01*
X51328035Y-261769284D01*
X51322340Y-261774979D01*
X51320060Y-261777861D01*
X51304719Y-261797251D01*
X51301928Y-261800655D01*
X51280052Y-261826405D01*
X51254667Y-261856285D01*
X51251339Y-261862801D01*
X51247972Y-261867850D01*
X51244805Y-261872979D01*
X51240266Y-261878716D01*
X51209345Y-261944875D01*
X51207439Y-261948774D01*
X51192007Y-261978996D01*
X51143214Y-262030569D01*
X51074284Y-262047576D01*
X51066197Y-262046960D01*
X51015934Y-262041500D01*
X49919666Y-262041500D01*
X49857484Y-262048255D01*
X49721095Y-262099385D01*
X49604539Y-262186739D01*
X49517185Y-262303295D01*
X49466055Y-262439684D01*
X49459300Y-262501866D01*
X49459300Y-264098134D01*
X49466055Y-264160316D01*
X49517185Y-264296705D01*
X49604539Y-264413261D01*
X49611719Y-264418642D01*
X49658865Y-264453976D01*
X49701380Y-264510835D01*
X49709300Y-264554802D01*
X49709300Y-265230730D01*
X49707867Y-265249680D01*
X49704601Y-265271149D01*
X49705194Y-265278441D01*
X49705194Y-265278444D01*
X49708885Y-265323818D01*
X49709300Y-265334033D01*
X49709300Y-265342093D01*
X49709725Y-265345737D01*
X49712589Y-265370307D01*
X49713022Y-265374682D01*
X49715935Y-265410490D01*
X49718940Y-265447437D01*
X49721196Y-265454401D01*
X49722387Y-265460360D01*
X49723771Y-265466215D01*
X49724618Y-265473481D01*
X49749535Y-265542127D01*
X49750952Y-265546255D01*
X49773449Y-265615699D01*
X49777245Y-265621954D01*
X49779751Y-265627428D01*
X49782470Y-265632858D01*
X49784967Y-265639737D01*
X49788980Y-265645857D01*
X49788980Y-265645858D01*
X49824986Y-265700776D01*
X49827323Y-265704480D01*
X49865205Y-265766907D01*
X49868921Y-265771115D01*
X49868922Y-265771116D01*
X49872603Y-265775284D01*
X49872576Y-265775308D01*
X49875229Y-265778300D01*
X49877932Y-265781533D01*
X49881944Y-265787652D01*
X49887256Y-265792684D01*
X49938183Y-265840928D01*
X49940625Y-265843306D01*
X50824224Y-266726905D01*
X50858250Y-266789217D01*
X50853185Y-266860032D01*
X50810638Y-266916868D01*
X50757263Y-266936776D01*
X50757298Y-266936896D01*
X50755623Y-266937388D01*
X50744118Y-266941679D01*
X50740578Y-266941805D01*
X50724676Y-266946475D01*
X50723471Y-266947865D01*
X50721800Y-266955548D01*
X50721800Y-268328000D01*
X50701798Y-268396121D01*
X50648142Y-268442614D01*
X50595800Y-268454000D01*
X49477916Y-268454000D01*
X49462677Y-268458475D01*
X49461472Y-268459865D01*
X49459801Y-268467548D01*
X49459801Y-268980734D01*
X49439799Y-269048855D01*
X49400104Y-269087879D01*
X49347502Y-269120430D01*
X49336113Y-269129457D01*
X49223637Y-269242129D01*
X49214625Y-269253540D01*
X49131088Y-269389063D01*
X49124944Y-269402241D01*
X49074685Y-269553766D01*
X49071819Y-269567132D01*
X49062328Y-269659770D01*
X49062000Y-269666185D01*
X49062000Y-269677885D01*
X49066475Y-269693124D01*
X49067865Y-269694329D01*
X49075548Y-269696000D01*
X50210020Y-269696000D01*
X50278141Y-269716002D01*
X50324634Y-269769658D01*
X50336020Y-269822000D01*
X50336020Y-270078000D01*
X50316018Y-270146121D01*
X50262362Y-270192614D01*
X50210020Y-270204000D01*
X49080115Y-270204000D01*
X49064876Y-270208475D01*
X49063671Y-270209865D01*
X49062000Y-270217548D01*
X49062000Y-270233766D01*
X49062337Y-270240277D01*
X49065151Y-270267394D01*
X49052287Y-270337216D01*
X49003717Y-270388999D01*
X48939824Y-270406400D01*
X48548315Y-270406400D01*
X48533076Y-270410875D01*
X48531871Y-270412265D01*
X48530200Y-270419948D01*
X48530200Y-272442400D01*
X48510198Y-272510521D01*
X48456542Y-272557014D01*
X48404200Y-272568400D01*
X48148200Y-272568400D01*
X48080079Y-272548398D01*
X48033586Y-272494742D01*
X48022200Y-272442400D01*
X48022200Y-270424516D01*
X48017725Y-270409277D01*
X48016335Y-270408072D01*
X48008652Y-270406401D01*
X47764500Y-270406401D01*
X47696379Y-270386399D01*
X47649886Y-270332743D01*
X47638500Y-270280401D01*
X47638500Y-267927885D01*
X49459800Y-267927885D01*
X49464275Y-267943124D01*
X49465665Y-267944329D01*
X49473348Y-267946000D01*
X50195685Y-267946000D01*
X50210924Y-267941525D01*
X50212129Y-267940135D01*
X50213800Y-267932452D01*
X50213800Y-266960116D01*
X50209325Y-266944877D01*
X50207935Y-266943672D01*
X50200252Y-266942001D01*
X49923131Y-266942001D01*
X49916310Y-266942371D01*
X49865448Y-266947895D01*
X49850196Y-266951521D01*
X49729746Y-266996676D01*
X49714151Y-267005214D01*
X49612076Y-267081715D01*
X49599515Y-267094276D01*
X49523014Y-267196351D01*
X49514476Y-267211946D01*
X49469322Y-267332394D01*
X49465695Y-267347649D01*
X49460169Y-267398514D01*
X49459800Y-267405328D01*
X49459800Y-267927885D01*
X47638500Y-267927885D01*
X47638500Y-253963766D01*
X49062000Y-253963766D01*
X49062337Y-253970282D01*
X49072075Y-254064132D01*
X49074968Y-254077528D01*
X49125488Y-254228953D01*
X49131653Y-254242115D01*
X49215426Y-254377492D01*
X49224460Y-254388890D01*
X49337129Y-254501363D01*
X49348540Y-254510375D01*
X49484063Y-254593912D01*
X49497241Y-254600056D01*
X49648766Y-254650315D01*
X49662132Y-254653181D01*
X49754770Y-254662672D01*
X49761185Y-254663000D01*
X49835385Y-254663000D01*
X49850624Y-254658525D01*
X49851829Y-254657135D01*
X49853500Y-254649452D01*
X49853500Y-253952115D01*
X49849025Y-253936876D01*
X49847635Y-253935671D01*
X49839952Y-253934000D01*
X49080115Y-253934000D01*
X49064876Y-253938475D01*
X49063671Y-253939865D01*
X49062000Y-253947548D01*
X49062000Y-253963766D01*
X47638500Y-253963766D01*
X47638500Y-251247890D01*
X49459800Y-251247890D01*
X49464275Y-251263129D01*
X49465665Y-251264334D01*
X49473348Y-251266005D01*
X50195685Y-251266005D01*
X50210924Y-251261530D01*
X50212129Y-251260140D01*
X50213800Y-251252457D01*
X50213800Y-250280121D01*
X50209325Y-250264882D01*
X50207935Y-250263677D01*
X50200252Y-250262006D01*
X49923131Y-250262006D01*
X49916310Y-250262376D01*
X49865448Y-250267900D01*
X49850196Y-250271526D01*
X49729746Y-250316681D01*
X49714151Y-250325219D01*
X49612076Y-250401720D01*
X49599515Y-250414281D01*
X49523014Y-250516356D01*
X49514476Y-250531951D01*
X49469322Y-250652399D01*
X49465695Y-250667654D01*
X49460169Y-250718519D01*
X49459800Y-250725333D01*
X49459800Y-251247890D01*
X47638500Y-251247890D01*
X47638500Y-237393766D01*
X49062000Y-237393766D01*
X49062337Y-237400282D01*
X49072075Y-237494132D01*
X49074968Y-237507528D01*
X49125488Y-237658953D01*
X49131653Y-237672115D01*
X49215426Y-237807492D01*
X49224460Y-237818890D01*
X49337129Y-237931363D01*
X49348540Y-237940375D01*
X49484063Y-238023912D01*
X49497241Y-238030056D01*
X49648766Y-238080315D01*
X49662132Y-238083181D01*
X49754770Y-238092672D01*
X49761185Y-238093000D01*
X49835385Y-238093000D01*
X49850624Y-238088525D01*
X49851829Y-238087135D01*
X49853500Y-238079452D01*
X49853500Y-237382115D01*
X49849025Y-237366876D01*
X49847635Y-237365671D01*
X49839952Y-237364000D01*
X49080115Y-237364000D01*
X49064876Y-237368475D01*
X49063671Y-237369865D01*
X49062000Y-237377548D01*
X49062000Y-237393766D01*
X47638500Y-237393766D01*
X47638500Y-234567905D01*
X49459800Y-234567905D01*
X49464275Y-234583144D01*
X49465665Y-234584349D01*
X49473348Y-234586020D01*
X50195685Y-234586020D01*
X50210924Y-234581545D01*
X50212129Y-234580155D01*
X50213800Y-234572472D01*
X50213800Y-233600136D01*
X50209325Y-233584897D01*
X50207935Y-233583692D01*
X50200252Y-233582021D01*
X49923131Y-233582021D01*
X49916310Y-233582391D01*
X49865448Y-233587915D01*
X49850196Y-233591541D01*
X49729746Y-233636696D01*
X49714151Y-233645234D01*
X49612076Y-233721735D01*
X49599515Y-233734296D01*
X49523014Y-233836371D01*
X49514476Y-233851966D01*
X49469322Y-233972414D01*
X49465695Y-233987669D01*
X49460169Y-234038534D01*
X49459800Y-234045348D01*
X49459800Y-234567905D01*
X47638500Y-234567905D01*
X47638500Y-220633766D01*
X49062000Y-220633766D01*
X49062337Y-220640282D01*
X49072075Y-220734132D01*
X49074968Y-220747528D01*
X49125488Y-220898953D01*
X49131653Y-220912115D01*
X49215426Y-221047492D01*
X49224460Y-221058890D01*
X49337129Y-221171363D01*
X49348540Y-221180375D01*
X49484063Y-221263912D01*
X49497241Y-221270056D01*
X49648766Y-221320315D01*
X49662132Y-221323181D01*
X49754770Y-221332672D01*
X49761185Y-221333000D01*
X49835385Y-221333000D01*
X49850624Y-221328525D01*
X49851829Y-221327135D01*
X49853500Y-221319452D01*
X49853500Y-220622115D01*
X49849025Y-220606876D01*
X49847635Y-220605671D01*
X49839952Y-220604000D01*
X49080115Y-220604000D01*
X49064876Y-220608475D01*
X49063671Y-220609865D01*
X49062000Y-220617548D01*
X49062000Y-220633766D01*
X47638500Y-220633766D01*
X47638500Y-217887920D01*
X49459800Y-217887920D01*
X49464275Y-217903159D01*
X49465665Y-217904364D01*
X49473348Y-217906035D01*
X50195685Y-217906035D01*
X50210924Y-217901560D01*
X50212129Y-217900170D01*
X50213800Y-217892487D01*
X50213800Y-216920151D01*
X50209325Y-216904912D01*
X50207935Y-216903707D01*
X50200252Y-216902036D01*
X49923131Y-216902036D01*
X49916310Y-216902406D01*
X49865448Y-216907930D01*
X49850196Y-216911556D01*
X49729746Y-216956711D01*
X49714151Y-216965249D01*
X49612076Y-217041750D01*
X49599515Y-217054311D01*
X49523014Y-217156386D01*
X49514476Y-217171981D01*
X49469322Y-217292429D01*
X49465695Y-217307684D01*
X49460169Y-217358549D01*
X49459800Y-217365363D01*
X49459800Y-217887920D01*
X47638500Y-217887920D01*
X47638500Y-210014255D01*
X47658502Y-209946134D01*
X47714762Y-209898487D01*
X47929972Y-209806025D01*
X47934262Y-209804182D01*
X48156519Y-209666646D01*
X48160082Y-209663629D01*
X48160087Y-209663626D01*
X48352439Y-209500787D01*
X48352440Y-209500786D01*
X48356005Y-209497768D01*
X48444451Y-209396915D01*
X48525257Y-209304774D01*
X48525261Y-209304769D01*
X48528339Y-209301259D01*
X48669733Y-209081437D01*
X48777083Y-208843129D01*
X48848030Y-208591572D01*
X48851177Y-208566837D01*
X48880616Y-208335421D01*
X48880616Y-208335417D01*
X48881014Y-208332291D01*
X48883431Y-208240000D01*
X48864061Y-207979348D01*
X48806377Y-207724423D01*
X48711647Y-207480823D01*
X48581951Y-207253902D01*
X48420138Y-207048643D01*
X48229763Y-206869557D01*
X48015009Y-206720576D01*
X48010816Y-206718508D01*
X47784781Y-206607040D01*
X47784778Y-206607039D01*
X47780593Y-206604975D01*
X47726088Y-206587528D01*
X47667308Y-206547711D01*
X47639385Y-206482436D01*
X47638500Y-206467526D01*
X47638500Y-203923766D01*
X49062000Y-203923766D01*
X49062337Y-203930282D01*
X49072075Y-204024132D01*
X49074968Y-204037528D01*
X49125488Y-204188953D01*
X49131653Y-204202115D01*
X49215426Y-204337492D01*
X49224460Y-204348890D01*
X49337129Y-204461363D01*
X49348540Y-204470375D01*
X49484063Y-204553912D01*
X49497241Y-204560056D01*
X49648766Y-204610315D01*
X49662132Y-204613181D01*
X49754770Y-204622672D01*
X49761185Y-204623000D01*
X49835385Y-204623000D01*
X49850624Y-204618525D01*
X49851829Y-204617135D01*
X49853500Y-204609452D01*
X49853500Y-203912115D01*
X49849025Y-203896876D01*
X49847635Y-203895671D01*
X49839952Y-203894000D01*
X49080115Y-203894000D01*
X49064876Y-203898475D01*
X49063671Y-203899865D01*
X49062000Y-203907548D01*
X49062000Y-203923766D01*
X47638500Y-203923766D01*
X47638500Y-201207935D01*
X49459800Y-201207935D01*
X49464275Y-201223174D01*
X49465665Y-201224379D01*
X49473348Y-201226050D01*
X50195685Y-201226050D01*
X50210924Y-201221575D01*
X50212129Y-201220185D01*
X50213800Y-201212502D01*
X50213800Y-200240166D01*
X50209325Y-200224927D01*
X50207935Y-200223722D01*
X50200252Y-200222051D01*
X49923131Y-200222051D01*
X49916310Y-200222421D01*
X49865448Y-200227945D01*
X49850196Y-200231571D01*
X49729746Y-200276726D01*
X49714151Y-200285264D01*
X49612076Y-200361765D01*
X49599515Y-200374326D01*
X49523014Y-200476401D01*
X49514476Y-200491996D01*
X49469322Y-200612444D01*
X49465695Y-200627699D01*
X49460169Y-200678564D01*
X49459800Y-200685378D01*
X49459800Y-201207935D01*
X47638500Y-201207935D01*
X47638500Y-187313766D01*
X49062000Y-187313766D01*
X49062337Y-187320282D01*
X49072075Y-187414132D01*
X49074968Y-187427528D01*
X49125488Y-187578953D01*
X49131653Y-187592115D01*
X49215426Y-187727492D01*
X49224460Y-187738890D01*
X49337129Y-187851363D01*
X49348540Y-187860375D01*
X49484063Y-187943912D01*
X49497241Y-187950056D01*
X49648766Y-188000315D01*
X49662132Y-188003181D01*
X49754770Y-188012672D01*
X49761185Y-188013000D01*
X49835385Y-188013000D01*
X49850624Y-188008525D01*
X49851829Y-188007135D01*
X49853500Y-187999452D01*
X49853500Y-187302115D01*
X49849025Y-187286876D01*
X49847635Y-187285671D01*
X49839952Y-187284000D01*
X49080115Y-187284000D01*
X49064876Y-187288475D01*
X49063671Y-187289865D01*
X49062000Y-187297548D01*
X49062000Y-187313766D01*
X47638500Y-187313766D01*
X47638500Y-184527950D01*
X49459800Y-184527950D01*
X49464275Y-184543189D01*
X49465665Y-184544394D01*
X49473348Y-184546065D01*
X50195685Y-184546065D01*
X50210924Y-184541590D01*
X50212129Y-184540200D01*
X50213800Y-184532517D01*
X50213800Y-183560181D01*
X50209325Y-183544942D01*
X50207935Y-183543737D01*
X50200252Y-183542066D01*
X49923131Y-183542066D01*
X49916310Y-183542436D01*
X49865448Y-183547960D01*
X49850196Y-183551586D01*
X49729746Y-183596741D01*
X49714151Y-183605279D01*
X49612076Y-183681780D01*
X49599515Y-183694341D01*
X49523014Y-183796416D01*
X49514476Y-183812011D01*
X49469322Y-183932459D01*
X49465695Y-183947714D01*
X49460169Y-183998579D01*
X49459800Y-184005393D01*
X49459800Y-184527950D01*
X47638500Y-184527950D01*
X47638500Y-170663766D01*
X49062000Y-170663766D01*
X49062337Y-170670282D01*
X49072075Y-170764132D01*
X49074968Y-170777528D01*
X49125488Y-170928953D01*
X49131653Y-170942115D01*
X49215426Y-171077492D01*
X49224460Y-171088890D01*
X49337129Y-171201363D01*
X49348540Y-171210375D01*
X49484063Y-171293912D01*
X49497241Y-171300056D01*
X49648766Y-171350315D01*
X49662132Y-171353181D01*
X49754770Y-171362672D01*
X49761185Y-171363000D01*
X49835385Y-171363000D01*
X49850624Y-171358525D01*
X49851829Y-171357135D01*
X49853500Y-171349452D01*
X49853500Y-170652115D01*
X49849025Y-170636876D01*
X49847635Y-170635671D01*
X49839952Y-170634000D01*
X49080115Y-170634000D01*
X49064876Y-170638475D01*
X49063671Y-170639865D01*
X49062000Y-170647548D01*
X49062000Y-170663766D01*
X47638500Y-170663766D01*
X47638500Y-167847965D01*
X49459800Y-167847965D01*
X49464275Y-167863204D01*
X49465665Y-167864409D01*
X49473348Y-167866080D01*
X50195685Y-167866080D01*
X50210924Y-167861605D01*
X50212129Y-167860215D01*
X50213800Y-167852532D01*
X50213800Y-166880196D01*
X50209325Y-166864957D01*
X50207935Y-166863752D01*
X50200252Y-166862081D01*
X49923131Y-166862081D01*
X49916310Y-166862451D01*
X49865448Y-166867975D01*
X49850196Y-166871601D01*
X49729746Y-166916756D01*
X49714151Y-166925294D01*
X49612076Y-167001795D01*
X49599515Y-167014356D01*
X49523014Y-167116431D01*
X49514476Y-167132026D01*
X49469322Y-167252474D01*
X49465695Y-167267729D01*
X49460169Y-167318594D01*
X49459800Y-167325408D01*
X49459800Y-167847965D01*
X47638500Y-167847965D01*
X47638500Y-154063766D01*
X49062000Y-154063766D01*
X49062337Y-154070282D01*
X49072075Y-154164132D01*
X49074968Y-154177528D01*
X49125488Y-154328953D01*
X49131653Y-154342115D01*
X49215426Y-154477492D01*
X49224460Y-154488890D01*
X49337129Y-154601363D01*
X49348540Y-154610375D01*
X49484063Y-154693912D01*
X49497241Y-154700056D01*
X49648766Y-154750315D01*
X49662132Y-154753181D01*
X49754770Y-154762672D01*
X49761185Y-154763000D01*
X49835385Y-154763000D01*
X49850624Y-154758525D01*
X49851829Y-154757135D01*
X49853500Y-154749452D01*
X49853500Y-154052115D01*
X49849025Y-154036876D01*
X49847635Y-154035671D01*
X49839952Y-154034000D01*
X49080115Y-154034000D01*
X49064876Y-154038475D01*
X49063671Y-154039865D01*
X49062000Y-154047548D01*
X49062000Y-154063766D01*
X47638500Y-154063766D01*
X47638500Y-151167980D01*
X49459800Y-151167980D01*
X49464275Y-151183219D01*
X49465665Y-151184424D01*
X49473348Y-151186095D01*
X50195685Y-151186095D01*
X50210924Y-151181620D01*
X50212129Y-151180230D01*
X50213800Y-151172547D01*
X50213800Y-150200211D01*
X50209325Y-150184972D01*
X50207935Y-150183767D01*
X50200252Y-150182096D01*
X49923131Y-150182096D01*
X49916310Y-150182466D01*
X49865448Y-150187990D01*
X49850196Y-150191616D01*
X49729746Y-150236771D01*
X49714151Y-150245309D01*
X49612076Y-150321810D01*
X49599515Y-150334371D01*
X49523014Y-150436446D01*
X49514476Y-150452041D01*
X49469322Y-150572489D01*
X49465695Y-150587744D01*
X49460169Y-150638609D01*
X49459800Y-150645423D01*
X49459800Y-151167980D01*
X47638500Y-151167980D01*
X47638500Y-137413766D01*
X49062000Y-137413766D01*
X49062337Y-137420282D01*
X49072075Y-137514132D01*
X49074968Y-137527528D01*
X49125488Y-137678953D01*
X49131653Y-137692115D01*
X49215426Y-137827492D01*
X49224460Y-137838890D01*
X49337129Y-137951363D01*
X49348540Y-137960375D01*
X49484063Y-138043912D01*
X49497241Y-138050056D01*
X49648766Y-138100315D01*
X49662132Y-138103181D01*
X49754770Y-138112672D01*
X49761185Y-138113000D01*
X49835385Y-138113000D01*
X49850624Y-138108525D01*
X49851829Y-138107135D01*
X49853500Y-138099452D01*
X49853500Y-137402115D01*
X49849025Y-137386876D01*
X49847635Y-137385671D01*
X49839952Y-137384000D01*
X49080115Y-137384000D01*
X49064876Y-137388475D01*
X49063671Y-137389865D01*
X49062000Y-137397548D01*
X49062000Y-137413766D01*
X47638500Y-137413766D01*
X47638500Y-134487995D01*
X49459800Y-134487995D01*
X49464275Y-134503234D01*
X49465665Y-134504439D01*
X49473348Y-134506110D01*
X50195685Y-134506110D01*
X50210924Y-134501635D01*
X50212129Y-134500245D01*
X50213800Y-134492562D01*
X50213800Y-133520226D01*
X50209325Y-133504987D01*
X50207935Y-133503782D01*
X50200252Y-133502111D01*
X49923131Y-133502111D01*
X49916310Y-133502481D01*
X49865448Y-133508005D01*
X49850196Y-133511631D01*
X49729746Y-133556786D01*
X49714151Y-133565324D01*
X49612076Y-133641825D01*
X49599515Y-133654386D01*
X49523014Y-133756461D01*
X49514476Y-133772056D01*
X49469322Y-133892504D01*
X49465695Y-133907759D01*
X49460169Y-133958624D01*
X49459800Y-133965438D01*
X49459800Y-134487995D01*
X47638500Y-134487995D01*
X47638500Y-120753766D01*
X49062000Y-120753766D01*
X49062337Y-120760282D01*
X49072075Y-120854132D01*
X49074968Y-120867528D01*
X49125488Y-121018953D01*
X49131653Y-121032115D01*
X49215426Y-121167492D01*
X49224460Y-121178890D01*
X49337129Y-121291363D01*
X49348540Y-121300375D01*
X49484063Y-121383912D01*
X49497241Y-121390056D01*
X49648766Y-121440315D01*
X49662132Y-121443181D01*
X49754770Y-121452672D01*
X49761185Y-121453000D01*
X49835385Y-121453000D01*
X49850624Y-121448525D01*
X49851829Y-121447135D01*
X49853500Y-121439452D01*
X49853500Y-120742115D01*
X49849025Y-120726876D01*
X49847635Y-120725671D01*
X49839952Y-120724000D01*
X49080115Y-120724000D01*
X49064876Y-120728475D01*
X49063671Y-120729865D01*
X49062000Y-120737548D01*
X49062000Y-120753766D01*
X47638500Y-120753766D01*
X47638500Y-117808010D01*
X49459800Y-117808010D01*
X49464275Y-117823249D01*
X49465665Y-117824454D01*
X49473348Y-117826125D01*
X50195685Y-117826125D01*
X50210924Y-117821650D01*
X50212129Y-117820260D01*
X50213800Y-117812577D01*
X50213800Y-116840241D01*
X50209325Y-116825002D01*
X50207935Y-116823797D01*
X50200252Y-116822126D01*
X49923131Y-116822126D01*
X49916310Y-116822496D01*
X49865448Y-116828020D01*
X49850196Y-116831646D01*
X49729746Y-116876801D01*
X49714151Y-116885339D01*
X49612076Y-116961840D01*
X49599515Y-116974401D01*
X49523014Y-117076476D01*
X49514476Y-117092071D01*
X49469322Y-117212519D01*
X49465695Y-117227774D01*
X49460169Y-117278639D01*
X49459800Y-117285453D01*
X49459800Y-117808010D01*
X47638500Y-117808010D01*
X47638500Y-104143766D01*
X49062000Y-104143766D01*
X49062337Y-104150282D01*
X49072075Y-104244132D01*
X49074968Y-104257528D01*
X49125488Y-104408953D01*
X49131653Y-104422115D01*
X49215426Y-104557492D01*
X49224460Y-104568890D01*
X49337129Y-104681363D01*
X49348540Y-104690375D01*
X49484063Y-104773912D01*
X49497241Y-104780056D01*
X49648766Y-104830315D01*
X49662132Y-104833181D01*
X49754770Y-104842672D01*
X49761185Y-104843000D01*
X49835385Y-104843000D01*
X49850624Y-104838525D01*
X49851829Y-104837135D01*
X49853500Y-104829452D01*
X49853500Y-104132115D01*
X49849025Y-104116876D01*
X49847635Y-104115671D01*
X49839952Y-104114000D01*
X49080115Y-104114000D01*
X49064876Y-104118475D01*
X49063671Y-104119865D01*
X49062000Y-104127548D01*
X49062000Y-104143766D01*
X47638500Y-104143766D01*
X47638500Y-101128025D01*
X49459800Y-101128025D01*
X49464275Y-101143264D01*
X49465665Y-101144469D01*
X49473348Y-101146140D01*
X50195685Y-101146140D01*
X50210924Y-101141665D01*
X50212129Y-101140275D01*
X50213800Y-101132592D01*
X50213800Y-100160256D01*
X50209325Y-100145017D01*
X50207935Y-100143812D01*
X50200252Y-100142141D01*
X49923131Y-100142141D01*
X49916310Y-100142511D01*
X49865448Y-100148035D01*
X49850196Y-100151661D01*
X49729746Y-100196816D01*
X49714151Y-100205354D01*
X49612076Y-100281855D01*
X49599515Y-100294416D01*
X49523014Y-100396491D01*
X49514476Y-100412086D01*
X49469322Y-100532534D01*
X49465695Y-100547789D01*
X49460169Y-100598654D01*
X49459800Y-100605468D01*
X49459800Y-101128025D01*
X47638500Y-101128025D01*
X47638500Y-91521935D01*
X47658502Y-91453814D01*
X47714762Y-91406167D01*
X47924572Y-91316025D01*
X47928862Y-91314182D01*
X48151119Y-91176646D01*
X48154682Y-91173629D01*
X48154687Y-91173626D01*
X48347039Y-91010787D01*
X48347040Y-91010786D01*
X48350605Y-91007768D01*
X48439051Y-90906915D01*
X48519857Y-90814774D01*
X48519861Y-90814769D01*
X48522939Y-90811259D01*
X48664333Y-90591437D01*
X48771683Y-90353129D01*
X48842630Y-90101572D01*
X48845777Y-90076837D01*
X48875216Y-89845421D01*
X48875216Y-89845417D01*
X48875614Y-89842291D01*
X48878031Y-89750000D01*
X48858661Y-89489348D01*
X48846344Y-89434912D01*
X48802008Y-89238980D01*
X48800977Y-89234423D01*
X48706247Y-88990823D01*
X48695047Y-88971226D01*
X48578870Y-88767960D01*
X48576551Y-88763902D01*
X48414738Y-88558643D01*
X48224363Y-88379557D01*
X48009609Y-88230576D01*
X48005416Y-88228508D01*
X47779381Y-88117040D01*
X47779378Y-88117039D01*
X47775193Y-88114975D01*
X47760636Y-88110315D01*
X47726087Y-88099256D01*
X47667307Y-88059438D01*
X47639385Y-87994163D01*
X47638500Y-87979254D01*
X47638500Y-87423766D01*
X49062000Y-87423766D01*
X49062337Y-87430282D01*
X49072075Y-87524132D01*
X49074968Y-87537528D01*
X49125488Y-87688953D01*
X49131653Y-87702115D01*
X49215426Y-87837492D01*
X49224460Y-87848890D01*
X49337129Y-87961363D01*
X49348540Y-87970375D01*
X49484063Y-88053912D01*
X49497241Y-88060056D01*
X49648766Y-88110315D01*
X49662132Y-88113181D01*
X49754770Y-88122672D01*
X49761185Y-88123000D01*
X49835385Y-88123000D01*
X49850624Y-88118525D01*
X49851829Y-88117135D01*
X49853500Y-88109452D01*
X49853500Y-87412115D01*
X49849025Y-87396876D01*
X49847635Y-87395671D01*
X49839952Y-87394000D01*
X49080115Y-87394000D01*
X49064876Y-87398475D01*
X49063671Y-87399865D01*
X49062000Y-87407548D01*
X49062000Y-87423766D01*
X47638500Y-87423766D01*
X47638500Y-84448040D01*
X49459800Y-84448040D01*
X49464275Y-84463279D01*
X49465665Y-84464484D01*
X49473348Y-84466155D01*
X50195685Y-84466155D01*
X50210924Y-84461680D01*
X50212129Y-84460290D01*
X50213800Y-84452607D01*
X50213800Y-83480271D01*
X50209325Y-83465032D01*
X50207935Y-83463827D01*
X50200252Y-83462156D01*
X49923131Y-83462156D01*
X49916310Y-83462526D01*
X49865448Y-83468050D01*
X49850196Y-83471676D01*
X49729746Y-83516831D01*
X49714151Y-83525369D01*
X49612076Y-83601870D01*
X49599515Y-83614431D01*
X49523014Y-83716506D01*
X49514476Y-83732101D01*
X49469322Y-83852549D01*
X49465695Y-83867804D01*
X49460169Y-83918669D01*
X49459800Y-83925483D01*
X49459800Y-84448040D01*
X47638500Y-84448040D01*
X47638500Y-70743766D01*
X49062000Y-70743766D01*
X49062337Y-70750282D01*
X49072075Y-70844132D01*
X49074968Y-70857528D01*
X49125488Y-71008953D01*
X49131653Y-71022115D01*
X49215426Y-71157492D01*
X49224460Y-71168890D01*
X49337129Y-71281363D01*
X49348540Y-71290375D01*
X49484063Y-71373912D01*
X49497241Y-71380056D01*
X49648766Y-71430315D01*
X49662132Y-71433181D01*
X49754770Y-71442672D01*
X49761185Y-71443000D01*
X49835385Y-71443000D01*
X49850624Y-71438525D01*
X49851829Y-71437135D01*
X49853500Y-71429452D01*
X49853500Y-70732115D01*
X49849025Y-70716876D01*
X49847635Y-70715671D01*
X49839952Y-70714000D01*
X49080115Y-70714000D01*
X49064876Y-70718475D01*
X49063671Y-70719865D01*
X49062000Y-70727548D01*
X49062000Y-70743766D01*
X47638500Y-70743766D01*
X47638500Y-67768055D01*
X49459800Y-67768055D01*
X49464275Y-67783294D01*
X49465665Y-67784499D01*
X49473348Y-67786170D01*
X50195685Y-67786170D01*
X50210924Y-67781695D01*
X50212129Y-67780305D01*
X50213800Y-67772622D01*
X50213800Y-66800286D01*
X50209325Y-66785047D01*
X50207935Y-66783842D01*
X50200252Y-66782171D01*
X49923131Y-66782171D01*
X49916310Y-66782541D01*
X49865448Y-66788065D01*
X49850196Y-66791691D01*
X49729746Y-66836846D01*
X49714151Y-66845384D01*
X49612076Y-66921885D01*
X49599515Y-66934446D01*
X49523014Y-67036521D01*
X49514476Y-67052116D01*
X49469322Y-67172564D01*
X49465695Y-67187819D01*
X49460169Y-67238684D01*
X49459800Y-67245498D01*
X49459800Y-67768055D01*
X47638500Y-67768055D01*
X47638500Y-54113766D01*
X49062000Y-54113766D01*
X49062337Y-54120282D01*
X49072075Y-54214132D01*
X49074968Y-54227528D01*
X49125488Y-54378953D01*
X49131653Y-54392115D01*
X49215426Y-54527492D01*
X49224460Y-54538890D01*
X49337129Y-54651363D01*
X49348540Y-54660375D01*
X49484063Y-54743912D01*
X49497241Y-54750056D01*
X49648766Y-54800315D01*
X49662132Y-54803181D01*
X49754770Y-54812672D01*
X49761185Y-54813000D01*
X49835385Y-54813000D01*
X49850624Y-54808525D01*
X49851829Y-54807135D01*
X49853500Y-54799452D01*
X49853500Y-54102115D01*
X49849025Y-54086876D01*
X49847635Y-54085671D01*
X49839952Y-54084000D01*
X49080115Y-54084000D01*
X49064876Y-54088475D01*
X49063671Y-54089865D01*
X49062000Y-54097548D01*
X49062000Y-54113766D01*
X47638500Y-54113766D01*
X47638500Y-51088070D01*
X49459800Y-51088070D01*
X49464275Y-51103309D01*
X49465665Y-51104514D01*
X49473348Y-51106185D01*
X50195685Y-51106185D01*
X50210924Y-51101710D01*
X50212129Y-51100320D01*
X50213800Y-51092637D01*
X50213800Y-50120301D01*
X50209325Y-50105062D01*
X50207935Y-50103857D01*
X50200252Y-50102186D01*
X49923131Y-50102186D01*
X49916310Y-50102556D01*
X49865448Y-50108080D01*
X49850196Y-50111706D01*
X49729746Y-50156861D01*
X49714151Y-50165399D01*
X49612076Y-50241900D01*
X49599515Y-50254461D01*
X49523014Y-50356536D01*
X49514476Y-50372131D01*
X49469322Y-50492579D01*
X49465695Y-50507834D01*
X49460169Y-50558699D01*
X49459800Y-50565513D01*
X49459800Y-51088070D01*
X47638500Y-51088070D01*
X47638500Y-37373766D01*
X49062000Y-37373766D01*
X49062337Y-37380282D01*
X49072075Y-37474132D01*
X49074968Y-37487528D01*
X49125488Y-37638953D01*
X49131653Y-37652115D01*
X49215426Y-37787492D01*
X49224460Y-37798890D01*
X49337129Y-37911363D01*
X49348540Y-37920375D01*
X49484063Y-38003912D01*
X49497241Y-38010056D01*
X49648766Y-38060315D01*
X49662132Y-38063181D01*
X49754770Y-38072672D01*
X49761185Y-38073000D01*
X49835385Y-38073000D01*
X49850624Y-38068525D01*
X49851829Y-38067135D01*
X49853500Y-38059452D01*
X49853500Y-37362115D01*
X49849025Y-37346876D01*
X49847635Y-37345671D01*
X49839952Y-37344000D01*
X49080115Y-37344000D01*
X49064876Y-37348475D01*
X49063671Y-37349865D01*
X49062000Y-37357548D01*
X49062000Y-37373766D01*
X47638500Y-37373766D01*
X47638500Y-34408085D01*
X49459800Y-34408085D01*
X49464275Y-34423324D01*
X49465665Y-34424529D01*
X49473348Y-34426200D01*
X50195685Y-34426200D01*
X50210924Y-34421725D01*
X50212129Y-34420335D01*
X50213800Y-34412652D01*
X50213800Y-33440316D01*
X50209325Y-33425077D01*
X50207935Y-33423872D01*
X50200252Y-33422201D01*
X49923131Y-33422201D01*
X49916310Y-33422571D01*
X49865448Y-33428095D01*
X49850196Y-33431721D01*
X49729746Y-33476876D01*
X49714151Y-33485414D01*
X49612076Y-33561915D01*
X49599515Y-33574476D01*
X49523014Y-33676551D01*
X49514476Y-33692146D01*
X49469322Y-33812594D01*
X49465695Y-33827849D01*
X49460169Y-33878714D01*
X49459800Y-33885528D01*
X49459800Y-34408085D01*
X47638500Y-34408085D01*
X47638500Y-27738400D01*
X47658502Y-27670279D01*
X47712158Y-27623786D01*
X47764500Y-27612400D01*
X48004085Y-27612400D01*
X48019324Y-27607925D01*
X48020529Y-27606535D01*
X48022200Y-27598852D01*
X48022200Y-25576400D01*
X48042202Y-25508279D01*
X48095858Y-25461786D01*
X48148200Y-25450400D01*
X48404200Y-25450400D01*
X48472321Y-25470402D01*
G37*
%TD.AperFunction*%
%TD*%
M02*
