0
SECTION
2
HEADER
9
$INSUNITS
70
4
9
$ACADVER
1
AC1014
9
$HANDSEED
5
FFFF
0
ENDSEC
0
SECTION
2
TABLES
0
TABLE
2
VPORT
5
8
100
AcDbSymbolTable
0
ENDTAB
0
TABLE
2
LTYPE
5
5
100
AcDbSymbolTable
0
LTYPE
5
14
100
AcDbSymbolTableRecord
100
AcDbLinetypeTableRecord
2
BYBLOCK
70
0
0
LTYPE
5
15
100
AcDbSymbolTableRecord
100
AcDbLinetypeTableRecord
2
BYLAYER
70
0
0
ENDTAB
0
TABLE
2
LAYER
5
2
100
AcDbSymbolTable
70
2
0
LAYER
5
50
100
AcDbSymbolTableRecord
100
AcDbLayerTableRecord
2
0
70
0
6
CONTINUOUS
0
ENDTAB
0
TABLE
2
STYLE
5
3
100
AcDbSymbolTable
70
1
0
STYLE
5
11
100
AcDbSymbolTableRecord
100
AcDbTextStyleTableRecord
2
STANDARD
70
0
0
ENDTAB
0
TABLE
2
VIEW
5
6
100
AcDbSymbolTable
70
0
0
ENDTAB
0
TABLE
2
UCS
5
7
100
AcDbSymbolTable
70
0
0
ENDTAB
0
TABLE
2
APPID
5
9
100
AcDbSymbolTable
70
2
0
APPID
5
12
100
AcDbSymbolTableRecord
100
AcDbRegAppTableRecord
2
ACAD
70
0
0
ENDTAB
0
TABLE
2
DIMSTYLE
5
A
100
AcDbSymbolTable
70
1
0
ENDTAB
0
TABLE
2
BLOCK_RECORD
5
1
100
AcDbSymbolTable
70
1
0
BLOCK_RECORD
5
1F
100
AcDbSymbolTableRecord
100
AcDbBlockTableRecord
2
*MODEL_SPACE
0
BLOCK_RECORD
5
1B
100
AcDbSymbolTableRecord
100
AcDbBlockTableRecord
2
*PAPER_SPACE
0
ENDTAB
0
ENDSEC
0
SECTION
2
BLOCKS
0
BLOCK
5
20
100
AcDbEntity
100
AcDbBlockBegin
2
*MODEL_SPACE
0
ENDBLK
5
21
100
AcDbEntity
100
AcDbBlockEnd
0
BLOCK
5
1C
100
AcDbEntity
100
AcDbBlockBegin
2
*PAPER_SPACE
0
ENDBLK
5
1D
100
AcDbEntity
100
AcDbBlockEnd
0
ENDSEC
0
SECTION
2
ENTITIES
0
CIRCLE
5
100
100
AcDbEntity
8
0
100
AcDbCircle
10
-3.3749999999986362
20
-10
30
0
40
2.1500000000003179
210
0
220
-0
230
1
0
LWPOLYLINE
5
101
100
AcDbEntity
8
0
100
AcDbPolyline
90
72
70
1
43
0.0
10
-2.4749999999973622
20
-4.4954798099977697
42
0.19891236792164158
10
-1.5963203391424485
20
-6.6168001579749021
10
0.0081998575380723415
20
-8.2213203479739114
42
0.19891236683918256
10
2.1295201966839006
20
-9.0999999999993335
10
5.438464606552234
20
-9.1000000000018879
42
0.66817850763196929
10
5.9900080945888661
20
-7.7684569093904106
10
4.4562080646916611
20
-6.2346557742702782
42
-0.4142134568491902
10
4.4562081411220378
20
-5.8103917819891437
10
4.9511823484746316
20
-5.3154175746397634
42
-0.41421356237309626
10
6.0825531983720804
20
-5.3154175746397652
10
9.3529220613588997
20
-8.5857864376297961
42
-0.41421356237309509
10
9.3529220613588997
20
-11.414213562373414
10
6.0825531983672576
20
-14.684582425358624
42
-0.41421356237808993
10
4.9511823484730266
20
-14.684582425361841
10
4.4562081411220262
20
-14.189608218010868
42
-0.41421345603227339
10
4.4562080641031994
20
-13.765344226318151
10
5.9900080875831527
20
-12.231543089073522
42
0.66817850662602385
10
5.4384645980101265
20
-10.900000000000665
10
2.1295201900035958
20
-10.899999999999419
42
0.19891236792007563
10
0.0081998420293261098
20
-11.778679660855836
10
-1.5963203479736539
20
-13.383199857535599
42
0.19891236683828922
10
-2.475000000001184
20
-15.504520196679319
10
-2.4750000000003567
20
-18.81346460654926
42
0.66817850763600539
10
-1.143456909389049
20
-19.365008094590713
10
0.39034422572465061
20
-17.831208064690294
42
-0.41421345684475042
10
0.8146082180122205
20
-17.831208141120673
10
1.3095824253615991
20
-18.326182348473267
42
-0.41421356237142853
10
1.3095824253615995
20
-19.457553198370718
10
-1.9607864376236104
20
-22.727922061359141
42
-0.41421356237309509
10
-4.7892135623704437
20
-22.727922061359141
10
-8.0595824253604782
20
-19.45755319837232
42
-0.41421356237725732
10
-8.0595824253588706
20
-18.326182348470056
10
-7.5646082180111121
20
-17.831208141119053
42
-0.41421345603227028
10
-7.140344226318394
20
-17.831208064100231
10
-5.6065430890721579
20
-19.36500808757857
42
0.66817850662738631
10
-4.2749999999976929
20
-18.81346459801037
10
-4.2749999999996628
20
-15.504520189999017
42
0.19891236791962408
10
-5.1536796608528643
20
-13.383199842029569
10
-6.75819985753464
20
-11.778679652022168
42
0.19891236683932181
10
-8.8795201966795645
20
-10.900000000005489
10
-12.188464606549507
20
-10.899999999999888
42
0.66817850763451436
10
-12.740008094587745
20
-12.231543090611193
10
-11.206208064692145
20
-13.765344225732933
42
-0.41421345684918692
10
-11.206208141119308
20
-14.189608218010857
10
-11.701182348467082
20
-14.684582425361841
42
-0.41421356237309626
10
-12.832553198367744
20
-14.684582425361841
10
-16.102922061356168
20
-11.414213562373416
42
-0.41421356237309448
10
-16.102922061356168
20
-8.5857864376265844
10
-12.832553198370961
20
-5.3154175746381584
42
-0.4142135623730957
10
-11.701182348470297
20
-5.3154175746381576
10
-11.206208141119298
20
-5.8103917819891313
42
-0.41421345602783294
10
-11.206208064097257
20
-6.2346557736818484
10
-12.740008087584895
20
-7.768456910922005
42
0.66817850662856881
10
-12.188464598009007
20
-9.0999999999977259
10
-8.8795201899976526
20
-9.0999999999986354
42
0.19891236791973949
10
-6.7581998420282048
20
-8.2213203391457697
10
-5.1536796520277406
20
-6.61680014246671
42
0.19891236683882246
10
-4.2749999999993022
20
-4.4954798033206798
10
-4.2749999999953072
20
-1.186535393449129
42
0.66817850763916731
10
-5.6065430906114386
20
-0.63499190541249861
10
-7.1403442257283567
20
-2.1687919353032727
42
-0.41421345686694666
10
-7.564608218009492
20
-2.1687918588793247
10
-8.0595824253588706
20
-1.6738176515267311
42
-0.41421356236726758
10
-8.0595824253604782
20
-0.54244680163089143
10
-4.7892135623720522
20
2.7279220613575337
42
-0.4142135623730952
10
-1.9607864376252193
20
2.7279220613575337
10
1.3095824253615977
20
-0.54244680163249792
42
-0.41421356237392831
10
1.3095824253632049
20
-1.6738176515283376
10
0.81460821801384153
20
-2.1687918588809465
42
-0.41421345603227788
10
0.39034422631790688
20
-2.1687919358997703
10
-1.1434569109251134
20
-0.63499191241499675
42
0.66817850662496858
10
-2.4749999999995778
20
-1.1865354019896284
0
ENDSEC
0
SECTION
2
OBJECTS
0
DICTIONARY
5
C
100
AcDbDictionary
3
ACAD_GROUP
350
D
3
ACAD_MLINESTYLE
350
17
0
DICTIONARY
5
D
100
AcDbDictionary
0
DICTIONARY
5
1A
330
C
100
AcDbDictionary
0
DICTIONARY
5
17
100
AcDbDictionary
0
ENDSEC
0
EOF
