0
SECTION
2
HEADER
9
$INSUNITS
70
4
9
$ACADVER
1
AC1014
9
$HANDSEED
5
FFFF
0
ENDSEC
0
SECTION
2
TABLES
0
TABLE
2
VPORT
5
8
100
AcDbSymbolTable
0
ENDTAB
0
TABLE
2
LTYPE
5
5
100
AcDbSymbolTable
0
LTYPE
5
14
100
AcDbSymbolTableRecord
100
AcDbLinetypeTableRecord
2
BYBLOCK
70
0
0
LTYPE
5
15
100
AcDbSymbolTableRecord
100
AcDbLinetypeTableRecord
2
BYLAYER
70
0
0
ENDTAB
0
TABLE
2
LAYER
5
2
100
AcDbSymbolTable
70
2
0
LAYER
5
50
100
AcDbSymbolTableRecord
100
AcDbLayerTableRecord
2
0
70
0
6
CONTINUOUS
0
ENDTAB
0
TABLE
2
STYLE
5
3
100
AcDbSymbolTable
70
1
0
STYLE
5
11
100
AcDbSymbolTableRecord
100
AcDbTextStyleTableRecord
2
STANDARD
70
0
0
ENDTAB
0
TABLE
2
VIEW
5
6
100
AcDbSymbolTable
70
0
0
ENDTAB
0
TABLE
2
UCS
5
7
100
AcDbSymbolTable
70
0
0
ENDTAB
0
TABLE
2
APPID
5
9
100
AcDbSymbolTable
70
2
0
APPID
5
12
100
AcDbSymbolTableRecord
100
AcDbRegAppTableRecord
2
ACAD
70
0
0
ENDTAB
0
TABLE
2
DIMSTYLE
5
A
100
AcDbSymbolTable
70
1
0
ENDTAB
0
TABLE
2
BLOCK_RECORD
5
1
100
AcDbSymbolTable
70
1
0
BLOCK_RECORD
5
1F
100
AcDbSymbolTableRecord
100
AcDbBlockTableRecord
2
*MODEL_SPACE
0
BLOCK_RECORD
5
1B
100
AcDbSymbolTableRecord
100
AcDbBlockTableRecord
2
*PAPER_SPACE
0
ENDTAB
0
ENDSEC
0
SECTION
2
BLOCKS
0
BLOCK
5
20
100
AcDbEntity
100
AcDbBlockBegin
2
*MODEL_SPACE
0
ENDBLK
5
21
100
AcDbEntity
100
AcDbBlockEnd
0
BLOCK
5
1C
100
AcDbEntity
100
AcDbBlockBegin
2
*PAPER_SPACE
0
ENDBLK
5
1D
100
AcDbEntity
100
AcDbBlockEnd
0
ENDSEC
0
SECTION
2
ENTITIES
0
LWPOLYLINE
5
100
100
AcDbEntity
8
0
100
AcDbPolyline
90
20
70
1
43
0.0
10
-15.52072408662549
20
-10.010026851768089
10
-11.985190259718085
20
-6.4744930248606822
10
-10.167111533671243
20
-8.2925717509075287
10
-9.2054462326536637
20
-7.3309064498899517
10
-7.2396892299639735
20
-9.2966634525796437
10
-8.2013545309815505
20
-10.258328753597221
10
-6.3566198988851124
20
-12.103063385693659
10
-9.8921537257925181
20
-15.638597212601066
10
-10.355308736801273
20
-15.175442201592311
10
-10.019433092392243
20
-14.839566557183282
10
-11.080093108755559
20
-13.778906540819962
10
-11.415968753164591
20
-14.114782185228991
10
-12.151359807600578
20
-13.379391130793007
10
-11.815484163191545
20
-13.043515486383974
10
-12.876144508827119
20
-11.982855140748399
10
-13.21202015323615
20
-12.318730785157431
10
-13.947411207672136
20
-11.583339730721445
10
-13.611535563263107
20
-11.247464086312412
10
-14.672195250354175
20
-10.186804399221344
10
-15.008070894763206
20
-10.522680043630375
0
LINE
5
101
100
AcDbEntity
8
0
100
AcDbLine
10
-9.5386002772473297
20
-15.285043764055875
30
3.3306690738754696e-15
11
-7.4103316121447103
21
-17.413312429158495
31
3.8930432168197326e-15
0
LINE
5
102
100
AcDbEntity
8
0
100
AcDbLine
10
-7.4103316121447103
20
-17.413312429158495
30
3.8930432168197326e-15
11
-4.5819042707373709
21
-14.584885087751154
31
1.6883923839478096e-15
0
LINE
5
103
100
AcDbEntity
8
0
100
AcDbLine
10
-6.7101729358399886
20
-12.456616422648533
30
2.2204460492503131e-15
11
-4.5819042707373709
21
-14.584885087751154
31
1.6883923839478096e-15
0
LINE
5
104
100
AcDbEntity
8
0
100
AcDbLine
10
-17.295438973910656
20
-7.5282050673925411
30
-1.1102230246251565e-15
11
-15.167170638080298
21
-9.6564734032229005
31
-5.478491404545437e-16
0
LINE
5
105
100
AcDbEntity
8
0
100
AcDbLine
10
-14.467011632503315
20
-4.6997777259852018
30
0
11
-17.295438973910656
21
-7.5282050673925411
31
-1.1102230246251565e-15
0
LINE
5
106
100
AcDbEntity
8
0
100
AcDbLine
10
-14.467011632503315
20
-4.6997777259852018
30
0
11
-12.338743296672959
21
-6.8280460618155603
31
5.6237388417061284e-16
0
CIRCLE
5
107
100
AcDbEntity
8
0
100
AcDbCircle
10
4.4408920985006262e-15
20
2.2204460492503131e-15
30
0
40
2.1500000000003188
210
1.242040578684055e-17
220
1.0214666212432368e-16
230
1
0
LWPOLYLINE
5
108
100
AcDbEntity
8
0
100
AcDbPolyline
90
72
70
1
43
0.0
10
3.3831998420263574
20
-1.7786796608574433
10
1.7786796520243333
20
-3.3831998575349473
42
0.19891236683918295
10
0.90000000000220881
20
-5.5045201966825363
10
0.89999999999905822
20
-8.8134646065508697
42
0.66817850763196895
10
2.2315430906102023
20
-9.3650080945881164
10
3.7653442257296699
20
-7.8312080646902444
42
-0.41421345684918731
10
4.189608218010906
20
-7.8312081411206247
10
4.6845824253606851
20
-8.3261823484728161
42
-0.41421356237309509
10
4.6845824253606843
20
-9.4575531983711691
10
1.4142135623719576
20
-12.72792206135929
42
-0.41421356237309503
10
-1.4142135623751781
20
-12.72792206135929
10
-4.6845824253617421
20
-9.4575531983690055
42
-0.41421356237808937
10
-4.6845824253649573
20
-8.3261823484685458
10
-4.1896082180118102
20
-7.8312081411197196
42
-0.4142134560322745
10
-3.7653442263172106
20
-7.8312080641008954
10
-2.2315430890741621
20
-9.3650080875824244
42
0.66817850662602607
10
-0.89999999999988534
20
-8.8134645980087605
10
-0.89999999999905711
20
-5.5045201900022303
42
0.19891236792007561
10
-1.7786796608552327
20
-3.3831998420273597
10
-3.3831998575365518
20
-1.7786796520259343
42
0.19891236683828897
10
-5.5045201966793167
20
-0.89999999999958646
10
-8.8134646065492586
20
-0.90000000000066138
42
0.66817850763600484
10
-9.365008094590074
20
-2.2315430906089424
10
-7.8312080646912987
20
-3.7653442257242893
42
-0.41421345684474831
10
-7.8312081411216772
20
-4.1896082180098464
10
-8.3261823484731661
20
-4.6845824253603308
42
-0.41421356237143042
10
-9.4575531983708157
20
-4.6845824253603316
10
-12.727922061359287
20
-1.4142135623751715
42
-0.41421356237309548
10
-12.727922061359289
20
1.4142135623719667
10
-9.4575531983731214
20
4.6845824253626489
42
-0.41421356237725826
10
-8.3261823484692403
20
4.6845824253610422
10
-7.8312081411206167
20
4.1896082180109087
42
-0.41421345603227372
10
-7.8312080641017934
20
3.7653442263213344
10
-9.3650080875808115
20
2.2315430890757741
42
0.66817850662738476
10
-8.8134645980103645
20
0.89999999999667457
10
-5.5045201899990115
20
0.89999999999906266
42
0.19891236791962466
10
-3.3831998420273548
20
1.7786796608520206
10
-1.7786796520243238
20
3.383199857538167
42
0.19891236683932245
10
-0.8999999999993219
20
5.5045201966809296
10
-0.89999999999904767
20
8.8134646065508733
42
0.66817850763451381
10
-2.2315430906105456
20
9.3650080945884735
10
-3.7653442257300105
20
7.8312080646905997
42
-0.41421345684918615
10
-4.1896082180137579
20
7.8312081411177648
10
-4.6845824253606763
20
8.3261823484696045
42
-0.41421356237309537
10
-4.6845824253606763
20
9.4575531983679557
10
-1.4142135623723004
20
12.727922061356434
42
-0.41421356237309515
10
1.4142135623723238
20
12.727922061356431
10
4.6845824253606958
20
9.4575531983711691
42
-0.41421356237309531
10
4.6845824253606949
20
8.3261823484728179
10
4.1896082180102114
20
7.8312081411213299
42
-0.41421345602783449
10
3.7653442263188275
20
7.8312080640992896
10
2.231543089077388
20
9.365008087585645
42
0.6681785066285697
10
0.8999999999997278
20
8.8134645980103734
10
0.90000000000228009
20
5.5045201899990168
42
0.19891236791973907
10
1.7786796608545363
20
3.3831998420298715
10
3.3831998575349544
20
1.7786796520307624
42
0.19891236683882199
10
5.5045201966793256
20
0.90000000000153346
10
8.813464606550875
20
0.89999999999584213
42
0.66817850763916786
10
9.3650080945868659
20
2.2315430906121629
10
7.8312080646927642
20
3.7653442257257503
42
-0.41421345686694699
10
7.8312081411167123
20
4.1896082180148246
10
8.3261823484738802
20
4.68458242535963
42
-0.41421356236726742
10
9.4575531983685117
20
4.6845824253612376
10
12.727922061356431
20
1.4142135623723067
42
-0.41421356237309481
10
12.727922061356431
20
-1.4142135623723147
10
9.4575531983670498
20
-4.6845824253597819
42
-0.4142135623739277
10
8.3261823484721145
20
-4.6845824253613895
10
7.8312081411197205
20
-4.1896082180118102
42
-0.41421345603227405
10
7.831208064100899
20
-3.7653442263172114
10
9.365008087582428
20
-2.2315430890709478
42
0.66817850662496836
10
8.8134645980103734
20
-0.90000000000149605
10
5.5045201900022356
20
-0.90000000000227565
42
0.19891236792164224
0
ENDSEC
0
SECTION
2
OBJECTS
0
DICTIONARY
5
C
100
AcDbDictionary
3
ACAD_GROUP
350
D
3
ACAD_MLINESTYLE
350
17
0
DICTIONARY
5
D
100
AcDbDictionary
0
DICTIONARY
5
1A
330
C
100
AcDbDictionary
0
DICTIONARY
5
17
100
AcDbDictionary
0
ENDSEC
0
EOF
