0
SECTION
2
HEADER
9
$INSUNITS
70
4
9
$ACADVER
1
AC1014
9
$HANDSEED
5
FFFF
0
ENDSEC
0
SECTION
2
TABLES
0
TABLE
2
VPORT
5
8
100
AcDbSymbolTable
0
ENDTAB
0
TABLE
2
LTYPE
5
5
100
AcDbSymbolTable
0
LTYPE
5
14
100
AcDbSymbolTableRecord
100
AcDbLinetypeTableRecord
2
BYBLOCK
70
0
0
LTYPE
5
15
100
AcDbSymbolTableRecord
100
AcDbLinetypeTableRecord
2
BYLAYER
70
0
0
ENDTAB
0
TABLE
2
LAYER
5
2
100
AcDbSymbolTable
70
2
0
LAYER
5
50
100
AcDbSymbolTableRecord
100
AcDbLayerTableRecord
2
0
70
0
6
CONTINUOUS
0
ENDTAB
0
TABLE
2
STYLE
5
3
100
AcDbSymbolTable
70
1
0
STYLE
5
11
100
AcDbSymbolTableRecord
100
AcDbTextStyleTableRecord
2
STANDARD
70
0
0
ENDTAB
0
TABLE
2
VIEW
5
6
100
AcDbSymbolTable
70
0
0
ENDTAB
0
TABLE
2
UCS
5
7
100
AcDbSymbolTable
70
0
0
ENDTAB
0
TABLE
2
APPID
5
9
100
AcDbSymbolTable
70
2
0
APPID
5
12
100
AcDbSymbolTableRecord
100
AcDbRegAppTableRecord
2
ACAD
70
0
0
ENDTAB
0
TABLE
2
DIMSTYLE
5
A
100
AcDbSymbolTable
70
1
0
ENDTAB
0
TABLE
2
BLOCK_RECORD
5
1
100
AcDbSymbolTable
70
1
0
BLOCK_RECORD
5
1F
100
AcDbSymbolTableRecord
100
AcDbBlockTableRecord
2
*MODEL_SPACE
0
BLOCK_RECORD
5
1B
100
AcDbSymbolTableRecord
100
AcDbBlockTableRecord
2
*PAPER_SPACE
0
ENDTAB
0
ENDSEC
0
SECTION
2
BLOCKS
0
BLOCK
5
20
100
AcDbEntity
100
AcDbBlockBegin
2
*MODEL_SPACE
0
ENDBLK
5
21
100
AcDbEntity
100
AcDbBlockEnd
0
BLOCK
5
1C
100
AcDbEntity
100
AcDbBlockBegin
2
*PAPER_SPACE
0
ENDBLK
5
1D
100
AcDbEntity
100
AcDbBlockEnd
0
ENDSEC
0
SECTION
2
ENTITIES
0
LWPOLYLINE
5
100
100
AcDbEntity
8
0
100
AcDbPolyline
90
18
70
1
43
0.0
10
-15.280182086625537
20
-9.6121138517680684
10
-14.767528894763252
20
-10.124767043630358
10
-14.431653250354222
20
-9.7888913992213276
10
-13.370993563263156
20
-10.849551086312401
10
-13.70686920767219
20
-11.185426730721431
10
-12.971478153236207
20
-11.920817785157421
10
-12.635602508827173
20
-11.584942140748391
10
-11.574942163191604
20
-12.645602486383972
10
-11.910817807600637
20
-12.981478130793001
10
-11.175426753164652
20
-13.71686918522899
10
-10.839551108755622
20
-13.380993540819958
10
-9.7788910923923069
20
-14.441653557183283
10
-10.114766736801339
20
-14.777529201592312
10
-9.6516117257925842
20
-15.240684212601071
10
-6.1160778988851572
20
-11.705150385693678
10
-7.9608125309815891
20
-9.8604157535972288
10
-9.9265695336712749
20
-7.894658750907527
10
-11.744648259718112
20
-6.0765800248606752
0
LINE
5
101
100
AcDbEntity
8
0
100
AcDbLine
10
-7.9608125309815891
20
-9.8604157535972288
30
-1.2568918172538176e-16
11
-6.9991472299640067
21
-8.8987504525796552
31
-8.2082664419172915e-19
0
LINE
5
102
100
AcDbEntity
8
0
100
AcDbLine
10
-8.9649042326536925
20
-6.9329934498899544
30
1.1102230246251565e-15
11
-6.9991472299640067
21
-8.8987504525796552
31
-8.2082664419172915e-19
0
LINE
5
103
100
AcDbEntity
8
0
100
AcDbLine
10
-8.9649042326536925
20
-6.9329934498899544
30
1.1102230246251565e-15
11
-9.9265695336712749
21
-7.894658750907527
31
0
0
LINE
5
104
100
AcDbEntity
8
0
100
AcDbLine
10
-17.054896973910697
20
-7.1302920673925163
30
0
11
-14.926628638080349
21
-9.2585604032228819
31
2.2151742272058895e-16
0
LINE
5
105
100
AcDbEntity
8
0
100
AcDbLine
10
-14.22646963250334
20
-4.301864725985185
30
-1.1102230246251565e-15
11
-17.054896973910697
21
-7.1302920673925163
31
0
0
LINE
5
106
100
AcDbEntity
8
0
100
AcDbLine
10
-14.22646963250334
20
-4.301864725985185
30
-1.1102230246251565e-15
11
-12.09820129667299
21
-6.4301330618155506
31
-8.8870560190456759e-16
0
LINE
5
107
100
AcDbEntity
8
0
100
AcDbLine
10
-9.2980582772473959
20
-14.887130764055883
30
1.1102230246251565e-15
11
-7.1697896121447844
21
-17.015399429158514
31
1.3317404816175237e-15
0
LINE
5
108
100
AcDbEntity
8
0
100
AcDbLine
10
-7.1697896121447844
20
-17.015399429158514
30
1.3317404816175237e-15
11
-4.3413622707374273
21
-14.186972087751181
31
1.1280966602811358e-15
0
LINE
5
109
100
AcDbEntity
8
0
100
AcDbLine
10
-6.4696309358400388
20
-12.058703422648554
30
1.1102230246251565e-15
11
-4.3413622707374273
21
-14.186972087751181
31
1.1280966602811358e-15
0
CIRCLE
5
110
100
AcDbEntity
8
0
100
AcDbCircle
10
4.4408920985006262e-15
20
2.2204460492503131e-15
30
0
40
2.1500000000003188
210
1.242040578684055e-17
220
1.0214666212432368e-16
230
1
0
LWPOLYLINE
5
111
100
AcDbEntity
8
0
100
AcDbPolyline
90
72
70
1
43
0.0
10
3.3831998420263574
20
-1.7786796608574433
10
1.7786796520243333
20
-3.3831998575349473
42
0.19891236683918295
10
0.90000000000220881
20
-5.5045201966825363
10
0.89999999999905822
20
-8.8134646065508697
42
0.66817850763196895
10
2.2315430906102023
20
-9.3650080945881164
10
3.7653442257296699
20
-7.8312080646902444
42
-0.41421345684918731
10
4.189608218010906
20
-7.8312081411206247
10
4.6845824253606851
20
-8.3261823484728161
42
-0.41421356237309509
10
4.6845824253606843
20
-9.4575531983711691
10
1.4142135623719576
20
-12.72792206135929
42
-0.41421356237309503
10
-1.4142135623751781
20
-12.72792206135929
10
-4.6845824253617421
20
-9.4575531983690055
42
-0.41421356237808937
10
-4.6845824253649573
20
-8.3261823484685458
10
-4.1896082180118102
20
-7.8312081411197196
42
-0.4142134560322745
10
-3.7653442263172106
20
-7.8312080641008954
10
-2.2315430890741621
20
-9.3650080875824244
42
0.66817850662602607
10
-0.89999999999988534
20
-8.8134645980087605
10
-0.89999999999905711
20
-5.5045201900022303
42
0.19891236792007561
10
-1.7786796608552327
20
-3.3831998420273597
10
-3.3831998575365518
20
-1.7786796520259343
42
0.19891236683828897
10
-5.5045201966793167
20
-0.89999999999958646
10
-8.8134646065492586
20
-0.90000000000066138
42
0.66817850763600484
10
-9.365008094590074
20
-2.2315430906089424
10
-7.8312080646912987
20
-3.7653442257242893
42
-0.41421345684474831
10
-7.8312081411216772
20
-4.1896082180098464
10
-8.3261823484731661
20
-4.6845824253603308
42
-0.41421356237143042
10
-9.4575531983708157
20
-4.6845824253603316
10
-12.727922061359287
20
-1.4142135623751715
42
-0.41421356237309548
10
-12.727922061359289
20
1.4142135623719667
10
-9.4575531983731214
20
4.6845824253626489
42
-0.41421356237725826
10
-8.3261823484692403
20
4.6845824253610422
10
-7.8312081411206167
20
4.1896082180109087
42
-0.41421345603227372
10
-7.8312080641017934
20
3.7653442263213344
10
-9.3650080875808115
20
2.2315430890757741
42
0.66817850662738476
10
-8.8134645980103645
20
0.89999999999667457
10
-5.5045201899990115
20
0.89999999999906266
42
0.19891236791962466
10
-3.3831998420273548
20
1.7786796608520206
10
-1.7786796520243238
20
3.383199857538167
42
0.19891236683932245
10
-0.8999999999993219
20
5.5045201966809296
10
-0.89999999999904767
20
8.8134646065508733
42
0.66817850763451381
10
-2.2315430906105456
20
9.3650080945884735
10
-3.7653442257300105
20
7.8312080646905997
42
-0.41421345684918615
10
-4.1896082180137579
20
7.8312081411177648
10
-4.6845824253606763
20
8.3261823484696045
42
-0.41421356237309537
10
-4.6845824253606763
20
9.4575531983679557
10
-1.4142135623723004
20
12.727922061356434
42
-0.41421356237309515
10
1.4142135623723238
20
12.727922061356431
10
4.6845824253606958
20
9.4575531983711691
42
-0.41421356237309531
10
4.6845824253606949
20
8.3261823484728179
10
4.1896082180102114
20
7.8312081411213299
42
-0.41421345602783449
10
3.7653442263188275
20
7.8312080640992896
10
2.231543089077388
20
9.365008087585645
42
0.6681785066285697
10
0.8999999999997278
20
8.8134645980103734
10
0.90000000000228009
20
5.5045201899990168
42
0.19891236791973907
10
1.7786796608545363
20
3.3831998420298715
10
3.3831998575349544
20
1.7786796520307624
42
0.19891236683882199
10
5.5045201966793256
20
0.90000000000153346
10
8.813464606550875
20
0.89999999999584213
42
0.66817850763916786
10
9.3650080945868659
20
2.2315430906121629
10
7.8312080646927642
20
3.7653442257257503
42
-0.41421345686694699
10
7.8312081411167123
20
4.1896082180148246
10
8.3261823484738802
20
4.68458242535963
42
-0.41421356236726742
10
9.4575531983685117
20
4.6845824253612376
10
12.727922061356431
20
1.4142135623723067
42
-0.41421356237309481
10
12.727922061356431
20
-1.4142135623723147
10
9.4575531983670498
20
-4.6845824253597819
42
-0.4142135623739277
10
8.3261823484721145
20
-4.6845824253613895
10
7.8312081411197205
20
-4.1896082180118102
42
-0.41421345603227405
10
7.831208064100899
20
-3.7653442263172114
10
9.365008087582428
20
-2.2315430890709478
42
0.66817850662496836
10
8.8134645980103734
20
-0.90000000000149605
10
5.5045201900022356
20
-0.90000000000227565
42
0.19891236792164224
0
LWPOLYLINE
5
112
100
AcDbEntity
8
0
100
AcDbPolyline
90
20
70
1
43
0.0
10
11.705150385693681
20
-6.1160778988851616
10
9.8604157535972341
20
-7.9608125309815936
10
8.8987504525796606
20
-6.9991472299640112
10
6.9329934498899597
20
-8.9649042326536961
10
7.8946587509075314
20
-9.9265695336712785
10
6.0765800248606796
20
-11.744648259718115
10
9.612113851768072
20
-15.280182086625542
10
10.124767043630364
20
-14.767528894763258
10
9.7888913992213293
20
-14.431653250354227
10
10.849551086312406
20
-13.370993563263161
10
11.185426730721435
20
-13.706869207672195
10
11.920817785157425
20
-12.971478153236211
10
11.584942140748396
20
-12.635602508827176
10
12.645602486383975
20
-11.574942163191608
10
12.981478130793004
20
-11.910817807600642
10
13.716869185228994
20
-11.175426753164658
10
13.380993540819963
20
-10.839551108755625
10
14.441653557183287
20
-9.7788910923923122
10
14.777529201592316
20
-10.114766736801343
10
15.240684212601074
20
-9.6516117257925913
0
LINE
5
113
100
AcDbEntity
8
0
100
AcDbLine
10
14.887130764055886
20
-9.2980582772474012
30
1.1102230246251565e-15
11
17.015399429158517
21
-7.1697896121447897
31
1.3317404816175237e-15
0
LINE
5
114
100
AcDbEntity
8
0
100
AcDbLine
10
17.015399429158517
20
-7.1697896121447897
30
1.3317404816175237e-15
11
14.186972087751188
21
-4.3413622707374335
31
1.1280966602811358e-15
0
LINE
5
115
100
AcDbEntity
8
0
100
AcDbLine
10
7.8946587509075314
20
-9.9265695336712785
30
0
11
9.8604157535972341
21
-7.9608125309815936
31
-1.2568918172538176e-16
0
LINE
5
116
100
AcDbEntity
8
0
100
AcDbLine
10
4.3018647259851885
20
-14.226469632503342
30
-1.1102230246251565e-15
11
7.1302920673925199
21
-17.054896973910701
31
0
0
LINE
5
117
100
AcDbEntity
8
0
100
AcDbLine
10
4.3018647259851885
20
-14.226469632503342
30
-1.1102230246251565e-15
11
6.430133061815555
21
-12.098201296672995
31
-8.8870560190456759e-16
0
LINE
5
118
100
AcDbEntity
8
0
100
AcDbLine
10
12.058703422648557
20
-6.4696309358400423
30
1.1102230246251565e-15
11
14.186972087751188
21
-4.3413622707374335
31
1.1280966602811358e-15
0
LINE
5
119
100
AcDbEntity
8
0
100
AcDbLine
10
7.1302920673925199
20
-17.054896973910701
30
0
11
9.2585604032228854
21
-14.926628638080352
31
2.2151742272058895e-16
0
LWPOLYLINE
5
120
100
AcDbEntity
8
0
100
AcDbPolyline
90
20
70
1
43
0.0
10
6.116077898885167
20
11.705150385693681
10
7.9608125309815989
20
9.8604157535972323
10
6.9991472299640165
20
8.8987504525796588
10
8.9649042326537014
20
6.9329934498899579
10
9.9265695336712838
20
7.8946587509075306
10
11.744648259718121
20
6.0765800248606787
10
15.280182086625549
20
9.612113851768072
10
14.767528894763265
20
10.12476704363036
10
14.431653250354232
20
9.7888913992213293
10
13.370993563263166
20
10.849551086312403
10
13.706869207672201
20
11.185426730721433
10
12.971478153236218
20
11.920817785157423
10
12.635602508827183
20
11.584942140748392
10
11.574942163191615
20
12.645602486383973
10
11.910817807600649
20
12.981478130793002
10
11.175426753164663
20
13.716869185228992
10
10.839551108755632
20
13.380993540819961
10
9.7788910923923176
20
14.441653557183285
10
10.11476673680135
20
14.777529201592314
10
9.6516117257925966
20
15.240684212601073
0
LINE
5
121
100
AcDbEntity
8
0
100
AcDbLine
10
9.2980582772474065
20
14.887130764055884
30
1.1102230246251565e-15
11
7.1697896121447959
21
17.015399429158517
31
1.3317404816175237e-15
0
LINE
5
122
100
AcDbEntity
8
0
100
AcDbLine
10
7.1697896121447959
20
17.015399429158517
30
1.3317404816175237e-15
11
4.341362270737438
21
14.186972087751187
31
1.1280966602811358e-15
0
LINE
5
123
100
AcDbEntity
8
0
100
AcDbLine
10
9.9265695336712838
20
7.8946587509075306
30
0
11
7.9608125309815989
21
9.8604157535972323
31
-1.2568918172538176e-16
0
LINE
5
124
100
AcDbEntity
8
0
100
AcDbLine
10
14.226469632503349
20
4.3018647259851877
30
-1.1102230246251565e-15
11
17.054896973910708
21
7.130292067392519
31
0
0
LINE
5
125
100
AcDbEntity
8
0
100
AcDbLine
10
14.226469632503349
20
4.3018647259851877
30
-1.1102230246251565e-15
11
12.098201296672999
21
6.4301330618155541
31
-8.8870560190456759e-16
0
LINE
5
126
100
AcDbEntity
8
0
100
AcDbLine
10
6.4696309358400486
20
12.058703422648557
30
1.1102230246251565e-15
11
4.341362270737438
21
14.186972087751187
31
1.1280966602811358e-15
0
LINE
5
127
100
AcDbEntity
8
0
100
AcDbLine
10
17.054896973910708
20
7.130292067392519
30
0
11
14.926628638080359
21
9.2585604032228837
31
2.2151742272058895e-16
0
LWPOLYLINE
5
128
100
AcDbEntity
8
0
100
AcDbPolyline
90
20
70
1
43
0.0
10
-11.705150385693672
20
6.1160778988851661
10
-9.8604157535972252
20
7.960812530981598
10
-8.8987504525796517
20
6.9991472299640156
10
-6.9329934498899508
20
8.9649042326536996
10
-7.8946587509075226
20
9.9265695336712838
10
-6.0765800248606707
20
11.744648259718121
10
-9.6121138517680631
20
15.280182086625548
10
-10.124767043630353
20
14.767528894763263
10
-9.7888913992213205
20
14.431653250354231
10
-10.849551086312397
20
13.370993563263164
10
-11.185426730721426
20
13.706869207672199
10
-11.920817785157416
20
12.971478153236216
10
-11.584942140748387
20
12.635602508827182
10
-12.645602486383966
20
11.574942163191613
10
-12.981478130792997
20
11.910817807600647
10
-13.716869185228987
20
11.175426753164661
10
-13.380993540819954
20
10.839551108755629
10
-14.441653557183278
20
9.7788910923923176
10
-14.777529201592309
20
10.114766736801348
10
-15.240684212601066
20
9.6516117257925949
0
LINE
5
129
100
AcDbEntity
8
0
100
AcDbLine
10
-14.887130764055879
20
9.2980582772474047
30
1.1102230246251565e-15
11
-17.01539942915851
21
7.169789612144795
31
1.3317404816175237e-15
0
LINE
5
130
100
AcDbEntity
8
0
100
AcDbLine
10
-17.01539942915851
20
7.169789612144795
30
1.3317404816175237e-15
11
-14.18697208775118
21
4.341362270737438
31
1.1280966602811358e-15
0
LINE
5
131
100
AcDbEntity
8
0
100
AcDbLine
10
-7.8946587509075226
20
9.9265695336712838
30
0
11
-9.8604157535972252
21
7.960812530981598
31
-1.2568918172538176e-16
0
LINE
5
132
100
AcDbEntity
8
0
100
AcDbLine
10
-4.3018647259851797
20
14.226469632503347
30
-1.1102230246251565e-15
11
-7.130292067392511
21
17.054896973910708
31
0
0
LINE
5
133
100
AcDbEntity
8
0
100
AcDbLine
10
-4.3018647259851797
20
14.226469632503347
30
-1.1102230246251565e-15
11
-6.4301330618155461
21
12.098201296672999
31
-8.8870560190456759e-16
0
LINE
5
134
100
AcDbEntity
8
0
100
AcDbLine
10
-12.058703422648549
20
6.4696309358400477
30
1.1102230246251565e-15
11
-14.18697208775118
21
4.341362270737438
31
1.1280966602811358e-15
0
LINE
5
135
100
AcDbEntity
8
0
100
AcDbLine
10
-7.130292067392511
20
17.054896973910708
30
0
11
-9.2585604032228765
21
14.926628638080357
31
2.2151742272058895e-16
0
ENDSEC
0
SECTION
2
OBJECTS
0
DICTIONARY
5
C
100
AcDbDictionary
3
ACAD_GROUP
350
D
3
ACAD_MLINESTYLE
350
17
0
DICTIONARY
5
D
100
AcDbDictionary
0
DICTIONARY
5
1A
330
C
100
AcDbDictionary
0
DICTIONARY
5
17
100
AcDbDictionary
0
ENDSEC
0
EOF
