0
SECTION
2
HEADER
9
$INSUNITS
70
4
9
$ACADVER
1
AC1014
9
$HANDSEED
5
FFFF
0
ENDSEC
0
SECTION
2
TABLES
0
TABLE
2
VPORT
5
8
100
AcDbSymbolTable
0
ENDTAB
0
TABLE
2
LTYPE
5
5
100
AcDbSymbolTable
0
LTYPE
5
14
100
AcDbSymbolTableRecord
100
AcDbLinetypeTableRecord
2
BYBLOCK
70
0
0
LTYPE
5
15
100
AcDbSymbolTableRecord
100
AcDbLinetypeTableRecord
2
BYLAYER
70
0
0
ENDTAB
0
TABLE
2
LAYER
5
2
100
AcDbSymbolTable
70
2
0
LAYER
5
50
100
AcDbSymbolTableRecord
100
AcDbLayerTableRecord
2
0
70
0
6
CONTINUOUS
0
ENDTAB
0
TABLE
2
STYLE
5
3
100
AcDbSymbolTable
70
1
0
STYLE
5
11
100
AcDbSymbolTableRecord
100
AcDbTextStyleTableRecord
2
STANDARD
70
0
0
ENDTAB
0
TABLE
2
VIEW
5
6
100
AcDbSymbolTable
70
0
0
ENDTAB
0
TABLE
2
UCS
5
7
100
AcDbSymbolTable
70
0
0
ENDTAB
0
TABLE
2
APPID
5
9
100
AcDbSymbolTable
70
2
0
APPID
5
12
100
AcDbSymbolTableRecord
100
AcDbRegAppTableRecord
2
ACAD
70
0
0
ENDTAB
0
TABLE
2
DIMSTYLE
5
A
100
AcDbSymbolTable
70
1
0
ENDTAB
0
TABLE
2
BLOCK_RECORD
5
1
100
AcDbSymbolTable
70
1
0
BLOCK_RECORD
5
1F
100
AcDbSymbolTableRecord
100
AcDbBlockTableRecord
2
*MODEL_SPACE
0
BLOCK_RECORD
5
1B
100
AcDbSymbolTableRecord
100
AcDbBlockTableRecord
2
*PAPER_SPACE
0
ENDTAB
0
ENDSEC
0
SECTION
2
BLOCKS
0
BLOCK
5
20
100
AcDbEntity
100
AcDbBlockBegin
2
*MODEL_SPACE
0
ENDBLK
5
21
100
AcDbEntity
100
AcDbBlockEnd
0
BLOCK
5
1C
100
AcDbEntity
100
AcDbBlockBegin
2
*PAPER_SPACE
0
ENDBLK
5
1D
100
AcDbEntity
100
AcDbBlockEnd
0
ENDSEC
0
SECTION
2
ENTITIES
0
LWPOLYLINE
5
100
100
AcDbEntity
8
0
100
AcDbPolyline
90
16
70
1
43
0.0
10
-38.745588999999995
20
27.022081999999259
42
0.41421385233333147
10
-48.745617999999695
20
17.022058000000012
10
-48.745617999999958
20
-17.128856000000027
42
0.41389251456274234
10
-38.745598999999984
20
-27.117918000000042
10
58.347704000000029
20
-27.117917999998976
42
0.30769403383297966
10
62.067093000000419
20
-24.589688000000159
42
0.061492674354884556
10
66.173531999991312
20
-8.7694779999988377
42
-0.3763123867968941
10
68.057181000000014
20
-7.1179179999999844
10
74.254404000000022
20
-7.1179179999999818
42
0.41421355634865781
10
76.254382000000021
20
-5.1179399999999813
10
76.254381999990983
20
5.0220900000000306
42
0.41421365685337375
10
74.254390000000001
20
7.022082000000033
10
68.057247000000018
20
7.0220820000028059
42
-0.37630252263315639
10
66.17353200000025
20
8.6736420000000436
42
0.061493060419903607
10
62.067092999994898
20
24.493851999998029
42
0.30769351275355422
10
58.347697000000011
20
27.022082000000054
0
ARC
5
101
100
AcDbEntity
8
0
100
AcDbCircle
10
61.913294339354515
20
16.209379508434424
30
0
40
2.9999999999999982
210
0
220
0
230
1
100
AcDbArc
50
-90
51
14.671190764997153
0
LINE
5
102
100
AcDbEntity
8
0
100
AcDbLine
10
61.913294339354515
20
13.209379508434427
30
0
11
58.448894148527458
21
13.209379508434438
31
0
0
ARC
5
103
100
AcDbEntity
8
0
100
AcDbCircle
10
67.175725808447226
20
5.3699999999999859
30
0
40
2.0000000000000142
210
1.2037062152420224e-35
220
5.5666466647258416e-50
230
1
100
AcDbArc
50
90.000000000000398
51
173.14150183838575
0
LINE
5
104
100
AcDbEntity
8
0
100
AcDbLine
10
67.175725808447211
20
7.3700000000000001
30
-4.4223448908297837e-51
11
68.011021900865472
21
7.3699999999999903
31
0
0
ARC
5
105
100
AcDbEntity
8
0
100
AcDbCircle
10
58.448894148527458
20
6.4196494353488101
30
0
40
6.7897300730856278
210
0
220
-0
230
1
100
AcDbArc
50
90
51
353.14150183838609
0
ARC
5
106
100
AcDbEntity
8
0
100
AcDbCircle
10
60.507759517740467
20
20.852123108769732
30
0
40
3.0000000000000022
210
1.1653370592299811e-32
220
4.015972829922887e-33
230
1
100
AcDbArc
50
19.014923888704381
51
90
0
ARC
5
107
100
AcDbEntity
8
0
100
AcDbCircle
10
40.137117042028777
20
26.852123108769746
30
0
40
2.9999999999999982
210
0
220
0
230
1
100
AcDbArc
50
180
51
270
0
LINE
5
108
100
AcDbEntity
8
0
100
AcDbLine
10
37.137117042028784
20
26.852123108769746
30
0
11
37.137117042028777
21
29.377981252356768
31
0
0
LINE
5
109
100
AcDbEntity
8
0
100
AcDbLine
10
60.507759517740467
20
23.852123108769735
30
-1.204791848976867e-32
11
40.137117042028777
21
23.852123108769749
31
0
0
LINE
5
110
100
AcDbEntity
8
0
100
AcDbLine
10
15.861722168706404
20
29.377981252356768
30
0
11
15.861722168706404
21
26.852123108769756
31
0
0
ARC
5
111
100
AcDbEntity
8
0
100
AcDbCircle
10
12.861722168706407
20
26.852123108769756
30
0
40
2.9999999999999982
210
0
220
0
230
1
100
AcDbArc
50
-90
51
0
0
ARC
5
112
100
AcDbEntity
8
0
100
AcDbCircle
10
-44.993689625320563
20
20.852123108769746
30
0
40
3.0000000000000071
210
0
220
-0
230
1
100
AcDbArc
50
90
51
148.63089126461102
0
LINE
5
113
100
AcDbEntity
8
0
100
AcDbLine
10
12.861722168706407
20
23.85212310876976
30
0
11
-44.993689625320563
21
23.852123108769753
31
0
0
ARC
5
114
100
AcDbEntity
8
0
100
AcDbCircle
10
-44.993694223450198
20
-20.887876891228355
30
0
40
2.9999999999999813
210
4.6713645710646351e-32
220
-2.9264602902881654e-32
230
1
100
AcDbArc
50
211.36912291767274
51
269.99999999998391
0
LINE
5
115
100
AcDbEntity
8
0
100
AcDbLine
10
-44.993694223451044
20
-23.887876891228341
30
-8.7793808708604987e-32
11
-37.775025818514322
21
-23.88787689123038
31
0
0
ARC
5
116
100
AcDbEntity
8
0
100
AcDbCircle
10
-28.858106189491195
20
-20.898626901899071
30
0
40
5.9169261089891361
210
5.943936733075894e-35
220
-4.9303770747034338e-32
230
1
100
AcDbArc
50
0.069074295603419794
51
179.93092570436491
0
ARC
5
117
100
AcDbEntity
8
0
100
AcDbCircle
10
-19.941186560468921
20
-20.887876891235436
30
0
40
2.9999999999999938
210
-1.7863112657623475e-47
220
-2.1535312590468652e-50
230
1
100
AcDbArc
50
180.06907429560343
51
269.99999999998369
0
LINE
5
118
100
AcDbEntity
8
0
100
AcDbLine
10
-19.941186560469774
20
-23.887876891235429
30
0
11
34.682760984697396
21
-23.887876891250897
31
0
0
ARC
5
119
100
AcDbEntity
8
0
100
AcDbCircle
10
34.682760984696543
20
-26.887876891250897
30
0
40
2.9999999999999982
210
1.8667902639137596e-33
220
5.5091712378121741e-32
230
1
100
AcDbArc
50
24.624318352147696
51
89.999999999983714
0
ARC
5
120
100
AcDbEntity
8
0
100
AcDbCircle
10
40.137117042015127
20
-24.387876891252454
30
0
40
3.0000000000000182
210
-4.2953295744148981e-32
220
3.4548459638004123e-32
230
1
100
AcDbArc
50
204.62431835214761
51
269.99999999998357
0
ARC
5
121
100
AcDbEntity
8
0
100
AcDbCircle
10
-37.77502581851347
20
-20.887876891230391
30
0
40
2.9999999999999893
210
0
220
0
230
1
100
AcDbArc
50
269.99999999998369
51
359.93092570436488
0
ENDSEC
0
SECTION
2
OBJECTS
0
DICTIONARY
5
C
100
AcDbDictionary
3
ACAD_GROUP
350
D
3
ACAD_MLINESTYLE
350
17
0
DICTIONARY
5
D
100
AcDbDictionary
0
DICTIONARY
5
1A
330
C
100
AcDbDictionary
0
DICTIONARY
5
17
100
AcDbDictionary
0
ENDSEC
0
EOF
