0
SECTION
2
HEADER
9
$INSUNITS
70
4
9
$ACADVER
1
AC1014
9
$HANDSEED
5
FFFF
0
ENDSEC
0
SECTION
2
TABLES
0
TABLE
2
VPORT
5
8
100
AcDbSymbolTable
0
ENDTAB
0
TABLE
2
LTYPE
5
5
100
AcDbSymbolTable
0
LTYPE
5
14
100
AcDbSymbolTableRecord
100
AcDbLinetypeTableRecord
2
BYBLOCK
70
0
0
LTYPE
5
15
100
AcDbSymbolTableRecord
100
AcDbLinetypeTableRecord
2
BYLAYER
70
0
0
ENDTAB
0
TABLE
2
LAYER
5
2
100
AcDbSymbolTable
70
2
0
LAYER
5
50
100
AcDbSymbolTableRecord
100
AcDbLayerTableRecord
2
0
70
0
6
CONTINUOUS
0
ENDTAB
0
TABLE
2
STYLE
5
3
100
AcDbSymbolTable
70
1
0
STYLE
5
11
100
AcDbSymbolTableRecord
100
AcDbTextStyleTableRecord
2
STANDARD
70
0
0
ENDTAB
0
TABLE
2
VIEW
5
6
100
AcDbSymbolTable
70
0
0
ENDTAB
0
TABLE
2
UCS
5
7
100
AcDbSymbolTable
70
0
0
ENDTAB
0
TABLE
2
APPID
5
9
100
AcDbSymbolTable
70
2
0
APPID
5
12
100
AcDbSymbolTableRecord
100
AcDbRegAppTableRecord
2
ACAD
70
0
0
ENDTAB
0
TABLE
2
DIMSTYLE
5
A
100
AcDbSymbolTable
70
1
0
ENDTAB
0
TABLE
2
BLOCK_RECORD
5
1
100
AcDbSymbolTable
70
1
0
BLOCK_RECORD
5
1F
100
AcDbSymbolTableRecord
100
AcDbBlockTableRecord
2
*MODEL_SPACE
0
BLOCK_RECORD
5
1B
100
AcDbSymbolTableRecord
100
AcDbBlockTableRecord
2
*PAPER_SPACE
0
ENDTAB
0
ENDSEC
0
SECTION
2
BLOCKS
0
BLOCK
5
20
100
AcDbEntity
100
AcDbBlockBegin
2
*MODEL_SPACE
0
ENDBLK
5
21
100
AcDbEntity
100
AcDbBlockEnd
0
BLOCK
5
1C
100
AcDbEntity
100
AcDbBlockBegin
2
*PAPER_SPACE
0
ENDBLK
5
1D
100
AcDbEntity
100
AcDbBlockEnd
0
ENDSEC
0
SECTION
2
ENTITIES
0
LWPOLYLINE
5
100
100
AcDbEntity
8
0
100
AcDbPolyline
90
28
70
1
43
0.0
10
-10.196479783199443
20
8.3297178838896802
10
-10.125769105080789
20
8.4004285620083348
10
-9.3833069848349133
20
8.2943625448303528
10
-8.2943625418076312
20
9.3833069878576385
10
-8.4004285589856131
20
10.125769108103512
10
-8.3297178808669585
20
10.19647978622217
10
-7.5872557606210833
20
10.090413769044186
10
-6.4983113175938003
20
11.179358212071474
10
-6.604377334771784
20
11.921820332317349
10
-6.5690219957124549
20
11.957175671376676
10
-7.5165450825024296
20
12.904698758166653
10
-7.5519004215617569
20
12.869343419107327
10
-8.2943625418076312
20
12.975409436285306
10
-9.3833069848349151
20
11.886464993258024
10
-9.2772409676569332
20
11.144002873012147
10
-9.3479516457755878
20
11.07329219489349
10
-10.090413766021463
20
11.179358212071474
10
-11.179358209048743
20
10.090413769044186
10
-11.073292191870765
20
9.3479516487983094
10
-11.144002869989418
20
9.2772409706796548
10
-11.886464990235293
20
9.3833069878576367
10
-12.975409433262575
20
8.2943625448303511
10
-12.869343416084595
20
7.5519004245844767
10
-12.904698755143919
20
7.5165450855251486
10
-11.957175668353946
20
6.569021998735173
10
-11.921820329294622
20
6.6043773377945003
10
-11.179358209048743
20
6.4983113206165175
10
-10.090413766021463
20
7.5872557636438032
0
LWPOLYLINE
5
101
100
AcDbEntity
8
0
100
AcDbPolyline
90
14
70
1
43
0.0
10
-3.2789484094198724
20
3.7214087316216493
10
-1.9252617272088892
20
5.0750954138326341
10
-1.9252617272088894
20
5.517364186135528
10
-3.3008796707088712
20
6.8929821296355112
10
-3.699477459833675
20
6.8929821296355112
10
-5.1022939981200093
20
5.4901655913491734
10
-5.1022939981200066
20
5.1022940086189887
10
-5.4901655808501921
20
5.1022940086189887
10
-6.8983452223338375
20
3.6941143671353407
10
-6.8983452223338375
20
3.3062427844051534
10
-5.5227272788338553
20
1.9306248409051707
10
-5.0697323001363443
20
1.9306248409051709
10
-3.7214087211226694
20
3.2789484199188497
10
-3.7214087211226694
20
3.7214087316216489
0
LWPOLYLINE
5
102
100
AcDbEntity
8
0
100
AcDbPolyline
90
28
70
1
43
0.0
10
11.179358212071476
20
6.4983113175937977
10
11.921820332317353
20
6.6043773347717813
10
11.957175671376678
20
6.5690219957124532
10
12.904698758166655
20
7.516545082502426
10
12.869343419107329
20
7.5519004215617533
10
12.975409436285307
20
8.2943625418076277
10
11.886464993258025
20
9.3833069848349133
10
11.144002873012148
20
9.2772409676569296
10
11.073292194893492
20
9.3479516457755842
10
11.179358212071476
20
10.090413766021459
10
10.090413769044188
20
11.179358209048742
10
9.3479516487983112
20
11.073292191870763
10
9.2772409706796584
20
11.144002869989416
10
9.3833069878576385
20
11.886464990235289
10
8.2943625448303546
20
12.975409433262573
10
7.5519004245844803
20
12.869343416084593
10
7.5165450855251512
20
12.904698755143917
10
6.5690219987351748
20
11.957175668353944
10
6.604377337794503
20
11.921820329294619
10
6.4983113206165202
20
11.179358209048742
10
7.5872557636438049
20
10.090413766021459
10
8.3297178838896819
20
10.196479783199441
10
8.4004285620083365
20
10.125769105080787
10
8.2943625448303546
20
9.3833069848349115
10
9.3833069878576403
20
8.2943625418076277
10
10.125769108103515
20
8.4004285589856114
10
10.196479786222172
20
8.329717880866955
10
10.090413769044188
20
7.5872557606210815
0
LWPOLYLINE
5
103
100
AcDbEntity
8
0
100
AcDbPolyline
90
28
70
1
43
0.0
10
6.6043773347717831
20
-11.921820332317349
10
6.569021995712454
20
-11.957175671376676
10
7.5165450825024287
20
-12.904698758166653
10
7.551900421561756
20
-12.869343419107327
10
8.2943625418076312
20
-12.975409436285306
10
9.3833069848349133
20
-11.886464993258025
10
9.2772409676569314
20
-11.144002873012148
10
9.347951645775586
20
-11.073292194893492
10
10.090413766021459
20
-11.179358212071476
10
11.179358209048742
20
-10.090413769044188
10
11.073292191870763
20
-9.3479516487983112
10
11.144002869989416
20
-9.2772409706796566
10
11.886464990235289
20
-9.3833069878576385
10
12.975409433262575
20
-8.2943625448303528
10
12.869343416084595
20
-7.5519004245844776
10
12.904698755143919
20
-7.5165450855251494
10
11.957175668353946
20
-6.5690219987351739
10
11.921820329294622
20
-6.6043773377945012
10
11.179358209048743
20
-6.4983113206165193
10
10.090413766021463
20
-7.5872557636438041
10
10.196479783199443
20
-8.3297178838896819
10
10.125769105080789
20
-8.4004285620083365
10
9.3833069848349133
20
-8.2943625448303528
10
8.2943625418076294
20
-9.3833069878576385
10
8.4004285589856114
20
-10.125769108103512
10
8.3297178808669567
20
-10.19647978622217
10
7.5872557606210824
20
-10.090413769044186
10
6.4983113175937994
20
-11.179358212071474
0
LWPOLYLINE
5
104
100
AcDbEntity
8
0
100
AcDbPolyline
90
14
70
1
43
0.0
10
3.7214087211226685
20
-3.7214087316216493
10
3.278948409419872
20
-3.7214087316216498
10
1.9252617272088888
20
-5.0750954138326341
10
1.925261727208889
20
-5.517364186135528
10
3.3008796707088699
20
-6.8929821296355112
10
3.6994774598336737
20
-6.8929821296355112
10
5.1022939981200075
20
-5.4901655913491743
10
5.1022939981200057
20
-5.1022940086189896
10
5.4901655808501912
20
-5.1022940086189896
10
6.8983452223338375
20
-3.6941143671353416
10
6.8983452223338375
20
-3.3062427844051543
10
5.5227272788338553
20
-1.9306248409051712
10
5.0697323001363443
20
-1.9306248409051716
10
3.7214087211226685
20
-3.2789484199188501
0
LWPOLYLINE
5
105
100
AcDbEntity
8
0
100
AcDbPolyline
90
28
70
1
43
0.0
10
-8.3297178838896819
20
-10.196479783199441
10
-8.4004285620083365
20
-10.125769105080787
10
-8.2943625448303546
20
-9.3833069848349115
10
-9.3833069878576403
20
-8.2943625418076277
10
-10.125769108103515
20
-8.4004285589856114
10
-10.196479786222172
20
-8.329717880866955
10
-10.090413769044188
20
-7.5872557606210815
10
-11.179358212071476
20
-6.4983113175937977
10
-11.921820332317353
20
-6.6043773347717813
10
-11.957175671376678
20
-6.5690219957124532
10
-12.904698758166655
20
-7.516545082502426
10
-12.869343419107329
20
-7.5519004215617533
10
-12.975409436285307
20
-8.2943625418076277
10
-11.886464993258025
20
-9.3833069848349133
10
-11.144002873012148
20
-9.2772409676569296
10
-11.073292194893492
20
-9.3479516457755842
10
-11.179358212071476
20
-10.090413766021459
10
-10.090413769044188
20
-11.179358209048742
10
-9.3479516487983112
20
-11.073292191870763
10
-9.2772409706796584
20
-11.144002869989416
10
-9.3833069878576385
20
-11.886464990235289
10
-8.2943625448303546
20
-12.975409433262573
10
-7.5519004245844803
20
-12.869343416084593
10
-7.5165450855251512
20
-12.904698755143917
10
-6.5690219987351748
20
-11.957175668353944
10
-6.604377337794503
20
-11.921820329294619
10
-6.4983113206165202
20
-11.179358209048742
10
-7.5872557636438049
20
-10.090413766021459
0
LWPOLYLINE
5
106
100
AcDbEntity
8
0
100
AcDbPolyline
90
72
70
1
43
0.0
10
8.8134646065508964
20
0.89999999999666225
10
5.5045201966793478
20
0.9000000000015268
42
-0.19891236683882249
10
3.3831998575333166
20
1.7786796520290977
10
1.7786796608545583
20
3.3831998420298652
42
-0.19891236791973937
10
0.90000000000139468
20
5.5045201899990106
10
0.89999999999974878
20
8.8134645980103663
42
-0.66817850662856837
10
2.2315430890780257
20
9.3650080875862525
10
3.7653442263181813
20
7.8312080640986137
42
0.41421345602783255
10
4.1896082180102319
20
7.8312081411213219
10
4.6845824253618726
20
8.3261823484716544
42
0.41421356237309476
10
4.684582425360718
20
9.457553198371162
10
1.41421356237345
20
12.727922061357528
42
0.4142135623730947
10
-1.4142135623722782
20
12.727922061356427
10
-4.6845824253618105
20
9.4575531983691068
42
0.41421356237309492
10
-4.6845824253606549
20
8.3261823484695974
10
-4.1896082180108234
20
7.8312081411206709
42
0.41421345684919031
10
-3.7653442257299874
20
7.8312080646905908
10
-2.2315430906105242
20
9.3650080945884664
42
-0.66817850763451392
10
-0.89999999999985381
20
8.8134646065508662
10
-0.89999999999930025
20
5.5045201966809216
42
-0.19891236683932176
10
-1.7786796520221413
20
3.3831998575359989
10
-3.3831998420273313
20
1.7786796608520139
42
-0.19891236791962419
10
-5.5045201899989893
20
0.90000000000102498
10
-8.8134645980103432
20
0.8999999999966668
42
-0.66817850662738576
10
-9.3650080875785431
20
2.2315430890735204
10
-7.8312080641002
20
3.7653442263197556
42
0.41421345603227605
10
-7.8312081411205963
20
4.1896082180109016
10
-8.3261823484700237
20
4.6845824253602304
42
0.41421356237725743
10
-9.4575531983730965
20
4.6845824253626427
10
-12.727922061359113
20
1.4142135623718066
42
0.41421356237309515
10
-12.727922061359267
20
-1.4142135623751761
10
-9.4575531983706931
20
-4.6845824253602366
42
0.41421356237142998
10
-8.3261823484731465
20
-4.6845824253603396
10
-7.8312081411206513
20
-4.1896082180108589
42
0.41421345684474831
10
-7.8312080646912747
20
-3.7653442257242977
10
-9.3650080945900509
20
-2.23154309060895
42
-0.66817850763600595
10
-8.8134646065492355
20
-0.89999999999827929
10
-5.5045201966792936
20
-0.89999999999959279
42
-0.19891236683828895
10
-3.3831998575355771
20
-1.7786796520249881
10
-1.7786796608552111
20
-3.383199842027365
42
-0.19891236792007572
10
-0.89999999999939795
20
-5.5045201900022365
10
-0.89999999999986247
20
-8.8134645980087694
42
-0.66817850662602318
10
-2.2315430890735004
20
-9.3650080875817938
10
-3.7653442263181276
20
-7.8312080641018413
42
0.41421345603227139
10
-4.189608218011788
20
-7.8312081411197267
10
-4.6845824253618211
20
-8.3261823484716668
42
0.41421356237808937
10
-4.6845824253617216
20
-9.4575531983690144
10
-1.4142135623733973
20
-12.727922061357543
42
0.4142135623730947
10
1.4142135623719778
20
-12.727922061359298
10
4.6845824253602526
20
-9.4575531983707233
42
0.41421356237309453
10
4.6845824253607056
20
-8.3261823484728232
10
4.1896082180108758
20
-7.8312081411206824
42
0.41421345684918837
10
3.7653442257296903
20
-7.8312080646902524
10
2.2315430906102236
20
-9.3650080945881253
42
-0.66817850763196807
10
0.89999999999813007
20
-8.8134646065508768
10
0.90000000000222991
20
-5.5045201966825434
42
-0.19891236683918259
10
1.7786796520261119
20
-3.3831998575367135
10
3.3831998420251201
20
-1.7786796608561948
42
-0.19891236792164166
10
5.5045201900022551
20
-0.90000000000128089
10
8.8134645980103947
20
-0.90000000000150182
42
-0.66817850662496858
10
9.3650080875850268
20
-2.2315430890735315
10
7.8312080641002524
20
-3.7653442263165515
42
0.41421345603227372
10
7.8312081411197436
20
-4.1896082180118182
10
8.3261823484716846
20
-4.6845824253618495
42
0.41421356237392626
10
9.4575531983670693
20
-4.6845824253597899
10
12.727922061357557
20
-1.4142135623734271
42
0.41421356237309587
10
12.727922061356454
20
1.4142135623723013
10
9.4575531983691352
20
4.6845824253618336
42
0.41421356236726725
10
8.3261823484738997
20
4.6845824253596229
10
7.8312081411207037
20
4.1896082180108474
42
0.41421345686694933
10
7.8312080646927846
20
3.7653442257257419
10
9.365008094586889
20
2.2315430906121558
42
-0.66817850763916742
0
CIRCLE
5
107
100
AcDbEntity
8
0
100
AcDbCircle
10
2.5624186820566853e-14
20
-5.3883321212084372e-15
30
0
40
2.1500000000003179
210
0
220
0
230
1
0
ENDSEC
0
SECTION
2
OBJECTS
0
DICTIONARY
5
C
100
AcDbDictionary
3
ACAD_GROUP
350
D
3
ACAD_MLINESTYLE
350
17
0
DICTIONARY
5
D
100
AcDbDictionary
0
DICTIONARY
5
1A
330
C
100
AcDbDictionary
0
DICTIONARY
5
17
100
AcDbDictionary
0
ENDSEC
0
EOF
