%TF.GenerationSoftware,KiCad,Pcbnew,(6.0.4-0)*%
%TF.CreationDate,2022-05-05T16:48:01+02:00*%
%TF.ProjectId,GlowTower_LED_connector_PCB,476c6f77-546f-4776-9572-5f4c45445f63,rev?*%
%TF.SameCoordinates,Original*%
%TF.FileFunction,Legend,Top*%
%TF.FilePolarity,Positive*%
%FSLAX46Y46*%
G04 Gerber Fmt 4.6, Leading zero omitted, Abs format (unit mm)*
G04 Created by KiCad (PCBNEW (6.0.4-0)) date 2022-05-05 16:48:01*
%MOMM*%
%LPD*%
G01*
G04 APERTURE LIST*
%ADD10C,0.150000*%
%ADD11C,0.400000*%
%ADD12C,0.010000*%
%ADD13C,0.254001*%
G04 APERTURE END LIST*
D10*
X109237976Y-77873904D02*
X109237976Y-77073904D01*
X109542738Y-77073904D01*
X109618928Y-77112000D01*
X109657023Y-77150095D01*
X109695119Y-77226285D01*
X109695119Y-77340571D01*
X109657023Y-77416761D01*
X109618928Y-77454857D01*
X109542738Y-77492952D01*
X109237976Y-77492952D01*
X110495119Y-77797714D02*
X110457023Y-77835809D01*
X110342738Y-77873904D01*
X110266547Y-77873904D01*
X110152261Y-77835809D01*
X110076071Y-77759619D01*
X110037976Y-77683428D01*
X109999880Y-77531047D01*
X109999880Y-77416761D01*
X110037976Y-77264380D01*
X110076071Y-77188190D01*
X110152261Y-77112000D01*
X110266547Y-77073904D01*
X110342738Y-77073904D01*
X110457023Y-77112000D01*
X110495119Y-77150095D01*
X111104642Y-77454857D02*
X111218928Y-77492952D01*
X111257023Y-77531047D01*
X111295119Y-77607238D01*
X111295119Y-77721523D01*
X111257023Y-77797714D01*
X111218928Y-77835809D01*
X111142738Y-77873904D01*
X110837976Y-77873904D01*
X110837976Y-77073904D01*
X111104642Y-77073904D01*
X111180833Y-77112000D01*
X111218928Y-77150095D01*
X111257023Y-77226285D01*
X111257023Y-77302476D01*
X111218928Y-77378666D01*
X111180833Y-77416761D01*
X111104642Y-77454857D01*
X110837976Y-77454857D01*
X112133214Y-77340571D02*
X112437976Y-77340571D01*
X112247500Y-77873904D02*
X112247500Y-77188190D01*
X112285595Y-77112000D01*
X112361785Y-77073904D01*
X112437976Y-77073904D01*
X112704642Y-77873904D02*
X112704642Y-77340571D01*
X112704642Y-77073904D02*
X112666547Y-77112000D01*
X112704642Y-77150095D01*
X112742738Y-77112000D01*
X112704642Y-77073904D01*
X112704642Y-77150095D01*
X113199880Y-77873904D02*
X113123690Y-77835809D01*
X113085595Y-77759619D01*
X113085595Y-77073904D01*
X113809404Y-77835809D02*
X113733214Y-77873904D01*
X113580833Y-77873904D01*
X113504642Y-77835809D01*
X113466547Y-77759619D01*
X113466547Y-77454857D01*
X113504642Y-77378666D01*
X113580833Y-77340571D01*
X113733214Y-77340571D01*
X113809404Y-77378666D01*
X113847500Y-77454857D01*
X113847500Y-77531047D01*
X113466547Y-77607238D01*
X114152261Y-77835809D02*
X114228452Y-77873904D01*
X114380833Y-77873904D01*
X114457023Y-77835809D01*
X114495119Y-77759619D01*
X114495119Y-77721523D01*
X114457023Y-77645333D01*
X114380833Y-77607238D01*
X114266547Y-77607238D01*
X114190357Y-77569142D01*
X114152261Y-77492952D01*
X114152261Y-77454857D01*
X114190357Y-77378666D01*
X114266547Y-77340571D01*
X114380833Y-77340571D01*
X114457023Y-77378666D01*
X114837976Y-77797714D02*
X114876071Y-77835809D01*
X114837976Y-77873904D01*
X114799880Y-77835809D01*
X114837976Y-77797714D01*
X114837976Y-77873904D01*
X114837976Y-77378666D02*
X114876071Y-77416761D01*
X114837976Y-77454857D01*
X114799880Y-77416761D01*
X114837976Y-77378666D01*
X114837976Y-77454857D01*
X109237976Y-79161904D02*
X109237976Y-78361904D01*
X109580833Y-79161904D02*
X109580833Y-78742857D01*
X109542738Y-78666666D01*
X109466547Y-78628571D01*
X109352261Y-78628571D01*
X109276071Y-78666666D01*
X109237976Y-78704761D01*
X109847500Y-78628571D02*
X110152261Y-78628571D01*
X109961785Y-78361904D02*
X109961785Y-79047619D01*
X109999880Y-79123809D01*
X110076071Y-79161904D01*
X110152261Y-79161904D01*
X110304642Y-78628571D02*
X110609404Y-78628571D01*
X110418928Y-78361904D02*
X110418928Y-79047619D01*
X110457023Y-79123809D01*
X110533214Y-79161904D01*
X110609404Y-79161904D01*
X110876071Y-78628571D02*
X110876071Y-79428571D01*
X110876071Y-78666666D02*
X110952261Y-78628571D01*
X111104642Y-78628571D01*
X111180833Y-78666666D01*
X111218928Y-78704761D01*
X111257023Y-78780952D01*
X111257023Y-79009523D01*
X111218928Y-79085714D01*
X111180833Y-79123809D01*
X111104642Y-79161904D01*
X110952261Y-79161904D01*
X110876071Y-79123809D01*
X111561785Y-79123809D02*
X111637976Y-79161904D01*
X111790357Y-79161904D01*
X111866547Y-79123809D01*
X111904642Y-79047619D01*
X111904642Y-79009523D01*
X111866547Y-78933333D01*
X111790357Y-78895238D01*
X111676071Y-78895238D01*
X111599880Y-78857142D01*
X111561785Y-78780952D01*
X111561785Y-78742857D01*
X111599880Y-78666666D01*
X111676071Y-78628571D01*
X111790357Y-78628571D01*
X111866547Y-78666666D01*
X112247500Y-79085714D02*
X112285595Y-79123809D01*
X112247500Y-79161904D01*
X112209404Y-79123809D01*
X112247500Y-79085714D01*
X112247500Y-79161904D01*
X112247500Y-78666666D02*
X112285595Y-78704761D01*
X112247500Y-78742857D01*
X112209404Y-78704761D01*
X112247500Y-78666666D01*
X112247500Y-78742857D01*
X113199880Y-78323809D02*
X112514166Y-79352380D01*
X114037976Y-78323809D02*
X113352261Y-79352380D01*
X114304642Y-79161904D02*
X114304642Y-78361904D01*
X114304642Y-78666666D02*
X114380833Y-78628571D01*
X114533214Y-78628571D01*
X114609404Y-78666666D01*
X114647500Y-78704761D01*
X114685595Y-78780952D01*
X114685595Y-79009523D01*
X114647500Y-79085714D01*
X114609404Y-79123809D01*
X114533214Y-79161904D01*
X114380833Y-79161904D01*
X114304642Y-79123809D01*
X115028452Y-79161904D02*
X115028452Y-78628571D01*
X115028452Y-78361904D02*
X114990357Y-78400000D01*
X115028452Y-78438095D01*
X115066547Y-78400000D01*
X115028452Y-78361904D01*
X115028452Y-78438095D01*
X115295119Y-78628571D02*
X115599880Y-78628571D01*
X115409404Y-78361904D02*
X115409404Y-79047619D01*
X115447500Y-79123809D01*
X115523690Y-79161904D01*
X115599880Y-79161904D01*
X115866547Y-79085714D02*
X115904642Y-79123809D01*
X115866547Y-79161904D01*
X115828452Y-79123809D01*
X115866547Y-79085714D01*
X115866547Y-79161904D01*
X116361785Y-79161904D02*
X116285595Y-79123809D01*
X116247500Y-79047619D01*
X116247500Y-78361904D01*
X116590357Y-78628571D02*
X116780833Y-79161904D01*
X116971309Y-78628571D02*
X116780833Y-79161904D01*
X116704642Y-79352380D01*
X116666547Y-79390476D01*
X116590357Y-79428571D01*
X117847500Y-78323809D02*
X117161785Y-79352380D01*
X109161785Y-79649904D02*
X109657023Y-79649904D01*
X109390357Y-79954666D01*
X109504642Y-79954666D01*
X109580833Y-79992761D01*
X109618928Y-80030857D01*
X109657023Y-80107047D01*
X109657023Y-80297523D01*
X109618928Y-80373714D01*
X109580833Y-80411809D01*
X109504642Y-80449904D01*
X109276071Y-80449904D01*
X109199880Y-80411809D01*
X109161785Y-80373714D01*
X109923690Y-79916571D02*
X110114166Y-80449904D01*
X110304642Y-79916571D01*
X110990357Y-80449904D02*
X110609404Y-80449904D01*
X110609404Y-79649904D01*
X111561785Y-80411809D02*
X111485595Y-80449904D01*
X111333214Y-80449904D01*
X111257023Y-80411809D01*
X111218928Y-80335619D01*
X111218928Y-80030857D01*
X111257023Y-79954666D01*
X111333214Y-79916571D01*
X111485595Y-79916571D01*
X111561785Y-79954666D01*
X111599880Y-80030857D01*
X111599880Y-80107047D01*
X111218928Y-80183238D01*
X111942738Y-80449904D02*
X111942738Y-79649904D01*
X111942738Y-79954666D02*
X112018928Y-79916571D01*
X112171309Y-79916571D01*
X112247500Y-79954666D01*
X112285595Y-79992761D01*
X112323690Y-80068952D01*
X112323690Y-80297523D01*
X112285595Y-80373714D01*
X112247500Y-80411809D01*
X112171309Y-80449904D01*
X112018928Y-80449904D01*
X111942738Y-80411809D01*
X112628452Y-79726095D02*
X112666547Y-79688000D01*
X112742738Y-79649904D01*
X112933214Y-79649904D01*
X113009404Y-79688000D01*
X113047500Y-79726095D01*
X113085595Y-79802285D01*
X113085595Y-79878476D01*
X113047500Y-79992761D01*
X112590357Y-80449904D01*
X113085595Y-80449904D01*
X113352261Y-79649904D02*
X113847500Y-79649904D01*
X113580833Y-79954666D01*
X113695119Y-79954666D01*
X113771309Y-79992761D01*
X113809404Y-80030857D01*
X113847500Y-80107047D01*
X113847500Y-80297523D01*
X113809404Y-80373714D01*
X113771309Y-80411809D01*
X113695119Y-80449904D01*
X113466547Y-80449904D01*
X113390357Y-80411809D01*
X113352261Y-80373714D01*
D11*
X93744761Y-57297500D02*
X93506666Y-57178452D01*
X93149523Y-57178452D01*
X92792380Y-57297500D01*
X92554285Y-57535595D01*
X92435238Y-57773690D01*
X92316190Y-58249880D01*
X92316190Y-58607023D01*
X92435238Y-59083214D01*
X92554285Y-59321309D01*
X92792380Y-59559404D01*
X93149523Y-59678452D01*
X93387619Y-59678452D01*
X93744761Y-59559404D01*
X93863809Y-59440357D01*
X93863809Y-58607023D01*
X93387619Y-58607023D01*
X95292380Y-59678452D02*
X95054285Y-59559404D01*
X94935238Y-59321309D01*
X94935238Y-57178452D01*
X96601904Y-59678452D02*
X96363809Y-59559404D01*
X96244761Y-59440357D01*
X96125714Y-59202261D01*
X96125714Y-58487976D01*
X96244761Y-58249880D01*
X96363809Y-58130833D01*
X96601904Y-58011785D01*
X96959047Y-58011785D01*
X97197142Y-58130833D01*
X97316190Y-58249880D01*
X97435238Y-58487976D01*
X97435238Y-59202261D01*
X97316190Y-59440357D01*
X97197142Y-59559404D01*
X96959047Y-59678452D01*
X96601904Y-59678452D01*
X98268571Y-58011785D02*
X98744761Y-59678452D01*
X99220952Y-58487976D01*
X99697142Y-59678452D01*
X100173333Y-58011785D01*
X100768571Y-57178452D02*
X102197142Y-57178452D01*
X101482857Y-59678452D02*
X101482857Y-57178452D01*
X103387619Y-59678452D02*
X103149523Y-59559404D01*
X103030476Y-59440357D01*
X102911428Y-59202261D01*
X102911428Y-58487976D01*
X103030476Y-58249880D01*
X103149523Y-58130833D01*
X103387619Y-58011785D01*
X103744761Y-58011785D01*
X103982857Y-58130833D01*
X104101904Y-58249880D01*
X104220952Y-58487976D01*
X104220952Y-59202261D01*
X104101904Y-59440357D01*
X103982857Y-59559404D01*
X103744761Y-59678452D01*
X103387619Y-59678452D01*
X105054285Y-58011785D02*
X105530476Y-59678452D01*
X106006666Y-58487976D01*
X106482857Y-59678452D01*
X106959047Y-58011785D01*
X108863809Y-59559404D02*
X108625714Y-59678452D01*
X108149523Y-59678452D01*
X107911428Y-59559404D01*
X107792380Y-59321309D01*
X107792380Y-58368928D01*
X107911428Y-58130833D01*
X108149523Y-58011785D01*
X108625714Y-58011785D01*
X108863809Y-58130833D01*
X108982857Y-58368928D01*
X108982857Y-58607023D01*
X107792380Y-58845119D01*
X110054285Y-59678452D02*
X110054285Y-58011785D01*
X110054285Y-58487976D02*
X110173333Y-58249880D01*
X110292380Y-58130833D01*
X110530476Y-58011785D01*
X110768571Y-58011785D01*
X94220952Y-61084404D02*
X92078095Y-64298690D01*
X96363809Y-61322500D02*
X96125714Y-61203452D01*
X95768571Y-61203452D01*
X95411428Y-61322500D01*
X95173333Y-61560595D01*
X95054285Y-61798690D01*
X94935238Y-62274880D01*
X94935238Y-62632023D01*
X95054285Y-63108214D01*
X95173333Y-63346309D01*
X95411428Y-63584404D01*
X95768571Y-63703452D01*
X96006666Y-63703452D01*
X96363809Y-63584404D01*
X96482857Y-63465357D01*
X96482857Y-62632023D01*
X96006666Y-62632023D01*
X97911428Y-63703452D02*
X97673333Y-63584404D01*
X97554285Y-63346309D01*
X97554285Y-61203452D01*
X99220952Y-63703452D02*
X98982857Y-63584404D01*
X98863809Y-63465357D01*
X98744761Y-63227261D01*
X98744761Y-62512976D01*
X98863809Y-62274880D01*
X98982857Y-62155833D01*
X99220952Y-62036785D01*
X99578095Y-62036785D01*
X99816190Y-62155833D01*
X99935238Y-62274880D01*
X100054285Y-62512976D01*
X100054285Y-63227261D01*
X99935238Y-63465357D01*
X99816190Y-63584404D01*
X99578095Y-63703452D01*
X99220952Y-63703452D01*
X100887619Y-62036785D02*
X101363809Y-63703452D01*
X101840000Y-62512976D01*
X102316190Y-63703452D01*
X102792380Y-62036785D01*
X104935238Y-63703452D02*
X103744761Y-63703452D01*
X103744761Y-61203452D01*
X105768571Y-63703452D02*
X105768571Y-62036785D01*
X105768571Y-61203452D02*
X105649523Y-61322500D01*
X105768571Y-61441547D01*
X105887619Y-61322500D01*
X105768571Y-61203452D01*
X105768571Y-61441547D01*
X108030476Y-62036785D02*
X108030476Y-64060595D01*
X107911428Y-64298690D01*
X107792380Y-64417738D01*
X107554285Y-64536785D01*
X107197142Y-64536785D01*
X106959047Y-64417738D01*
X108030476Y-63584404D02*
X107792380Y-63703452D01*
X107316190Y-63703452D01*
X107078095Y-63584404D01*
X106959047Y-63465357D01*
X106840000Y-63227261D01*
X106840000Y-62512976D01*
X106959047Y-62274880D01*
X107078095Y-62155833D01*
X107316190Y-62036785D01*
X107792380Y-62036785D01*
X108030476Y-62155833D01*
X109220952Y-63703452D02*
X109220952Y-61203452D01*
X110292380Y-63703452D02*
X110292380Y-62393928D01*
X110173333Y-62155833D01*
X109935238Y-62036785D01*
X109578095Y-62036785D01*
X109340000Y-62155833D01*
X109220952Y-62274880D01*
X111125714Y-62036785D02*
X112078095Y-62036785D01*
X111482857Y-61203452D02*
X111482857Y-63346309D01*
X111601904Y-63584404D01*
X111840000Y-63703452D01*
X112078095Y-63703452D01*
D10*
X92667023Y-66297142D02*
X92619404Y-66344761D01*
X92476547Y-66392380D01*
X92381309Y-66392380D01*
X92238452Y-66344761D01*
X92143214Y-66249523D01*
X92095595Y-66154285D01*
X92047976Y-65963809D01*
X92047976Y-65820952D01*
X92095595Y-65630476D01*
X92143214Y-65535238D01*
X92238452Y-65440000D01*
X92381309Y-65392380D01*
X92476547Y-65392380D01*
X92619404Y-65440000D01*
X92667023Y-65487619D01*
X93238452Y-66392380D02*
X93143214Y-66344761D01*
X93095595Y-66297142D01*
X93047976Y-66201904D01*
X93047976Y-65916190D01*
X93095595Y-65820952D01*
X93143214Y-65773333D01*
X93238452Y-65725714D01*
X93381309Y-65725714D01*
X93476547Y-65773333D01*
X93524166Y-65820952D01*
X93571785Y-65916190D01*
X93571785Y-66201904D01*
X93524166Y-66297142D01*
X93476547Y-66344761D01*
X93381309Y-66392380D01*
X93238452Y-66392380D01*
X94000357Y-65725714D02*
X94000357Y-66392380D01*
X94000357Y-65820952D02*
X94047976Y-65773333D01*
X94143214Y-65725714D01*
X94286071Y-65725714D01*
X94381309Y-65773333D01*
X94428928Y-65868571D01*
X94428928Y-66392380D01*
X94905119Y-65725714D02*
X94905119Y-66392380D01*
X94905119Y-65820952D02*
X94952738Y-65773333D01*
X95047976Y-65725714D01*
X95190833Y-65725714D01*
X95286071Y-65773333D01*
X95333690Y-65868571D01*
X95333690Y-66392380D01*
X96190833Y-66344761D02*
X96095595Y-66392380D01*
X95905119Y-66392380D01*
X95809880Y-66344761D01*
X95762261Y-66249523D01*
X95762261Y-65868571D01*
X95809880Y-65773333D01*
X95905119Y-65725714D01*
X96095595Y-65725714D01*
X96190833Y-65773333D01*
X96238452Y-65868571D01*
X96238452Y-65963809D01*
X95762261Y-66059047D01*
X97095595Y-66344761D02*
X97000357Y-66392380D01*
X96809880Y-66392380D01*
X96714642Y-66344761D01*
X96667023Y-66297142D01*
X96619404Y-66201904D01*
X96619404Y-65916190D01*
X96667023Y-65820952D01*
X96714642Y-65773333D01*
X96809880Y-65725714D01*
X97000357Y-65725714D01*
X97095595Y-65773333D01*
X97381309Y-65725714D02*
X97762261Y-65725714D01*
X97524166Y-65392380D02*
X97524166Y-66249523D01*
X97571785Y-66344761D01*
X97667023Y-66392380D01*
X97762261Y-66392380D01*
X98238452Y-66392380D02*
X98143214Y-66344761D01*
X98095595Y-66297142D01*
X98047976Y-66201904D01*
X98047976Y-65916190D01*
X98095595Y-65820952D01*
X98143214Y-65773333D01*
X98238452Y-65725714D01*
X98381309Y-65725714D01*
X98476547Y-65773333D01*
X98524166Y-65820952D01*
X98571785Y-65916190D01*
X98571785Y-66201904D01*
X98524166Y-66297142D01*
X98476547Y-66344761D01*
X98381309Y-66392380D01*
X98238452Y-66392380D01*
X99000357Y-66392380D02*
X99000357Y-65725714D01*
X99000357Y-65916190D02*
X99047976Y-65820952D01*
X99095595Y-65773333D01*
X99190833Y-65725714D01*
X99286071Y-65725714D01*
X100381309Y-66392380D02*
X100381309Y-65392380D01*
X100762261Y-65392380D01*
X100857500Y-65440000D01*
X100905119Y-65487619D01*
X100952738Y-65582857D01*
X100952738Y-65725714D01*
X100905119Y-65820952D01*
X100857500Y-65868571D01*
X100762261Y-65916190D01*
X100381309Y-65916190D01*
X101952738Y-66297142D02*
X101905119Y-66344761D01*
X101762261Y-66392380D01*
X101667023Y-66392380D01*
X101524166Y-66344761D01*
X101428928Y-66249523D01*
X101381309Y-66154285D01*
X101333690Y-65963809D01*
X101333690Y-65820952D01*
X101381309Y-65630476D01*
X101428928Y-65535238D01*
X101524166Y-65440000D01*
X101667023Y-65392380D01*
X101762261Y-65392380D01*
X101905119Y-65440000D01*
X101952738Y-65487619D01*
X102714642Y-65868571D02*
X102857500Y-65916190D01*
X102905119Y-65963809D01*
X102952738Y-66059047D01*
X102952738Y-66201904D01*
X102905119Y-66297142D01*
X102857500Y-66344761D01*
X102762261Y-66392380D01*
X102381309Y-66392380D01*
X102381309Y-65392380D01*
X102714642Y-65392380D01*
X102809880Y-65440000D01*
X102857500Y-65487619D01*
X102905119Y-65582857D01*
X102905119Y-65678095D01*
X102857500Y-65773333D01*
X102809880Y-65820952D01*
X102714642Y-65868571D01*
X102381309Y-65868571D01*
X104047976Y-65725714D02*
X104286071Y-66392380D01*
X104524166Y-65725714D01*
X105428928Y-66392380D02*
X104857500Y-66392380D01*
X105143214Y-66392380D02*
X105143214Y-65392380D01*
X105047976Y-65535238D01*
X104952738Y-65630476D01*
X104857500Y-65678095D01*
X105857500Y-66297142D02*
X105905119Y-66344761D01*
X105857500Y-66392380D01*
X105809880Y-66344761D01*
X105857500Y-66297142D01*
X105857500Y-66392380D01*
X106524166Y-65392380D02*
X106619404Y-65392380D01*
X106714642Y-65440000D01*
X106762261Y-65487619D01*
X106809880Y-65582857D01*
X106857500Y-65773333D01*
X106857500Y-66011428D01*
X106809880Y-66201904D01*
X106762261Y-66297142D01*
X106714642Y-66344761D01*
X106619404Y-66392380D01*
X106524166Y-66392380D01*
X106428928Y-66344761D01*
X106381309Y-66297142D01*
X106333690Y-66201904D01*
X106286071Y-66011428D01*
X106286071Y-65773333D01*
X106333690Y-65582857D01*
X106381309Y-65487619D01*
X106428928Y-65440000D01*
X106524166Y-65392380D01*
X108047976Y-66392380D02*
X108047976Y-65392380D01*
X108047976Y-65773333D02*
X108143214Y-65725714D01*
X108333690Y-65725714D01*
X108428928Y-65773333D01*
X108476547Y-65820952D01*
X108524166Y-65916190D01*
X108524166Y-66201904D01*
X108476547Y-66297142D01*
X108428928Y-66344761D01*
X108333690Y-66392380D01*
X108143214Y-66392380D01*
X108047976Y-66344761D01*
X109333690Y-66344761D02*
X109238452Y-66392380D01*
X109047976Y-66392380D01*
X108952738Y-66344761D01*
X108905119Y-66249523D01*
X108905119Y-65868571D01*
X108952738Y-65773333D01*
X109047976Y-65725714D01*
X109238452Y-65725714D01*
X109333690Y-65773333D01*
X109381309Y-65868571D01*
X109381309Y-65963809D01*
X108905119Y-66059047D01*
X109667023Y-65725714D02*
X110047976Y-65725714D01*
X109809880Y-65392380D02*
X109809880Y-66249523D01*
X109857500Y-66344761D01*
X109952738Y-66392380D01*
X110047976Y-66392380D01*
X110809880Y-66392380D02*
X110809880Y-65868571D01*
X110762261Y-65773333D01*
X110667023Y-65725714D01*
X110476547Y-65725714D01*
X110381309Y-65773333D01*
X110809880Y-66344761D02*
X110714642Y-66392380D01*
X110476547Y-66392380D01*
X110381309Y-66344761D01*
X110333690Y-66249523D01*
X110333690Y-66154285D01*
X110381309Y-66059047D01*
X110476547Y-66011428D01*
X110714642Y-66011428D01*
X110809880Y-65963809D01*
X112000357Y-65487619D02*
X112047976Y-65440000D01*
X112143214Y-65392380D01*
X112381309Y-65392380D01*
X112476547Y-65440000D01*
X112524166Y-65487619D01*
X112571785Y-65582857D01*
X112571785Y-65678095D01*
X112524166Y-65820952D01*
X111952738Y-66392380D01*
X112571785Y-66392380D01*
%TO.C,OSHW logo*%
G36*
X88173910Y-69072348D02*
G01*
X88252454Y-69072778D01*
X88309298Y-69073942D01*
X88348105Y-69076207D01*
X88372538Y-69079940D01*
X88386262Y-69085506D01*
X88392940Y-69093273D01*
X88396236Y-69103605D01*
X88396556Y-69104943D01*
X88401562Y-69129079D01*
X88410829Y-69176701D01*
X88423392Y-69242741D01*
X88438287Y-69322128D01*
X88454551Y-69409796D01*
X88455119Y-69412875D01*
X88471410Y-69498789D01*
X88486652Y-69574696D01*
X88499861Y-69636045D01*
X88510054Y-69678282D01*
X88516248Y-69696855D01*
X88516543Y-69697184D01*
X88534788Y-69706253D01*
X88572405Y-69721367D01*
X88621271Y-69739262D01*
X88621543Y-69739358D01*
X88683093Y-69762493D01*
X88755657Y-69791965D01*
X88824057Y-69821597D01*
X88827294Y-69823062D01*
X88938702Y-69873626D01*
X89185399Y-69705160D01*
X89261077Y-69653803D01*
X89329631Y-69607889D01*
X89387088Y-69570030D01*
X89429476Y-69542837D01*
X89452825Y-69528921D01*
X89455042Y-69527889D01*
X89472010Y-69532484D01*
X89503701Y-69554655D01*
X89551352Y-69595447D01*
X89616198Y-69655905D01*
X89682397Y-69720227D01*
X89746214Y-69783612D01*
X89803329Y-69841451D01*
X89850305Y-69890175D01*
X89883703Y-69926210D01*
X89900085Y-69945984D01*
X89900694Y-69947002D01*
X89902505Y-69960572D01*
X89895683Y-69982733D01*
X89878540Y-70016478D01*
X89849393Y-70064800D01*
X89806555Y-70130692D01*
X89749448Y-70215517D01*
X89698766Y-70290177D01*
X89653461Y-70357140D01*
X89616150Y-70412516D01*
X89589452Y-70452420D01*
X89575985Y-70472962D01*
X89575137Y-70474356D01*
X89576781Y-70494038D01*
X89589245Y-70532293D01*
X89610048Y-70581889D01*
X89617462Y-70597728D01*
X89649814Y-70668290D01*
X89684328Y-70748353D01*
X89712365Y-70817629D01*
X89732568Y-70869045D01*
X89748615Y-70908119D01*
X89757888Y-70928541D01*
X89759041Y-70930114D01*
X89776096Y-70932721D01*
X89816298Y-70939863D01*
X89874302Y-70950523D01*
X89944763Y-70963685D01*
X90022335Y-70978333D01*
X90101672Y-70993449D01*
X90177431Y-71008018D01*
X90244264Y-71021022D01*
X90296828Y-71031445D01*
X90329776Y-71038270D01*
X90337857Y-71040199D01*
X90346205Y-71044962D01*
X90352506Y-71055718D01*
X90357045Y-71076098D01*
X90360104Y-71109734D01*
X90361967Y-71160255D01*
X90362918Y-71231292D01*
X90363240Y-71326476D01*
X90363257Y-71365492D01*
X90363257Y-71682799D01*
X90287057Y-71697839D01*
X90244663Y-71705995D01*
X90181400Y-71717899D01*
X90104962Y-71732116D01*
X90023043Y-71747210D01*
X90000400Y-71751355D01*
X89924806Y-71766053D01*
X89858953Y-71780505D01*
X89808366Y-71793375D01*
X89778574Y-71803322D01*
X89773612Y-71806287D01*
X89761426Y-71827283D01*
X89743953Y-71867967D01*
X89724577Y-71920322D01*
X89720734Y-71931600D01*
X89695339Y-72001523D01*
X89663817Y-72080418D01*
X89632969Y-72151266D01*
X89632817Y-72151595D01*
X89581447Y-72262733D01*
X89750399Y-72511253D01*
X89919352Y-72759772D01*
X89702429Y-72977058D01*
X89636819Y-73041726D01*
X89576979Y-73098733D01*
X89526267Y-73145033D01*
X89488046Y-73177584D01*
X89465675Y-73193343D01*
X89462466Y-73194343D01*
X89443626Y-73186469D01*
X89405180Y-73164578D01*
X89351330Y-73131267D01*
X89286276Y-73089131D01*
X89215940Y-73041943D01*
X89144555Y-72993810D01*
X89080908Y-72951928D01*
X89029041Y-72918871D01*
X88992995Y-72897218D01*
X88976867Y-72889543D01*
X88957189Y-72896037D01*
X88919875Y-72913150D01*
X88872621Y-72937326D01*
X88867612Y-72940013D01*
X88803977Y-72971927D01*
X88760341Y-72987579D01*
X88733202Y-72987745D01*
X88719057Y-72973204D01*
X88718975Y-72973000D01*
X88711905Y-72955779D01*
X88695042Y-72914899D01*
X88669695Y-72853525D01*
X88637171Y-72774819D01*
X88598778Y-72681947D01*
X88555822Y-72578072D01*
X88514222Y-72477502D01*
X88468504Y-72366516D01*
X88426526Y-72263703D01*
X88389548Y-72172215D01*
X88358827Y-72095201D01*
X88335622Y-72035815D01*
X88321190Y-71997209D01*
X88316743Y-71982800D01*
X88327896Y-71966272D01*
X88357069Y-71939930D01*
X88395971Y-71910887D01*
X88506757Y-71819039D01*
X88593351Y-71713759D01*
X88654716Y-71597266D01*
X88689815Y-71471776D01*
X88697608Y-71339507D01*
X88691943Y-71278457D01*
X88661078Y-71151795D01*
X88607920Y-71039941D01*
X88535767Y-70944001D01*
X88447917Y-70865076D01*
X88347665Y-70804270D01*
X88238310Y-70762687D01*
X88123147Y-70741428D01*
X88005475Y-70741599D01*
X87888590Y-70764301D01*
X87775789Y-70810638D01*
X87670369Y-70881713D01*
X87626368Y-70921911D01*
X87541979Y-71025129D01*
X87483222Y-71137925D01*
X87449704Y-71257010D01*
X87441035Y-71379095D01*
X87456823Y-71500893D01*
X87496678Y-71619116D01*
X87560207Y-71730475D01*
X87647021Y-71831684D01*
X87744029Y-71910887D01*
X87784437Y-71941162D01*
X87812982Y-71967219D01*
X87823257Y-71982825D01*
X87817877Y-71999843D01*
X87802575Y-72040500D01*
X87778612Y-72101642D01*
X87747244Y-72180119D01*
X87709732Y-72272780D01*
X87667333Y-72376472D01*
X87625663Y-72477526D01*
X87579690Y-72588607D01*
X87537107Y-72691541D01*
X87499221Y-72783165D01*
X87467340Y-72860316D01*
X87442771Y-72919831D01*
X87426820Y-72958544D01*
X87420910Y-72973000D01*
X87406948Y-72987685D01*
X87379940Y-72987642D01*
X87336413Y-72972099D01*
X87272890Y-72940284D01*
X87272388Y-72940013D01*
X87224560Y-72915323D01*
X87185897Y-72897338D01*
X87164095Y-72889614D01*
X87163133Y-72889543D01*
X87146721Y-72897378D01*
X87110487Y-72919165D01*
X87058474Y-72952328D01*
X86994725Y-72994291D01*
X86924060Y-73041943D01*
X86852116Y-73090191D01*
X86787274Y-73132151D01*
X86733735Y-73165227D01*
X86695697Y-73186821D01*
X86677533Y-73194343D01*
X86660808Y-73184457D01*
X86627180Y-73156826D01*
X86580010Y-73114495D01*
X86522658Y-73060505D01*
X86458484Y-72997899D01*
X86437497Y-72976983D01*
X86220499Y-72759623D01*
X86385668Y-72517220D01*
X86435864Y-72442781D01*
X86479919Y-72375972D01*
X86515362Y-72320665D01*
X86539719Y-72280729D01*
X86550522Y-72260036D01*
X86550838Y-72258563D01*
X86545143Y-72239058D01*
X86529826Y-72199822D01*
X86507537Y-72147430D01*
X86491893Y-72112355D01*
X86462641Y-72045201D01*
X86435094Y-71977358D01*
X86413737Y-71920034D01*
X86407935Y-71902572D01*
X86391452Y-71855938D01*
X86375340Y-71819905D01*
X86366490Y-71806287D01*
X86346960Y-71797952D01*
X86304334Y-71786137D01*
X86244145Y-71772181D01*
X86171922Y-71757422D01*
X86139600Y-71751355D01*
X86057522Y-71736273D01*
X85978795Y-71721669D01*
X85911109Y-71708980D01*
X85862160Y-71699642D01*
X85852943Y-71697839D01*
X85776743Y-71682799D01*
X85776743Y-71365492D01*
X85776914Y-71261154D01*
X85777616Y-71182213D01*
X85779134Y-71125038D01*
X85781749Y-71085999D01*
X85785746Y-71061465D01*
X85791409Y-71047805D01*
X85799020Y-71041389D01*
X85802143Y-71040199D01*
X85820978Y-71035980D01*
X85862588Y-71027562D01*
X85921630Y-71015961D01*
X85992757Y-71002195D01*
X86070625Y-70987280D01*
X86149887Y-70972232D01*
X86225198Y-70958069D01*
X86291213Y-70945806D01*
X86342587Y-70936461D01*
X86373975Y-70931050D01*
X86380959Y-70930114D01*
X86387285Y-70917596D01*
X86401290Y-70884246D01*
X86420355Y-70836377D01*
X86427634Y-70817629D01*
X86456996Y-70745195D01*
X86491571Y-70665170D01*
X86522537Y-70597728D01*
X86545323Y-70546159D01*
X86560482Y-70503785D01*
X86565542Y-70477834D01*
X86564736Y-70474356D01*
X86554041Y-70457936D01*
X86529620Y-70421417D01*
X86494095Y-70368687D01*
X86450087Y-70303635D01*
X86400217Y-70230151D01*
X86390356Y-70215645D01*
X86332492Y-70129704D01*
X86289956Y-70064261D01*
X86261054Y-70016304D01*
X86244090Y-69982820D01*
X86237367Y-69960795D01*
X86239190Y-69947217D01*
X86239236Y-69947131D01*
X86253586Y-69929297D01*
X86285323Y-69894817D01*
X86331010Y-69847268D01*
X86387204Y-69790222D01*
X86450468Y-69727255D01*
X86457602Y-69720227D01*
X86537330Y-69643020D01*
X86598857Y-69586330D01*
X86643421Y-69549110D01*
X86672257Y-69530315D01*
X86684958Y-69527889D01*
X86703494Y-69538471D01*
X86741961Y-69562916D01*
X86796386Y-69598612D01*
X86862798Y-69642947D01*
X86937225Y-69693311D01*
X86954601Y-69705160D01*
X87201297Y-69873626D01*
X87312706Y-69823062D01*
X87380457Y-69793595D01*
X87453183Y-69763959D01*
X87515703Y-69740330D01*
X87518457Y-69739358D01*
X87567360Y-69721457D01*
X87605057Y-69706320D01*
X87623425Y-69697210D01*
X87623456Y-69697184D01*
X87629285Y-69680717D01*
X87639192Y-69640219D01*
X87652195Y-69580242D01*
X87667309Y-69505340D01*
X87683552Y-69420064D01*
X87684881Y-69412875D01*
X87701175Y-69325014D01*
X87716133Y-69245260D01*
X87728791Y-69178681D01*
X87738186Y-69130347D01*
X87743354Y-69105325D01*
X87743444Y-69104943D01*
X87746589Y-69094299D01*
X87752704Y-69086262D01*
X87765453Y-69080467D01*
X87788500Y-69076547D01*
X87825509Y-69074135D01*
X87880144Y-69072865D01*
X87956067Y-69072371D01*
X88056944Y-69072286D01*
X88070000Y-69072286D01*
X88173910Y-69072348D01*
G37*
D12*
X88173910Y-69072348D02*
X88252454Y-69072778D01*
X88309298Y-69073942D01*
X88348105Y-69076207D01*
X88372538Y-69079940D01*
X88386262Y-69085506D01*
X88392940Y-69093273D01*
X88396236Y-69103605D01*
X88396556Y-69104943D01*
X88401562Y-69129079D01*
X88410829Y-69176701D01*
X88423392Y-69242741D01*
X88438287Y-69322128D01*
X88454551Y-69409796D01*
X88455119Y-69412875D01*
X88471410Y-69498789D01*
X88486652Y-69574696D01*
X88499861Y-69636045D01*
X88510054Y-69678282D01*
X88516248Y-69696855D01*
X88516543Y-69697184D01*
X88534788Y-69706253D01*
X88572405Y-69721367D01*
X88621271Y-69739262D01*
X88621543Y-69739358D01*
X88683093Y-69762493D01*
X88755657Y-69791965D01*
X88824057Y-69821597D01*
X88827294Y-69823062D01*
X88938702Y-69873626D01*
X89185399Y-69705160D01*
X89261077Y-69653803D01*
X89329631Y-69607889D01*
X89387088Y-69570030D01*
X89429476Y-69542837D01*
X89452825Y-69528921D01*
X89455042Y-69527889D01*
X89472010Y-69532484D01*
X89503701Y-69554655D01*
X89551352Y-69595447D01*
X89616198Y-69655905D01*
X89682397Y-69720227D01*
X89746214Y-69783612D01*
X89803329Y-69841451D01*
X89850305Y-69890175D01*
X89883703Y-69926210D01*
X89900085Y-69945984D01*
X89900694Y-69947002D01*
X89902505Y-69960572D01*
X89895683Y-69982733D01*
X89878540Y-70016478D01*
X89849393Y-70064800D01*
X89806555Y-70130692D01*
X89749448Y-70215517D01*
X89698766Y-70290177D01*
X89653461Y-70357140D01*
X89616150Y-70412516D01*
X89589452Y-70452420D01*
X89575985Y-70472962D01*
X89575137Y-70474356D01*
X89576781Y-70494038D01*
X89589245Y-70532293D01*
X89610048Y-70581889D01*
X89617462Y-70597728D01*
X89649814Y-70668290D01*
X89684328Y-70748353D01*
X89712365Y-70817629D01*
X89732568Y-70869045D01*
X89748615Y-70908119D01*
X89757888Y-70928541D01*
X89759041Y-70930114D01*
X89776096Y-70932721D01*
X89816298Y-70939863D01*
X89874302Y-70950523D01*
X89944763Y-70963685D01*
X90022335Y-70978333D01*
X90101672Y-70993449D01*
X90177431Y-71008018D01*
X90244264Y-71021022D01*
X90296828Y-71031445D01*
X90329776Y-71038270D01*
X90337857Y-71040199D01*
X90346205Y-71044962D01*
X90352506Y-71055718D01*
X90357045Y-71076098D01*
X90360104Y-71109734D01*
X90361967Y-71160255D01*
X90362918Y-71231292D01*
X90363240Y-71326476D01*
X90363257Y-71365492D01*
X90363257Y-71682799D01*
X90287057Y-71697839D01*
X90244663Y-71705995D01*
X90181400Y-71717899D01*
X90104962Y-71732116D01*
X90023043Y-71747210D01*
X90000400Y-71751355D01*
X89924806Y-71766053D01*
X89858953Y-71780505D01*
X89808366Y-71793375D01*
X89778574Y-71803322D01*
X89773612Y-71806287D01*
X89761426Y-71827283D01*
X89743953Y-71867967D01*
X89724577Y-71920322D01*
X89720734Y-71931600D01*
X89695339Y-72001523D01*
X89663817Y-72080418D01*
X89632969Y-72151266D01*
X89632817Y-72151595D01*
X89581447Y-72262733D01*
X89750399Y-72511253D01*
X89919352Y-72759772D01*
X89702429Y-72977058D01*
X89636819Y-73041726D01*
X89576979Y-73098733D01*
X89526267Y-73145033D01*
X89488046Y-73177584D01*
X89465675Y-73193343D01*
X89462466Y-73194343D01*
X89443626Y-73186469D01*
X89405180Y-73164578D01*
X89351330Y-73131267D01*
X89286276Y-73089131D01*
X89215940Y-73041943D01*
X89144555Y-72993810D01*
X89080908Y-72951928D01*
X89029041Y-72918871D01*
X88992995Y-72897218D01*
X88976867Y-72889543D01*
X88957189Y-72896037D01*
X88919875Y-72913150D01*
X88872621Y-72937326D01*
X88867612Y-72940013D01*
X88803977Y-72971927D01*
X88760341Y-72987579D01*
X88733202Y-72987745D01*
X88719057Y-72973204D01*
X88718975Y-72973000D01*
X88711905Y-72955779D01*
X88695042Y-72914899D01*
X88669695Y-72853525D01*
X88637171Y-72774819D01*
X88598778Y-72681947D01*
X88555822Y-72578072D01*
X88514222Y-72477502D01*
X88468504Y-72366516D01*
X88426526Y-72263703D01*
X88389548Y-72172215D01*
X88358827Y-72095201D01*
X88335622Y-72035815D01*
X88321190Y-71997209D01*
X88316743Y-71982800D01*
X88327896Y-71966272D01*
X88357069Y-71939930D01*
X88395971Y-71910887D01*
X88506757Y-71819039D01*
X88593351Y-71713759D01*
X88654716Y-71597266D01*
X88689815Y-71471776D01*
X88697608Y-71339507D01*
X88691943Y-71278457D01*
X88661078Y-71151795D01*
X88607920Y-71039941D01*
X88535767Y-70944001D01*
X88447917Y-70865076D01*
X88347665Y-70804270D01*
X88238310Y-70762687D01*
X88123147Y-70741428D01*
X88005475Y-70741599D01*
X87888590Y-70764301D01*
X87775789Y-70810638D01*
X87670369Y-70881713D01*
X87626368Y-70921911D01*
X87541979Y-71025129D01*
X87483222Y-71137925D01*
X87449704Y-71257010D01*
X87441035Y-71379095D01*
X87456823Y-71500893D01*
X87496678Y-71619116D01*
X87560207Y-71730475D01*
X87647021Y-71831684D01*
X87744029Y-71910887D01*
X87784437Y-71941162D01*
X87812982Y-71967219D01*
X87823257Y-71982825D01*
X87817877Y-71999843D01*
X87802575Y-72040500D01*
X87778612Y-72101642D01*
X87747244Y-72180119D01*
X87709732Y-72272780D01*
X87667333Y-72376472D01*
X87625663Y-72477526D01*
X87579690Y-72588607D01*
X87537107Y-72691541D01*
X87499221Y-72783165D01*
X87467340Y-72860316D01*
X87442771Y-72919831D01*
X87426820Y-72958544D01*
X87420910Y-72973000D01*
X87406948Y-72987685D01*
X87379940Y-72987642D01*
X87336413Y-72972099D01*
X87272890Y-72940284D01*
X87272388Y-72940013D01*
X87224560Y-72915323D01*
X87185897Y-72897338D01*
X87164095Y-72889614D01*
X87163133Y-72889543D01*
X87146721Y-72897378D01*
X87110487Y-72919165D01*
X87058474Y-72952328D01*
X86994725Y-72994291D01*
X86924060Y-73041943D01*
X86852116Y-73090191D01*
X86787274Y-73132151D01*
X86733735Y-73165227D01*
X86695697Y-73186821D01*
X86677533Y-73194343D01*
X86660808Y-73184457D01*
X86627180Y-73156826D01*
X86580010Y-73114495D01*
X86522658Y-73060505D01*
X86458484Y-72997899D01*
X86437497Y-72976983D01*
X86220499Y-72759623D01*
X86385668Y-72517220D01*
X86435864Y-72442781D01*
X86479919Y-72375972D01*
X86515362Y-72320665D01*
X86539719Y-72280729D01*
X86550522Y-72260036D01*
X86550838Y-72258563D01*
X86545143Y-72239058D01*
X86529826Y-72199822D01*
X86507537Y-72147430D01*
X86491893Y-72112355D01*
X86462641Y-72045201D01*
X86435094Y-71977358D01*
X86413737Y-71920034D01*
X86407935Y-71902572D01*
X86391452Y-71855938D01*
X86375340Y-71819905D01*
X86366490Y-71806287D01*
X86346960Y-71797952D01*
X86304334Y-71786137D01*
X86244145Y-71772181D01*
X86171922Y-71757422D01*
X86139600Y-71751355D01*
X86057522Y-71736273D01*
X85978795Y-71721669D01*
X85911109Y-71708980D01*
X85862160Y-71699642D01*
X85852943Y-71697839D01*
X85776743Y-71682799D01*
X85776743Y-71365492D01*
X85776914Y-71261154D01*
X85777616Y-71182213D01*
X85779134Y-71125038D01*
X85781749Y-71085999D01*
X85785746Y-71061465D01*
X85791409Y-71047805D01*
X85799020Y-71041389D01*
X85802143Y-71040199D01*
X85820978Y-71035980D01*
X85862588Y-71027562D01*
X85921630Y-71015961D01*
X85992757Y-71002195D01*
X86070625Y-70987280D01*
X86149887Y-70972232D01*
X86225198Y-70958069D01*
X86291213Y-70945806D01*
X86342587Y-70936461D01*
X86373975Y-70931050D01*
X86380959Y-70930114D01*
X86387285Y-70917596D01*
X86401290Y-70884246D01*
X86420355Y-70836377D01*
X86427634Y-70817629D01*
X86456996Y-70745195D01*
X86491571Y-70665170D01*
X86522537Y-70597728D01*
X86545323Y-70546159D01*
X86560482Y-70503785D01*
X86565542Y-70477834D01*
X86564736Y-70474356D01*
X86554041Y-70457936D01*
X86529620Y-70421417D01*
X86494095Y-70368687D01*
X86450087Y-70303635D01*
X86400217Y-70230151D01*
X86390356Y-70215645D01*
X86332492Y-70129704D01*
X86289956Y-70064261D01*
X86261054Y-70016304D01*
X86244090Y-69982820D01*
X86237367Y-69960795D01*
X86239190Y-69947217D01*
X86239236Y-69947131D01*
X86253586Y-69929297D01*
X86285323Y-69894817D01*
X86331010Y-69847268D01*
X86387204Y-69790222D01*
X86450468Y-69727255D01*
X86457602Y-69720227D01*
X86537330Y-69643020D01*
X86598857Y-69586330D01*
X86643421Y-69549110D01*
X86672257Y-69530315D01*
X86684958Y-69527889D01*
X86703494Y-69538471D01*
X86741961Y-69562916D01*
X86796386Y-69598612D01*
X86862798Y-69642947D01*
X86937225Y-69693311D01*
X86954601Y-69705160D01*
X87201297Y-69873626D01*
X87312706Y-69823062D01*
X87380457Y-69793595D01*
X87453183Y-69763959D01*
X87515703Y-69740330D01*
X87518457Y-69739358D01*
X87567360Y-69721457D01*
X87605057Y-69706320D01*
X87623425Y-69697210D01*
X87623456Y-69697184D01*
X87629285Y-69680717D01*
X87639192Y-69640219D01*
X87652195Y-69580242D01*
X87667309Y-69505340D01*
X87683552Y-69420064D01*
X87684881Y-69412875D01*
X87701175Y-69325014D01*
X87716133Y-69245260D01*
X87728791Y-69178681D01*
X87738186Y-69130347D01*
X87743354Y-69105325D01*
X87743444Y-69104943D01*
X87746589Y-69094299D01*
X87752704Y-69086262D01*
X87765453Y-69080467D01*
X87788500Y-69076547D01*
X87825509Y-69074135D01*
X87880144Y-69072865D01*
X87956067Y-69072371D01*
X88056944Y-69072286D01*
X88070000Y-69072286D01*
X88173910Y-69072348D01*
G36*
X90938196Y-73925384D02*
G01*
X90951884Y-73876695D01*
X90974096Y-73840849D01*
X91006574Y-73812513D01*
X91020733Y-73803355D01*
X91085053Y-73779507D01*
X91155473Y-73778006D01*
X91223595Y-73796966D01*
X91281021Y-73834497D01*
X91308719Y-73868096D01*
X91330662Y-73929064D01*
X91332405Y-73977308D01*
X91328457Y-74041816D01*
X91179686Y-74106934D01*
X91107349Y-74140202D01*
X91060084Y-74166964D01*
X91035507Y-74190144D01*
X91031237Y-74212667D01*
X91044889Y-74237455D01*
X91059943Y-74253886D01*
X91103746Y-74280235D01*
X91151389Y-74282081D01*
X91195145Y-74261546D01*
X91227289Y-74220752D01*
X91233038Y-74206347D01*
X91260576Y-74161356D01*
X91292258Y-74142182D01*
X91335714Y-74125779D01*
X91335714Y-74187966D01*
X91331872Y-74230283D01*
X91316823Y-74265969D01*
X91285280Y-74306943D01*
X91280592Y-74312267D01*
X91245506Y-74348720D01*
X91215347Y-74368283D01*
X91177615Y-74377283D01*
X91146335Y-74380230D01*
X91090385Y-74380965D01*
X91050555Y-74371660D01*
X91025708Y-74357846D01*
X90986656Y-74327467D01*
X90959625Y-74294613D01*
X90942517Y-74253294D01*
X90933238Y-74197521D01*
X90929693Y-74121305D01*
X90929410Y-74082622D01*
X90930372Y-74036247D01*
X91018007Y-74036247D01*
X91019023Y-74061126D01*
X91021556Y-74065200D01*
X91038274Y-74059665D01*
X91074249Y-74045017D01*
X91122331Y-74024190D01*
X91132386Y-74019714D01*
X91193152Y-73988814D01*
X91226632Y-73961657D01*
X91233990Y-73936220D01*
X91216391Y-73910481D01*
X91201856Y-73899109D01*
X91149410Y-73876364D01*
X91100322Y-73880122D01*
X91059227Y-73907884D01*
X91030758Y-73957152D01*
X91021631Y-73996257D01*
X91018007Y-74036247D01*
X90930372Y-74036247D01*
X90931285Y-73992249D01*
X90938196Y-73925384D01*
G37*
X90938196Y-73925384D02*
X90951884Y-73876695D01*
X90974096Y-73840849D01*
X91006574Y-73812513D01*
X91020733Y-73803355D01*
X91085053Y-73779507D01*
X91155473Y-73778006D01*
X91223595Y-73796966D01*
X91281021Y-73834497D01*
X91308719Y-73868096D01*
X91330662Y-73929064D01*
X91332405Y-73977308D01*
X91328457Y-74041816D01*
X91179686Y-74106934D01*
X91107349Y-74140202D01*
X91060084Y-74166964D01*
X91035507Y-74190144D01*
X91031237Y-74212667D01*
X91044889Y-74237455D01*
X91059943Y-74253886D01*
X91103746Y-74280235D01*
X91151389Y-74282081D01*
X91195145Y-74261546D01*
X91227289Y-74220752D01*
X91233038Y-74206347D01*
X91260576Y-74161356D01*
X91292258Y-74142182D01*
X91335714Y-74125779D01*
X91335714Y-74187966D01*
X91331872Y-74230283D01*
X91316823Y-74265969D01*
X91285280Y-74306943D01*
X91280592Y-74312267D01*
X91245506Y-74348720D01*
X91215347Y-74368283D01*
X91177615Y-74377283D01*
X91146335Y-74380230D01*
X91090385Y-74380965D01*
X91050555Y-74371660D01*
X91025708Y-74357846D01*
X90986656Y-74327467D01*
X90959625Y-74294613D01*
X90942517Y-74253294D01*
X90933238Y-74197521D01*
X90929693Y-74121305D01*
X90929410Y-74082622D01*
X90930372Y-74036247D01*
X91018007Y-74036247D01*
X91019023Y-74061126D01*
X91021556Y-74065200D01*
X91038274Y-74059665D01*
X91074249Y-74045017D01*
X91122331Y-74024190D01*
X91132386Y-74019714D01*
X91193152Y-73988814D01*
X91226632Y-73961657D01*
X91233990Y-73936220D01*
X91216391Y-73910481D01*
X91201856Y-73899109D01*
X91149410Y-73876364D01*
X91100322Y-73880122D01*
X91059227Y-73907884D01*
X91030758Y-73957152D01*
X91021631Y-73996257D01*
X91018007Y-74036247D01*
X90930372Y-74036247D01*
X90931285Y-73992249D01*
X90938196Y-73925384D01*
G36*
X88854726Y-73920086D02*
G01*
X88877135Y-73868600D01*
X88912124Y-73828443D01*
X88939375Y-73807861D01*
X88988907Y-73785625D01*
X89046316Y-73775304D01*
X89099682Y-73778067D01*
X89129543Y-73789212D01*
X89141261Y-73792383D01*
X89149037Y-73780557D01*
X89154465Y-73748866D01*
X89158571Y-73700593D01*
X89163067Y-73646829D01*
X89169313Y-73614482D01*
X89180676Y-73595985D01*
X89200528Y-73583770D01*
X89213000Y-73578362D01*
X89260171Y-73558601D01*
X89260117Y-73895358D01*
X89259933Y-74003837D01*
X89259219Y-74087287D01*
X89257675Y-74149704D01*
X89255001Y-74195085D01*
X89250894Y-74227429D01*
X89245055Y-74250733D01*
X89237182Y-74268995D01*
X89231221Y-74279418D01*
X89181855Y-74335945D01*
X89119264Y-74371377D01*
X89050013Y-74384090D01*
X88980668Y-74372463D01*
X88939375Y-74351568D01*
X88896025Y-74315422D01*
X88866481Y-74271276D01*
X88848655Y-74213462D01*
X88840463Y-74136313D01*
X88839302Y-74079714D01*
X88839458Y-74075647D01*
X88940857Y-74075647D01*
X88941476Y-74140550D01*
X88944314Y-74183514D01*
X88950840Y-74211622D01*
X88962523Y-74231953D01*
X88976483Y-74247288D01*
X89023365Y-74276890D01*
X89073701Y-74279419D01*
X89121276Y-74254705D01*
X89124979Y-74251356D01*
X89140783Y-74233935D01*
X89150693Y-74213209D01*
X89156058Y-74182362D01*
X89158228Y-74134577D01*
X89158571Y-74081748D01*
X89157827Y-74015381D01*
X89154748Y-73971106D01*
X89148061Y-73942009D01*
X89136496Y-73921173D01*
X89127013Y-73910107D01*
X89082960Y-73882198D01*
X89032224Y-73878843D01*
X88983796Y-73900159D01*
X88974450Y-73908073D01*
X88958540Y-73925647D01*
X88948610Y-73946587D01*
X88943278Y-73977782D01*
X88941163Y-74026122D01*
X88940857Y-74075647D01*
X88839458Y-74075647D01*
X88842810Y-73988568D01*
X88854726Y-73920086D01*
G37*
X88854726Y-73920086D02*
X88877135Y-73868600D01*
X88912124Y-73828443D01*
X88939375Y-73807861D01*
X88988907Y-73785625D01*
X89046316Y-73775304D01*
X89099682Y-73778067D01*
X89129543Y-73789212D01*
X89141261Y-73792383D01*
X89149037Y-73780557D01*
X89154465Y-73748866D01*
X89158571Y-73700593D01*
X89163067Y-73646829D01*
X89169313Y-73614482D01*
X89180676Y-73595985D01*
X89200528Y-73583770D01*
X89213000Y-73578362D01*
X89260171Y-73558601D01*
X89260117Y-73895358D01*
X89259933Y-74003837D01*
X89259219Y-74087287D01*
X89257675Y-74149704D01*
X89255001Y-74195085D01*
X89250894Y-74227429D01*
X89245055Y-74250733D01*
X89237182Y-74268995D01*
X89231221Y-74279418D01*
X89181855Y-74335945D01*
X89119264Y-74371377D01*
X89050013Y-74384090D01*
X88980668Y-74372463D01*
X88939375Y-74351568D01*
X88896025Y-74315422D01*
X88866481Y-74271276D01*
X88848655Y-74213462D01*
X88840463Y-74136313D01*
X88839302Y-74079714D01*
X88839458Y-74075647D01*
X88940857Y-74075647D01*
X88941476Y-74140550D01*
X88944314Y-74183514D01*
X88950840Y-74211622D01*
X88962523Y-74231953D01*
X88976483Y-74247288D01*
X89023365Y-74276890D01*
X89073701Y-74279419D01*
X89121276Y-74254705D01*
X89124979Y-74251356D01*
X89140783Y-74233935D01*
X89150693Y-74213209D01*
X89156058Y-74182362D01*
X89158228Y-74134577D01*
X89158571Y-74081748D01*
X89157827Y-74015381D01*
X89154748Y-73971106D01*
X89148061Y-73942009D01*
X89136496Y-73921173D01*
X89127013Y-73910107D01*
X89082960Y-73882198D01*
X89032224Y-73878843D01*
X88983796Y-73900159D01*
X88974450Y-73908073D01*
X88958540Y-73925647D01*
X88948610Y-73946587D01*
X88943278Y-73977782D01*
X88941163Y-74026122D01*
X88940857Y-74075647D01*
X88839458Y-74075647D01*
X88842810Y-73988568D01*
X88854726Y-73920086D01*
G36*
X85363677Y-73980333D02*
G01*
X85366450Y-73932958D01*
X85370388Y-73899290D01*
X85375849Y-73875498D01*
X85383192Y-73857753D01*
X85392777Y-73842224D01*
X85396887Y-73836381D01*
X85451405Y-73781185D01*
X85520336Y-73749890D01*
X85600072Y-73741165D01*
X85669744Y-73749918D01*
X85725201Y-73777568D01*
X85774148Y-73828480D01*
X85787629Y-73847338D01*
X85802314Y-73872015D01*
X85811842Y-73898816D01*
X85817293Y-73934587D01*
X85819747Y-73986169D01*
X85820286Y-74054267D01*
X85817852Y-74147588D01*
X85809394Y-74217657D01*
X85793174Y-74269931D01*
X85767454Y-74309869D01*
X85730497Y-74342929D01*
X85727782Y-74344886D01*
X85691360Y-74364908D01*
X85647502Y-74374815D01*
X85591724Y-74377257D01*
X85501048Y-74377257D01*
X85501010Y-74465283D01*
X85500166Y-74514308D01*
X85495024Y-74543065D01*
X85481587Y-74560311D01*
X85455858Y-74574808D01*
X85449679Y-74577769D01*
X85420764Y-74591648D01*
X85398376Y-74600414D01*
X85381729Y-74601171D01*
X85370036Y-74591023D01*
X85362510Y-74567073D01*
X85358366Y-74526426D01*
X85356815Y-74466186D01*
X85357071Y-74383455D01*
X85358349Y-74275339D01*
X85358748Y-74243000D01*
X85360185Y-74131524D01*
X85361472Y-74058603D01*
X85500971Y-74058603D01*
X85501755Y-74120499D01*
X85505240Y-74160997D01*
X85513124Y-74187708D01*
X85527105Y-74208244D01*
X85536597Y-74218260D01*
X85575404Y-74247567D01*
X85609763Y-74249952D01*
X85645216Y-74225750D01*
X85646114Y-74224857D01*
X85660539Y-74206153D01*
X85669313Y-74180732D01*
X85673739Y-74141584D01*
X85675118Y-74081697D01*
X85675143Y-74068430D01*
X85671812Y-73985901D01*
X85660969Y-73928691D01*
X85641340Y-73893766D01*
X85611650Y-73878094D01*
X85594491Y-73876514D01*
X85553766Y-73883926D01*
X85525832Y-73908330D01*
X85509017Y-73952980D01*
X85501650Y-74021130D01*
X85500971Y-74058603D01*
X85361472Y-74058603D01*
X85361708Y-74045245D01*
X85363677Y-73980333D01*
G37*
X85363677Y-73980333D02*
X85366450Y-73932958D01*
X85370388Y-73899290D01*
X85375849Y-73875498D01*
X85383192Y-73857753D01*
X85392777Y-73842224D01*
X85396887Y-73836381D01*
X85451405Y-73781185D01*
X85520336Y-73749890D01*
X85600072Y-73741165D01*
X85669744Y-73749918D01*
X85725201Y-73777568D01*
X85774148Y-73828480D01*
X85787629Y-73847338D01*
X85802314Y-73872015D01*
X85811842Y-73898816D01*
X85817293Y-73934587D01*
X85819747Y-73986169D01*
X85820286Y-74054267D01*
X85817852Y-74147588D01*
X85809394Y-74217657D01*
X85793174Y-74269931D01*
X85767454Y-74309869D01*
X85730497Y-74342929D01*
X85727782Y-74344886D01*
X85691360Y-74364908D01*
X85647502Y-74374815D01*
X85591724Y-74377257D01*
X85501048Y-74377257D01*
X85501010Y-74465283D01*
X85500166Y-74514308D01*
X85495024Y-74543065D01*
X85481587Y-74560311D01*
X85455858Y-74574808D01*
X85449679Y-74577769D01*
X85420764Y-74591648D01*
X85398376Y-74600414D01*
X85381729Y-74601171D01*
X85370036Y-74591023D01*
X85362510Y-74567073D01*
X85358366Y-74526426D01*
X85356815Y-74466186D01*
X85357071Y-74383455D01*
X85358349Y-74275339D01*
X85358748Y-74243000D01*
X85360185Y-74131524D01*
X85361472Y-74058603D01*
X85500971Y-74058603D01*
X85501755Y-74120499D01*
X85505240Y-74160997D01*
X85513124Y-74187708D01*
X85527105Y-74208244D01*
X85536597Y-74218260D01*
X85575404Y-74247567D01*
X85609763Y-74249952D01*
X85645216Y-74225750D01*
X85646114Y-74224857D01*
X85660539Y-74206153D01*
X85669313Y-74180732D01*
X85673739Y-74141584D01*
X85675118Y-74081697D01*
X85675143Y-74068430D01*
X85671812Y-73985901D01*
X85660969Y-73928691D01*
X85641340Y-73893766D01*
X85611650Y-73878094D01*
X85594491Y-73876514D01*
X85553766Y-73883926D01*
X85525832Y-73908330D01*
X85509017Y-73952980D01*
X85501650Y-74021130D01*
X85500971Y-74058603D01*
X85361472Y-74058603D01*
X85361708Y-74045245D01*
X85363677Y-73980333D01*
G36*
X89849833Y-73788663D02*
G01*
X89852048Y-73826850D01*
X89853784Y-73884886D01*
X89854899Y-73958180D01*
X89855257Y-74035055D01*
X89855257Y-74295196D01*
X89809326Y-74341127D01*
X89777675Y-74369429D01*
X89749890Y-74380893D01*
X89711915Y-74380168D01*
X89696840Y-74378321D01*
X89649726Y-74372948D01*
X89610756Y-74369869D01*
X89601257Y-74369585D01*
X89569233Y-74371445D01*
X89523432Y-74376114D01*
X89505674Y-74378321D01*
X89462057Y-74381735D01*
X89432745Y-74374320D01*
X89403680Y-74351427D01*
X89393188Y-74341127D01*
X89347257Y-74295196D01*
X89347257Y-73808602D01*
X89384226Y-73791758D01*
X89416059Y-73779282D01*
X89434683Y-73774914D01*
X89439458Y-73788718D01*
X89443921Y-73827286D01*
X89447775Y-73886356D01*
X89450722Y-73961663D01*
X89452143Y-74025286D01*
X89456114Y-74275657D01*
X89490759Y-74280556D01*
X89522268Y-74277131D01*
X89537708Y-74266041D01*
X89542023Y-74245308D01*
X89545708Y-74201145D01*
X89548469Y-74139146D01*
X89550012Y-74064909D01*
X89550235Y-74026706D01*
X89550457Y-73806783D01*
X89596166Y-73790849D01*
X89628518Y-73780015D01*
X89646115Y-73774962D01*
X89646623Y-73774914D01*
X89648388Y-73788648D01*
X89650329Y-73826730D01*
X89652282Y-73884482D01*
X89654084Y-73957227D01*
X89655343Y-74025286D01*
X89659314Y-74275657D01*
X89746400Y-74275657D01*
X89750396Y-74047240D01*
X89754392Y-73818822D01*
X89796847Y-73796868D01*
X89828192Y-73781793D01*
X89846744Y-73774951D01*
X89847279Y-73774914D01*
X89849833Y-73788663D01*
G37*
X89849833Y-73788663D02*
X89852048Y-73826850D01*
X89853784Y-73884886D01*
X89854899Y-73958180D01*
X89855257Y-74035055D01*
X89855257Y-74295196D01*
X89809326Y-74341127D01*
X89777675Y-74369429D01*
X89749890Y-74380893D01*
X89711915Y-74380168D01*
X89696840Y-74378321D01*
X89649726Y-74372948D01*
X89610756Y-74369869D01*
X89601257Y-74369585D01*
X89569233Y-74371445D01*
X89523432Y-74376114D01*
X89505674Y-74378321D01*
X89462057Y-74381735D01*
X89432745Y-74374320D01*
X89403680Y-74351427D01*
X89393188Y-74341127D01*
X89347257Y-74295196D01*
X89347257Y-73808602D01*
X89384226Y-73791758D01*
X89416059Y-73779282D01*
X89434683Y-73774914D01*
X89439458Y-73788718D01*
X89443921Y-73827286D01*
X89447775Y-73886356D01*
X89450722Y-73961663D01*
X89452143Y-74025286D01*
X89456114Y-74275657D01*
X89490759Y-74280556D01*
X89522268Y-74277131D01*
X89537708Y-74266041D01*
X89542023Y-74245308D01*
X89545708Y-74201145D01*
X89548469Y-74139146D01*
X89550012Y-74064909D01*
X89550235Y-74026706D01*
X89550457Y-73806783D01*
X89596166Y-73790849D01*
X89628518Y-73780015D01*
X89646115Y-73774962D01*
X89646623Y-73774914D01*
X89648388Y-73788648D01*
X89650329Y-73826730D01*
X89652282Y-73884482D01*
X89654084Y-73957227D01*
X89655343Y-74025286D01*
X89659314Y-74275657D01*
X89746400Y-74275657D01*
X89750396Y-74047240D01*
X89754392Y-73818822D01*
X89796847Y-73796868D01*
X89828192Y-73781793D01*
X89846744Y-73774951D01*
X89847279Y-73774914D01*
X89849833Y-73788663D01*
G36*
X90214876Y-73786335D02*
G01*
X90256667Y-73805344D01*
X90289469Y-73828378D01*
X90313503Y-73854133D01*
X90330097Y-73887358D01*
X90340577Y-73932800D01*
X90346271Y-73995207D01*
X90348507Y-74079327D01*
X90348743Y-74134721D01*
X90348743Y-74350826D01*
X90311774Y-74367670D01*
X90282656Y-74379981D01*
X90268231Y-74384514D01*
X90265472Y-74371025D01*
X90263282Y-74334653D01*
X90261942Y-74281542D01*
X90261657Y-74239372D01*
X90260434Y-74178447D01*
X90257136Y-74130115D01*
X90252321Y-74100518D01*
X90248496Y-74094229D01*
X90222783Y-74100652D01*
X90182418Y-74117125D01*
X90135679Y-74139458D01*
X90090845Y-74163457D01*
X90056193Y-74184930D01*
X90040002Y-74199685D01*
X90039938Y-74199845D01*
X90041330Y-74227152D01*
X90053818Y-74253219D01*
X90075743Y-74274392D01*
X90107743Y-74281474D01*
X90135092Y-74280649D01*
X90173826Y-74280042D01*
X90194158Y-74289116D01*
X90206369Y-74313092D01*
X90207909Y-74317613D01*
X90213203Y-74351806D01*
X90199047Y-74372568D01*
X90162148Y-74382462D01*
X90122289Y-74384292D01*
X90050562Y-74370727D01*
X90013432Y-74351355D01*
X89967576Y-74305845D01*
X89943256Y-74249983D01*
X89941073Y-74190957D01*
X89961629Y-74135953D01*
X89992549Y-74101486D01*
X90023420Y-74082189D01*
X90071942Y-74057759D01*
X90128485Y-74032985D01*
X90137910Y-74029199D01*
X90200019Y-74001791D01*
X90235822Y-73977634D01*
X90247337Y-73953619D01*
X90236580Y-73926635D01*
X90218114Y-73905543D01*
X90174469Y-73879572D01*
X90126446Y-73877624D01*
X90082406Y-73897637D01*
X90050709Y-73937551D01*
X90046549Y-73947848D01*
X90022327Y-73985724D01*
X89986965Y-74013842D01*
X89942343Y-74036917D01*
X89942343Y-73971485D01*
X89944969Y-73931506D01*
X89956230Y-73899997D01*
X89981199Y-73866378D01*
X90005169Y-73840484D01*
X90042441Y-73803817D01*
X90071401Y-73784121D01*
X90102505Y-73776220D01*
X90137713Y-73774914D01*
X90214876Y-73786335D01*
G37*
X90214876Y-73786335D02*
X90256667Y-73805344D01*
X90289469Y-73828378D01*
X90313503Y-73854133D01*
X90330097Y-73887358D01*
X90340577Y-73932800D01*
X90346271Y-73995207D01*
X90348507Y-74079327D01*
X90348743Y-74134721D01*
X90348743Y-74350826D01*
X90311774Y-74367670D01*
X90282656Y-74379981D01*
X90268231Y-74384514D01*
X90265472Y-74371025D01*
X90263282Y-74334653D01*
X90261942Y-74281542D01*
X90261657Y-74239372D01*
X90260434Y-74178447D01*
X90257136Y-74130115D01*
X90252321Y-74100518D01*
X90248496Y-74094229D01*
X90222783Y-74100652D01*
X90182418Y-74117125D01*
X90135679Y-74139458D01*
X90090845Y-74163457D01*
X90056193Y-74184930D01*
X90040002Y-74199685D01*
X90039938Y-74199845D01*
X90041330Y-74227152D01*
X90053818Y-74253219D01*
X90075743Y-74274392D01*
X90107743Y-74281474D01*
X90135092Y-74280649D01*
X90173826Y-74280042D01*
X90194158Y-74289116D01*
X90206369Y-74313092D01*
X90207909Y-74317613D01*
X90213203Y-74351806D01*
X90199047Y-74372568D01*
X90162148Y-74382462D01*
X90122289Y-74384292D01*
X90050562Y-74370727D01*
X90013432Y-74351355D01*
X89967576Y-74305845D01*
X89943256Y-74249983D01*
X89941073Y-74190957D01*
X89961629Y-74135953D01*
X89992549Y-74101486D01*
X90023420Y-74082189D01*
X90071942Y-74057759D01*
X90128485Y-74032985D01*
X90137910Y-74029199D01*
X90200019Y-74001791D01*
X90235822Y-73977634D01*
X90247337Y-73953619D01*
X90236580Y-73926635D01*
X90218114Y-73905543D01*
X90174469Y-73879572D01*
X90126446Y-73877624D01*
X90082406Y-73897637D01*
X90050709Y-73937551D01*
X90046549Y-73947848D01*
X90022327Y-73985724D01*
X89986965Y-74013842D01*
X89942343Y-74036917D01*
X89942343Y-73971485D01*
X89944969Y-73931506D01*
X89956230Y-73899997D01*
X89981199Y-73866378D01*
X90005169Y-73840484D01*
X90042441Y-73803817D01*
X90071401Y-73784121D01*
X90102505Y-73776220D01*
X90137713Y-73774914D01*
X90214876Y-73786335D01*
G36*
X84807096Y-73938159D02*
G01*
X84812068Y-73901949D01*
X84820713Y-73875299D01*
X84834005Y-73851722D01*
X84836943Y-73847338D01*
X84886313Y-73788249D01*
X84940109Y-73753947D01*
X85005602Y-73740331D01*
X85027842Y-73739665D01*
X85111115Y-73751962D01*
X85179145Y-73787733D01*
X85229351Y-73845301D01*
X85247185Y-73882312D01*
X85261063Y-73937882D01*
X85268167Y-74008096D01*
X85268840Y-74084727D01*
X85263427Y-74159552D01*
X85252270Y-74224342D01*
X85235714Y-74270873D01*
X85230626Y-74278887D01*
X85170355Y-74338707D01*
X85098769Y-74374535D01*
X85021092Y-74385020D01*
X84942548Y-74368810D01*
X84920689Y-74359092D01*
X84878122Y-74329143D01*
X84840763Y-74289433D01*
X84837232Y-74284397D01*
X84822881Y-74260124D01*
X84813394Y-74234178D01*
X84807790Y-74200022D01*
X84805086Y-74151119D01*
X84804299Y-74080935D01*
X84804286Y-74065200D01*
X84804322Y-74060192D01*
X84949429Y-74060192D01*
X84950273Y-74126430D01*
X84953596Y-74170386D01*
X84960583Y-74198779D01*
X84972416Y-74218325D01*
X84978457Y-74224857D01*
X85013186Y-74249680D01*
X85046903Y-74248548D01*
X85080995Y-74227016D01*
X85101329Y-74204029D01*
X85113371Y-74170478D01*
X85120134Y-74117569D01*
X85120598Y-74111399D01*
X85121752Y-74015513D01*
X85109688Y-73944299D01*
X85084570Y-73898194D01*
X85046560Y-73877635D01*
X85032992Y-73876514D01*
X84997364Y-73882152D01*
X84972994Y-73901686D01*
X84958093Y-73939042D01*
X84950875Y-73998150D01*
X84949429Y-74060192D01*
X84804322Y-74060192D01*
X84804826Y-73990413D01*
X84807096Y-73938159D01*
G37*
X84807096Y-73938159D02*
X84812068Y-73901949D01*
X84820713Y-73875299D01*
X84834005Y-73851722D01*
X84836943Y-73847338D01*
X84886313Y-73788249D01*
X84940109Y-73753947D01*
X85005602Y-73740331D01*
X85027842Y-73739665D01*
X85111115Y-73751962D01*
X85179145Y-73787733D01*
X85229351Y-73845301D01*
X85247185Y-73882312D01*
X85261063Y-73937882D01*
X85268167Y-74008096D01*
X85268840Y-74084727D01*
X85263427Y-74159552D01*
X85252270Y-74224342D01*
X85235714Y-74270873D01*
X85230626Y-74278887D01*
X85170355Y-74338707D01*
X85098769Y-74374535D01*
X85021092Y-74385020D01*
X84942548Y-74368810D01*
X84920689Y-74359092D01*
X84878122Y-74329143D01*
X84840763Y-74289433D01*
X84837232Y-74284397D01*
X84822881Y-74260124D01*
X84813394Y-74234178D01*
X84807790Y-74200022D01*
X84805086Y-74151119D01*
X84804299Y-74080935D01*
X84804286Y-74065200D01*
X84804322Y-74060192D01*
X84949429Y-74060192D01*
X84950273Y-74126430D01*
X84953596Y-74170386D01*
X84960583Y-74198779D01*
X84972416Y-74218325D01*
X84978457Y-74224857D01*
X85013186Y-74249680D01*
X85046903Y-74248548D01*
X85080995Y-74227016D01*
X85101329Y-74204029D01*
X85113371Y-74170478D01*
X85120134Y-74117569D01*
X85120598Y-74111399D01*
X85121752Y-74015513D01*
X85109688Y-73944299D01*
X85084570Y-73898194D01*
X85046560Y-73877635D01*
X85032992Y-73876514D01*
X84997364Y-73882152D01*
X84972994Y-73901686D01*
X84958093Y-73939042D01*
X84950875Y-73998150D01*
X84949429Y-74060192D01*
X84804322Y-74060192D01*
X84804826Y-73990413D01*
X84807096Y-73938159D01*
G36*
X88599926Y-73779755D02*
G01*
X88665858Y-73804084D01*
X88719273Y-73847117D01*
X88740164Y-73877409D01*
X88762939Y-73932994D01*
X88762466Y-73973186D01*
X88738562Y-74000217D01*
X88729717Y-74004813D01*
X88691530Y-74019144D01*
X88672028Y-74015472D01*
X88665422Y-73991407D01*
X88665086Y-73978114D01*
X88652992Y-73929210D01*
X88621471Y-73894999D01*
X88577659Y-73878476D01*
X88528695Y-73882634D01*
X88488894Y-73904227D01*
X88475450Y-73916544D01*
X88465921Y-73931487D01*
X88459485Y-73954075D01*
X88455317Y-73989328D01*
X88452597Y-74042266D01*
X88450502Y-74117907D01*
X88449960Y-74141857D01*
X88447981Y-74223790D01*
X88445731Y-74281455D01*
X88442357Y-74319608D01*
X88437006Y-74343004D01*
X88428824Y-74356398D01*
X88416959Y-74364545D01*
X88409362Y-74368144D01*
X88377102Y-74380452D01*
X88358111Y-74384514D01*
X88351836Y-74370948D01*
X88348006Y-74329934D01*
X88346600Y-74260999D01*
X88347598Y-74163669D01*
X88347908Y-74148657D01*
X88350101Y-74059859D01*
X88352693Y-73995019D01*
X88356382Y-73949067D01*
X88361864Y-73916935D01*
X88369835Y-73893553D01*
X88380993Y-73873852D01*
X88386830Y-73865410D01*
X88420296Y-73828057D01*
X88457727Y-73799003D01*
X88462309Y-73796467D01*
X88529426Y-73776443D01*
X88599926Y-73779755D01*
G37*
X88599926Y-73779755D02*
X88665858Y-73804084D01*
X88719273Y-73847117D01*
X88740164Y-73877409D01*
X88762939Y-73932994D01*
X88762466Y-73973186D01*
X88738562Y-74000217D01*
X88729717Y-74004813D01*
X88691530Y-74019144D01*
X88672028Y-74015472D01*
X88665422Y-73991407D01*
X88665086Y-73978114D01*
X88652992Y-73929210D01*
X88621471Y-73894999D01*
X88577659Y-73878476D01*
X88528695Y-73882634D01*
X88488894Y-73904227D01*
X88475450Y-73916544D01*
X88465921Y-73931487D01*
X88459485Y-73954075D01*
X88455317Y-73989328D01*
X88452597Y-74042266D01*
X88450502Y-74117907D01*
X88449960Y-74141857D01*
X88447981Y-74223790D01*
X88445731Y-74281455D01*
X88442357Y-74319608D01*
X88437006Y-74343004D01*
X88428824Y-74356398D01*
X88416959Y-74364545D01*
X88409362Y-74368144D01*
X88377102Y-74380452D01*
X88358111Y-74384514D01*
X88351836Y-74370948D01*
X88348006Y-74329934D01*
X88346600Y-74260999D01*
X88347598Y-74163669D01*
X88347908Y-74148657D01*
X88350101Y-74059859D01*
X88352693Y-73995019D01*
X88356382Y-73949067D01*
X88361864Y-73916935D01*
X88369835Y-73893553D01*
X88380993Y-73873852D01*
X88386830Y-73865410D01*
X88420296Y-73828057D01*
X88457727Y-73799003D01*
X88462309Y-73796467D01*
X88529426Y-73776443D01*
X88599926Y-73779755D01*
G36*
X86786093Y-73757780D02*
G01*
X86832672Y-73784723D01*
X86865057Y-73811466D01*
X86888742Y-73839484D01*
X86905059Y-73873748D01*
X86915339Y-73919227D01*
X86920914Y-73980892D01*
X86923116Y-74063711D01*
X86923371Y-74123246D01*
X86923371Y-74342391D01*
X86861686Y-74370044D01*
X86800000Y-74397697D01*
X86792743Y-74157670D01*
X86789744Y-74068028D01*
X86786598Y-74002962D01*
X86782701Y-73958026D01*
X86777447Y-73928770D01*
X86770231Y-73910748D01*
X86760450Y-73899511D01*
X86757312Y-73897079D01*
X86709761Y-73878083D01*
X86661697Y-73885600D01*
X86633086Y-73905543D01*
X86621447Y-73919675D01*
X86613391Y-73938220D01*
X86608271Y-73966334D01*
X86605441Y-74009173D01*
X86604256Y-74071895D01*
X86604057Y-74137261D01*
X86604018Y-74219268D01*
X86602614Y-74277316D01*
X86597914Y-74316465D01*
X86587987Y-74341780D01*
X86570903Y-74358323D01*
X86544732Y-74371156D01*
X86509775Y-74384491D01*
X86471596Y-74399007D01*
X86476141Y-74141389D01*
X86477971Y-74048519D01*
X86480112Y-73979889D01*
X86483181Y-73930711D01*
X86487794Y-73896198D01*
X86494568Y-73871562D01*
X86504119Y-73852016D01*
X86515634Y-73834770D01*
X86571190Y-73779680D01*
X86638980Y-73747822D01*
X86712713Y-73740191D01*
X86786093Y-73757780D01*
G37*
X86786093Y-73757780D02*
X86832672Y-73784723D01*
X86865057Y-73811466D01*
X86888742Y-73839484D01*
X86905059Y-73873748D01*
X86915339Y-73919227D01*
X86920914Y-73980892D01*
X86923116Y-74063711D01*
X86923371Y-74123246D01*
X86923371Y-74342391D01*
X86861686Y-74370044D01*
X86800000Y-74397697D01*
X86792743Y-74157670D01*
X86789744Y-74068028D01*
X86786598Y-74002962D01*
X86782701Y-73958026D01*
X86777447Y-73928770D01*
X86770231Y-73910748D01*
X86760450Y-73899511D01*
X86757312Y-73897079D01*
X86709761Y-73878083D01*
X86661697Y-73885600D01*
X86633086Y-73905543D01*
X86621447Y-73919675D01*
X86613391Y-73938220D01*
X86608271Y-73966334D01*
X86605441Y-74009173D01*
X86604256Y-74071895D01*
X86604057Y-74137261D01*
X86604018Y-74219268D01*
X86602614Y-74277316D01*
X86597914Y-74316465D01*
X86587987Y-74341780D01*
X86570903Y-74358323D01*
X86544732Y-74371156D01*
X86509775Y-74384491D01*
X86471596Y-74399007D01*
X86476141Y-74141389D01*
X86477971Y-74048519D01*
X86480112Y-73979889D01*
X86483181Y-73930711D01*
X86487794Y-73896198D01*
X86494568Y-73871562D01*
X86504119Y-73852016D01*
X86515634Y-73834770D01*
X86571190Y-73779680D01*
X86638980Y-73747822D01*
X86712713Y-73740191D01*
X86786093Y-73757780D01*
G36*
X87445886Y-73681289D02*
G01*
X87450139Y-73740613D01*
X87455025Y-73775572D01*
X87461795Y-73790820D01*
X87471702Y-73791015D01*
X87474914Y-73789195D01*
X87517644Y-73776015D01*
X87573227Y-73776785D01*
X87629737Y-73790333D01*
X87665082Y-73807861D01*
X87701321Y-73835861D01*
X87727813Y-73867549D01*
X87745999Y-73907813D01*
X87757322Y-73961543D01*
X87763222Y-74033626D01*
X87765143Y-74128951D01*
X87765177Y-74147237D01*
X87765200Y-74352646D01*
X87719491Y-74368580D01*
X87687027Y-74379420D01*
X87669215Y-74384468D01*
X87668691Y-74384514D01*
X87666937Y-74370828D01*
X87665444Y-74333076D01*
X87664326Y-74276224D01*
X87663697Y-74205234D01*
X87663600Y-74162073D01*
X87663398Y-74076973D01*
X87662358Y-74015981D01*
X87659831Y-73974177D01*
X87655164Y-73946642D01*
X87647707Y-73928456D01*
X87636811Y-73914698D01*
X87630007Y-73908073D01*
X87583272Y-73881375D01*
X87532272Y-73879375D01*
X87486001Y-73901955D01*
X87477444Y-73910107D01*
X87464893Y-73925436D01*
X87456188Y-73943618D01*
X87450631Y-73969909D01*
X87447526Y-74009562D01*
X87446176Y-74067832D01*
X87445886Y-74148173D01*
X87445886Y-74352646D01*
X87400177Y-74368580D01*
X87367713Y-74379420D01*
X87349901Y-74384468D01*
X87349377Y-74384514D01*
X87348037Y-74370623D01*
X87346828Y-74331439D01*
X87345801Y-74270700D01*
X87345002Y-74192141D01*
X87344481Y-74099498D01*
X87344286Y-73996509D01*
X87344286Y-73599342D01*
X87391457Y-73579444D01*
X87438629Y-73559547D01*
X87445886Y-73681289D01*
G37*
X87445886Y-73681289D02*
X87450139Y-73740613D01*
X87455025Y-73775572D01*
X87461795Y-73790820D01*
X87471702Y-73791015D01*
X87474914Y-73789195D01*
X87517644Y-73776015D01*
X87573227Y-73776785D01*
X87629737Y-73790333D01*
X87665082Y-73807861D01*
X87701321Y-73835861D01*
X87727813Y-73867549D01*
X87745999Y-73907813D01*
X87757322Y-73961543D01*
X87763222Y-74033626D01*
X87765143Y-74128951D01*
X87765177Y-74147237D01*
X87765200Y-74352646D01*
X87719491Y-74368580D01*
X87687027Y-74379420D01*
X87669215Y-74384468D01*
X87668691Y-74384514D01*
X87666937Y-74370828D01*
X87665444Y-74333076D01*
X87664326Y-74276224D01*
X87663697Y-74205234D01*
X87663600Y-74162073D01*
X87663398Y-74076973D01*
X87662358Y-74015981D01*
X87659831Y-73974177D01*
X87655164Y-73946642D01*
X87647707Y-73928456D01*
X87636811Y-73914698D01*
X87630007Y-73908073D01*
X87583272Y-73881375D01*
X87532272Y-73879375D01*
X87486001Y-73901955D01*
X87477444Y-73910107D01*
X87464893Y-73925436D01*
X87456188Y-73943618D01*
X87450631Y-73969909D01*
X87447526Y-74009562D01*
X87446176Y-74067832D01*
X87445886Y-74148173D01*
X87445886Y-74352646D01*
X87400177Y-74368580D01*
X87367713Y-74379420D01*
X87349901Y-74384468D01*
X87349377Y-74384514D01*
X87348037Y-74370623D01*
X87346828Y-74331439D01*
X87345801Y-74270700D01*
X87345002Y-74192141D01*
X87344481Y-74099498D01*
X87344286Y-73996509D01*
X87344286Y-73599342D01*
X87391457Y-73579444D01*
X87438629Y-73559547D01*
X87445886Y-73681289D01*
G36*
X88109744Y-73780968D02*
G01*
X88166616Y-73802087D01*
X88167267Y-73802493D01*
X88202440Y-73828380D01*
X88228407Y-73858633D01*
X88246670Y-73898058D01*
X88258732Y-73951462D01*
X88266096Y-74023651D01*
X88270264Y-74119432D01*
X88270629Y-74133078D01*
X88275876Y-74338842D01*
X88231716Y-74361678D01*
X88199763Y-74377110D01*
X88180470Y-74384423D01*
X88179578Y-74384514D01*
X88176239Y-74371022D01*
X88173587Y-74334626D01*
X88171956Y-74281452D01*
X88171600Y-74238393D01*
X88171592Y-74168641D01*
X88168403Y-74124837D01*
X88157288Y-74103944D01*
X88133501Y-74102925D01*
X88092296Y-74118741D01*
X88030086Y-74147815D01*
X87984341Y-74171963D01*
X87960813Y-74192913D01*
X87953896Y-74215747D01*
X87953886Y-74216877D01*
X87965299Y-74256212D01*
X87999092Y-74277462D01*
X88050809Y-74280539D01*
X88088061Y-74280006D01*
X88107703Y-74290735D01*
X88119952Y-74316505D01*
X88127002Y-74349337D01*
X88116842Y-74367966D01*
X88113017Y-74370632D01*
X88077001Y-74381340D01*
X88026566Y-74382856D01*
X87974626Y-74375759D01*
X87937822Y-74362788D01*
X87886938Y-74319585D01*
X87858014Y-74259446D01*
X87852286Y-74212462D01*
X87856657Y-74170082D01*
X87872475Y-74135488D01*
X87903797Y-74104763D01*
X87954678Y-74073990D01*
X88029176Y-74039252D01*
X88033714Y-74037288D01*
X88100821Y-74006287D01*
X88142232Y-73980862D01*
X88159981Y-73958014D01*
X88156107Y-73934745D01*
X88132643Y-73908056D01*
X88125627Y-73901914D01*
X88078630Y-73878100D01*
X88029933Y-73879103D01*
X87987522Y-73902451D01*
X87959384Y-73945675D01*
X87956769Y-73954160D01*
X87931308Y-73995308D01*
X87899001Y-74015128D01*
X87852286Y-74034770D01*
X87852286Y-73983950D01*
X87866496Y-73910082D01*
X87908675Y-73842327D01*
X87930624Y-73819661D01*
X87980517Y-73790569D01*
X88043967Y-73777400D01*
X88109744Y-73780968D01*
G37*
X88109744Y-73780968D02*
X88166616Y-73802087D01*
X88167267Y-73802493D01*
X88202440Y-73828380D01*
X88228407Y-73858633D01*
X88246670Y-73898058D01*
X88258732Y-73951462D01*
X88266096Y-74023651D01*
X88270264Y-74119432D01*
X88270629Y-74133078D01*
X88275876Y-74338842D01*
X88231716Y-74361678D01*
X88199763Y-74377110D01*
X88180470Y-74384423D01*
X88179578Y-74384514D01*
X88176239Y-74371022D01*
X88173587Y-74334626D01*
X88171956Y-74281452D01*
X88171600Y-74238393D01*
X88171592Y-74168641D01*
X88168403Y-74124837D01*
X88157288Y-74103944D01*
X88133501Y-74102925D01*
X88092296Y-74118741D01*
X88030086Y-74147815D01*
X87984341Y-74171963D01*
X87960813Y-74192913D01*
X87953896Y-74215747D01*
X87953886Y-74216877D01*
X87965299Y-74256212D01*
X87999092Y-74277462D01*
X88050809Y-74280539D01*
X88088061Y-74280006D01*
X88107703Y-74290735D01*
X88119952Y-74316505D01*
X88127002Y-74349337D01*
X88116842Y-74367966D01*
X88113017Y-74370632D01*
X88077001Y-74381340D01*
X88026566Y-74382856D01*
X87974626Y-74375759D01*
X87937822Y-74362788D01*
X87886938Y-74319585D01*
X87858014Y-74259446D01*
X87852286Y-74212462D01*
X87856657Y-74170082D01*
X87872475Y-74135488D01*
X87903797Y-74104763D01*
X87954678Y-74073990D01*
X88029176Y-74039252D01*
X88033714Y-74037288D01*
X88100821Y-74006287D01*
X88142232Y-73980862D01*
X88159981Y-73958014D01*
X88156107Y-73934745D01*
X88132643Y-73908056D01*
X88125627Y-73901914D01*
X88078630Y-73878100D01*
X88029933Y-73879103D01*
X87987522Y-73902451D01*
X87959384Y-73945675D01*
X87956769Y-73954160D01*
X87931308Y-73995308D01*
X87899001Y-74015128D01*
X87852286Y-74034770D01*
X87852286Y-73983950D01*
X87866496Y-73910082D01*
X87908675Y-73842327D01*
X87930624Y-73819661D01*
X87980517Y-73790569D01*
X88043967Y-73777400D01*
X88109744Y-73780968D01*
G36*
X85941550Y-73866212D02*
G01*
X85975456Y-73817302D01*
X86036653Y-73767878D01*
X86104063Y-73743359D01*
X86172880Y-73741797D01*
X86238303Y-73761239D01*
X86295527Y-73799735D01*
X86339749Y-73855335D01*
X86366167Y-73926086D01*
X86371510Y-73978162D01*
X86370903Y-73999893D01*
X86365822Y-74016531D01*
X86351855Y-74031437D01*
X86324589Y-74047973D01*
X86279612Y-74069498D01*
X86212511Y-74099374D01*
X86212171Y-74099524D01*
X86150407Y-74127813D01*
X86099759Y-74152933D01*
X86065404Y-74172179D01*
X86052518Y-74182848D01*
X86052514Y-74182934D01*
X86063872Y-74206166D01*
X86090431Y-74231774D01*
X86120923Y-74250221D01*
X86136370Y-74253886D01*
X86178515Y-74241212D01*
X86214808Y-74209471D01*
X86232517Y-74174572D01*
X86249552Y-74148845D01*
X86282922Y-74119546D01*
X86322149Y-74094235D01*
X86356756Y-74080471D01*
X86363993Y-74079714D01*
X86372139Y-74092160D01*
X86372630Y-74123972D01*
X86366643Y-74166866D01*
X86355357Y-74212558D01*
X86339950Y-74252761D01*
X86339171Y-74254322D01*
X86292804Y-74319062D01*
X86232711Y-74363097D01*
X86164465Y-74384711D01*
X86093638Y-74382185D01*
X86025804Y-74353804D01*
X86022788Y-74351808D01*
X85969427Y-74303448D01*
X85934340Y-74240352D01*
X85914922Y-74157387D01*
X85912316Y-74134078D01*
X85907701Y-74024055D01*
X85913233Y-73972748D01*
X86052514Y-73972748D01*
X86054324Y-74004753D01*
X86064222Y-74014093D01*
X86088898Y-74007105D01*
X86127795Y-73990587D01*
X86171275Y-73969881D01*
X86172356Y-73969333D01*
X86209209Y-73949949D01*
X86224000Y-73937013D01*
X86220353Y-73923451D01*
X86204995Y-73905632D01*
X86165923Y-73879845D01*
X86123846Y-73877950D01*
X86086103Y-73896717D01*
X86060034Y-73932915D01*
X86052514Y-73972748D01*
X85913233Y-73972748D01*
X85917194Y-73936027D01*
X85941550Y-73866212D01*
G37*
X85941550Y-73866212D02*
X85975456Y-73817302D01*
X86036653Y-73767878D01*
X86104063Y-73743359D01*
X86172880Y-73741797D01*
X86238303Y-73761239D01*
X86295527Y-73799735D01*
X86339749Y-73855335D01*
X86366167Y-73926086D01*
X86371510Y-73978162D01*
X86370903Y-73999893D01*
X86365822Y-74016531D01*
X86351855Y-74031437D01*
X86324589Y-74047973D01*
X86279612Y-74069498D01*
X86212511Y-74099374D01*
X86212171Y-74099524D01*
X86150407Y-74127813D01*
X86099759Y-74152933D01*
X86065404Y-74172179D01*
X86052518Y-74182848D01*
X86052514Y-74182934D01*
X86063872Y-74206166D01*
X86090431Y-74231774D01*
X86120923Y-74250221D01*
X86136370Y-74253886D01*
X86178515Y-74241212D01*
X86214808Y-74209471D01*
X86232517Y-74174572D01*
X86249552Y-74148845D01*
X86282922Y-74119546D01*
X86322149Y-74094235D01*
X86356756Y-74080471D01*
X86363993Y-74079714D01*
X86372139Y-74092160D01*
X86372630Y-74123972D01*
X86366643Y-74166866D01*
X86355357Y-74212558D01*
X86339950Y-74252761D01*
X86339171Y-74254322D01*
X86292804Y-74319062D01*
X86232711Y-74363097D01*
X86164465Y-74384711D01*
X86093638Y-74382185D01*
X86025804Y-74353804D01*
X86022788Y-74351808D01*
X85969427Y-74303448D01*
X85934340Y-74240352D01*
X85914922Y-74157387D01*
X85912316Y-74134078D01*
X85907701Y-74024055D01*
X85913233Y-73972748D01*
X86052514Y-73972748D01*
X86054324Y-74004753D01*
X86064222Y-74014093D01*
X86088898Y-74007105D01*
X86127795Y-73990587D01*
X86171275Y-73969881D01*
X86172356Y-73969333D01*
X86209209Y-73949949D01*
X86224000Y-73937013D01*
X86220353Y-73923451D01*
X86204995Y-73905632D01*
X86165923Y-73879845D01*
X86123846Y-73877950D01*
X86086103Y-73896717D01*
X86060034Y-73932915D01*
X86052514Y-73972748D01*
X85913233Y-73972748D01*
X85917194Y-73936027D01*
X85941550Y-73866212D01*
G36*
X90722600Y-73788752D02*
G01*
X90739948Y-73796334D01*
X90781356Y-73829128D01*
X90816765Y-73876547D01*
X90838664Y-73927151D01*
X90842229Y-73952098D01*
X90830279Y-73986927D01*
X90804067Y-74005357D01*
X90775964Y-74016516D01*
X90763095Y-74018572D01*
X90756829Y-74003649D01*
X90744456Y-73971175D01*
X90739028Y-73956502D01*
X90708590Y-73905744D01*
X90664520Y-73880427D01*
X90608010Y-73881206D01*
X90603825Y-73882203D01*
X90573655Y-73896507D01*
X90551476Y-73924393D01*
X90536327Y-73969287D01*
X90527250Y-74034615D01*
X90523286Y-74123804D01*
X90522914Y-74171261D01*
X90522730Y-74246071D01*
X90521522Y-74297069D01*
X90518309Y-74329471D01*
X90512109Y-74348495D01*
X90501940Y-74359356D01*
X90486819Y-74367272D01*
X90485946Y-74367670D01*
X90456828Y-74379981D01*
X90442403Y-74384514D01*
X90440186Y-74370809D01*
X90438289Y-74332925D01*
X90436847Y-74275715D01*
X90435998Y-74204027D01*
X90435829Y-74151565D01*
X90436692Y-74050047D01*
X90440070Y-73973032D01*
X90447142Y-73916023D01*
X90459088Y-73874526D01*
X90477090Y-73844043D01*
X90502327Y-73820080D01*
X90527247Y-73803355D01*
X90587171Y-73781097D01*
X90656911Y-73776076D01*
X90722600Y-73788752D01*
G37*
X90722600Y-73788752D02*
X90739948Y-73796334D01*
X90781356Y-73829128D01*
X90816765Y-73876547D01*
X90838664Y-73927151D01*
X90842229Y-73952098D01*
X90830279Y-73986927D01*
X90804067Y-74005357D01*
X90775964Y-74016516D01*
X90763095Y-74018572D01*
X90756829Y-74003649D01*
X90744456Y-73971175D01*
X90739028Y-73956502D01*
X90708590Y-73905744D01*
X90664520Y-73880427D01*
X90608010Y-73881206D01*
X90603825Y-73882203D01*
X90573655Y-73896507D01*
X90551476Y-73924393D01*
X90536327Y-73969287D01*
X90527250Y-74034615D01*
X90523286Y-74123804D01*
X90522914Y-74171261D01*
X90522730Y-74246071D01*
X90521522Y-74297069D01*
X90518309Y-74329471D01*
X90512109Y-74348495D01*
X90501940Y-74359356D01*
X90486819Y-74367272D01*
X90485946Y-74367670D01*
X90456828Y-74379981D01*
X90442403Y-74384514D01*
X90440186Y-74370809D01*
X90438289Y-74332925D01*
X90436847Y-74275715D01*
X90435998Y-74204027D01*
X90435829Y-74151565D01*
X90436692Y-74050047D01*
X90440070Y-73973032D01*
X90447142Y-73916023D01*
X90459088Y-73874526D01*
X90477090Y-73844043D01*
X90502327Y-73820080D01*
X90527247Y-73803355D01*
X90587171Y-73781097D01*
X90656911Y-73776076D01*
X90722600Y-73788752D01*
D13*
%TO.C,SW1*%
X102770942Y-72187734D02*
G75*
G03*
X102770942Y-72187734I-1170942J0D01*
G01*
X103327457Y-72187734D02*
G75*
G03*
X103327457Y-72187734I-1727457J0D01*
G01*
%TO.C,designedby*%
G36*
X99832787Y-87088606D02*
G01*
X99870952Y-87120298D01*
X99882538Y-87164937D01*
X99867906Y-87214765D01*
X99832039Y-87245946D01*
X99786979Y-87254668D01*
X99744769Y-87237115D01*
X99726793Y-87214257D01*
X99714341Y-87158722D01*
X99734056Y-87112049D01*
X99777280Y-87086644D01*
X99832787Y-87088606D01*
G37*
G36*
X101160438Y-87910540D02*
G01*
X101173532Y-87941938D01*
X101173899Y-87952911D01*
X101165384Y-87990227D01*
X101132435Y-88005896D01*
X101120386Y-88007614D01*
X101072234Y-88002068D01*
X101055197Y-87983340D01*
X101050637Y-87933570D01*
X101077265Y-87903323D01*
X101120386Y-87898209D01*
X101160438Y-87910540D01*
G37*
G36*
X99837196Y-85786933D02*
G01*
X99871150Y-85815506D01*
X99877915Y-85857403D01*
X99852022Y-85902824D01*
X99805997Y-85930938D01*
X99763608Y-85920771D01*
X99747492Y-85905280D01*
X99728788Y-85860184D01*
X99736715Y-85815266D01*
X99767174Y-85785397D01*
X99781657Y-85781352D01*
X99837196Y-85786933D01*
G37*
G36*
X102472490Y-85393231D02*
G01*
X102492344Y-85442596D01*
X102494388Y-85469401D01*
X102490485Y-85514643D01*
X102471047Y-85534436D01*
X102431143Y-85541346D01*
X102377241Y-85537487D01*
X102356786Y-85518484D01*
X102350387Y-85461547D01*
X102367998Y-85407835D01*
X102392438Y-85381982D01*
X102436945Y-85371104D01*
X102472490Y-85393231D01*
G37*
G36*
X102066516Y-87088414D02*
G01*
X102103372Y-87121916D01*
X102115718Y-87176453D01*
X102100905Y-87222163D01*
X102064981Y-87249659D01*
X102020719Y-87256069D01*
X101980890Y-87238523D01*
X101962639Y-87210860D01*
X101953694Y-87149094D01*
X101975893Y-87104668D01*
X102011486Y-87086387D01*
X102066516Y-87088414D01*
G37*
G36*
X107332165Y-85387194D02*
G01*
X107369691Y-85420665D01*
X107379072Y-85465051D01*
X107363469Y-85508278D01*
X107326041Y-85538274D01*
X107290871Y-85544960D01*
X107246308Y-85534444D01*
X107226788Y-85521657D01*
X107202222Y-85476390D01*
X107208126Y-85431217D01*
X107237229Y-85395413D01*
X107282265Y-85378252D01*
X107332165Y-85387194D01*
G37*
G36*
X106028891Y-85389818D02*
G01*
X106053605Y-85432186D01*
X106053977Y-85484656D01*
X106034464Y-85521657D01*
X105991405Y-85542746D01*
X105942494Y-85539200D01*
X105906156Y-85512770D01*
X105904096Y-85509262D01*
X105893091Y-85458048D01*
X105909167Y-85412522D01*
X105943626Y-85381009D01*
X105987766Y-85371836D01*
X106028891Y-85389818D01*
G37*
G36*
X104717081Y-84995266D02*
G01*
X104750896Y-85034161D01*
X104756697Y-85069196D01*
X104741034Y-85122494D01*
X104695980Y-85151686D01*
X104656401Y-85156581D01*
X104602705Y-85140881D01*
X104580611Y-85115287D01*
X104568556Y-85060135D01*
X104587332Y-85012907D01*
X104630553Y-84985016D01*
X104655302Y-84981810D01*
X104717081Y-84995266D01*
G37*
G36*
X102647167Y-85377518D02*
G01*
X102691134Y-85404994D01*
X102705735Y-85454344D01*
X102696015Y-85501992D01*
X102666036Y-85535448D01*
X102619948Y-85545121D01*
X102574117Y-85528529D01*
X102566238Y-85521657D01*
X102541980Y-85475683D01*
X102547684Y-85428210D01*
X102576892Y-85390742D01*
X102623146Y-85374781D01*
X102647167Y-85377518D01*
G37*
G36*
X100627688Y-85393231D02*
G01*
X100647543Y-85442596D01*
X100649587Y-85469401D01*
X100645684Y-85514643D01*
X100626246Y-85534436D01*
X100586342Y-85541346D01*
X100532439Y-85537487D01*
X100511985Y-85518484D01*
X100505586Y-85461547D01*
X100523197Y-85407835D01*
X100547637Y-85381982D01*
X100592144Y-85371104D01*
X100627688Y-85393231D01*
G37*
G36*
X100221348Y-87496339D02*
G01*
X100256594Y-87523966D01*
X100270684Y-87562495D01*
X100258524Y-87601318D01*
X100233356Y-87622106D01*
X100185984Y-87640454D01*
X100152980Y-87631284D01*
X100135871Y-87614148D01*
X100117167Y-87569052D01*
X100125095Y-87524134D01*
X100155553Y-87494266D01*
X100170036Y-87490220D01*
X100221348Y-87496339D01*
G37*
G36*
X106748182Y-86198453D02*
G01*
X106769773Y-86232621D01*
X106764448Y-86271670D01*
X106734960Y-86305366D01*
X106691853Y-86306820D01*
X106669240Y-86294828D01*
X106643328Y-86258090D01*
X106649352Y-86219921D01*
X106683295Y-86193576D01*
X106701133Y-86189590D01*
X106748182Y-86198453D01*
G37*
G36*
X101986221Y-83435616D02*
G01*
X102075666Y-83485687D01*
X102084097Y-83492274D01*
X102139861Y-83537150D01*
X102091722Y-83593115D01*
X102043583Y-83649079D01*
X101990295Y-83607163D01*
X101923372Y-83568506D01*
X101853336Y-83550347D01*
X101788803Y-83551928D01*
X101738387Y-83572489D01*
X101710701Y-83611269D01*
X101707920Y-83632062D01*
X101724556Y-83674760D01*
X101765878Y-83716925D01*
X101819009Y-83748156D01*
X101864314Y-83758343D01*
X101912932Y-83769647D01*
X101975388Y-83798200D01*
X102038540Y-83836231D01*
X102089246Y-83875970D01*
X102112709Y-83905209D01*
X102136466Y-83995477D01*
X102126402Y-84078254D01*
X102087349Y-84149859D01*
X102024135Y-84206615D01*
X101941592Y-84244841D01*
X101844549Y-84260858D01*
X101737837Y-84250988D01*
X101680408Y-84234503D01*
X101618100Y-84204639D01*
X101563804Y-84166465D01*
X101557234Y-84160287D01*
X101510119Y-84113173D01*
X101569671Y-84070768D01*
X101629223Y-84028364D01*
X101683778Y-84068698D01*
X101753778Y-84106253D01*
X101825772Y-84121865D01*
X101891678Y-84117032D01*
X101943416Y-84093249D01*
X101972905Y-84052013D01*
X101976103Y-84014567D01*
X101969311Y-83987930D01*
X101951175Y-83966510D01*
X101914351Y-83945478D01*
X101851496Y-83920009D01*
X101808075Y-83904124D01*
X101700677Y-83861348D01*
X101625780Y-83820397D01*
X101577577Y-83776701D01*
X101550262Y-83725690D01*
X101542439Y-83695043D01*
X101542950Y-83608862D01*
X101574744Y-83535190D01*
X101631629Y-83476346D01*
X101707412Y-83434649D01*
X101795901Y-83412416D01*
X101890901Y-83411965D01*
X101986221Y-83435616D01*
G37*
G36*
X100225617Y-86590479D02*
G01*
X100246297Y-86627473D01*
X100244010Y-86667220D01*
X100241896Y-86671086D01*
X100211861Y-86688982D01*
X100171860Y-86686137D01*
X100143376Y-86664604D01*
X100142007Y-86661550D01*
X100138844Y-86614441D01*
X100163010Y-86581719D01*
X100191323Y-86574165D01*
X100225617Y-86590479D01*
G37*
G36*
X101354628Y-86201672D02*
G01*
X101367722Y-86233070D01*
X101368088Y-86244043D01*
X101359573Y-86281358D01*
X101326625Y-86297027D01*
X101314576Y-86298745D01*
X101266424Y-86293200D01*
X101249386Y-86274472D01*
X101244827Y-86224701D01*
X101271455Y-86194455D01*
X101314576Y-86189340D01*
X101354628Y-86201672D01*
G37*
G36*
X107333301Y-85793497D02*
G01*
X107351287Y-85818787D01*
X107355538Y-85843847D01*
X107348235Y-85898118D01*
X107315234Y-85928631D01*
X107290871Y-85932745D01*
X107258193Y-85923208D01*
X107245623Y-85916371D01*
X107228417Y-85886090D01*
X107226204Y-85843847D01*
X107236817Y-85803590D01*
X107264718Y-85789037D01*
X107290871Y-85787697D01*
X107333301Y-85793497D01*
G37*
G36*
X102291636Y-86704909D02*
G01*
X102324238Y-86745246D01*
X102329327Y-86778064D01*
X102313515Y-86831528D01*
X102268696Y-86860870D01*
X102232232Y-86865449D01*
X102184876Y-86856972D01*
X102158440Y-86842147D01*
X102138984Y-86804288D01*
X102135137Y-86778064D01*
X102150949Y-86724601D01*
X102195767Y-86695258D01*
X102232232Y-86690679D01*
X102291636Y-86704909D01*
G37*
G36*
X102273495Y-86190598D02*
G01*
X102288704Y-86213295D01*
X102290489Y-86244043D01*
X102285677Y-86285306D01*
X102262980Y-86300515D01*
X102232232Y-86302300D01*
X102190969Y-86297488D01*
X102175760Y-86274790D01*
X102173975Y-86244043D01*
X102178787Y-86202779D01*
X102201484Y-86187571D01*
X102232232Y-86185786D01*
X102273495Y-86190598D01*
G37*
G36*
X104882776Y-88290001D02*
G01*
X104907115Y-88317875D01*
X104908556Y-88346058D01*
X104889540Y-88381730D01*
X104855443Y-88396802D01*
X104821577Y-88387967D01*
X104807002Y-88367998D01*
X104808532Y-88328101D01*
X104834940Y-88296792D01*
X104873215Y-88287461D01*
X104882776Y-88290001D01*
G37*
G36*
X102473177Y-83055707D02*
G01*
X102509933Y-83095387D01*
X102522442Y-83147407D01*
X102506169Y-83200218D01*
X102488004Y-83221385D01*
X102432512Y-83250044D01*
X102374693Y-83245464D01*
X102340423Y-83223007D01*
X102312428Y-83172156D01*
X102314984Y-83117294D01*
X102343173Y-83070228D01*
X102392074Y-83042766D01*
X102416712Y-83039914D01*
X102473177Y-83055707D01*
G37*
G36*
X101356961Y-85595928D02*
G01*
X101389887Y-85627141D01*
X101392021Y-85669672D01*
X101366701Y-85708634D01*
X101319156Y-85736019D01*
X101272476Y-85730757D01*
X101241472Y-85699578D01*
X101227527Y-85645378D01*
X101244327Y-85603916D01*
X101287459Y-85584304D01*
X101297547Y-85583798D01*
X101356961Y-85595928D01*
G37*
G36*
X102845437Y-87691962D02*
G01*
X102881767Y-87722237D01*
X102892477Y-87760416D01*
X102875715Y-87798593D01*
X102834774Y-87821277D01*
X102790527Y-87821869D01*
X102763139Y-87799384D01*
X102755007Y-87759517D01*
X102765427Y-87718203D01*
X102793698Y-87691378D01*
X102796314Y-87690459D01*
X102845437Y-87691962D01*
G37*
G36*
X100622884Y-86190598D02*
G01*
X100638092Y-86213295D01*
X100639877Y-86244043D01*
X100635065Y-86285306D01*
X100612368Y-86300515D01*
X100581620Y-86302300D01*
X100540357Y-86297488D01*
X100525148Y-86274790D01*
X100523363Y-86244043D01*
X100528175Y-86202779D01*
X100550873Y-86187571D01*
X100581620Y-86185786D01*
X100622884Y-86190598D01*
G37*
G36*
X103770191Y-87896721D02*
G01*
X103800252Y-87929052D01*
X103800130Y-87967428D01*
X103773096Y-87998163D01*
X103743723Y-88007442D01*
X103700917Y-88003259D01*
X103679030Y-87972524D01*
X103678232Y-87970084D01*
X103679352Y-87924250D01*
X103707260Y-87894271D01*
X103750488Y-87889295D01*
X103770191Y-87896721D01*
G37*
G36*
X100035500Y-86202768D02*
G01*
X100047456Y-86237030D01*
X100047599Y-86244043D01*
X100038499Y-86282111D01*
X100004016Y-86297508D01*
X99996677Y-86298495D01*
X99950652Y-86292431D01*
X99934175Y-86274222D01*
X99929853Y-86224981D01*
X99956059Y-86194700D01*
X99996677Y-86189590D01*
X100035500Y-86202768D01*
G37*
G36*
X105562975Y-83665925D02*
G01*
X105578973Y-83628342D01*
X105631393Y-83552859D01*
X105701978Y-83484698D01*
X105777101Y-83436228D01*
X105801524Y-83426342D01*
X105881140Y-83413220D01*
X105972441Y-83417458D01*
X106058723Y-83436935D01*
X106119646Y-83466739D01*
X106158356Y-83493297D01*
X106182102Y-83505824D01*
X106183204Y-83505969D01*
X106187513Y-83487889D01*
X106190964Y-83438995D01*
X106193146Y-83367311D01*
X106193700Y-83302070D01*
X106193700Y-83098171D01*
X106349051Y-83098171D01*
X106349051Y-84243890D01*
X106271376Y-84243890D01*
X106221435Y-84241365D01*
X106199233Y-84228919D01*
X106193759Y-84199244D01*
X106193700Y-84192333D01*
X106191355Y-84157177D01*
X106178592Y-84155822D01*
X106159006Y-84172173D01*
X106071020Y-84227438D01*
X105965720Y-84255771D01*
X105855890Y-84254788D01*
X105795611Y-84240004D01*
X105717264Y-84196085D01*
X105643294Y-84125599D01*
X105584524Y-84040277D01*
X105560513Y-83985210D01*
X105539861Y-83880320D01*
X105540465Y-83819255D01*
X105710558Y-83819255D01*
X105716540Y-83910378D01*
X105743660Y-83992960D01*
X105791870Y-84057272D01*
X105822438Y-84078769D01*
X105898798Y-84103355D01*
X105982911Y-84104761D01*
X106058342Y-84083699D01*
X106084665Y-84067405D01*
X106153076Y-83990102D01*
X106188708Y-83893186D01*
X106193700Y-83834845D01*
X106180563Y-83751757D01*
X106145930Y-83671068D01*
X106096970Y-83606670D01*
X106062783Y-83581133D01*
X105989482Y-83560066D01*
X105905424Y-83561842D01*
X105830599Y-83585576D01*
X105819949Y-83591918D01*
X105762213Y-83650297D01*
X105725766Y-83729319D01*
X105710558Y-83819255D01*
X105540465Y-83819255D01*
X105540969Y-83768343D01*
X105562975Y-83665925D01*
G37*
G36*
X100622884Y-87899466D02*
G01*
X100638092Y-87922163D01*
X100639877Y-87952911D01*
X100635065Y-87994175D01*
X100612368Y-88009383D01*
X100581620Y-88011168D01*
X100540357Y-88006356D01*
X100525148Y-87983659D01*
X100523363Y-87952911D01*
X100528175Y-87911648D01*
X100550873Y-87896439D01*
X100581620Y-87894654D01*
X100622884Y-87899466D01*
G37*
G36*
X103587808Y-87910540D02*
G01*
X103600902Y-87941938D01*
X103601269Y-87952911D01*
X103592754Y-87990227D01*
X103559805Y-88005896D01*
X103547756Y-88007614D01*
X103499604Y-88002068D01*
X103482567Y-87983340D01*
X103478007Y-87933570D01*
X103504635Y-87903323D01*
X103547756Y-87898209D01*
X103587808Y-87910540D01*
G37*
G36*
X104707144Y-87905368D02*
G01*
X104724881Y-87923783D01*
X104727774Y-87972362D01*
X104699641Y-88004163D01*
X104666624Y-88011168D01*
X104626105Y-88000454D01*
X104608367Y-87982040D01*
X104605475Y-87933461D01*
X104633607Y-87901660D01*
X104666624Y-87894654D01*
X104707144Y-87905368D01*
G37*
G36*
X105089800Y-88103367D02*
G01*
X105115332Y-88138290D01*
X105114205Y-88173768D01*
X105087744Y-88198092D01*
X105046440Y-88204310D01*
X105009138Y-88192028D01*
X104996747Y-88176229D01*
X104993545Y-88129360D01*
X105017170Y-88096518D01*
X105044994Y-88088844D01*
X105089800Y-88103367D01*
G37*
G36*
X104903381Y-87907322D02*
G01*
X104924972Y-87941489D01*
X104919647Y-87980538D01*
X104890159Y-88014235D01*
X104847051Y-88015688D01*
X104824439Y-88003696D01*
X104798527Y-87966959D01*
X104804551Y-87928790D01*
X104838494Y-87902445D01*
X104856332Y-87898459D01*
X104903381Y-87907322D01*
G37*
G36*
X103391252Y-87502365D02*
G01*
X103409238Y-87527656D01*
X103413489Y-87552715D01*
X103406186Y-87606986D01*
X103373185Y-87637500D01*
X103348822Y-87641613D01*
X103316144Y-87632076D01*
X103303574Y-87625239D01*
X103286368Y-87594958D01*
X103284155Y-87552715D01*
X103294768Y-87512458D01*
X103322669Y-87497905D01*
X103348822Y-87496566D01*
X103391252Y-87502365D01*
G37*
G36*
X101330758Y-87691962D02*
G01*
X101367088Y-87722237D01*
X101377798Y-87760416D01*
X101361649Y-87800150D01*
X101323414Y-87821360D01*
X101278412Y-87815980D01*
X101275347Y-87814367D01*
X101247297Y-87781158D01*
X101243385Y-87737893D01*
X101262763Y-87701281D01*
X101281635Y-87690459D01*
X101330758Y-87691962D01*
G37*
G36*
X105109858Y-87102776D02*
G01*
X105135814Y-87142054D01*
X105134408Y-87194616D01*
X105126050Y-87214257D01*
X105090192Y-87245668D01*
X105040664Y-87252438D01*
X104995503Y-87232350D01*
X104993608Y-87230526D01*
X104972060Y-87186087D01*
X104977485Y-87136341D01*
X105007668Y-87099326D01*
X105009877Y-87098084D01*
X105065045Y-87085285D01*
X105109858Y-87102776D01*
G37*
G36*
X100047851Y-85389818D02*
G01*
X100072565Y-85432186D01*
X100072937Y-85484656D01*
X100053425Y-85521657D01*
X100010366Y-85542746D01*
X99961454Y-85539200D01*
X99925116Y-85512770D01*
X99923056Y-85509262D01*
X99912051Y-85458048D01*
X99928127Y-85412522D01*
X99962586Y-85381009D01*
X100006727Y-85371836D01*
X100047851Y-85389818D01*
G37*
G36*
X107945618Y-83432175D02*
G01*
X108044510Y-83438003D01*
X108139867Y-83661321D01*
X108180762Y-83756723D01*
X108220147Y-83847950D01*
X108253344Y-83924206D01*
X108274474Y-83972024D01*
X108313725Y-84059410D01*
X108347812Y-83972024D01*
X108368044Y-83918871D01*
X108397399Y-83840119D01*
X108431826Y-83746704D01*
X108464764Y-83656466D01*
X108547629Y-83428293D01*
X108644684Y-83428293D01*
X108705040Y-83431405D01*
X108731373Y-83441548D01*
X108732286Y-83452567D01*
X108722490Y-83476753D01*
X108700094Y-83531546D01*
X108667275Y-83611637D01*
X108626209Y-83711715D01*
X108579074Y-83826470D01*
X108547183Y-83904058D01*
X108494729Y-84032156D01*
X108444699Y-84155302D01*
X108399855Y-84266614D01*
X108362966Y-84359210D01*
X108336795Y-84426210D01*
X108328657Y-84447789D01*
X108303249Y-84512641D01*
X108280219Y-84564317D01*
X108266568Y-84588576D01*
X108239610Y-84602526D01*
X108194670Y-84610752D01*
X108146272Y-84612562D01*
X108108940Y-84607264D01*
X108096758Y-84596672D01*
X108104048Y-84572514D01*
X108123467Y-84522235D01*
X108151343Y-84455191D01*
X108162279Y-84429814D01*
X108227801Y-84279134D01*
X108037263Y-83852741D01*
X107846726Y-83426348D01*
X107945618Y-83432175D01*
G37*
G36*
X99844448Y-85588113D02*
G01*
X99866391Y-85607487D01*
X99874330Y-85631417D01*
X99873352Y-85687883D01*
X99845059Y-85725980D01*
X99799086Y-85738682D01*
X99749905Y-85722181D01*
X99732698Y-85691900D01*
X99730486Y-85649657D01*
X99741489Y-85609339D01*
X99770586Y-85591776D01*
X99799341Y-85587472D01*
X99844448Y-85588113D01*
G37*
G36*
X103973435Y-85786933D02*
G01*
X104007388Y-85815506D01*
X104014154Y-85857403D01*
X103988261Y-85902824D01*
X103942236Y-85930938D01*
X103899846Y-85920771D01*
X103883731Y-85905280D01*
X103865027Y-85860184D01*
X103872954Y-85815266D01*
X103903412Y-85785397D01*
X103917896Y-85781352D01*
X103973435Y-85786933D01*
G37*
G36*
X102266215Y-87090825D02*
G01*
X102293641Y-87124598D01*
X102306468Y-87172126D01*
X102302257Y-87216425D01*
X102287189Y-87236860D01*
X102242163Y-87251992D01*
X102195579Y-87249573D01*
X102164699Y-87231084D01*
X102162120Y-87226112D01*
X102154679Y-87170887D01*
X102170324Y-87122348D01*
X102202070Y-87089576D01*
X102242930Y-87081649D01*
X102266215Y-87090825D01*
G37*
G36*
X101548818Y-86201672D02*
G01*
X101561912Y-86233070D01*
X101562278Y-86244043D01*
X101553763Y-86281358D01*
X101520814Y-86297027D01*
X101508765Y-86298745D01*
X101460613Y-86293200D01*
X101443576Y-86274472D01*
X101439016Y-86224701D01*
X101465645Y-86194455D01*
X101508765Y-86189340D01*
X101548818Y-86201672D01*
G37*
G36*
X103402807Y-86901167D02*
G01*
X103432655Y-86945046D01*
X103436207Y-86972254D01*
X103425691Y-87016817D01*
X103412905Y-87036336D01*
X103375046Y-87055792D01*
X103348822Y-87059639D01*
X103304259Y-87049123D01*
X103284740Y-87036336D01*
X103260909Y-86989926D01*
X103267102Y-86940614D01*
X103297862Y-86901298D01*
X103347732Y-86884875D01*
X103348822Y-86884868D01*
X103402807Y-86901167D01*
G37*
G36*
X106564679Y-85802879D02*
G01*
X106580588Y-85844424D01*
X106571236Y-85891115D01*
X106561773Y-85905280D01*
X106521425Y-85931364D01*
X106476691Y-85919151D01*
X106457243Y-85902824D01*
X106431324Y-85857270D01*
X106438178Y-85815398D01*
X106472203Y-85786878D01*
X106527608Y-85781352D01*
X106564679Y-85802879D01*
G37*
G36*
X101363816Y-85192299D02*
G01*
X101393664Y-85236178D01*
X101397217Y-85263385D01*
X101380918Y-85317370D01*
X101337039Y-85347218D01*
X101309831Y-85350771D01*
X101265268Y-85340254D01*
X101245749Y-85327468D01*
X101221918Y-85281058D01*
X101228111Y-85231746D01*
X101258871Y-85192430D01*
X101308741Y-85176006D01*
X101309831Y-85176000D01*
X101363816Y-85192299D01*
G37*
G36*
X99831351Y-87687055D02*
G01*
X99855341Y-87713900D01*
X99863134Y-87757886D01*
X99854593Y-87801076D01*
X99832402Y-87824610D01*
X99804253Y-87834420D01*
X99785580Y-87830381D01*
X99757914Y-87810840D01*
X99733195Y-87774444D01*
X99736779Y-87733181D01*
X99761794Y-87698639D01*
X99801363Y-87682407D01*
X99831351Y-87687055D01*
G37*
G36*
X101352261Y-87502365D02*
G01*
X101370248Y-87527656D01*
X101374498Y-87552715D01*
X101367195Y-87606986D01*
X101334195Y-87637500D01*
X101309831Y-87641613D01*
X101277153Y-87632076D01*
X101264584Y-87625239D01*
X101247377Y-87594958D01*
X101245165Y-87552715D01*
X101255777Y-87512458D01*
X101283678Y-87497905D01*
X101309831Y-87496566D01*
X101352261Y-87502365D01*
G37*
G36*
X103377019Y-87690459D02*
G01*
X103410523Y-87719040D01*
X103416788Y-87749637D01*
X103401627Y-87796393D01*
X103364611Y-87821358D01*
X103318444Y-87816505D01*
X103314337Y-87814367D01*
X103284980Y-87781582D01*
X103283863Y-87741802D01*
X103305125Y-87706618D01*
X103342902Y-87687618D01*
X103377019Y-87690459D01*
G37*
G36*
X101387507Y-86778064D02*
G01*
X101385278Y-86828016D01*
X101371556Y-86851243D01*
X101335791Y-86859848D01*
X101314530Y-86861776D01*
X101257503Y-86859776D01*
X101231189Y-86840682D01*
X101230551Y-86839143D01*
X101224454Y-86799114D01*
X101225853Y-86755431D01*
X101233848Y-86719929D01*
X101254856Y-86704220D01*
X101300911Y-86700419D01*
X101309831Y-86700388D01*
X101387507Y-86700388D01*
X101387507Y-86778064D01*
G37*
G36*
X103967589Y-87687055D02*
G01*
X103991579Y-87713900D01*
X103999372Y-87757886D01*
X103990831Y-87801076D01*
X103968641Y-87824610D01*
X103940491Y-87834420D01*
X103921818Y-87830381D01*
X103894153Y-87810840D01*
X103869433Y-87774444D01*
X103873018Y-87733181D01*
X103898032Y-87698639D01*
X103937602Y-87682407D01*
X103967589Y-87687055D01*
G37*
G36*
X102708076Y-83724080D02*
G01*
X102720904Y-83665347D01*
X102744223Y-83615506D01*
X102766569Y-83581486D01*
X102850104Y-83493557D01*
X102951204Y-83436525D01*
X103062744Y-83412157D01*
X103177602Y-83422224D01*
X103268254Y-83456876D01*
X103320597Y-83483783D01*
X103347421Y-83492869D01*
X103357227Y-83485048D01*
X103358532Y-83466585D01*
X103364426Y-83442624D01*
X103388660Y-83431298D01*
X103441056Y-83428302D01*
X103445917Y-83428293D01*
X103533302Y-83428293D01*
X103533194Y-83840946D01*
X103532245Y-84002711D01*
X103529033Y-84131028D01*
X103522867Y-84231258D01*
X103513055Y-84308760D01*
X103498907Y-84368893D01*
X103479732Y-84417016D01*
X103454838Y-84458489D01*
X103453287Y-84460686D01*
X103387521Y-84522714D01*
X103295396Y-84568425D01*
X103186906Y-84595165D01*
X103072048Y-84600279D01*
X102979862Y-84586407D01*
X102904887Y-84564080D01*
X102843439Y-84539657D01*
X102804478Y-84517122D01*
X102795382Y-84504398D01*
X102803427Y-84481924D01*
X102822912Y-84441179D01*
X102824121Y-84438833D01*
X102852860Y-84383258D01*
X102950552Y-84420378D01*
X103055620Y-84450830D01*
X103145436Y-84453839D01*
X103230394Y-84430421D01*
X103303768Y-84383191D01*
X103345852Y-84314446D01*
X103358532Y-84226850D01*
X103357294Y-84175097D01*
X103350911Y-84155529D01*
X103335374Y-84161508D01*
X103324548Y-84170572D01*
X103224909Y-84233886D01*
X103114743Y-84260644D01*
X102999150Y-84249847D01*
X102968195Y-84240543D01*
X102872072Y-84193795D01*
X102797273Y-84123741D01*
X102746628Y-84045877D01*
X102718661Y-83989233D01*
X102703843Y-83939439D01*
X102699224Y-83880899D01*
X102700737Y-83829568D01*
X102861407Y-83829568D01*
X102871999Y-83909838D01*
X102902996Y-83977088D01*
X102953151Y-84040599D01*
X103010137Y-84085830D01*
X103028409Y-84094292D01*
X103108611Y-84105816D01*
X103197971Y-84090645D01*
X103236692Y-84075447D01*
X103296197Y-84028902D01*
X103344414Y-83958029D01*
X103372894Y-83877231D01*
X103377098Y-83836092D01*
X103364104Y-83764498D01*
X103330596Y-83689715D01*
X103284784Y-83626693D01*
X103244508Y-83594642D01*
X103152175Y-83565523D01*
X103063491Y-83570266D01*
X102984263Y-83603958D01*
X102920300Y-83661682D01*
X102877412Y-83738523D01*
X102861407Y-83829568D01*
X102700737Y-83829568D01*
X102701412Y-83806656D01*
X102708076Y-83724080D01*
G37*
G36*
X105102018Y-87911490D02*
G01*
X105120322Y-87937836D01*
X105121981Y-87946743D01*
X105112727Y-87990059D01*
X105079676Y-88014833D01*
X105036280Y-88013516D01*
X105019424Y-88004277D01*
X104991579Y-87967466D01*
X104996793Y-87931604D01*
X105030698Y-87908018D01*
X105057957Y-87904364D01*
X105102018Y-87911490D01*
G37*
G36*
X102467685Y-87899466D02*
G01*
X102482894Y-87922163D01*
X102484678Y-87952911D01*
X102479867Y-87994175D01*
X102457169Y-88009383D01*
X102426421Y-88011168D01*
X102385158Y-88006356D01*
X102369949Y-87983659D01*
X102368165Y-87952911D01*
X102372976Y-87911648D01*
X102395674Y-87896439D01*
X102426421Y-87894654D01*
X102467685Y-87899466D01*
G37*
G36*
X103201762Y-85595928D02*
G01*
X103234688Y-85627141D01*
X103236822Y-85669672D01*
X103211502Y-85708634D01*
X103163958Y-85736019D01*
X103117277Y-85730757D01*
X103086274Y-85699578D01*
X103072328Y-85645378D01*
X103089128Y-85603916D01*
X103132260Y-85584304D01*
X103142348Y-85583798D01*
X103201762Y-85595928D01*
G37*
G36*
X103414889Y-87319610D02*
G01*
X103417266Y-87322370D01*
X103432012Y-87356386D01*
X103420060Y-87400046D01*
X103386063Y-87437776D01*
X103340322Y-87448151D01*
X103297371Y-87430216D01*
X103280856Y-87409180D01*
X103271384Y-87360650D01*
X103290371Y-87320861D01*
X103327496Y-87296380D01*
X103372442Y-87293774D01*
X103414889Y-87319610D01*
G37*
G36*
X104706073Y-85597391D02*
G01*
X104726857Y-85615528D01*
X104733978Y-85649657D01*
X104725383Y-85701271D01*
X104693703Y-85733270D01*
X104650511Y-85740256D01*
X104607383Y-85716833D01*
X104602232Y-85711090D01*
X104586083Y-85670247D01*
X104585290Y-85638269D01*
X104596711Y-85607384D01*
X104626953Y-85595040D01*
X104659602Y-85593508D01*
X104706073Y-85597391D01*
G37*
G36*
X100627688Y-87102100D02*
G01*
X100647543Y-87151464D01*
X100649587Y-87178269D01*
X100645684Y-87223512D01*
X100626246Y-87243304D01*
X100586342Y-87250214D01*
X100532439Y-87246356D01*
X100511985Y-87227353D01*
X100505586Y-87170415D01*
X100523197Y-87116703D01*
X100547637Y-87090850D01*
X100592144Y-87079972D01*
X100627688Y-87102100D01*
G37*
G36*
X102467685Y-86190598D02*
G01*
X102482894Y-86213295D01*
X102484678Y-86244043D01*
X102479867Y-86285306D01*
X102457169Y-86300515D01*
X102426421Y-86302300D01*
X102385158Y-86297488D01*
X102369949Y-86274790D01*
X102368165Y-86244043D01*
X102372976Y-86202779D01*
X102395674Y-86187571D01*
X102426421Y-86185786D01*
X102467685Y-86190598D01*
G37*
G36*
X105432610Y-86201672D02*
G01*
X105445704Y-86233070D01*
X105446070Y-86244043D01*
X105437555Y-86281358D01*
X105404606Y-86297027D01*
X105392557Y-86298745D01*
X105344405Y-86293200D01*
X105327368Y-86274472D01*
X105322808Y-86224701D01*
X105349437Y-86194455D01*
X105392557Y-86189340D01*
X105432610Y-86201672D01*
G37*
G36*
X99837196Y-87495801D02*
G01*
X99871150Y-87524375D01*
X99877915Y-87566272D01*
X99852022Y-87611692D01*
X99805997Y-87639806D01*
X99763608Y-87629639D01*
X99747492Y-87614148D01*
X99728788Y-87569052D01*
X99736715Y-87524134D01*
X99767174Y-87494266D01*
X99781657Y-87490220D01*
X99837196Y-87495801D01*
G37*
G36*
X106946820Y-86202622D02*
G01*
X106965124Y-86228968D01*
X106966782Y-86237874D01*
X106957528Y-86281191D01*
X106924478Y-86305964D01*
X106881081Y-86304647D01*
X106864225Y-86295409D01*
X106836380Y-86258597D01*
X106841595Y-86222736D01*
X106875499Y-86199149D01*
X106902758Y-86195495D01*
X106946820Y-86202622D01*
G37*
G36*
X107114654Y-86580633D02*
G01*
X107139967Y-86606420D01*
X107140700Y-86643454D01*
X107119925Y-86675709D01*
X107094298Y-86686851D01*
X107056877Y-86680149D01*
X107042230Y-86664465D01*
X107043182Y-86625047D01*
X107067107Y-86591661D01*
X107102063Y-86578133D01*
X107114654Y-86580633D01*
G37*
G36*
X103426498Y-86778064D02*
G01*
X103424268Y-86828016D01*
X103410547Y-86851243D01*
X103374782Y-86859848D01*
X103353521Y-86861776D01*
X103296493Y-86859776D01*
X103270180Y-86840682D01*
X103269542Y-86839143D01*
X103263445Y-86799114D01*
X103264843Y-86755431D01*
X103272839Y-86719929D01*
X103293847Y-86704220D01*
X103339902Y-86700419D01*
X103348822Y-86700388D01*
X103426498Y-86700388D01*
X103426498Y-86778064D01*
G37*
G36*
X104903381Y-86198453D02*
G01*
X104924972Y-86232621D01*
X104919647Y-86271670D01*
X104890159Y-86305366D01*
X104847051Y-86306820D01*
X104824439Y-86294828D01*
X104798527Y-86258090D01*
X104804551Y-86219921D01*
X104838494Y-86193576D01*
X104856332Y-86189590D01*
X104903381Y-86198453D01*
G37*
G36*
X104519658Y-88319978D02*
G01*
X104520437Y-88353792D01*
X104498744Y-88383305D01*
X104460150Y-88397762D01*
X104424467Y-88390469D01*
X104420921Y-88387420D01*
X104406667Y-88350449D01*
X104420232Y-88311818D01*
X104447948Y-88292123D01*
X104494420Y-88291556D01*
X104519658Y-88319978D01*
G37*
G36*
X103175560Y-85983093D02*
G01*
X103211889Y-86013368D01*
X103222599Y-86051548D01*
X103206450Y-86091281D01*
X103168216Y-86112492D01*
X103123214Y-86107112D01*
X103120148Y-86105498D01*
X103092098Y-86072290D01*
X103088187Y-86029024D01*
X103107564Y-85992412D01*
X103126436Y-85981591D01*
X103175560Y-85983093D01*
G37*
G36*
X105078618Y-87691962D02*
G01*
X105114947Y-87722237D01*
X105125657Y-87760416D01*
X105108896Y-87798593D01*
X105067955Y-87821277D01*
X105023707Y-87821869D01*
X104996320Y-87799384D01*
X104988187Y-87759517D01*
X104998607Y-87718203D01*
X105026878Y-87691378D01*
X105029494Y-87690459D01*
X105078618Y-87691962D01*
G37*
G36*
X107141478Y-86201672D02*
G01*
X107154572Y-86233070D01*
X107154938Y-86244043D01*
X107146423Y-86281358D01*
X107113475Y-86297027D01*
X107101426Y-86298745D01*
X107053274Y-86293200D01*
X107036237Y-86274472D01*
X107031677Y-86224701D01*
X107058305Y-86194455D01*
X107101426Y-86189340D01*
X107141478Y-86201672D01*
G37*
G36*
X107348936Y-86004903D02*
G01*
X107358837Y-86041538D01*
X107343546Y-86087879D01*
X107306313Y-86112546D01*
X107260101Y-86107445D01*
X107256386Y-86105498D01*
X107229267Y-86073167D01*
X107224232Y-86030310D01*
X107240921Y-85993863D01*
X107259007Y-85982755D01*
X107312933Y-85979660D01*
X107348936Y-86004903D01*
G37*
G36*
X105416010Y-85981591D02*
G01*
X105447029Y-86008597D01*
X105455516Y-86052326D01*
X105439272Y-86096416D01*
X105432477Y-86104226D01*
X105406864Y-86124014D01*
X105380435Y-86120777D01*
X105353830Y-86106555D01*
X105324253Y-86072722D01*
X105323122Y-86032301D01*
X105344618Y-85996989D01*
X105382921Y-85978481D01*
X105416010Y-85981591D01*
G37*
G36*
X104513700Y-86196596D02*
G01*
X104532449Y-86230347D01*
X104527953Y-86268316D01*
X104502020Y-86296138D01*
X104463147Y-86302300D01*
X104423431Y-86297216D01*
X104408805Y-86273771D01*
X104407155Y-86244043D01*
X104412019Y-86202738D01*
X104434597Y-86187523D01*
X104463794Y-86185786D01*
X104513700Y-86196596D01*
G37*
G36*
X107164648Y-83098171D02*
G01*
X107164648Y-83524218D01*
X107233259Y-83477657D01*
X107338329Y-83426458D01*
X107444178Y-83410537D01*
X107545656Y-83426791D01*
X107637616Y-83472114D01*
X107714906Y-83543402D01*
X107772378Y-83637550D01*
X107804882Y-83751455D01*
X107810265Y-83825512D01*
X107795032Y-83963545D01*
X107749845Y-84077795D01*
X107675223Y-84167344D01*
X107582155Y-84226606D01*
X107470727Y-84258516D01*
X107359838Y-84252071D01*
X107301158Y-84232559D01*
X107246191Y-84204366D01*
X107202245Y-84174696D01*
X107199209Y-84172053D01*
X107174224Y-84152956D01*
X107165568Y-84164163D01*
X107164648Y-84192333D01*
X107160844Y-84225481D01*
X107142093Y-84240217D01*
X107097384Y-84243851D01*
X107086972Y-84243890D01*
X107009296Y-84243890D01*
X107009296Y-83865102D01*
X107169443Y-83865102D01*
X107169733Y-83867760D01*
X107195449Y-83961549D01*
X107244935Y-84035480D01*
X107311379Y-84086103D01*
X107387970Y-84109969D01*
X107467895Y-84103631D01*
X107544344Y-84063639D01*
X107549018Y-84059803D01*
X107612170Y-83987036D01*
X107643414Y-83899002D01*
X107645361Y-83793379D01*
X107634200Y-83725207D01*
X107610783Y-83676719D01*
X107565889Y-83628879D01*
X107565521Y-83628542D01*
X107486781Y-83577744D01*
X107405424Y-83561189D01*
X107327453Y-83575249D01*
X107258868Y-83616297D01*
X107205670Y-83680707D01*
X107173862Y-83764851D01*
X107169443Y-83865102D01*
X107009296Y-83865102D01*
X107009296Y-83098171D01*
X107164648Y-83098171D01*
G37*
G36*
X105610175Y-85380858D02*
G01*
X105629816Y-85389216D01*
X105661228Y-85425073D01*
X105667997Y-85474602D01*
X105647909Y-85519763D01*
X105646085Y-85521657D01*
X105601646Y-85543205D01*
X105551900Y-85537780D01*
X105514885Y-85507598D01*
X105513644Y-85505389D01*
X105500844Y-85450220D01*
X105518335Y-85405407D01*
X105557613Y-85379452D01*
X105610175Y-85380858D01*
G37*
G36*
X101145458Y-87088986D02*
G01*
X101180740Y-87117795D01*
X101197674Y-87165025D01*
X101191219Y-87212611D01*
X101183399Y-87224952D01*
X101141030Y-87249666D01*
X101088560Y-87250039D01*
X101051559Y-87230526D01*
X101028376Y-87185789D01*
X101035128Y-87139569D01*
X101064819Y-87102410D01*
X101110455Y-87084856D01*
X101145458Y-87088986D01*
G37*
G36*
X106215604Y-86190672D02*
G01*
X106230821Y-86213205D01*
X106232538Y-86241778D01*
X106218064Y-86291023D01*
X106179403Y-86312247D01*
X106140298Y-86307230D01*
X106122867Y-86284045D01*
X106116024Y-86242424D01*
X106121026Y-86202267D01*
X106144249Y-86187475D01*
X106174281Y-86185786D01*
X106215604Y-86190672D01*
G37*
G36*
X103571184Y-87089726D02*
G01*
X103590826Y-87098084D01*
X103622237Y-87133942D01*
X103629006Y-87183470D01*
X103608918Y-87228631D01*
X103607094Y-87230526D01*
X103562655Y-87252074D01*
X103512909Y-87246649D01*
X103475894Y-87216466D01*
X103474653Y-87214257D01*
X103461853Y-87159089D01*
X103479344Y-87114275D01*
X103518622Y-87088320D01*
X103571184Y-87089726D01*
G37*
G36*
X103980686Y-85588113D02*
G01*
X104002629Y-85607487D01*
X104010569Y-85631417D01*
X104009590Y-85687883D01*
X103981298Y-85725980D01*
X103935325Y-85738682D01*
X103886143Y-85722181D01*
X103868937Y-85691900D01*
X103866724Y-85649657D01*
X103877727Y-85609339D01*
X103906824Y-85591776D01*
X103935579Y-85587472D01*
X103980686Y-85588113D01*
G37*
G36*
X102079355Y-85987718D02*
G01*
X102099552Y-86024959D01*
X102099041Y-86069827D01*
X102075032Y-86108251D01*
X102069114Y-86112667D01*
X102043150Y-86125247D01*
X102016366Y-86118676D01*
X101994350Y-86106555D01*
X101965083Y-86072173D01*
X101964280Y-86029929D01*
X101987489Y-85992580D01*
X102030259Y-85972879D01*
X102041243Y-85972177D01*
X102079355Y-85987718D01*
G37*
G36*
X99847957Y-86900916D02*
G01*
X99876158Y-86944942D01*
X99879086Y-86995353D01*
X99866980Y-87035847D01*
X99834799Y-87052813D01*
X99814476Y-87055660D01*
X99764778Y-87052288D01*
X99731945Y-87037212D01*
X99707374Y-86990207D01*
X99713259Y-86940754D01*
X99744252Y-86901448D01*
X99795001Y-86884882D01*
X99796658Y-86884868D01*
X99847957Y-86900916D01*
G37*
G36*
X104513700Y-87905465D02*
G01*
X104532449Y-87939216D01*
X104527953Y-87977185D01*
X104502020Y-88005006D01*
X104463147Y-88011168D01*
X104423431Y-88006085D01*
X104408805Y-87982640D01*
X104407155Y-87952911D01*
X104412019Y-87911607D01*
X104434597Y-87896391D01*
X104463794Y-87894654D01*
X104513700Y-87905465D01*
G37*
G36*
X104703999Y-85384826D02*
G01*
X104740662Y-85414790D01*
X104746769Y-85427758D01*
X104747670Y-85480022D01*
X104722094Y-85520901D01*
X104680585Y-85543399D01*
X104633685Y-85540522D01*
X104605229Y-85521657D01*
X104584194Y-85477012D01*
X104588250Y-85424725D01*
X104610802Y-85389818D01*
X104654691Y-85374821D01*
X104703999Y-85384826D01*
G37*
G36*
X104305206Y-87498746D02*
G01*
X104338223Y-87536804D01*
X104343322Y-87581904D01*
X104323563Y-87621119D01*
X104282010Y-87641522D01*
X104271223Y-87642208D01*
X104230179Y-87628202D01*
X104213740Y-87614012D01*
X104196765Y-87570695D01*
X104207332Y-87528428D01*
X104237172Y-87497631D01*
X104278017Y-87488725D01*
X104305206Y-87498746D01*
G37*
G36*
X106210751Y-85987759D02*
G01*
X106240624Y-86022898D01*
X106251957Y-86056899D01*
X106238405Y-86079403D01*
X106208957Y-86107572D01*
X106180419Y-86126121D01*
X106174281Y-86127529D01*
X106148597Y-86115192D01*
X106127120Y-86097013D01*
X106101420Y-86050866D01*
X106108445Y-86007373D01*
X106143529Y-85978106D01*
X106177481Y-85972177D01*
X106210751Y-85987759D01*
G37*
G36*
X101352261Y-85793497D02*
G01*
X101370248Y-85818787D01*
X101374498Y-85843847D01*
X101367195Y-85898118D01*
X101334195Y-85928631D01*
X101309831Y-85932745D01*
X101277153Y-85923208D01*
X101264584Y-85916371D01*
X101247377Y-85886090D01*
X101245165Y-85843847D01*
X101255777Y-85803590D01*
X101283678Y-85789037D01*
X101309831Y-85787697D01*
X101352261Y-85793497D01*
G37*
G36*
X102861272Y-85597391D02*
G01*
X102882056Y-85615528D01*
X102889177Y-85649657D01*
X102880582Y-85701271D01*
X102848902Y-85733270D01*
X102805710Y-85740256D01*
X102762582Y-85716833D01*
X102757431Y-85711090D01*
X102741282Y-85670247D01*
X102740489Y-85638269D01*
X102751910Y-85607384D01*
X102782152Y-85595040D01*
X102814801Y-85593508D01*
X102861272Y-85597391D01*
G37*
G36*
X102669010Y-87904523D02*
G01*
X102685487Y-87922732D01*
X102689293Y-87971709D01*
X102660536Y-88002837D01*
X102617244Y-88011168D01*
X102577045Y-88006826D01*
X102564423Y-87986201D01*
X102565919Y-87957766D01*
X102580126Y-87915863D01*
X102616912Y-87899268D01*
X102622985Y-87898459D01*
X102669010Y-87904523D01*
G37*
G36*
X101313198Y-84985404D02*
G01*
X101360801Y-84991625D01*
X101381934Y-85007761D01*
X101387341Y-85045925D01*
X101387507Y-85069196D01*
X101385278Y-85119147D01*
X101371555Y-85142374D01*
X101335783Y-85150980D01*
X101314498Y-85152910D01*
X101263598Y-85152903D01*
X101236918Y-85137940D01*
X101225418Y-85115504D01*
X101209347Y-85072060D01*
X101198295Y-85114320D01*
X101172900Y-85146580D01*
X101128349Y-85159922D01*
X101079338Y-85154472D01*
X101040563Y-85130356D01*
X101030157Y-85112888D01*
X101021401Y-85051120D01*
X101046242Y-85008111D01*
X101102893Y-84986605D01*
X101113077Y-84985482D01*
X101163252Y-84985734D01*
X101189525Y-85001762D01*
X101200055Y-85022888D01*
X101216126Y-85066332D01*
X101227507Y-85022810D01*
X101241064Y-84994379D01*
X101269573Y-84984114D01*
X101313198Y-84985404D01*
G37*
G36*
X102066149Y-85787470D02*
G01*
X102101396Y-85815097D01*
X102115485Y-85853626D01*
X102103325Y-85892449D01*
X102078157Y-85913237D01*
X102030785Y-85931585D01*
X101997781Y-85922415D01*
X101980672Y-85905280D01*
X101961969Y-85860184D01*
X101969896Y-85815266D01*
X102000354Y-85785397D01*
X102014837Y-85781352D01*
X102066149Y-85787470D01*
G37*
G36*
X100031386Y-87495801D02*
G01*
X100065339Y-87524375D01*
X100072105Y-87566272D01*
X100046212Y-87611692D01*
X100000187Y-87639806D01*
X99957797Y-87629639D01*
X99941682Y-87614148D01*
X99922978Y-87569052D01*
X99930905Y-87524134D01*
X99961363Y-87494266D01*
X99975847Y-87490220D01*
X100031386Y-87495801D01*
G37*
G36*
X103597798Y-85591811D02*
G01*
X103619518Y-85622227D01*
X103622486Y-85632598D01*
X103623077Y-85682874D01*
X103610769Y-85710273D01*
X103568861Y-85735576D01*
X103519447Y-85734435D01*
X103480013Y-85708133D01*
X103475045Y-85700312D01*
X103464740Y-85648630D01*
X103486870Y-85607044D01*
X103535035Y-85585115D01*
X103553034Y-85583798D01*
X103597798Y-85591811D01*
G37*
G36*
X101548818Y-87910540D02*
G01*
X101561912Y-87941938D01*
X101562278Y-87952911D01*
X101553763Y-87990227D01*
X101520814Y-88005896D01*
X101508765Y-88007614D01*
X101460613Y-88002068D01*
X101443576Y-87983340D01*
X101439016Y-87933570D01*
X101465645Y-87903323D01*
X101508765Y-87898209D01*
X101548818Y-87910540D01*
G37*
G36*
X104685321Y-83615188D02*
G01*
X104756325Y-83526052D01*
X104848567Y-83459030D01*
X104957838Y-83418829D01*
X105079930Y-83410158D01*
X105134568Y-83417153D01*
X105221646Y-83451853D01*
X105299866Y-83516660D01*
X105362722Y-83602916D01*
X105403707Y-83701960D01*
X105416515Y-83792399D01*
X105416941Y-83874930D01*
X104791324Y-83874930D01*
X104804652Y-83928332D01*
X104842425Y-84006714D01*
X104906605Y-84064294D01*
X104989316Y-84098525D01*
X105082684Y-84106861D01*
X105178837Y-84086755D01*
X105226419Y-84064725D01*
X105303341Y-84021492D01*
X105340262Y-84069579D01*
X105365753Y-84109636D01*
X105366318Y-84139866D01*
X105338280Y-84168868D01*
X105283598Y-84202115D01*
X105189089Y-84237867D01*
X105076647Y-84255087D01*
X104963349Y-84252054D01*
X104903998Y-84240344D01*
X104822226Y-84200806D01*
X104743948Y-84134331D01*
X104679962Y-84052126D01*
X104641833Y-83968210D01*
X104623866Y-83840975D01*
X104637463Y-83738997D01*
X104791960Y-83738997D01*
X105017065Y-83738997D01*
X105114918Y-83738307D01*
X105180152Y-83735674D01*
X105218969Y-83730254D01*
X105237572Y-83721204D01*
X105242171Y-83708375D01*
X105229242Y-83676045D01*
X105197049Y-83633282D01*
X105185408Y-83620989D01*
X105114829Y-83575334D01*
X105033181Y-83560714D01*
X104950527Y-83575576D01*
X104876931Y-83618372D01*
X104828793Y-83675929D01*
X104791960Y-83738997D01*
X104637463Y-83738997D01*
X104639765Y-83721732D01*
X104685321Y-83615188D01*
G37*
G36*
X101339648Y-85380117D02*
G01*
X101374930Y-85408926D01*
X101391864Y-85456157D01*
X101385408Y-85503743D01*
X101377588Y-85516084D01*
X101335220Y-85540798D01*
X101282750Y-85541170D01*
X101245749Y-85521657D01*
X101222566Y-85476920D01*
X101229317Y-85430700D01*
X101259009Y-85393542D01*
X101304645Y-85375988D01*
X101339648Y-85380117D01*
G37*
G36*
X102085596Y-85598146D02*
G01*
X102106999Y-85616910D01*
X102112354Y-85638269D01*
X102105238Y-85692309D01*
X102073125Y-85729480D01*
X102038042Y-85739150D01*
X101996950Y-85725144D01*
X101980672Y-85711090D01*
X101964523Y-85670247D01*
X101963731Y-85638269D01*
X101975151Y-85607384D01*
X102005393Y-85595040D01*
X102038042Y-85593508D01*
X102085596Y-85598146D01*
G37*
G36*
X101339648Y-87088986D02*
G01*
X101374930Y-87117795D01*
X101391864Y-87165025D01*
X101385408Y-87212611D01*
X101377588Y-87224952D01*
X101335220Y-87249666D01*
X101282750Y-87250039D01*
X101245749Y-87230526D01*
X101222566Y-87185789D01*
X101229317Y-87139569D01*
X101259009Y-87102410D01*
X101304645Y-87084856D01*
X101339648Y-87088986D01*
G37*
G36*
X104328887Y-87705033D02*
G01*
X104348491Y-87744055D01*
X104348899Y-87751509D01*
X104335485Y-87783903D01*
X104305609Y-87817745D01*
X104274818Y-87836043D01*
X104271223Y-87836397D01*
X104245539Y-87824061D01*
X104224062Y-87805882D01*
X104198919Y-87776911D01*
X104197585Y-87752133D01*
X104213649Y-87718607D01*
X104247035Y-87688798D01*
X104290258Y-87685444D01*
X104328887Y-87705033D01*
G37*
G36*
X102669288Y-86199019D02*
G01*
X102691441Y-86234506D01*
X102685890Y-86273171D01*
X102659555Y-86294906D01*
X102618533Y-86302300D01*
X102578690Y-86297240D01*
X102564015Y-86273860D01*
X102562354Y-86244043D01*
X102567233Y-86202725D01*
X102589780Y-86187508D01*
X102618533Y-86185786D01*
X102669288Y-86199019D01*
G37*
G36*
X101330758Y-85983093D02*
G01*
X101367088Y-86013368D01*
X101377798Y-86051548D01*
X101361649Y-86091281D01*
X101323414Y-86112492D01*
X101278412Y-86107112D01*
X101275347Y-86105498D01*
X101247297Y-86072290D01*
X101243385Y-86029024D01*
X101262763Y-85992412D01*
X101281635Y-85981591D01*
X101330758Y-85983093D01*
G37*
G36*
X103197062Y-85793497D02*
G01*
X103215049Y-85818787D01*
X103219299Y-85843847D01*
X103211996Y-85898118D01*
X103178996Y-85928631D01*
X103154633Y-85932745D01*
X103121955Y-85923208D01*
X103109385Y-85916371D01*
X103092178Y-85886090D01*
X103089966Y-85843847D01*
X103100579Y-85803590D01*
X103128479Y-85789037D01*
X103154633Y-85787697D01*
X103197062Y-85793497D01*
G37*
G36*
X101356961Y-87304797D02*
G01*
X101389887Y-87336009D01*
X101392021Y-87378540D01*
X101366701Y-87417503D01*
X101319156Y-87444888D01*
X101272476Y-87439626D01*
X101241472Y-87408447D01*
X101227527Y-87354246D01*
X101244327Y-87312784D01*
X101287459Y-87293173D01*
X101297547Y-87292667D01*
X101356961Y-87304797D01*
G37*
G36*
X99834991Y-87899155D02*
G01*
X99858128Y-87933005D01*
X99859442Y-87959080D01*
X99839567Y-87992372D01*
X99802162Y-88008763D01*
X99763158Y-88005280D01*
X99739376Y-87981502D01*
X99728940Y-87949242D01*
X99736004Y-87928581D01*
X99757663Y-87905789D01*
X99796926Y-87887687D01*
X99834991Y-87899155D01*
G37*
G36*
X100221715Y-85379546D02*
G01*
X100258571Y-85413048D01*
X100270917Y-85467584D01*
X100256104Y-85513295D01*
X100220180Y-85540790D01*
X100175918Y-85547201D01*
X100136089Y-85529655D01*
X100117838Y-85501992D01*
X100108892Y-85440226D01*
X100131092Y-85395800D01*
X100166685Y-85377518D01*
X100221715Y-85379546D01*
G37*
G36*
X100423901Y-87696628D02*
G01*
X100453774Y-87731766D01*
X100465107Y-87765767D01*
X100451555Y-87788272D01*
X100422107Y-87816440D01*
X100393568Y-87834989D01*
X100387431Y-87836397D01*
X100361747Y-87824061D01*
X100340270Y-87805882D01*
X100314569Y-87759734D01*
X100321595Y-87716242D01*
X100356679Y-87686974D01*
X100390631Y-87681046D01*
X100423901Y-87696628D01*
G37*
G36*
X105442599Y-85591811D02*
G01*
X105464319Y-85622227D01*
X105467287Y-85632598D01*
X105467878Y-85682874D01*
X105455570Y-85710273D01*
X105413662Y-85735576D01*
X105364248Y-85734435D01*
X105324814Y-85708133D01*
X105319847Y-85700312D01*
X105309542Y-85648630D01*
X105331671Y-85607044D01*
X105379836Y-85585115D01*
X105397836Y-85583798D01*
X105442599Y-85591811D01*
G37*
G36*
X102472490Y-87102100D02*
G01*
X102492344Y-87151464D01*
X102494388Y-87178269D01*
X102490485Y-87223512D01*
X102471047Y-87243304D01*
X102431143Y-87250214D01*
X102377241Y-87246356D01*
X102356786Y-87227353D01*
X102350387Y-87170415D01*
X102367998Y-87116703D01*
X102392438Y-87090850D01*
X102436945Y-87079972D01*
X102472490Y-87102100D01*
G37*
G36*
X103989900Y-87098686D02*
G01*
X104014614Y-87141055D01*
X104014986Y-87193525D01*
X103995473Y-87230526D01*
X103952415Y-87251615D01*
X103903503Y-87248068D01*
X103867165Y-87221638D01*
X103865105Y-87218130D01*
X103854100Y-87166917D01*
X103870176Y-87121391D01*
X103904635Y-87089878D01*
X103948776Y-87080705D01*
X103989900Y-87098686D01*
G37*
G36*
X106550875Y-85597391D02*
G01*
X106571658Y-85615528D01*
X106578779Y-85649657D01*
X106570184Y-85701271D01*
X106538504Y-85733270D01*
X106495312Y-85740256D01*
X106452184Y-85716833D01*
X106447033Y-85711090D01*
X106430884Y-85670247D01*
X106430091Y-85638269D01*
X106441512Y-85607384D01*
X106471754Y-85595040D01*
X106504403Y-85593508D01*
X106550875Y-85597391D01*
G37*
G36*
X105424994Y-85789303D02*
G01*
X105457167Y-85821226D01*
X105462843Y-85865130D01*
X105460717Y-85872115D01*
X105430024Y-85917229D01*
X105388675Y-85931738D01*
X105347106Y-85912774D01*
X105340153Y-85905280D01*
X105321043Y-85859357D01*
X105329906Y-85814398D01*
X105362462Y-85784830D01*
X105377015Y-85780998D01*
X105424994Y-85789303D01*
G37*
G36*
X105100444Y-87306848D02*
G01*
X105130255Y-87343071D01*
X105129831Y-87389761D01*
X105098920Y-87431683D01*
X105052870Y-87447429D01*
X105006103Y-87433969D01*
X104989934Y-87419142D01*
X104975428Y-87377171D01*
X104978216Y-87341466D01*
X104996763Y-87304995D01*
X105035433Y-87292978D01*
X105047668Y-87292667D01*
X105100444Y-87306848D01*
G37*
G36*
X103184449Y-87088986D02*
G01*
X103219731Y-87117795D01*
X103236665Y-87165025D01*
X103230210Y-87212611D01*
X103222390Y-87224952D01*
X103180021Y-87249666D01*
X103127551Y-87250039D01*
X103090550Y-87230526D01*
X103067367Y-87185789D01*
X103074119Y-87139569D01*
X103103810Y-87102410D01*
X103149446Y-87084856D01*
X103184449Y-87088986D01*
G37*
G36*
X102859198Y-87093694D02*
G01*
X102895861Y-87123659D01*
X102901968Y-87136627D01*
X102902869Y-87188891D01*
X102877293Y-87229769D01*
X102835784Y-87252268D01*
X102788883Y-87249391D01*
X102760428Y-87230526D01*
X102739392Y-87185880D01*
X102743448Y-87133594D01*
X102766001Y-87098686D01*
X102809889Y-87083690D01*
X102859198Y-87093694D01*
G37*
G36*
X107335668Y-86201672D02*
G01*
X107348762Y-86233070D01*
X107349128Y-86244043D01*
X107340613Y-86281358D01*
X107307664Y-86297027D01*
X107295615Y-86298745D01*
X107247464Y-86293200D01*
X107230426Y-86274472D01*
X107225866Y-86224701D01*
X107252495Y-86194455D01*
X107295615Y-86189340D01*
X107335668Y-86201672D01*
G37*
G36*
X100629174Y-85598146D02*
G01*
X100650577Y-85616910D01*
X100655932Y-85638269D01*
X100648816Y-85692309D01*
X100616703Y-85729480D01*
X100581620Y-85739150D01*
X100540528Y-85725144D01*
X100524250Y-85711090D01*
X100508101Y-85670247D01*
X100507308Y-85638269D01*
X100518729Y-85607384D01*
X100548971Y-85595040D01*
X100581620Y-85593508D01*
X100629174Y-85598146D01*
G37*
G36*
X100639284Y-85996164D02*
G01*
X100658888Y-86035186D01*
X100659296Y-86042640D01*
X100645883Y-86075035D01*
X100616007Y-86108877D01*
X100585215Y-86127175D01*
X100581620Y-86127529D01*
X100555937Y-86115192D01*
X100534460Y-86097013D01*
X100509317Y-86068042D01*
X100507983Y-86043265D01*
X100524047Y-86009739D01*
X100557433Y-85979930D01*
X100600656Y-85976575D01*
X100639284Y-85996164D01*
G37*
G36*
X103580193Y-85789303D02*
G01*
X103612366Y-85821226D01*
X103618042Y-85865130D01*
X103615915Y-85872115D01*
X103585223Y-85917229D01*
X103543873Y-85931738D01*
X103502305Y-85912774D01*
X103495351Y-85905280D01*
X103476242Y-85859357D01*
X103485105Y-85814398D01*
X103517661Y-85784830D01*
X103532214Y-85780998D01*
X103580193Y-85789303D01*
G37*
G36*
X100634223Y-85792037D02*
G01*
X100651385Y-85826787D01*
X100650301Y-85879823D01*
X100624578Y-85917725D01*
X100584424Y-85933647D01*
X100540049Y-85920744D01*
X100527247Y-85910037D01*
X100504389Y-85865860D01*
X100513132Y-85821796D01*
X100547813Y-85788906D01*
X100594844Y-85777988D01*
X100634223Y-85792037D01*
G37*
G36*
X106742990Y-85384826D02*
G01*
X106779653Y-85414790D01*
X106785760Y-85427758D01*
X106786661Y-85480022D01*
X106761085Y-85520901D01*
X106719576Y-85543399D01*
X106672676Y-85540522D01*
X106644220Y-85521657D01*
X106623184Y-85477012D01*
X106627240Y-85424725D01*
X106649793Y-85389818D01*
X106693682Y-85374821D01*
X106742990Y-85384826D01*
G37*
G36*
X103390116Y-87096063D02*
G01*
X103427642Y-87129534D01*
X103437024Y-87173919D01*
X103421420Y-87217147D01*
X103383992Y-87247143D01*
X103348822Y-87253829D01*
X103304259Y-87243312D01*
X103284740Y-87230526D01*
X103260174Y-87185258D01*
X103266077Y-87140085D01*
X103295180Y-87104281D01*
X103340216Y-87087121D01*
X103390116Y-87096063D01*
G37*
G36*
X102279786Y-87307014D02*
G01*
X102301188Y-87325779D01*
X102306544Y-87347138D01*
X102299428Y-87401178D01*
X102267315Y-87438349D01*
X102232232Y-87448018D01*
X102191140Y-87434013D01*
X102174862Y-87419959D01*
X102158713Y-87379116D01*
X102157920Y-87347138D01*
X102169341Y-87316252D01*
X102199583Y-87303909D01*
X102232232Y-87302376D01*
X102279786Y-87307014D01*
G37*
G36*
X103967589Y-85978187D02*
G01*
X103991579Y-86005032D01*
X103999372Y-86049017D01*
X103990831Y-86092208D01*
X103968641Y-86115742D01*
X103940491Y-86125551D01*
X103921818Y-86121513D01*
X103894153Y-86101972D01*
X103869433Y-86065576D01*
X103873018Y-86024313D01*
X103898032Y-85989771D01*
X103937602Y-85973538D01*
X103967589Y-85978187D01*
G37*
G36*
X99639227Y-83720009D02*
G01*
X99649088Y-83672310D01*
X99702312Y-83567562D01*
X99780732Y-83487580D01*
X99877518Y-83435163D01*
X99985836Y-83413108D01*
X100098858Y-83424213D01*
X100180241Y-83454781D01*
X100270917Y-83500687D01*
X100270917Y-83098171D01*
X100445688Y-83098171D01*
X100445688Y-84243890D01*
X100358302Y-84243890D01*
X100303693Y-84241349D01*
X100277870Y-84230797D01*
X100270950Y-84207842D01*
X100270917Y-84205052D01*
X100267799Y-84175408D01*
X100253506Y-84169747D01*
X100220630Y-84188373D01*
X100193056Y-84208259D01*
X100110707Y-84247095D01*
X100012100Y-84259971D01*
X99910281Y-84246416D01*
X99843960Y-84220885D01*
X99745560Y-84151070D01*
X99678124Y-84058597D01*
X99640898Y-83942230D01*
X99633442Y-83875866D01*
X99633224Y-83840029D01*
X99791515Y-83840029D01*
X99803891Y-83929582D01*
X99845134Y-84017548D01*
X99911855Y-84077305D01*
X100000198Y-84105876D01*
X100035058Y-84107957D01*
X100102264Y-84101319D01*
X100157685Y-84084458D01*
X100169612Y-84077650D01*
X100225732Y-84016520D01*
X100261703Y-83932672D01*
X100275525Y-83837722D01*
X100265197Y-83743287D01*
X100238634Y-83676661D01*
X100196315Y-83625845D01*
X100139056Y-83582378D01*
X100127692Y-83576285D01*
X100044085Y-83553334D01*
X99965185Y-83564046D01*
X99895735Y-83603247D01*
X99840479Y-83665760D01*
X99804157Y-83746413D01*
X99791515Y-83840029D01*
X99633224Y-83840029D01*
X99632954Y-83795546D01*
X99639227Y-83720009D01*
G37*
G36*
X104318776Y-87307014D02*
G01*
X104340179Y-87325779D01*
X104345534Y-87347138D01*
X104338418Y-87401178D01*
X104306306Y-87438349D01*
X104271223Y-87448018D01*
X104230131Y-87434013D01*
X104213853Y-87419959D01*
X104197704Y-87379116D01*
X104196911Y-87347138D01*
X104208332Y-87316252D01*
X104238574Y-87303909D01*
X104271223Y-87302376D01*
X104318776Y-87307014D01*
G37*
G36*
X104690238Y-85983093D02*
G01*
X104726568Y-86013368D01*
X104737278Y-86051548D01*
X104720517Y-86089724D01*
X104679575Y-86112409D01*
X104635328Y-86113000D01*
X104607941Y-86090515D01*
X104599808Y-86050648D01*
X104610228Y-86009334D01*
X104638499Y-85982510D01*
X104641115Y-85981591D01*
X104690238Y-85983093D01*
G37*
G36*
X99844448Y-87296982D02*
G01*
X99866391Y-87316355D01*
X99874330Y-87340285D01*
X99873352Y-87396752D01*
X99845059Y-87434849D01*
X99799086Y-87447550D01*
X99749905Y-87431050D01*
X99732698Y-87400769D01*
X99730486Y-87358526D01*
X99741489Y-87318207D01*
X99770586Y-87300644D01*
X99799341Y-87296341D01*
X99844448Y-87296982D01*
G37*
G36*
X107356938Y-85610742D02*
G01*
X107359315Y-85613502D01*
X107374061Y-85647517D01*
X107362109Y-85691177D01*
X107328112Y-85728907D01*
X107282370Y-85739282D01*
X107239420Y-85721348D01*
X107222905Y-85700312D01*
X107213433Y-85651782D01*
X107232420Y-85611993D01*
X107269545Y-85587512D01*
X107314491Y-85584906D01*
X107356938Y-85610742D01*
G37*
G36*
X102647167Y-87086387D02*
G01*
X102691134Y-87113863D01*
X102705735Y-87163212D01*
X102696015Y-87210860D01*
X102666036Y-87244317D01*
X102619948Y-87253989D01*
X102574117Y-87237398D01*
X102566238Y-87230526D01*
X102541980Y-87184551D01*
X102547684Y-87137079D01*
X102576892Y-87099611D01*
X102623146Y-87083650D01*
X102647167Y-87086387D01*
G37*
G36*
X100024229Y-86589900D02*
G01*
X100049281Y-86625720D01*
X100050381Y-86661303D01*
X100024110Y-86685415D01*
X99985041Y-86688574D01*
X99952995Y-86670733D01*
X99947817Y-86661550D01*
X99944265Y-86617533D01*
X99962572Y-86583562D01*
X99986355Y-86574165D01*
X100024229Y-86589900D01*
G37*
G36*
X99831351Y-85978187D02*
G01*
X99855341Y-86005032D01*
X99863134Y-86049017D01*
X99854593Y-86092208D01*
X99832402Y-86115742D01*
X99804253Y-86125551D01*
X99785580Y-86121513D01*
X99757914Y-86101972D01*
X99733195Y-86065576D01*
X99736779Y-86024313D01*
X99761794Y-85989771D01*
X99801363Y-85973538D01*
X99831351Y-85978187D01*
G37*
G36*
X104707144Y-86196500D02*
G01*
X104724881Y-86214914D01*
X104727774Y-86263493D01*
X104699641Y-86295294D01*
X104666624Y-86302300D01*
X104626105Y-86291586D01*
X104608367Y-86273171D01*
X104605475Y-86224592D01*
X104633607Y-86192791D01*
X104666624Y-86185786D01*
X104707144Y-86196500D01*
G37*
G36*
X103774836Y-87088606D02*
G01*
X103813001Y-87120298D01*
X103824587Y-87164937D01*
X103809955Y-87214765D01*
X103774088Y-87245946D01*
X103729028Y-87254668D01*
X103686818Y-87237115D01*
X103668842Y-87214257D01*
X103656390Y-87158722D01*
X103676105Y-87112049D01*
X103719329Y-87086644D01*
X103774836Y-87088606D01*
G37*
G36*
X106221835Y-85598146D02*
G01*
X106243237Y-85616910D01*
X106248593Y-85638269D01*
X106241476Y-85692309D01*
X106209364Y-85729480D01*
X106174281Y-85739150D01*
X106133189Y-85725144D01*
X106116911Y-85711090D01*
X106100762Y-85670247D01*
X106099969Y-85638269D01*
X106111390Y-85607384D01*
X106141632Y-85595040D01*
X106174281Y-85593508D01*
X106221835Y-85598146D01*
G37*
G36*
X104317291Y-87102100D02*
G01*
X104337146Y-87151464D01*
X104339189Y-87178269D01*
X104335286Y-87223512D01*
X104315848Y-87243304D01*
X104275944Y-87250214D01*
X104222042Y-87246356D01*
X104201587Y-87227353D01*
X104195188Y-87170415D01*
X104212799Y-87116703D01*
X104237240Y-87090850D01*
X104281746Y-87079972D01*
X104317291Y-87102100D01*
G37*
G36*
X103571208Y-85981591D02*
G01*
X103602228Y-86008597D01*
X103610715Y-86052326D01*
X103594471Y-86096416D01*
X103587675Y-86104226D01*
X103562063Y-86124014D01*
X103535634Y-86120777D01*
X103509029Y-86106555D01*
X103479452Y-86072722D01*
X103478321Y-86032301D01*
X103499817Y-85996989D01*
X103538120Y-85978481D01*
X103571208Y-85981591D01*
G37*
G36*
X106196582Y-85786633D02*
G01*
X106233837Y-85810297D01*
X106251646Y-85846695D01*
X106244485Y-85885631D01*
X106214395Y-85913237D01*
X106168550Y-85931507D01*
X106136247Y-85923953D01*
X106119908Y-85910037D01*
X106096526Y-85865865D01*
X106102314Y-85820925D01*
X106134296Y-85789706D01*
X106145405Y-85785899D01*
X106196582Y-85786633D01*
G37*
G36*
X107330290Y-86391300D02*
G01*
X107346441Y-86409104D01*
X107349400Y-86457339D01*
X107322343Y-86489399D01*
X107290871Y-86496489D01*
X107251452Y-86485164D01*
X107235301Y-86467361D01*
X107232342Y-86419125D01*
X107259399Y-86387066D01*
X107290871Y-86379975D01*
X107330290Y-86391300D01*
G37*
G36*
X100621096Y-86400232D02*
G01*
X100630168Y-86438232D01*
X100619495Y-86478236D01*
X100586388Y-86492996D01*
X100545426Y-86485943D01*
X100530908Y-86468723D01*
X100526586Y-86420647D01*
X100549850Y-86389292D01*
X100586388Y-86383468D01*
X100621096Y-86400232D01*
G37*
G36*
X102266215Y-85381957D02*
G01*
X102293641Y-85415730D01*
X102306468Y-85463258D01*
X102302257Y-85507557D01*
X102287189Y-85527991D01*
X102242163Y-85543124D01*
X102195579Y-85540704D01*
X102164699Y-85522215D01*
X102162120Y-85517244D01*
X102154679Y-85462018D01*
X102170324Y-85413480D01*
X102202070Y-85380707D01*
X102242930Y-85372780D01*
X102266215Y-85381957D01*
G37*
G36*
X106727577Y-86581132D02*
G01*
X106751917Y-86609006D01*
X106753357Y-86637190D01*
X106734341Y-86672861D01*
X106700245Y-86687933D01*
X106666379Y-86679099D01*
X106651803Y-86659129D01*
X106653334Y-86619233D01*
X106679741Y-86587924D01*
X106718016Y-86578593D01*
X106727577Y-86581132D01*
G37*
G36*
X101354628Y-87910540D02*
G01*
X101367722Y-87941938D01*
X101368088Y-87952911D01*
X101359573Y-87990227D01*
X101326625Y-88005896D01*
X101314576Y-88007614D01*
X101266424Y-88002068D01*
X101249386Y-87983340D01*
X101244827Y-87933570D01*
X101271455Y-87903323D01*
X101314576Y-87898209D01*
X101354628Y-87910540D01*
G37*
G36*
X102875076Y-85802879D02*
G01*
X102890986Y-85844424D01*
X102881633Y-85891115D01*
X102872171Y-85905280D01*
X102831823Y-85931364D01*
X102787089Y-85919151D01*
X102767640Y-85902824D01*
X102741722Y-85857270D01*
X102748576Y-85815398D01*
X102782601Y-85786878D01*
X102838006Y-85781352D01*
X102875076Y-85802879D01*
G37*
G36*
X103393619Y-86201672D02*
G01*
X103406713Y-86233070D01*
X103407079Y-86244043D01*
X103398564Y-86281358D01*
X103365615Y-86297027D01*
X103353566Y-86298745D01*
X103305415Y-86293200D01*
X103288377Y-86274472D01*
X103283817Y-86224701D01*
X103310446Y-86194455D01*
X103353566Y-86189340D01*
X103393619Y-86201672D01*
G37*
G36*
X104491968Y-85377518D02*
G01*
X104535935Y-85404994D01*
X104550536Y-85454344D01*
X104540816Y-85501992D01*
X104510837Y-85535448D01*
X104464750Y-85545121D01*
X104418919Y-85528529D01*
X104411039Y-85521657D01*
X104386781Y-85475683D01*
X104392485Y-85428210D01*
X104421693Y-85390742D01*
X104467947Y-85374781D01*
X104491968Y-85377518D01*
G37*
G36*
X103184449Y-85380117D02*
G01*
X103219731Y-85408926D01*
X103236665Y-85456157D01*
X103230210Y-85503743D01*
X103222390Y-85516084D01*
X103180021Y-85540798D01*
X103127551Y-85541170D01*
X103090550Y-85521657D01*
X103067367Y-85476920D01*
X103074119Y-85430700D01*
X103103810Y-85393542D01*
X103149446Y-85375988D01*
X103184449Y-85380117D01*
G37*
G36*
X100678447Y-83594538D02*
G01*
X100753668Y-83506171D01*
X100851118Y-83444137D01*
X100966368Y-83412125D01*
X101094988Y-83413822D01*
X101114844Y-83417153D01*
X101201921Y-83451853D01*
X101280141Y-83516660D01*
X101342997Y-83602916D01*
X101383982Y-83701960D01*
X101396790Y-83792399D01*
X101397217Y-83874930D01*
X101086513Y-83874930D01*
X100953738Y-83876192D01*
X100857147Y-83879942D01*
X100797582Y-83886126D01*
X100775889Y-83894686D01*
X100775810Y-83895313D01*
X100784117Y-83925408D01*
X100804275Y-83970712D01*
X100805881Y-83973847D01*
X100862604Y-84044235D01*
X100941997Y-84089036D01*
X101035964Y-84106371D01*
X101136409Y-84094358D01*
X101207031Y-84067076D01*
X101287164Y-84026196D01*
X101322311Y-84071931D01*
X101346718Y-84110843D01*
X101346312Y-84140641D01*
X101317324Y-84169722D01*
X101263874Y-84202115D01*
X101171667Y-84237227D01*
X101062113Y-84255081D01*
X100953557Y-84253724D01*
X100892324Y-84241646D01*
X100781942Y-84189827D01*
X100697265Y-84110334D01*
X100640566Y-84006463D01*
X100614117Y-83881511D01*
X100612416Y-83835515D01*
X100625391Y-83738997D01*
X100774813Y-83738997D01*
X100998629Y-83738997D01*
X101096161Y-83738301D01*
X101161089Y-83735645D01*
X101199631Y-83730179D01*
X101218006Y-83721051D01*
X101222446Y-83708375D01*
X101209517Y-83676045D01*
X101177324Y-83633282D01*
X101165683Y-83620989D01*
X101096951Y-83577329D01*
X101015842Y-83563050D01*
X100933141Y-83576357D01*
X100859631Y-83615453D01*
X100806098Y-83678544D01*
X100804768Y-83681069D01*
X100774813Y-83738997D01*
X100625391Y-83738997D01*
X100629887Y-83705549D01*
X100678447Y-83594538D01*
G37*
G36*
X106535040Y-85983093D02*
G01*
X106571369Y-86013368D01*
X106582079Y-86051548D01*
X106565318Y-86089724D01*
X106524377Y-86112409D01*
X106480129Y-86113000D01*
X106452742Y-86090515D01*
X106444609Y-86050648D01*
X106455029Y-86009334D01*
X106483301Y-85982510D01*
X106485916Y-85981591D01*
X106535040Y-85983093D01*
G37*
G36*
X99861277Y-86705804D02*
G01*
X99889104Y-86746087D01*
X99886965Y-86803895D01*
X99883021Y-86815631D01*
X99856054Y-86854603D01*
X99809226Y-86865449D01*
X99760561Y-86857650D01*
X99731070Y-86842147D01*
X99711614Y-86804288D01*
X99707767Y-86778064D01*
X99723429Y-86724766D01*
X99768484Y-86695573D01*
X99808062Y-86690679D01*
X99861277Y-86705804D01*
G37*
G36*
X100426907Y-86594422D02*
G01*
X100435978Y-86632422D01*
X100425305Y-86672425D01*
X100392199Y-86687186D01*
X100351236Y-86680133D01*
X100336719Y-86662912D01*
X100332397Y-86614836D01*
X100355661Y-86583482D01*
X100392199Y-86577658D01*
X100426907Y-86594422D01*
G37*
G36*
X104700000Y-85787517D02*
G01*
X104729868Y-85817975D01*
X104733914Y-85832459D01*
X104728333Y-85887998D01*
X104699759Y-85921951D01*
X104657862Y-85928717D01*
X104612442Y-85902824D01*
X104584328Y-85856799D01*
X104594494Y-85814409D01*
X104609986Y-85798294D01*
X104655082Y-85779590D01*
X104700000Y-85787517D01*
G37*
G36*
X100421414Y-85381957D02*
G01*
X100448839Y-85415730D01*
X100461666Y-85463258D01*
X100457456Y-85507557D01*
X100442388Y-85527991D01*
X100397361Y-85543124D01*
X100350778Y-85540704D01*
X100319898Y-85522215D01*
X100317319Y-85517244D01*
X100309877Y-85462018D01*
X100325522Y-85413480D01*
X100357268Y-85380707D01*
X100398129Y-85372780D01*
X100421414Y-85381957D01*
G37*
G36*
X105415985Y-85380858D02*
G01*
X105435627Y-85389216D01*
X105467038Y-85425073D01*
X105473807Y-85474602D01*
X105453719Y-85519763D01*
X105451896Y-85521657D01*
X105407456Y-85543205D01*
X105357710Y-85537780D01*
X105320695Y-85507598D01*
X105319454Y-85505389D01*
X105306655Y-85450220D01*
X105324146Y-85405407D01*
X105363424Y-85379452D01*
X105415985Y-85380858D01*
G37*
G36*
X106921767Y-86581132D02*
G01*
X106946106Y-86609006D01*
X106947546Y-86637190D01*
X106928531Y-86672861D01*
X106894434Y-86687933D01*
X106860568Y-86679099D01*
X106845993Y-86659129D01*
X106847523Y-86619233D01*
X106873930Y-86587924D01*
X106912206Y-86578593D01*
X106921767Y-86581132D01*
G37*
G36*
X103571184Y-85380858D02*
G01*
X103590826Y-85389216D01*
X103622237Y-85425073D01*
X103629006Y-85474602D01*
X103608918Y-85519763D01*
X103607094Y-85521657D01*
X103562655Y-85543205D01*
X103512909Y-85537780D01*
X103475894Y-85507598D01*
X103474653Y-85505389D01*
X103461853Y-85450220D01*
X103479344Y-85405407D01*
X103518622Y-85379452D01*
X103571184Y-85380858D01*
G37*
G36*
X105077305Y-87491251D02*
G01*
X105111930Y-87515168D01*
X105122293Y-87541327D01*
X105116712Y-87596867D01*
X105088138Y-87630820D01*
X105046241Y-87637585D01*
X105000821Y-87611692D01*
X104974349Y-87577592D01*
X104977347Y-87546429D01*
X104995667Y-87517852D01*
X105033537Y-87491216D01*
X105077305Y-87491251D01*
G37*
G36*
X102287307Y-86899486D02*
G01*
X102316512Y-86939037D01*
X102314657Y-86997069D01*
X102310391Y-87009820D01*
X102278361Y-87048493D01*
X102230953Y-87061983D01*
X102183022Y-87049485D01*
X102153241Y-87018345D01*
X102140914Y-86962387D01*
X102160507Y-86915300D01*
X102205707Y-86887902D01*
X102231132Y-86884868D01*
X102287307Y-86899486D01*
G37*
G36*
X102266215Y-87498746D02*
G01*
X102299233Y-87536804D01*
X102304331Y-87581904D01*
X102284572Y-87621119D01*
X102243019Y-87641522D01*
X102232232Y-87642208D01*
X102191188Y-87628202D01*
X102174749Y-87614012D01*
X102157774Y-87570695D01*
X102168341Y-87528428D01*
X102198181Y-87497631D01*
X102239026Y-87488725D01*
X102266215Y-87498746D01*
G37*
G36*
X102268702Y-87696628D02*
G01*
X102298575Y-87731766D01*
X102309908Y-87765767D01*
X102296357Y-87788272D01*
X102266908Y-87816440D01*
X102238370Y-87834989D01*
X102232232Y-87836397D01*
X102206549Y-87824061D01*
X102185072Y-87805882D01*
X102159371Y-87759734D01*
X102166396Y-87716242D01*
X102201480Y-87686974D01*
X102235432Y-87681046D01*
X102268702Y-87696628D01*
G37*
G36*
X102845437Y-85983093D02*
G01*
X102881767Y-86013368D01*
X102892477Y-86051548D01*
X102875715Y-86089724D01*
X102834774Y-86112409D01*
X102790527Y-86113000D01*
X102763139Y-86090515D01*
X102755007Y-86050648D01*
X102765427Y-86009334D01*
X102793698Y-85982510D01*
X102796314Y-85981591D01*
X102845437Y-85983093D01*
G37*
G36*
X104238363Y-83414330D02*
G01*
X104325523Y-83443273D01*
X104396152Y-83500422D01*
X104417718Y-83530557D01*
X104432142Y-83558907D01*
X104442766Y-83593542D01*
X104450344Y-83641044D01*
X104455632Y-83707998D01*
X104459383Y-83800989D01*
X104462194Y-83918622D01*
X104468686Y-84243890D01*
X104290642Y-84243890D01*
X104290642Y-83942896D01*
X104290255Y-83827332D01*
X104288602Y-83744140D01*
X104284944Y-83686861D01*
X104278544Y-83649032D01*
X104268661Y-83624191D01*
X104254560Y-83605879D01*
X104251804Y-83603064D01*
X104203759Y-83574113D01*
X104131709Y-83564284D01*
X104124087Y-83564226D01*
X104058644Y-83569944D01*
X104010945Y-83592316D01*
X103978445Y-83620989D01*
X103921681Y-83677752D01*
X103921681Y-84243890D01*
X103746911Y-84243890D01*
X103746911Y-83428293D01*
X103834296Y-83428293D01*
X103888133Y-83430192D01*
X103913639Y-83440004D01*
X103921281Y-83463905D01*
X103921681Y-83479851D01*
X103924188Y-83514882D01*
X103937215Y-83516430D01*
X103955665Y-83501611D01*
X104045635Y-83443010D01*
X104142467Y-83414079D01*
X104238363Y-83414330D01*
G37*
G36*
X100428694Y-86190598D02*
G01*
X100443903Y-86213295D01*
X100445688Y-86244043D01*
X100440876Y-86285306D01*
X100418178Y-86300515D01*
X100387431Y-86302300D01*
X100346167Y-86297488D01*
X100330959Y-86274790D01*
X100329174Y-86244043D01*
X100333986Y-86202779D01*
X100356683Y-86187571D01*
X100387431Y-86185786D01*
X100428694Y-86190598D01*
G37*
G36*
X100434984Y-87307014D02*
G01*
X100456387Y-87325779D01*
X100461742Y-87347138D01*
X100454626Y-87401178D01*
X100422514Y-87438349D01*
X100387431Y-87448018D01*
X100346339Y-87434013D01*
X100330061Y-87419959D01*
X100313912Y-87379116D01*
X100313119Y-87347138D01*
X100324540Y-87316252D01*
X100354782Y-87303909D01*
X100387431Y-87302376D01*
X100434984Y-87307014D01*
G37*
G36*
X102504097Y-84243890D02*
G01*
X102329327Y-84243890D01*
X102329327Y-83428293D01*
X102504097Y-83428293D01*
X102504097Y-84243890D01*
G37*
G36*
X104699272Y-88297248D02*
G01*
X104715035Y-88331858D01*
X104714366Y-88346058D01*
X104695254Y-88381100D01*
X104660466Y-88397312D01*
X104625385Y-88391181D01*
X104608312Y-88370275D01*
X104610838Y-88331741D01*
X104626312Y-88308001D01*
X104665448Y-88287459D01*
X104699272Y-88297248D01*
G37*
G36*
X106954660Y-85393908D02*
G01*
X106980615Y-85433186D01*
X106979209Y-85485747D01*
X106970851Y-85505389D01*
X106934993Y-85536800D01*
X106885465Y-85543569D01*
X106840304Y-85523481D01*
X106838409Y-85521657D01*
X106816861Y-85477218D01*
X106822287Y-85427472D01*
X106852469Y-85390457D01*
X106854678Y-85389216D01*
X106909846Y-85376417D01*
X106954660Y-85393908D01*
G37*
G36*
X100236807Y-86190128D02*
G01*
X100249430Y-86210753D01*
X100247933Y-86239188D01*
X100233727Y-86281091D01*
X100196940Y-86297686D01*
X100190867Y-86298495D01*
X100144842Y-86292431D01*
X100128365Y-86274222D01*
X100124560Y-86225245D01*
X100153316Y-86194116D01*
X100196609Y-86185786D01*
X100236807Y-86190128D01*
G37*
G36*
X107126498Y-85380117D02*
G01*
X107161780Y-85408926D01*
X107178714Y-85456157D01*
X107172259Y-85503743D01*
X107164439Y-85516084D01*
X107122070Y-85540798D01*
X107069600Y-85541170D01*
X107032599Y-85521657D01*
X107009416Y-85476920D01*
X107016168Y-85430700D01*
X107045859Y-85393542D01*
X107091495Y-85375988D01*
X107126498Y-85380117D01*
G37*
G36*
X97949109Y-82981289D02*
G01*
X97955726Y-83037147D01*
X97959367Y-83127875D01*
X97960061Y-83205585D01*
X97960628Y-83307819D01*
X97962907Y-83377699D01*
X97967761Y-83421699D01*
X97976055Y-83446295D01*
X97988653Y-83457961D01*
X97994044Y-83460124D01*
X98156808Y-83533240D01*
X98304142Y-83640635D01*
X98436976Y-83783131D01*
X98551137Y-83952715D01*
X98615013Y-84060532D01*
X98664876Y-84138842D01*
X98704703Y-84192557D01*
X98738470Y-84226592D01*
X98770156Y-84245858D01*
X98794613Y-84253498D01*
X98853506Y-84281644D01*
X98902188Y-84330896D01*
X98928927Y-84388068D01*
X98930936Y-84406715D01*
X98914880Y-84467394D01*
X98870890Y-84540533D01*
X98804954Y-84619684D01*
X98723062Y-84698397D01*
X98631202Y-84770223D01*
X98542623Y-84824895D01*
X98432043Y-84872271D01*
X98310272Y-84899198D01*
X98280772Y-84902901D01*
X98168654Y-84922033D01*
X98089004Y-84952004D01*
X98036319Y-84995477D01*
X98014023Y-85032029D01*
X98004350Y-85062323D01*
X98010451Y-85090112D01*
X98036974Y-85126165D01*
X98070175Y-85162080D01*
X98177377Y-85300486D01*
X98248528Y-85452790D01*
X98283682Y-85618587D01*
X98282897Y-85797471D01*
X98246229Y-85989034D01*
X98173733Y-86192872D01*
X98065465Y-86408578D01*
X97921482Y-86635745D01*
X97854059Y-86729517D01*
X97725771Y-86903495D01*
X97619645Y-87050441D01*
X97533702Y-87173745D01*
X97465962Y-87276796D01*
X97414444Y-87362985D01*
X97377169Y-87435702D01*
X97352156Y-87498335D01*
X97337426Y-87554276D01*
X97330997Y-87606914D01*
X97330328Y-87626117D01*
X97333136Y-87690471D01*
X97347063Y-87730978D01*
X97374788Y-87760414D01*
X97428360Y-87788134D01*
X97478232Y-87797560D01*
X97533144Y-87812597D01*
X97588072Y-87850355D01*
X97630845Y-87899798D01*
X97649290Y-87949893D01*
X97649357Y-87952694D01*
X97633837Y-88020014D01*
X97594688Y-88082720D01*
X97573364Y-88102791D01*
X97548490Y-88107269D01*
X97488823Y-88111287D01*
X97398406Y-88114842D01*
X97281282Y-88117928D01*
X97141493Y-88120541D01*
X96983082Y-88122678D01*
X96810092Y-88124334D01*
X96626565Y-88125505D01*
X96436544Y-88126186D01*
X96244071Y-88126373D01*
X96053190Y-88126063D01*
X95867943Y-88125251D01*
X95692373Y-88123933D01*
X95530522Y-88122104D01*
X95386432Y-88119760D01*
X95264147Y-88116898D01*
X95167710Y-88113512D01*
X95101162Y-88109600D01*
X95069344Y-88105400D01*
X94952988Y-88053014D01*
X94840313Y-87966166D01*
X94734602Y-87849233D01*
X94639142Y-87706587D01*
X94557218Y-87542604D01*
X94492116Y-87361658D01*
X94480857Y-87321795D01*
X94460629Y-87234841D01*
X94447633Y-87146105D01*
X94440581Y-87043287D01*
X94438187Y-86914085D01*
X94438186Y-86913997D01*
X94438185Y-86840900D01*
X94439486Y-86777820D01*
X94443242Y-86719708D01*
X94450605Y-86661514D01*
X94462727Y-86598188D01*
X94480761Y-86524682D01*
X94505859Y-86435945D01*
X94539173Y-86326928D01*
X94581856Y-86192582D01*
X94635059Y-86027857D01*
X94653109Y-85972177D01*
X94684129Y-85873744D01*
X94704800Y-85797053D01*
X94717236Y-85728624D01*
X94723549Y-85654972D01*
X94725854Y-85562616D01*
X94726161Y-85506122D01*
X94717144Y-85306298D01*
X94688751Y-85138995D01*
X94640689Y-85002911D01*
X94596296Y-84927081D01*
X94556608Y-84871599D01*
X94510321Y-84807241D01*
X94495290Y-84786420D01*
X94444949Y-84687440D01*
X94427715Y-84582233D01*
X94442192Y-84478846D01*
X94486980Y-84385325D01*
X94560683Y-84309717D01*
X94580422Y-84296421D01*
X94635047Y-84269989D01*
X94697761Y-84257872D01*
X94770616Y-84256322D01*
X94908550Y-84276768D01*
X95037349Y-84332946D01*
X95159609Y-84426129D01*
X95200925Y-84467286D01*
X95288504Y-84574195D01*
X95348532Y-84684097D01*
X95382932Y-84804291D01*
X95393626Y-84942075D01*
X95382539Y-85104748D01*
X95378059Y-85139584D01*
X95353881Y-85289519D01*
X95322936Y-85424976D01*
X95281991Y-85554611D01*
X95227812Y-85687085D01*
X95157165Y-85831056D01*
X95066815Y-85995182D01*
X95043118Y-86036328D01*
X94951871Y-86198692D01*
X94881529Y-86336259D01*
X94829659Y-86455275D01*
X94793828Y-86561988D01*
X94771601Y-86662642D01*
X94760686Y-86761195D01*
X94756993Y-86887810D01*
X94764837Y-86983250D01*
X94785358Y-87053761D01*
X94819694Y-87105587D01*
X94824303Y-87110356D01*
X94885489Y-87149348D01*
X94949339Y-87151021D01*
X95009311Y-87115443D01*
X95016180Y-87108410D01*
X95044161Y-87067277D01*
X95061734Y-87010359D01*
X95072293Y-86928785D01*
X95099555Y-86761534D01*
X95154317Y-86581847D01*
X95238152Y-86384805D01*
X95261389Y-86337160D01*
X95393008Y-86099340D01*
X95538680Y-85889451D01*
X95703841Y-85701702D01*
X95893930Y-85530302D01*
X96114384Y-85369460D01*
X96251192Y-85283009D01*
X96438550Y-85165787D01*
X96592785Y-85059041D01*
X96716949Y-84959107D01*
X96814092Y-84862321D01*
X96887264Y-84765019D01*
X96939516Y-84663537D01*
X96973899Y-84554210D01*
X96993462Y-84433376D01*
X96997444Y-84386650D01*
X97024067Y-84170698D01*
X97072653Y-83985110D01*
X97143989Y-83827692D01*
X97238864Y-83696251D01*
X97249501Y-83684638D01*
X97307673Y-83628292D01*
X97368009Y-83578937D01*
X97407686Y-83552940D01*
X97450425Y-83523356D01*
X97487079Y-83479665D01*
X97524885Y-83412333D01*
X97542608Y-83375231D01*
X97594047Y-83281532D01*
X97658694Y-83189495D01*
X97730537Y-83105375D01*
X97803560Y-83035425D01*
X97871749Y-82985903D01*
X97929091Y-82963062D01*
X97939677Y-82962238D01*
X97949109Y-82981289D01*
G37*
G36*
X105834701Y-85389818D02*
G01*
X105859415Y-85432186D01*
X105859788Y-85484656D01*
X105840275Y-85521657D01*
X105797216Y-85542746D01*
X105748304Y-85539200D01*
X105711966Y-85512770D01*
X105709906Y-85509262D01*
X105698901Y-85458048D01*
X105714978Y-85412522D01*
X105749436Y-85381009D01*
X105793577Y-85371836D01*
X105834701Y-85389818D01*
G37*
G36*
X103989900Y-85389818D02*
G01*
X104014614Y-85432186D01*
X104014986Y-85484656D01*
X103995473Y-85521657D01*
X103952415Y-85542746D01*
X103903503Y-85539200D01*
X103867165Y-85512770D01*
X103865105Y-85509262D01*
X103854100Y-85458048D01*
X103870176Y-85412522D01*
X103904635Y-85381009D01*
X103948776Y-85371836D01*
X103989900Y-85389818D01*
G37*
G36*
X103770191Y-86187852D02*
G01*
X103800252Y-86220184D01*
X103800130Y-86258559D01*
X103773096Y-86289294D01*
X103743723Y-86298574D01*
X103700917Y-86294390D01*
X103679030Y-86263655D01*
X103678232Y-86261216D01*
X103679352Y-86215381D01*
X103707260Y-86185402D01*
X103750488Y-86180427D01*
X103770191Y-86187852D01*
G37*
G36*
X101160438Y-86201672D02*
G01*
X101173532Y-86233070D01*
X101173899Y-86244043D01*
X101165384Y-86281358D01*
X101132435Y-86297027D01*
X101120386Y-86298745D01*
X101072234Y-86293200D01*
X101055197Y-86274472D01*
X101050637Y-86224701D01*
X101077265Y-86194455D01*
X101120386Y-86189340D01*
X101160438Y-86201672D01*
G37*
%TO.C,qrcode*%
G36*
X117760930Y-70692940D02*
G01*
X117416056Y-70692940D01*
X117416056Y-71037814D01*
X117071182Y-71037814D01*
X117071182Y-70348066D01*
X117760930Y-70348066D01*
X117760930Y-70692940D01*
G37*
G36*
X113622438Y-76210930D02*
G01*
X113277563Y-76210930D01*
X113277563Y-75866056D01*
X113622438Y-75866056D01*
X113622438Y-76210930D01*
G37*
G36*
X117760930Y-67589070D02*
G01*
X117760930Y-70003191D01*
X115346810Y-70003191D01*
X115346810Y-69641073D01*
X115708928Y-69641073D01*
X117398812Y-69641073D01*
X117398812Y-67951188D01*
X115708928Y-67951188D01*
X115708928Y-69641073D01*
X115346810Y-69641073D01*
X115346810Y-67589070D01*
X117760930Y-67589070D01*
G37*
G36*
X109483945Y-73107061D02*
G01*
X109139070Y-73107061D01*
X109139070Y-72762186D01*
X109483945Y-72762186D01*
X109483945Y-73107061D01*
G37*
G36*
X112242940Y-71727563D02*
G01*
X111898066Y-71727563D01*
X111898066Y-71382689D01*
X112242940Y-71382689D01*
X112242940Y-71727563D01*
G37*
G36*
X112932689Y-71382689D02*
G01*
X112587814Y-71382689D01*
X112587814Y-71037814D01*
X112932689Y-71037814D01*
X112932689Y-71382689D01*
G37*
G36*
X114312186Y-76210930D02*
G01*
X113967312Y-76210930D01*
X113967312Y-75866056D01*
X114312186Y-75866056D01*
X114312186Y-76210930D01*
G37*
G36*
X112932689Y-76210930D02*
G01*
X111898066Y-76210930D01*
X111898066Y-75866056D01*
X112587814Y-75866056D01*
X112587814Y-75521182D01*
X112932689Y-75521182D01*
X112932689Y-76210930D01*
G37*
G36*
X110863442Y-69313442D02*
G01*
X109828819Y-69313442D01*
X109828819Y-68278819D01*
X110863442Y-68278819D01*
X110863442Y-69313442D01*
G37*
G36*
X113967312Y-68278819D02*
G01*
X113967312Y-68623694D01*
X114312186Y-68623694D01*
X114312186Y-68278819D01*
X114657061Y-68278819D01*
X114657061Y-68623694D01*
X115001935Y-68623694D01*
X115001935Y-69313442D01*
X114312186Y-69313442D01*
X114312186Y-70003191D01*
X113967312Y-70003191D01*
X113967312Y-69658317D01*
X113622438Y-69658317D01*
X113622438Y-69313442D01*
X113967312Y-69313442D01*
X113967312Y-68968568D01*
X113622438Y-68968568D01*
X113622438Y-69313442D01*
X113277563Y-69313442D01*
X113277563Y-68623694D01*
X113622438Y-68623694D01*
X113622438Y-68278819D01*
X113967312Y-68278819D01*
G37*
G36*
X112587814Y-68278819D02*
G01*
X112587814Y-67933945D01*
X112242940Y-67933945D01*
X112242940Y-68278819D01*
X111898066Y-68278819D01*
X111898066Y-67589070D01*
X112932689Y-67589070D01*
X112932689Y-67933945D01*
X113622438Y-67933945D01*
X113622438Y-68278819D01*
X113277563Y-68278819D01*
X113277563Y-68623694D01*
X112932689Y-68623694D01*
X112932689Y-68968568D01*
X112587814Y-68968568D01*
X112587814Y-69313442D01*
X112242940Y-69313442D01*
X112242940Y-68968568D01*
X111898066Y-68968568D01*
X111898066Y-68623694D01*
X112242940Y-68623694D01*
X112587814Y-68623694D01*
X112932689Y-68623694D01*
X112932689Y-68278819D01*
X112587814Y-68278819D01*
X112587814Y-68623694D01*
X112242940Y-68623694D01*
X112242940Y-68278819D01*
X112587814Y-68278819D01*
G37*
G36*
X115001935Y-67933945D02*
G01*
X114312186Y-67933945D01*
X114312186Y-67589070D01*
X115001935Y-67589070D01*
X115001935Y-67933945D01*
G37*
G36*
X116726307Y-70692940D02*
G01*
X116381433Y-70692940D01*
X116381433Y-70348066D01*
X116726307Y-70348066D01*
X116726307Y-70692940D01*
G37*
G36*
X115001935Y-70003191D02*
G01*
X114657061Y-70003191D01*
X114657061Y-69658317D01*
X115001935Y-69658317D01*
X115001935Y-70003191D01*
G37*
G36*
X112932689Y-70348066D02*
G01*
X112587814Y-70348066D01*
X112587814Y-70692940D01*
X112242940Y-70692940D01*
X112242940Y-70348066D01*
X111898066Y-70348066D01*
X111898066Y-69658317D01*
X112242940Y-69658317D01*
X112242940Y-70003191D01*
X112587814Y-70003191D01*
X112587814Y-69313442D01*
X112932689Y-69313442D01*
X112932689Y-70348066D01*
G37*
G36*
X114657061Y-70348066D02*
G01*
X114312186Y-70348066D01*
X114312186Y-70003191D01*
X114657061Y-70003191D01*
X114657061Y-70348066D01*
G37*
G36*
X110863442Y-73451935D02*
G01*
X110518568Y-73451935D01*
X110518568Y-73107061D01*
X110863442Y-73107061D01*
X110863442Y-73451935D01*
G37*
G36*
X114657061Y-71382689D02*
G01*
X114657061Y-71037814D01*
X115691684Y-71037814D01*
X115691684Y-71382689D01*
X115346810Y-71382689D01*
X115346810Y-71727563D01*
X115691684Y-71727563D01*
X115691684Y-71382689D01*
X116036558Y-71382689D01*
X116036558Y-71727563D01*
X116381433Y-71727563D01*
X116381433Y-71382689D01*
X117071182Y-71382689D01*
X117071182Y-71727563D01*
X117760930Y-71727563D01*
X117760930Y-72417312D01*
X117416056Y-72417312D01*
X117416056Y-72762186D01*
X117760930Y-72762186D01*
X117760930Y-74486558D01*
X117416056Y-74486558D01*
X117416056Y-74831433D01*
X117760930Y-74831433D01*
X117760930Y-75176307D01*
X117416056Y-75176307D01*
X117416056Y-75521182D01*
X117071182Y-75521182D01*
X117071182Y-75866056D01*
X117760930Y-75866056D01*
X117760930Y-76210930D01*
X115691684Y-76210930D01*
X115691684Y-75866056D01*
X116036558Y-75866056D01*
X116381433Y-75866056D01*
X116726307Y-75866056D01*
X116726307Y-75176307D01*
X116381433Y-75176307D01*
X116381433Y-75866056D01*
X116036558Y-75866056D01*
X116036558Y-74831433D01*
X115691684Y-74831433D01*
X115691684Y-75866056D01*
X115001935Y-75866056D01*
X115001935Y-75521182D01*
X114312186Y-75521182D01*
X114312186Y-75176307D01*
X114657061Y-75176307D01*
X115346810Y-75176307D01*
X115346810Y-74831433D01*
X114657061Y-74831433D01*
X114657061Y-75176307D01*
X114312186Y-75176307D01*
X114312186Y-74831433D01*
X114657061Y-74831433D01*
X114657061Y-74486558D01*
X116036558Y-74486558D01*
X116381433Y-74486558D01*
X116726307Y-74486558D01*
X116726307Y-74831433D01*
X117071182Y-74831433D01*
X117071182Y-74141684D01*
X116726307Y-74141684D01*
X116726307Y-73796810D01*
X117071182Y-73796810D01*
X117416056Y-73796810D01*
X117416056Y-73451935D01*
X117071182Y-73451935D01*
X117071182Y-73796810D01*
X116726307Y-73796810D01*
X116726307Y-73451935D01*
X116381433Y-73451935D01*
X116381433Y-74486558D01*
X116036558Y-74486558D01*
X116036558Y-73451935D01*
X115001935Y-73451935D01*
X115001935Y-74486558D01*
X114312186Y-74486558D01*
X114312186Y-74141684D01*
X114657061Y-74141684D01*
X114657061Y-73796810D01*
X113967312Y-73796810D01*
X113967312Y-74141684D01*
X113622438Y-74141684D01*
X113622438Y-74486558D01*
X113967312Y-74486558D01*
X113967312Y-75521182D01*
X112932689Y-75521182D01*
X112932689Y-75176307D01*
X113277563Y-75176307D01*
X113277563Y-74831433D01*
X112932689Y-74831433D01*
X112932689Y-74486558D01*
X113277563Y-74486558D01*
X113277563Y-74141684D01*
X112932689Y-74141684D01*
X112932689Y-74486558D01*
X112587814Y-74486558D01*
X112587814Y-75176307D01*
X112242940Y-75176307D01*
X112242940Y-75521182D01*
X111898066Y-75521182D01*
X111898066Y-74831433D01*
X112242940Y-74831433D01*
X112242940Y-74486558D01*
X112587814Y-74486558D01*
X112587814Y-73796810D01*
X113277563Y-73796810D01*
X113277563Y-73451935D01*
X113622438Y-73451935D01*
X113622438Y-73107061D01*
X113277563Y-73107061D01*
X113277563Y-73451935D01*
X112587814Y-73451935D01*
X112587814Y-73796810D01*
X112242940Y-73796810D01*
X112242940Y-74486558D01*
X111898066Y-74486558D01*
X111898066Y-73451935D01*
X111208317Y-73451935D01*
X111208317Y-73107061D01*
X111553191Y-73107061D01*
X111553191Y-72762186D01*
X111898066Y-72762186D01*
X111898066Y-73451935D01*
X112587814Y-73451935D01*
X112587814Y-73107061D01*
X112242940Y-73107061D01*
X112242940Y-72417312D01*
X111553191Y-72417312D01*
X111553191Y-72762186D01*
X111208317Y-72762186D01*
X111208317Y-73107061D01*
X110863442Y-73107061D01*
X110863442Y-72762186D01*
X110518568Y-72762186D01*
X110518568Y-72072438D01*
X110173694Y-72072438D01*
X110173694Y-72417312D01*
X109828819Y-72417312D01*
X109828819Y-72762186D01*
X109483945Y-72762186D01*
X109483945Y-72072438D01*
X110173694Y-72072438D01*
X110173694Y-71382689D01*
X110518568Y-71382689D01*
X110518568Y-71037814D01*
X110173694Y-71037814D01*
X110173694Y-71382689D01*
X109483945Y-71382689D01*
X109483945Y-72072438D01*
X109139070Y-72072438D01*
X109139070Y-70348066D01*
X109483945Y-70348066D01*
X109483945Y-71037814D01*
X110173694Y-71037814D01*
X110173694Y-70692940D01*
X109828819Y-70692940D01*
X109828819Y-70348066D01*
X110518568Y-70348066D01*
X110518568Y-71037814D01*
X110863442Y-71037814D01*
X110863442Y-70348066D01*
X111898066Y-70348066D01*
X111898066Y-70692940D01*
X111208317Y-70692940D01*
X111208317Y-71037814D01*
X111898066Y-71037814D01*
X111898066Y-71382689D01*
X110863442Y-71382689D01*
X110863442Y-71727563D01*
X111553191Y-71727563D01*
X111553191Y-72072438D01*
X110863442Y-72072438D01*
X110863442Y-72417312D01*
X111553191Y-72417312D01*
X111553191Y-72072438D01*
X112587814Y-72072438D01*
X112587814Y-73107061D01*
X113277563Y-73107061D01*
X113277563Y-72417312D01*
X113622438Y-72417312D01*
X113622438Y-73107061D01*
X114312186Y-73107061D01*
X114312186Y-72762186D01*
X114657061Y-72762186D01*
X114657061Y-73107061D01*
X115346810Y-73107061D01*
X116381433Y-73107061D01*
X117416056Y-73107061D01*
X117416056Y-72762186D01*
X116726307Y-72762186D01*
X116726307Y-72417312D01*
X117416056Y-72417312D01*
X117416056Y-72072438D01*
X116726307Y-72072438D01*
X116726307Y-71727563D01*
X116381433Y-71727563D01*
X116381433Y-73107061D01*
X115346810Y-73107061D01*
X115346810Y-72762186D01*
X116036558Y-72762186D01*
X116036558Y-72417312D01*
X115346810Y-72417312D01*
X115346810Y-72762186D01*
X115001935Y-72762186D01*
X115001935Y-72417312D01*
X115346810Y-72417312D01*
X115346810Y-72072438D01*
X115691684Y-72072438D01*
X116036558Y-72072438D01*
X116036558Y-71727563D01*
X115691684Y-71727563D01*
X115691684Y-72072438D01*
X115346810Y-72072438D01*
X115001935Y-72072438D01*
X115001935Y-71382689D01*
X114657061Y-71382689D01*
G37*
G36*
X113277563Y-70692940D02*
G01*
X112932689Y-70692940D01*
X112932689Y-70348066D01*
X113277563Y-70348066D01*
X113277563Y-70692940D01*
G37*
G36*
X110863442Y-75521182D02*
G01*
X109828819Y-75521182D01*
X109828819Y-74486558D01*
X110863442Y-74486558D01*
X110863442Y-75521182D01*
G37*
G36*
X114312186Y-71382689D02*
G01*
X113967312Y-71382689D01*
X113967312Y-72072438D01*
X113622438Y-72072438D01*
X113622438Y-71382689D01*
X113277563Y-71382689D01*
X113277563Y-71037814D01*
X114312186Y-71037814D01*
X114312186Y-71382689D01*
G37*
G36*
X111553191Y-67589070D02*
G01*
X111553191Y-70003191D01*
X109139070Y-70003191D01*
X109139070Y-69641073D01*
X109501188Y-69641073D01*
X111191073Y-69641073D01*
X111191073Y-67951188D01*
X109501188Y-67951188D01*
X109501188Y-69641073D01*
X109139070Y-69641073D01*
X109139070Y-67589070D01*
X111553191Y-67589070D01*
G37*
G36*
X114657061Y-72417312D02*
G01*
X114312186Y-72417312D01*
X114312186Y-72072438D01*
X114657061Y-72072438D01*
X114657061Y-72417312D01*
G37*
G36*
X110173694Y-73107061D02*
G01*
X109828819Y-73107061D01*
X109828819Y-72762186D01*
X110173694Y-72762186D01*
X110173694Y-73107061D01*
G37*
G36*
X117071182Y-69313442D02*
G01*
X116036558Y-69313442D01*
X116036558Y-68278819D01*
X117071182Y-68278819D01*
X117071182Y-69313442D01*
G37*
G36*
X113967312Y-67933945D02*
G01*
X113622438Y-67933945D01*
X113622438Y-67589070D01*
X113967312Y-67589070D01*
X113967312Y-67933945D01*
G37*
G36*
X113277563Y-72417312D02*
G01*
X112932689Y-72417312D01*
X112932689Y-72072438D01*
X113277563Y-72072438D01*
X113277563Y-72417312D01*
G37*
G36*
X114657061Y-71727563D02*
G01*
X114312186Y-71727563D01*
X114312186Y-71382689D01*
X114657061Y-71382689D01*
X114657061Y-71727563D01*
G37*
G36*
X115691684Y-74141684D02*
G01*
X115346810Y-74141684D01*
X115346810Y-73796810D01*
X115691684Y-73796810D01*
X115691684Y-74141684D01*
G37*
G36*
X113622438Y-70003191D02*
G01*
X113277563Y-70003191D01*
X113277563Y-69658317D01*
X113622438Y-69658317D01*
X113622438Y-70003191D01*
G37*
G36*
X116036558Y-71037814D02*
G01*
X115691684Y-71037814D01*
X115691684Y-70692940D01*
X116036558Y-70692940D01*
X116036558Y-71037814D01*
G37*
G36*
X115691684Y-70692940D02*
G01*
X115346810Y-70692940D01*
X115346810Y-70348066D01*
X115691684Y-70348066D01*
X115691684Y-70692940D01*
G37*
G36*
X111553191Y-73796810D02*
G01*
X111553191Y-76210930D01*
X109139070Y-76210930D01*
X109139070Y-75848812D01*
X109501188Y-75848812D01*
X111191073Y-75848812D01*
X111191073Y-74158928D01*
X109501188Y-74158928D01*
X109501188Y-75848812D01*
X109139070Y-75848812D01*
X109139070Y-73796810D01*
X111553191Y-73796810D01*
G37*
G36*
X114312186Y-70692940D02*
G01*
X113967312Y-70692940D01*
X113967312Y-70348066D01*
X114312186Y-70348066D01*
X114312186Y-70692940D01*
G37*
%TD*%
M02*
