%TF.GenerationSoftware,KiCad,Pcbnew,(6.0.4-0)*%
%TF.CreationDate,2022-06-03T17:21:12+02:00*%
%TF.ProjectId,GlowTower_LED_connector_PCB,476c6f77-546f-4776-9572-5f4c45445f63,rev?*%
%TF.SameCoordinates,Original*%
%TF.FileFunction,Copper,L1,Top*%
%TF.FilePolarity,Positive*%
%FSLAX46Y46*%
G04 Gerber Fmt 4.6, Leading zero omitted, Abs format (unit mm)*
G04 Created by KiCad (PCBNEW (6.0.4-0)) date 2022-06-03 17:21:12*
%MOMM*%
%LPD*%
G01*
G04 APERTURE LIST*
%TA.AperFunction,SMDPad,CuDef*%
%ADD10R,2.200000X1.500000*%
%TD*%
%TA.AperFunction,ViaPad*%
%ADD11C,0.800000*%
%TD*%
%TA.AperFunction,Conductor*%
%ADD12C,1.000000*%
%TD*%
%TA.AperFunction,Conductor*%
%ADD13C,1.400000*%
%TD*%
G04 APERTURE END LIST*
D10*
%TO.P,SW1,1,1*%
%TO.N,BUTTON*%
X97300000Y-69937797D03*
%TO.P,SW1,2,2*%
%TO.N,unconnected-(SW1-Pad2)*%
X105900000Y-69937797D03*
%TO.P,SW1,3,3*%
%TO.N,GND*%
X97300000Y-74437924D03*
%TO.P,SW1,4,4*%
%TO.N,unconnected-(SW1-Pad4)*%
X105900000Y-74437924D03*
%TD*%
D11*
%TO.N,GND*%
X99240000Y-72350000D03*
%TO.N,BUTTON*%
X99410000Y-68580000D03*
%TD*%
D12*
%TO.N,GND*%
X99240000Y-72350000D02*
X99240000Y-72497924D01*
X99240000Y-72497924D02*
X97300000Y-74437924D01*
%TO.N,BUTTON*%
X99410000Y-68580000D02*
X99410000Y-68640000D01*
D13*
X99410000Y-68640000D02*
X98112203Y-69937797D01*
D12*
X98112203Y-69937797D02*
X97300000Y-69937797D01*
%TD*%
%TA.AperFunction,Conductor*%
%TO.N,GND*%
G36*
X102113440Y-53703505D02*
G01*
X102119155Y-53703664D01*
X102951434Y-53745825D01*
X102957136Y-53746244D01*
X103565703Y-53804842D01*
X103786625Y-53826114D01*
X103792297Y-53826791D01*
X104617322Y-53944210D01*
X104622958Y-53945143D01*
X105441777Y-54099861D01*
X105447369Y-54101049D01*
X106258374Y-54292762D01*
X106263907Y-54294204D01*
X106867817Y-54466232D01*
X107065326Y-54522494D01*
X107070784Y-54524183D01*
X107861072Y-54788609D01*
X107866432Y-54790539D01*
X108096204Y-54879201D01*
X108643909Y-55090543D01*
X108649194Y-55092722D01*
X109412230Y-55427672D01*
X109417393Y-55430079D01*
X109930807Y-55683824D01*
X110164459Y-55799302D01*
X110169526Y-55801950D01*
X110899094Y-56204693D01*
X110904035Y-56207569D01*
X111614565Y-56642983D01*
X111619370Y-56646080D01*
X112309404Y-57113267D01*
X112314065Y-57116579D01*
X112982232Y-57614616D01*
X112986705Y-57618110D01*
X113210168Y-57801013D01*
X113631582Y-58145937D01*
X113635923Y-58149658D01*
X114256163Y-58706167D01*
X114260331Y-58710080D01*
X114854726Y-59294190D01*
X114858711Y-59298289D01*
X115425956Y-59908718D01*
X115429752Y-59912993D01*
X115968753Y-60548560D01*
X115972351Y-60553004D01*
X116481936Y-61212331D01*
X116485329Y-61216932D01*
X116964510Y-61898738D01*
X116967690Y-61903489D01*
X117415432Y-62606304D01*
X117418394Y-62611195D01*
X117833791Y-63333592D01*
X117836528Y-63338611D01*
X118131793Y-63910674D01*
X118218743Y-64079137D01*
X118221242Y-64084263D01*
X118569472Y-64841367D01*
X118571723Y-64846568D01*
X118769212Y-65332926D01*
X118885253Y-65618701D01*
X118887283Y-65624045D01*
X119165458Y-66409586D01*
X119167243Y-66415017D01*
X119409487Y-67212334D01*
X119411025Y-67217841D01*
X119590344Y-67921337D01*
X119616859Y-68025361D01*
X119618145Y-68030932D01*
X119787132Y-68846941D01*
X119788164Y-68852564D01*
X119835802Y-69149976D01*
X119914420Y-69640799D01*
X119919962Y-69675401D01*
X119920736Y-69681052D01*
X120012574Y-70487104D01*
X120015073Y-70509040D01*
X120015590Y-70514717D01*
X120071624Y-71336647D01*
X120072269Y-71346113D01*
X120072528Y-71351804D01*
X120091453Y-72185737D01*
X120091478Y-72189915D01*
X120087467Y-72572977D01*
X120087354Y-72577147D01*
X120058296Y-73242695D01*
X120050971Y-73410459D01*
X120050593Y-73416148D01*
X119982071Y-74183924D01*
X119976514Y-74246185D01*
X119975879Y-74251850D01*
X119941213Y-74508247D01*
X119864223Y-75077676D01*
X119863329Y-75083323D01*
X119714325Y-75903239D01*
X119713175Y-75908839D01*
X119527135Y-76721133D01*
X119525732Y-76726676D01*
X119303039Y-77529678D01*
X119301387Y-77535151D01*
X119042483Y-78327272D01*
X119040602Y-78332614D01*
X118948803Y-78575553D01*
X118746029Y-79112178D01*
X118743888Y-79117476D01*
X118641091Y-79356170D01*
X118414270Y-79882843D01*
X118411896Y-79888028D01*
X118299517Y-80119464D01*
X118047895Y-80637658D01*
X118045282Y-80642743D01*
X117647651Y-81375088D01*
X117644810Y-81380049D01*
X117214360Y-82093614D01*
X117211296Y-82098441D01*
X116748944Y-82791708D01*
X116745665Y-82796392D01*
X116252314Y-83468008D01*
X116248826Y-83472537D01*
X115725523Y-84121073D01*
X115721832Y-84125440D01*
X115169667Y-84749550D01*
X115165783Y-84753745D01*
X114585847Y-85352193D01*
X114581783Y-85356200D01*
X114392853Y-85534239D01*
X113975312Y-85927710D01*
X113971063Y-85931536D01*
X113339297Y-86474939D01*
X113334880Y-86478568D01*
X112679098Y-86992767D01*
X112674520Y-86996192D01*
X111996081Y-87480118D01*
X111991352Y-87483331D01*
X111291685Y-87935966D01*
X111286815Y-87938962D01*
X110567333Y-88359393D01*
X110562333Y-88362165D01*
X109824491Y-88749541D01*
X109819390Y-88752073D01*
X109583127Y-88862747D01*
X109064745Y-89105575D01*
X109059514Y-89107882D01*
X108289615Y-89426785D01*
X108284285Y-89428852D01*
X107500731Y-89712494D01*
X107495312Y-89714318D01*
X106699679Y-89962130D01*
X106694183Y-89963706D01*
X105888135Y-90175168D01*
X105882574Y-90176493D01*
X105067751Y-90351177D01*
X105062135Y-90352248D01*
X104240223Y-90489788D01*
X104234584Y-90490601D01*
X103945372Y-90525599D01*
X103407295Y-90590713D01*
X103401605Y-90591271D01*
X102570639Y-90653752D01*
X102564930Y-90654052D01*
X102100605Y-90667833D01*
X101731922Y-90678775D01*
X101726225Y-90678814D01*
X101088334Y-90668793D01*
X100893021Y-90665725D01*
X100887308Y-90665506D01*
X100055533Y-90614633D01*
X100049836Y-90614155D01*
X99221206Y-90525599D01*
X99215536Y-90524862D01*
X98831233Y-90466056D01*
X98391784Y-90398811D01*
X98386196Y-90397826D01*
X97977595Y-90316179D01*
X97569014Y-90234536D01*
X97563434Y-90233289D01*
X97163054Y-90134206D01*
X96754482Y-90033094D01*
X96749007Y-90031607D01*
X96213452Y-89872968D01*
X95949994Y-89794928D01*
X95944551Y-89793181D01*
X95157075Y-89520493D01*
X95151716Y-89518500D01*
X94377452Y-89210382D01*
X94372189Y-89208148D01*
X93612680Y-88865217D01*
X93607551Y-88862760D01*
X92864340Y-88485708D01*
X92859346Y-88483029D01*
X92134030Y-88072665D01*
X92129140Y-88069749D01*
X91423185Y-87626905D01*
X91418462Y-87623791D01*
X90733322Y-87149377D01*
X90728720Y-87146035D01*
X90065801Y-86641026D01*
X90061333Y-86637459D01*
X89422028Y-86102916D01*
X89417727Y-86099150D01*
X88803351Y-85536178D01*
X88799224Y-85532221D01*
X88211000Y-84941941D01*
X88207058Y-84937801D01*
X87646202Y-84321429D01*
X87642463Y-84317128D01*
X87110153Y-83675958D01*
X87106611Y-83671489D01*
X86952720Y-83468008D01*
X86603927Y-83006822D01*
X86600590Y-83002194D01*
X86455928Y-82791708D01*
X86128587Y-82315423D01*
X86125457Y-82310639D01*
X85685107Y-81603188D01*
X85682196Y-81598267D01*
X85274374Y-80871535D01*
X85271690Y-80866487D01*
X84897259Y-80122017D01*
X84894807Y-80116853D01*
X84554538Y-79356170D01*
X84552322Y-79350899D01*
X84246904Y-78575553D01*
X84244930Y-78570187D01*
X83974996Y-77781771D01*
X83973268Y-77776322D01*
X83739388Y-76976514D01*
X83737908Y-76970992D01*
X83540544Y-76161372D01*
X83539316Y-76155788D01*
X83378880Y-75338041D01*
X83377907Y-75332407D01*
X83362990Y-75232593D01*
X95692001Y-75232593D01*
X95692371Y-75239414D01*
X95697895Y-75290276D01*
X95701521Y-75305528D01*
X95746676Y-75425978D01*
X95755214Y-75441573D01*
X95831715Y-75543648D01*
X95844276Y-75556209D01*
X95946351Y-75632710D01*
X95961946Y-75641248D01*
X96082394Y-75686402D01*
X96097649Y-75690029D01*
X96148514Y-75695555D01*
X96155328Y-75695924D01*
X97027885Y-75695924D01*
X97043124Y-75691449D01*
X97044329Y-75690059D01*
X97046000Y-75682376D01*
X97046000Y-75677808D01*
X97554000Y-75677808D01*
X97558475Y-75693047D01*
X97559865Y-75694252D01*
X97567548Y-75695923D01*
X98444669Y-75695923D01*
X98451490Y-75695553D01*
X98502352Y-75690029D01*
X98517604Y-75686403D01*
X98638054Y-75641248D01*
X98653649Y-75632710D01*
X98755724Y-75556209D01*
X98768285Y-75543648D01*
X98844786Y-75441573D01*
X98853324Y-75425978D01*
X98898478Y-75305530D01*
X98902105Y-75290275D01*
X98907631Y-75239410D01*
X98907813Y-75236058D01*
X104291500Y-75236058D01*
X104298255Y-75298240D01*
X104349385Y-75434629D01*
X104436739Y-75551185D01*
X104553295Y-75638539D01*
X104689684Y-75689669D01*
X104751866Y-75696424D01*
X107048134Y-75696424D01*
X107110316Y-75689669D01*
X107246705Y-75638539D01*
X107363261Y-75551185D01*
X107450615Y-75434629D01*
X107501745Y-75298240D01*
X107508500Y-75236058D01*
X107508500Y-73639790D01*
X107501745Y-73577608D01*
X107450615Y-73441219D01*
X107363261Y-73324663D01*
X107246705Y-73237309D01*
X107110316Y-73186179D01*
X107048134Y-73179424D01*
X104751866Y-73179424D01*
X104689684Y-73186179D01*
X104553295Y-73237309D01*
X104436739Y-73324663D01*
X104349385Y-73441219D01*
X104298255Y-73577608D01*
X104291500Y-73639790D01*
X104291500Y-75236058D01*
X98907813Y-75236058D01*
X98908000Y-75232596D01*
X98908000Y-74710039D01*
X98903525Y-74694800D01*
X98902135Y-74693595D01*
X98894452Y-74691924D01*
X97572115Y-74691924D01*
X97556876Y-74696399D01*
X97555671Y-74697789D01*
X97554000Y-74705472D01*
X97554000Y-75677808D01*
X97046000Y-75677808D01*
X97046000Y-74710039D01*
X97041525Y-74694800D01*
X97040135Y-74693595D01*
X97032452Y-74691924D01*
X95710116Y-74691924D01*
X95694877Y-74696399D01*
X95693672Y-74697789D01*
X95692001Y-74705472D01*
X95692001Y-75232593D01*
X83362990Y-75232593D01*
X83254735Y-74508247D01*
X83254018Y-74502575D01*
X83227818Y-74249038D01*
X83219217Y-74165809D01*
X95692000Y-74165809D01*
X95696475Y-74181048D01*
X95697865Y-74182253D01*
X95705548Y-74183924D01*
X97027885Y-74183924D01*
X97043124Y-74179449D01*
X97044329Y-74178059D01*
X97046000Y-74170376D01*
X97046000Y-74165809D01*
X97554000Y-74165809D01*
X97558475Y-74181048D01*
X97559865Y-74182253D01*
X97567548Y-74183924D01*
X98889884Y-74183924D01*
X98905123Y-74179449D01*
X98906328Y-74178059D01*
X98907999Y-74170376D01*
X98907999Y-73643255D01*
X98907629Y-73636434D01*
X98902105Y-73585572D01*
X98898479Y-73570320D01*
X98853324Y-73449870D01*
X98844786Y-73434275D01*
X98768285Y-73332200D01*
X98755724Y-73319639D01*
X98653649Y-73243138D01*
X98638054Y-73234600D01*
X98517606Y-73189446D01*
X98502351Y-73185819D01*
X98451486Y-73180293D01*
X98444672Y-73179924D01*
X97572115Y-73179924D01*
X97556876Y-73184399D01*
X97555671Y-73185789D01*
X97554000Y-73193472D01*
X97554000Y-74165809D01*
X97046000Y-74165809D01*
X97046000Y-73198040D01*
X97041525Y-73182801D01*
X97040135Y-73181596D01*
X97032452Y-73179925D01*
X96155331Y-73179925D01*
X96148510Y-73180295D01*
X96097648Y-73185819D01*
X96082396Y-73189445D01*
X95961946Y-73234600D01*
X95946351Y-73243138D01*
X95844276Y-73319639D01*
X95831715Y-73332200D01*
X95755214Y-73434275D01*
X95746676Y-73449870D01*
X95701522Y-73570318D01*
X95697895Y-73585573D01*
X95692369Y-73636438D01*
X95692000Y-73643252D01*
X95692000Y-74165809D01*
X83219217Y-74165809D01*
X83168356Y-73673641D01*
X83167898Y-73667942D01*
X83119930Y-72836019D01*
X83119730Y-72830305D01*
X83116612Y-72575067D01*
X83109549Y-71997027D01*
X83109609Y-71991310D01*
X83130917Y-71348980D01*
X83137238Y-71158442D01*
X83137557Y-71152739D01*
X83138437Y-71141564D01*
X83170360Y-70735931D01*
X95691500Y-70735931D01*
X95698255Y-70798113D01*
X95749385Y-70934502D01*
X95836739Y-71051058D01*
X95953295Y-71138412D01*
X96089684Y-71189542D01*
X96151866Y-71196297D01*
X98448134Y-71196297D01*
X98510316Y-71189542D01*
X98646705Y-71138412D01*
X98763261Y-71051058D01*
X98850615Y-70934502D01*
X98857798Y-70915342D01*
X98891962Y-70865494D01*
X98906832Y-70852245D01*
X99023146Y-70735931D01*
X104291500Y-70735931D01*
X104298255Y-70798113D01*
X104349385Y-70934502D01*
X104436739Y-71051058D01*
X104553295Y-71138412D01*
X104689684Y-71189542D01*
X104751866Y-71196297D01*
X107048134Y-71196297D01*
X107110316Y-71189542D01*
X107246705Y-71138412D01*
X107363261Y-71051058D01*
X107450615Y-70934502D01*
X107501745Y-70798113D01*
X107508500Y-70735931D01*
X107508500Y-69139663D01*
X107501745Y-69077481D01*
X107450615Y-68941092D01*
X107363261Y-68824536D01*
X107246705Y-68737182D01*
X107110316Y-68686052D01*
X107048134Y-68679297D01*
X104751866Y-68679297D01*
X104689684Y-68686052D01*
X104553295Y-68737182D01*
X104436739Y-68824536D01*
X104349385Y-68941092D01*
X104298255Y-69077481D01*
X104291500Y-69139663D01*
X104291500Y-70735931D01*
X99023146Y-70735931D01*
X100303242Y-69455835D01*
X100406370Y-69332495D01*
X100513253Y-69145109D01*
X100515122Y-69139832D01*
X100515124Y-69139827D01*
X100583391Y-68947046D01*
X100583392Y-68947043D01*
X100585264Y-68941756D01*
X100620126Y-68728866D01*
X100619348Y-68679297D01*
X100616826Y-68518780D01*
X100616738Y-68513167D01*
X100575206Y-68301477D01*
X100496843Y-68100486D01*
X100384126Y-67916550D01*
X100240619Y-67755481D01*
X100070857Y-67622369D01*
X99880205Y-67521426D01*
X99674692Y-67455837D01*
X99669135Y-67455105D01*
X99669133Y-67455105D01*
X99547504Y-67439093D01*
X99460811Y-67427680D01*
X99455212Y-67427944D01*
X99455210Y-67427944D01*
X99331422Y-67433782D01*
X99245325Y-67437842D01*
X99239864Y-67439093D01*
X99239862Y-67439093D01*
X99040508Y-67484751D01*
X99040504Y-67484752D01*
X99035043Y-67486003D01*
X98836614Y-67570640D01*
X98656308Y-67689078D01*
X98652870Y-67692141D01*
X98652865Y-67692145D01*
X98619743Y-67721657D01*
X98615371Y-67725552D01*
X97698531Y-68642392D01*
X97636219Y-68676418D01*
X97609436Y-68679297D01*
X96151866Y-68679297D01*
X96089684Y-68686052D01*
X95953295Y-68737182D01*
X95836739Y-68824536D01*
X95749385Y-68941092D01*
X95698255Y-69077481D01*
X95691500Y-69139663D01*
X95691500Y-70735931D01*
X83170360Y-70735931D01*
X83202939Y-70321968D01*
X83203517Y-70316284D01*
X83306517Y-69489358D01*
X83307352Y-69483702D01*
X83447760Y-68662280D01*
X83448851Y-68656668D01*
X83626377Y-67842461D01*
X83627722Y-67836904D01*
X83841994Y-67031609D01*
X83843589Y-67026119D01*
X84094173Y-66231369D01*
X84096015Y-66225957D01*
X84382398Y-65443377D01*
X84384484Y-65438054D01*
X84706075Y-64669266D01*
X84708401Y-64664043D01*
X85064518Y-63910674D01*
X85067078Y-63905562D01*
X85457030Y-63169070D01*
X85459819Y-63164079D01*
X85882751Y-62446082D01*
X85885764Y-62441223D01*
X86340856Y-61743115D01*
X86344085Y-61738398D01*
X86830365Y-61061665D01*
X86833806Y-61057099D01*
X87350291Y-60403117D01*
X87353935Y-60398712D01*
X87431822Y-60308797D01*
X87899566Y-59768820D01*
X87903354Y-59764643D01*
X88477023Y-59160122D01*
X88481020Y-59156098D01*
X89081492Y-58578250D01*
X89085701Y-58574380D01*
X89711738Y-58024393D01*
X89716117Y-58020718D01*
X90366473Y-57499684D01*
X90371015Y-57496211D01*
X91044341Y-57005213D01*
X91049036Y-57001950D01*
X91494990Y-56706779D01*
X91743954Y-56541994D01*
X91748771Y-56538961D01*
X92463828Y-56111009D01*
X92468781Y-56108195D01*
X93202513Y-55713121D01*
X93207603Y-55710527D01*
X93958510Y-55349139D01*
X93963709Y-55346781D01*
X94730237Y-55019830D01*
X94735517Y-55017718D01*
X95516106Y-54725867D01*
X95521465Y-54724001D01*
X95958977Y-54582689D01*
X96314480Y-54467865D01*
X96319959Y-54466232D01*
X96954058Y-54292762D01*
X97123753Y-54246339D01*
X97129281Y-54244961D01*
X97770773Y-54100394D01*
X97942233Y-54061754D01*
X97947838Y-54060624D01*
X98768240Y-53914488D01*
X98773890Y-53913613D01*
X99600084Y-53804842D01*
X99605767Y-53804224D01*
X99845365Y-53783683D01*
X100436103Y-53733040D01*
X100441766Y-53732684D01*
X101193141Y-53702505D01*
X101274417Y-53699241D01*
X101280134Y-53699141D01*
X102113440Y-53703505D01*
G37*
%TD.AperFunction*%
%TD*%
M02*
