%TF.GenerationSoftware,KiCad,Pcbnew,(6.0.4-0)*%
%TF.CreationDate,2022-06-03T17:21:12+02:00*%
%TF.ProjectId,GlowTower_LED_connector_PCB,476c6f77-546f-4776-9572-5f4c45445f63,rev?*%
%TF.SameCoordinates,Original*%
%TF.FileFunction,Copper,L2,Bot*%
%TF.FilePolarity,Positive*%
%FSLAX46Y46*%
G04 Gerber Fmt 4.6, Leading zero omitted, Abs format (unit mm)*
G04 Created by KiCad (PCBNEW (6.0.4-0)) date 2022-06-03 17:21:12*
%MOMM*%
%LPD*%
G01*
G04 APERTURE LIST*
G04 Aperture macros list*
%AMRotRect*
0 Rectangle, with rotation*
0 The origin of the aperture is its center*
0 $1 length*
0 $2 width*
0 $3 Rotation angle, in degrees counterclockwise*
0 Add horizontal line*
21,1,$1,$2,0,0,$3*%
G04 Aperture macros list end*
%TA.AperFunction,SMDPad,CuDef*%
%ADD10RotRect,2.000000X3.500000X315.000000*%
%TD*%
%TA.AperFunction,SMDPad,CuDef*%
%ADD11RotRect,2.000000X3.500000X135.000000*%
%TD*%
%TA.AperFunction,SMDPad,CuDef*%
%ADD12RotRect,2.000000X3.500000X45.000000*%
%TD*%
%TA.AperFunction,SMDPad,CuDef*%
%ADD13RotRect,2.000000X3.500000X225.000000*%
%TD*%
%TA.AperFunction,ViaPad*%
%ADD14C,0.800000*%
%TD*%
%TA.AperFunction,Conductor*%
%ADD15C,1.000000*%
%TD*%
%TA.AperFunction,Conductor*%
%ADD16C,1.400000*%
%TD*%
%TA.AperFunction,Conductor*%
%ADD17C,2.000000*%
%TD*%
G04 APERTURE END LIST*
D10*
%TO.P,U1,4,BUTTON*%
%TO.N,BUTTON*%
X104350000Y-63700000D03*
%TO.P,U1,3,GND*%
%TO.N,GND*%
X106258670Y-65608669D03*
%TO.P,U1,2,Data*%
%TO.N,Net-(U3-Pad2)*%
X108167339Y-67517338D03*
%TO.P,U1,1,5V*%
%TO.N,unconnected-(U1-Pad1)*%
X110076010Y-69426009D03*
%TD*%
D11*
%TO.P,U2,4,BUTTON*%
%TO.N,unconnected-(U2-Pad4)*%
X98853775Y-80650880D03*
%TO.P,U2,3,GND*%
%TO.N,unconnected-(U2-Pad3)*%
X96945105Y-78742211D03*
%TO.P,U2,2,Data*%
%TO.N,Net-(U4-Pad2)*%
X95036436Y-76833542D03*
%TO.P,U2,1,5V*%
%TO.N,unconnected-(U2-Pad1)*%
X93127765Y-74924871D03*
%TD*%
D12*
%TO.P,U3,1,5V*%
%TO.N,unconnected-(U3-Pad1)*%
X93132662Y-69417339D03*
%TO.P,U3,2,Data*%
%TO.N,Net-(U3-Pad2)*%
X95041331Y-67508669D03*
%TO.P,U3,3,GND*%
%TO.N,unconnected-(U3-Pad3)*%
X96950000Y-65600000D03*
%TO.P,U3,4,BUTTON*%
%TO.N,unconnected-(U3-Pad4)*%
X98858671Y-63691329D03*
%TD*%
D13*
%TO.P,U4,1,5V*%
%TO.N,unconnected-(U4-Pad1)*%
X110090880Y-74926225D03*
%TO.P,U4,2,Data*%
%TO.N,Net-(U4-Pad2)*%
X108182211Y-76834895D03*
%TO.P,U4,3,GND*%
%TO.N,unconnected-(U4-Pad3)*%
X106273542Y-78743564D03*
%TO.P,U4,4,BUTTON*%
%TO.N,unconnected-(U4-Pad4)*%
X104364871Y-80652235D03*
%TD*%
D14*
%TO.N,GND*%
X99240000Y-72350000D03*
%TO.N,BUTTON*%
X99410000Y-68580000D03*
%TD*%
D15*
%TO.N,GND*%
X105981331Y-65608669D02*
X99240000Y-72350000D01*
X106258670Y-65608669D02*
X105981331Y-65608669D01*
D16*
%TO.N,BUTTON*%
X104290000Y-63700000D02*
X99410000Y-68580000D01*
D15*
X104350000Y-63700000D02*
X104290000Y-63700000D01*
D17*
%TO.N,Net-(U3-Pad2)*%
X95041331Y-67508669D02*
X92050000Y-64517338D01*
X96590000Y-57750000D02*
X105600000Y-57750000D01*
X92050000Y-62290000D02*
X96590000Y-57750000D01*
X110470000Y-65214677D02*
X108167339Y-67517338D01*
X105600000Y-57750000D02*
X110470000Y-62620000D01*
X92050000Y-64517338D02*
X92050000Y-62290000D01*
X110470000Y-62620000D02*
X110470000Y-65214677D01*
%TO.N,Net-(U4-Pad2)*%
X94150000Y-84840000D02*
X91600000Y-82290000D01*
X94150000Y-84880000D02*
X94150000Y-84840000D01*
X91600000Y-82290000D02*
X91600000Y-80269978D01*
X91600000Y-80269978D02*
X95036436Y-76833542D01*
%TO.N,unconnected-(U1-Pad1)*%
X110076010Y-69426009D02*
X110076010Y-69473990D01*
%TO.N,Net-(U4-Pad2)*%
X94150000Y-84880000D02*
X96280000Y-87010000D01*
X105760000Y-87010000D02*
X110510000Y-82260000D01*
X110510000Y-82260000D02*
X110510000Y-79162684D01*
X110510000Y-79162684D02*
X108182211Y-76834895D01*
X96280000Y-87010000D02*
X105760000Y-87010000D01*
%TD*%
%TA.AperFunction,Conductor*%
%TO.N,GND*%
G36*
X102113440Y-53703505D02*
G01*
X102119155Y-53703664D01*
X102951434Y-53745825D01*
X102957136Y-53746244D01*
X103565703Y-53804842D01*
X103786625Y-53826114D01*
X103792297Y-53826791D01*
X104617322Y-53944210D01*
X104622958Y-53945143D01*
X105441777Y-54099861D01*
X105447369Y-54101049D01*
X106258374Y-54292762D01*
X106263907Y-54294204D01*
X106867817Y-54466232D01*
X107065326Y-54522494D01*
X107070784Y-54524183D01*
X107861072Y-54788609D01*
X107866432Y-54790539D01*
X108096204Y-54879201D01*
X108643909Y-55090543D01*
X108649194Y-55092722D01*
X109412230Y-55427672D01*
X109417393Y-55430079D01*
X109930807Y-55683824D01*
X110164459Y-55799302D01*
X110169526Y-55801950D01*
X110899094Y-56204693D01*
X110904035Y-56207569D01*
X111614565Y-56642983D01*
X111619370Y-56646080D01*
X112309404Y-57113267D01*
X112314065Y-57116579D01*
X112982232Y-57614616D01*
X112986705Y-57618110D01*
X113210168Y-57801013D01*
X113631582Y-58145937D01*
X113635923Y-58149658D01*
X114256163Y-58706167D01*
X114260331Y-58710080D01*
X114854726Y-59294190D01*
X114858711Y-59298289D01*
X115425956Y-59908718D01*
X115429752Y-59912993D01*
X115968753Y-60548560D01*
X115972351Y-60553004D01*
X116481936Y-61212331D01*
X116485329Y-61216932D01*
X116964510Y-61898738D01*
X116967690Y-61903489D01*
X117415432Y-62606304D01*
X117418394Y-62611195D01*
X117833791Y-63333592D01*
X117836528Y-63338611D01*
X118213668Y-64069304D01*
X118218743Y-64079137D01*
X118221242Y-64084263D01*
X118569472Y-64841367D01*
X118571723Y-64846568D01*
X118742268Y-65266570D01*
X118885253Y-65618701D01*
X118887283Y-65624045D01*
X119099499Y-66223325D01*
X119162037Y-66399924D01*
X119165458Y-66409586D01*
X119167242Y-66415013D01*
X119181381Y-66461551D01*
X119409487Y-67212334D01*
X119411025Y-67217841D01*
X119605451Y-67980604D01*
X119616859Y-68025361D01*
X119618142Y-68030919D01*
X119680204Y-68330606D01*
X119787132Y-68846941D01*
X119788164Y-68852564D01*
X119838015Y-69163791D01*
X119914420Y-69640799D01*
X119919962Y-69675401D01*
X119920736Y-69681052D01*
X120012574Y-70487104D01*
X120015073Y-70509040D01*
X120015590Y-70514717D01*
X120071624Y-71336647D01*
X120072269Y-71346113D01*
X120072528Y-71351804D01*
X120091453Y-72185737D01*
X120091478Y-72189912D01*
X120087682Y-72552484D01*
X120087467Y-72572977D01*
X120087354Y-72577147D01*
X120076052Y-72836019D01*
X120050971Y-73410459D01*
X120050593Y-73416148D01*
X119987976Y-74117759D01*
X119976514Y-74246185D01*
X119975879Y-74251850D01*
X119941213Y-74508247D01*
X119864223Y-75077676D01*
X119863329Y-75083323D01*
X119714325Y-75903239D01*
X119713175Y-75908839D01*
X119527135Y-76721133D01*
X119525732Y-76726676D01*
X119303039Y-77529678D01*
X119301387Y-77535151D01*
X119042483Y-78327272D01*
X119040602Y-78332614D01*
X118787538Y-79002328D01*
X118746029Y-79112178D01*
X118743888Y-79117476D01*
X118428003Y-79850956D01*
X118414270Y-79882843D01*
X118411896Y-79888028D01*
X118164591Y-80397332D01*
X118047895Y-80637658D01*
X118045282Y-80642743D01*
X117647651Y-81375088D01*
X117644810Y-81380049D01*
X117214360Y-82093614D01*
X117211296Y-82098441D01*
X116748944Y-82791708D01*
X116745665Y-82796392D01*
X116252314Y-83468008D01*
X116248826Y-83472537D01*
X115725523Y-84121073D01*
X115721832Y-84125440D01*
X115169667Y-84749550D01*
X115165783Y-84753745D01*
X114585847Y-85352193D01*
X114581783Y-85356200D01*
X114392853Y-85534239D01*
X113975312Y-85927710D01*
X113971063Y-85931536D01*
X113339297Y-86474939D01*
X113334880Y-86478568D01*
X112679098Y-86992767D01*
X112674520Y-86996192D01*
X111996081Y-87480118D01*
X111991352Y-87483331D01*
X111291685Y-87935966D01*
X111286815Y-87938962D01*
X110567333Y-88359393D01*
X110562333Y-88362165D01*
X110348911Y-88474214D01*
X109824491Y-88749541D01*
X109819390Y-88752073D01*
X109583127Y-88862747D01*
X109064745Y-89105575D01*
X109059514Y-89107882D01*
X108289615Y-89426785D01*
X108284285Y-89428852D01*
X107500731Y-89712494D01*
X107495312Y-89714318D01*
X106699679Y-89962130D01*
X106694183Y-89963706D01*
X105888135Y-90175168D01*
X105882574Y-90176493D01*
X105067751Y-90351177D01*
X105062135Y-90352248D01*
X104240223Y-90489788D01*
X104234584Y-90490601D01*
X103945372Y-90525599D01*
X103407295Y-90590713D01*
X103401605Y-90591271D01*
X102570639Y-90653752D01*
X102564930Y-90654052D01*
X102100605Y-90667833D01*
X101731922Y-90678775D01*
X101726225Y-90678814D01*
X101088334Y-90668793D01*
X100893021Y-90665725D01*
X100887308Y-90665506D01*
X100055533Y-90614633D01*
X100049836Y-90614155D01*
X99221206Y-90525599D01*
X99215536Y-90524862D01*
X98831233Y-90466056D01*
X98391784Y-90398811D01*
X98386196Y-90397826D01*
X97977595Y-90316179D01*
X97569014Y-90234536D01*
X97563434Y-90233289D01*
X97163054Y-90134206D01*
X96754482Y-90033094D01*
X96749007Y-90031607D01*
X96213452Y-89872968D01*
X95949994Y-89794928D01*
X95944551Y-89793181D01*
X95157075Y-89520493D01*
X95151716Y-89518500D01*
X94377452Y-89210382D01*
X94372189Y-89208148D01*
X93612680Y-88865217D01*
X93607551Y-88862760D01*
X92864340Y-88485708D01*
X92859346Y-88483029D01*
X92848197Y-88476721D01*
X92134030Y-88072665D01*
X92129140Y-88069749D01*
X91423185Y-87626905D01*
X91418462Y-87623791D01*
X90733322Y-87149377D01*
X90728720Y-87146035D01*
X90065801Y-86641026D01*
X90061333Y-86637459D01*
X89422028Y-86102916D01*
X89417727Y-86099150D01*
X88803351Y-85536178D01*
X88799224Y-85532221D01*
X88211000Y-84941941D01*
X88207058Y-84937801D01*
X87646202Y-84321429D01*
X87642463Y-84317128D01*
X87110153Y-83675958D01*
X87106611Y-83671489D01*
X86952720Y-83468008D01*
X86603927Y-83006822D01*
X86600590Y-83002194D01*
X86595942Y-82995430D01*
X86223585Y-82453647D01*
X86128587Y-82315423D01*
X86125457Y-82310639D01*
X85723681Y-81665159D01*
X85685104Y-81603183D01*
X85682196Y-81598267D01*
X85630833Y-81506738D01*
X85510832Y-81292899D01*
X85274374Y-80871535D01*
X85271690Y-80866487D01*
X84984960Y-80296391D01*
X90086822Y-80296391D01*
X90087316Y-80301426D01*
X90090899Y-80337970D01*
X90091500Y-80350266D01*
X90091500Y-82265984D01*
X90091451Y-82269502D01*
X90088666Y-82369205D01*
X90096716Y-82429532D01*
X90099058Y-82447086D01*
X90099758Y-82453639D01*
X90106060Y-82531965D01*
X90113897Y-82563870D01*
X90116426Y-82577258D01*
X90120771Y-82609820D01*
X90122232Y-82614661D01*
X90122233Y-82614663D01*
X90143478Y-82685029D01*
X90145219Y-82691390D01*
X90163963Y-82767706D01*
X90165941Y-82772366D01*
X90176801Y-82797951D01*
X90181438Y-82810761D01*
X90190933Y-82842208D01*
X90193151Y-82846756D01*
X90193154Y-82846763D01*
X90225371Y-82912818D01*
X90228107Y-82918820D01*
X90258812Y-82991156D01*
X90274123Y-83015468D01*
X90276319Y-83018956D01*
X90282945Y-83030860D01*
X90297346Y-83060388D01*
X90329464Y-83105917D01*
X90342641Y-83124597D01*
X90346301Y-83130086D01*
X90358299Y-83149138D01*
X90388167Y-83196567D01*
X90391508Y-83200356D01*
X90391512Y-83200362D01*
X90409898Y-83221217D01*
X90418344Y-83231912D01*
X90437274Y-83258747D01*
X90439944Y-83261671D01*
X90449986Y-83272668D01*
X90456909Y-83280250D01*
X90496625Y-83319966D01*
X90502044Y-83325736D01*
X90545350Y-83374858D01*
X90545353Y-83374861D01*
X90548698Y-83378655D01*
X90552606Y-83381865D01*
X90552607Y-83381866D01*
X90580989Y-83405179D01*
X90590108Y-83413449D01*
X92885551Y-85708892D01*
X92903076Y-85730844D01*
X92938167Y-85786567D01*
X92941508Y-85790356D01*
X92941512Y-85790362D01*
X92959898Y-85811217D01*
X92968344Y-85821912D01*
X92987274Y-85848747D01*
X93006909Y-85870250D01*
X93046625Y-85909966D01*
X93052044Y-85915736D01*
X93095350Y-85964858D01*
X93095353Y-85964861D01*
X93098698Y-85968655D01*
X93102606Y-85971865D01*
X93102607Y-85971866D01*
X93130989Y-85995179D01*
X93140108Y-86003449D01*
X95196325Y-88059666D01*
X95198779Y-88062188D01*
X95242060Y-88107956D01*
X95267332Y-88134681D01*
X95317093Y-88172726D01*
X95329757Y-88182408D01*
X95334892Y-88186552D01*
X95394720Y-88237470D01*
X95399045Y-88240089D01*
X95399050Y-88240093D01*
X95422824Y-88254491D01*
X95434071Y-88262163D01*
X95460174Y-88282120D01*
X95521255Y-88314871D01*
X95529401Y-88319239D01*
X95535126Y-88322504D01*
X95602358Y-88363221D01*
X95632817Y-88375527D01*
X95645158Y-88381307D01*
X95674109Y-88396831D01*
X95678890Y-88398477D01*
X95678894Y-88398479D01*
X95748401Y-88422412D01*
X95754579Y-88424722D01*
X95768962Y-88430533D01*
X95827429Y-88454155D01*
X95832369Y-88455277D01*
X95832368Y-88455277D01*
X95859460Y-88461432D01*
X95872559Y-88465163D01*
X95903631Y-88475862D01*
X95981100Y-88489243D01*
X95987504Y-88490523D01*
X96064144Y-88507935D01*
X96096953Y-88509999D01*
X96110453Y-88511585D01*
X96142836Y-88517179D01*
X96146793Y-88517359D01*
X96146796Y-88517359D01*
X96170506Y-88518436D01*
X96170525Y-88518436D01*
X96171925Y-88518500D01*
X96228108Y-88518500D01*
X96236019Y-88518749D01*
X96306413Y-88523178D01*
X96347992Y-88519101D01*
X96360288Y-88518500D01*
X105735984Y-88518500D01*
X105739502Y-88518549D01*
X105834150Y-88521193D01*
X105834153Y-88521193D01*
X105839205Y-88521334D01*
X105917098Y-88510941D01*
X105923639Y-88510242D01*
X105952332Y-88507933D01*
X105996923Y-88504346D01*
X105996927Y-88504345D01*
X106001965Y-88503940D01*
X106033878Y-88496101D01*
X106047258Y-88493574D01*
X106079820Y-88489229D01*
X106084661Y-88487768D01*
X106084663Y-88487767D01*
X106155029Y-88466522D01*
X106161392Y-88464781D01*
X106175027Y-88461432D01*
X106237706Y-88446037D01*
X106267952Y-88433199D01*
X106280763Y-88428561D01*
X106307362Y-88420530D01*
X106312208Y-88419067D01*
X106316756Y-88416849D01*
X106316763Y-88416846D01*
X106382818Y-88384629D01*
X106388820Y-88381893D01*
X106441826Y-88359393D01*
X106461156Y-88351188D01*
X106488956Y-88333681D01*
X106500860Y-88327055D01*
X106530388Y-88312654D01*
X106594600Y-88267357D01*
X106600086Y-88263699D01*
X106662286Y-88224529D01*
X106662287Y-88224528D01*
X106666567Y-88221833D01*
X106670356Y-88218492D01*
X106670362Y-88218488D01*
X106691217Y-88200102D01*
X106701912Y-88191656D01*
X106715022Y-88182408D01*
X106728747Y-88172726D01*
X106750250Y-88153091D01*
X106789966Y-88113375D01*
X106795736Y-88107956D01*
X106844858Y-88064650D01*
X106844861Y-88064647D01*
X106848655Y-88061302D01*
X106851871Y-88057387D01*
X106875178Y-88029013D01*
X106883448Y-88019893D01*
X111559701Y-83343640D01*
X111562224Y-83341186D01*
X111631002Y-83276147D01*
X111634681Y-83272668D01*
X111682412Y-83210239D01*
X111686554Y-83205107D01*
X111734187Y-83149138D01*
X111734189Y-83149135D01*
X111737470Y-83145280D01*
X111740090Y-83140954D01*
X111740095Y-83140947D01*
X111754491Y-83117176D01*
X111762163Y-83105929D01*
X111782120Y-83079826D01*
X111819247Y-83010584D01*
X111822510Y-83004863D01*
X111860602Y-82941966D01*
X111860603Y-82941965D01*
X111863220Y-82937643D01*
X111875534Y-82907166D01*
X111881303Y-82894850D01*
X111896831Y-82865891D01*
X111922423Y-82791567D01*
X111924718Y-82785429D01*
X111952258Y-82717267D01*
X111952259Y-82717263D01*
X111954155Y-82712571D01*
X111961432Y-82680539D01*
X111965163Y-82667441D01*
X111975862Y-82636369D01*
X111989243Y-82558900D01*
X111990526Y-82552482D01*
X111995188Y-82531965D01*
X112007935Y-82475856D01*
X112009999Y-82443047D01*
X112011585Y-82429547D01*
X112017179Y-82397164D01*
X112018500Y-82368075D01*
X112018500Y-82311893D01*
X112018749Y-82303981D01*
X112022860Y-82238642D01*
X112023178Y-82233588D01*
X112019101Y-82192009D01*
X112018500Y-82179713D01*
X112018500Y-79186700D01*
X112018549Y-79183182D01*
X112021193Y-79088534D01*
X112021193Y-79088531D01*
X112021334Y-79083479D01*
X112010941Y-79005586D01*
X112010241Y-78999037D01*
X112004346Y-78925761D01*
X112004345Y-78925757D01*
X112003940Y-78920719D01*
X111996101Y-78888806D01*
X111993573Y-78875422D01*
X111989898Y-78847878D01*
X111989229Y-78842864D01*
X111966522Y-78767655D01*
X111964781Y-78761292D01*
X111947244Y-78689893D01*
X111946037Y-78684978D01*
X111933199Y-78654732D01*
X111928561Y-78641921D01*
X111920530Y-78615322D01*
X111919067Y-78610476D01*
X111916849Y-78605928D01*
X111916846Y-78605921D01*
X111884629Y-78539866D01*
X111881893Y-78533864D01*
X111853162Y-78466179D01*
X111851188Y-78461528D01*
X111833681Y-78433728D01*
X111827052Y-78421818D01*
X111812654Y-78392296D01*
X111767357Y-78328084D01*
X111763699Y-78322598D01*
X111724529Y-78260398D01*
X111724528Y-78260397D01*
X111721833Y-78256117D01*
X111718492Y-78252328D01*
X111718488Y-78252322D01*
X111700102Y-78231467D01*
X111691656Y-78220772D01*
X111688975Y-78216972D01*
X111672726Y-78193937D01*
X111653091Y-78172434D01*
X111613375Y-78132718D01*
X111607956Y-78126948D01*
X111564650Y-78077826D01*
X111564647Y-78077823D01*
X111561302Y-78074029D01*
X111529011Y-78047505D01*
X111519892Y-78039235D01*
X110934223Y-77453566D01*
X110900197Y-77391254D01*
X110905262Y-77320439D01*
X110942104Y-77269409D01*
X110941542Y-77268782D01*
X110944076Y-77266508D01*
X110946738Y-77264368D01*
X112429023Y-75782083D01*
X112442479Y-75765347D01*
X112463267Y-75739493D01*
X112463269Y-75739490D01*
X112468216Y-75733337D01*
X112528503Y-75600741D01*
X112529970Y-75590501D01*
X112547879Y-75465444D01*
X112549152Y-75456555D01*
X112532180Y-75338041D01*
X112529776Y-75321255D01*
X112529775Y-75321252D01*
X112528503Y-75312369D01*
X112468216Y-75179773D01*
X112463269Y-75173620D01*
X112463267Y-75173617D01*
X112431163Y-75133689D01*
X112429023Y-75131027D01*
X109886078Y-72588082D01*
X109867291Y-72572977D01*
X109843488Y-72553838D01*
X109843485Y-72553836D01*
X109837332Y-72548889D01*
X109704736Y-72488602D01*
X109695853Y-72487330D01*
X109695850Y-72487329D01*
X109569439Y-72469226D01*
X109560550Y-72467953D01*
X109551661Y-72469226D01*
X109425250Y-72487329D01*
X109425247Y-72487330D01*
X109416364Y-72488602D01*
X109283768Y-72548889D01*
X109277615Y-72553836D01*
X109277612Y-72553838D01*
X109253809Y-72572977D01*
X109235022Y-72588082D01*
X107752737Y-74070367D01*
X107750597Y-74073029D01*
X107718493Y-74112957D01*
X107718491Y-74112960D01*
X107713544Y-74119113D01*
X107653257Y-74251709D01*
X107651985Y-74260594D01*
X107651984Y-74260596D01*
X107648409Y-74285560D01*
X107618952Y-74350157D01*
X107559247Y-74388574D01*
X107541545Y-74392424D01*
X107516582Y-74395999D01*
X107516580Y-74396000D01*
X107507695Y-74397272D01*
X107375099Y-74457559D01*
X107368946Y-74462506D01*
X107368943Y-74462508D01*
X107343089Y-74483296D01*
X107326353Y-74496752D01*
X105844068Y-75979037D01*
X105841928Y-75981699D01*
X105809824Y-76021627D01*
X105809822Y-76021630D01*
X105804875Y-76027783D01*
X105744588Y-76160379D01*
X105743316Y-76169264D01*
X105743315Y-76169266D01*
X105739740Y-76194229D01*
X105710283Y-76258826D01*
X105650577Y-76297243D01*
X105632876Y-76301093D01*
X105607913Y-76304668D01*
X105607911Y-76304669D01*
X105599026Y-76305941D01*
X105466430Y-76366228D01*
X105460277Y-76371175D01*
X105460274Y-76371177D01*
X105434420Y-76391965D01*
X105417684Y-76405421D01*
X103935399Y-77887706D01*
X103933259Y-77890368D01*
X103901155Y-77930296D01*
X103901153Y-77930299D01*
X103896206Y-77936452D01*
X103892938Y-77943640D01*
X103842031Y-78055606D01*
X103835919Y-78069048D01*
X103834647Y-78077933D01*
X103831071Y-78102900D01*
X103801614Y-78167497D01*
X103741909Y-78205914D01*
X103724207Y-78209764D01*
X103690355Y-78214612D01*
X103682187Y-78218326D01*
X103682186Y-78218326D01*
X103664525Y-78226356D01*
X103557759Y-78274899D01*
X103551606Y-78279846D01*
X103551603Y-78279848D01*
X103525749Y-78300636D01*
X103509013Y-78314092D01*
X102026728Y-79796377D01*
X102024588Y-79799039D01*
X101992484Y-79838967D01*
X101992482Y-79838970D01*
X101987535Y-79845123D01*
X101927248Y-79977719D01*
X101906599Y-80121905D01*
X101927248Y-80266091D01*
X101930962Y-80274259D01*
X101930962Y-80274260D01*
X101941024Y-80296391D01*
X101987535Y-80398687D01*
X101992482Y-80404840D01*
X101992484Y-80404843D01*
X102013272Y-80430697D01*
X102026728Y-80447433D01*
X104569673Y-82990378D01*
X104584369Y-83002194D01*
X104612263Y-83024622D01*
X104612266Y-83024624D01*
X104618419Y-83029571D01*
X104625607Y-83032839D01*
X104737777Y-83083839D01*
X104751015Y-83089858D01*
X104759898Y-83091130D01*
X104759901Y-83091131D01*
X104886312Y-83109234D01*
X104895201Y-83110507D01*
X104904090Y-83109234D01*
X105030501Y-83091131D01*
X105030504Y-83091130D01*
X105039387Y-83089858D01*
X105052626Y-83083839D01*
X105164795Y-83032839D01*
X105171983Y-83029571D01*
X105178136Y-83024624D01*
X105178139Y-83024622D01*
X105206033Y-83002194D01*
X105220729Y-82990378D01*
X106703014Y-81508093D01*
X106716470Y-81491357D01*
X106737258Y-81465503D01*
X106737260Y-81465500D01*
X106742207Y-81459347D01*
X106802494Y-81326751D01*
X106807342Y-81292899D01*
X106836799Y-81228302D01*
X106896504Y-81189885D01*
X106914206Y-81186035D01*
X106948058Y-81181187D01*
X107080654Y-81120900D01*
X107086807Y-81115953D01*
X107086810Y-81115951D01*
X107126738Y-81083847D01*
X107129400Y-81081707D01*
X108611685Y-79599422D01*
X108613825Y-79596760D01*
X108616099Y-79594226D01*
X108616773Y-79594830D01*
X108671885Y-79556488D01*
X108742834Y-79553888D01*
X108800883Y-79586908D01*
X108964595Y-79750620D01*
X108998621Y-79812932D01*
X109001500Y-79839715D01*
X109001500Y-81582969D01*
X108981498Y-81651090D01*
X108964595Y-81672064D01*
X105172064Y-85464595D01*
X105109752Y-85498621D01*
X105082969Y-85501500D01*
X96957031Y-85501500D01*
X96888910Y-85481498D01*
X96867936Y-85464595D01*
X95414449Y-84011108D01*
X95396924Y-83989156D01*
X95364525Y-83937708D01*
X95361833Y-83933433D01*
X95358492Y-83929644D01*
X95358488Y-83929638D01*
X95340102Y-83908783D01*
X95331656Y-83898088D01*
X95315009Y-83874490D01*
X95312726Y-83871253D01*
X95293091Y-83849750D01*
X95253375Y-83810034D01*
X95247956Y-83804264D01*
X95204650Y-83755142D01*
X95204647Y-83755139D01*
X95201302Y-83751345D01*
X95169011Y-83724821D01*
X95159892Y-83716551D01*
X93145405Y-81702064D01*
X93111379Y-81639752D01*
X93108500Y-81612969D01*
X93108500Y-80947009D01*
X93128502Y-80878888D01*
X93145405Y-80857914D01*
X94417765Y-79585555D01*
X94480077Y-79551529D01*
X94550893Y-79556594D01*
X94601920Y-79593437D01*
X94602548Y-79592873D01*
X94604822Y-79595407D01*
X94606962Y-79598069D01*
X96089247Y-81080354D01*
X96105983Y-81093810D01*
X96131837Y-81114598D01*
X96131840Y-81114600D01*
X96137993Y-81119547D01*
X96270589Y-81179834D01*
X96279474Y-81181106D01*
X96279476Y-81181107D01*
X96304440Y-81184682D01*
X96369037Y-81214139D01*
X96407454Y-81273844D01*
X96411304Y-81291546D01*
X96416152Y-81325396D01*
X96476439Y-81457992D01*
X96481386Y-81464145D01*
X96481388Y-81464148D01*
X96502176Y-81490002D01*
X96515632Y-81506738D01*
X97997917Y-82989023D01*
X98000579Y-82991163D01*
X98040507Y-83023267D01*
X98040510Y-83023269D01*
X98046663Y-83028216D01*
X98053851Y-83031484D01*
X98160175Y-83079826D01*
X98179259Y-83088503D01*
X98188142Y-83089775D01*
X98188145Y-83089776D01*
X98314556Y-83107879D01*
X98323445Y-83109152D01*
X98332334Y-83107879D01*
X98458745Y-83089776D01*
X98458748Y-83089775D01*
X98467631Y-83088503D01*
X98486716Y-83079826D01*
X98593039Y-83031484D01*
X98600227Y-83028216D01*
X98606380Y-83023269D01*
X98606383Y-83023267D01*
X98646311Y-82991163D01*
X98648973Y-82989023D01*
X101191918Y-80446078D01*
X101205374Y-80429342D01*
X101226162Y-80403488D01*
X101226164Y-80403485D01*
X101231111Y-80397332D01*
X101277006Y-80296391D01*
X101287684Y-80272905D01*
X101287684Y-80272904D01*
X101291398Y-80264736D01*
X101312047Y-80120550D01*
X101291398Y-79976364D01*
X101231111Y-79843768D01*
X101226164Y-79837615D01*
X101226162Y-79837612D01*
X101205374Y-79811758D01*
X101191918Y-79795022D01*
X99709633Y-78312737D01*
X99668728Y-78279848D01*
X99667043Y-78278493D01*
X99667040Y-78278491D01*
X99660887Y-78273544D01*
X99528291Y-78213257D01*
X99519406Y-78211985D01*
X99519404Y-78211984D01*
X99494440Y-78208409D01*
X99429843Y-78178952D01*
X99391426Y-78119247D01*
X99387576Y-78101545D01*
X99384001Y-78076582D01*
X99384000Y-78076580D01*
X99382728Y-78067695D01*
X99322441Y-77935099D01*
X99317494Y-77928946D01*
X99317492Y-77928943D01*
X99285388Y-77889015D01*
X99283248Y-77886353D01*
X97800963Y-76404068D01*
X97784227Y-76390612D01*
X97758373Y-76369824D01*
X97758370Y-76369822D01*
X97752217Y-76364875D01*
X97619621Y-76304588D01*
X97610736Y-76303316D01*
X97610734Y-76303315D01*
X97585771Y-76299740D01*
X97521174Y-76270283D01*
X97482757Y-76210577D01*
X97478907Y-76192876D01*
X97475332Y-76167913D01*
X97475331Y-76167911D01*
X97474059Y-76159026D01*
X97413772Y-76026430D01*
X97408825Y-76020277D01*
X97408823Y-76020274D01*
X97376719Y-75980346D01*
X97374579Y-75977684D01*
X95892294Y-74495399D01*
X95875558Y-74481943D01*
X95849704Y-74461155D01*
X95849701Y-74461153D01*
X95843548Y-74456206D01*
X95710952Y-74395919D01*
X95677100Y-74391071D01*
X95612503Y-74361614D01*
X95574086Y-74301909D01*
X95570236Y-74284207D01*
X95565388Y-74250355D01*
X95505101Y-74117759D01*
X95500154Y-74111606D01*
X95500152Y-74111603D01*
X95468048Y-74071675D01*
X95465908Y-74069013D01*
X93983623Y-72586728D01*
X93966520Y-72572977D01*
X93941033Y-72552484D01*
X93941030Y-72552482D01*
X93934877Y-72547535D01*
X93802281Y-72487248D01*
X93793398Y-72485976D01*
X93793395Y-72485975D01*
X93666984Y-72467872D01*
X93658095Y-72466599D01*
X93649206Y-72467872D01*
X93522795Y-72485975D01*
X93522792Y-72485976D01*
X93513909Y-72487248D01*
X93381313Y-72547535D01*
X93375160Y-72552482D01*
X93375157Y-72552484D01*
X93349670Y-72572977D01*
X93332567Y-72586728D01*
X90789622Y-75129673D01*
X90787482Y-75132335D01*
X90755378Y-75172263D01*
X90755376Y-75172266D01*
X90750429Y-75178419D01*
X90690142Y-75311015D01*
X90688870Y-75319898D01*
X90688869Y-75319901D01*
X90670766Y-75446312D01*
X90669493Y-75455201D01*
X90670766Y-75464090D01*
X90686833Y-75576279D01*
X90690142Y-75599387D01*
X90750429Y-75731983D01*
X90755376Y-75738136D01*
X90755378Y-75738139D01*
X90756467Y-75739493D01*
X90789622Y-75780729D01*
X92271907Y-77263014D01*
X92274569Y-77265154D01*
X92277103Y-77267428D01*
X92276492Y-77268109D01*
X92314829Y-77323172D01*
X92317456Y-77394120D01*
X92284424Y-77452213D01*
X90550334Y-79186303D01*
X90547812Y-79188757D01*
X90475319Y-79257310D01*
X90472252Y-79261322D01*
X90427592Y-79319735D01*
X90423448Y-79324870D01*
X90372530Y-79384698D01*
X90369911Y-79389023D01*
X90369907Y-79389028D01*
X90355509Y-79412802D01*
X90347837Y-79424049D01*
X90327880Y-79450152D01*
X90325490Y-79454610D01*
X90325489Y-79454611D01*
X90290761Y-79519379D01*
X90287496Y-79525104D01*
X90246779Y-79592336D01*
X90244884Y-79597027D01*
X90234473Y-79622795D01*
X90228693Y-79635136D01*
X90213169Y-79664087D01*
X90211523Y-79668868D01*
X90211521Y-79668872D01*
X90187588Y-79738379D01*
X90185278Y-79744557D01*
X90167918Y-79787525D01*
X90155845Y-79817407D01*
X90154723Y-79822346D01*
X90148568Y-79849438D01*
X90144837Y-79862537D01*
X90134138Y-79893609D01*
X90120757Y-79971078D01*
X90119477Y-79977482D01*
X90102065Y-80054122D01*
X90100001Y-80086931D01*
X90098415Y-80100431D01*
X90092821Y-80132814D01*
X90091500Y-80161903D01*
X90091500Y-80218086D01*
X90091251Y-80225997D01*
X90086822Y-80296391D01*
X84984960Y-80296391D01*
X84897259Y-80122017D01*
X84894807Y-80116853D01*
X84797173Y-79898589D01*
X84554535Y-79356163D01*
X84552322Y-79350899D01*
X84514089Y-79253840D01*
X84246901Y-78575545D01*
X84244930Y-78570187D01*
X83974996Y-77781771D01*
X83973268Y-77776322D01*
X83739388Y-76976514D01*
X83737908Y-76970992D01*
X83540544Y-76161372D01*
X83539316Y-76155788D01*
X83378880Y-75338041D01*
X83377907Y-75332407D01*
X83254735Y-74508247D01*
X83254018Y-74502575D01*
X83253277Y-74495399D01*
X83168356Y-73673641D01*
X83167898Y-73667942D01*
X83119930Y-72836019D01*
X83119730Y-72830305D01*
X83116784Y-72589144D01*
X83109549Y-71997027D01*
X83109609Y-71991310D01*
X83130917Y-71348980D01*
X83137238Y-71158442D01*
X83137557Y-71152739D01*
X83177126Y-70649968D01*
X83202939Y-70321968D01*
X83203517Y-70316284D01*
X83208136Y-70279205D01*
X83306517Y-69489358D01*
X83307352Y-69483702D01*
X83447760Y-68662280D01*
X83448851Y-68656668D01*
X83626377Y-67842461D01*
X83627722Y-67836904D01*
X83841994Y-67031609D01*
X83843589Y-67026119D01*
X84094173Y-66231369D01*
X84096015Y-66225957D01*
X84382398Y-65443377D01*
X84384484Y-65438054D01*
X84390403Y-65423905D01*
X84706077Y-64669262D01*
X84708401Y-64664043D01*
X85064518Y-63910674D01*
X85067078Y-63905562D01*
X85457030Y-63169070D01*
X85459819Y-63164079D01*
X85882751Y-62446082D01*
X85885764Y-62441223D01*
X85967127Y-62316413D01*
X90536822Y-62316413D01*
X90537316Y-62321448D01*
X90540899Y-62357992D01*
X90541500Y-62370288D01*
X90541500Y-64493322D01*
X90541451Y-64496840D01*
X90538666Y-64596543D01*
X90548370Y-64669266D01*
X90549058Y-64674424D01*
X90549759Y-64680985D01*
X90555210Y-64748734D01*
X90556060Y-64759303D01*
X90563897Y-64791208D01*
X90566426Y-64804596D01*
X90570771Y-64837158D01*
X90572232Y-64841999D01*
X90572233Y-64842001D01*
X90593478Y-64912367D01*
X90595219Y-64918728D01*
X90613963Y-64995044D01*
X90615941Y-64999704D01*
X90626801Y-65025289D01*
X90631438Y-65038099D01*
X90640933Y-65069546D01*
X90643151Y-65074094D01*
X90643154Y-65074101D01*
X90675371Y-65140156D01*
X90678107Y-65146158D01*
X90693843Y-65183230D01*
X90708812Y-65218494D01*
X90711504Y-65222768D01*
X90726319Y-65246294D01*
X90732945Y-65258198D01*
X90747346Y-65287726D01*
X90750265Y-65291863D01*
X90750265Y-65291864D01*
X90792641Y-65351935D01*
X90796301Y-65357424D01*
X90835471Y-65419624D01*
X90838167Y-65423905D01*
X90841508Y-65427694D01*
X90841512Y-65427700D01*
X90859898Y-65448555D01*
X90868344Y-65459250D01*
X90887274Y-65486085D01*
X90906909Y-65507588D01*
X90946625Y-65547304D01*
X90952044Y-65553074D01*
X90995350Y-65602196D01*
X90995353Y-65602199D01*
X90998698Y-65605993D01*
X91002606Y-65609203D01*
X91002607Y-65609204D01*
X91030989Y-65632517D01*
X91040108Y-65640787D01*
X92289319Y-66889998D01*
X92323345Y-66952310D01*
X92318280Y-67023125D01*
X92281438Y-67074155D01*
X92282000Y-67074782D01*
X92279466Y-67077056D01*
X92276804Y-67079196D01*
X90794519Y-68561481D01*
X90792379Y-68564143D01*
X90760275Y-68604071D01*
X90760273Y-68604074D01*
X90755326Y-68610227D01*
X90752058Y-68617415D01*
X90708900Y-68712338D01*
X90695039Y-68742823D01*
X90693767Y-68751706D01*
X90693766Y-68751709D01*
X90686945Y-68799341D01*
X90674390Y-68887009D01*
X90695039Y-69031195D01*
X90755326Y-69163791D01*
X90760273Y-69169944D01*
X90760275Y-69169947D01*
X90767246Y-69178617D01*
X90794519Y-69212537D01*
X93337464Y-71755482D01*
X93348247Y-71764152D01*
X93380054Y-71789726D01*
X93380057Y-71789728D01*
X93386210Y-71794675D01*
X93518806Y-71854962D01*
X93527689Y-71856234D01*
X93527692Y-71856235D01*
X93654103Y-71874338D01*
X93662992Y-71875611D01*
X93671881Y-71874338D01*
X93798292Y-71856235D01*
X93798295Y-71856234D01*
X93807178Y-71854962D01*
X93939774Y-71794675D01*
X93945927Y-71789728D01*
X93945930Y-71789726D01*
X93977737Y-71764152D01*
X93988520Y-71755482D01*
X95470805Y-70273197D01*
X95498078Y-70239277D01*
X95505049Y-70230607D01*
X95505051Y-70230604D01*
X95509998Y-70224451D01*
X95570285Y-70091855D01*
X95573892Y-70066673D01*
X95575133Y-70058004D01*
X95604590Y-69993407D01*
X95664295Y-69954990D01*
X95681997Y-69951140D01*
X95706960Y-69947565D01*
X95706962Y-69947564D01*
X95715847Y-69946292D01*
X95848443Y-69886005D01*
X95854596Y-69881058D01*
X95854599Y-69881056D01*
X95894527Y-69848952D01*
X95897189Y-69846812D01*
X97252867Y-68491134D01*
X98199874Y-68491134D01*
X98203262Y-68706833D01*
X98244794Y-68918523D01*
X98323157Y-69119514D01*
X98435873Y-69303450D01*
X98439608Y-69307642D01*
X98439611Y-69307646D01*
X98575646Y-69460327D01*
X98579381Y-69464519D01*
X98749143Y-69597631D01*
X98754106Y-69600259D01*
X98754108Y-69600260D01*
X98934832Y-69695947D01*
X98939794Y-69698574D01*
X99145308Y-69764163D01*
X99150865Y-69764895D01*
X99150867Y-69764895D01*
X99252249Y-69778242D01*
X99359189Y-69792320D01*
X99364788Y-69792056D01*
X99364790Y-69792056D01*
X99451730Y-69787956D01*
X99574675Y-69782158D01*
X99784957Y-69733998D01*
X99790118Y-69731797D01*
X99790123Y-69731795D01*
X99978219Y-69651564D01*
X99978220Y-69651564D01*
X99983386Y-69649360D01*
X99988073Y-69646281D01*
X99988079Y-69646278D01*
X100081686Y-69584790D01*
X100163692Y-69530922D01*
X100167130Y-69527859D01*
X100167135Y-69527855D01*
X100203272Y-69495657D01*
X100204629Y-69494448D01*
X103535484Y-66163593D01*
X103597796Y-66129567D01*
X103659942Y-66131752D01*
X103667310Y-66133906D01*
X103675484Y-66137623D01*
X103684373Y-66138896D01*
X103709851Y-66142545D01*
X103774448Y-66172002D01*
X103812865Y-66231707D01*
X103816715Y-66249409D01*
X103820260Y-66274159D01*
X103825246Y-66291213D01*
X103878492Y-66408322D01*
X103886709Y-66421666D01*
X103918778Y-66461551D01*
X103923317Y-66466610D01*
X104469610Y-67012902D01*
X104483548Y-67020513D01*
X104485384Y-67020381D01*
X104491996Y-67016132D01*
X106258670Y-65249459D01*
X107662901Y-63845227D01*
X107670513Y-63831286D01*
X107670382Y-63829451D01*
X107666131Y-63822837D01*
X107116626Y-63273332D01*
X107111544Y-63268771D01*
X107071670Y-63236711D01*
X107058317Y-63228488D01*
X106941214Y-63175245D01*
X106924160Y-63170259D01*
X106899409Y-63166714D01*
X106834812Y-63137257D01*
X106796396Y-63077552D01*
X106792544Y-63059848D01*
X106788895Y-63034366D01*
X106787623Y-63025484D01*
X106779967Y-63008644D01*
X106730604Y-62900076D01*
X106727336Y-62892888D01*
X106722389Y-62886735D01*
X106722387Y-62886732D01*
X106690283Y-62846804D01*
X106688143Y-62844142D01*
X105205858Y-61361857D01*
X105181626Y-61342374D01*
X105163268Y-61327613D01*
X105163265Y-61327611D01*
X105157112Y-61322664D01*
X105057408Y-61277332D01*
X105032685Y-61266091D01*
X105032684Y-61266091D01*
X105024516Y-61262377D01*
X105015633Y-61261105D01*
X105015630Y-61261104D01*
X104889219Y-61243001D01*
X104880330Y-61241728D01*
X104871441Y-61243001D01*
X104745030Y-61261104D01*
X104745027Y-61261105D01*
X104736144Y-61262377D01*
X104727976Y-61266091D01*
X104727975Y-61266091D01*
X104703252Y-61277332D01*
X104603548Y-61322664D01*
X104597395Y-61327611D01*
X104597392Y-61327613D01*
X104579034Y-61342374D01*
X104554802Y-61361857D01*
X102011857Y-63904802D01*
X102009717Y-63907464D01*
X101977613Y-63947392D01*
X101977611Y-63947395D01*
X101972664Y-63953548D01*
X101969396Y-63960736D01*
X101920034Y-64069304D01*
X101912377Y-64086144D01*
X101891728Y-64230330D01*
X101902695Y-64306907D01*
X101892551Y-64377172D01*
X101867062Y-64413861D01*
X98516758Y-67764165D01*
X98413630Y-67887505D01*
X98306747Y-68074891D01*
X98304878Y-68080168D01*
X98304876Y-68080173D01*
X98265328Y-68191854D01*
X98234736Y-68278244D01*
X98199874Y-68491134D01*
X97252867Y-68491134D01*
X97379474Y-68364527D01*
X97392930Y-68347791D01*
X97413718Y-68321937D01*
X97413720Y-68321934D01*
X97418667Y-68315781D01*
X97471298Y-68200023D01*
X97475239Y-68191356D01*
X97475239Y-68191355D01*
X97478954Y-68183185D01*
X97483802Y-68149335D01*
X97513259Y-68084738D01*
X97572965Y-68046321D01*
X97590666Y-68042471D01*
X97615629Y-68038896D01*
X97615631Y-68038895D01*
X97624516Y-68037623D01*
X97645400Y-68028128D01*
X97731788Y-67988850D01*
X97757112Y-67977336D01*
X97763265Y-67972389D01*
X97763268Y-67972387D01*
X97803196Y-67940283D01*
X97805858Y-67938143D01*
X99288143Y-66455858D01*
X99301599Y-66439122D01*
X99322387Y-66413268D01*
X99322389Y-66413265D01*
X99327336Y-66407112D01*
X99377917Y-66295863D01*
X99383909Y-66282685D01*
X99383909Y-66282684D01*
X99387623Y-66274516D01*
X99392471Y-66240664D01*
X99421928Y-66176067D01*
X99481633Y-66137650D01*
X99499335Y-66133800D01*
X99533187Y-66128952D01*
X99665783Y-66068665D01*
X99671936Y-66063718D01*
X99671939Y-66063716D01*
X99697793Y-66042928D01*
X99714529Y-66029472D01*
X101196814Y-64547187D01*
X101210270Y-64530451D01*
X101231058Y-64504597D01*
X101231060Y-64504594D01*
X101236007Y-64498441D01*
X101296294Y-64365845D01*
X101316943Y-64221659D01*
X101315670Y-64212770D01*
X101297567Y-64086359D01*
X101297566Y-64086356D01*
X101296294Y-64077473D01*
X101236007Y-63944877D01*
X101231060Y-63938724D01*
X101231058Y-63938721D01*
X101198954Y-63898793D01*
X101196814Y-63896131D01*
X98653869Y-61353186D01*
X98622063Y-61327613D01*
X98611279Y-61318942D01*
X98611276Y-61318940D01*
X98605123Y-61313993D01*
X98524490Y-61277332D01*
X98480696Y-61257420D01*
X98480695Y-61257420D01*
X98472527Y-61253706D01*
X98463644Y-61252434D01*
X98463641Y-61252433D01*
X98337230Y-61234330D01*
X98328341Y-61233057D01*
X98319452Y-61234330D01*
X98193041Y-61252433D01*
X98193038Y-61252434D01*
X98184155Y-61253706D01*
X98175987Y-61257420D01*
X98175986Y-61257420D01*
X98132192Y-61277332D01*
X98051559Y-61313993D01*
X98045406Y-61318940D01*
X98045403Y-61318942D01*
X98034619Y-61327613D01*
X98002813Y-61353186D01*
X96520528Y-62835471D01*
X96518388Y-62838133D01*
X96486284Y-62878061D01*
X96486282Y-62878064D01*
X96481335Y-62884217D01*
X96421048Y-63016813D01*
X96419776Y-63025698D01*
X96416200Y-63050665D01*
X96386743Y-63115262D01*
X96327038Y-63153679D01*
X96309336Y-63157529D01*
X96275484Y-63162377D01*
X96267316Y-63166091D01*
X96267315Y-63166091D01*
X96258148Y-63170259D01*
X96142888Y-63222664D01*
X96136735Y-63227611D01*
X96136732Y-63227613D01*
X96110878Y-63248401D01*
X96094142Y-63261857D01*
X94611857Y-64744142D01*
X94609717Y-64746804D01*
X94607443Y-64749338D01*
X94606769Y-64748734D01*
X94551657Y-64787076D01*
X94480708Y-64789676D01*
X94422659Y-64756656D01*
X93595405Y-63929402D01*
X93561379Y-63867090D01*
X93558500Y-63840307D01*
X93558500Y-62967031D01*
X93578502Y-62898910D01*
X93595405Y-62877936D01*
X97177936Y-59295405D01*
X97240248Y-59261379D01*
X97267031Y-59258500D01*
X104922969Y-59258500D01*
X104991090Y-59278502D01*
X105012064Y-59295405D01*
X108924595Y-63207936D01*
X108958621Y-63270248D01*
X108961500Y-63297031D01*
X108961500Y-64537646D01*
X108941498Y-64605767D01*
X108924595Y-64626741D01*
X108785654Y-64765682D01*
X108723342Y-64799708D01*
X108652527Y-64794643D01*
X108601451Y-64757774D01*
X108600838Y-64758324D01*
X108594023Y-64750728D01*
X108047730Y-64204436D01*
X108033792Y-64196825D01*
X108031956Y-64196957D01*
X108025344Y-64201206D01*
X106258670Y-65967879D01*
X104854439Y-67372111D01*
X104846827Y-67386052D01*
X104846958Y-67387887D01*
X104851209Y-67394501D01*
X105400714Y-67944006D01*
X105405796Y-67948567D01*
X105445670Y-67980627D01*
X105459023Y-67988850D01*
X105576126Y-68042093D01*
X105593180Y-68047079D01*
X105617930Y-68050624D01*
X105682527Y-68080081D01*
X105720944Y-68139786D01*
X105724794Y-68157486D01*
X105729716Y-68191854D01*
X105790003Y-68324450D01*
X105794950Y-68330603D01*
X105794952Y-68330606D01*
X105815740Y-68356460D01*
X105829196Y-68373196D01*
X107311481Y-69855481D01*
X107314143Y-69857621D01*
X107354071Y-69889725D01*
X107354074Y-69889727D01*
X107360227Y-69894674D01*
X107492823Y-69954961D01*
X107526675Y-69959809D01*
X107591272Y-69989266D01*
X107629689Y-70048971D01*
X107633539Y-70066673D01*
X107638387Y-70100525D01*
X107698674Y-70233121D01*
X107703621Y-70239274D01*
X107703623Y-70239277D01*
X107724411Y-70265131D01*
X107737867Y-70281867D01*
X109220152Y-71764152D01*
X109222814Y-71766292D01*
X109262742Y-71798396D01*
X109262745Y-71798398D01*
X109268898Y-71803345D01*
X109401494Y-71863632D01*
X109410377Y-71864904D01*
X109410380Y-71864905D01*
X109536791Y-71883008D01*
X109545680Y-71884281D01*
X109554569Y-71883008D01*
X109680980Y-71864905D01*
X109680983Y-71864904D01*
X109689866Y-71863632D01*
X109822462Y-71803345D01*
X109828615Y-71798398D01*
X109828618Y-71798396D01*
X109868546Y-71766292D01*
X109871208Y-71764152D01*
X110883546Y-70751814D01*
X110901818Y-70736697D01*
X111020129Y-70656292D01*
X111024317Y-70653446D01*
X111200691Y-70486658D01*
X111326603Y-70321972D01*
X111345056Y-70297837D01*
X111345058Y-70297835D01*
X111348130Y-70293816D01*
X111350521Y-70289357D01*
X111351418Y-70287965D01*
X111368233Y-70267127D01*
X112414153Y-69221207D01*
X112427609Y-69204471D01*
X112448397Y-69178617D01*
X112448399Y-69178614D01*
X112453346Y-69172461D01*
X112513633Y-69039865D01*
X112516148Y-69022309D01*
X112533009Y-68904568D01*
X112534282Y-68895679D01*
X112531767Y-68878120D01*
X112514906Y-68760379D01*
X112514905Y-68760376D01*
X112513633Y-68751493D01*
X112453346Y-68618897D01*
X112448399Y-68612744D01*
X112448397Y-68612741D01*
X112416293Y-68572813D01*
X112414153Y-68570151D01*
X110931868Y-67087866D01*
X110929206Y-67085726D01*
X110926672Y-67083452D01*
X110927279Y-67082776D01*
X110888939Y-67027684D01*
X110886327Y-66956735D01*
X110919352Y-66898666D01*
X111519703Y-66298316D01*
X111522225Y-66295863D01*
X111545176Y-66274159D01*
X111594681Y-66227345D01*
X111642412Y-66164916D01*
X111646554Y-66159784D01*
X111694187Y-66103815D01*
X111694189Y-66103812D01*
X111697470Y-66099957D01*
X111700090Y-66095631D01*
X111700095Y-66095624D01*
X111714491Y-66071853D01*
X111722163Y-66060606D01*
X111742120Y-66034503D01*
X111779247Y-65965261D01*
X111782510Y-65959540D01*
X111820602Y-65896643D01*
X111820603Y-65896642D01*
X111823220Y-65892320D01*
X111835534Y-65861843D01*
X111841303Y-65849527D01*
X111856831Y-65820568D01*
X111882423Y-65746244D01*
X111884718Y-65740106D01*
X111912258Y-65671944D01*
X111912259Y-65671940D01*
X111914155Y-65667248D01*
X111921432Y-65635216D01*
X111925163Y-65622118D01*
X111935862Y-65591046D01*
X111949243Y-65513577D01*
X111950526Y-65507159D01*
X111956050Y-65482848D01*
X111967935Y-65430533D01*
X111969999Y-65397724D01*
X111971585Y-65384224D01*
X111977179Y-65351841D01*
X111978500Y-65322752D01*
X111978500Y-65266570D01*
X111978749Y-65258658D01*
X111982860Y-65193319D01*
X111983178Y-65188265D01*
X111979101Y-65146686D01*
X111978500Y-65134390D01*
X111978500Y-62644016D01*
X111978549Y-62640498D01*
X111981193Y-62545850D01*
X111981193Y-62545847D01*
X111981334Y-62540795D01*
X111970941Y-62462902D01*
X111970241Y-62456353D01*
X111964346Y-62383077D01*
X111964345Y-62383073D01*
X111963940Y-62378035D01*
X111956101Y-62346122D01*
X111953573Y-62332738D01*
X111949898Y-62305194D01*
X111949229Y-62300180D01*
X111926522Y-62224971D01*
X111924781Y-62218608D01*
X111915771Y-62181925D01*
X111906037Y-62142294D01*
X111893199Y-62112048D01*
X111888561Y-62099237D01*
X111880530Y-62072638D01*
X111879067Y-62067792D01*
X111876849Y-62063244D01*
X111876846Y-62063237D01*
X111844629Y-61997182D01*
X111841893Y-61991180D01*
X111813162Y-61923495D01*
X111811188Y-61918844D01*
X111793681Y-61891044D01*
X111787052Y-61879134D01*
X111782334Y-61869460D01*
X111772654Y-61849612D01*
X111727357Y-61785400D01*
X111723699Y-61779914D01*
X111684529Y-61717714D01*
X111684528Y-61717713D01*
X111681833Y-61713433D01*
X111678492Y-61709644D01*
X111678488Y-61709638D01*
X111660102Y-61688783D01*
X111651656Y-61678088D01*
X111635009Y-61654490D01*
X111632726Y-61651253D01*
X111613091Y-61629750D01*
X111573375Y-61590034D01*
X111567956Y-61584264D01*
X111524650Y-61535142D01*
X111524647Y-61535139D01*
X111521302Y-61531345D01*
X111489011Y-61504821D01*
X111479892Y-61496551D01*
X106683675Y-56700334D01*
X106681221Y-56697812D01*
X106616138Y-56628988D01*
X106616135Y-56628986D01*
X106612668Y-56625319D01*
X106550239Y-56577589D01*
X106545108Y-56573448D01*
X106489133Y-56525809D01*
X106489132Y-56525808D01*
X106485280Y-56522530D01*
X106480955Y-56519911D01*
X106480950Y-56519907D01*
X106457176Y-56505509D01*
X106445929Y-56497837D01*
X106419826Y-56477880D01*
X106350592Y-56440757D01*
X106344868Y-56437493D01*
X106326413Y-56426316D01*
X106277642Y-56396779D01*
X106247181Y-56384472D01*
X106234841Y-56378692D01*
X106210350Y-56365560D01*
X106210351Y-56365560D01*
X106205891Y-56363169D01*
X106201110Y-56361523D01*
X106201106Y-56361521D01*
X106131599Y-56337588D01*
X106125421Y-56335278D01*
X106057266Y-56307742D01*
X106057267Y-56307742D01*
X106052571Y-56305845D01*
X106020539Y-56298568D01*
X106007441Y-56294837D01*
X105976369Y-56284138D01*
X105898900Y-56270757D01*
X105892496Y-56269477D01*
X105815856Y-56252065D01*
X105783047Y-56250001D01*
X105769547Y-56248415D01*
X105737164Y-56242821D01*
X105733207Y-56242641D01*
X105733204Y-56242641D01*
X105709494Y-56241564D01*
X105709475Y-56241564D01*
X105708075Y-56241500D01*
X105651892Y-56241500D01*
X105643980Y-56241251D01*
X105638386Y-56240899D01*
X105573587Y-56236822D01*
X105534545Y-56240650D01*
X105532008Y-56240899D01*
X105519712Y-56241500D01*
X96614016Y-56241500D01*
X96610498Y-56241451D01*
X96515851Y-56238807D01*
X96515848Y-56238807D01*
X96510795Y-56238666D01*
X96505782Y-56239335D01*
X96505779Y-56239335D01*
X96432911Y-56249057D01*
X96426354Y-56249758D01*
X96353080Y-56255654D01*
X96353079Y-56255654D01*
X96348035Y-56256060D01*
X96343124Y-56257266D01*
X96343119Y-56257267D01*
X96316139Y-56263894D01*
X96302750Y-56266424D01*
X96290315Y-56268083D01*
X96270180Y-56270770D01*
X96194949Y-56293484D01*
X96188604Y-56295220D01*
X96112294Y-56313963D01*
X96107642Y-56315938D01*
X96107638Y-56315939D01*
X96082052Y-56326800D01*
X96069239Y-56331438D01*
X96037792Y-56340932D01*
X95967138Y-56375392D01*
X95961204Y-56378097D01*
X95888844Y-56408812D01*
X95884564Y-56411507D01*
X95884553Y-56411513D01*
X95861047Y-56426316D01*
X95849140Y-56432944D01*
X95839814Y-56437493D01*
X95819612Y-56447346D01*
X95815483Y-56450259D01*
X95755403Y-56492641D01*
X95749914Y-56496301D01*
X95712429Y-56519907D01*
X95683433Y-56538167D01*
X95679644Y-56541508D01*
X95679638Y-56541512D01*
X95658783Y-56559898D01*
X95648088Y-56568344D01*
X95621253Y-56587274D01*
X95599750Y-56606909D01*
X95560034Y-56646625D01*
X95554264Y-56652044D01*
X95505142Y-56695350D01*
X95505139Y-56695353D01*
X95501345Y-56698698D01*
X95498135Y-56702606D01*
X95498134Y-56702607D01*
X95474821Y-56730989D01*
X95466551Y-56740108D01*
X91000334Y-61206325D01*
X90997812Y-61208779D01*
X90941134Y-61262377D01*
X90925319Y-61277332D01*
X90886877Y-61327613D01*
X90877592Y-61339757D01*
X90873448Y-61344892D01*
X90859010Y-61361857D01*
X90822530Y-61404720D01*
X90819911Y-61409045D01*
X90819907Y-61409050D01*
X90805509Y-61432824D01*
X90797837Y-61444071D01*
X90777880Y-61470174D01*
X90743045Y-61535142D01*
X90740761Y-61539401D01*
X90737496Y-61545126D01*
X90696779Y-61612358D01*
X90694884Y-61617049D01*
X90684473Y-61642817D01*
X90678693Y-61655158D01*
X90663169Y-61684109D01*
X90661523Y-61688890D01*
X90661521Y-61688894D01*
X90637588Y-61758401D01*
X90635278Y-61764579D01*
X90627954Y-61782708D01*
X90605845Y-61837429D01*
X90604723Y-61842368D01*
X90598568Y-61869460D01*
X90594837Y-61882559D01*
X90584138Y-61913631D01*
X90570757Y-61991100D01*
X90569477Y-61997504D01*
X90552065Y-62074144D01*
X90550001Y-62106953D01*
X90548415Y-62120453D01*
X90542821Y-62152836D01*
X90541500Y-62181925D01*
X90541500Y-62238108D01*
X90541251Y-62246019D01*
X90536822Y-62316413D01*
X85967127Y-62316413D01*
X86340856Y-61743115D01*
X86344085Y-61738398D01*
X86628656Y-61342374D01*
X86830373Y-61061655D01*
X86833806Y-61057099D01*
X87350291Y-60403117D01*
X87353935Y-60398712D01*
X87431822Y-60308797D01*
X87899566Y-59768820D01*
X87903354Y-59764643D01*
X88477023Y-59160122D01*
X88481020Y-59156098D01*
X89081492Y-58578250D01*
X89085701Y-58574380D01*
X89711738Y-58024393D01*
X89716117Y-58020718D01*
X90366473Y-57499684D01*
X90371015Y-57496211D01*
X91044341Y-57005213D01*
X91049036Y-57001950D01*
X91506648Y-56699063D01*
X91743954Y-56541994D01*
X91748771Y-56538961D01*
X92463828Y-56111009D01*
X92468781Y-56108195D01*
X93202513Y-55713121D01*
X93207603Y-55710527D01*
X93958510Y-55349139D01*
X93963709Y-55346781D01*
X94730237Y-55019830D01*
X94735517Y-55017718D01*
X95516106Y-54725867D01*
X95521465Y-54724001D01*
X95958977Y-54582689D01*
X96314480Y-54467865D01*
X96319959Y-54466232D01*
X96954058Y-54292762D01*
X97123753Y-54246339D01*
X97129281Y-54244961D01*
X97770773Y-54100394D01*
X97942233Y-54061754D01*
X97947838Y-54060624D01*
X98768240Y-53914488D01*
X98773890Y-53913613D01*
X99600084Y-53804842D01*
X99605767Y-53804224D01*
X99845365Y-53783683D01*
X100436103Y-53733040D01*
X100441766Y-53732684D01*
X101193141Y-53702505D01*
X101274417Y-53699241D01*
X101280134Y-53699141D01*
X102113440Y-53703505D01*
G37*
%TD.AperFunction*%
%TD*%
M02*
