%TF.GenerationSoftware,KiCad,Pcbnew,(6.0.4-0)*%
%TF.CreationDate,2022-05-05T16:48:01+02:00*%
%TF.ProjectId,GlowTower_LED_connector_PCB,476c6f77-546f-4776-9572-5f4c45445f63,rev?*%
%TF.SameCoordinates,Original*%
%TF.FileFunction,Legend,Bot*%
%TF.FilePolarity,Positive*%
%FSLAX46Y46*%
G04 Gerber Fmt 4.6, Leading zero omitted, Abs format (unit mm)*
G04 Created by KiCad (PCBNEW (6.0.4-0)) date 2022-05-05 16:48:01*
%MOMM*%
%LPD*%
G01*
G04 APERTURE LIST*
%ADD10C,0.150000*%
%ADD11C,0.100000*%
%ADD12C,0.734422*%
G04 APERTURE END LIST*
D10*
X108661458Y-64598117D02*
X107241458Y-63138117D01*
D11*
X93760376Y-72952560D02*
X94531122Y-72181814D01*
X94531122Y-72181814D02*
X101602190Y-79252882D01*
D10*
X96010000Y-81130000D02*
X94590000Y-79670000D01*
D11*
X101602190Y-79252882D02*
X100831444Y-80023628D01*
X102372936Y-80023628D02*
X101602190Y-79252882D01*
X101602190Y-65110746D02*
X102372936Y-64340000D01*
X108673258Y-72181814D02*
X109444004Y-72952560D01*
X100831444Y-64340000D02*
X101602190Y-65110746D01*
X101602190Y-65110746D02*
X94531122Y-72181814D01*
X109444004Y-71411068D02*
X108673258Y-72181814D01*
X109444004Y-72952560D02*
X102372936Y-80023628D01*
D10*
X92400000Y-66260000D02*
X93860000Y-64840000D01*
D11*
X93760376Y-71411068D02*
X100831444Y-64340000D01*
X102372936Y-64340000D02*
X109444004Y-71411068D01*
X101602190Y-79252882D02*
X108673258Y-72181814D01*
X100831444Y-80023628D02*
X93760376Y-72952560D01*
D12*
X111147211Y-72200000D02*
G75*
G03*
X111147211Y-72200000I-367211J0D01*
G01*
D11*
X94531122Y-72181814D02*
X93760376Y-71411068D01*
X108673258Y-72181814D02*
X101602190Y-65110746D01*
D10*
X112581458Y-68418117D02*
X111161458Y-66958117D01*
X110581458Y-66498117D02*
X109161458Y-65038117D01*
X110670000Y-77800000D02*
X109210000Y-79220000D01*
%TO.C,leddirectionarrow4*%
G36*
X109546496Y-61804801D02*
G01*
X109607647Y-61804884D01*
X109665998Y-61805025D01*
X109721093Y-61805220D01*
X109772475Y-61805467D01*
X109819689Y-61805761D01*
X109862280Y-61806099D01*
X109899792Y-61806478D01*
X109931769Y-61806896D01*
X109957756Y-61807346D01*
X109977297Y-61807829D01*
X109989935Y-61808338D01*
X109995218Y-61808873D01*
X110003590Y-61812837D01*
X110019696Y-61826170D01*
X110030637Y-61844069D01*
X110030726Y-61844361D01*
X110031373Y-61850911D01*
X110031980Y-61864861D01*
X110032546Y-61885848D01*
X110033065Y-61913505D01*
X110033537Y-61947470D01*
X110033956Y-61987377D01*
X110034322Y-62032860D01*
X110034630Y-62083558D01*
X110034878Y-62139103D01*
X110035062Y-62199132D01*
X110035179Y-62263281D01*
X110035228Y-62331183D01*
X110035204Y-62402477D01*
X110035150Y-62473972D01*
X110035102Y-62544214D01*
X110035043Y-62607387D01*
X110034956Y-62663881D01*
X110034819Y-62714083D01*
X110034616Y-62758380D01*
X110034325Y-62797160D01*
X110033928Y-62830811D01*
X110033406Y-62859720D01*
X110032737Y-62884274D01*
X110031906Y-62904862D01*
X110030890Y-62921870D01*
X110029671Y-62935688D01*
X110028230Y-62946700D01*
X110026547Y-62955297D01*
X110024604Y-62961865D01*
X110022381Y-62966792D01*
X110019857Y-62970465D01*
X110017014Y-62973272D01*
X110013834Y-62975600D01*
X110010295Y-62977838D01*
X110006380Y-62980372D01*
X110004429Y-62981607D01*
X109989093Y-62987528D01*
X109971147Y-62989969D01*
X109954638Y-62988307D01*
X109950673Y-62986077D01*
X109943493Y-62980451D01*
X109932803Y-62971132D01*
X109918272Y-62957810D01*
X109899567Y-62940176D01*
X109876358Y-62917921D01*
X109848313Y-62890735D01*
X109815098Y-62858310D01*
X109803676Y-62847132D01*
X109775150Y-62819243D01*
X109751501Y-62796200D01*
X109732211Y-62777538D01*
X109716770Y-62762790D01*
X109704660Y-62751494D01*
X109695368Y-62743184D01*
X109688378Y-62737397D01*
X109683175Y-62733666D01*
X109679246Y-62731528D01*
X109676075Y-62730519D01*
X109673148Y-62730173D01*
X109672824Y-62730153D01*
X109669262Y-62729880D01*
X109665975Y-62729712D01*
X109662674Y-62729917D01*
X109659069Y-62730766D01*
X109654868Y-62732532D01*
X109649782Y-62735484D01*
X109643519Y-62739893D01*
X109635790Y-62746030D01*
X109626304Y-62754163D01*
X109614770Y-62764567D01*
X109600899Y-62777511D01*
X109584400Y-62793264D01*
X109564982Y-62812098D01*
X109542355Y-62834284D01*
X109516228Y-62860092D01*
X109486313Y-62889794D01*
X109452317Y-62923659D01*
X109413949Y-62961957D01*
X109370921Y-63004961D01*
X109322942Y-63052940D01*
X109269721Y-63106167D01*
X108903312Y-63472575D01*
X108887053Y-63477134D01*
X108884535Y-63477744D01*
X108869176Y-63478988D01*
X108854408Y-63477099D01*
X108838023Y-63472504D01*
X108601168Y-63234178D01*
X108564451Y-63197231D01*
X108527448Y-63159976D01*
X108495303Y-63127578D01*
X108467673Y-63099671D01*
X108444210Y-63075891D01*
X108424569Y-63055872D01*
X108408403Y-63039251D01*
X108395365Y-63025661D01*
X108385112Y-63014741D01*
X108377296Y-63006123D01*
X108371570Y-62999444D01*
X108367590Y-62994339D01*
X108365010Y-62990444D01*
X108363482Y-62987393D01*
X108362661Y-62984823D01*
X108362202Y-62982368D01*
X108361856Y-62978135D01*
X108362851Y-62964536D01*
X108366039Y-62950504D01*
X108371986Y-62932126D01*
X108738925Y-62565187D01*
X108774466Y-62529651D01*
X108824393Y-62479743D01*
X108869246Y-62434898D01*
X108909290Y-62394826D01*
X108944789Y-62359239D01*
X108976007Y-62327849D01*
X109003207Y-62300365D01*
X109026652Y-62276500D01*
X109046606Y-62255964D01*
X109063335Y-62238470D01*
X109077100Y-62223728D01*
X109088166Y-62211449D01*
X109096796Y-62201345D01*
X109103253Y-62193127D01*
X109107803Y-62186506D01*
X109110709Y-62181193D01*
X109112233Y-62176900D01*
X109112641Y-62173337D01*
X109112195Y-62170216D01*
X109111159Y-62167249D01*
X109109798Y-62164146D01*
X109108374Y-62160619D01*
X109106744Y-62156899D01*
X109103915Y-62152240D01*
X109099460Y-62146301D01*
X109092888Y-62138556D01*
X109083707Y-62128479D01*
X109071426Y-62115544D01*
X109055554Y-62099223D01*
X109035598Y-62078990D01*
X109011067Y-62054319D01*
X108981470Y-62024682D01*
X108980422Y-62023634D01*
X108950002Y-61993193D01*
X108924642Y-61967696D01*
X108903895Y-61946581D01*
X108887309Y-61929288D01*
X108874434Y-61915255D01*
X108864822Y-61903918D01*
X108858022Y-61894720D01*
X108853582Y-61887094D01*
X108851057Y-61880482D01*
X108849993Y-61874321D01*
X108849941Y-61868050D01*
X108850453Y-61861107D01*
X108852992Y-61848331D01*
X108862947Y-61829442D01*
X108879643Y-61813744D01*
X108879706Y-61813701D01*
X108882086Y-61812509D01*
X108885799Y-61811430D01*
X108891227Y-61810462D01*
X108898749Y-61809595D01*
X108908747Y-61808824D01*
X108921604Y-61808144D01*
X108937699Y-61807548D01*
X108957414Y-61807030D01*
X108981130Y-61806584D01*
X109009228Y-61806204D01*
X109042090Y-61805883D01*
X109080096Y-61805616D01*
X109123629Y-61805397D01*
X109173067Y-61805220D01*
X109228795Y-61805078D01*
X109291192Y-61804964D01*
X109360640Y-61804873D01*
X109437519Y-61804800D01*
X109482999Y-61804779D01*
X109546496Y-61804801D01*
G37*
%TO.C,leddirectionarrow2*%
G36*
X91375464Y-63302851D02*
G01*
X91389496Y-63306039D01*
X91407874Y-63311986D01*
X91774813Y-63678925D01*
X91810349Y-63714466D01*
X91860257Y-63764393D01*
X91905102Y-63809246D01*
X91945174Y-63849290D01*
X91980761Y-63884789D01*
X92012151Y-63916007D01*
X92039635Y-63943207D01*
X92063500Y-63966652D01*
X92084036Y-63986606D01*
X92101530Y-64003335D01*
X92116272Y-64017100D01*
X92128551Y-64028166D01*
X92138655Y-64036796D01*
X92146873Y-64043253D01*
X92153494Y-64047803D01*
X92158807Y-64050709D01*
X92163100Y-64052233D01*
X92166663Y-64052641D01*
X92169784Y-64052195D01*
X92172751Y-64051159D01*
X92175854Y-64049798D01*
X92179381Y-64048374D01*
X92183101Y-64046744D01*
X92187760Y-64043915D01*
X92193699Y-64039460D01*
X92201444Y-64032888D01*
X92211521Y-64023707D01*
X92224456Y-64011426D01*
X92240777Y-63995554D01*
X92261010Y-63975598D01*
X92285681Y-63951067D01*
X92315318Y-63921470D01*
X92316366Y-63920422D01*
X92346807Y-63890002D01*
X92372304Y-63864642D01*
X92393419Y-63843895D01*
X92410712Y-63827309D01*
X92424745Y-63814434D01*
X92436082Y-63804822D01*
X92445280Y-63798022D01*
X92452906Y-63793582D01*
X92459518Y-63791057D01*
X92465679Y-63789993D01*
X92471950Y-63789941D01*
X92478893Y-63790453D01*
X92491669Y-63792992D01*
X92510558Y-63802947D01*
X92526256Y-63819643D01*
X92526299Y-63819706D01*
X92527491Y-63822086D01*
X92528570Y-63825799D01*
X92529538Y-63831227D01*
X92530405Y-63838749D01*
X92531176Y-63848747D01*
X92531856Y-63861604D01*
X92532452Y-63877699D01*
X92532970Y-63897414D01*
X92533416Y-63921130D01*
X92533796Y-63949228D01*
X92534117Y-63982090D01*
X92534384Y-64020096D01*
X92534603Y-64063629D01*
X92534780Y-64113067D01*
X92534922Y-64168795D01*
X92535036Y-64231192D01*
X92535127Y-64300640D01*
X92535200Y-64377519D01*
X92535221Y-64422999D01*
X92535199Y-64486496D01*
X92535116Y-64547647D01*
X92534975Y-64605998D01*
X92534780Y-64661093D01*
X92534533Y-64712475D01*
X92534239Y-64759689D01*
X92533901Y-64802280D01*
X92533522Y-64839792D01*
X92533104Y-64871769D01*
X92532654Y-64897756D01*
X92532171Y-64917297D01*
X92531662Y-64929935D01*
X92531127Y-64935218D01*
X92527163Y-64943590D01*
X92513830Y-64959696D01*
X92495931Y-64970637D01*
X92495639Y-64970726D01*
X92489089Y-64971373D01*
X92475139Y-64971980D01*
X92454152Y-64972546D01*
X92426495Y-64973065D01*
X92392530Y-64973537D01*
X92352623Y-64973956D01*
X92307140Y-64974322D01*
X92256442Y-64974630D01*
X92200897Y-64974878D01*
X92140868Y-64975062D01*
X92076719Y-64975179D01*
X92008817Y-64975228D01*
X91937523Y-64975204D01*
X91866028Y-64975150D01*
X91795786Y-64975102D01*
X91732613Y-64975043D01*
X91676119Y-64974956D01*
X91625917Y-64974819D01*
X91581620Y-64974616D01*
X91542840Y-64974325D01*
X91509189Y-64973928D01*
X91480280Y-64973406D01*
X91455726Y-64972737D01*
X91435138Y-64971906D01*
X91418130Y-64970890D01*
X91404312Y-64969671D01*
X91393300Y-64968230D01*
X91384703Y-64966547D01*
X91378135Y-64964604D01*
X91373208Y-64962381D01*
X91369535Y-64959857D01*
X91366728Y-64957014D01*
X91364400Y-64953834D01*
X91362162Y-64950295D01*
X91359628Y-64946380D01*
X91358393Y-64944429D01*
X91352472Y-64929093D01*
X91350031Y-64911147D01*
X91351693Y-64894638D01*
X91353923Y-64890673D01*
X91359549Y-64883493D01*
X91368868Y-64872803D01*
X91382190Y-64858272D01*
X91399824Y-64839567D01*
X91422079Y-64816358D01*
X91449265Y-64788313D01*
X91481690Y-64755098D01*
X91492868Y-64743676D01*
X91520757Y-64715150D01*
X91543800Y-64691501D01*
X91562462Y-64672211D01*
X91577210Y-64656770D01*
X91588506Y-64644660D01*
X91596816Y-64635368D01*
X91602603Y-64628378D01*
X91606334Y-64623175D01*
X91608472Y-64619246D01*
X91609481Y-64616075D01*
X91609827Y-64613148D01*
X91609847Y-64612824D01*
X91610120Y-64609262D01*
X91610288Y-64605975D01*
X91610083Y-64602674D01*
X91609234Y-64599069D01*
X91607468Y-64594868D01*
X91604516Y-64589782D01*
X91600107Y-64583519D01*
X91593970Y-64575790D01*
X91585837Y-64566304D01*
X91575433Y-64554770D01*
X91562489Y-64540899D01*
X91546736Y-64524400D01*
X91527902Y-64504982D01*
X91505716Y-64482355D01*
X91479908Y-64456228D01*
X91450206Y-64426313D01*
X91416341Y-64392317D01*
X91378043Y-64353949D01*
X91335039Y-64310921D01*
X91287060Y-64262942D01*
X91233833Y-64209721D01*
X90867425Y-63843312D01*
X90862866Y-63827053D01*
X90862256Y-63824535D01*
X90861012Y-63809176D01*
X90862901Y-63794408D01*
X90867496Y-63778023D01*
X91105822Y-63541168D01*
X91142769Y-63504451D01*
X91180024Y-63467448D01*
X91212422Y-63435303D01*
X91240329Y-63407673D01*
X91264109Y-63384210D01*
X91284128Y-63364569D01*
X91300749Y-63348403D01*
X91314339Y-63335365D01*
X91325259Y-63325112D01*
X91333877Y-63317296D01*
X91340556Y-63311570D01*
X91345661Y-63307590D01*
X91349556Y-63305010D01*
X91352607Y-63303482D01*
X91355177Y-63302661D01*
X91357632Y-63302202D01*
X91361865Y-63301856D01*
X91375464Y-63302851D01*
G37*
%TO.C,leddirectionarrow3*%
G36*
X94535592Y-80602901D02*
G01*
X94551977Y-80607496D01*
X94788832Y-80845822D01*
X94825549Y-80882769D01*
X94862552Y-80920024D01*
X94894697Y-80952422D01*
X94922327Y-80980329D01*
X94945790Y-81004109D01*
X94965431Y-81024128D01*
X94981597Y-81040749D01*
X94994635Y-81054339D01*
X95004888Y-81065259D01*
X95012704Y-81073877D01*
X95018430Y-81080556D01*
X95022410Y-81085661D01*
X95024990Y-81089556D01*
X95026518Y-81092607D01*
X95027339Y-81095177D01*
X95027798Y-81097632D01*
X95028144Y-81101865D01*
X95027149Y-81115464D01*
X95023961Y-81129496D01*
X95018014Y-81147874D01*
X94651075Y-81514813D01*
X94615534Y-81550349D01*
X94565607Y-81600257D01*
X94520754Y-81645102D01*
X94480710Y-81685174D01*
X94445211Y-81720761D01*
X94413993Y-81752151D01*
X94386793Y-81779635D01*
X94363348Y-81803500D01*
X94343394Y-81824036D01*
X94326665Y-81841530D01*
X94312900Y-81856272D01*
X94301834Y-81868551D01*
X94293204Y-81878655D01*
X94286747Y-81886873D01*
X94282197Y-81893494D01*
X94279291Y-81898807D01*
X94277767Y-81903100D01*
X94277359Y-81906663D01*
X94277805Y-81909784D01*
X94278841Y-81912751D01*
X94280202Y-81915854D01*
X94281626Y-81919381D01*
X94283256Y-81923101D01*
X94286085Y-81927760D01*
X94290540Y-81933699D01*
X94297112Y-81941444D01*
X94306293Y-81951521D01*
X94318574Y-81964456D01*
X94334446Y-81980777D01*
X94354402Y-82001010D01*
X94378933Y-82025681D01*
X94408530Y-82055318D01*
X94409578Y-82056366D01*
X94439998Y-82086807D01*
X94465358Y-82112304D01*
X94486105Y-82133419D01*
X94502691Y-82150712D01*
X94515566Y-82164745D01*
X94525178Y-82176082D01*
X94531978Y-82185280D01*
X94536418Y-82192906D01*
X94538943Y-82199518D01*
X94540007Y-82205679D01*
X94540059Y-82211950D01*
X94539547Y-82218893D01*
X94537008Y-82231669D01*
X94527053Y-82250558D01*
X94510357Y-82266256D01*
X94510294Y-82266299D01*
X94507914Y-82267491D01*
X94504201Y-82268570D01*
X94498773Y-82269538D01*
X94491251Y-82270405D01*
X94481253Y-82271176D01*
X94468396Y-82271856D01*
X94452301Y-82272452D01*
X94432586Y-82272970D01*
X94408870Y-82273416D01*
X94380772Y-82273796D01*
X94347910Y-82274117D01*
X94309904Y-82274384D01*
X94266371Y-82274603D01*
X94216933Y-82274780D01*
X94161205Y-82274922D01*
X94098808Y-82275036D01*
X94029360Y-82275127D01*
X93952481Y-82275200D01*
X93907001Y-82275221D01*
X93843504Y-82275199D01*
X93782353Y-82275116D01*
X93724002Y-82274975D01*
X93668907Y-82274780D01*
X93617525Y-82274533D01*
X93570311Y-82274239D01*
X93527720Y-82273901D01*
X93490208Y-82273522D01*
X93458231Y-82273104D01*
X93432244Y-82272654D01*
X93412703Y-82272171D01*
X93400065Y-82271662D01*
X93394782Y-82271127D01*
X93386410Y-82267163D01*
X93370304Y-82253830D01*
X93359363Y-82235931D01*
X93359274Y-82235639D01*
X93358627Y-82229089D01*
X93358020Y-82215139D01*
X93357454Y-82194152D01*
X93356935Y-82166495D01*
X93356463Y-82132530D01*
X93356044Y-82092623D01*
X93355678Y-82047140D01*
X93355370Y-81996442D01*
X93355122Y-81940897D01*
X93354938Y-81880868D01*
X93354821Y-81816719D01*
X93354772Y-81748817D01*
X93354796Y-81677523D01*
X93354850Y-81606028D01*
X93354898Y-81535786D01*
X93354957Y-81472613D01*
X93355044Y-81416119D01*
X93355181Y-81365917D01*
X93355384Y-81321620D01*
X93355675Y-81282840D01*
X93356072Y-81249189D01*
X93356594Y-81220280D01*
X93357263Y-81195726D01*
X93358094Y-81175138D01*
X93359110Y-81158130D01*
X93360329Y-81144312D01*
X93361770Y-81133300D01*
X93363453Y-81124703D01*
X93365396Y-81118135D01*
X93367619Y-81113208D01*
X93370143Y-81109535D01*
X93372986Y-81106728D01*
X93376166Y-81104400D01*
X93379705Y-81102162D01*
X93383620Y-81099628D01*
X93385571Y-81098393D01*
X93400907Y-81092472D01*
X93418853Y-81090031D01*
X93435362Y-81091693D01*
X93439327Y-81093923D01*
X93446507Y-81099549D01*
X93457197Y-81108868D01*
X93471728Y-81122190D01*
X93490433Y-81139824D01*
X93513642Y-81162079D01*
X93541687Y-81189265D01*
X93574902Y-81221690D01*
X93586324Y-81232868D01*
X93614850Y-81260757D01*
X93638499Y-81283800D01*
X93657789Y-81302462D01*
X93673230Y-81317210D01*
X93685340Y-81328506D01*
X93694632Y-81336816D01*
X93701622Y-81342603D01*
X93706825Y-81346334D01*
X93710754Y-81348472D01*
X93713925Y-81349481D01*
X93716852Y-81349827D01*
X93717176Y-81349847D01*
X93720738Y-81350120D01*
X93724025Y-81350288D01*
X93727326Y-81350083D01*
X93730931Y-81349234D01*
X93735132Y-81347468D01*
X93740218Y-81344516D01*
X93746481Y-81340107D01*
X93754210Y-81333970D01*
X93763696Y-81325837D01*
X93775230Y-81315433D01*
X93789101Y-81302489D01*
X93805600Y-81286736D01*
X93825018Y-81267902D01*
X93847645Y-81245716D01*
X93873772Y-81219908D01*
X93903687Y-81190206D01*
X93937683Y-81156341D01*
X93976051Y-81118043D01*
X94019079Y-81075039D01*
X94067058Y-81027060D01*
X94120279Y-80973833D01*
X94486688Y-80607425D01*
X94502947Y-80602866D01*
X94505465Y-80602256D01*
X94520824Y-80601012D01*
X94535592Y-80602901D01*
G37*
%TO.C,leddirectionarrow1*%
G36*
X110872477Y-79014796D02*
G01*
X110943972Y-79014850D01*
X111014214Y-79014898D01*
X111077387Y-79014957D01*
X111133881Y-79015044D01*
X111184083Y-79015181D01*
X111228380Y-79015384D01*
X111267160Y-79015675D01*
X111300811Y-79016072D01*
X111329720Y-79016594D01*
X111354274Y-79017263D01*
X111374862Y-79018094D01*
X111391870Y-79019110D01*
X111405688Y-79020329D01*
X111416700Y-79021770D01*
X111425297Y-79023453D01*
X111431865Y-79025396D01*
X111436792Y-79027619D01*
X111440465Y-79030143D01*
X111443272Y-79032986D01*
X111445600Y-79036166D01*
X111447838Y-79039705D01*
X111450372Y-79043620D01*
X111451607Y-79045571D01*
X111457528Y-79060907D01*
X111459969Y-79078853D01*
X111458307Y-79095362D01*
X111456077Y-79099327D01*
X111450451Y-79106507D01*
X111441132Y-79117197D01*
X111427810Y-79131728D01*
X111410176Y-79150433D01*
X111387921Y-79173642D01*
X111360735Y-79201687D01*
X111328310Y-79234902D01*
X111317132Y-79246324D01*
X111289243Y-79274850D01*
X111266200Y-79298499D01*
X111247538Y-79317789D01*
X111232790Y-79333230D01*
X111221494Y-79345340D01*
X111213184Y-79354632D01*
X111207397Y-79361622D01*
X111203666Y-79366825D01*
X111201528Y-79370754D01*
X111200519Y-79373925D01*
X111200173Y-79376852D01*
X111200153Y-79377176D01*
X111199880Y-79380738D01*
X111199712Y-79384025D01*
X111199917Y-79387326D01*
X111200766Y-79390931D01*
X111202532Y-79395132D01*
X111205484Y-79400218D01*
X111209893Y-79406481D01*
X111216030Y-79414210D01*
X111224163Y-79423696D01*
X111234567Y-79435230D01*
X111247511Y-79449101D01*
X111263264Y-79465600D01*
X111282098Y-79485018D01*
X111304284Y-79507645D01*
X111330092Y-79533772D01*
X111359794Y-79563687D01*
X111393659Y-79597683D01*
X111431957Y-79636051D01*
X111474961Y-79679079D01*
X111522940Y-79727058D01*
X111576167Y-79780279D01*
X111942575Y-80146688D01*
X111947134Y-80162947D01*
X111947744Y-80165465D01*
X111948988Y-80180824D01*
X111947099Y-80195592D01*
X111942504Y-80211977D01*
X111704178Y-80448832D01*
X111667231Y-80485549D01*
X111629976Y-80522552D01*
X111597578Y-80554697D01*
X111569671Y-80582327D01*
X111545891Y-80605790D01*
X111525872Y-80625431D01*
X111509251Y-80641597D01*
X111495661Y-80654635D01*
X111484741Y-80664888D01*
X111476123Y-80672704D01*
X111469444Y-80678430D01*
X111464339Y-80682410D01*
X111460444Y-80684990D01*
X111457393Y-80686518D01*
X111454823Y-80687339D01*
X111452368Y-80687798D01*
X111448135Y-80688144D01*
X111434536Y-80687149D01*
X111420504Y-80683961D01*
X111402126Y-80678014D01*
X111035187Y-80311075D01*
X110999651Y-80275534D01*
X110949743Y-80225607D01*
X110904898Y-80180754D01*
X110864826Y-80140710D01*
X110829239Y-80105211D01*
X110797849Y-80073993D01*
X110770365Y-80046793D01*
X110746500Y-80023348D01*
X110725964Y-80003394D01*
X110708470Y-79986665D01*
X110693728Y-79972900D01*
X110681449Y-79961834D01*
X110671345Y-79953204D01*
X110663127Y-79946747D01*
X110656506Y-79942197D01*
X110651193Y-79939291D01*
X110646900Y-79937767D01*
X110643337Y-79937359D01*
X110640216Y-79937805D01*
X110637249Y-79938841D01*
X110634146Y-79940202D01*
X110630619Y-79941626D01*
X110626899Y-79943256D01*
X110622240Y-79946085D01*
X110616301Y-79950540D01*
X110608556Y-79957112D01*
X110598479Y-79966293D01*
X110585544Y-79978574D01*
X110569223Y-79994446D01*
X110548990Y-80014402D01*
X110524319Y-80038933D01*
X110494682Y-80068530D01*
X110493634Y-80069578D01*
X110463193Y-80099998D01*
X110437696Y-80125358D01*
X110416581Y-80146105D01*
X110399288Y-80162691D01*
X110385255Y-80175566D01*
X110373918Y-80185178D01*
X110364720Y-80191978D01*
X110357094Y-80196418D01*
X110350482Y-80198943D01*
X110344321Y-80200007D01*
X110338050Y-80200059D01*
X110331107Y-80199547D01*
X110318331Y-80197008D01*
X110299442Y-80187053D01*
X110283744Y-80170357D01*
X110283701Y-80170294D01*
X110282509Y-80167914D01*
X110281430Y-80164201D01*
X110280462Y-80158773D01*
X110279595Y-80151251D01*
X110278824Y-80141253D01*
X110278144Y-80128396D01*
X110277548Y-80112301D01*
X110277030Y-80092586D01*
X110276584Y-80068870D01*
X110276204Y-80040772D01*
X110275883Y-80007910D01*
X110275616Y-79969904D01*
X110275397Y-79926371D01*
X110275220Y-79876933D01*
X110275078Y-79821205D01*
X110274964Y-79758808D01*
X110274873Y-79689360D01*
X110274800Y-79612481D01*
X110274779Y-79567001D01*
X110274801Y-79503504D01*
X110274884Y-79442353D01*
X110275025Y-79384002D01*
X110275220Y-79328907D01*
X110275467Y-79277525D01*
X110275761Y-79230311D01*
X110276099Y-79187720D01*
X110276478Y-79150208D01*
X110276896Y-79118231D01*
X110277346Y-79092244D01*
X110277829Y-79072703D01*
X110278338Y-79060065D01*
X110278873Y-79054782D01*
X110282837Y-79046410D01*
X110296170Y-79030304D01*
X110314069Y-79019363D01*
X110314361Y-79019274D01*
X110320911Y-79018627D01*
X110334861Y-79018020D01*
X110355848Y-79017454D01*
X110383505Y-79016935D01*
X110417470Y-79016463D01*
X110457377Y-79016044D01*
X110502860Y-79015678D01*
X110553558Y-79015370D01*
X110609103Y-79015122D01*
X110669132Y-79014938D01*
X110733281Y-79014821D01*
X110801183Y-79014772D01*
X110872477Y-79014796D01*
G37*
%TD*%
M02*
