%TF.GenerationSoftware,KiCad,Pcbnew,(6.0.4-0)*%
%TF.CreationDate,2022-06-03T17:21:12+02:00*%
%TF.ProjectId,GlowTower_LED_connector_PCB,476c6f77-546f-4776-9572-5f4c45445f63,rev?*%
%TF.SameCoordinates,Original*%
%TF.FileFunction,Legend,Bot*%
%TF.FilePolarity,Positive*%
%FSLAX46Y46*%
G04 Gerber Fmt 4.6, Leading zero omitted, Abs format (unit mm)*
G04 Created by KiCad (PCBNEW (6.0.4-0)) date 2022-06-03 17:21:12*
%MOMM*%
%LPD*%
G01*
G04 APERTURE LIST*
%ADD10C,0.150000*%
%ADD11C,0.100000*%
%ADD12C,0.734422*%
G04 APERTURE END LIST*
D10*
X108661458Y-64598117D02*
X107241458Y-63138117D01*
D11*
X93760376Y-72952560D02*
X94531122Y-72181814D01*
X94531122Y-72181814D02*
X101602190Y-79252882D01*
D10*
X94030000Y-79310000D02*
X92610000Y-77850000D01*
D11*
X101602190Y-79252882D02*
X100831444Y-80023628D01*
X102372936Y-80023628D02*
X101602190Y-79252882D01*
X101602190Y-65110746D02*
X102372936Y-64340000D01*
X108673258Y-72181814D02*
X109444004Y-72952560D01*
X100831444Y-64340000D02*
X101602190Y-65110746D01*
X101602190Y-65110746D02*
X94531122Y-72181814D01*
X109444004Y-71411068D02*
X108673258Y-72181814D01*
X109444004Y-72952560D02*
X102372936Y-80023628D01*
D10*
X92400000Y-66260000D02*
X93860000Y-64840000D01*
D11*
X93760376Y-71411068D02*
X100831444Y-64340000D01*
X102372936Y-64340000D02*
X109444004Y-71411068D01*
X101602190Y-79252882D02*
X108673258Y-72181814D01*
X100831444Y-80023628D02*
X93760376Y-72952560D01*
D12*
X111147211Y-72200000D02*
G75*
G03*
X111147211Y-72200000I-367211J0D01*
G01*
D11*
X94531122Y-72181814D02*
X93760376Y-71411068D01*
X108673258Y-72181814D02*
X101602190Y-65110746D01*
D10*
X106770000Y-62740000D02*
X105350000Y-61280000D01*
X110581458Y-66498117D02*
X109161458Y-65038117D01*
X110670000Y-77800000D02*
X109210000Y-79220000D01*
%TO.C,leddirectionarrow4*%
G36*
X111236496Y-63784801D02*
G01*
X111297647Y-63784884D01*
X111355998Y-63785025D01*
X111411093Y-63785220D01*
X111462475Y-63785467D01*
X111509689Y-63785761D01*
X111552280Y-63786099D01*
X111589792Y-63786478D01*
X111621769Y-63786896D01*
X111647756Y-63787346D01*
X111667297Y-63787829D01*
X111679935Y-63788338D01*
X111685218Y-63788873D01*
X111693590Y-63792837D01*
X111709696Y-63806170D01*
X111720637Y-63824069D01*
X111720726Y-63824361D01*
X111721373Y-63830911D01*
X111721980Y-63844861D01*
X111722546Y-63865848D01*
X111723065Y-63893505D01*
X111723537Y-63927470D01*
X111723956Y-63967377D01*
X111724322Y-64012860D01*
X111724630Y-64063558D01*
X111724878Y-64119103D01*
X111725062Y-64179132D01*
X111725179Y-64243281D01*
X111725228Y-64311183D01*
X111725204Y-64382477D01*
X111725150Y-64453972D01*
X111725102Y-64524214D01*
X111725043Y-64587387D01*
X111724956Y-64643881D01*
X111724819Y-64694083D01*
X111724616Y-64738380D01*
X111724325Y-64777160D01*
X111723928Y-64810811D01*
X111723406Y-64839720D01*
X111722737Y-64864274D01*
X111721906Y-64884862D01*
X111720890Y-64901870D01*
X111719671Y-64915688D01*
X111718230Y-64926700D01*
X111716547Y-64935297D01*
X111714604Y-64941865D01*
X111712381Y-64946792D01*
X111709857Y-64950465D01*
X111707014Y-64953272D01*
X111703834Y-64955600D01*
X111700295Y-64957838D01*
X111696380Y-64960372D01*
X111694429Y-64961607D01*
X111679093Y-64967528D01*
X111661147Y-64969969D01*
X111644638Y-64968307D01*
X111640673Y-64966077D01*
X111633493Y-64960451D01*
X111622803Y-64951132D01*
X111608272Y-64937810D01*
X111589567Y-64920176D01*
X111566358Y-64897921D01*
X111538313Y-64870735D01*
X111505098Y-64838310D01*
X111493676Y-64827132D01*
X111465150Y-64799243D01*
X111441501Y-64776200D01*
X111422211Y-64757538D01*
X111406770Y-64742790D01*
X111394660Y-64731494D01*
X111385368Y-64723184D01*
X111378378Y-64717397D01*
X111373175Y-64713666D01*
X111369246Y-64711528D01*
X111366075Y-64710519D01*
X111363148Y-64710173D01*
X111362824Y-64710153D01*
X111359262Y-64709880D01*
X111355975Y-64709712D01*
X111352674Y-64709917D01*
X111349069Y-64710766D01*
X111344868Y-64712532D01*
X111339782Y-64715484D01*
X111333519Y-64719893D01*
X111325790Y-64726030D01*
X111316304Y-64734163D01*
X111304770Y-64744567D01*
X111290899Y-64757511D01*
X111274400Y-64773264D01*
X111254982Y-64792098D01*
X111232355Y-64814284D01*
X111206228Y-64840092D01*
X111176313Y-64869794D01*
X111142317Y-64903659D01*
X111103949Y-64941957D01*
X111060921Y-64984961D01*
X111012942Y-65032940D01*
X110959721Y-65086167D01*
X110593312Y-65452575D01*
X110577053Y-65457134D01*
X110574535Y-65457744D01*
X110559176Y-65458988D01*
X110544408Y-65457099D01*
X110528023Y-65452504D01*
X110291168Y-65214178D01*
X110254451Y-65177231D01*
X110217448Y-65139976D01*
X110185303Y-65107578D01*
X110157673Y-65079671D01*
X110134210Y-65055891D01*
X110114569Y-65035872D01*
X110098403Y-65019251D01*
X110085365Y-65005661D01*
X110075112Y-64994741D01*
X110067296Y-64986123D01*
X110061570Y-64979444D01*
X110057590Y-64974339D01*
X110055010Y-64970444D01*
X110053482Y-64967393D01*
X110052661Y-64964823D01*
X110052202Y-64962368D01*
X110051856Y-64958135D01*
X110052851Y-64944536D01*
X110056039Y-64930504D01*
X110061986Y-64912126D01*
X110428925Y-64545187D01*
X110464466Y-64509651D01*
X110514393Y-64459743D01*
X110559246Y-64414898D01*
X110599290Y-64374826D01*
X110634789Y-64339239D01*
X110666007Y-64307849D01*
X110693207Y-64280365D01*
X110716652Y-64256500D01*
X110736606Y-64235964D01*
X110753335Y-64218470D01*
X110767100Y-64203728D01*
X110778166Y-64191449D01*
X110786796Y-64181345D01*
X110793253Y-64173127D01*
X110797803Y-64166506D01*
X110800709Y-64161193D01*
X110802233Y-64156900D01*
X110802641Y-64153337D01*
X110802195Y-64150216D01*
X110801159Y-64147249D01*
X110799798Y-64144146D01*
X110798374Y-64140619D01*
X110796744Y-64136899D01*
X110793915Y-64132240D01*
X110789460Y-64126301D01*
X110782888Y-64118556D01*
X110773707Y-64108479D01*
X110761426Y-64095544D01*
X110745554Y-64079223D01*
X110725598Y-64058990D01*
X110701067Y-64034319D01*
X110671470Y-64004682D01*
X110670422Y-64003634D01*
X110640002Y-63973193D01*
X110614642Y-63947696D01*
X110593895Y-63926581D01*
X110577309Y-63909288D01*
X110564434Y-63895255D01*
X110554822Y-63883918D01*
X110548022Y-63874720D01*
X110543582Y-63867094D01*
X110541057Y-63860482D01*
X110539993Y-63854321D01*
X110539941Y-63848050D01*
X110540453Y-63841107D01*
X110542992Y-63828331D01*
X110552947Y-63809442D01*
X110569643Y-63793744D01*
X110569706Y-63793701D01*
X110572086Y-63792509D01*
X110575799Y-63791430D01*
X110581227Y-63790462D01*
X110588749Y-63789595D01*
X110598747Y-63788824D01*
X110611604Y-63788144D01*
X110627699Y-63787548D01*
X110647414Y-63787030D01*
X110671130Y-63786584D01*
X110699228Y-63786204D01*
X110732090Y-63785883D01*
X110770096Y-63785616D01*
X110813629Y-63785397D01*
X110863067Y-63785220D01*
X110918795Y-63785078D01*
X110981192Y-63784964D01*
X111050640Y-63784873D01*
X111127519Y-63784800D01*
X111172999Y-63784779D01*
X111236496Y-63784801D01*
G37*
%TO.C,leddirectionarrow2*%
G36*
X91375464Y-63302851D02*
G01*
X91389496Y-63306039D01*
X91407874Y-63311986D01*
X91774813Y-63678925D01*
X91810349Y-63714466D01*
X91860257Y-63764393D01*
X91905102Y-63809246D01*
X91945174Y-63849290D01*
X91980761Y-63884789D01*
X92012151Y-63916007D01*
X92039635Y-63943207D01*
X92063500Y-63966652D01*
X92084036Y-63986606D01*
X92101530Y-64003335D01*
X92116272Y-64017100D01*
X92128551Y-64028166D01*
X92138655Y-64036796D01*
X92146873Y-64043253D01*
X92153494Y-64047803D01*
X92158807Y-64050709D01*
X92163100Y-64052233D01*
X92166663Y-64052641D01*
X92169784Y-64052195D01*
X92172751Y-64051159D01*
X92175854Y-64049798D01*
X92179381Y-64048374D01*
X92183101Y-64046744D01*
X92187760Y-64043915D01*
X92193699Y-64039460D01*
X92201444Y-64032888D01*
X92211521Y-64023707D01*
X92224456Y-64011426D01*
X92240777Y-63995554D01*
X92261010Y-63975598D01*
X92285681Y-63951067D01*
X92315318Y-63921470D01*
X92316366Y-63920422D01*
X92346807Y-63890002D01*
X92372304Y-63864642D01*
X92393419Y-63843895D01*
X92410712Y-63827309D01*
X92424745Y-63814434D01*
X92436082Y-63804822D01*
X92445280Y-63798022D01*
X92452906Y-63793582D01*
X92459518Y-63791057D01*
X92465679Y-63789993D01*
X92471950Y-63789941D01*
X92478893Y-63790453D01*
X92491669Y-63792992D01*
X92510558Y-63802947D01*
X92526256Y-63819643D01*
X92526299Y-63819706D01*
X92527491Y-63822086D01*
X92528570Y-63825799D01*
X92529538Y-63831227D01*
X92530405Y-63838749D01*
X92531176Y-63848747D01*
X92531856Y-63861604D01*
X92532452Y-63877699D01*
X92532970Y-63897414D01*
X92533416Y-63921130D01*
X92533796Y-63949228D01*
X92534117Y-63982090D01*
X92534384Y-64020096D01*
X92534603Y-64063629D01*
X92534780Y-64113067D01*
X92534922Y-64168795D01*
X92535036Y-64231192D01*
X92535127Y-64300640D01*
X92535200Y-64377519D01*
X92535221Y-64422999D01*
X92535199Y-64486496D01*
X92535116Y-64547647D01*
X92534975Y-64605998D01*
X92534780Y-64661093D01*
X92534533Y-64712475D01*
X92534239Y-64759689D01*
X92533901Y-64802280D01*
X92533522Y-64839792D01*
X92533104Y-64871769D01*
X92532654Y-64897756D01*
X92532171Y-64917297D01*
X92531662Y-64929935D01*
X92531127Y-64935218D01*
X92527163Y-64943590D01*
X92513830Y-64959696D01*
X92495931Y-64970637D01*
X92495639Y-64970726D01*
X92489089Y-64971373D01*
X92475139Y-64971980D01*
X92454152Y-64972546D01*
X92426495Y-64973065D01*
X92392530Y-64973537D01*
X92352623Y-64973956D01*
X92307140Y-64974322D01*
X92256442Y-64974630D01*
X92200897Y-64974878D01*
X92140868Y-64975062D01*
X92076719Y-64975179D01*
X92008817Y-64975228D01*
X91937523Y-64975204D01*
X91866028Y-64975150D01*
X91795786Y-64975102D01*
X91732613Y-64975043D01*
X91676119Y-64974956D01*
X91625917Y-64974819D01*
X91581620Y-64974616D01*
X91542840Y-64974325D01*
X91509189Y-64973928D01*
X91480280Y-64973406D01*
X91455726Y-64972737D01*
X91435138Y-64971906D01*
X91418130Y-64970890D01*
X91404312Y-64969671D01*
X91393300Y-64968230D01*
X91384703Y-64966547D01*
X91378135Y-64964604D01*
X91373208Y-64962381D01*
X91369535Y-64959857D01*
X91366728Y-64957014D01*
X91364400Y-64953834D01*
X91362162Y-64950295D01*
X91359628Y-64946380D01*
X91358393Y-64944429D01*
X91352472Y-64929093D01*
X91350031Y-64911147D01*
X91351693Y-64894638D01*
X91353923Y-64890673D01*
X91359549Y-64883493D01*
X91368868Y-64872803D01*
X91382190Y-64858272D01*
X91399824Y-64839567D01*
X91422079Y-64816358D01*
X91449265Y-64788313D01*
X91481690Y-64755098D01*
X91492868Y-64743676D01*
X91520757Y-64715150D01*
X91543800Y-64691501D01*
X91562462Y-64672211D01*
X91577210Y-64656770D01*
X91588506Y-64644660D01*
X91596816Y-64635368D01*
X91602603Y-64628378D01*
X91606334Y-64623175D01*
X91608472Y-64619246D01*
X91609481Y-64616075D01*
X91609827Y-64613148D01*
X91609847Y-64612824D01*
X91610120Y-64609262D01*
X91610288Y-64605975D01*
X91610083Y-64602674D01*
X91609234Y-64599069D01*
X91607468Y-64594868D01*
X91604516Y-64589782D01*
X91600107Y-64583519D01*
X91593970Y-64575790D01*
X91585837Y-64566304D01*
X91575433Y-64554770D01*
X91562489Y-64540899D01*
X91546736Y-64524400D01*
X91527902Y-64504982D01*
X91505716Y-64482355D01*
X91479908Y-64456228D01*
X91450206Y-64426313D01*
X91416341Y-64392317D01*
X91378043Y-64353949D01*
X91335039Y-64310921D01*
X91287060Y-64262942D01*
X91233833Y-64209721D01*
X90867425Y-63843312D01*
X90862866Y-63827053D01*
X90862256Y-63824535D01*
X90861012Y-63809176D01*
X90862901Y-63794408D01*
X90867496Y-63778023D01*
X91105822Y-63541168D01*
X91142769Y-63504451D01*
X91180024Y-63467448D01*
X91212422Y-63435303D01*
X91240329Y-63407673D01*
X91264109Y-63384210D01*
X91284128Y-63364569D01*
X91300749Y-63348403D01*
X91314339Y-63335365D01*
X91325259Y-63325112D01*
X91333877Y-63317296D01*
X91340556Y-63311570D01*
X91345661Y-63307590D01*
X91349556Y-63305010D01*
X91352607Y-63303482D01*
X91355177Y-63302661D01*
X91357632Y-63302202D01*
X91361865Y-63301856D01*
X91375464Y-63302851D01*
G37*
%TO.C,leddirectionarrow3*%
G36*
X92555592Y-78782901D02*
G01*
X92571977Y-78787496D01*
X92808832Y-79025822D01*
X92845549Y-79062769D01*
X92882552Y-79100024D01*
X92914697Y-79132422D01*
X92942327Y-79160329D01*
X92965790Y-79184109D01*
X92985431Y-79204128D01*
X93001597Y-79220749D01*
X93014635Y-79234339D01*
X93024888Y-79245259D01*
X93032704Y-79253877D01*
X93038430Y-79260556D01*
X93042410Y-79265661D01*
X93044990Y-79269556D01*
X93046518Y-79272607D01*
X93047339Y-79275177D01*
X93047798Y-79277632D01*
X93048144Y-79281865D01*
X93047149Y-79295464D01*
X93043961Y-79309496D01*
X93038014Y-79327874D01*
X92671075Y-79694813D01*
X92635534Y-79730349D01*
X92585607Y-79780257D01*
X92540754Y-79825102D01*
X92500710Y-79865174D01*
X92465211Y-79900761D01*
X92433993Y-79932151D01*
X92406793Y-79959635D01*
X92383348Y-79983500D01*
X92363394Y-80004036D01*
X92346665Y-80021530D01*
X92332900Y-80036272D01*
X92321834Y-80048551D01*
X92313204Y-80058655D01*
X92306747Y-80066873D01*
X92302197Y-80073494D01*
X92299291Y-80078807D01*
X92297767Y-80083100D01*
X92297359Y-80086663D01*
X92297805Y-80089784D01*
X92298841Y-80092751D01*
X92300202Y-80095854D01*
X92301626Y-80099381D01*
X92303256Y-80103101D01*
X92306085Y-80107760D01*
X92310540Y-80113699D01*
X92317112Y-80121444D01*
X92326293Y-80131521D01*
X92338574Y-80144456D01*
X92354446Y-80160777D01*
X92374402Y-80181010D01*
X92398933Y-80205681D01*
X92428530Y-80235318D01*
X92429578Y-80236366D01*
X92459998Y-80266807D01*
X92485358Y-80292304D01*
X92506105Y-80313419D01*
X92522691Y-80330712D01*
X92535566Y-80344745D01*
X92545178Y-80356082D01*
X92551978Y-80365280D01*
X92556418Y-80372906D01*
X92558943Y-80379518D01*
X92560007Y-80385679D01*
X92560059Y-80391950D01*
X92559547Y-80398893D01*
X92557008Y-80411669D01*
X92547053Y-80430558D01*
X92530357Y-80446256D01*
X92530294Y-80446299D01*
X92527914Y-80447491D01*
X92524201Y-80448570D01*
X92518773Y-80449538D01*
X92511251Y-80450405D01*
X92501253Y-80451176D01*
X92488396Y-80451856D01*
X92472301Y-80452452D01*
X92452586Y-80452970D01*
X92428870Y-80453416D01*
X92400772Y-80453796D01*
X92367910Y-80454117D01*
X92329904Y-80454384D01*
X92286371Y-80454603D01*
X92236933Y-80454780D01*
X92181205Y-80454922D01*
X92118808Y-80455036D01*
X92049360Y-80455127D01*
X91972481Y-80455200D01*
X91927001Y-80455221D01*
X91863504Y-80455199D01*
X91802353Y-80455116D01*
X91744002Y-80454975D01*
X91688907Y-80454780D01*
X91637525Y-80454533D01*
X91590311Y-80454239D01*
X91547720Y-80453901D01*
X91510208Y-80453522D01*
X91478231Y-80453104D01*
X91452244Y-80452654D01*
X91432703Y-80452171D01*
X91420065Y-80451662D01*
X91414782Y-80451127D01*
X91406410Y-80447163D01*
X91390304Y-80433830D01*
X91379363Y-80415931D01*
X91379274Y-80415639D01*
X91378627Y-80409089D01*
X91378020Y-80395139D01*
X91377454Y-80374152D01*
X91376935Y-80346495D01*
X91376463Y-80312530D01*
X91376044Y-80272623D01*
X91375678Y-80227140D01*
X91375370Y-80176442D01*
X91375122Y-80120897D01*
X91374938Y-80060868D01*
X91374821Y-79996719D01*
X91374772Y-79928817D01*
X91374796Y-79857523D01*
X91374850Y-79786028D01*
X91374898Y-79715786D01*
X91374957Y-79652613D01*
X91375044Y-79596119D01*
X91375181Y-79545917D01*
X91375384Y-79501620D01*
X91375675Y-79462840D01*
X91376072Y-79429189D01*
X91376594Y-79400280D01*
X91377263Y-79375726D01*
X91378094Y-79355138D01*
X91379110Y-79338130D01*
X91380329Y-79324312D01*
X91381770Y-79313300D01*
X91383453Y-79304703D01*
X91385396Y-79298135D01*
X91387619Y-79293208D01*
X91390143Y-79289535D01*
X91392986Y-79286728D01*
X91396166Y-79284400D01*
X91399705Y-79282162D01*
X91403620Y-79279628D01*
X91405571Y-79278393D01*
X91420907Y-79272472D01*
X91438853Y-79270031D01*
X91455362Y-79271693D01*
X91459327Y-79273923D01*
X91466507Y-79279549D01*
X91477197Y-79288868D01*
X91491728Y-79302190D01*
X91510433Y-79319824D01*
X91533642Y-79342079D01*
X91561687Y-79369265D01*
X91594902Y-79401690D01*
X91606324Y-79412868D01*
X91634850Y-79440757D01*
X91658499Y-79463800D01*
X91677789Y-79482462D01*
X91693230Y-79497210D01*
X91705340Y-79508506D01*
X91714632Y-79516816D01*
X91721622Y-79522603D01*
X91726825Y-79526334D01*
X91730754Y-79528472D01*
X91733925Y-79529481D01*
X91736852Y-79529827D01*
X91737176Y-79529847D01*
X91740738Y-79530120D01*
X91744025Y-79530288D01*
X91747326Y-79530083D01*
X91750931Y-79529234D01*
X91755132Y-79527468D01*
X91760218Y-79524516D01*
X91766481Y-79520107D01*
X91774210Y-79513970D01*
X91783696Y-79505837D01*
X91795230Y-79495433D01*
X91809101Y-79482489D01*
X91825600Y-79466736D01*
X91845018Y-79447902D01*
X91867645Y-79425716D01*
X91893772Y-79399908D01*
X91923687Y-79370206D01*
X91957683Y-79336341D01*
X91996051Y-79298043D01*
X92039079Y-79255039D01*
X92087058Y-79207060D01*
X92140279Y-79153833D01*
X92506688Y-78787425D01*
X92522947Y-78782866D01*
X92525465Y-78782256D01*
X92540824Y-78781012D01*
X92555592Y-78782901D01*
G37*
%TO.C,leddirectionarrow1*%
G36*
X110872477Y-79014796D02*
G01*
X110943972Y-79014850D01*
X111014214Y-79014898D01*
X111077387Y-79014957D01*
X111133881Y-79015044D01*
X111184083Y-79015181D01*
X111228380Y-79015384D01*
X111267160Y-79015675D01*
X111300811Y-79016072D01*
X111329720Y-79016594D01*
X111354274Y-79017263D01*
X111374862Y-79018094D01*
X111391870Y-79019110D01*
X111405688Y-79020329D01*
X111416700Y-79021770D01*
X111425297Y-79023453D01*
X111431865Y-79025396D01*
X111436792Y-79027619D01*
X111440465Y-79030143D01*
X111443272Y-79032986D01*
X111445600Y-79036166D01*
X111447838Y-79039705D01*
X111450372Y-79043620D01*
X111451607Y-79045571D01*
X111457528Y-79060907D01*
X111459969Y-79078853D01*
X111458307Y-79095362D01*
X111456077Y-79099327D01*
X111450451Y-79106507D01*
X111441132Y-79117197D01*
X111427810Y-79131728D01*
X111410176Y-79150433D01*
X111387921Y-79173642D01*
X111360735Y-79201687D01*
X111328310Y-79234902D01*
X111317132Y-79246324D01*
X111289243Y-79274850D01*
X111266200Y-79298499D01*
X111247538Y-79317789D01*
X111232790Y-79333230D01*
X111221494Y-79345340D01*
X111213184Y-79354632D01*
X111207397Y-79361622D01*
X111203666Y-79366825D01*
X111201528Y-79370754D01*
X111200519Y-79373925D01*
X111200173Y-79376852D01*
X111200153Y-79377176D01*
X111199880Y-79380738D01*
X111199712Y-79384025D01*
X111199917Y-79387326D01*
X111200766Y-79390931D01*
X111202532Y-79395132D01*
X111205484Y-79400218D01*
X111209893Y-79406481D01*
X111216030Y-79414210D01*
X111224163Y-79423696D01*
X111234567Y-79435230D01*
X111247511Y-79449101D01*
X111263264Y-79465600D01*
X111282098Y-79485018D01*
X111304284Y-79507645D01*
X111330092Y-79533772D01*
X111359794Y-79563687D01*
X111393659Y-79597683D01*
X111431957Y-79636051D01*
X111474961Y-79679079D01*
X111522940Y-79727058D01*
X111576167Y-79780279D01*
X111942575Y-80146688D01*
X111947134Y-80162947D01*
X111947744Y-80165465D01*
X111948988Y-80180824D01*
X111947099Y-80195592D01*
X111942504Y-80211977D01*
X111704178Y-80448832D01*
X111667231Y-80485549D01*
X111629976Y-80522552D01*
X111597578Y-80554697D01*
X111569671Y-80582327D01*
X111545891Y-80605790D01*
X111525872Y-80625431D01*
X111509251Y-80641597D01*
X111495661Y-80654635D01*
X111484741Y-80664888D01*
X111476123Y-80672704D01*
X111469444Y-80678430D01*
X111464339Y-80682410D01*
X111460444Y-80684990D01*
X111457393Y-80686518D01*
X111454823Y-80687339D01*
X111452368Y-80687798D01*
X111448135Y-80688144D01*
X111434536Y-80687149D01*
X111420504Y-80683961D01*
X111402126Y-80678014D01*
X111035187Y-80311075D01*
X110999651Y-80275534D01*
X110949743Y-80225607D01*
X110904898Y-80180754D01*
X110864826Y-80140710D01*
X110829239Y-80105211D01*
X110797849Y-80073993D01*
X110770365Y-80046793D01*
X110746500Y-80023348D01*
X110725964Y-80003394D01*
X110708470Y-79986665D01*
X110693728Y-79972900D01*
X110681449Y-79961834D01*
X110671345Y-79953204D01*
X110663127Y-79946747D01*
X110656506Y-79942197D01*
X110651193Y-79939291D01*
X110646900Y-79937767D01*
X110643337Y-79937359D01*
X110640216Y-79937805D01*
X110637249Y-79938841D01*
X110634146Y-79940202D01*
X110630619Y-79941626D01*
X110626899Y-79943256D01*
X110622240Y-79946085D01*
X110616301Y-79950540D01*
X110608556Y-79957112D01*
X110598479Y-79966293D01*
X110585544Y-79978574D01*
X110569223Y-79994446D01*
X110548990Y-80014402D01*
X110524319Y-80038933D01*
X110494682Y-80068530D01*
X110493634Y-80069578D01*
X110463193Y-80099998D01*
X110437696Y-80125358D01*
X110416581Y-80146105D01*
X110399288Y-80162691D01*
X110385255Y-80175566D01*
X110373918Y-80185178D01*
X110364720Y-80191978D01*
X110357094Y-80196418D01*
X110350482Y-80198943D01*
X110344321Y-80200007D01*
X110338050Y-80200059D01*
X110331107Y-80199547D01*
X110318331Y-80197008D01*
X110299442Y-80187053D01*
X110283744Y-80170357D01*
X110283701Y-80170294D01*
X110282509Y-80167914D01*
X110281430Y-80164201D01*
X110280462Y-80158773D01*
X110279595Y-80151251D01*
X110278824Y-80141253D01*
X110278144Y-80128396D01*
X110277548Y-80112301D01*
X110277030Y-80092586D01*
X110276584Y-80068870D01*
X110276204Y-80040772D01*
X110275883Y-80007910D01*
X110275616Y-79969904D01*
X110275397Y-79926371D01*
X110275220Y-79876933D01*
X110275078Y-79821205D01*
X110274964Y-79758808D01*
X110274873Y-79689360D01*
X110274800Y-79612481D01*
X110274779Y-79567001D01*
X110274801Y-79503504D01*
X110274884Y-79442353D01*
X110275025Y-79384002D01*
X110275220Y-79328907D01*
X110275467Y-79277525D01*
X110275761Y-79230311D01*
X110276099Y-79187720D01*
X110276478Y-79150208D01*
X110276896Y-79118231D01*
X110277346Y-79092244D01*
X110277829Y-79072703D01*
X110278338Y-79060065D01*
X110278873Y-79054782D01*
X110282837Y-79046410D01*
X110296170Y-79030304D01*
X110314069Y-79019363D01*
X110314361Y-79019274D01*
X110320911Y-79018627D01*
X110334861Y-79018020D01*
X110355848Y-79017454D01*
X110383505Y-79016935D01*
X110417470Y-79016463D01*
X110457377Y-79016044D01*
X110502860Y-79015678D01*
X110553558Y-79015370D01*
X110609103Y-79015122D01*
X110669132Y-79014938D01*
X110733281Y-79014821D01*
X110801183Y-79014772D01*
X110872477Y-79014796D01*
G37*
%TD*%
M02*
