%TF.GenerationSoftware,KiCad,Pcbnew,(6.0.4-0)*%
%TF.CreationDate,2022-06-23T16:54:48+02:00*%
%TF.ProjectId,GlowTower_LED_connector_PCB,476c6f77-546f-4776-9572-5f4c45445f63,rev?*%
%TF.SameCoordinates,Original*%
%TF.FileFunction,Legend,Bot*%
%TF.FilePolarity,Positive*%
%FSLAX46Y46*%
G04 Gerber Fmt 4.6, Leading zero omitted, Abs format (unit mm)*
G04 Created by KiCad (PCBNEW (6.0.4-0)) date 2022-06-23 16:54:48*
%MOMM*%
%LPD*%
G01*
G04 APERTURE LIST*
%ADD10C,0.150000*%
%ADD11C,0.100000*%
%ADD12C,0.734422*%
G04 APERTURE END LIST*
D10*
X109431458Y-63828117D02*
X108011458Y-62368117D01*
D11*
X94531122Y-72181814D02*
X101602190Y-79252882D01*
D10*
X93458542Y-79841884D02*
X92038542Y-78381884D01*
D11*
X101602190Y-65110746D02*
X94531122Y-72181814D01*
D10*
X91700000Y-65690000D02*
X93160000Y-64270000D01*
D11*
X101602190Y-79252882D02*
X108673258Y-72181814D01*
D12*
X111147211Y-72200000D02*
G75*
G03*
X111147211Y-72200000I-367211J0D01*
G01*
D11*
X108673258Y-72181814D02*
X101602190Y-65110746D01*
D10*
X107540000Y-61970000D02*
X106120000Y-60510000D01*
X111351458Y-65728117D02*
X109931458Y-64268117D01*
X111280000Y-78460000D02*
X109820000Y-79880000D01*
%TO.C,leddirectionarrow4*%
G36*
X112006496Y-63014801D02*
G01*
X112067647Y-63014884D01*
X112125998Y-63015025D01*
X112181093Y-63015220D01*
X112232475Y-63015467D01*
X112279689Y-63015761D01*
X112322280Y-63016099D01*
X112359792Y-63016478D01*
X112391769Y-63016896D01*
X112417756Y-63017346D01*
X112437297Y-63017829D01*
X112449935Y-63018338D01*
X112455218Y-63018873D01*
X112463590Y-63022837D01*
X112479696Y-63036170D01*
X112490637Y-63054069D01*
X112490726Y-63054361D01*
X112491373Y-63060911D01*
X112491980Y-63074861D01*
X112492546Y-63095848D01*
X112493065Y-63123505D01*
X112493537Y-63157470D01*
X112493956Y-63197377D01*
X112494322Y-63242860D01*
X112494630Y-63293558D01*
X112494878Y-63349103D01*
X112495062Y-63409132D01*
X112495179Y-63473281D01*
X112495228Y-63541183D01*
X112495204Y-63612477D01*
X112495150Y-63683972D01*
X112495102Y-63754214D01*
X112495043Y-63817387D01*
X112494956Y-63873881D01*
X112494819Y-63924083D01*
X112494616Y-63968380D01*
X112494325Y-64007160D01*
X112493928Y-64040811D01*
X112493406Y-64069720D01*
X112492737Y-64094274D01*
X112491906Y-64114862D01*
X112490890Y-64131870D01*
X112489671Y-64145688D01*
X112488230Y-64156700D01*
X112486547Y-64165297D01*
X112484604Y-64171865D01*
X112482381Y-64176792D01*
X112479857Y-64180465D01*
X112477014Y-64183272D01*
X112473834Y-64185600D01*
X112470295Y-64187838D01*
X112466380Y-64190372D01*
X112464429Y-64191607D01*
X112449093Y-64197528D01*
X112431147Y-64199969D01*
X112414638Y-64198307D01*
X112410673Y-64196077D01*
X112403493Y-64190451D01*
X112392803Y-64181132D01*
X112378272Y-64167810D01*
X112359567Y-64150176D01*
X112336358Y-64127921D01*
X112308313Y-64100735D01*
X112275098Y-64068310D01*
X112263676Y-64057132D01*
X112235150Y-64029243D01*
X112211501Y-64006200D01*
X112192211Y-63987538D01*
X112176770Y-63972790D01*
X112164660Y-63961494D01*
X112155368Y-63953184D01*
X112148378Y-63947397D01*
X112143175Y-63943666D01*
X112139246Y-63941528D01*
X112136075Y-63940519D01*
X112133148Y-63940173D01*
X112132824Y-63940153D01*
X112129262Y-63939880D01*
X112125975Y-63939712D01*
X112122674Y-63939917D01*
X112119069Y-63940766D01*
X112114868Y-63942532D01*
X112109782Y-63945484D01*
X112103519Y-63949893D01*
X112095790Y-63956030D01*
X112086304Y-63964163D01*
X112074770Y-63974567D01*
X112060899Y-63987511D01*
X112044400Y-64003264D01*
X112024982Y-64022098D01*
X112002355Y-64044284D01*
X111976228Y-64070092D01*
X111946313Y-64099794D01*
X111912317Y-64133659D01*
X111873949Y-64171957D01*
X111830921Y-64214961D01*
X111782942Y-64262940D01*
X111729721Y-64316167D01*
X111363312Y-64682575D01*
X111347053Y-64687134D01*
X111344535Y-64687744D01*
X111329176Y-64688988D01*
X111314408Y-64687099D01*
X111298023Y-64682504D01*
X111061168Y-64444178D01*
X111024451Y-64407231D01*
X110987448Y-64369976D01*
X110955303Y-64337578D01*
X110927673Y-64309671D01*
X110904210Y-64285891D01*
X110884569Y-64265872D01*
X110868403Y-64249251D01*
X110855365Y-64235661D01*
X110845112Y-64224741D01*
X110837296Y-64216123D01*
X110831570Y-64209444D01*
X110827590Y-64204339D01*
X110825010Y-64200444D01*
X110823482Y-64197393D01*
X110822661Y-64194823D01*
X110822202Y-64192368D01*
X110821856Y-64188135D01*
X110822851Y-64174536D01*
X110826039Y-64160504D01*
X110831986Y-64142126D01*
X111198925Y-63775187D01*
X111234466Y-63739651D01*
X111284393Y-63689743D01*
X111329246Y-63644898D01*
X111369290Y-63604826D01*
X111404789Y-63569239D01*
X111436007Y-63537849D01*
X111463207Y-63510365D01*
X111486652Y-63486500D01*
X111506606Y-63465964D01*
X111523335Y-63448470D01*
X111537100Y-63433728D01*
X111548166Y-63421449D01*
X111556796Y-63411345D01*
X111563253Y-63403127D01*
X111567803Y-63396506D01*
X111570709Y-63391193D01*
X111572233Y-63386900D01*
X111572641Y-63383337D01*
X111572195Y-63380216D01*
X111571159Y-63377249D01*
X111569798Y-63374146D01*
X111568374Y-63370619D01*
X111566744Y-63366899D01*
X111563915Y-63362240D01*
X111559460Y-63356301D01*
X111552888Y-63348556D01*
X111543707Y-63338479D01*
X111531426Y-63325544D01*
X111515554Y-63309223D01*
X111495598Y-63288990D01*
X111471067Y-63264319D01*
X111441470Y-63234682D01*
X111440422Y-63233634D01*
X111410002Y-63203193D01*
X111384642Y-63177696D01*
X111363895Y-63156581D01*
X111347309Y-63139288D01*
X111334434Y-63125255D01*
X111324822Y-63113918D01*
X111318022Y-63104720D01*
X111313582Y-63097094D01*
X111311057Y-63090482D01*
X111309993Y-63084321D01*
X111309941Y-63078050D01*
X111310453Y-63071107D01*
X111312992Y-63058331D01*
X111322947Y-63039442D01*
X111339643Y-63023744D01*
X111339706Y-63023701D01*
X111342086Y-63022509D01*
X111345799Y-63021430D01*
X111351227Y-63020462D01*
X111358749Y-63019595D01*
X111368747Y-63018824D01*
X111381604Y-63018144D01*
X111397699Y-63017548D01*
X111417414Y-63017030D01*
X111441130Y-63016584D01*
X111469228Y-63016204D01*
X111502090Y-63015883D01*
X111540096Y-63015616D01*
X111583629Y-63015397D01*
X111633067Y-63015220D01*
X111688795Y-63015078D01*
X111751192Y-63014964D01*
X111820640Y-63014873D01*
X111897519Y-63014800D01*
X111942999Y-63014779D01*
X112006496Y-63014801D01*
G37*
%TO.C,leddirectionarrow2*%
G36*
X90675464Y-62732851D02*
G01*
X90689496Y-62736039D01*
X90707874Y-62741986D01*
X91074813Y-63108925D01*
X91110349Y-63144466D01*
X91160257Y-63194393D01*
X91205102Y-63239246D01*
X91245174Y-63279290D01*
X91280761Y-63314789D01*
X91312151Y-63346007D01*
X91339635Y-63373207D01*
X91363500Y-63396652D01*
X91384036Y-63416606D01*
X91401530Y-63433335D01*
X91416272Y-63447100D01*
X91428551Y-63458166D01*
X91438655Y-63466796D01*
X91446873Y-63473253D01*
X91453494Y-63477803D01*
X91458807Y-63480709D01*
X91463100Y-63482233D01*
X91466663Y-63482641D01*
X91469784Y-63482195D01*
X91472751Y-63481159D01*
X91475854Y-63479798D01*
X91479381Y-63478374D01*
X91483101Y-63476744D01*
X91487760Y-63473915D01*
X91493699Y-63469460D01*
X91501444Y-63462888D01*
X91511521Y-63453707D01*
X91524456Y-63441426D01*
X91540777Y-63425554D01*
X91561010Y-63405598D01*
X91585681Y-63381067D01*
X91615318Y-63351470D01*
X91616366Y-63350422D01*
X91646807Y-63320002D01*
X91672304Y-63294642D01*
X91693419Y-63273895D01*
X91710712Y-63257309D01*
X91724745Y-63244434D01*
X91736082Y-63234822D01*
X91745280Y-63228022D01*
X91752906Y-63223582D01*
X91759518Y-63221057D01*
X91765679Y-63219993D01*
X91771950Y-63219941D01*
X91778893Y-63220453D01*
X91791669Y-63222992D01*
X91810558Y-63232947D01*
X91826256Y-63249643D01*
X91826299Y-63249706D01*
X91827491Y-63252086D01*
X91828570Y-63255799D01*
X91829538Y-63261227D01*
X91830405Y-63268749D01*
X91831176Y-63278747D01*
X91831856Y-63291604D01*
X91832452Y-63307699D01*
X91832970Y-63327414D01*
X91833416Y-63351130D01*
X91833796Y-63379228D01*
X91834117Y-63412090D01*
X91834384Y-63450096D01*
X91834603Y-63493629D01*
X91834780Y-63543067D01*
X91834922Y-63598795D01*
X91835036Y-63661192D01*
X91835127Y-63730640D01*
X91835200Y-63807519D01*
X91835221Y-63852999D01*
X91835199Y-63916496D01*
X91835116Y-63977647D01*
X91834975Y-64035998D01*
X91834780Y-64091093D01*
X91834533Y-64142475D01*
X91834239Y-64189689D01*
X91833901Y-64232280D01*
X91833522Y-64269792D01*
X91833104Y-64301769D01*
X91832654Y-64327756D01*
X91832171Y-64347297D01*
X91831662Y-64359935D01*
X91831127Y-64365218D01*
X91827163Y-64373590D01*
X91813830Y-64389696D01*
X91795931Y-64400637D01*
X91795639Y-64400726D01*
X91789089Y-64401373D01*
X91775139Y-64401980D01*
X91754152Y-64402546D01*
X91726495Y-64403065D01*
X91692530Y-64403537D01*
X91652623Y-64403956D01*
X91607140Y-64404322D01*
X91556442Y-64404630D01*
X91500897Y-64404878D01*
X91440868Y-64405062D01*
X91376719Y-64405179D01*
X91308817Y-64405228D01*
X91237523Y-64405204D01*
X91166028Y-64405150D01*
X91095786Y-64405102D01*
X91032613Y-64405043D01*
X90976119Y-64404956D01*
X90925917Y-64404819D01*
X90881620Y-64404616D01*
X90842840Y-64404325D01*
X90809189Y-64403928D01*
X90780280Y-64403406D01*
X90755726Y-64402737D01*
X90735138Y-64401906D01*
X90718130Y-64400890D01*
X90704312Y-64399671D01*
X90693300Y-64398230D01*
X90684703Y-64396547D01*
X90678135Y-64394604D01*
X90673208Y-64392381D01*
X90669535Y-64389857D01*
X90666728Y-64387014D01*
X90664400Y-64383834D01*
X90662162Y-64380295D01*
X90659628Y-64376380D01*
X90658393Y-64374429D01*
X90652472Y-64359093D01*
X90650031Y-64341147D01*
X90651693Y-64324638D01*
X90653923Y-64320673D01*
X90659549Y-64313493D01*
X90668868Y-64302803D01*
X90682190Y-64288272D01*
X90699824Y-64269567D01*
X90722079Y-64246358D01*
X90749265Y-64218313D01*
X90781690Y-64185098D01*
X90792868Y-64173676D01*
X90820757Y-64145150D01*
X90843800Y-64121501D01*
X90862462Y-64102211D01*
X90877210Y-64086770D01*
X90888506Y-64074660D01*
X90896816Y-64065368D01*
X90902603Y-64058378D01*
X90906334Y-64053175D01*
X90908472Y-64049246D01*
X90909481Y-64046075D01*
X90909827Y-64043148D01*
X90909847Y-64042824D01*
X90910120Y-64039262D01*
X90910288Y-64035975D01*
X90910083Y-64032674D01*
X90909234Y-64029069D01*
X90907468Y-64024868D01*
X90904516Y-64019782D01*
X90900107Y-64013519D01*
X90893970Y-64005790D01*
X90885837Y-63996304D01*
X90875433Y-63984770D01*
X90862489Y-63970899D01*
X90846736Y-63954400D01*
X90827902Y-63934982D01*
X90805716Y-63912355D01*
X90779908Y-63886228D01*
X90750206Y-63856313D01*
X90716341Y-63822317D01*
X90678043Y-63783949D01*
X90635039Y-63740921D01*
X90587060Y-63692942D01*
X90533833Y-63639721D01*
X90167425Y-63273312D01*
X90162866Y-63257053D01*
X90162256Y-63254535D01*
X90161012Y-63239176D01*
X90162901Y-63224408D01*
X90167496Y-63208023D01*
X90405822Y-62971168D01*
X90442769Y-62934451D01*
X90480024Y-62897448D01*
X90512422Y-62865303D01*
X90540329Y-62837673D01*
X90564109Y-62814210D01*
X90584128Y-62794569D01*
X90600749Y-62778403D01*
X90614339Y-62765365D01*
X90625259Y-62755112D01*
X90633877Y-62747296D01*
X90640556Y-62741570D01*
X90645661Y-62737590D01*
X90649556Y-62735010D01*
X90652607Y-62733482D01*
X90655177Y-62732661D01*
X90657632Y-62732202D01*
X90661865Y-62731856D01*
X90675464Y-62732851D01*
G37*
%TO.C,leddirectionarrow3*%
G36*
X91984134Y-79314785D02*
G01*
X92000519Y-79319380D01*
X92237374Y-79557706D01*
X92274091Y-79594653D01*
X92311094Y-79631908D01*
X92343239Y-79664306D01*
X92370869Y-79692213D01*
X92394332Y-79715993D01*
X92413973Y-79736012D01*
X92430139Y-79752633D01*
X92443177Y-79766223D01*
X92453430Y-79777143D01*
X92461246Y-79785761D01*
X92466972Y-79792440D01*
X92470952Y-79797545D01*
X92473532Y-79801440D01*
X92475060Y-79804491D01*
X92475881Y-79807061D01*
X92476340Y-79809516D01*
X92476686Y-79813749D01*
X92475691Y-79827348D01*
X92472503Y-79841380D01*
X92466556Y-79859758D01*
X92099617Y-80226697D01*
X92064076Y-80262233D01*
X92014149Y-80312141D01*
X91969296Y-80356986D01*
X91929252Y-80397058D01*
X91893753Y-80432645D01*
X91862535Y-80464035D01*
X91835335Y-80491519D01*
X91811890Y-80515384D01*
X91791936Y-80535920D01*
X91775207Y-80553414D01*
X91761442Y-80568156D01*
X91750376Y-80580435D01*
X91741746Y-80590539D01*
X91735289Y-80598757D01*
X91730739Y-80605378D01*
X91727833Y-80610691D01*
X91726309Y-80614984D01*
X91725901Y-80618547D01*
X91726347Y-80621668D01*
X91727383Y-80624635D01*
X91728744Y-80627738D01*
X91730168Y-80631265D01*
X91731798Y-80634985D01*
X91734627Y-80639644D01*
X91739082Y-80645583D01*
X91745654Y-80653328D01*
X91754835Y-80663405D01*
X91767116Y-80676340D01*
X91782988Y-80692661D01*
X91802944Y-80712894D01*
X91827475Y-80737565D01*
X91857072Y-80767202D01*
X91858120Y-80768250D01*
X91888540Y-80798691D01*
X91913900Y-80824188D01*
X91934647Y-80845303D01*
X91951233Y-80862596D01*
X91964108Y-80876629D01*
X91973720Y-80887966D01*
X91980520Y-80897164D01*
X91984960Y-80904790D01*
X91987485Y-80911402D01*
X91988549Y-80917563D01*
X91988601Y-80923834D01*
X91988089Y-80930777D01*
X91985550Y-80943553D01*
X91975595Y-80962442D01*
X91958899Y-80978140D01*
X91958836Y-80978183D01*
X91956456Y-80979375D01*
X91952743Y-80980454D01*
X91947315Y-80981422D01*
X91939793Y-80982289D01*
X91929795Y-80983060D01*
X91916938Y-80983740D01*
X91900843Y-80984336D01*
X91881128Y-80984854D01*
X91857412Y-80985300D01*
X91829314Y-80985680D01*
X91796452Y-80986001D01*
X91758446Y-80986268D01*
X91714913Y-80986487D01*
X91665475Y-80986664D01*
X91609747Y-80986806D01*
X91547350Y-80986920D01*
X91477902Y-80987011D01*
X91401023Y-80987084D01*
X91355543Y-80987105D01*
X91292046Y-80987083D01*
X91230895Y-80987000D01*
X91172544Y-80986859D01*
X91117449Y-80986664D01*
X91066067Y-80986417D01*
X91018853Y-80986123D01*
X90976262Y-80985785D01*
X90938750Y-80985406D01*
X90906773Y-80984988D01*
X90880786Y-80984538D01*
X90861245Y-80984055D01*
X90848607Y-80983546D01*
X90843324Y-80983011D01*
X90834952Y-80979047D01*
X90818846Y-80965714D01*
X90807905Y-80947815D01*
X90807816Y-80947523D01*
X90807169Y-80940973D01*
X90806562Y-80927023D01*
X90805996Y-80906036D01*
X90805477Y-80878379D01*
X90805005Y-80844414D01*
X90804586Y-80804507D01*
X90804220Y-80759024D01*
X90803912Y-80708326D01*
X90803664Y-80652781D01*
X90803480Y-80592752D01*
X90803363Y-80528603D01*
X90803314Y-80460701D01*
X90803338Y-80389407D01*
X90803392Y-80317912D01*
X90803440Y-80247670D01*
X90803499Y-80184497D01*
X90803586Y-80128003D01*
X90803723Y-80077801D01*
X90803926Y-80033504D01*
X90804217Y-79994724D01*
X90804614Y-79961073D01*
X90805136Y-79932164D01*
X90805805Y-79907610D01*
X90806636Y-79887022D01*
X90807652Y-79870014D01*
X90808871Y-79856196D01*
X90810312Y-79845184D01*
X90811995Y-79836587D01*
X90813938Y-79830019D01*
X90816161Y-79825092D01*
X90818685Y-79821419D01*
X90821528Y-79818612D01*
X90824708Y-79816284D01*
X90828247Y-79814046D01*
X90832162Y-79811512D01*
X90834113Y-79810277D01*
X90849449Y-79804356D01*
X90867395Y-79801915D01*
X90883904Y-79803577D01*
X90887869Y-79805807D01*
X90895049Y-79811433D01*
X90905739Y-79820752D01*
X90920270Y-79834074D01*
X90938975Y-79851708D01*
X90962184Y-79873963D01*
X90990229Y-79901149D01*
X91023444Y-79933574D01*
X91034866Y-79944752D01*
X91063392Y-79972641D01*
X91087041Y-79995684D01*
X91106331Y-80014346D01*
X91121772Y-80029094D01*
X91133882Y-80040390D01*
X91143174Y-80048700D01*
X91150164Y-80054487D01*
X91155367Y-80058218D01*
X91159296Y-80060356D01*
X91162467Y-80061365D01*
X91165394Y-80061711D01*
X91165718Y-80061731D01*
X91169280Y-80062004D01*
X91172567Y-80062172D01*
X91175868Y-80061967D01*
X91179473Y-80061118D01*
X91183674Y-80059352D01*
X91188760Y-80056400D01*
X91195023Y-80051991D01*
X91202752Y-80045854D01*
X91212238Y-80037721D01*
X91223772Y-80027317D01*
X91237643Y-80014373D01*
X91254142Y-79998620D01*
X91273560Y-79979786D01*
X91296187Y-79957600D01*
X91322314Y-79931792D01*
X91352229Y-79902090D01*
X91386225Y-79868225D01*
X91424593Y-79829927D01*
X91467621Y-79786923D01*
X91515600Y-79738944D01*
X91568821Y-79685717D01*
X91935230Y-79319309D01*
X91951489Y-79314750D01*
X91954007Y-79314140D01*
X91969366Y-79312896D01*
X91984134Y-79314785D01*
G37*
%TO.C,leddirectionarrow1*%
G36*
X111482477Y-79674796D02*
G01*
X111553972Y-79674850D01*
X111624214Y-79674898D01*
X111687387Y-79674957D01*
X111743881Y-79675044D01*
X111794083Y-79675181D01*
X111838380Y-79675384D01*
X111877160Y-79675675D01*
X111910811Y-79676072D01*
X111939720Y-79676594D01*
X111964274Y-79677263D01*
X111984862Y-79678094D01*
X112001870Y-79679110D01*
X112015688Y-79680329D01*
X112026700Y-79681770D01*
X112035297Y-79683453D01*
X112041865Y-79685396D01*
X112046792Y-79687619D01*
X112050465Y-79690143D01*
X112053272Y-79692986D01*
X112055600Y-79696166D01*
X112057838Y-79699705D01*
X112060372Y-79703620D01*
X112061607Y-79705571D01*
X112067528Y-79720907D01*
X112069969Y-79738853D01*
X112068307Y-79755362D01*
X112066077Y-79759327D01*
X112060451Y-79766507D01*
X112051132Y-79777197D01*
X112037810Y-79791728D01*
X112020176Y-79810433D01*
X111997921Y-79833642D01*
X111970735Y-79861687D01*
X111938310Y-79894902D01*
X111927132Y-79906324D01*
X111899243Y-79934850D01*
X111876200Y-79958499D01*
X111857538Y-79977789D01*
X111842790Y-79993230D01*
X111831494Y-80005340D01*
X111823184Y-80014632D01*
X111817397Y-80021622D01*
X111813666Y-80026825D01*
X111811528Y-80030754D01*
X111810519Y-80033925D01*
X111810173Y-80036852D01*
X111810153Y-80037176D01*
X111809880Y-80040738D01*
X111809712Y-80044025D01*
X111809917Y-80047326D01*
X111810766Y-80050931D01*
X111812532Y-80055132D01*
X111815484Y-80060218D01*
X111819893Y-80066481D01*
X111826030Y-80074210D01*
X111834163Y-80083696D01*
X111844567Y-80095230D01*
X111857511Y-80109101D01*
X111873264Y-80125600D01*
X111892098Y-80145018D01*
X111914284Y-80167645D01*
X111940092Y-80193772D01*
X111969794Y-80223687D01*
X112003659Y-80257683D01*
X112041957Y-80296051D01*
X112084961Y-80339079D01*
X112132940Y-80387058D01*
X112186167Y-80440279D01*
X112552575Y-80806688D01*
X112557134Y-80822947D01*
X112557744Y-80825465D01*
X112558988Y-80840824D01*
X112557099Y-80855592D01*
X112552504Y-80871977D01*
X112314178Y-81108832D01*
X112277231Y-81145549D01*
X112239976Y-81182552D01*
X112207578Y-81214697D01*
X112179671Y-81242327D01*
X112155891Y-81265790D01*
X112135872Y-81285431D01*
X112119251Y-81301597D01*
X112105661Y-81314635D01*
X112094741Y-81324888D01*
X112086123Y-81332704D01*
X112079444Y-81338430D01*
X112074339Y-81342410D01*
X112070444Y-81344990D01*
X112067393Y-81346518D01*
X112064823Y-81347339D01*
X112062368Y-81347798D01*
X112058135Y-81348144D01*
X112044536Y-81347149D01*
X112030504Y-81343961D01*
X112012126Y-81338014D01*
X111645187Y-80971075D01*
X111609651Y-80935534D01*
X111559743Y-80885607D01*
X111514898Y-80840754D01*
X111474826Y-80800710D01*
X111439239Y-80765211D01*
X111407849Y-80733993D01*
X111380365Y-80706793D01*
X111356500Y-80683348D01*
X111335964Y-80663394D01*
X111318470Y-80646665D01*
X111303728Y-80632900D01*
X111291449Y-80621834D01*
X111281345Y-80613204D01*
X111273127Y-80606747D01*
X111266506Y-80602197D01*
X111261193Y-80599291D01*
X111256900Y-80597767D01*
X111253337Y-80597359D01*
X111250216Y-80597805D01*
X111247249Y-80598841D01*
X111244146Y-80600202D01*
X111240619Y-80601626D01*
X111236899Y-80603256D01*
X111232240Y-80606085D01*
X111226301Y-80610540D01*
X111218556Y-80617112D01*
X111208479Y-80626293D01*
X111195544Y-80638574D01*
X111179223Y-80654446D01*
X111158990Y-80674402D01*
X111134319Y-80698933D01*
X111104682Y-80728530D01*
X111103634Y-80729578D01*
X111073193Y-80759998D01*
X111047696Y-80785358D01*
X111026581Y-80806105D01*
X111009288Y-80822691D01*
X110995255Y-80835566D01*
X110983918Y-80845178D01*
X110974720Y-80851978D01*
X110967094Y-80856418D01*
X110960482Y-80858943D01*
X110954321Y-80860007D01*
X110948050Y-80860059D01*
X110941107Y-80859547D01*
X110928331Y-80857008D01*
X110909442Y-80847053D01*
X110893744Y-80830357D01*
X110893701Y-80830294D01*
X110892509Y-80827914D01*
X110891430Y-80824201D01*
X110890462Y-80818773D01*
X110889595Y-80811251D01*
X110888824Y-80801253D01*
X110888144Y-80788396D01*
X110887548Y-80772301D01*
X110887030Y-80752586D01*
X110886584Y-80728870D01*
X110886204Y-80700772D01*
X110885883Y-80667910D01*
X110885616Y-80629904D01*
X110885397Y-80586371D01*
X110885220Y-80536933D01*
X110885078Y-80481205D01*
X110884964Y-80418808D01*
X110884873Y-80349360D01*
X110884800Y-80272481D01*
X110884779Y-80227001D01*
X110884801Y-80163504D01*
X110884884Y-80102353D01*
X110885025Y-80044002D01*
X110885220Y-79988907D01*
X110885467Y-79937525D01*
X110885761Y-79890311D01*
X110886099Y-79847720D01*
X110886478Y-79810208D01*
X110886896Y-79778231D01*
X110887346Y-79752244D01*
X110887829Y-79732703D01*
X110888338Y-79720065D01*
X110888873Y-79714782D01*
X110892837Y-79706410D01*
X110906170Y-79690304D01*
X110924069Y-79679363D01*
X110924361Y-79679274D01*
X110930911Y-79678627D01*
X110944861Y-79678020D01*
X110965848Y-79677454D01*
X110993505Y-79676935D01*
X111027470Y-79676463D01*
X111067377Y-79676044D01*
X111112860Y-79675678D01*
X111163558Y-79675370D01*
X111219103Y-79675122D01*
X111279132Y-79674938D01*
X111343281Y-79674821D01*
X111411183Y-79674772D01*
X111482477Y-79674796D01*
G37*
%TD*%
M02*
