%TF.GenerationSoftware,KiCad,Pcbnew,(6.0.4-0)*%
%TF.CreationDate,2022-04-23T10:59:51+02:00*%
%TF.ProjectId,GlowTower_LED_connector_PCB,476c6f77-546f-4776-9572-5f4c45445f63,rev?*%
%TF.SameCoordinates,Original*%
%TF.FileFunction,Copper,L2,Bot*%
%TF.FilePolarity,Positive*%
%FSLAX46Y46*%
G04 Gerber Fmt 4.6, Leading zero omitted, Abs format (unit mm)*
G04 Created by KiCad (PCBNEW (6.0.4-0)) date 2022-04-23 10:59:51*
%MOMM*%
%LPD*%
G01*
G04 APERTURE LIST*
G04 Aperture macros list*
%AMRotRect*
0 Rectangle, with rotation*
0 The origin of the aperture is its center*
0 $1 length*
0 $2 width*
0 $3 Rotation angle, in degrees counterclockwise*
0 Add horizontal line*
21,1,$1,$2,0,0,$3*%
G04 Aperture macros list end*
%TA.AperFunction,SMDPad,CuDef*%
%ADD10RotRect,1.600000X2.000000X225.000000*%
%TD*%
%TA.AperFunction,SMDPad,CuDef*%
%ADD11RotRect,2.000000X3.000000X225.000000*%
%TD*%
%TA.AperFunction,SMDPad,CuDef*%
%ADD12RotRect,1.600000X2.000000X45.000000*%
%TD*%
%TA.AperFunction,SMDPad,CuDef*%
%ADD13RotRect,2.000000X3.000000X45.000000*%
%TD*%
%TA.AperFunction,SMDPad,CuDef*%
%ADD14RotRect,1.600000X2.000000X135.000000*%
%TD*%
%TA.AperFunction,SMDPad,CuDef*%
%ADD15RotRect,2.000000X3.000000X135.000000*%
%TD*%
%TA.AperFunction,SMDPad,CuDef*%
%ADD16RotRect,1.600000X2.000000X315.000000*%
%TD*%
%TA.AperFunction,SMDPad,CuDef*%
%ADD17RotRect,2.000000X3.000000X315.000000*%
%TD*%
%TA.AperFunction,ViaPad*%
%ADD18C,0.800000*%
%TD*%
%TA.AperFunction,Conductor*%
%ADD19C,1.000000*%
%TD*%
G04 APERTURE END LIST*
D10*
%TO.P,U1,1,5V*%
%TO.N,BUTTON*%
X109459789Y-74567977D03*
D11*
%TO.P,U1,2,Data*%
%TO.N,GND*%
X108046094Y-76688778D03*
%TO.P,U1,3,GND*%
%TO.N,Net-(U1-Pad3)*%
X106137425Y-78597448D03*
D10*
%TO.P,U1,4,BUTTON*%
%TO.N,unconnected-(U1-Pad4)*%
X104016622Y-80011144D03*
%TD*%
D12*
%TO.P,U2,1,5V*%
%TO.N,unconnected-(U2-Pad1)*%
X93760211Y-69772023D03*
D13*
%TO.P,U2,2,Data*%
%TO.N,unconnected-(U2-Pad2)*%
X95173906Y-67651222D03*
%TO.P,U2,3,GND*%
%TO.N,Net-(U2-Pad3)*%
X97082575Y-65742552D03*
D12*
%TO.P,U2,4,BUTTON*%
%TO.N,unconnected-(U2-Pad4)*%
X99203378Y-64328856D03*
%TD*%
D14*
%TO.P,U3,1,5V*%
%TO.N,unconnected-(U3-Pad1)*%
X99212023Y-80039789D03*
D15*
%TO.P,U3,2,Data*%
%TO.N,Net-(U1-Pad3)*%
X97091222Y-78626094D03*
%TO.P,U3,3,GND*%
%TO.N,unconnected-(U3-Pad3)*%
X95182552Y-76717425D03*
D14*
%TO.P,U3,4,BUTTON*%
%TO.N,unconnected-(U3-Pad4)*%
X93768856Y-74596622D03*
%TD*%
D16*
%TO.P,U4,1,5V*%
%TO.N,unconnected-(U4-Pad1)*%
X103997977Y-64330211D03*
D17*
%TO.P,U4,2,Data*%
%TO.N,Net-(U2-Pad3)*%
X106118778Y-65743906D03*
%TO.P,U4,3,GND*%
%TO.N,unconnected-(U4-Pad3)*%
X108027448Y-67652575D03*
D16*
%TO.P,U4,4,BUTTON*%
%TO.N,unconnected-(U4-Pad4)*%
X109441144Y-69773378D03*
%TD*%
D18*
%TO.N,GND*%
X99940000Y-74620000D03*
%TO.N,BUTTON*%
X99870000Y-70130000D03*
%TD*%
D19*
%TO.N,GND*%
X105977316Y-74620000D02*
X99940000Y-74620000D01*
X107692541Y-76335225D02*
X105977316Y-74620000D01*
%TO.N,BUTTON*%
X105021812Y-70130000D02*
X99870000Y-70130000D01*
X109459789Y-74567977D02*
X105021812Y-70130000D01*
%TO.N,Net-(U2-Pad3)*%
X97436128Y-66096106D02*
X98700022Y-67360000D01*
X98700022Y-67360000D02*
X104502684Y-67360000D01*
X104502684Y-67360000D02*
X105765225Y-66097459D01*
%TO.N,Net-(U1-Pad3)*%
X105783872Y-78243894D02*
X104269978Y-76730000D01*
X104269978Y-76730000D02*
X98987316Y-76730000D01*
X98987316Y-76730000D02*
X97444775Y-78272541D01*
%TD*%
%TA.AperFunction,NonConductor*%
G36*
X101900117Y-62637931D02*
G01*
X102196276Y-62647239D01*
X102204176Y-62647736D01*
X102542299Y-62679698D01*
X102794165Y-62703506D01*
X102802000Y-62704496D01*
X103387330Y-62797203D01*
X103395090Y-62798684D01*
X103403465Y-62800555D01*
X103465581Y-62834936D01*
X103499249Y-62897441D01*
X103493780Y-62968227D01*
X103465073Y-63012616D01*
X102331585Y-64146104D01*
X102329445Y-64148766D01*
X102297341Y-64188694D01*
X102297339Y-64188697D01*
X102292392Y-64194850D01*
X102232105Y-64327446D01*
X102230833Y-64336329D01*
X102230832Y-64336332D01*
X102212923Y-64461388D01*
X102211456Y-64471632D01*
X102232105Y-64615818D01*
X102292392Y-64748414D01*
X102297339Y-64754567D01*
X102297341Y-64754570D01*
X102318129Y-64780424D01*
X102331585Y-64797160D01*
X103531028Y-65996603D01*
X103533690Y-65998743D01*
X103573618Y-66030847D01*
X103573621Y-66030849D01*
X103579774Y-66035796D01*
X103712370Y-66096083D01*
X103721255Y-66097356D01*
X103721257Y-66097356D01*
X103745118Y-66100773D01*
X103809715Y-66130230D01*
X103848131Y-66189935D01*
X103848171Y-66260932D01*
X103809820Y-66320679D01*
X103745256Y-66350208D01*
X103727255Y-66351500D01*
X99472825Y-66351500D01*
X99404704Y-66331498D01*
X99358211Y-66277842D01*
X99348106Y-66207582D01*
X99348278Y-66206381D01*
X99377766Y-66141799D01*
X99437489Y-66103410D01*
X99455134Y-66099576D01*
X99480098Y-66096001D01*
X99480100Y-66096000D01*
X99488985Y-66094728D01*
X99621581Y-66034441D01*
X99627734Y-66029494D01*
X99627737Y-66029492D01*
X99667665Y-65997388D01*
X99670327Y-65995248D01*
X100869770Y-64795805D01*
X100883226Y-64779069D01*
X100904014Y-64753215D01*
X100904016Y-64753212D01*
X100908963Y-64747059D01*
X100969250Y-64614463D01*
X100989899Y-64470277D01*
X100969250Y-64326091D01*
X100908963Y-64193495D01*
X100904016Y-64187342D01*
X100904014Y-64187339D01*
X100883226Y-64161485D01*
X100869770Y-64144749D01*
X99737142Y-63012121D01*
X99703116Y-62949809D01*
X99708181Y-62878994D01*
X99750728Y-62822158D01*
X99798749Y-62800061D01*
X99804900Y-62798686D01*
X99812670Y-62797203D01*
X100398000Y-62704496D01*
X100405835Y-62703506D01*
X100657701Y-62679698D01*
X100995824Y-62647736D01*
X101003724Y-62647239D01*
X101299883Y-62637931D01*
X101596054Y-62628624D01*
X101603946Y-62628624D01*
X101900117Y-62637931D01*
G37*
%TD.AperFunction*%
%TA.AperFunction,NonConductor*%
G36*
X97852753Y-67942340D02*
G01*
X97871700Y-67957913D01*
X97943171Y-68029384D01*
X97952273Y-68039527D01*
X97975990Y-68069025D01*
X97987955Y-68079065D01*
X98014443Y-68101291D01*
X98018091Y-68104472D01*
X98019903Y-68106115D01*
X98022097Y-68108309D01*
X98055371Y-68135642D01*
X98056169Y-68136304D01*
X98127496Y-68196154D01*
X98132166Y-68198722D01*
X98136283Y-68202103D01*
X98187375Y-68229498D01*
X98218108Y-68245977D01*
X98219267Y-68246606D01*
X98295403Y-68288462D01*
X98295411Y-68288465D01*
X98300809Y-68291433D01*
X98305891Y-68293045D01*
X98310585Y-68295562D01*
X98399553Y-68322762D01*
X98400581Y-68323082D01*
X98489328Y-68351235D01*
X98494624Y-68351829D01*
X98499720Y-68353387D01*
X98592279Y-68362790D01*
X98593415Y-68362911D01*
X98627030Y-68366681D01*
X98639752Y-68368108D01*
X98639756Y-68368108D01*
X98643249Y-68368500D01*
X98646776Y-68368500D01*
X98647761Y-68368555D01*
X98653441Y-68369002D01*
X98682847Y-68371989D01*
X98690359Y-68372752D01*
X98690361Y-68372752D01*
X98696484Y-68373374D01*
X98742130Y-68369059D01*
X98753989Y-68368500D01*
X104440841Y-68368500D01*
X104454448Y-68369237D01*
X104485946Y-68372659D01*
X104485951Y-68372659D01*
X104492072Y-68373324D01*
X104518322Y-68371027D01*
X104542072Y-68368950D01*
X104546898Y-68368621D01*
X104549370Y-68368500D01*
X104552453Y-68368500D01*
X104564422Y-68367326D01*
X104595190Y-68364310D01*
X104596503Y-68364188D01*
X104640768Y-68360315D01*
X104689097Y-68356087D01*
X104694216Y-68354600D01*
X104699517Y-68354080D01*
X104788518Y-68327209D01*
X104789651Y-68326874D01*
X104873098Y-68302630D01*
X104873102Y-68302628D01*
X104879020Y-68300909D01*
X104883752Y-68298456D01*
X104888853Y-68296916D01*
X104895857Y-68293192D01*
X104970944Y-68253269D01*
X104972110Y-68252657D01*
X105049137Y-68212729D01*
X105054610Y-68209892D01*
X105058773Y-68206569D01*
X105063480Y-68204066D01*
X105135602Y-68145245D01*
X105136458Y-68144554D01*
X105175657Y-68113262D01*
X105178161Y-68110758D01*
X105178879Y-68110116D01*
X105183212Y-68106415D01*
X105216746Y-68079065D01*
X105245975Y-68043733D01*
X105253957Y-68034963D01*
X105329653Y-67959267D01*
X105391965Y-67925241D01*
X105462780Y-67930306D01*
X105483306Y-67940335D01*
X105488443Y-67944465D01*
X105621038Y-68004753D01*
X105629923Y-68006025D01*
X105629925Y-68006026D01*
X105654889Y-68009601D01*
X105719486Y-68039058D01*
X105757903Y-68098763D01*
X105761753Y-68116465D01*
X105764911Y-68138511D01*
X105766601Y-68150315D01*
X105826889Y-68282910D01*
X105866081Y-68331656D01*
X107348367Y-69813942D01*
X107397113Y-69853134D01*
X107404307Y-69856405D01*
X107521530Y-69909704D01*
X107521532Y-69909705D01*
X107529708Y-69913422D01*
X107563560Y-69918270D01*
X107628157Y-69947727D01*
X107666574Y-70007432D01*
X107670424Y-70025134D01*
X107675272Y-70058985D01*
X107735559Y-70191581D01*
X107740506Y-70197734D01*
X107740508Y-70197737D01*
X107761296Y-70223591D01*
X107774752Y-70240327D01*
X108974195Y-71439770D01*
X108976857Y-71441910D01*
X109016785Y-71474014D01*
X109016788Y-71474016D01*
X109022941Y-71478963D01*
X109155537Y-71539250D01*
X109164420Y-71540522D01*
X109164423Y-71540523D01*
X109290834Y-71558626D01*
X109299723Y-71559899D01*
X109308612Y-71558626D01*
X109435023Y-71540523D01*
X109435026Y-71540522D01*
X109443909Y-71539250D01*
X109576505Y-71478963D01*
X109582658Y-71474016D01*
X109582661Y-71474014D01*
X109622589Y-71441910D01*
X109625251Y-71439770D01*
X110769181Y-70295840D01*
X110831493Y-70261814D01*
X110902308Y-70266879D01*
X110959144Y-70309426D01*
X110981241Y-70357446D01*
X110989124Y-70392709D01*
X110990607Y-70400480D01*
X111080672Y-70969125D01*
X111083313Y-70985801D01*
X111084304Y-70993645D01*
X111101485Y-71175405D01*
X111140074Y-71583634D01*
X111140571Y-71591534D01*
X111159186Y-72183852D01*
X111159186Y-72191768D01*
X111140571Y-72784086D01*
X111140074Y-72791986D01*
X111084305Y-73381966D01*
X111083313Y-73389819D01*
X110991943Y-73966704D01*
X110961530Y-74030857D01*
X110901262Y-74068384D01*
X110830273Y-74067370D01*
X110778399Y-74036088D01*
X109643896Y-72901585D01*
X109626712Y-72887769D01*
X109601306Y-72867341D01*
X109601303Y-72867339D01*
X109595150Y-72862392D01*
X109499698Y-72818993D01*
X109470723Y-72805819D01*
X109470722Y-72805819D01*
X109462554Y-72802105D01*
X109453671Y-72800833D01*
X109453668Y-72800832D01*
X109327257Y-72782729D01*
X109318368Y-72781456D01*
X109189309Y-72799939D01*
X109119042Y-72789797D01*
X109082353Y-72764307D01*
X105778667Y-69460621D01*
X105769565Y-69450478D01*
X105749709Y-69425782D01*
X105745844Y-69420975D01*
X105707390Y-69388708D01*
X105703743Y-69385528D01*
X105701931Y-69383885D01*
X105699737Y-69381691D01*
X105666463Y-69354358D01*
X105665665Y-69353696D01*
X105594338Y-69293846D01*
X105589668Y-69291278D01*
X105585551Y-69287897D01*
X105503726Y-69244023D01*
X105502567Y-69243394D01*
X105426431Y-69201538D01*
X105426423Y-69201535D01*
X105421025Y-69198567D01*
X105415943Y-69196955D01*
X105411249Y-69194438D01*
X105322281Y-69167238D01*
X105321253Y-69166918D01*
X105232506Y-69138765D01*
X105227210Y-69138171D01*
X105222114Y-69136613D01*
X105129555Y-69127210D01*
X105128419Y-69127089D01*
X105094804Y-69123319D01*
X105082082Y-69121892D01*
X105082078Y-69121892D01*
X105078585Y-69121500D01*
X105075058Y-69121500D01*
X105074073Y-69121445D01*
X105068393Y-69120998D01*
X105038987Y-69118011D01*
X105031475Y-69117248D01*
X105031473Y-69117248D01*
X105025350Y-69116626D01*
X104983071Y-69120623D01*
X104979703Y-69120941D01*
X104967845Y-69121500D01*
X99820231Y-69121500D01*
X99817175Y-69121800D01*
X99817168Y-69121800D01*
X99761915Y-69127218D01*
X99673167Y-69135920D01*
X99667266Y-69137702D01*
X99667264Y-69137702D01*
X99593947Y-69159838D01*
X99483831Y-69193084D01*
X99309204Y-69285934D01*
X99226174Y-69353652D01*
X99160713Y-69407040D01*
X99160710Y-69407043D01*
X99155938Y-69410935D01*
X99152011Y-69415682D01*
X99152009Y-69415684D01*
X99033799Y-69558575D01*
X99033797Y-69558579D01*
X99029870Y-69563325D01*
X98935802Y-69737299D01*
X98877318Y-69926232D01*
X98876674Y-69932357D01*
X98876674Y-69932358D01*
X98864442Y-70048744D01*
X98856645Y-70122925D01*
X98862116Y-70183038D01*
X98872134Y-70293116D01*
X98874570Y-70319888D01*
X98876308Y-70325794D01*
X98876309Y-70325798D01*
X98898291Y-70400487D01*
X98930410Y-70509619D01*
X99022040Y-70684890D01*
X99145968Y-70839025D01*
X99297474Y-70966154D01*
X99302872Y-70969121D01*
X99302877Y-70969125D01*
X99446180Y-71047905D01*
X99470787Y-71061433D01*
X99476654Y-71063294D01*
X99476656Y-71063295D01*
X99653436Y-71119373D01*
X99659306Y-71121235D01*
X99813227Y-71138500D01*
X104551887Y-71138500D01*
X104620008Y-71158502D01*
X104640982Y-71175405D01*
X107656118Y-74190540D01*
X107690144Y-74252852D01*
X107691750Y-74297498D01*
X107688995Y-74316735D01*
X107659538Y-74381332D01*
X107599833Y-74419748D01*
X107582131Y-74423599D01*
X107557381Y-74427144D01*
X107540327Y-74432130D01*
X107423219Y-74485375D01*
X107409875Y-74493593D01*
X107369986Y-74525664D01*
X107364927Y-74530204D01*
X106818637Y-75076495D01*
X106811026Y-75090433D01*
X106811158Y-75092269D01*
X106815407Y-75098881D01*
X108316209Y-76599683D01*
X108350235Y-76661995D01*
X108345170Y-76732810D01*
X108316209Y-76777873D01*
X108135189Y-76958893D01*
X108072877Y-76992919D01*
X108002062Y-76987854D01*
X107956999Y-76958893D01*
X106459431Y-75461325D01*
X106445487Y-75453711D01*
X106443654Y-75453842D01*
X106437039Y-75458093D01*
X105887534Y-76007598D01*
X105882973Y-76012681D01*
X105850912Y-76052555D01*
X105842689Y-76065908D01*
X105789446Y-76183011D01*
X105784460Y-76200065D01*
X105780915Y-76224815D01*
X105751458Y-76289412D01*
X105691753Y-76327829D01*
X105674053Y-76331679D01*
X105662004Y-76333405D01*
X105648572Y-76335328D01*
X105648570Y-76335329D01*
X105639685Y-76336601D01*
X105631510Y-76340318D01*
X105514283Y-76393618D01*
X105514280Y-76393620D01*
X105507090Y-76396889D01*
X105502565Y-76400527D01*
X105434967Y-76418969D01*
X105367244Y-76397658D01*
X105348299Y-76382087D01*
X105026833Y-76060621D01*
X105017731Y-76050478D01*
X104997875Y-76025782D01*
X104994010Y-76020975D01*
X104955556Y-75988708D01*
X104951909Y-75985528D01*
X104950097Y-75983885D01*
X104947903Y-75981691D01*
X104914629Y-75954358D01*
X104913831Y-75953696D01*
X104842504Y-75893846D01*
X104837834Y-75891278D01*
X104833717Y-75887897D01*
X104751892Y-75844023D01*
X104750733Y-75843394D01*
X104674597Y-75801538D01*
X104674589Y-75801535D01*
X104669191Y-75798567D01*
X104664109Y-75796955D01*
X104659415Y-75794438D01*
X104570447Y-75767238D01*
X104569419Y-75766918D01*
X104480672Y-75738765D01*
X104475376Y-75738171D01*
X104470280Y-75736613D01*
X104377721Y-75727210D01*
X104376585Y-75727089D01*
X104342970Y-75723319D01*
X104330248Y-75721892D01*
X104330244Y-75721892D01*
X104326751Y-75721500D01*
X104323224Y-75721500D01*
X104322239Y-75721445D01*
X104316559Y-75720998D01*
X104287153Y-75718011D01*
X104279641Y-75717248D01*
X104279639Y-75717248D01*
X104273516Y-75716626D01*
X104231237Y-75720623D01*
X104227869Y-75720941D01*
X104216011Y-75721500D01*
X99049156Y-75721500D01*
X99035548Y-75720763D01*
X99004052Y-75717341D01*
X99004048Y-75717341D01*
X98997927Y-75716676D01*
X98979927Y-75718251D01*
X98947925Y-75721050D01*
X98943100Y-75721379D01*
X98940629Y-75721500D01*
X98937547Y-75721500D01*
X98915079Y-75723703D01*
X98894805Y-75725691D01*
X98893490Y-75725813D01*
X98861229Y-75728636D01*
X98800903Y-75733913D01*
X98795784Y-75735400D01*
X98790483Y-75735920D01*
X98784578Y-75737703D01*
X98784577Y-75737703D01*
X98765223Y-75743546D01*
X98701510Y-75762782D01*
X98700370Y-75763120D01*
X98610979Y-75789091D01*
X98606245Y-75791545D01*
X98601147Y-75793084D01*
X98595703Y-75795978D01*
X98595702Y-75795979D01*
X98519147Y-75836684D01*
X98517979Y-75837298D01*
X98435390Y-75880108D01*
X98431227Y-75883431D01*
X98426520Y-75885934D01*
X98421746Y-75889828D01*
X98421744Y-75889829D01*
X98354421Y-75944737D01*
X98353476Y-75945500D01*
X98314343Y-75976739D01*
X98311852Y-75979230D01*
X98311125Y-75979880D01*
X98306779Y-75983592D01*
X98287904Y-75998987D01*
X98273254Y-76010935D01*
X98269331Y-76015677D01*
X98269329Y-76015679D01*
X98244019Y-76046273D01*
X98236029Y-76055053D01*
X97880348Y-76410734D01*
X97818036Y-76444760D01*
X97747221Y-76439695D01*
X97726694Y-76429665D01*
X97721557Y-76425535D01*
X97588962Y-76365247D01*
X97580077Y-76363975D01*
X97580075Y-76363974D01*
X97555111Y-76360399D01*
X97490514Y-76330942D01*
X97452097Y-76271237D01*
X97448247Y-76253535D01*
X97444672Y-76228572D01*
X97444671Y-76228570D01*
X97443399Y-76219685D01*
X97383111Y-76087090D01*
X97343919Y-76038344D01*
X95861633Y-74556058D01*
X95812887Y-74516866D01*
X95805693Y-74513595D01*
X95688470Y-74460296D01*
X95688468Y-74460295D01*
X95680292Y-74456578D01*
X95646440Y-74451730D01*
X95581843Y-74422273D01*
X95543426Y-74362568D01*
X95539576Y-74344866D01*
X95536001Y-74319902D01*
X95536000Y-74319900D01*
X95534728Y-74311015D01*
X95474441Y-74178419D01*
X95469494Y-74172266D01*
X95469492Y-74172263D01*
X95437388Y-74132335D01*
X95435248Y-74129673D01*
X94235805Y-72930230D01*
X94203183Y-72904001D01*
X94193215Y-72895986D01*
X94193212Y-72895984D01*
X94187059Y-72891037D01*
X94054463Y-72830750D01*
X94045580Y-72829478D01*
X94045577Y-72829477D01*
X93919166Y-72811374D01*
X93910277Y-72810101D01*
X93901388Y-72811374D01*
X93774977Y-72829477D01*
X93774974Y-72829478D01*
X93766091Y-72830750D01*
X93633495Y-72891037D01*
X93627342Y-72895984D01*
X93627339Y-72895986D01*
X93617371Y-72904001D01*
X93584749Y-72930230D01*
X92431619Y-74083360D01*
X92369307Y-74117386D01*
X92298492Y-74112321D01*
X92241656Y-74069774D01*
X92219559Y-74021753D01*
X92210876Y-73982910D01*
X92209392Y-73975133D01*
X92116687Y-73389819D01*
X92115695Y-73381966D01*
X92059926Y-72791986D01*
X92059429Y-72784086D01*
X92040814Y-72191768D01*
X92040814Y-72183852D01*
X92059429Y-71591534D01*
X92059926Y-71583634D01*
X92098515Y-71175405D01*
X92115696Y-70993645D01*
X92116687Y-70985801D01*
X92119329Y-70969125D01*
X92209393Y-70400480D01*
X92210876Y-70392710D01*
X92219254Y-70355232D01*
X92253635Y-70293116D01*
X92316142Y-70259448D01*
X92386927Y-70264919D01*
X92431314Y-70293625D01*
X93576104Y-71438415D01*
X93578766Y-71440555D01*
X93618694Y-71472659D01*
X93618697Y-71472661D01*
X93624850Y-71477608D01*
X93757446Y-71537895D01*
X93766329Y-71539167D01*
X93766332Y-71539168D01*
X93892743Y-71557271D01*
X93901632Y-71558544D01*
X93910521Y-71557271D01*
X94036932Y-71539168D01*
X94036935Y-71539167D01*
X94045818Y-71537895D01*
X94178414Y-71477608D01*
X94184567Y-71472661D01*
X94184570Y-71472659D01*
X94224498Y-71440555D01*
X94227160Y-71438415D01*
X95426603Y-70238972D01*
X95440059Y-70222236D01*
X95460847Y-70196382D01*
X95460849Y-70196379D01*
X95465796Y-70190226D01*
X95526083Y-70057630D01*
X95530931Y-70023780D01*
X95560389Y-69959183D01*
X95620094Y-69920767D01*
X95637795Y-69916917D01*
X95662759Y-69913342D01*
X95662761Y-69913341D01*
X95671646Y-69912069D01*
X95804241Y-69851781D01*
X95852987Y-69812589D01*
X97335273Y-68330303D01*
X97374465Y-68281557D01*
X97407000Y-68210001D01*
X97431037Y-68157135D01*
X97431037Y-68157134D01*
X97434753Y-68148962D01*
X97436560Y-68136348D01*
X97439601Y-68115111D01*
X97469058Y-68050514D01*
X97528763Y-68012097D01*
X97546465Y-68008247D01*
X97571428Y-68004672D01*
X97571430Y-68004671D01*
X97580315Y-68003399D01*
X97712910Y-67943111D01*
X97717433Y-67939474D01*
X97785029Y-67921031D01*
X97852753Y-67942340D01*
G37*
%TD.AperFunction*%
%TA.AperFunction,NonConductor*%
G36*
X103868174Y-77758502D02*
G01*
X103889148Y-77775405D01*
X103922065Y-77808322D01*
X103956091Y-77870634D01*
X103951026Y-77941449D01*
X103940996Y-77961976D01*
X103936866Y-77967113D01*
X103876578Y-78099708D01*
X103875305Y-78108600D01*
X103871730Y-78133560D01*
X103842273Y-78198157D01*
X103782568Y-78236574D01*
X103764866Y-78240424D01*
X103739902Y-78243999D01*
X103739900Y-78244000D01*
X103731015Y-78245272D01*
X103598419Y-78305559D01*
X103592266Y-78310506D01*
X103592263Y-78310508D01*
X103566857Y-78330936D01*
X103549673Y-78344752D01*
X102350230Y-79544195D01*
X102348090Y-79546857D01*
X102315986Y-79586785D01*
X102315984Y-79586788D01*
X102311037Y-79592941D01*
X102250750Y-79725537D01*
X102249478Y-79734420D01*
X102249477Y-79734423D01*
X102245375Y-79763068D01*
X102230101Y-79869723D01*
X102250750Y-80013909D01*
X102311037Y-80146505D01*
X102315984Y-80152658D01*
X102315986Y-80152661D01*
X102328289Y-80167962D01*
X102350230Y-80195251D01*
X103508317Y-81353338D01*
X103542343Y-81415650D01*
X103537278Y-81486465D01*
X103494731Y-81543301D01*
X103446710Y-81565398D01*
X103395090Y-81576936D01*
X103387330Y-81578417D01*
X102802000Y-81671124D01*
X102794165Y-81672114D01*
X102542298Y-81695922D01*
X102204176Y-81727884D01*
X102196276Y-81728381D01*
X101900117Y-81737689D01*
X101603946Y-81746996D01*
X101596054Y-81746996D01*
X101299883Y-81737689D01*
X101003724Y-81728381D01*
X100995824Y-81727884D01*
X100657702Y-81695922D01*
X100405835Y-81672114D01*
X100398000Y-81671124D01*
X99812670Y-81578417D01*
X99804897Y-81576933D01*
X99800111Y-81575863D01*
X99737996Y-81541480D01*
X99704329Y-81478974D01*
X99709802Y-81408188D01*
X99738507Y-81363804D01*
X100878415Y-80223896D01*
X100899504Y-80197667D01*
X100912659Y-80181306D01*
X100912661Y-80181303D01*
X100917608Y-80175150D01*
X100977895Y-80042554D01*
X100980828Y-80022078D01*
X100997271Y-79907257D01*
X100998544Y-79898368D01*
X100977895Y-79754182D01*
X100917608Y-79621586D01*
X100912661Y-79615433D01*
X100912659Y-79615430D01*
X100880555Y-79575502D01*
X100878415Y-79572840D01*
X99678972Y-78373397D01*
X99646350Y-78347168D01*
X99636382Y-78339153D01*
X99636379Y-78339151D01*
X99630226Y-78334204D01*
X99497630Y-78273917D01*
X99488747Y-78272645D01*
X99488744Y-78272644D01*
X99463780Y-78269069D01*
X99399183Y-78239611D01*
X99360767Y-78179906D01*
X99356917Y-78162205D01*
X99353342Y-78137241D01*
X99353341Y-78137239D01*
X99352069Y-78128354D01*
X99291781Y-77995759D01*
X99288144Y-77991236D01*
X99269700Y-77923641D01*
X99291008Y-77855917D01*
X99306582Y-77836968D01*
X99368145Y-77775405D01*
X99430457Y-77741379D01*
X99457240Y-77738500D01*
X103800053Y-77738500D01*
X103868174Y-77758502D01*
G37*
%TD.AperFunction*%
M02*
