%TF.GenerationSoftware,KiCad,Pcbnew,(6.0.0-0)*%
%TF.CreationDate,2022-03-11T11:56:05+01:00*%
%TF.ProjectId,GlowTower_LED_connector_PCB,476c6f77-546f-4776-9572-5f4c45445f63,rev?*%
%TF.SameCoordinates,Original*%
%TF.FileFunction,Legend,Bot*%
%TF.FilePolarity,Positive*%
%FSLAX46Y46*%
G04 Gerber Fmt 4.6, Leading zero omitted, Abs format (unit mm)*
G04 Created by KiCad (PCBNEW (6.0.0-0)) date 2022-03-11 11:56:05*
%MOMM*%
%LPD*%
G01*
G04 APERTURE LIST*
%ADD10C,0.734422*%
G04 APERTURE END LIST*
D10*
X111187411Y-72146976D02*
G75*
G03*
X111187411Y-72146976I-367211J0D01*
G01*
%TO.C,leddirectionarrow4*%
G36*
X108997347Y-78994309D02*
G01*
X109011379Y-78997497D01*
X109029757Y-79003444D01*
X109396696Y-79370383D01*
X109432232Y-79405924D01*
X109482140Y-79455851D01*
X109526985Y-79500704D01*
X109567057Y-79540748D01*
X109602644Y-79576247D01*
X109634034Y-79607465D01*
X109661518Y-79634665D01*
X109685383Y-79658110D01*
X109705919Y-79678064D01*
X109723413Y-79694793D01*
X109738155Y-79708558D01*
X109750434Y-79719624D01*
X109760538Y-79728254D01*
X109768756Y-79734711D01*
X109775377Y-79739261D01*
X109780690Y-79742167D01*
X109784983Y-79743691D01*
X109788546Y-79744099D01*
X109791667Y-79743653D01*
X109794634Y-79742617D01*
X109797737Y-79741256D01*
X109801264Y-79739832D01*
X109804984Y-79738202D01*
X109809643Y-79735373D01*
X109815582Y-79730918D01*
X109823327Y-79724346D01*
X109833404Y-79715165D01*
X109846339Y-79702884D01*
X109862660Y-79687012D01*
X109882893Y-79667056D01*
X109907564Y-79642525D01*
X109937201Y-79612928D01*
X109938249Y-79611880D01*
X109968690Y-79581460D01*
X109994187Y-79556100D01*
X110015302Y-79535353D01*
X110032595Y-79518767D01*
X110046628Y-79505892D01*
X110057965Y-79496280D01*
X110067163Y-79489480D01*
X110074789Y-79485040D01*
X110081401Y-79482515D01*
X110087562Y-79481451D01*
X110093833Y-79481399D01*
X110100776Y-79481911D01*
X110113552Y-79484450D01*
X110132441Y-79494405D01*
X110148139Y-79511101D01*
X110148182Y-79511164D01*
X110149374Y-79513544D01*
X110150453Y-79517257D01*
X110151421Y-79522685D01*
X110152288Y-79530207D01*
X110153059Y-79540205D01*
X110153739Y-79553062D01*
X110154335Y-79569157D01*
X110154853Y-79588872D01*
X110155299Y-79612588D01*
X110155679Y-79640686D01*
X110156000Y-79673548D01*
X110156267Y-79711554D01*
X110156486Y-79755087D01*
X110156663Y-79804525D01*
X110156805Y-79860253D01*
X110156919Y-79922650D01*
X110157010Y-79992098D01*
X110157083Y-80068977D01*
X110157104Y-80114457D01*
X110157082Y-80177954D01*
X110156999Y-80239105D01*
X110156858Y-80297456D01*
X110156663Y-80352551D01*
X110156416Y-80403933D01*
X110156122Y-80451147D01*
X110155784Y-80493738D01*
X110155405Y-80531250D01*
X110154987Y-80563227D01*
X110154537Y-80589214D01*
X110154054Y-80608755D01*
X110153545Y-80621393D01*
X110153010Y-80626676D01*
X110149046Y-80635048D01*
X110135713Y-80651154D01*
X110117814Y-80662095D01*
X110117522Y-80662184D01*
X110110972Y-80662831D01*
X110097022Y-80663438D01*
X110076035Y-80664004D01*
X110048378Y-80664523D01*
X110014413Y-80664995D01*
X109974506Y-80665414D01*
X109929023Y-80665780D01*
X109878325Y-80666088D01*
X109822780Y-80666336D01*
X109762751Y-80666520D01*
X109698602Y-80666637D01*
X109630700Y-80666686D01*
X109559406Y-80666662D01*
X109487911Y-80666608D01*
X109417669Y-80666560D01*
X109354496Y-80666501D01*
X109298002Y-80666414D01*
X109247800Y-80666277D01*
X109203503Y-80666074D01*
X109164723Y-80665783D01*
X109131072Y-80665386D01*
X109102163Y-80664864D01*
X109077609Y-80664195D01*
X109057021Y-80663364D01*
X109040013Y-80662348D01*
X109026195Y-80661129D01*
X109015183Y-80659688D01*
X109006586Y-80658005D01*
X109000018Y-80656062D01*
X108995091Y-80653839D01*
X108991418Y-80651315D01*
X108988611Y-80648472D01*
X108986283Y-80645292D01*
X108984045Y-80641753D01*
X108981511Y-80637838D01*
X108980276Y-80635887D01*
X108974355Y-80620551D01*
X108971914Y-80602605D01*
X108973576Y-80586096D01*
X108975806Y-80582131D01*
X108981432Y-80574951D01*
X108990751Y-80564261D01*
X109004073Y-80549730D01*
X109021707Y-80531025D01*
X109043962Y-80507816D01*
X109071148Y-80479771D01*
X109103573Y-80446556D01*
X109114751Y-80435134D01*
X109142640Y-80406608D01*
X109165683Y-80382959D01*
X109184345Y-80363669D01*
X109199093Y-80348228D01*
X109210389Y-80336118D01*
X109218699Y-80326826D01*
X109224486Y-80319836D01*
X109228217Y-80314633D01*
X109230355Y-80310704D01*
X109231364Y-80307533D01*
X109231710Y-80304606D01*
X109231730Y-80304282D01*
X109232003Y-80300720D01*
X109232171Y-80297433D01*
X109231966Y-80294132D01*
X109231117Y-80290527D01*
X109229351Y-80286326D01*
X109226399Y-80281240D01*
X109221990Y-80274977D01*
X109215853Y-80267248D01*
X109207720Y-80257762D01*
X109197316Y-80246228D01*
X109184372Y-80232357D01*
X109168619Y-80215858D01*
X109149785Y-80196440D01*
X109127599Y-80173813D01*
X109101791Y-80147686D01*
X109072089Y-80117771D01*
X109038224Y-80083775D01*
X108999926Y-80045407D01*
X108956922Y-80002379D01*
X108908943Y-79954400D01*
X108855716Y-79901179D01*
X108489308Y-79534770D01*
X108484749Y-79518511D01*
X108484139Y-79515993D01*
X108482895Y-79500634D01*
X108484784Y-79485866D01*
X108489379Y-79469481D01*
X108727705Y-79232626D01*
X108764652Y-79195909D01*
X108801907Y-79158906D01*
X108834305Y-79126761D01*
X108862212Y-79099131D01*
X108885992Y-79075668D01*
X108906011Y-79056027D01*
X108922632Y-79039861D01*
X108936222Y-79026823D01*
X108947142Y-79016570D01*
X108955760Y-79008754D01*
X108962439Y-79003028D01*
X108967544Y-78999048D01*
X108971439Y-78996468D01*
X108974490Y-78994940D01*
X108977060Y-78994119D01*
X108979515Y-78993660D01*
X108983748Y-78993314D01*
X108997347Y-78994309D01*
G37*
%TO.C,leddirectionarrow3*%
G36*
X94256496Y-79354801D02*
G01*
X94317647Y-79354884D01*
X94375998Y-79355025D01*
X94431093Y-79355220D01*
X94482475Y-79355467D01*
X94529689Y-79355761D01*
X94572280Y-79356099D01*
X94609792Y-79356478D01*
X94641769Y-79356896D01*
X94667756Y-79357346D01*
X94687297Y-79357829D01*
X94699935Y-79358338D01*
X94705218Y-79358873D01*
X94713590Y-79362837D01*
X94729696Y-79376170D01*
X94740637Y-79394069D01*
X94740726Y-79394361D01*
X94741373Y-79400911D01*
X94741980Y-79414861D01*
X94742546Y-79435848D01*
X94743065Y-79463505D01*
X94743537Y-79497470D01*
X94743956Y-79537377D01*
X94744322Y-79582860D01*
X94744630Y-79633558D01*
X94744878Y-79689103D01*
X94745062Y-79749132D01*
X94745179Y-79813281D01*
X94745228Y-79881183D01*
X94745204Y-79952477D01*
X94745150Y-80023972D01*
X94745102Y-80094214D01*
X94745043Y-80157387D01*
X94744956Y-80213881D01*
X94744819Y-80264083D01*
X94744616Y-80308380D01*
X94744325Y-80347160D01*
X94743928Y-80380811D01*
X94743406Y-80409720D01*
X94742737Y-80434274D01*
X94741906Y-80454862D01*
X94740890Y-80471870D01*
X94739671Y-80485688D01*
X94738230Y-80496700D01*
X94736547Y-80505297D01*
X94734604Y-80511865D01*
X94732381Y-80516792D01*
X94729857Y-80520465D01*
X94727014Y-80523272D01*
X94723834Y-80525600D01*
X94720295Y-80527838D01*
X94716380Y-80530372D01*
X94714429Y-80531607D01*
X94699093Y-80537528D01*
X94681147Y-80539969D01*
X94664638Y-80538307D01*
X94660673Y-80536077D01*
X94653493Y-80530451D01*
X94642803Y-80521132D01*
X94628272Y-80507810D01*
X94609567Y-80490176D01*
X94586358Y-80467921D01*
X94558313Y-80440735D01*
X94525098Y-80408310D01*
X94513676Y-80397132D01*
X94485150Y-80369243D01*
X94461501Y-80346200D01*
X94442211Y-80327538D01*
X94426770Y-80312790D01*
X94414660Y-80301494D01*
X94405368Y-80293184D01*
X94398378Y-80287397D01*
X94393175Y-80283666D01*
X94389246Y-80281528D01*
X94386075Y-80280519D01*
X94383148Y-80280173D01*
X94382824Y-80280153D01*
X94379262Y-80279880D01*
X94375975Y-80279712D01*
X94372674Y-80279917D01*
X94369069Y-80280766D01*
X94364868Y-80282532D01*
X94359782Y-80285484D01*
X94353519Y-80289893D01*
X94345790Y-80296030D01*
X94336304Y-80304163D01*
X94324770Y-80314567D01*
X94310899Y-80327511D01*
X94294400Y-80343264D01*
X94274982Y-80362098D01*
X94252355Y-80384284D01*
X94226228Y-80410092D01*
X94196313Y-80439794D01*
X94162317Y-80473659D01*
X94123949Y-80511957D01*
X94080921Y-80554961D01*
X94032942Y-80602940D01*
X93979721Y-80656167D01*
X93613312Y-81022575D01*
X93597053Y-81027134D01*
X93594535Y-81027744D01*
X93579176Y-81028988D01*
X93564408Y-81027099D01*
X93548023Y-81022504D01*
X93311168Y-80784178D01*
X93274451Y-80747231D01*
X93237448Y-80709976D01*
X93205303Y-80677578D01*
X93177673Y-80649671D01*
X93154210Y-80625891D01*
X93134569Y-80605872D01*
X93118403Y-80589251D01*
X93105365Y-80575661D01*
X93095112Y-80564741D01*
X93087296Y-80556123D01*
X93081570Y-80549444D01*
X93077590Y-80544339D01*
X93075010Y-80540444D01*
X93073482Y-80537393D01*
X93072661Y-80534823D01*
X93072202Y-80532368D01*
X93071856Y-80528135D01*
X93072851Y-80514536D01*
X93076039Y-80500504D01*
X93081986Y-80482126D01*
X93448925Y-80115187D01*
X93484466Y-80079651D01*
X93534393Y-80029743D01*
X93579246Y-79984898D01*
X93619290Y-79944826D01*
X93654789Y-79909239D01*
X93686007Y-79877849D01*
X93713207Y-79850365D01*
X93736652Y-79826500D01*
X93756606Y-79805964D01*
X93773335Y-79788470D01*
X93787100Y-79773728D01*
X93798166Y-79761449D01*
X93806796Y-79751345D01*
X93813253Y-79743127D01*
X93817803Y-79736506D01*
X93820709Y-79731193D01*
X93822233Y-79726900D01*
X93822641Y-79723337D01*
X93822195Y-79720216D01*
X93821159Y-79717249D01*
X93819798Y-79714146D01*
X93818374Y-79710619D01*
X93816744Y-79706899D01*
X93813915Y-79702240D01*
X93809460Y-79696301D01*
X93802888Y-79688556D01*
X93793707Y-79678479D01*
X93781426Y-79665544D01*
X93765554Y-79649223D01*
X93745598Y-79628990D01*
X93721067Y-79604319D01*
X93691470Y-79574682D01*
X93690422Y-79573634D01*
X93660002Y-79543193D01*
X93634642Y-79517696D01*
X93613895Y-79496581D01*
X93597309Y-79479288D01*
X93584434Y-79465255D01*
X93574822Y-79453918D01*
X93568022Y-79444720D01*
X93563582Y-79437094D01*
X93561057Y-79430482D01*
X93559993Y-79424321D01*
X93559941Y-79418050D01*
X93560453Y-79411107D01*
X93562992Y-79398331D01*
X93572947Y-79379442D01*
X93589643Y-79363744D01*
X93589706Y-79363701D01*
X93592086Y-79362509D01*
X93595799Y-79361430D01*
X93601227Y-79360462D01*
X93608749Y-79359595D01*
X93618747Y-79358824D01*
X93631604Y-79358144D01*
X93647699Y-79357548D01*
X93667414Y-79357030D01*
X93691130Y-79356584D01*
X93719228Y-79356204D01*
X93752090Y-79355883D01*
X93790096Y-79355616D01*
X93833629Y-79355397D01*
X93883067Y-79355220D01*
X93938795Y-79355078D01*
X94001192Y-79354964D01*
X94070640Y-79354873D01*
X94147519Y-79354800D01*
X94192999Y-79354779D01*
X94256496Y-79354801D01*
G37*
%TO.C,leddirectionarrow2*%
G36*
X93732477Y-63764796D02*
G01*
X93803972Y-63764850D01*
X93874214Y-63764898D01*
X93937387Y-63764957D01*
X93993881Y-63765044D01*
X94044083Y-63765181D01*
X94088380Y-63765384D01*
X94127160Y-63765675D01*
X94160811Y-63766072D01*
X94189720Y-63766594D01*
X94214274Y-63767263D01*
X94234862Y-63768094D01*
X94251870Y-63769110D01*
X94265688Y-63770329D01*
X94276700Y-63771770D01*
X94285297Y-63773453D01*
X94291865Y-63775396D01*
X94296792Y-63777619D01*
X94300465Y-63780143D01*
X94303272Y-63782986D01*
X94305600Y-63786166D01*
X94307838Y-63789705D01*
X94310372Y-63793620D01*
X94311607Y-63795571D01*
X94317528Y-63810907D01*
X94319969Y-63828853D01*
X94318307Y-63845362D01*
X94316077Y-63849327D01*
X94310451Y-63856507D01*
X94301132Y-63867197D01*
X94287810Y-63881728D01*
X94270176Y-63900433D01*
X94247921Y-63923642D01*
X94220735Y-63951687D01*
X94188310Y-63984902D01*
X94177132Y-63996324D01*
X94149243Y-64024850D01*
X94126200Y-64048499D01*
X94107538Y-64067789D01*
X94092790Y-64083230D01*
X94081494Y-64095340D01*
X94073184Y-64104632D01*
X94067397Y-64111622D01*
X94063666Y-64116825D01*
X94061528Y-64120754D01*
X94060519Y-64123925D01*
X94060173Y-64126852D01*
X94060153Y-64127176D01*
X94059880Y-64130738D01*
X94059712Y-64134025D01*
X94059917Y-64137326D01*
X94060766Y-64140931D01*
X94062532Y-64145132D01*
X94065484Y-64150218D01*
X94069893Y-64156481D01*
X94076030Y-64164210D01*
X94084163Y-64173696D01*
X94094567Y-64185230D01*
X94107511Y-64199101D01*
X94123264Y-64215600D01*
X94142098Y-64235018D01*
X94164284Y-64257645D01*
X94190092Y-64283772D01*
X94219794Y-64313687D01*
X94253659Y-64347683D01*
X94291957Y-64386051D01*
X94334961Y-64429079D01*
X94382940Y-64477058D01*
X94436167Y-64530279D01*
X94802575Y-64896688D01*
X94807134Y-64912947D01*
X94807744Y-64915465D01*
X94808988Y-64930824D01*
X94807099Y-64945592D01*
X94802504Y-64961977D01*
X94564178Y-65198832D01*
X94527231Y-65235549D01*
X94489976Y-65272552D01*
X94457578Y-65304697D01*
X94429671Y-65332327D01*
X94405891Y-65355790D01*
X94385872Y-65375431D01*
X94369251Y-65391597D01*
X94355661Y-65404635D01*
X94344741Y-65414888D01*
X94336123Y-65422704D01*
X94329444Y-65428430D01*
X94324339Y-65432410D01*
X94320444Y-65434990D01*
X94317393Y-65436518D01*
X94314823Y-65437339D01*
X94312368Y-65437798D01*
X94308135Y-65438144D01*
X94294536Y-65437149D01*
X94280504Y-65433961D01*
X94262126Y-65428014D01*
X93895187Y-65061075D01*
X93859651Y-65025534D01*
X93809743Y-64975607D01*
X93764898Y-64930754D01*
X93724826Y-64890710D01*
X93689239Y-64855211D01*
X93657849Y-64823993D01*
X93630365Y-64796793D01*
X93606500Y-64773348D01*
X93585964Y-64753394D01*
X93568470Y-64736665D01*
X93553728Y-64722900D01*
X93541449Y-64711834D01*
X93531345Y-64703204D01*
X93523127Y-64696747D01*
X93516506Y-64692197D01*
X93511193Y-64689291D01*
X93506900Y-64687767D01*
X93503337Y-64687359D01*
X93500216Y-64687805D01*
X93497249Y-64688841D01*
X93494146Y-64690202D01*
X93490619Y-64691626D01*
X93486899Y-64693256D01*
X93482240Y-64696085D01*
X93476301Y-64700540D01*
X93468556Y-64707112D01*
X93458479Y-64716293D01*
X93445544Y-64728574D01*
X93429223Y-64744446D01*
X93408990Y-64764402D01*
X93384319Y-64788933D01*
X93354682Y-64818530D01*
X93353634Y-64819578D01*
X93323193Y-64849998D01*
X93297696Y-64875358D01*
X93276581Y-64896105D01*
X93259288Y-64912691D01*
X93245255Y-64925566D01*
X93233918Y-64935178D01*
X93224720Y-64941978D01*
X93217094Y-64946418D01*
X93210482Y-64948943D01*
X93204321Y-64950007D01*
X93198050Y-64950059D01*
X93191107Y-64949547D01*
X93178331Y-64947008D01*
X93159442Y-64937053D01*
X93143744Y-64920357D01*
X93143701Y-64920294D01*
X93142509Y-64917914D01*
X93141430Y-64914201D01*
X93140462Y-64908773D01*
X93139595Y-64901251D01*
X93138824Y-64891253D01*
X93138144Y-64878396D01*
X93137548Y-64862301D01*
X93137030Y-64842586D01*
X93136584Y-64818870D01*
X93136204Y-64790772D01*
X93135883Y-64757910D01*
X93135616Y-64719904D01*
X93135397Y-64676371D01*
X93135220Y-64626933D01*
X93135078Y-64571205D01*
X93134964Y-64508808D01*
X93134873Y-64439360D01*
X93134800Y-64362481D01*
X93134779Y-64317001D01*
X93134801Y-64253504D01*
X93134884Y-64192353D01*
X93135025Y-64134002D01*
X93135220Y-64078907D01*
X93135467Y-64027525D01*
X93135761Y-63980311D01*
X93136099Y-63937720D01*
X93136478Y-63900208D01*
X93136896Y-63868231D01*
X93137346Y-63842244D01*
X93137829Y-63822703D01*
X93138338Y-63810065D01*
X93138873Y-63804782D01*
X93142837Y-63796410D01*
X93156170Y-63780304D01*
X93174069Y-63769363D01*
X93174361Y-63769274D01*
X93180911Y-63768627D01*
X93194861Y-63768020D01*
X93215848Y-63767454D01*
X93243505Y-63766935D01*
X93277470Y-63766463D01*
X93317377Y-63766044D01*
X93362860Y-63765678D01*
X93413558Y-63765370D01*
X93469103Y-63765122D01*
X93529132Y-63764938D01*
X93593281Y-63764821D01*
X93661183Y-63764772D01*
X93732477Y-63764796D01*
G37*
%TO.C,leddirectionarrow1*%
G36*
X110045592Y-63562901D02*
G01*
X110061977Y-63567496D01*
X110298832Y-63805822D01*
X110335549Y-63842769D01*
X110372552Y-63880024D01*
X110404697Y-63912422D01*
X110432327Y-63940329D01*
X110455790Y-63964109D01*
X110475431Y-63984128D01*
X110491597Y-64000749D01*
X110504635Y-64014339D01*
X110514888Y-64025259D01*
X110522704Y-64033877D01*
X110528430Y-64040556D01*
X110532410Y-64045661D01*
X110534990Y-64049556D01*
X110536518Y-64052607D01*
X110537339Y-64055177D01*
X110537798Y-64057632D01*
X110538144Y-64061865D01*
X110537149Y-64075464D01*
X110533961Y-64089496D01*
X110528014Y-64107874D01*
X110161075Y-64474813D01*
X110125534Y-64510349D01*
X110075607Y-64560257D01*
X110030754Y-64605102D01*
X109990710Y-64645174D01*
X109955211Y-64680761D01*
X109923993Y-64712151D01*
X109896793Y-64739635D01*
X109873348Y-64763500D01*
X109853394Y-64784036D01*
X109836665Y-64801530D01*
X109822900Y-64816272D01*
X109811834Y-64828551D01*
X109803204Y-64838655D01*
X109796747Y-64846873D01*
X109792197Y-64853494D01*
X109789291Y-64858807D01*
X109787767Y-64863100D01*
X109787359Y-64866663D01*
X109787805Y-64869784D01*
X109788841Y-64872751D01*
X109790202Y-64875854D01*
X109791626Y-64879381D01*
X109793256Y-64883101D01*
X109796085Y-64887760D01*
X109800540Y-64893699D01*
X109807112Y-64901444D01*
X109816293Y-64911521D01*
X109828574Y-64924456D01*
X109844446Y-64940777D01*
X109864402Y-64961010D01*
X109888933Y-64985681D01*
X109918530Y-65015318D01*
X109919578Y-65016366D01*
X109949998Y-65046807D01*
X109975358Y-65072304D01*
X109996105Y-65093419D01*
X110012691Y-65110712D01*
X110025566Y-65124745D01*
X110035178Y-65136082D01*
X110041978Y-65145280D01*
X110046418Y-65152906D01*
X110048943Y-65159518D01*
X110050007Y-65165679D01*
X110050059Y-65171950D01*
X110049547Y-65178893D01*
X110047008Y-65191669D01*
X110037053Y-65210558D01*
X110020357Y-65226256D01*
X110020294Y-65226299D01*
X110017914Y-65227491D01*
X110014201Y-65228570D01*
X110008773Y-65229538D01*
X110001251Y-65230405D01*
X109991253Y-65231176D01*
X109978396Y-65231856D01*
X109962301Y-65232452D01*
X109942586Y-65232970D01*
X109918870Y-65233416D01*
X109890772Y-65233796D01*
X109857910Y-65234117D01*
X109819904Y-65234384D01*
X109776371Y-65234603D01*
X109726933Y-65234780D01*
X109671205Y-65234922D01*
X109608808Y-65235036D01*
X109539360Y-65235127D01*
X109462481Y-65235200D01*
X109417001Y-65235221D01*
X109353504Y-65235199D01*
X109292353Y-65235116D01*
X109234002Y-65234975D01*
X109178907Y-65234780D01*
X109127525Y-65234533D01*
X109080311Y-65234239D01*
X109037720Y-65233901D01*
X109000208Y-65233522D01*
X108968231Y-65233104D01*
X108942244Y-65232654D01*
X108922703Y-65232171D01*
X108910065Y-65231662D01*
X108904782Y-65231127D01*
X108896410Y-65227163D01*
X108880304Y-65213830D01*
X108869363Y-65195931D01*
X108869274Y-65195639D01*
X108868627Y-65189089D01*
X108868020Y-65175139D01*
X108867454Y-65154152D01*
X108866935Y-65126495D01*
X108866463Y-65092530D01*
X108866044Y-65052623D01*
X108865678Y-65007140D01*
X108865370Y-64956442D01*
X108865122Y-64900897D01*
X108864938Y-64840868D01*
X108864821Y-64776719D01*
X108864772Y-64708817D01*
X108864796Y-64637523D01*
X108864850Y-64566028D01*
X108864898Y-64495786D01*
X108864957Y-64432613D01*
X108865044Y-64376119D01*
X108865181Y-64325917D01*
X108865384Y-64281620D01*
X108865675Y-64242840D01*
X108866072Y-64209189D01*
X108866594Y-64180280D01*
X108867263Y-64155726D01*
X108868094Y-64135138D01*
X108869110Y-64118130D01*
X108870329Y-64104312D01*
X108871770Y-64093300D01*
X108873453Y-64084703D01*
X108875396Y-64078135D01*
X108877619Y-64073208D01*
X108880143Y-64069535D01*
X108882986Y-64066728D01*
X108886166Y-64064400D01*
X108889705Y-64062162D01*
X108893620Y-64059628D01*
X108895571Y-64058393D01*
X108910907Y-64052472D01*
X108928853Y-64050031D01*
X108945362Y-64051693D01*
X108949327Y-64053923D01*
X108956507Y-64059549D01*
X108967197Y-64068868D01*
X108981728Y-64082190D01*
X109000433Y-64099824D01*
X109023642Y-64122079D01*
X109051687Y-64149265D01*
X109084902Y-64181690D01*
X109096324Y-64192868D01*
X109124850Y-64220757D01*
X109148499Y-64243800D01*
X109167789Y-64262462D01*
X109183230Y-64277210D01*
X109195340Y-64288506D01*
X109204632Y-64296816D01*
X109211622Y-64302603D01*
X109216825Y-64306334D01*
X109220754Y-64308472D01*
X109223925Y-64309481D01*
X109226852Y-64309827D01*
X109227176Y-64309847D01*
X109230738Y-64310120D01*
X109234025Y-64310288D01*
X109237326Y-64310083D01*
X109240931Y-64309234D01*
X109245132Y-64307468D01*
X109250218Y-64304516D01*
X109256481Y-64300107D01*
X109264210Y-64293970D01*
X109273696Y-64285837D01*
X109285230Y-64275433D01*
X109299101Y-64262489D01*
X109315600Y-64246736D01*
X109335018Y-64227902D01*
X109357645Y-64205716D01*
X109383772Y-64179908D01*
X109413687Y-64150206D01*
X109447683Y-64116341D01*
X109486051Y-64078043D01*
X109529079Y-64035039D01*
X109577058Y-63987060D01*
X109630279Y-63933833D01*
X109996688Y-63567425D01*
X110012947Y-63562866D01*
X110015465Y-63562256D01*
X110030824Y-63561012D01*
X110045592Y-63562901D01*
G37*
%TD*%
M02*
