%TF.GenerationSoftware,KiCad,Pcbnew,(6.0.4-0)*%
%TF.CreationDate,2022-04-23T10:59:51+02:00*%
%TF.ProjectId,GlowTower_LED_connector_PCB,476c6f77-546f-4776-9572-5f4c45445f63,rev?*%
%TF.SameCoordinates,Original*%
%TF.FileFunction,Legend,Bot*%
%TF.FilePolarity,Positive*%
%FSLAX46Y46*%
G04 Gerber Fmt 4.6, Leading zero omitted, Abs format (unit mm)*
G04 Created by KiCad (PCBNEW (6.0.4-0)) date 2022-04-23 10:59:51*
%MOMM*%
%LPD*%
G01*
G04 APERTURE LIST*
%ADD10C,0.100000*%
%ADD11C,0.734422*%
%ADD12C,0.150000*%
G04 APERTURE END LIST*
D10*
X111670000Y-72181814D02*
G75*
G03*
X111670000Y-72181814I-10067810J0D01*
G01*
X109444004Y-71411068D02*
X108673258Y-72181814D01*
X102372936Y-64340000D02*
X109444004Y-71411068D01*
X101602190Y-65110746D02*
X102372936Y-64340000D01*
X108673258Y-72181814D02*
X101602190Y-65110746D01*
X93760376Y-71411068D02*
X100831444Y-64340000D01*
X94531122Y-72181814D02*
X93760376Y-71411068D01*
X101602190Y-65110746D02*
X94531122Y-72181814D01*
X100831444Y-64340000D02*
X101602190Y-65110746D01*
X109444004Y-72952560D02*
X102372936Y-80023628D01*
X108673258Y-72181814D02*
X109444004Y-72952560D01*
X101602190Y-79252882D02*
X108673258Y-72181814D01*
X102372936Y-80023628D02*
X101602190Y-79252882D01*
X93760376Y-72952560D02*
X94531122Y-72181814D01*
X100831444Y-80023628D02*
X93760376Y-72952560D01*
X101602190Y-79252882D02*
X100831444Y-80023628D01*
X94531122Y-72181814D02*
X101602190Y-79252882D01*
D11*
X110817211Y-72200000D02*
G75*
G03*
X110817211Y-72200000I-367211J0D01*
G01*
D12*
X103115382Y-72667496D02*
X103452099Y-72330779D01*
X102744993Y-71623672D01*
X102509290Y-72532809D02*
X102273588Y-72768512D01*
X102542962Y-73239916D02*
X102879680Y-72903199D01*
X102172573Y-72196092D01*
X101835855Y-72532809D01*
X102239916Y-73542962D02*
X101532809Y-72835855D01*
X101364451Y-73004214D01*
X101297107Y-73138901D01*
X101297107Y-73273588D01*
X101330779Y-73374603D01*
X101431794Y-73542962D01*
X101532809Y-73643977D01*
X101701168Y-73744993D01*
X101802183Y-73778664D01*
X101936870Y-73778664D01*
X102071558Y-73711321D01*
X102239916Y-73542962D01*
X105903740Y-72088679D02*
X106004755Y-72055007D01*
X106139442Y-71920320D01*
X106173114Y-71819305D01*
X106173114Y-71751962D01*
X106139442Y-71650946D01*
X105937411Y-71448916D01*
X105836396Y-71415244D01*
X105769053Y-71415244D01*
X105668037Y-71448916D01*
X105533350Y-71583603D01*
X105499679Y-71684618D01*
X105533350Y-72526412D02*
X105567022Y-72425397D01*
X105567022Y-72358053D01*
X105533350Y-72257038D01*
X105331320Y-72055007D01*
X105230305Y-72021336D01*
X105162961Y-72021336D01*
X105061946Y-72055007D01*
X104960931Y-72156023D01*
X104927259Y-72257038D01*
X104927259Y-72324381D01*
X104960931Y-72425397D01*
X105162961Y-72627427D01*
X105263976Y-72661099D01*
X105331320Y-72661099D01*
X105432335Y-72627427D01*
X105533350Y-72526412D01*
X104523198Y-72593755D02*
X104994602Y-73065160D01*
X104590541Y-72661099D02*
X104523198Y-72661099D01*
X104422183Y-72694771D01*
X104321167Y-72795786D01*
X104287496Y-72896801D01*
X104321167Y-72997816D01*
X104691557Y-73368206D01*
X103883435Y-73233519D02*
X104354839Y-73704923D01*
X103950778Y-73300862D02*
X103883435Y-73300862D01*
X103782419Y-73334534D01*
X103681404Y-73435549D01*
X103647732Y-73536564D01*
X103681404Y-73637580D01*
X104051793Y-74007969D01*
X103412030Y-74580389D02*
X103513045Y-74546717D01*
X103647732Y-74412030D01*
X103681404Y-74311015D01*
X103647732Y-74209999D01*
X103378358Y-73940625D01*
X103277343Y-73906954D01*
X103176328Y-73940625D01*
X103041641Y-74075312D01*
X103007969Y-74176328D01*
X103041641Y-74277343D01*
X103108984Y-74344687D01*
X103513045Y-74075312D01*
X102772267Y-75220152D02*
X102873282Y-75186480D01*
X103007969Y-75051793D01*
X103041641Y-74950778D01*
X103041641Y-74883435D01*
X103007969Y-74782419D01*
X102805938Y-74580389D01*
X102704923Y-74546717D01*
X102637580Y-74546717D01*
X102536564Y-74580389D01*
X102401877Y-74715076D01*
X102368206Y-74816091D01*
X102132503Y-74984450D02*
X101863129Y-75253824D01*
X101795786Y-74849763D02*
X102401877Y-75455854D01*
X102435549Y-75556870D01*
X102401877Y-75657885D01*
X102334534Y-75725228D01*
X101997816Y-76061946D02*
X102031488Y-75960931D01*
X102031488Y-75893587D01*
X101997816Y-75792572D01*
X101795786Y-75590541D01*
X101694771Y-75556870D01*
X101627427Y-75556870D01*
X101526412Y-75590541D01*
X101425397Y-75691557D01*
X101391725Y-75792572D01*
X101391725Y-75859915D01*
X101425397Y-75960931D01*
X101627427Y-76162961D01*
X101728442Y-76196633D01*
X101795786Y-76196633D01*
X101896801Y-76162961D01*
X101997816Y-76061946D01*
X101459068Y-76600694D02*
X100987664Y-76129289D01*
X101122351Y-76263976D02*
X101021336Y-76230305D01*
X100953992Y-76230305D01*
X100852977Y-76263976D01*
X100785633Y-76331320D01*
X106250895Y-74085751D02*
X105543789Y-73378644D01*
X105813163Y-73648018D02*
X105712147Y-73681690D01*
X105577460Y-73816377D01*
X105543789Y-73917392D01*
X105543789Y-73984736D01*
X105577460Y-74085751D01*
X105779491Y-74287781D01*
X105880506Y-74321453D01*
X105947850Y-74321453D01*
X106048865Y-74287781D01*
X106183552Y-74153094D01*
X106217224Y-74052079D01*
X105308086Y-74961216D02*
X105409102Y-74927545D01*
X105543789Y-74792858D01*
X105577460Y-74691842D01*
X105543789Y-74590827D01*
X105274415Y-74321453D01*
X105173399Y-74287781D01*
X105072384Y-74321453D01*
X104937697Y-74456140D01*
X104904025Y-74557155D01*
X104937697Y-74658171D01*
X105005041Y-74725514D01*
X105409102Y-74456140D01*
X104634651Y-74759186D02*
X104365277Y-75028560D01*
X104297934Y-74624499D02*
X104904025Y-75230590D01*
X104937697Y-75331606D01*
X104904025Y-75432621D01*
X104836682Y-75499964D01*
X104297934Y-76038712D02*
X103927545Y-75668323D01*
X103893873Y-75567308D01*
X103927545Y-75466293D01*
X104062232Y-75331606D01*
X104163247Y-75297934D01*
X104264262Y-76005041D02*
X104365277Y-75971369D01*
X104533636Y-75803010D01*
X104567308Y-75701995D01*
X104533636Y-75600980D01*
X104466293Y-75533636D01*
X104365277Y-75499964D01*
X104264262Y-75533636D01*
X104095903Y-75701995D01*
X103994888Y-75735667D01*
X102816377Y-76240743D02*
X102749033Y-76240743D01*
X102648018Y-76274415D01*
X102479659Y-76442773D01*
X102445988Y-76543789D01*
X102445988Y-76611132D01*
X102479659Y-76712147D01*
X102547003Y-76779491D01*
X102681690Y-76846834D01*
X103489812Y-76846834D01*
X103052079Y-77284567D01*
X102119053Y-67885397D02*
X102152725Y-67784382D01*
X102253740Y-67683367D01*
X102388427Y-67616023D01*
X102523114Y-67616023D01*
X102624129Y-67649695D01*
X102792488Y-67750710D01*
X102893503Y-67851725D01*
X102994519Y-68020084D01*
X103028190Y-68121099D01*
X103028190Y-68255786D01*
X102960847Y-68390473D01*
X102893503Y-68457817D01*
X102758816Y-68525160D01*
X102691473Y-68525160D01*
X102455771Y-68289458D01*
X102590458Y-68154771D01*
X102354755Y-68996565D02*
X102388427Y-68895550D01*
X102354755Y-68794534D01*
X101748664Y-68188443D01*
X101984366Y-69366954D02*
X102018038Y-69265939D01*
X102018038Y-69198595D01*
X101984366Y-69097580D01*
X101782336Y-68895550D01*
X101681320Y-68861878D01*
X101613977Y-68861878D01*
X101512962Y-68895550D01*
X101411946Y-68996565D01*
X101378275Y-69097580D01*
X101378275Y-69164924D01*
X101411946Y-69265939D01*
X101613977Y-69467969D01*
X101714992Y-69501641D01*
X101782336Y-69501641D01*
X101883351Y-69467969D01*
X101984366Y-69366954D01*
X101041557Y-69366954D02*
X101378275Y-69973046D01*
X100906870Y-69771015D01*
X101108901Y-70242420D01*
X100502809Y-69905702D01*
X100098748Y-69838359D02*
X99694687Y-70242420D01*
X100603824Y-70747496D02*
X99896717Y-70040389D01*
X100065076Y-71286244D02*
X100098748Y-71185229D01*
X100098748Y-71117885D01*
X100065076Y-71016870D01*
X99863046Y-70814840D01*
X99762030Y-70781168D01*
X99694687Y-70781168D01*
X99593672Y-70814840D01*
X99492656Y-70915855D01*
X99458985Y-71016870D01*
X99458985Y-71084214D01*
X99492656Y-71185229D01*
X99694687Y-71387259D01*
X99795702Y-71420931D01*
X99863046Y-71420931D01*
X99964061Y-71387259D01*
X100065076Y-71286244D01*
X99122267Y-71286244D02*
X99458985Y-71892336D01*
X98987580Y-71690305D01*
X99189611Y-72161710D01*
X98583519Y-71824992D01*
X98482504Y-72801473D02*
X98583519Y-72767801D01*
X98718206Y-72633114D01*
X98751878Y-72532099D01*
X98718206Y-72431084D01*
X98448832Y-72161710D01*
X98347817Y-72128038D01*
X98246802Y-72161710D01*
X98112115Y-72296397D01*
X98078443Y-72397412D01*
X98112115Y-72498427D01*
X98179458Y-72565771D01*
X98583519Y-72296397D01*
X98179458Y-73171862D02*
X97708054Y-72700458D01*
X97842741Y-72835145D02*
X97741725Y-72801473D01*
X97674382Y-72801473D01*
X97573367Y-72835145D01*
X97506023Y-72902488D01*
X103240659Y-68905988D02*
X104755888Y-69209034D01*
X102701911Y-69579423D02*
X102735583Y-69478408D01*
X102836598Y-69377393D01*
X102971285Y-69310049D01*
X103105972Y-69310049D01*
X103206987Y-69343721D01*
X103375346Y-69444736D01*
X103476361Y-69545751D01*
X103577377Y-69714110D01*
X103611048Y-69815125D01*
X103611048Y-69949812D01*
X103543705Y-70084499D01*
X103476361Y-70151843D01*
X103341674Y-70219186D01*
X103274331Y-70219186D01*
X103038629Y-69983484D01*
X103173316Y-69848797D01*
X102937613Y-70690591D02*
X102971285Y-70589576D01*
X102937613Y-70488560D01*
X102331522Y-69882469D01*
X102567224Y-71060980D02*
X102600896Y-70959965D01*
X102600896Y-70892621D01*
X102567224Y-70791606D01*
X102365194Y-70589576D01*
X102264178Y-70555904D01*
X102196835Y-70555904D01*
X102095820Y-70589576D01*
X101994804Y-70690591D01*
X101961133Y-70791606D01*
X101961133Y-70858950D01*
X101994804Y-70959965D01*
X102196835Y-71161995D01*
X102297850Y-71195667D01*
X102365194Y-71195667D01*
X102466209Y-71161995D01*
X102567224Y-71060980D01*
X101624415Y-71060980D02*
X101961133Y-71667072D01*
X101489728Y-71465041D01*
X101691759Y-71936446D01*
X101085667Y-71599728D01*
X100950980Y-72677224D02*
X101287698Y-72340507D01*
X100580591Y-71633400D01*
X100715278Y-72912926D02*
X100243873Y-72441522D01*
X100008171Y-72205820D02*
X100075515Y-72205820D01*
X100075515Y-72273163D01*
X100008171Y-72273163D01*
X100008171Y-72205820D01*
X100075515Y-72273163D01*
X99604110Y-73081285D02*
X100176530Y-73653705D01*
X100277545Y-73687377D01*
X100344889Y-73687377D01*
X100445904Y-73653705D01*
X100546919Y-73552690D01*
X100580591Y-73451674D01*
X100041843Y-73519018D02*
X100142858Y-73485346D01*
X100277545Y-73350659D01*
X100311217Y-73249644D01*
X100311217Y-73182300D01*
X100277545Y-73081285D01*
X100075515Y-72879255D01*
X99974499Y-72845583D01*
X99907156Y-72845583D01*
X99806141Y-72879255D01*
X99671454Y-73013942D01*
X99637782Y-73114957D01*
X99738797Y-73889407D02*
X99031690Y-73182300D01*
X99435751Y-74192453D02*
X99065362Y-73822064D01*
X99031690Y-73721048D01*
X99065362Y-73620033D01*
X99166377Y-73519018D01*
X99267393Y-73485346D01*
X99334736Y-73485346D01*
X98728645Y-73956751D02*
X98459270Y-74226125D01*
X98391927Y-73822064D02*
X98998019Y-74428155D01*
X99031690Y-74529171D01*
X98998019Y-74630186D01*
X98930675Y-74697529D01*
%TO.C,leddirectionarrow4*%
G36*
X106787348Y-71074309D02*
G01*
X106801380Y-71077497D01*
X106819758Y-71083444D01*
X107186697Y-71450383D01*
X107222233Y-71485924D01*
X107272141Y-71535851D01*
X107316986Y-71580704D01*
X107357058Y-71620748D01*
X107392645Y-71656247D01*
X107424035Y-71687465D01*
X107451519Y-71714665D01*
X107475384Y-71738110D01*
X107495920Y-71758064D01*
X107513414Y-71774793D01*
X107528156Y-71788558D01*
X107540435Y-71799624D01*
X107550539Y-71808254D01*
X107558757Y-71814711D01*
X107565378Y-71819261D01*
X107570691Y-71822167D01*
X107574984Y-71823691D01*
X107578547Y-71824099D01*
X107581668Y-71823653D01*
X107584635Y-71822617D01*
X107587738Y-71821256D01*
X107591265Y-71819832D01*
X107594985Y-71818202D01*
X107599644Y-71815373D01*
X107605583Y-71810918D01*
X107613328Y-71804346D01*
X107623405Y-71795165D01*
X107636340Y-71782884D01*
X107652661Y-71767012D01*
X107672894Y-71747056D01*
X107697565Y-71722525D01*
X107727202Y-71692928D01*
X107728250Y-71691880D01*
X107758691Y-71661460D01*
X107784188Y-71636100D01*
X107805303Y-71615353D01*
X107822596Y-71598767D01*
X107836629Y-71585892D01*
X107847966Y-71576280D01*
X107857164Y-71569480D01*
X107864790Y-71565040D01*
X107871402Y-71562515D01*
X107877563Y-71561451D01*
X107883834Y-71561399D01*
X107890777Y-71561911D01*
X107903553Y-71564450D01*
X107922442Y-71574405D01*
X107938140Y-71591101D01*
X107938183Y-71591164D01*
X107939375Y-71593544D01*
X107940454Y-71597257D01*
X107941422Y-71602685D01*
X107942289Y-71610207D01*
X107943060Y-71620205D01*
X107943740Y-71633062D01*
X107944336Y-71649157D01*
X107944854Y-71668872D01*
X107945300Y-71692588D01*
X107945680Y-71720686D01*
X107946001Y-71753548D01*
X107946268Y-71791554D01*
X107946487Y-71835087D01*
X107946664Y-71884525D01*
X107946806Y-71940253D01*
X107946920Y-72002650D01*
X107947011Y-72072098D01*
X107947084Y-72148977D01*
X107947105Y-72194457D01*
X107947083Y-72257954D01*
X107947000Y-72319105D01*
X107946859Y-72377456D01*
X107946664Y-72432551D01*
X107946417Y-72483933D01*
X107946123Y-72531147D01*
X107945785Y-72573738D01*
X107945406Y-72611250D01*
X107944988Y-72643227D01*
X107944538Y-72669214D01*
X107944055Y-72688755D01*
X107943546Y-72701393D01*
X107943011Y-72706676D01*
X107939047Y-72715048D01*
X107925714Y-72731154D01*
X107907815Y-72742095D01*
X107907523Y-72742184D01*
X107900973Y-72742831D01*
X107887023Y-72743438D01*
X107866036Y-72744004D01*
X107838379Y-72744523D01*
X107804414Y-72744995D01*
X107764507Y-72745414D01*
X107719024Y-72745780D01*
X107668326Y-72746088D01*
X107612781Y-72746336D01*
X107552752Y-72746520D01*
X107488603Y-72746637D01*
X107420701Y-72746686D01*
X107349407Y-72746662D01*
X107277912Y-72746608D01*
X107207670Y-72746560D01*
X107144497Y-72746501D01*
X107088003Y-72746414D01*
X107037801Y-72746277D01*
X106993504Y-72746074D01*
X106954724Y-72745783D01*
X106921073Y-72745386D01*
X106892164Y-72744864D01*
X106867610Y-72744195D01*
X106847022Y-72743364D01*
X106830014Y-72742348D01*
X106816196Y-72741129D01*
X106805184Y-72739688D01*
X106796587Y-72738005D01*
X106790019Y-72736062D01*
X106785092Y-72733839D01*
X106781419Y-72731315D01*
X106778612Y-72728472D01*
X106776284Y-72725292D01*
X106774046Y-72721753D01*
X106771512Y-72717838D01*
X106770277Y-72715887D01*
X106764356Y-72700551D01*
X106761915Y-72682605D01*
X106763577Y-72666096D01*
X106765807Y-72662131D01*
X106771433Y-72654951D01*
X106780752Y-72644261D01*
X106794074Y-72629730D01*
X106811708Y-72611025D01*
X106833963Y-72587816D01*
X106861149Y-72559771D01*
X106893574Y-72526556D01*
X106904752Y-72515134D01*
X106932641Y-72486608D01*
X106955684Y-72462959D01*
X106974346Y-72443669D01*
X106989094Y-72428228D01*
X107000390Y-72416118D01*
X107008700Y-72406826D01*
X107014487Y-72399836D01*
X107018218Y-72394633D01*
X107020356Y-72390704D01*
X107021365Y-72387533D01*
X107021711Y-72384606D01*
X107021731Y-72384282D01*
X107022004Y-72380720D01*
X107022172Y-72377433D01*
X107021967Y-72374132D01*
X107021118Y-72370527D01*
X107019352Y-72366326D01*
X107016400Y-72361240D01*
X107011991Y-72354977D01*
X107005854Y-72347248D01*
X106997721Y-72337762D01*
X106987317Y-72326228D01*
X106974373Y-72312357D01*
X106958620Y-72295858D01*
X106939786Y-72276440D01*
X106917600Y-72253813D01*
X106891792Y-72227686D01*
X106862090Y-72197771D01*
X106828225Y-72163775D01*
X106789927Y-72125407D01*
X106746923Y-72082379D01*
X106698944Y-72034400D01*
X106645717Y-71981179D01*
X106279309Y-71614770D01*
X106274750Y-71598511D01*
X106274140Y-71595993D01*
X106272896Y-71580634D01*
X106274785Y-71565866D01*
X106279380Y-71549481D01*
X106517706Y-71312626D01*
X106554653Y-71275909D01*
X106591908Y-71238906D01*
X106624306Y-71206761D01*
X106652213Y-71179131D01*
X106675993Y-71155668D01*
X106696012Y-71136027D01*
X106712633Y-71119861D01*
X106726223Y-71106823D01*
X106737143Y-71096570D01*
X106745761Y-71088754D01*
X106752440Y-71083028D01*
X106757545Y-71079048D01*
X106761440Y-71076468D01*
X106764491Y-71074940D01*
X106767061Y-71074119D01*
X106769516Y-71073660D01*
X106773749Y-71073314D01*
X106787348Y-71074309D01*
G37*
%TO.C,leddirectionarrow2*%
G36*
X96100594Y-71533338D02*
G01*
X96172089Y-71533392D01*
X96242331Y-71533440D01*
X96305504Y-71533499D01*
X96361998Y-71533586D01*
X96412200Y-71533723D01*
X96456497Y-71533926D01*
X96495277Y-71534217D01*
X96528928Y-71534614D01*
X96557837Y-71535136D01*
X96582391Y-71535805D01*
X96602979Y-71536636D01*
X96619987Y-71537652D01*
X96633805Y-71538871D01*
X96644817Y-71540312D01*
X96653414Y-71541995D01*
X96659982Y-71543938D01*
X96664909Y-71546161D01*
X96668582Y-71548685D01*
X96671389Y-71551528D01*
X96673717Y-71554708D01*
X96675955Y-71558247D01*
X96678489Y-71562162D01*
X96679724Y-71564113D01*
X96685645Y-71579449D01*
X96688086Y-71597395D01*
X96686424Y-71613904D01*
X96684194Y-71617869D01*
X96678568Y-71625049D01*
X96669249Y-71635739D01*
X96655927Y-71650270D01*
X96638293Y-71668975D01*
X96616038Y-71692184D01*
X96588852Y-71720229D01*
X96556427Y-71753444D01*
X96545249Y-71764866D01*
X96517360Y-71793392D01*
X96494317Y-71817041D01*
X96475655Y-71836331D01*
X96460907Y-71851772D01*
X96449611Y-71863882D01*
X96441301Y-71873174D01*
X96435514Y-71880164D01*
X96431783Y-71885367D01*
X96429645Y-71889296D01*
X96428636Y-71892467D01*
X96428290Y-71895394D01*
X96428270Y-71895718D01*
X96427997Y-71899280D01*
X96427829Y-71902567D01*
X96428034Y-71905868D01*
X96428883Y-71909473D01*
X96430649Y-71913674D01*
X96433601Y-71918760D01*
X96438010Y-71925023D01*
X96444147Y-71932752D01*
X96452280Y-71942238D01*
X96462684Y-71953772D01*
X96475628Y-71967643D01*
X96491381Y-71984142D01*
X96510215Y-72003560D01*
X96532401Y-72026187D01*
X96558209Y-72052314D01*
X96587911Y-72082229D01*
X96621776Y-72116225D01*
X96660074Y-72154593D01*
X96703078Y-72197621D01*
X96751057Y-72245600D01*
X96804284Y-72298821D01*
X97170692Y-72665230D01*
X97175251Y-72681489D01*
X97175861Y-72684007D01*
X97177105Y-72699366D01*
X97175216Y-72714134D01*
X97170621Y-72730519D01*
X96932295Y-72967374D01*
X96895348Y-73004091D01*
X96858093Y-73041094D01*
X96825695Y-73073239D01*
X96797788Y-73100869D01*
X96774008Y-73124332D01*
X96753989Y-73143973D01*
X96737368Y-73160139D01*
X96723778Y-73173177D01*
X96712858Y-73183430D01*
X96704240Y-73191246D01*
X96697561Y-73196972D01*
X96692456Y-73200952D01*
X96688561Y-73203532D01*
X96685510Y-73205060D01*
X96682940Y-73205881D01*
X96680485Y-73206340D01*
X96676252Y-73206686D01*
X96662653Y-73205691D01*
X96648621Y-73202503D01*
X96630243Y-73196556D01*
X96263304Y-72829617D01*
X96227768Y-72794076D01*
X96177860Y-72744149D01*
X96133015Y-72699296D01*
X96092943Y-72659252D01*
X96057356Y-72623753D01*
X96025966Y-72592535D01*
X95998482Y-72565335D01*
X95974617Y-72541890D01*
X95954081Y-72521936D01*
X95936587Y-72505207D01*
X95921845Y-72491442D01*
X95909566Y-72480376D01*
X95899462Y-72471746D01*
X95891244Y-72465289D01*
X95884623Y-72460739D01*
X95879310Y-72457833D01*
X95875017Y-72456309D01*
X95871454Y-72455901D01*
X95868333Y-72456347D01*
X95865366Y-72457383D01*
X95862263Y-72458744D01*
X95858736Y-72460168D01*
X95855016Y-72461798D01*
X95850357Y-72464627D01*
X95844418Y-72469082D01*
X95836673Y-72475654D01*
X95826596Y-72484835D01*
X95813661Y-72497116D01*
X95797340Y-72512988D01*
X95777107Y-72532944D01*
X95752436Y-72557475D01*
X95722799Y-72587072D01*
X95721751Y-72588120D01*
X95691310Y-72618540D01*
X95665813Y-72643900D01*
X95644698Y-72664647D01*
X95627405Y-72681233D01*
X95613372Y-72694108D01*
X95602035Y-72703720D01*
X95592837Y-72710520D01*
X95585211Y-72714960D01*
X95578599Y-72717485D01*
X95572438Y-72718549D01*
X95566167Y-72718601D01*
X95559224Y-72718089D01*
X95546448Y-72715550D01*
X95527559Y-72705595D01*
X95511861Y-72688899D01*
X95511818Y-72688836D01*
X95510626Y-72686456D01*
X95509547Y-72682743D01*
X95508579Y-72677315D01*
X95507712Y-72669793D01*
X95506941Y-72659795D01*
X95506261Y-72646938D01*
X95505665Y-72630843D01*
X95505147Y-72611128D01*
X95504701Y-72587412D01*
X95504321Y-72559314D01*
X95504000Y-72526452D01*
X95503733Y-72488446D01*
X95503514Y-72444913D01*
X95503337Y-72395475D01*
X95503195Y-72339747D01*
X95503081Y-72277350D01*
X95502990Y-72207902D01*
X95502917Y-72131023D01*
X95502896Y-72085543D01*
X95502918Y-72022046D01*
X95503001Y-71960895D01*
X95503142Y-71902544D01*
X95503337Y-71847449D01*
X95503584Y-71796067D01*
X95503878Y-71748853D01*
X95504216Y-71706262D01*
X95504595Y-71668750D01*
X95505013Y-71636773D01*
X95505463Y-71610786D01*
X95505946Y-71591245D01*
X95506455Y-71578607D01*
X95506990Y-71573324D01*
X95510954Y-71564952D01*
X95524287Y-71548846D01*
X95542186Y-71537905D01*
X95542478Y-71537816D01*
X95549028Y-71537169D01*
X95562978Y-71536562D01*
X95583965Y-71535996D01*
X95611622Y-71535477D01*
X95645587Y-71535005D01*
X95685494Y-71534586D01*
X95730977Y-71534220D01*
X95781675Y-71533912D01*
X95837220Y-71533664D01*
X95897249Y-71533480D01*
X95961398Y-71533363D01*
X96029300Y-71533314D01*
X96100594Y-71533338D01*
G37*
%TO.C,leddirectionarrow3*%
G36*
X101956496Y-77054801D02*
G01*
X102017647Y-77054884D01*
X102075998Y-77055025D01*
X102131093Y-77055220D01*
X102182475Y-77055467D01*
X102229689Y-77055761D01*
X102272280Y-77056099D01*
X102309792Y-77056478D01*
X102341769Y-77056896D01*
X102367756Y-77057346D01*
X102387297Y-77057829D01*
X102399935Y-77058338D01*
X102405218Y-77058873D01*
X102413590Y-77062837D01*
X102429696Y-77076170D01*
X102440637Y-77094069D01*
X102440726Y-77094361D01*
X102441373Y-77100911D01*
X102441980Y-77114861D01*
X102442546Y-77135848D01*
X102443065Y-77163505D01*
X102443537Y-77197470D01*
X102443956Y-77237377D01*
X102444322Y-77282860D01*
X102444630Y-77333558D01*
X102444878Y-77389103D01*
X102445062Y-77449132D01*
X102445179Y-77513281D01*
X102445228Y-77581183D01*
X102445204Y-77652477D01*
X102445150Y-77723972D01*
X102445102Y-77794214D01*
X102445043Y-77857387D01*
X102444956Y-77913881D01*
X102444819Y-77964083D01*
X102444616Y-78008380D01*
X102444325Y-78047160D01*
X102443928Y-78080811D01*
X102443406Y-78109720D01*
X102442737Y-78134274D01*
X102441906Y-78154862D01*
X102440890Y-78171870D01*
X102439671Y-78185688D01*
X102438230Y-78196700D01*
X102436547Y-78205297D01*
X102434604Y-78211865D01*
X102432381Y-78216792D01*
X102429857Y-78220465D01*
X102427014Y-78223272D01*
X102423834Y-78225600D01*
X102420295Y-78227838D01*
X102416380Y-78230372D01*
X102414429Y-78231607D01*
X102399093Y-78237528D01*
X102381147Y-78239969D01*
X102364638Y-78238307D01*
X102360673Y-78236077D01*
X102353493Y-78230451D01*
X102342803Y-78221132D01*
X102328272Y-78207810D01*
X102309567Y-78190176D01*
X102286358Y-78167921D01*
X102258313Y-78140735D01*
X102225098Y-78108310D01*
X102213676Y-78097132D01*
X102185150Y-78069243D01*
X102161501Y-78046200D01*
X102142211Y-78027538D01*
X102126770Y-78012790D01*
X102114660Y-78001494D01*
X102105368Y-77993184D01*
X102098378Y-77987397D01*
X102093175Y-77983666D01*
X102089246Y-77981528D01*
X102086075Y-77980519D01*
X102083148Y-77980173D01*
X102082824Y-77980153D01*
X102079262Y-77979880D01*
X102075975Y-77979712D01*
X102072674Y-77979917D01*
X102069069Y-77980766D01*
X102064868Y-77982532D01*
X102059782Y-77985484D01*
X102053519Y-77989893D01*
X102045790Y-77996030D01*
X102036304Y-78004163D01*
X102024770Y-78014567D01*
X102010899Y-78027511D01*
X101994400Y-78043264D01*
X101974982Y-78062098D01*
X101952355Y-78084284D01*
X101926228Y-78110092D01*
X101896313Y-78139794D01*
X101862317Y-78173659D01*
X101823949Y-78211957D01*
X101780921Y-78254961D01*
X101732942Y-78302940D01*
X101679721Y-78356167D01*
X101313312Y-78722575D01*
X101297053Y-78727134D01*
X101294535Y-78727744D01*
X101279176Y-78728988D01*
X101264408Y-78727099D01*
X101248023Y-78722504D01*
X101011168Y-78484178D01*
X100974451Y-78447231D01*
X100937448Y-78409976D01*
X100905303Y-78377578D01*
X100877673Y-78349671D01*
X100854210Y-78325891D01*
X100834569Y-78305872D01*
X100818403Y-78289251D01*
X100805365Y-78275661D01*
X100795112Y-78264741D01*
X100787296Y-78256123D01*
X100781570Y-78249444D01*
X100777590Y-78244339D01*
X100775010Y-78240444D01*
X100773482Y-78237393D01*
X100772661Y-78234823D01*
X100772202Y-78232368D01*
X100771856Y-78228135D01*
X100772851Y-78214536D01*
X100776039Y-78200504D01*
X100781986Y-78182126D01*
X101148925Y-77815187D01*
X101184466Y-77779651D01*
X101234393Y-77729743D01*
X101279246Y-77684898D01*
X101319290Y-77644826D01*
X101354789Y-77609239D01*
X101386007Y-77577849D01*
X101413207Y-77550365D01*
X101436652Y-77526500D01*
X101456606Y-77505964D01*
X101473335Y-77488470D01*
X101487100Y-77473728D01*
X101498166Y-77461449D01*
X101506796Y-77451345D01*
X101513253Y-77443127D01*
X101517803Y-77436506D01*
X101520709Y-77431193D01*
X101522233Y-77426900D01*
X101522641Y-77423337D01*
X101522195Y-77420216D01*
X101521159Y-77417249D01*
X101519798Y-77414146D01*
X101518374Y-77410619D01*
X101516744Y-77406899D01*
X101513915Y-77402240D01*
X101509460Y-77396301D01*
X101502888Y-77388556D01*
X101493707Y-77378479D01*
X101481426Y-77365544D01*
X101465554Y-77349223D01*
X101445598Y-77328990D01*
X101421067Y-77304319D01*
X101391470Y-77274682D01*
X101390422Y-77273634D01*
X101360002Y-77243193D01*
X101334642Y-77217696D01*
X101313895Y-77196581D01*
X101297309Y-77179288D01*
X101284434Y-77165255D01*
X101274822Y-77153918D01*
X101268022Y-77144720D01*
X101263582Y-77137094D01*
X101261057Y-77130482D01*
X101259993Y-77124321D01*
X101259941Y-77118050D01*
X101260453Y-77111107D01*
X101262992Y-77098331D01*
X101272947Y-77079442D01*
X101289643Y-77063744D01*
X101289706Y-77063701D01*
X101292086Y-77062509D01*
X101295799Y-77061430D01*
X101301227Y-77060462D01*
X101308749Y-77059595D01*
X101318747Y-77058824D01*
X101331604Y-77058144D01*
X101347699Y-77057548D01*
X101367414Y-77057030D01*
X101391130Y-77056584D01*
X101419228Y-77056204D01*
X101452090Y-77055883D01*
X101490096Y-77055616D01*
X101533629Y-77055397D01*
X101583067Y-77055220D01*
X101638795Y-77055078D01*
X101701192Y-77054964D01*
X101770640Y-77054873D01*
X101847519Y-77054800D01*
X101892999Y-77054779D01*
X101956496Y-77054801D01*
G37*
%TO.C,leddirectionarrow1*%
G36*
X101925592Y-65732901D02*
G01*
X101941977Y-65737496D01*
X102178832Y-65975822D01*
X102215549Y-66012769D01*
X102252552Y-66050024D01*
X102284697Y-66082422D01*
X102312327Y-66110329D01*
X102335790Y-66134109D01*
X102355431Y-66154128D01*
X102371597Y-66170749D01*
X102384635Y-66184339D01*
X102394888Y-66195259D01*
X102402704Y-66203877D01*
X102408430Y-66210556D01*
X102412410Y-66215661D01*
X102414990Y-66219556D01*
X102416518Y-66222607D01*
X102417339Y-66225177D01*
X102417798Y-66227632D01*
X102418144Y-66231865D01*
X102417149Y-66245464D01*
X102413961Y-66259496D01*
X102408014Y-66277874D01*
X102041075Y-66644813D01*
X102005534Y-66680349D01*
X101955607Y-66730257D01*
X101910754Y-66775102D01*
X101870710Y-66815174D01*
X101835211Y-66850761D01*
X101803993Y-66882151D01*
X101776793Y-66909635D01*
X101753348Y-66933500D01*
X101733394Y-66954036D01*
X101716665Y-66971530D01*
X101702900Y-66986272D01*
X101691834Y-66998551D01*
X101683204Y-67008655D01*
X101676747Y-67016873D01*
X101672197Y-67023494D01*
X101669291Y-67028807D01*
X101667767Y-67033100D01*
X101667359Y-67036663D01*
X101667805Y-67039784D01*
X101668841Y-67042751D01*
X101670202Y-67045854D01*
X101671626Y-67049381D01*
X101673256Y-67053101D01*
X101676085Y-67057760D01*
X101680540Y-67063699D01*
X101687112Y-67071444D01*
X101696293Y-67081521D01*
X101708574Y-67094456D01*
X101724446Y-67110777D01*
X101744402Y-67131010D01*
X101768933Y-67155681D01*
X101798530Y-67185318D01*
X101799578Y-67186366D01*
X101829998Y-67216807D01*
X101855358Y-67242304D01*
X101876105Y-67263419D01*
X101892691Y-67280712D01*
X101905566Y-67294745D01*
X101915178Y-67306082D01*
X101921978Y-67315280D01*
X101926418Y-67322906D01*
X101928943Y-67329518D01*
X101930007Y-67335679D01*
X101930059Y-67341950D01*
X101929547Y-67348893D01*
X101927008Y-67361669D01*
X101917053Y-67380558D01*
X101900357Y-67396256D01*
X101900294Y-67396299D01*
X101897914Y-67397491D01*
X101894201Y-67398570D01*
X101888773Y-67399538D01*
X101881251Y-67400405D01*
X101871253Y-67401176D01*
X101858396Y-67401856D01*
X101842301Y-67402452D01*
X101822586Y-67402970D01*
X101798870Y-67403416D01*
X101770772Y-67403796D01*
X101737910Y-67404117D01*
X101699904Y-67404384D01*
X101656371Y-67404603D01*
X101606933Y-67404780D01*
X101551205Y-67404922D01*
X101488808Y-67405036D01*
X101419360Y-67405127D01*
X101342481Y-67405200D01*
X101297001Y-67405221D01*
X101233504Y-67405199D01*
X101172353Y-67405116D01*
X101114002Y-67404975D01*
X101058907Y-67404780D01*
X101007525Y-67404533D01*
X100960311Y-67404239D01*
X100917720Y-67403901D01*
X100880208Y-67403522D01*
X100848231Y-67403104D01*
X100822244Y-67402654D01*
X100802703Y-67402171D01*
X100790065Y-67401662D01*
X100784782Y-67401127D01*
X100776410Y-67397163D01*
X100760304Y-67383830D01*
X100749363Y-67365931D01*
X100749274Y-67365639D01*
X100748627Y-67359089D01*
X100748020Y-67345139D01*
X100747454Y-67324152D01*
X100746935Y-67296495D01*
X100746463Y-67262530D01*
X100746044Y-67222623D01*
X100745678Y-67177140D01*
X100745370Y-67126442D01*
X100745122Y-67070897D01*
X100744938Y-67010868D01*
X100744821Y-66946719D01*
X100744772Y-66878817D01*
X100744796Y-66807523D01*
X100744850Y-66736028D01*
X100744898Y-66665786D01*
X100744957Y-66602613D01*
X100745044Y-66546119D01*
X100745181Y-66495917D01*
X100745384Y-66451620D01*
X100745675Y-66412840D01*
X100746072Y-66379189D01*
X100746594Y-66350280D01*
X100747263Y-66325726D01*
X100748094Y-66305138D01*
X100749110Y-66288130D01*
X100750329Y-66274312D01*
X100751770Y-66263300D01*
X100753453Y-66254703D01*
X100755396Y-66248135D01*
X100757619Y-66243208D01*
X100760143Y-66239535D01*
X100762986Y-66236728D01*
X100766166Y-66234400D01*
X100769705Y-66232162D01*
X100773620Y-66229628D01*
X100775571Y-66228393D01*
X100790907Y-66222472D01*
X100808853Y-66220031D01*
X100825362Y-66221693D01*
X100829327Y-66223923D01*
X100836507Y-66229549D01*
X100847197Y-66238868D01*
X100861728Y-66252190D01*
X100880433Y-66269824D01*
X100903642Y-66292079D01*
X100931687Y-66319265D01*
X100964902Y-66351690D01*
X100976324Y-66362868D01*
X101004850Y-66390757D01*
X101028499Y-66413800D01*
X101047789Y-66432462D01*
X101063230Y-66447210D01*
X101075340Y-66458506D01*
X101084632Y-66466816D01*
X101091622Y-66472603D01*
X101096825Y-66476334D01*
X101100754Y-66478472D01*
X101103925Y-66479481D01*
X101106852Y-66479827D01*
X101107176Y-66479847D01*
X101110738Y-66480120D01*
X101114025Y-66480288D01*
X101117326Y-66480083D01*
X101120931Y-66479234D01*
X101125132Y-66477468D01*
X101130218Y-66474516D01*
X101136481Y-66470107D01*
X101144210Y-66463970D01*
X101153696Y-66455837D01*
X101165230Y-66445433D01*
X101179101Y-66432489D01*
X101195600Y-66416736D01*
X101215018Y-66397902D01*
X101237645Y-66375716D01*
X101263772Y-66349908D01*
X101293687Y-66320206D01*
X101327683Y-66286341D01*
X101366051Y-66248043D01*
X101409079Y-66205039D01*
X101457058Y-66157060D01*
X101510279Y-66103833D01*
X101876688Y-65737425D01*
X101892947Y-65732866D01*
X101895465Y-65732256D01*
X101910824Y-65731012D01*
X101925592Y-65732901D01*
G37*
%TD*%
M02*
