%TF.GenerationSoftware,KiCad,Pcbnew,(6.0.0-0)*%
%TF.CreationDate,2022-03-11T11:56:05+01:00*%
%TF.ProjectId,GlowTower_LED_connector_PCB,476c6f77-546f-4776-9572-5f4c45445f63,rev?*%
%TF.SameCoordinates,Original*%
%TF.FileFunction,Copper,L2,Bot*%
%TF.FilePolarity,Positive*%
%FSLAX46Y46*%
G04 Gerber Fmt 4.6, Leading zero omitted, Abs format (unit mm)*
G04 Created by KiCad (PCBNEW (6.0.0-0)) date 2022-03-11 11:56:05*
%MOMM*%
%LPD*%
G01*
G04 APERTURE LIST*
G04 Aperture macros list*
%AMRotRect*
0 Rectangle, with rotation*
0 The origin of the aperture is its center*
0 $1 length*
0 $2 width*
0 $3 Rotation angle, in degrees counterclockwise*
0 Add horizontal line*
21,1,$1,$2,0,0,$3*%
G04 Aperture macros list end*
%TA.AperFunction,SMDPad,CuDef*%
%ADD10RotRect,2.000000X3.500000X135.000000*%
%TD*%
%TA.AperFunction,SMDPad,CuDef*%
%ADD11RotRect,2.000000X3.500000X45.000000*%
%TD*%
%TA.AperFunction,SMDPad,CuDef*%
%ADD12RotRect,2.000000X3.500000X315.000000*%
%TD*%
%TA.AperFunction,SMDPad,CuDef*%
%ADD13RotRect,2.000000X3.500000X225.000000*%
%TD*%
%TA.AperFunction,Conductor*%
%ADD14C,0.250000*%
%TD*%
G04 APERTURE END LIST*
D10*
%TO.P,U3,1,5V*%
%TO.N,unconnected-(U3-Pad1)*%
X98347327Y-79717326D03*
%TO.P,U3,2,Data*%
%TO.N,Net-(U1-Pad2)*%
X96222400Y-77592400D03*
%TO.P,U3,3,GND*%
%TO.N,unconnected-(U3-Pad3)*%
X94130000Y-75500000D03*
%TD*%
D11*
%TO.P,U2,1,5V*%
%TO.N,unconnected-(U2-Pad1)*%
X94085074Y-68964927D03*
%TO.P,U2,2,Data*%
%TO.N,Net-(U2-Pad2)*%
X96210000Y-66840000D03*
%TO.P,U2,3,GND*%
%TO.N,unconnected-(U2-Pad3)*%
X98302400Y-64747600D03*
%TD*%
D12*
%TO.P,U4,1,5V*%
%TO.N,unconnected-(U4-Pad1)*%
X104880000Y-64750000D03*
%TO.P,U4,2,Data*%
%TO.N,Net-(U2-Pad2)*%
X107004927Y-66874926D03*
%TO.P,U4,3,GND*%
%TO.N,unconnected-(U4-Pad3)*%
X109097327Y-68967326D03*
%TD*%
D13*
%TO.P,U1,1,5V*%
%TO.N,unconnected-(U1-Pad1)*%
X109124926Y-75425073D03*
%TO.P,U1,2,Data*%
%TO.N,Net-(U1-Pad2)*%
X107000000Y-77550000D03*
%TO.P,U1,3,GND*%
%TO.N,unconnected-(U1-Pad3)*%
X104907600Y-79642400D03*
%TD*%
D14*
%TO.N,Net-(U1-Pad2)*%
X94150000Y-80660000D02*
X94150000Y-79664800D01*
X96900000Y-83410000D02*
X94150000Y-80660000D01*
X94150000Y-79664800D02*
X96222400Y-77592400D01*
X108970000Y-80520000D02*
X106080000Y-83410000D01*
X108970000Y-79520000D02*
X108970000Y-80520000D01*
X107000000Y-77550000D02*
X108970000Y-79520000D01*
X106080000Y-83410000D02*
X96900000Y-83410000D01*
%TO.N,Net-(U2-Pad2)*%
X97028000Y-60817598D02*
X106117598Y-60817598D01*
X108860000Y-65019853D02*
X107004927Y-66874926D01*
X94615000Y-63230598D02*
X97028000Y-60817598D01*
X94615000Y-65245000D02*
X94615000Y-63230598D01*
X96210000Y-66840000D02*
X94615000Y-65245000D01*
X106117598Y-60817598D02*
X108860000Y-63560000D01*
X108860000Y-63560000D02*
X108860000Y-65019853D01*
%TD*%
M02*
