<?xml version="1.0" encoding="UTF-8" standalone="no"?>
<!DOCTYPE svg PUBLIC "-//W3C//DTD SVG 1.1//EN" "http://www.w3.org/Graphics/SVG/1.1/DTD/svg11.dtd">
<svg width="100%" height="100%" viewBox="0 0 420 596" version="1.1" xmlns="http://www.w3.org/2000/svg" xmlns:xlink="http://www.w3.org/1999/xlink" xml:space="preserve" xmlns:serif="http://www.serif.com/" style="fill-rule:evenodd;clip-rule:evenodd;stroke-linecap:round;stroke-linejoin:round;">
    <g>
        <path d="M181.605,251.116L183.022,251.116" style="fill:none;fill-rule:nonzero;stroke:black;stroke-width:0.03px;"/>
        <path d="M183.022,251.116L183.022,251.966" style="fill:none;fill-rule:nonzero;stroke:black;stroke-width:0.03px;"/>
        <path d="M183.022,251.966L181.605,251.966" style="fill:none;fill-rule:nonzero;stroke:black;stroke-width:0.03px;"/>
        <path d="M181.605,251.966L181.605,251.116" style="fill:none;fill-rule:nonzero;stroke:black;stroke-width:0.03px;"/>
    </g>
    <g>
        <rect x="181.605" y="251.116" width="1.417" height="0.85" style="stroke:black;stroke-width:0.03px;"/>
    </g>
    <g>
        <path d="M181.605,252.958L183.022,252.958" style="fill:none;fill-rule:nonzero;stroke:black;stroke-width:0.03px;"/>
        <path d="M183.022,252.958L183.022,253.809" style="fill:none;fill-rule:nonzero;stroke:black;stroke-width:0.03px;"/>
        <path d="M183.022,253.809L181.605,253.809" style="fill:none;fill-rule:nonzero;stroke:black;stroke-width:0.03px;"/>
        <path d="M181.605,253.809L181.605,252.958" style="fill:none;fill-rule:nonzero;stroke:black;stroke-width:0.03px;"/>
    </g>
    <g>
        <rect x="181.605" y="252.958" width="1.417" height="0.85" style="stroke:black;stroke-width:0.03px;"/>
    </g>
    <g>
        <path d="M181.605,254.801L183.022,254.801" style="fill:none;fill-rule:nonzero;stroke:black;stroke-width:0.03px;"/>
        <path d="M183.022,254.801L183.022,255.651" style="fill:none;fill-rule:nonzero;stroke:black;stroke-width:0.03px;"/>
        <path d="M183.022,255.651L181.605,255.651" style="fill:none;fill-rule:nonzero;stroke:black;stroke-width:0.03px;"/>
        <path d="M181.605,255.651L181.605,254.801" style="fill:none;fill-rule:nonzero;stroke:black;stroke-width:0.03px;"/>
    </g>
    <g>
        <rect x="181.605" y="254.801" width="1.417" height="0.85" style="stroke:black;stroke-width:0.03px;"/>
    </g>
    <g>
        <path d="M175.51,251.116L176.928,251.116" style="fill:none;fill-rule:nonzero;stroke:black;stroke-width:0.03px;"/>
        <path d="M176.928,251.116L176.928,251.966" style="fill:none;fill-rule:nonzero;stroke:black;stroke-width:0.03px;"/>
        <path d="M176.928,251.966L175.51,251.966" style="fill:none;fill-rule:nonzero;stroke:black;stroke-width:0.03px;"/>
        <path d="M175.51,251.966L175.51,251.116" style="fill:none;fill-rule:nonzero;stroke:black;stroke-width:0.03px;"/>
    </g>
    <g>
        <rect x="175.51" y="251.116" width="1.417" height="0.85" style="stroke:black;stroke-width:0.03px;"/>
    </g>
    <g>
        <path d="M175.51,254.801L176.928,254.801" style="fill:none;fill-rule:nonzero;stroke:black;stroke-width:0.03px;"/>
        <path d="M176.928,254.801L176.928,255.651" style="fill:none;fill-rule:nonzero;stroke:black;stroke-width:0.03px;"/>
        <path d="M176.928,255.651L175.51,255.651" style="fill:none;fill-rule:nonzero;stroke:black;stroke-width:0.03px;"/>
        <path d="M175.51,255.651L175.51,254.801" style="fill:none;fill-rule:nonzero;stroke:black;stroke-width:0.03px;"/>
    </g>
    <g>
        <rect x="175.51" y="254.801" width="1.417" height="0.85" style="stroke:black;stroke-width:0.03px;"/>
    </g>
    <g>
        <path d="M175.51,252.958L176.928,252.958" style="fill:none;fill-rule:nonzero;stroke:black;stroke-width:0.03px;"/>
        <path d="M176.928,252.958L176.928,253.809" style="fill:none;fill-rule:nonzero;stroke:black;stroke-width:0.03px;"/>
        <path d="M176.928,253.809L175.51,253.809" style="fill:none;fill-rule:nonzero;stroke:black;stroke-width:0.03px;"/>
        <path d="M175.51,253.809L175.51,252.958" style="fill:none;fill-rule:nonzero;stroke:black;stroke-width:0.03px;"/>
    </g>
    <g>
        <rect x="175.51" y="252.958" width="1.417" height="0.85" style="stroke:black;stroke-width:0.03px;"/>
        <g>
            <path d="M250.356,200.601L250.305,200.858L250.159,201.077L249.94,201.223L249.683,201.274L248.265,201.274L248.008,201.223L247.789,201.077L247.643,200.858L247.592,200.601L247.592,199.254L247.643,198.997L247.789,198.778L248.008,198.632L248.265,198.581L249.683,198.581L249.94,198.632L250.159,198.778L250.305,198.997L250.356,199.254L250.356,200.601Z"/>
            <path d="M245.183,200.601L245.131,200.858L244.985,201.077L244.767,201.223L244.509,201.274L243.092,201.274L242.834,201.223L242.616,201.077L242.47,200.858L242.419,200.601L242.419,199.254L242.47,198.997L242.616,198.778L242.834,198.632L243.092,198.581L244.509,198.581L244.767,198.632L244.985,198.778L245.131,198.997L245.183,199.254L245.183,200.601Z"/>
        </g>
        <g>
            <path d="M200.197,287.206L200.164,287.369L200.072,287.507L199.934,287.599L199.772,287.631L196.441,287.631L196.278,287.599L196.14,287.507L196.048,287.369L196.016,287.206L196.016,286.356L196.048,286.193L196.14,286.055L196.278,285.963L196.441,285.931L199.772,285.931L199.934,285.963L200.072,286.055L200.164,286.193L200.197,286.356L200.197,287.206Z"/>
            <path d="M200.197,281.82L200.164,281.983L200.072,282.121L199.934,282.213L199.772,282.246L196.441,282.246L196.278,282.213L196.14,282.121L196.048,281.983L196.016,281.82L196.016,280.97L196.048,280.807L196.14,280.669L196.278,280.577L196.441,280.545L199.772,280.545L199.934,280.577L200.072,280.669L200.164,280.807L200.197,280.97L200.197,281.82Z"/>
            <path d="M194.882,284.513L194.85,284.676L194.757,284.814L194.619,284.906L194.457,284.939L191.126,284.939L190.963,284.906L190.825,284.814L190.733,284.676L190.701,284.513L190.701,283.663L190.733,283.5L190.825,283.362L190.963,283.27L191.126,283.238L194.457,283.238L194.619,283.27L194.757,283.362L194.85,283.5L194.882,283.663L194.882,284.513Z"/>
        </g>
        <g>
            <path d="M161.313,342.709L161.57,342.76L161.789,342.906L161.935,343.124L161.986,343.382L161.986,344.799L161.935,345.057L161.789,345.275L161.57,345.421L161.313,345.472L159.966,345.472L159.709,345.421L159.49,345.275L159.344,345.057L159.293,344.799L159.293,343.382L159.344,343.124L159.49,342.906L159.709,342.76L159.966,342.709L161.313,342.709Z"/>
            <path d="M161.313,347.882L161.57,347.933L161.789,348.079L161.935,348.297L161.986,348.555L161.986,349.972L161.935,350.23L161.789,350.448L161.57,350.594L161.313,350.646L159.966,350.646L159.709,350.594L159.49,350.448L159.344,350.23L159.293,349.972L159.293,348.555L159.344,348.297L159.49,348.079L159.709,347.933L159.966,347.882L161.313,347.882Z"/>
        </g>
        <g>
            <path d="M209.367,290.906L209.204,290.873L209.066,290.781L208.974,290.643L208.942,290.48L208.942,287.15L208.974,286.987L209.066,286.849L209.204,286.757L209.367,286.724L210.217,286.724L210.38,286.757L210.518,286.849L210.61,286.987L210.643,287.15L210.643,290.48L210.61,290.643L210.518,290.781L210.38,290.873L210.217,290.906L209.367,290.906Z"/>
            <path d="M214.753,290.906L214.59,290.873L214.452,290.781L214.36,290.643L214.328,290.48L214.328,287.15L214.36,286.987L214.452,286.849L214.59,286.757L214.753,286.724L215.603,286.724L215.766,286.757L215.904,286.849L215.996,286.987L216.028,287.15L216.028,290.48L215.996,290.643L215.904,290.781L215.766,290.873L215.603,290.906L214.753,290.906Z"/>
            <path d="M212.06,285.591L211.897,285.558L211.759,285.466L211.667,285.328L211.635,285.165L211.635,281.835L211.667,281.672L211.759,281.534L211.897,281.442L212.06,281.409L212.91,281.409L213.073,281.442L213.211,281.534L213.303,281.672L213.335,281.835L213.335,285.165L213.303,285.328L213.211,285.466L213.073,285.558L212.91,285.591L212.06,285.591Z"/>
        </g>
        <g>
            <path d="M215.046,356.54L214.992,356.811L214.839,357.041L214.609,357.195L214.338,357.249L212.07,357.249L211.799,357.195L211.569,357.041L211.415,356.811L211.361,356.54L211.361,348.32L211.415,348.048L211.569,347.819L211.799,347.665L212.07,347.611L214.338,347.611L214.609,347.665L214.839,347.819L214.992,348.048L215.046,348.32L215.046,356.54Z"/>
            <path d="M202.432,356.54L202.378,356.811L202.225,357.041L201.995,357.195L201.724,357.249L199.456,357.249L199.185,357.195L198.955,357.041L198.801,356.811L198.747,356.54L198.747,348.32L198.801,348.048L198.955,347.819L199.185,347.665L199.456,347.611L201.724,347.611L201.995,347.665L202.225,347.819L202.378,348.048L202.432,348.32L202.432,356.54Z"/>
        </g>
        <g>
            <path d="M240.265,311.06L240.427,311.092L240.565,311.184L240.657,311.322L240.69,311.485L240.69,314.816L240.657,314.978L240.565,315.116L240.427,315.209L240.265,315.241L239.414,315.241L239.251,315.209L239.114,315.116L239.021,314.978L238.989,314.816L238.989,311.485L239.021,311.322L239.114,311.184L239.251,311.092L239.414,311.06L240.265,311.06Z"/>
            <path d="M234.879,311.06L235.041,311.092L235.179,311.184L235.272,311.322L235.304,311.485L235.304,314.816L235.272,314.978L235.179,315.116L235.041,315.209L234.879,315.241L234.028,315.241L233.866,315.209L233.728,315.116L233.636,314.978L233.603,314.816L233.603,311.485L233.636,311.322L233.728,311.184L233.866,311.092L234.028,311.06L234.879,311.06Z"/>
            <path d="M237.572,316.375L237.734,316.407L237.872,316.499L237.964,316.637L237.997,316.8L237.997,320.131L237.964,320.293L237.872,320.431L237.734,320.524L237.572,320.556L236.721,320.556L236.559,320.524L236.421,320.431L236.328,320.293L236.296,320.131L236.296,316.8L236.328,316.637L236.421,316.499L236.559,316.407L236.721,316.375L237.572,316.375Z"/>
        </g>
        <g>
            <path d="M205.958,281.367L206.216,281.418L206.434,281.564L206.58,281.783L206.631,282.04L206.631,283.457L206.58,283.715L206.434,283.934L206.216,284.079L205.958,284.131L204.612,284.131L204.354,284.079L204.136,283.934L203.99,283.715L203.939,283.457L203.939,282.04L203.99,281.783L204.136,281.564L204.354,281.418L204.612,281.367L205.958,281.367Z"/>
            <path d="M205.958,286.54L206.216,286.591L206.434,286.737L206.58,286.956L206.631,287.213L206.631,288.631L206.58,288.888L206.434,289.107L206.216,289.253L205.958,289.304L204.612,289.304L204.354,289.253L204.136,289.107L203.99,288.888L203.939,288.631L203.939,287.213L203.99,286.956L204.136,286.737L204.354,286.591L204.612,286.54L205.958,286.54Z"/>
        </g>
        <g>
            <path d="M219.373,290.877L219.211,290.845L219.073,290.753L218.98,290.615L218.948,290.452L218.948,287.121L218.98,286.959L219.073,286.821L219.211,286.728L219.373,286.696L220.224,286.696L220.386,286.728L220.524,286.821L220.616,286.959L220.649,287.121L220.649,290.452L220.616,290.615L220.524,290.753L220.386,290.845L220.224,290.877L219.373,290.877Z"/>
            <path d="M224.759,290.877L224.596,290.845L224.458,290.753L224.366,290.615L224.334,290.452L224.334,287.121L224.366,286.959L224.458,286.821L224.596,286.728L224.759,286.696L225.609,286.696L225.772,286.728L225.91,286.821L226.002,286.959L226.035,287.121L226.035,290.452L226.002,290.615L225.91,290.753L225.772,290.845L225.609,290.877L224.759,290.877Z"/>
            <path d="M222.066,285.562L221.903,285.53L221.765,285.438L221.673,285.3L221.641,285.137L221.641,281.806L221.673,281.644L221.765,281.506L221.903,281.413L222.066,281.381L222.917,281.381L223.079,281.413L223.217,281.506L223.309,281.644L223.342,281.806L223.342,285.137L223.309,285.3L223.217,285.438L223.079,285.53L222.917,285.562L222.066,285.562Z"/>
        </g>
        <g>
            <path d="M181.106,267.235L181.054,267.492L180.908,267.711L180.69,267.857L180.432,267.908L178.731,267.908L178.474,267.857L178.255,267.711L178.11,267.492L178.058,267.235L178.058,265.888L178.11,265.631L178.255,265.412L178.474,265.266L178.731,265.215L180.432,265.215L180.69,265.266L180.908,265.412L181.054,265.631L181.106,265.888L181.106,267.235Z"/>
            <path d="M176.216,267.235L176.165,267.492L176.019,267.711L175.8,267.857L175.543,267.908L173.842,267.908L173.584,267.857L173.366,267.711L173.22,267.492L173.169,267.235L173.169,265.888L173.22,265.631L173.366,265.412L173.584,265.266L173.842,265.215L175.543,265.215L175.8,265.266L176.019,265.412L176.165,265.631L176.216,265.888L176.216,267.235Z"/>
        </g>
        <g>
            <rect x="173.169" y="291.175" width="2.551" height="4.252"/>
            <rect x="173.169" y="301.946" width="2.551" height="4.252"/>
            <rect x="177.42" y="301.946" width="2.551" height="4.252"/>
            <rect x="177.42" y="291.175" width="2.551" height="4.252"/>
        </g>
        <g>
            <path d="M171.394,262.166L171.136,262.114L170.918,261.968L170.772,261.75L170.721,261.492L170.721,259.792L170.772,259.534L170.918,259.316L171.136,259.17L171.394,259.118L172.74,259.118L172.998,259.17L173.217,259.316L173.362,259.534L173.414,259.792L173.414,261.492L173.362,261.75L173.217,261.968L172.998,262.114L172.74,262.166L171.394,262.166Z"/>
            <path d="M171.394,257.276L171.136,257.225L170.918,257.079L170.772,256.86L170.721,256.603L170.721,254.902L170.772,254.644L170.918,254.426L171.136,254.28L171.394,254.229L172.74,254.229L172.998,254.28L173.217,254.426L173.362,254.644L173.414,254.902L173.414,256.603L173.362,256.86L173.217,257.079L172.998,257.225L172.74,257.276L171.394,257.276Z"/>
        </g>
        <g>
            <path d="M242.221,175.238L242.479,175.29L242.697,175.436L242.843,175.654L242.895,175.912L242.895,177.612L242.843,177.87L242.697,178.088L242.479,178.234L242.221,178.286L240.875,178.286L240.617,178.234L240.399,178.088L240.253,177.87L240.202,177.612L240.202,175.912L240.253,175.654L240.399,175.436L240.617,175.29L240.875,175.238L242.221,175.238Z"/>
            <path d="M242.221,180.128L242.479,180.179L242.697,180.325L242.843,180.544L242.895,180.801L242.895,182.502L242.843,182.76L242.697,182.978L242.479,183.124L242.221,183.175L240.875,183.175L240.617,183.124L240.399,182.978L240.253,182.76L240.202,182.502L240.202,180.801L240.253,180.544L240.399,180.325L240.617,180.179L240.875,180.128L242.221,180.128Z"/>
        </g>
        <g>
            <rect x="177.846" y="269.858" width="2.551" height="4.252"/>
            <rect x="177.846" y="280.63" width="2.551" height="4.252"/>
            <rect x="173.594" y="280.63" width="2.551" height="4.252"/>
            <rect x="173.594" y="269.858" width="2.551" height="4.252"/>
        </g>
        <g>
            <path d="M203.984,315.231L203.933,315.489L203.787,315.707L203.569,315.853L203.311,315.904L201.61,315.904L201.353,315.853L201.134,315.707L200.988,315.489L200.937,315.231L200.937,313.885L200.988,313.627L201.134,313.409L201.353,313.263L201.61,313.211L203.311,313.211L203.569,313.263L203.787,313.409L203.933,313.627L203.984,313.885L203.984,315.231Z"/>
            <path d="M199.094,315.231L199.043,315.489L198.897,315.707L198.679,315.853L198.421,315.904L196.72,315.904L196.463,315.853L196.244,315.707L196.098,315.489L196.047,315.231L196.047,313.885L196.098,313.627L196.244,313.409L196.463,313.263L196.72,313.211L198.421,313.211L198.679,313.263L198.897,313.409L199.043,313.627L199.094,313.885L199.094,315.231Z"/>
        </g>
        <g>
            <path d="M228.933,288.397L228.675,288.346L228.457,288.2L228.311,287.981L228.26,287.724L228.26,286.306L228.311,286.049L228.457,285.83L228.675,285.684L228.933,285.633L230.28,285.633L230.537,285.684L230.756,285.83L230.902,286.049L230.953,286.306L230.953,287.724L230.902,287.981L230.756,288.2L230.537,288.346L230.28,288.397L228.933,288.397Z"/>
            <path d="M228.933,283.224L228.675,283.172L228.457,283.026L228.311,282.808L228.26,282.55L228.26,281.133L228.311,280.875L228.457,280.657L228.675,280.511L228.933,280.46L230.28,280.46L230.537,280.511L230.756,280.657L230.902,280.875L230.953,281.133L230.953,282.55L230.902,282.808L230.756,283.026L230.537,283.172L230.28,283.224L228.933,283.224Z"/>
        </g>
        <g>
            <path d="M231.987,219.565L232.039,219.307L232.185,219.089L232.403,218.943L232.661,218.891L234.361,218.891L234.619,218.943L234.837,219.089L234.983,219.307L235.035,219.565L235.035,220.911L234.983,221.169L234.837,221.387L234.619,221.533L234.361,221.584L232.661,221.584L232.403,221.533L232.185,221.387L232.039,221.169L231.987,220.911L231.987,219.565Z"/>
            <path d="M236.877,219.565L236.928,219.307L237.074,219.089L237.293,218.943L237.55,218.891L239.251,218.891L239.509,218.943L239.727,219.089L239.873,219.307L239.924,219.565L239.924,220.911L239.873,221.169L239.727,221.387L239.509,221.533L239.251,221.584L237.55,221.584L237.293,221.533L237.074,221.387L236.928,221.169L236.877,220.911L236.877,219.565Z"/>
        </g>
        <g>
            <rect x="201.699" y="365.822" width="1.701" height="3.685"/>
            <rect x="203.966" y="365.822" width="1.701" height="3.685"/>
            <rect x="207.651" y="365.822" width="0.85" height="3.685"/>
            <rect x="210.486" y="365.822" width="0.85" height="3.685"/>
            <rect x="211.903" y="365.822" width="0.85" height="3.685"/>
            <rect x="214.738" y="365.822" width="0.85" height="3.685"/>
            <rect x="219.84" y="365.822" width="1.701" height="3.685"/>
            <rect x="217.573" y="365.822" width="1.701" height="3.685"/>
            <rect x="216.155" y="365.822" width="0.85" height="3.685"/>
            <rect x="213.321" y="365.822" width="0.85" height="3.685"/>
            <rect x="209.069" y="365.822" width="0.85" height="3.685"/>
            <rect x="206.234" y="365.822" width="0.85" height="3.685"/>
        </g>
        <g>
            <rect x="245.855" y="191.087" width="1.008" height="4.752"/>
            <rect x="247.698" y="191.087" width="1.008" height="4.752"/>
            <rect x="249.54" y="191.087" width="1.008" height="4.752"/>
            <rect x="251.383" y="191.087" width="1.008" height="4.752"/>
            <rect x="253.225" y="191.087" width="1.008" height="4.752"/>
            <rect x="255.068" y="191.087" width="1.008" height="4.752"/>
            <rect x="256.91" y="191.087" width="1.008" height="4.752"/>
            <rect x="256.91" y="175.103" width="1.008" height="4.752"/>
            <rect x="255.068" y="175.103" width="1.008" height="4.752"/>
            <rect x="253.225" y="175.103" width="1.008" height="4.752"/>
            <rect x="251.383" y="175.103" width="1.008" height="4.752"/>
            <rect x="249.54" y="175.103" width="1.008" height="4.752"/>
            <rect x="247.698" y="175.103" width="1.008" height="4.752"/>
            <rect x="245.855" y="175.103" width="1.008" height="4.752"/>
        </g>
        <g>
            <path d="M172.949,287.724L173,287.466L173.146,287.248L173.364,287.102L173.622,287.05L175.039,287.05L175.297,287.102L175.515,287.248L175.661,287.466L175.713,287.724L175.713,289.07L175.661,289.328L175.515,289.546L175.297,289.692L175.039,289.743L173.622,289.743L173.364,289.692L173.146,289.546L173,289.328L172.949,289.07L172.949,287.724Z"/>
            <path d="M178.122,287.724L178.173,287.466L178.319,287.248L178.538,287.102L178.795,287.05L180.213,287.05L180.47,287.102L180.689,287.248L180.835,287.466L180.886,287.724L180.886,289.07L180.835,289.328L180.689,289.546L180.47,289.692L180.213,289.743L178.795,289.743L178.538,289.692L178.319,289.546L178.173,289.328L178.122,289.07L178.122,287.724Z"/>
        </g>
        <g>
            <path d="M240.924,294.059L240.872,294.317L240.726,294.535L240.508,294.681L240.25,294.732L238.55,294.732L238.292,294.681L238.074,294.535L237.928,294.317L237.876,294.059L237.876,292.713L237.928,292.455L238.074,292.237L238.292,292.091L238.55,292.039L240.25,292.039L240.508,292.091L240.726,292.237L240.872,292.455L240.924,292.713L240.924,294.059Z"/>
            <path d="M236.034,294.059L235.983,294.317L235.837,294.535L235.618,294.681L235.361,294.732L233.66,294.732L233.402,294.681L233.184,294.535L233.038,294.317L232.987,294.059L232.987,292.713L233.038,292.455L233.184,292.237L233.402,292.091L233.66,292.039L235.361,292.039L235.618,292.091L235.837,292.237L235.983,292.455L236.034,292.713L236.034,294.059Z"/>
        </g>
        <g>
            <rect x="237.717" y="224.456" width="2.551" height="5.669"/>
            <rect x="234.117" y="224.456" width="2.551" height="5.669"/>
            <rect x="230.517" y="224.456" width="2.551" height="5.669"/>
            <rect x="226.917" y="224.456" width="2.551" height="5.669"/>
            <rect x="223.317" y="224.456" width="2.551" height="5.669"/>
            <rect x="219.717" y="224.456" width="2.551" height="5.669"/>
            <rect x="216.117" y="224.456" width="2.551" height="5.669"/>
            <rect x="212.517" y="224.456" width="2.551" height="5.669"/>
            <rect x="208.917" y="224.456" width="2.551" height="5.669"/>
            <rect x="205.317" y="224.456" width="2.551" height="5.669"/>
            <rect x="201.717" y="224.456" width="2.551" height="5.669"/>
            <rect x="198.117" y="224.456" width="2.551" height="5.669"/>
            <rect x="194.517" y="224.456" width="2.551" height="5.669"/>
            <rect x="190.917" y="224.456" width="2.551" height="5.669"/>
            <rect x="186.523" y="233.909" width="5.669" height="2.551"/>
            <rect x="186.523" y="237.509" width="5.669" height="2.551"/>
            <rect x="186.523" y="241.109" width="5.669" height="2.551"/>
            <rect x="186.523" y="244.709" width="5.669" height="2.551"/>
            <rect x="186.523" y="248.309" width="5.669" height="2.551"/>
            <rect x="186.523" y="251.909" width="5.669" height="2.551"/>
            <rect x="186.523" y="255.509" width="5.669" height="2.551"/>
            <rect x="186.523" y="259.109" width="5.669" height="2.551"/>
            <rect x="186.523" y="262.709" width="5.669" height="2.551"/>
            <rect x="186.523" y="266.309" width="5.669" height="2.551"/>
            <rect x="190.917" y="272.645" width="2.551" height="5.669"/>
            <rect x="194.517" y="272.645" width="2.551" height="5.669"/>
            <rect x="198.117" y="272.645" width="2.551" height="5.669"/>
            <rect x="201.717" y="272.645" width="2.551" height="5.669"/>
            <rect x="205.317" y="272.645" width="2.551" height="5.669"/>
            <rect x="208.917" y="272.645" width="2.551" height="5.669"/>
            <rect x="212.517" y="272.645" width="2.551" height="5.669"/>
            <rect x="216.117" y="272.645" width="2.551" height="5.669"/>
            <rect x="219.717" y="272.645" width="2.551" height="5.669"/>
            <rect x="223.317" y="272.645" width="2.551" height="5.669"/>
            <rect x="226.917" y="272.645" width="2.551" height="5.669"/>
            <rect x="230.517" y="272.645" width="2.551" height="5.669"/>
            <rect x="234.117" y="272.645" width="2.551" height="5.669"/>
            <rect x="237.717" y="272.645" width="2.551" height="5.669"/>
            <rect x="221.049" y="241.464" width="3.77" height="3.77"/>
            <rect x="221.049" y="246.665" width="3.77" height="3.77"/>
            <rect x="221.049" y="251.867" width="3.77" height="3.77"/>
            <rect x="215.848" y="241.464" width="3.77" height="3.77"/>
            <rect x="215.848" y="246.665" width="3.77" height="3.77"/>
            <rect x="215.848" y="251.867" width="3.77" height="3.77"/>
            <rect x="210.646" y="241.464" width="3.77" height="3.77"/>
            <rect x="210.646" y="246.665" width="3.77" height="3.77"/>
            <rect x="210.646" y="251.867" width="3.77" height="3.77"/>
        </g>
        <g>
            <path d="M183.47,248.127L183.418,248.385L183.272,248.603L183.054,248.749L182.796,248.8L181.379,248.8L181.121,248.749L180.903,248.603L180.757,248.385L180.706,248.127L180.706,246.781L180.757,246.523L180.903,246.305L181.121,246.159L181.379,246.107L182.796,246.107L183.054,246.159L183.272,246.305L183.418,246.523L183.47,246.781L183.47,248.127Z"/>
            <path d="M178.296,248.127L178.245,248.385L178.099,248.603L177.881,248.749L177.623,248.8L176.206,248.8L175.948,248.749L175.73,248.603L175.584,248.385L175.533,248.127L175.533,246.781L175.584,246.523L175.73,246.305L175.948,246.159L176.206,246.107L177.623,246.107L177.881,246.159L178.099,246.305L178.245,246.523L178.296,246.781L178.296,248.127Z"/>
        </g>
        <g>
            <rect x="189.156" y="302.343" width="2.551" height="2.551"/>
            <rect x="192.274" y="305.461" width="2.551" height="2.551"/>
            <rect x="192.274" y="302.343" width="2.551" height="2.551"/>
            <rect x="186.038" y="302.343" width="2.551" height="2.551"/>
            <rect x="186.038" y="299.225" width="2.551" height="2.551"/>
            <rect x="189.156" y="299.225" width="2.551" height="2.551"/>
            <rect x="192.274" y="299.225" width="2.551" height="2.551"/>
            <rect x="186.038" y="305.461" width="2.551" height="2.551"/>
            <rect x="189.156" y="305.461" width="2.551" height="2.551"/>
            <rect x="194.329" y="295.54" width="0.709" height="2.551"/>
            <rect x="192.912" y="295.54" width="0.709" height="2.551"/>
            <rect x="191.494" y="295.54" width="0.709" height="2.551"/>
            <rect x="190.077" y="295.54" width="0.709" height="2.551"/>
            <rect x="188.66" y="295.54" width="0.709" height="2.551"/>
            <rect x="187.243" y="295.54" width="0.709" height="2.551"/>
            <rect x="185.825" y="295.54" width="0.709" height="2.551"/>
            <rect x="182.353" y="299.013" width="2.551" height="0.709"/>
            <rect x="182.353" y="300.43" width="2.551" height="0.709"/>
            <rect x="182.353" y="301.847" width="2.551" height="0.709"/>
            <rect x="182.353" y="303.265" width="2.551" height="0.709"/>
            <rect x="182.353" y="304.682" width="2.551" height="0.709"/>
            <rect x="182.353" y="306.099" width="2.551" height="0.709"/>
            <rect x="182.353" y="307.517" width="2.551" height="0.709"/>
            <rect x="185.825" y="309.146" width="0.709" height="2.551"/>
            <rect x="187.243" y="309.146" width="0.709" height="2.551"/>
            <rect x="188.66" y="309.146" width="0.709" height="2.551"/>
            <rect x="190.077" y="309.146" width="0.709" height="2.551"/>
            <rect x="191.494" y="309.146" width="0.709" height="2.551"/>
            <rect x="192.912" y="309.146" width="0.709" height="2.551"/>
            <rect x="194.329" y="309.146" width="0.709" height="2.551"/>
            <rect x="195.959" y="307.517" width="2.551" height="0.709"/>
            <rect x="195.959" y="306.099" width="2.551" height="0.709"/>
            <rect x="195.959" y="304.682" width="2.551" height="0.709"/>
            <rect x="195.959" y="303.265" width="2.551" height="0.709"/>
            <rect x="195.959" y="301.847" width="2.551" height="0.709"/>
            <rect x="195.959" y="300.43" width="2.551" height="0.709"/>
            <rect x="195.959" y="299.013" width="2.551" height="0.709"/>
        </g>
        <g>
            <path d="M165.763,342.765L166.021,342.817L166.239,342.963L166.385,343.181L166.436,343.439L166.436,344.856L166.385,345.114L166.239,345.332L166.021,345.478L165.763,345.529L164.417,345.529L164.159,345.478L163.94,345.332L163.795,345.114L163.743,344.856L163.743,343.439L163.795,343.181L163.94,342.963L164.159,342.817L164.417,342.765L165.763,342.765Z"/>
            <path d="M165.763,347.939L166.021,347.99L166.239,348.136L166.385,348.354L166.436,348.612L166.436,350.029L166.385,350.287L166.239,350.505L166.021,350.651L165.763,350.702L164.417,350.702L164.159,350.651L163.94,350.505L163.795,350.287L163.743,350.029L163.743,348.612L163.795,348.354L163.94,348.136L164.159,347.99L164.417,347.939L165.763,347.939Z"/>
        </g>
        <g>
            <path d="M188.844,324.227L189.115,324.281L189.345,324.434L189.499,324.664L189.553,324.935L189.553,333.439L189.499,333.711L189.345,333.94L189.115,334.094L188.844,334.148L185.726,334.148L185.455,334.094L185.225,333.94L185.071,333.711L185.017,333.439L185.017,324.935L185.071,324.664L185.225,324.434L185.455,324.281L185.726,324.227L188.844,324.227Z"/>
            <path d="M188.844,340.101L189.115,340.155L189.345,340.308L189.499,340.538L189.553,340.809L189.553,349.313L189.499,349.585L189.345,349.814L189.115,349.968L188.844,350.022L185.726,350.022L185.455,349.968L185.225,349.814L185.071,349.585L185.017,349.313L185.017,340.809L185.071,340.538L185.225,340.308L185.455,340.155L185.726,340.101L188.844,340.101Z"/>
        </g>
        <g>
            <path d="M184.252,214.838L184.198,215.109L184.044,215.339L183.815,215.493L183.543,215.546L175.039,215.546L174.768,215.493L174.538,215.339L174.385,215.109L174.331,214.838L174.331,211.72L174.385,211.448L174.538,211.219L174.768,211.065L175.039,211.011L183.543,211.011L183.815,211.065L184.044,211.219L184.198,211.448L184.252,211.72L184.252,214.838Z"/>
            <path d="M168.378,214.838L168.324,215.109L168.17,215.339L167.94,215.493L167.669,215.546L159.165,215.546L158.894,215.493L158.664,215.339L158.511,215.109L158.457,214.838L158.457,211.72L158.511,211.448L158.664,211.219L158.894,211.065L159.165,211.011L167.669,211.011L167.94,211.065L168.17,211.219L168.324,211.448L168.378,211.72L168.378,214.838Z"/>
        </g>
        <g>
            <path d="M222.165,316.028L222.114,316.285L221.968,316.504L221.75,316.65L221.492,316.701L219.791,316.701L219.534,316.65L219.315,316.504L219.169,316.285L219.118,316.028L219.118,314.681L219.169,314.423L219.315,314.205L219.534,314.059L219.791,314.008L221.492,314.008L221.75,314.059L221.968,314.205L222.114,314.423L222.165,314.681L222.165,316.028Z"/>
            <path d="M217.276,316.028L217.224,316.285L217.078,316.504L216.86,316.65L216.602,316.701L214.902,316.701L214.644,316.65L214.426,316.504L214.28,316.285L214.228,316.028L214.228,314.681L214.28,314.423L214.426,314.205L214.644,314.059L214.902,314.008L216.602,314.008L216.86,314.059L217.078,314.205L217.224,314.423L217.276,314.681L217.276,316.028Z"/>
        </g>
        <g>
            <rect x="214.193" y="293.981" width="5.669" height="4.252"/>
            <rect x="214.193" y="300.501" width="5.669" height="4.252"/>
            <rect x="214.193" y="307.02" width="5.669" height="4.252"/>
            <rect x="232.051" y="297.241" width="5.669" height="10.772"/>
        </g>
        <g>
            <path d="M196.044,318.565L196.095,318.307L196.241,318.089L196.46,317.943L196.717,317.891L198.418,317.891L198.676,317.943L198.894,318.089L199.04,318.307L199.091,318.565L199.091,319.911L199.04,320.169L198.894,320.387L198.676,320.533L198.418,320.584L196.717,320.584L196.46,320.533L196.241,320.387L196.095,320.169L196.044,319.911L196.044,318.565Z"/>
            <path d="M200.934,318.565L200.985,318.307L201.131,318.089L201.349,317.943L201.607,317.891L203.308,317.891L203.566,317.943L203.784,318.089L203.93,318.307L203.981,318.565L203.981,319.911L203.93,320.169L203.784,320.387L203.566,320.533L203.308,320.584L201.607,320.584L201.349,320.533L201.131,320.387L200.985,320.169L200.934,319.911L200.934,318.565Z"/>
        </g>
    </g>
    <g>
        <path d="M188.132,169.281L208.978,148.435" style="fill:none;fill-rule:nonzero;stroke:black;stroke-width:0.28px;"/>
        <path d="M247.455,208.487L247.455,208.487C244.345,208.487 241.785,211.046 241.785,214.156L241.785,214.156" style="fill-opacity:0;fill-rule:nonzero;stroke:black;stroke-width:0.28px;"/>
        <path d="M164.31,133.646C158.09,133.646 152.972,138.765 152.972,144.985" style="fill-opacity:0;fill-rule:nonzero;stroke:black;stroke-width:0.28px;"/>
        <path d="M241.785,288.424L241.785,288.424C241.785,291.534 244.345,294.093 247.455,294.093L247.455,294.093" style="fill-opacity:0;fill-rule:nonzero;stroke:black;stroke-width:0.28px;"/>
        <path d="M210.581,148.435C210.369,148.222 210.08,148.103 209.779,148.103C209.479,148.103 209.19,148.222 208.978,148.435" style="fill-opacity:0;fill-rule:nonzero;stroke:black;stroke-width:0.28px;"/>
        <path d="M188.132,169.281C187.919,169.493 187.8,169.782 187.8,170.082C187.8,170.383 187.919,170.672 188.132,170.884" style="fill-opacity:0;fill-rule:nonzero;stroke:black;stroke-width:0.28px;"/>
        <path d="M210.581,148.435L231.427,169.281" style="fill:none;fill-rule:nonzero;stroke:black;stroke-width:0.28px;"/>
        <path d="M152.972,144.985L152.972,374.571" style="fill:none;fill-rule:nonzero;stroke:black;stroke-width:0.28px;"/>
        <path d="M208.978,191.73C209.19,191.943 209.479,192.062 209.779,192.062C210.08,192.062 210.369,191.943 210.581,191.73" style="fill-opacity:0;fill-rule:nonzero;stroke:black;stroke-width:0.28px;"/>
        <path d="M241.785,288.424L241.785,214.156" style="fill:none;fill-rule:nonzero;stroke:black;stroke-width:0.28px;"/>
        <path d="M208.978,191.73L188.132,170.884" style="fill:none;fill-rule:nonzero;stroke:black;stroke-width:0.28px;"/>
        <path d="M250.289,385.91C256.51,385.91 261.628,380.791 261.628,374.571" style="fill-opacity:0;fill-rule:nonzero;stroke:black;stroke-width:0.28px;"/>
        <path d="M261.628,202.817L261.628,144.985" style="fill:none;fill-rule:nonzero;stroke:black;stroke-width:0.28px;"/>
        <path d="M255.959,208.487L255.959,208.487C259.069,208.487 261.628,205.927 261.628,202.817L261.628,202.817" style="fill-opacity:0;fill-rule:nonzero;stroke:black;stroke-width:0.28px;"/>
        <path d="M231.427,170.884L210.581,191.73" style="fill:none;fill-rule:nonzero;stroke:black;stroke-width:0.28px;"/>
        <path d="M261.628,374.571L261.628,299.762" style="fill:none;fill-rule:nonzero;stroke:black;stroke-width:0.28px;"/>
        <path d="M261.628,144.985C261.628,138.765 256.51,133.646 250.289,133.646" style="fill-opacity:0;fill-rule:nonzero;stroke:black;stroke-width:0.28px;"/>
        <path d="M152.972,374.571C152.972,380.791 158.09,385.91 164.31,385.91" style="fill-opacity:0;fill-rule:nonzero;stroke:black;stroke-width:0.28px;"/>
        <path d="M231.427,170.884C231.639,170.672 231.759,170.383 231.759,170.082C231.759,169.782 231.639,169.493 231.427,169.281" style="fill-opacity:0;fill-rule:nonzero;stroke:black;stroke-width:0.28px;"/>
        <path d="M164.31,385.91L250.289,385.91" style="fill:none;fill-rule:nonzero;stroke:black;stroke-width:0.28px;"/>
        <path d="M250.289,133.646L164.31,133.646" style="fill:none;fill-rule:nonzero;stroke:black;stroke-width:0.28px;"/>
        <path d="M247.455,208.487L255.959,208.487" style="fill:none;fill-rule:nonzero;stroke:black;stroke-width:0.28px;"/>
        <path d="M255.959,294.093L247.455,294.093" style="fill:none;fill-rule:nonzero;stroke:black;stroke-width:0.28px;"/>
        <path d="M261.628,299.762L261.628,299.762C261.628,296.652 259.069,294.093 255.959,294.093L255.959,294.093" style="fill-opacity:0;fill-rule:nonzero;stroke:black;stroke-width:0.28px;"/>
    </g>
    <g transform="matrix(1,0,0,1,93.9802,168.797)">
        <path d="M83.069,89.366L83.259,88.949L83.492,88.61L83.805,88.237L84.111,88.034L84.397,87.898L84.726,87.775L84.955,87.792L85.122,87.966L85.122,88.229L85.02,88.38L84.832,88.448L84.592,88.535L84.435,88.622L84.223,88.761L84.056,88.945L83.915,89.125L83.785,89.319L83.687,89.578L83.568,89.802L83.379,89.869L83.225,89.848L83.084,89.735L83.061,89.536L83.069,89.366Z" style="fill:none;stroke:black;stroke-width:0.1px;stroke-miterlimit:1.5;"/>
    </g>
    <g transform="matrix(6.12323e-17,-1,1,6.12323e-17,89.2266,344.157)">
        <path d="M83.069,89.366L83.259,88.949L83.492,88.61L83.805,88.237L84.111,88.034L84.397,87.898L84.726,87.775L84.955,87.792L85.122,87.966L85.122,88.229L85.02,88.38L84.832,88.448L84.592,88.535L84.435,88.622L84.223,88.761L84.056,88.945L83.915,89.125L83.785,89.319L83.687,89.578L83.568,89.802L83.379,89.869L83.225,89.848L83.084,89.735L83.061,89.536L83.069,89.366Z" style="fill:none;stroke:black;stroke-width:0.1px;stroke-miterlimit:1.5;"/>
    </g>
    <g transform="matrix(-1,-1.22465e-16,1.22465e-16,-1,264.542,348.914)">
        <path d="M83.069,89.366L83.259,88.949L83.492,88.61L83.805,88.237L84.111,88.034L84.397,87.898L84.726,87.775L84.955,87.792L85.122,87.966L85.122,88.229L85.02,88.38L84.832,88.448L84.592,88.535L84.435,88.622L84.223,88.761L84.056,88.945L83.915,89.125L83.785,89.319L83.687,89.578L83.568,89.802L83.379,89.869L83.225,89.848L83.084,89.735L83.061,89.536L83.069,89.366Z" style="fill:none;stroke:black;stroke-width:0.1px;stroke-miterlimit:1.5;"/>
    </g>
    <g transform="matrix(-1.83697e-16,1,-1,-1.83697e-16,269.296,173.554)">
        <path d="M83.069,89.366L83.259,88.949L83.492,88.61L83.805,88.237L84.111,88.034L84.397,87.898L84.726,87.775L84.955,87.792L85.122,87.966L85.122,88.229L85.02,88.38L84.832,88.448L84.592,88.535L84.435,88.622L84.223,88.761L84.056,88.945L83.915,89.125L83.785,89.319L83.687,89.578L83.568,89.802L83.379,89.869L83.225,89.848L83.084,89.735L83.061,89.536L83.069,89.366Z" style="fill:none;stroke:black;stroke-width:0.1px;stroke-miterlimit:1.5;"/>
    </g>
</svg>
