%TF.GenerationSoftware,KiCad,Pcbnew,(6.0.6-0)*%
%TF.CreationDate,2022-07-27T22:54:00+02:00*%
%TF.ProjectId,GlowTower_LED_connector_PCB,476c6f77-546f-4776-9572-5f4c45445f63,rev?*%
%TF.SameCoordinates,Original*%
%TF.FileFunction,Copper,L2,Bot*%
%TF.FilePolarity,Positive*%
%FSLAX46Y46*%
G04 Gerber Fmt 4.6, Leading zero omitted, Abs format (unit mm)*
G04 Created by KiCad (PCBNEW (6.0.6-0)) date 2022-07-27 22:54:00*
%MOMM*%
%LPD*%
G01*
G04 APERTURE LIST*
G04 Aperture macros list*
%AMRotRect*
0 Rectangle, with rotation*
0 The origin of the aperture is its center*
0 $1 length*
0 $2 width*
0 $3 Rotation angle, in degrees counterclockwise*
0 Add horizontal line*
21,1,$1,$2,0,0,$3*%
G04 Aperture macros list end*
%TA.AperFunction,SMDPad,CuDef*%
%ADD10RotRect,2.000000X3.500000X225.000000*%
%TD*%
%TA.AperFunction,SMDPad,CuDef*%
%ADD11RotRect,2.000000X3.500000X315.000000*%
%TD*%
%TA.AperFunction,SMDPad,CuDef*%
%ADD12RotRect,2.000000X3.500000X45.000000*%
%TD*%
%TA.AperFunction,SMDPad,CuDef*%
%ADD13RotRect,2.000000X3.500000X135.000000*%
%TD*%
%TA.AperFunction,ViaPad*%
%ADD14C,0.800000*%
%TD*%
%TA.AperFunction,Conductor*%
%ADD15C,1.000000*%
%TD*%
%TA.AperFunction,Conductor*%
%ADD16C,1.400000*%
%TD*%
%TA.AperFunction,Conductor*%
%ADD17C,2.000000*%
%TD*%
G04 APERTURE END LIST*
D10*
%TO.P,U4,1,5V*%
%TO.N,unconnected-(U4-Pad1)*%
X110490880Y-75326225D03*
%TO.P,U4,2,Data*%
%TO.N,Net-(U4-Pad2)*%
X108582211Y-77234895D03*
%TO.P,U4,3,GND*%
%TO.N,unconnected-(U4-Pad3)*%
X106673542Y-79143564D03*
%TO.P,U4,4,BUTTON*%
%TO.N,unconnected-(U4-Pad4)*%
X104764871Y-81052235D03*
%TD*%
D11*
%TO.P,U1,1,5V*%
%TO.N,unconnected-(U1-Pad1)*%
X110476010Y-69026009D03*
%TO.P,U1,2,Data*%
%TO.N,Net-(U1-Pad2)*%
X108567339Y-67117338D03*
%TO.P,U1,3,GND*%
%TO.N,GND*%
X106658670Y-65208669D03*
%TO.P,U1,4,BUTTON*%
%TO.N,BUTTON*%
X104750000Y-63300000D03*
%TD*%
D12*
%TO.P,U3,1,5V*%
%TO.N,unconnected-(U3-Pad1)*%
X92732662Y-69017339D03*
%TO.P,U3,2,Data*%
%TO.N,Net-(U1-Pad2)*%
X94641331Y-67108669D03*
%TO.P,U3,3,GND*%
%TO.N,unconnected-(U3-Pad3)*%
X96550000Y-65200000D03*
%TO.P,U3,4,BUTTON*%
%TO.N,unconnected-(U3-Pad4)*%
X98458671Y-63291329D03*
%TD*%
D13*
%TO.P,U2,1,5V*%
%TO.N,unconnected-(U2-Pad1)*%
X92727765Y-75324871D03*
%TO.P,U2,2,Data*%
%TO.N,Net-(U4-Pad2)*%
X94636436Y-77233542D03*
%TO.P,U2,3,GND*%
%TO.N,unconnected-(U2-Pad3)*%
X96545105Y-79142211D03*
%TO.P,U2,4,BUTTON*%
%TO.N,unconnected-(U2-Pad4)*%
X98453775Y-81050880D03*
%TD*%
D14*
%TO.N,BUTTON*%
X99410000Y-68580000D03*
%TO.N,GND*%
X99240000Y-72350000D03*
%TD*%
D15*
%TO.N,BUTTON*%
X104350000Y-63700000D02*
X104290000Y-63700000D01*
D16*
X104290000Y-63700000D02*
X99410000Y-68580000D01*
D15*
%TO.N,GND*%
X106258670Y-65608669D02*
X105981331Y-65608669D01*
X105981331Y-65608669D02*
X99240000Y-72350000D01*
D17*
%TO.N,unconnected-(U1-Pad1)*%
X110076010Y-69426009D02*
X110076010Y-69473990D01*
%TO.N,Net-(U1-Pad2)*%
X95041331Y-67508669D02*
X92050000Y-64517338D01*
X92050000Y-62290000D02*
X96590000Y-57750000D01*
X92050000Y-64517338D02*
X92050000Y-62290000D01*
X110470000Y-60680000D02*
X110470000Y-65214677D01*
X96590000Y-57750000D02*
X107540000Y-57750000D01*
X110470000Y-65214677D02*
X108167339Y-67517338D01*
X107540000Y-57750000D02*
X110470000Y-60680000D01*
%TO.N,Net-(U4-Pad2)*%
X94150000Y-84840000D02*
X91600000Y-82290000D01*
X94150000Y-84880000D02*
X94150000Y-84840000D01*
X94150000Y-84880000D02*
X96280000Y-87010000D01*
X91600000Y-82290000D02*
X91600000Y-80269978D01*
X105760000Y-87010000D02*
X110510000Y-82260000D01*
X110510000Y-82260000D02*
X110510000Y-79162684D01*
X110510000Y-79162684D02*
X108182211Y-76834895D01*
X91600000Y-80269978D02*
X95036436Y-76833542D01*
X96280000Y-87010000D02*
X105760000Y-87010000D01*
%TD*%
%TA.AperFunction,Conductor*%
%TO.N,GND*%
G36*
X102052733Y-50701134D02*
G01*
X102946821Y-50738608D01*
X102952079Y-50738939D01*
X103184192Y-50758430D01*
X103843850Y-50813823D01*
X103849099Y-50814375D01*
X104218148Y-50860996D01*
X104736919Y-50926533D01*
X104742123Y-50927301D01*
X105624506Y-51076545D01*
X105629679Y-51077531D01*
X105986389Y-51153352D01*
X106505042Y-51263595D01*
X106510180Y-51264801D01*
X107376929Y-51487345D01*
X107382012Y-51488764D01*
X108238717Y-51747418D01*
X108243736Y-51749049D01*
X108770237Y-51932396D01*
X109088839Y-52043344D01*
X109093763Y-52045175D01*
X109576543Y-52236321D01*
X109925836Y-52374616D01*
X109930701Y-52376661D01*
X110748226Y-52740646D01*
X110753001Y-52742893D01*
X111554561Y-53140792D01*
X111559238Y-53143237D01*
X112343447Y-53574359D01*
X112348017Y-53576998D01*
X113113478Y-54040577D01*
X113117911Y-54043391D01*
X113436684Y-54255183D01*
X113863289Y-54538619D01*
X113867623Y-54541631D01*
X114591606Y-55067635D01*
X114595810Y-55070826D01*
X115297134Y-55626689D01*
X115301198Y-55630051D01*
X115978617Y-56214784D01*
X115982538Y-56218314D01*
X116016022Y-56249758D01*
X116634881Y-56830904D01*
X116638652Y-56834596D01*
X117264801Y-57473999D01*
X117268384Y-57477815D01*
X117867225Y-58142896D01*
X117870616Y-58146824D01*
X117917617Y-58203638D01*
X118441067Y-58836381D01*
X118444345Y-58840516D01*
X118985407Y-59553339D01*
X118988489Y-59557582D01*
X119494038Y-60284971D01*
X119499229Y-60292440D01*
X119502139Y-60296821D01*
X119542348Y-60360180D01*
X119981644Y-61052401D01*
X119984378Y-61056915D01*
X120431821Y-61831908D01*
X120434364Y-61836533D01*
X120848971Y-62629604D01*
X120851317Y-62634331D01*
X121232333Y-63444030D01*
X121234480Y-63448851D01*
X121581275Y-64273845D01*
X121583217Y-64278752D01*
X121698909Y-64589836D01*
X121875510Y-65064700D01*
X121895142Y-65117490D01*
X121896877Y-65122472D01*
X121903588Y-65143125D01*
X122173418Y-65973579D01*
X122174943Y-65978631D01*
X122415592Y-66840538D01*
X122416905Y-66845650D01*
X122621257Y-67716911D01*
X122622354Y-67722073D01*
X122790040Y-68601111D01*
X122790920Y-68606315D01*
X122921645Y-69491585D01*
X122922307Y-69496820D01*
X122953338Y-69792056D01*
X123015138Y-70380041D01*
X123015852Y-70386838D01*
X123016292Y-70392081D01*
X123037973Y-70736697D01*
X123072482Y-71285205D01*
X123072703Y-71290478D01*
X123091445Y-72185171D01*
X123091445Y-72190436D01*
X123083013Y-72592990D01*
X123072703Y-73085142D01*
X123072482Y-73090415D01*
X123066861Y-73179766D01*
X123033759Y-73705913D01*
X123016293Y-73983523D01*
X123015853Y-73988767D01*
X122965235Y-74470367D01*
X122922307Y-74878800D01*
X122921645Y-74884035D01*
X122790920Y-75769305D01*
X122790040Y-75774509D01*
X122622354Y-76653547D01*
X122621257Y-76658709D01*
X122416905Y-77529970D01*
X122415592Y-77535082D01*
X122174943Y-78396989D01*
X122173418Y-78402041D01*
X121896878Y-79253146D01*
X121895142Y-79258130D01*
X121583217Y-80096868D01*
X121581275Y-80101775D01*
X121234480Y-80926769D01*
X121232333Y-80931590D01*
X120851317Y-81741289D01*
X120848971Y-81746016D01*
X120434364Y-82539087D01*
X120431821Y-82543712D01*
X119984378Y-83318705D01*
X119981644Y-83323219D01*
X119863648Y-83509152D01*
X119559029Y-83989156D01*
X119502149Y-84078784D01*
X119499239Y-84083165D01*
X118988491Y-84818036D01*
X118985407Y-84822281D01*
X118531048Y-85420877D01*
X118444345Y-85535104D01*
X118441067Y-85539239D01*
X118207220Y-85821912D01*
X117870616Y-86228796D01*
X117867225Y-86232724D01*
X117268384Y-86897805D01*
X117264801Y-86901621D01*
X116638652Y-87541024D01*
X116634881Y-87544716D01*
X115982539Y-88157305D01*
X115978619Y-88160835D01*
X115564260Y-88518500D01*
X115301200Y-88745567D01*
X115297134Y-88748931D01*
X114595810Y-89304794D01*
X114591606Y-89307985D01*
X113867623Y-89833989D01*
X113863289Y-89837001D01*
X113117911Y-90332229D01*
X113113478Y-90335043D01*
X112552634Y-90674702D01*
X112348017Y-90798622D01*
X112343447Y-90801261D01*
X111559238Y-91232383D01*
X111554561Y-91234828D01*
X110753001Y-91632727D01*
X110748226Y-91634974D01*
X109930701Y-91998959D01*
X109925836Y-92001004D01*
X109093763Y-92330445D01*
X109088839Y-92332276D01*
X108770238Y-92443224D01*
X108243736Y-92626571D01*
X108238717Y-92628202D01*
X107382012Y-92886856D01*
X107376929Y-92888275D01*
X106510180Y-93110819D01*
X106505042Y-93112025D01*
X105986389Y-93222268D01*
X105629679Y-93298089D01*
X105624506Y-93299075D01*
X104742123Y-93448319D01*
X104736919Y-93449087D01*
X104218148Y-93514624D01*
X103849099Y-93561245D01*
X103843850Y-93561797D01*
X103184192Y-93617190D01*
X102952079Y-93636681D01*
X102946821Y-93637012D01*
X102160337Y-93669976D01*
X102052732Y-93674486D01*
X102047456Y-93674597D01*
X101152544Y-93674597D01*
X101147268Y-93674486D01*
X101039663Y-93669976D01*
X100253179Y-93637012D01*
X100247921Y-93636681D01*
X100015808Y-93617190D01*
X99356150Y-93561797D01*
X99350901Y-93561245D01*
X98981852Y-93514624D01*
X98463081Y-93449087D01*
X98457877Y-93448319D01*
X97575494Y-93299075D01*
X97570321Y-93298089D01*
X97213611Y-93222268D01*
X96694958Y-93112025D01*
X96689820Y-93110819D01*
X95823071Y-92888275D01*
X95817988Y-92886856D01*
X94961283Y-92628202D01*
X94956264Y-92626571D01*
X94429763Y-92443224D01*
X94111161Y-92332276D01*
X94106237Y-92330445D01*
X93274164Y-92001004D01*
X93269299Y-91998959D01*
X92451774Y-91634974D01*
X92446999Y-91632727D01*
X91645439Y-91234828D01*
X91640762Y-91232383D01*
X90856553Y-90801261D01*
X90851983Y-90798622D01*
X90647366Y-90674702D01*
X90086522Y-90335043D01*
X90082089Y-90332229D01*
X89336711Y-89837001D01*
X89332377Y-89833989D01*
X88608394Y-89307985D01*
X88604190Y-89304794D01*
X87902866Y-88748931D01*
X87898800Y-88745567D01*
X87635741Y-88518500D01*
X87221381Y-88160835D01*
X87217461Y-88157305D01*
X86565119Y-87544716D01*
X86561348Y-87541024D01*
X85935199Y-86901621D01*
X85931616Y-86897805D01*
X85332775Y-86232724D01*
X85329384Y-86228796D01*
X84992780Y-85821912D01*
X84758933Y-85539239D01*
X84755655Y-85535104D01*
X84668952Y-85420877D01*
X84214593Y-84822281D01*
X84211509Y-84818036D01*
X83700761Y-84083165D01*
X83697851Y-84078784D01*
X83640972Y-83989156D01*
X83336352Y-83509152D01*
X83218356Y-83323219D01*
X83215622Y-83318705D01*
X82768179Y-82543712D01*
X82765636Y-82539087D01*
X82351029Y-81746016D01*
X82348683Y-81741289D01*
X81967667Y-80931590D01*
X81965520Y-80926769D01*
X81700534Y-80296391D01*
X90086822Y-80296391D01*
X90088529Y-80313797D01*
X90090899Y-80337970D01*
X90091500Y-80350266D01*
X90091500Y-82265984D01*
X90091451Y-82269502D01*
X90088666Y-82369205D01*
X90096716Y-82429532D01*
X90099058Y-82447086D01*
X90099758Y-82453639D01*
X90106060Y-82531965D01*
X90113897Y-82563870D01*
X90116426Y-82577258D01*
X90120771Y-82609820D01*
X90122232Y-82614661D01*
X90122233Y-82614663D01*
X90143478Y-82685029D01*
X90145219Y-82691390D01*
X90163963Y-82767706D01*
X90165941Y-82772366D01*
X90176801Y-82797951D01*
X90181438Y-82810761D01*
X90190933Y-82842208D01*
X90193151Y-82846756D01*
X90193154Y-82846763D01*
X90225371Y-82912818D01*
X90228107Y-82918820D01*
X90258812Y-82991156D01*
X90274123Y-83015468D01*
X90276319Y-83018956D01*
X90282945Y-83030860D01*
X90297346Y-83060388D01*
X90329464Y-83105917D01*
X90342641Y-83124597D01*
X90346301Y-83130086D01*
X90358299Y-83149138D01*
X90388167Y-83196567D01*
X90391508Y-83200356D01*
X90391512Y-83200362D01*
X90409898Y-83221217D01*
X90418344Y-83231912D01*
X90437274Y-83258747D01*
X90439944Y-83261671D01*
X90449986Y-83272668D01*
X90456909Y-83280250D01*
X90496625Y-83319966D01*
X90502044Y-83325736D01*
X90545350Y-83374858D01*
X90545353Y-83374861D01*
X90548698Y-83378655D01*
X90552606Y-83381865D01*
X90552607Y-83381866D01*
X90580989Y-83405179D01*
X90590108Y-83413449D01*
X92885551Y-85708892D01*
X92903076Y-85730844D01*
X92938167Y-85786567D01*
X92941508Y-85790356D01*
X92941512Y-85790362D01*
X92959898Y-85811217D01*
X92968344Y-85821912D01*
X92987274Y-85848747D01*
X93006909Y-85870250D01*
X93046625Y-85909966D01*
X93052044Y-85915736D01*
X93095350Y-85964858D01*
X93095353Y-85964861D01*
X93098698Y-85968655D01*
X93102606Y-85971865D01*
X93102607Y-85971866D01*
X93130989Y-85995179D01*
X93140108Y-86003449D01*
X95196325Y-88059666D01*
X95198779Y-88062188D01*
X95242060Y-88107956D01*
X95267332Y-88134681D01*
X95299280Y-88159107D01*
X95329757Y-88182408D01*
X95334892Y-88186552D01*
X95394720Y-88237470D01*
X95399045Y-88240089D01*
X95399050Y-88240093D01*
X95422824Y-88254491D01*
X95434071Y-88262163D01*
X95460174Y-88282120D01*
X95521255Y-88314871D01*
X95529401Y-88319239D01*
X95535126Y-88322504D01*
X95602358Y-88363221D01*
X95632817Y-88375527D01*
X95645158Y-88381307D01*
X95674109Y-88396831D01*
X95678890Y-88398477D01*
X95678894Y-88398479D01*
X95748401Y-88422412D01*
X95754579Y-88424722D01*
X95768962Y-88430533D01*
X95827429Y-88454155D01*
X95832369Y-88455277D01*
X95832368Y-88455277D01*
X95859460Y-88461432D01*
X95872559Y-88465163D01*
X95903631Y-88475862D01*
X95981100Y-88489243D01*
X95987504Y-88490523D01*
X96064144Y-88507935D01*
X96096953Y-88509999D01*
X96110453Y-88511585D01*
X96142836Y-88517179D01*
X96146793Y-88517359D01*
X96146796Y-88517359D01*
X96170506Y-88518436D01*
X96170525Y-88518436D01*
X96171925Y-88518500D01*
X96228108Y-88518500D01*
X96236019Y-88518749D01*
X96306413Y-88523178D01*
X96347992Y-88519101D01*
X96360288Y-88518500D01*
X105735984Y-88518500D01*
X105739502Y-88518549D01*
X105834150Y-88521193D01*
X105834153Y-88521193D01*
X105839205Y-88521334D01*
X105917098Y-88510941D01*
X105923639Y-88510242D01*
X105952332Y-88507933D01*
X105996923Y-88504346D01*
X105996927Y-88504345D01*
X106001965Y-88503940D01*
X106033878Y-88496101D01*
X106047258Y-88493574D01*
X106079820Y-88489229D01*
X106084661Y-88487768D01*
X106084663Y-88487767D01*
X106155029Y-88466522D01*
X106161392Y-88464781D01*
X106175027Y-88461432D01*
X106237706Y-88446037D01*
X106267952Y-88433199D01*
X106280763Y-88428561D01*
X106307362Y-88420530D01*
X106312208Y-88419067D01*
X106316756Y-88416849D01*
X106316763Y-88416846D01*
X106382818Y-88384629D01*
X106388820Y-88381893D01*
X106438978Y-88360602D01*
X106461156Y-88351188D01*
X106488956Y-88333681D01*
X106500860Y-88327055D01*
X106530388Y-88312654D01*
X106594600Y-88267357D01*
X106600086Y-88263699D01*
X106662286Y-88224529D01*
X106662287Y-88224528D01*
X106666567Y-88221833D01*
X106670356Y-88218492D01*
X106670362Y-88218488D01*
X106691217Y-88200102D01*
X106701912Y-88191656D01*
X106715022Y-88182408D01*
X106728747Y-88172726D01*
X106750250Y-88153091D01*
X106789966Y-88113375D01*
X106795736Y-88107956D01*
X106844858Y-88064650D01*
X106844861Y-88064647D01*
X106848655Y-88061302D01*
X106851871Y-88057387D01*
X106875178Y-88029013D01*
X106883448Y-88019893D01*
X111559701Y-83343640D01*
X111562224Y-83341186D01*
X111631002Y-83276147D01*
X111634681Y-83272668D01*
X111682412Y-83210239D01*
X111686554Y-83205107D01*
X111734187Y-83149138D01*
X111734189Y-83149135D01*
X111737470Y-83145280D01*
X111740090Y-83140954D01*
X111740095Y-83140947D01*
X111754491Y-83117176D01*
X111762163Y-83105929D01*
X111782120Y-83079826D01*
X111819247Y-83010584D01*
X111822510Y-83004863D01*
X111860602Y-82941966D01*
X111860603Y-82941965D01*
X111863220Y-82937643D01*
X111875534Y-82907166D01*
X111881303Y-82894850D01*
X111896831Y-82865891D01*
X111922423Y-82791567D01*
X111924718Y-82785429D01*
X111952258Y-82717267D01*
X111952259Y-82717263D01*
X111954155Y-82712571D01*
X111961432Y-82680539D01*
X111965163Y-82667441D01*
X111975862Y-82636369D01*
X111989243Y-82558900D01*
X111990526Y-82552482D01*
X111993040Y-82541419D01*
X112007935Y-82475856D01*
X112009999Y-82443047D01*
X112011585Y-82429547D01*
X112017179Y-82397164D01*
X112018500Y-82368075D01*
X112018500Y-82311893D01*
X112018749Y-82303981D01*
X112022860Y-82238642D01*
X112023178Y-82233588D01*
X112019101Y-82192009D01*
X112018500Y-82179713D01*
X112018500Y-79186700D01*
X112018549Y-79183182D01*
X112021193Y-79088534D01*
X112021193Y-79088531D01*
X112021334Y-79083479D01*
X112010941Y-79005586D01*
X112010241Y-78999037D01*
X112004346Y-78925761D01*
X112004345Y-78925757D01*
X112003940Y-78920719D01*
X111996101Y-78888806D01*
X111993573Y-78875422D01*
X111989898Y-78847878D01*
X111989229Y-78842864D01*
X111966522Y-78767655D01*
X111964781Y-78761292D01*
X111953781Y-78716508D01*
X111946037Y-78684978D01*
X111943860Y-78679848D01*
X111940372Y-78671631D01*
X111933199Y-78654732D01*
X111928561Y-78641921D01*
X111920530Y-78615322D01*
X111919067Y-78610476D01*
X111916849Y-78605928D01*
X111916846Y-78605921D01*
X111884629Y-78539866D01*
X111881893Y-78533864D01*
X111853162Y-78466179D01*
X111851188Y-78461528D01*
X111833681Y-78433728D01*
X111827052Y-78421818D01*
X111812654Y-78392296D01*
X111767357Y-78328084D01*
X111763699Y-78322598D01*
X111724529Y-78260398D01*
X111724528Y-78260397D01*
X111721833Y-78256117D01*
X111718492Y-78252328D01*
X111718488Y-78252322D01*
X111700102Y-78231467D01*
X111691656Y-78220772D01*
X111675009Y-78197174D01*
X111672726Y-78193937D01*
X111653091Y-78172434D01*
X111613375Y-78132718D01*
X111607956Y-78126948D01*
X111564650Y-78077826D01*
X111564647Y-78077823D01*
X111561302Y-78074029D01*
X111529011Y-78047505D01*
X111519892Y-78039235D01*
X111334223Y-77853566D01*
X111300197Y-77791254D01*
X111305262Y-77720439D01*
X111342104Y-77669409D01*
X111341542Y-77668782D01*
X111344076Y-77666508D01*
X111346738Y-77664368D01*
X112829023Y-76182083D01*
X112842479Y-76165347D01*
X112863267Y-76139493D01*
X112863269Y-76139490D01*
X112868216Y-76133337D01*
X112928503Y-76000741D01*
X112929970Y-75990501D01*
X112947879Y-75865444D01*
X112949152Y-75856555D01*
X112937402Y-75774509D01*
X112929776Y-75721255D01*
X112929775Y-75721252D01*
X112928503Y-75712369D01*
X112868216Y-75579773D01*
X112863269Y-75573620D01*
X112863267Y-75573617D01*
X112831163Y-75533689D01*
X112829023Y-75531027D01*
X110286078Y-72988082D01*
X110269342Y-72974626D01*
X110243488Y-72953838D01*
X110243485Y-72953836D01*
X110237332Y-72948889D01*
X110104736Y-72888602D01*
X110095853Y-72887330D01*
X110095850Y-72887329D01*
X109969439Y-72869226D01*
X109960550Y-72867953D01*
X109951661Y-72869226D01*
X109825250Y-72887329D01*
X109825247Y-72887330D01*
X109816364Y-72888602D01*
X109683768Y-72948889D01*
X109677615Y-72953836D01*
X109677612Y-72953838D01*
X109651758Y-72974626D01*
X109635022Y-72988082D01*
X108152737Y-74470367D01*
X108150597Y-74473029D01*
X108118493Y-74512957D01*
X108118491Y-74512960D01*
X108113544Y-74519113D01*
X108053257Y-74651709D01*
X108051985Y-74660594D01*
X108051984Y-74660596D01*
X108048409Y-74685560D01*
X108018952Y-74750157D01*
X107959247Y-74788574D01*
X107941545Y-74792424D01*
X107916582Y-74795999D01*
X107916580Y-74796000D01*
X107907695Y-74797272D01*
X107775099Y-74857559D01*
X107768946Y-74862506D01*
X107768943Y-74862508D01*
X107748681Y-74878800D01*
X107726353Y-74896752D01*
X106244068Y-76379037D01*
X106241928Y-76381699D01*
X106209824Y-76421627D01*
X106209822Y-76421630D01*
X106204875Y-76427783D01*
X106144588Y-76560379D01*
X106143316Y-76569264D01*
X106143315Y-76569266D01*
X106139740Y-76594229D01*
X106110283Y-76658826D01*
X106050577Y-76697243D01*
X106032876Y-76701093D01*
X106007913Y-76704668D01*
X106007911Y-76704669D01*
X105999026Y-76705941D01*
X105866430Y-76766228D01*
X105860277Y-76771175D01*
X105860274Y-76771177D01*
X105834420Y-76791965D01*
X105817684Y-76805421D01*
X104335399Y-78287706D01*
X104333259Y-78290368D01*
X104301155Y-78330296D01*
X104301153Y-78330299D01*
X104296206Y-78336452D01*
X104235919Y-78469048D01*
X104234647Y-78477933D01*
X104231071Y-78502900D01*
X104201614Y-78567497D01*
X104141909Y-78605914D01*
X104124207Y-78609764D01*
X104090355Y-78614612D01*
X103957759Y-78674899D01*
X103951606Y-78679846D01*
X103951603Y-78679848D01*
X103945223Y-78684978D01*
X103909013Y-78714092D01*
X102426728Y-80196377D01*
X102424588Y-80199039D01*
X102392484Y-80238967D01*
X102392482Y-80238970D01*
X102387535Y-80245123D01*
X102384267Y-80252311D01*
X102345321Y-80337970D01*
X102327248Y-80377719D01*
X102306599Y-80521905D01*
X102327248Y-80666091D01*
X102387535Y-80798687D01*
X102392482Y-80804840D01*
X102392484Y-80804843D01*
X102413272Y-80830697D01*
X102426728Y-80847433D01*
X104969673Y-83390378D01*
X104972335Y-83392518D01*
X105012263Y-83424622D01*
X105012266Y-83424624D01*
X105018419Y-83429571D01*
X105151015Y-83489858D01*
X105159898Y-83491130D01*
X105159901Y-83491131D01*
X105286312Y-83509234D01*
X105295201Y-83510507D01*
X105304090Y-83509234D01*
X105430501Y-83491131D01*
X105430504Y-83491130D01*
X105439387Y-83489858D01*
X105571983Y-83429571D01*
X105578136Y-83424624D01*
X105578139Y-83424622D01*
X105618067Y-83392518D01*
X105620729Y-83390378D01*
X107103014Y-81908093D01*
X107116470Y-81891357D01*
X107137258Y-81865503D01*
X107137260Y-81865500D01*
X107142207Y-81859347D01*
X107202494Y-81726751D01*
X107207342Y-81692899D01*
X107236799Y-81628302D01*
X107296504Y-81589885D01*
X107314206Y-81586035D01*
X107348058Y-81581187D01*
X107480654Y-81520900D01*
X107486807Y-81515953D01*
X107486810Y-81515951D01*
X107526738Y-81483847D01*
X107529400Y-81481707D01*
X108786405Y-80224702D01*
X108848717Y-80190676D01*
X108919532Y-80195741D01*
X108976368Y-80238288D01*
X109001179Y-80304808D01*
X109001500Y-80313797D01*
X109001500Y-81582969D01*
X108981498Y-81651090D01*
X108964595Y-81672064D01*
X105172064Y-85464595D01*
X105109752Y-85498621D01*
X105082969Y-85501500D01*
X96957031Y-85501500D01*
X96888910Y-85481498D01*
X96867936Y-85464595D01*
X95414449Y-84011108D01*
X95396924Y-83989156D01*
X95364525Y-83937708D01*
X95361833Y-83933433D01*
X95358492Y-83929644D01*
X95358488Y-83929638D01*
X95340102Y-83908783D01*
X95331656Y-83898088D01*
X95315009Y-83874490D01*
X95312726Y-83871253D01*
X95293091Y-83849750D01*
X95253375Y-83810034D01*
X95247956Y-83804264D01*
X95204650Y-83755142D01*
X95204647Y-83755139D01*
X95201302Y-83751345D01*
X95169011Y-83724821D01*
X95159892Y-83716551D01*
X93145405Y-81702064D01*
X93111379Y-81639752D01*
X93108500Y-81612969D01*
X93108500Y-80947009D01*
X93128502Y-80878888D01*
X93145401Y-80857918D01*
X94017767Y-79985553D01*
X94080077Y-79951529D01*
X94150893Y-79956594D01*
X94201920Y-79993437D01*
X94202548Y-79992873D01*
X94204822Y-79995407D01*
X94206962Y-79998069D01*
X95689247Y-81480354D01*
X95705983Y-81493810D01*
X95731837Y-81514598D01*
X95731840Y-81514600D01*
X95737993Y-81519547D01*
X95870589Y-81579834D01*
X95879474Y-81581106D01*
X95879476Y-81581107D01*
X95904440Y-81584682D01*
X95969037Y-81614139D01*
X96007454Y-81673844D01*
X96011304Y-81691546D01*
X96012811Y-81702064D01*
X96016152Y-81725396D01*
X96076439Y-81857992D01*
X96081386Y-81864145D01*
X96081388Y-81864148D01*
X96102176Y-81890002D01*
X96115632Y-81906738D01*
X97597917Y-83389023D01*
X97600579Y-83391163D01*
X97640507Y-83423267D01*
X97640510Y-83423269D01*
X97646663Y-83428216D01*
X97779259Y-83488503D01*
X97788142Y-83489775D01*
X97788145Y-83489776D01*
X97914556Y-83507879D01*
X97923445Y-83509152D01*
X97932334Y-83507879D01*
X98058745Y-83489776D01*
X98058748Y-83489775D01*
X98067631Y-83488503D01*
X98200227Y-83428216D01*
X98206380Y-83423269D01*
X98206383Y-83423267D01*
X98246311Y-83391163D01*
X98248973Y-83389023D01*
X100791918Y-80846078D01*
X100805374Y-80829342D01*
X100826162Y-80803488D01*
X100826164Y-80803485D01*
X100831111Y-80797332D01*
X100891398Y-80664736D01*
X100912047Y-80520550D01*
X100891398Y-80376364D01*
X100831111Y-80243768D01*
X100826164Y-80237615D01*
X100826162Y-80237612D01*
X100805374Y-80211758D01*
X100791918Y-80195022D01*
X99309633Y-78712737D01*
X99275108Y-78684978D01*
X99267043Y-78678493D01*
X99267040Y-78678491D01*
X99260887Y-78673544D01*
X99128291Y-78613257D01*
X99119406Y-78611985D01*
X99119404Y-78611984D01*
X99094440Y-78608409D01*
X99029843Y-78578952D01*
X98991426Y-78519247D01*
X98987576Y-78501545D01*
X98984001Y-78476582D01*
X98984000Y-78476580D01*
X98982728Y-78467695D01*
X98922441Y-78335099D01*
X98917494Y-78328946D01*
X98917492Y-78328943D01*
X98885388Y-78289015D01*
X98883248Y-78286353D01*
X97400963Y-76804068D01*
X97384227Y-76790612D01*
X97358373Y-76769824D01*
X97358370Y-76769822D01*
X97352217Y-76764875D01*
X97219621Y-76704588D01*
X97210736Y-76703316D01*
X97210734Y-76703315D01*
X97185771Y-76699740D01*
X97121174Y-76670283D01*
X97082757Y-76610577D01*
X97078907Y-76592876D01*
X97075332Y-76567913D01*
X97075331Y-76567911D01*
X97074059Y-76559026D01*
X97013772Y-76426430D01*
X97008825Y-76420277D01*
X97008823Y-76420274D01*
X96976719Y-76380346D01*
X96974579Y-76377684D01*
X95492294Y-74895399D01*
X95471649Y-74878800D01*
X95449704Y-74861155D01*
X95449701Y-74861153D01*
X95443548Y-74856206D01*
X95310952Y-74795919D01*
X95277100Y-74791071D01*
X95212503Y-74761614D01*
X95174086Y-74701909D01*
X95170236Y-74684207D01*
X95165388Y-74650355D01*
X95105101Y-74517759D01*
X95100154Y-74511606D01*
X95100152Y-74511603D01*
X95068048Y-74471675D01*
X95065908Y-74469013D01*
X93583623Y-72986728D01*
X93566887Y-72973272D01*
X93541033Y-72952484D01*
X93541030Y-72952482D01*
X93534877Y-72947535D01*
X93402281Y-72887248D01*
X93393398Y-72885976D01*
X93393395Y-72885975D01*
X93266984Y-72867872D01*
X93258095Y-72866599D01*
X93249206Y-72867872D01*
X93122795Y-72885975D01*
X93122792Y-72885976D01*
X93113909Y-72887248D01*
X92981313Y-72947535D01*
X92975160Y-72952482D01*
X92975157Y-72952484D01*
X92949303Y-72973272D01*
X92932567Y-72986728D01*
X90389622Y-75529673D01*
X90387482Y-75532335D01*
X90355378Y-75572263D01*
X90355376Y-75572266D01*
X90350429Y-75578419D01*
X90290142Y-75711015D01*
X90288870Y-75719898D01*
X90288869Y-75719901D01*
X90281049Y-75774509D01*
X90269493Y-75855201D01*
X90290142Y-75999387D01*
X90350429Y-76131983D01*
X90355376Y-76138136D01*
X90355378Y-76138139D01*
X90356467Y-76139493D01*
X90389622Y-76180729D01*
X91871907Y-77663014D01*
X91874569Y-77665154D01*
X91877103Y-77667428D01*
X91876492Y-77668109D01*
X91914829Y-77723172D01*
X91917456Y-77794120D01*
X91884424Y-77852213D01*
X90550334Y-79186303D01*
X90547812Y-79188757D01*
X90475319Y-79257310D01*
X90472252Y-79261322D01*
X90427592Y-79319735D01*
X90423448Y-79324870D01*
X90372530Y-79384698D01*
X90369911Y-79389023D01*
X90369907Y-79389028D01*
X90355509Y-79412802D01*
X90347837Y-79424049D01*
X90327880Y-79450152D01*
X90325490Y-79454610D01*
X90325489Y-79454611D01*
X90290761Y-79519379D01*
X90287496Y-79525104D01*
X90246779Y-79592336D01*
X90244884Y-79597027D01*
X90234473Y-79622795D01*
X90228693Y-79635136D01*
X90213169Y-79664087D01*
X90211523Y-79668868D01*
X90211521Y-79668872D01*
X90187588Y-79738379D01*
X90185278Y-79744557D01*
X90155845Y-79817407D01*
X90154723Y-79822346D01*
X90148568Y-79849438D01*
X90144837Y-79862537D01*
X90134138Y-79893609D01*
X90120757Y-79971078D01*
X90119477Y-79977482D01*
X90102065Y-80054122D01*
X90100001Y-80086931D01*
X90098415Y-80100431D01*
X90092821Y-80132814D01*
X90091500Y-80161903D01*
X90091500Y-80218086D01*
X90091251Y-80225997D01*
X90086822Y-80296391D01*
X81700534Y-80296391D01*
X81618725Y-80101775D01*
X81616783Y-80096868D01*
X81304858Y-79258130D01*
X81303122Y-79253146D01*
X81026582Y-78402041D01*
X81025057Y-78396989D01*
X80784408Y-77535082D01*
X80783095Y-77529970D01*
X80578743Y-76658709D01*
X80577646Y-76653547D01*
X80409960Y-75774509D01*
X80409080Y-75769305D01*
X80278355Y-74884035D01*
X80277693Y-74878800D01*
X80234765Y-74470367D01*
X80184147Y-73988767D01*
X80183707Y-73983523D01*
X80166242Y-73705913D01*
X80133139Y-73179766D01*
X80127518Y-73090415D01*
X80127297Y-73085142D01*
X80116987Y-72592990D01*
X80108555Y-72190436D01*
X80108555Y-72185171D01*
X80110564Y-72089285D01*
X82198628Y-72089285D01*
X82198715Y-72093286D01*
X82198715Y-72093293D01*
X82203038Y-72291415D01*
X82205331Y-72396500D01*
X82251017Y-72700374D01*
X82252112Y-72704232D01*
X82252113Y-72704235D01*
X82332701Y-72988082D01*
X82334943Y-72995979D01*
X82455751Y-73278524D01*
X82611480Y-73543429D01*
X82799608Y-73786399D01*
X83017083Y-74003495D01*
X83260381Y-74191198D01*
X83263860Y-74193235D01*
X83444225Y-74298843D01*
X83525557Y-74346465D01*
X83529242Y-74348033D01*
X83529246Y-74348035D01*
X83666935Y-74406622D01*
X83808313Y-74466779D01*
X84104064Y-74550190D01*
X84325530Y-74583091D01*
X84404718Y-74594855D01*
X84404720Y-74594855D01*
X84408017Y-74595345D01*
X84411348Y-74595485D01*
X84411352Y-74595485D01*
X84448305Y-74597033D01*
X84491647Y-74598850D01*
X84687710Y-74598850D01*
X84811614Y-74590946D01*
X84912627Y-74584503D01*
X84912632Y-74584502D01*
X84916635Y-74584247D01*
X84920572Y-74583485D01*
X84920574Y-74583485D01*
X84976165Y-74572729D01*
X85218329Y-74525876D01*
X85222144Y-74524618D01*
X85222148Y-74524617D01*
X85506338Y-74430906D01*
X85506343Y-74430904D01*
X85510161Y-74429645D01*
X85787399Y-74297112D01*
X85790764Y-74294939D01*
X85790768Y-74294937D01*
X86042184Y-74132600D01*
X86042190Y-74132595D01*
X86045550Y-74130426D01*
X86280429Y-73932289D01*
X86488228Y-73705913D01*
X86665578Y-73454969D01*
X86809604Y-73183523D01*
X86844694Y-73090415D01*
X86916555Y-72899738D01*
X86916557Y-72899732D01*
X86917972Y-72895977D01*
X86988925Y-72596992D01*
X87021312Y-72291415D01*
X87019052Y-72187810D01*
X87016902Y-72089285D01*
X116198628Y-72089285D01*
X116198715Y-72093286D01*
X116198715Y-72093293D01*
X116203038Y-72291415D01*
X116205331Y-72396500D01*
X116251017Y-72700374D01*
X116252112Y-72704232D01*
X116252113Y-72704235D01*
X116332701Y-72988082D01*
X116334943Y-72995979D01*
X116455751Y-73278524D01*
X116611480Y-73543429D01*
X116799608Y-73786399D01*
X117017083Y-74003495D01*
X117260381Y-74191198D01*
X117263860Y-74193235D01*
X117444225Y-74298843D01*
X117525557Y-74346465D01*
X117529242Y-74348033D01*
X117529246Y-74348035D01*
X117666935Y-74406622D01*
X117808313Y-74466779D01*
X118104064Y-74550190D01*
X118325530Y-74583091D01*
X118404718Y-74594855D01*
X118404720Y-74594855D01*
X118408017Y-74595345D01*
X118411348Y-74595485D01*
X118411352Y-74595485D01*
X118448305Y-74597033D01*
X118491647Y-74598850D01*
X118687710Y-74598850D01*
X118811614Y-74590946D01*
X118912627Y-74584503D01*
X118912632Y-74584502D01*
X118916635Y-74584247D01*
X118920572Y-74583485D01*
X118920574Y-74583485D01*
X118976165Y-74572729D01*
X119218329Y-74525876D01*
X119222144Y-74524618D01*
X119222148Y-74524617D01*
X119506338Y-74430906D01*
X119506343Y-74430904D01*
X119510161Y-74429645D01*
X119787399Y-74297112D01*
X119790764Y-74294939D01*
X119790768Y-74294937D01*
X120042184Y-74132600D01*
X120042190Y-74132595D01*
X120045550Y-74130426D01*
X120280429Y-73932289D01*
X120488228Y-73705913D01*
X120665578Y-73454969D01*
X120809604Y-73183523D01*
X120844694Y-73090415D01*
X120916555Y-72899738D01*
X120916557Y-72899732D01*
X120917972Y-72895977D01*
X120988925Y-72596992D01*
X121021312Y-72291415D01*
X121019052Y-72187810D01*
X121014697Y-71988216D01*
X121014696Y-71988210D01*
X121014609Y-71984200D01*
X120968923Y-71680326D01*
X120910441Y-71474338D01*
X120886091Y-71388574D01*
X120886091Y-71388573D01*
X120884997Y-71384721D01*
X120764189Y-71102176D01*
X120608460Y-70837271D01*
X120420332Y-70594301D01*
X120202857Y-70377205D01*
X120107884Y-70303934D01*
X119962752Y-70191965D01*
X119962748Y-70191962D01*
X119959559Y-70189502D01*
X119778672Y-70083588D01*
X119697847Y-70036263D01*
X119697844Y-70036261D01*
X119694383Y-70034235D01*
X119690698Y-70032667D01*
X119690694Y-70032665D01*
X119495934Y-69949794D01*
X119411627Y-69913921D01*
X119115876Y-69830510D01*
X118857030Y-69792056D01*
X118815222Y-69785845D01*
X118815220Y-69785845D01*
X118811923Y-69785355D01*
X118808592Y-69785215D01*
X118808588Y-69785215D01*
X118771635Y-69783667D01*
X118728293Y-69781850D01*
X118532230Y-69781850D01*
X118408326Y-69789754D01*
X118307313Y-69796197D01*
X118307308Y-69796198D01*
X118303305Y-69796453D01*
X118299368Y-69797215D01*
X118299366Y-69797215D01*
X118243775Y-69807971D01*
X118001611Y-69854824D01*
X117997796Y-69856082D01*
X117997792Y-69856083D01*
X117713602Y-69949794D01*
X117713597Y-69949796D01*
X117709779Y-69951055D01*
X117432541Y-70083588D01*
X117429176Y-70085761D01*
X117429172Y-70085763D01*
X117177756Y-70248100D01*
X117177750Y-70248105D01*
X117174390Y-70250274D01*
X116939511Y-70448411D01*
X116936795Y-70451370D01*
X116751302Y-70653446D01*
X116731712Y-70674787D01*
X116554362Y-70925731D01*
X116410336Y-71197177D01*
X116408921Y-71200933D01*
X116408920Y-71200934D01*
X116305882Y-71474338D01*
X116301968Y-71484723D01*
X116231015Y-71783708D01*
X116198628Y-72089285D01*
X87016902Y-72089285D01*
X87014697Y-71988216D01*
X87014696Y-71988210D01*
X87014609Y-71984200D01*
X86968923Y-71680326D01*
X86910441Y-71474338D01*
X86886091Y-71388574D01*
X86886091Y-71388573D01*
X86884997Y-71384721D01*
X86764189Y-71102176D01*
X86608460Y-70837271D01*
X86420332Y-70594301D01*
X86202857Y-70377205D01*
X86107884Y-70303934D01*
X85962752Y-70191965D01*
X85962748Y-70191962D01*
X85959559Y-70189502D01*
X85778672Y-70083588D01*
X85697847Y-70036263D01*
X85697844Y-70036261D01*
X85694383Y-70034235D01*
X85690698Y-70032667D01*
X85690694Y-70032665D01*
X85495934Y-69949794D01*
X85411627Y-69913921D01*
X85115876Y-69830510D01*
X84857030Y-69792056D01*
X84815222Y-69785845D01*
X84815220Y-69785845D01*
X84811923Y-69785355D01*
X84808592Y-69785215D01*
X84808588Y-69785215D01*
X84771635Y-69783667D01*
X84728293Y-69781850D01*
X84532230Y-69781850D01*
X84408326Y-69789754D01*
X84307313Y-69796197D01*
X84307308Y-69796198D01*
X84303305Y-69796453D01*
X84299368Y-69797215D01*
X84299366Y-69797215D01*
X84243775Y-69807971D01*
X84001611Y-69854824D01*
X83997796Y-69856082D01*
X83997792Y-69856083D01*
X83713602Y-69949794D01*
X83713597Y-69949796D01*
X83709779Y-69951055D01*
X83432541Y-70083588D01*
X83429176Y-70085761D01*
X83429172Y-70085763D01*
X83177756Y-70248100D01*
X83177750Y-70248105D01*
X83174390Y-70250274D01*
X82939511Y-70448411D01*
X82936795Y-70451370D01*
X82751302Y-70653446D01*
X82731712Y-70674787D01*
X82554362Y-70925731D01*
X82410336Y-71197177D01*
X82408921Y-71200933D01*
X82408920Y-71200934D01*
X82305882Y-71474338D01*
X82301968Y-71484723D01*
X82231015Y-71783708D01*
X82198628Y-72089285D01*
X80110564Y-72089285D01*
X80127297Y-71290478D01*
X80127518Y-71285205D01*
X80162027Y-70736697D01*
X80183708Y-70392081D01*
X80184148Y-70386838D01*
X80184863Y-70380041D01*
X80246662Y-69792056D01*
X80277693Y-69496820D01*
X80278355Y-69491585D01*
X80409080Y-68606315D01*
X80409960Y-68601111D01*
X80431726Y-68487009D01*
X90274390Y-68487009D01*
X90275663Y-68495898D01*
X90290731Y-68601111D01*
X90295039Y-68631195D01*
X90355326Y-68763791D01*
X90360273Y-68769944D01*
X90360275Y-68769947D01*
X90367246Y-68778617D01*
X90394519Y-68812537D01*
X92937464Y-71355482D01*
X92948247Y-71364152D01*
X92980054Y-71389726D01*
X92980057Y-71389728D01*
X92986210Y-71394675D01*
X93118806Y-71454962D01*
X93127689Y-71456234D01*
X93127692Y-71456235D01*
X93254103Y-71474338D01*
X93262992Y-71475611D01*
X93271881Y-71474338D01*
X93398292Y-71456235D01*
X93398295Y-71456234D01*
X93407178Y-71454962D01*
X93539774Y-71394675D01*
X93545927Y-71389728D01*
X93545930Y-71389726D01*
X93577737Y-71364152D01*
X93588520Y-71355482D01*
X95070805Y-69873197D01*
X95098078Y-69839277D01*
X95105049Y-69830607D01*
X95105051Y-69830604D01*
X95109998Y-69824451D01*
X95170285Y-69691855D01*
X95173892Y-69666673D01*
X95175133Y-69658004D01*
X95204590Y-69593407D01*
X95264295Y-69554990D01*
X95281997Y-69551140D01*
X95306960Y-69547565D01*
X95306962Y-69547564D01*
X95315847Y-69546292D01*
X95448443Y-69486005D01*
X95454596Y-69481058D01*
X95454599Y-69481056D01*
X95494527Y-69448952D01*
X95497189Y-69446812D01*
X96452867Y-68491134D01*
X98199874Y-68491134D01*
X98203262Y-68706833D01*
X98204342Y-68712338D01*
X98213027Y-68756603D01*
X98244794Y-68918523D01*
X98323157Y-69119514D01*
X98435873Y-69303450D01*
X98439608Y-69307642D01*
X98439611Y-69307646D01*
X98565511Y-69448952D01*
X98579381Y-69464519D01*
X98749143Y-69597631D01*
X98754106Y-69600259D01*
X98754108Y-69600260D01*
X98934832Y-69695947D01*
X98939794Y-69698574D01*
X99145308Y-69764163D01*
X99150865Y-69764895D01*
X99150867Y-69764895D01*
X99252249Y-69778242D01*
X99359189Y-69792320D01*
X99364788Y-69792056D01*
X99364790Y-69792056D01*
X99451730Y-69787956D01*
X99574675Y-69782158D01*
X99784957Y-69733998D01*
X99790118Y-69731797D01*
X99790123Y-69731795D01*
X99978219Y-69651564D01*
X99978220Y-69651564D01*
X99983386Y-69649360D01*
X99988073Y-69646281D01*
X99988079Y-69646278D01*
X100125159Y-69556233D01*
X100163692Y-69530922D01*
X100167130Y-69527859D01*
X100167135Y-69527855D01*
X100203272Y-69495657D01*
X100204629Y-69494448D01*
X103935484Y-65763593D01*
X103997796Y-65729567D01*
X104059942Y-65731752D01*
X104067310Y-65733906D01*
X104075484Y-65737623D01*
X104084373Y-65738896D01*
X104109851Y-65742545D01*
X104174448Y-65772002D01*
X104212865Y-65831707D01*
X104216715Y-65849409D01*
X104220260Y-65874159D01*
X104225246Y-65891213D01*
X104278492Y-66008322D01*
X104286709Y-66021666D01*
X104318778Y-66061551D01*
X104323317Y-66066610D01*
X104869610Y-66612902D01*
X104883548Y-66620513D01*
X104885384Y-66620381D01*
X104891996Y-66616132D01*
X106658670Y-64849459D01*
X108062901Y-63445227D01*
X108070513Y-63431286D01*
X108070382Y-63429451D01*
X108066131Y-63422837D01*
X107516626Y-62873332D01*
X107511544Y-62868771D01*
X107471670Y-62836711D01*
X107458317Y-62828488D01*
X107341214Y-62775245D01*
X107324160Y-62770259D01*
X107299409Y-62766714D01*
X107234812Y-62737257D01*
X107196396Y-62677552D01*
X107192544Y-62659848D01*
X107188895Y-62634366D01*
X107187623Y-62625484D01*
X107179967Y-62608644D01*
X107130604Y-62500076D01*
X107127336Y-62492888D01*
X107122389Y-62486735D01*
X107122387Y-62486732D01*
X107090283Y-62446804D01*
X107088143Y-62444142D01*
X105605858Y-60961857D01*
X105589122Y-60948401D01*
X105563268Y-60927613D01*
X105563265Y-60927611D01*
X105557112Y-60922664D01*
X105424516Y-60862377D01*
X105415633Y-60861105D01*
X105415630Y-60861104D01*
X105289219Y-60843001D01*
X105280330Y-60841728D01*
X105271441Y-60843001D01*
X105145030Y-60861104D01*
X105145027Y-60861105D01*
X105136144Y-60862377D01*
X105003548Y-60922664D01*
X104997395Y-60927611D01*
X104997392Y-60927613D01*
X104971538Y-60948401D01*
X104954802Y-60961857D01*
X102411857Y-63504802D01*
X102409717Y-63507464D01*
X102377613Y-63547392D01*
X102377611Y-63547395D01*
X102372664Y-63553548D01*
X102369396Y-63560736D01*
X102320034Y-63669304D01*
X102312377Y-63686144D01*
X102291728Y-63830330D01*
X102302695Y-63906907D01*
X102292551Y-63977172D01*
X102267062Y-64013861D01*
X98516758Y-67764165D01*
X98413630Y-67887505D01*
X98306747Y-68074891D01*
X98304878Y-68080168D01*
X98304876Y-68080173D01*
X98253206Y-68226085D01*
X98234736Y-68278244D01*
X98199874Y-68491134D01*
X96452867Y-68491134D01*
X96979474Y-67964527D01*
X96992930Y-67947791D01*
X97013718Y-67921937D01*
X97013720Y-67921934D01*
X97018667Y-67915781D01*
X97071298Y-67800023D01*
X97075239Y-67791356D01*
X97075239Y-67791355D01*
X97078954Y-67783185D01*
X97081371Y-67766312D01*
X97083802Y-67749335D01*
X97113259Y-67684738D01*
X97172965Y-67646321D01*
X97190666Y-67642471D01*
X97215629Y-67638896D01*
X97215631Y-67638895D01*
X97224516Y-67637623D01*
X97357112Y-67577336D01*
X97363265Y-67572389D01*
X97363268Y-67572387D01*
X97403196Y-67540283D01*
X97405858Y-67538143D01*
X98888143Y-66055858D01*
X98908895Y-66030048D01*
X98922387Y-66013268D01*
X98922389Y-66013265D01*
X98927336Y-66007112D01*
X98979528Y-65892320D01*
X98983909Y-65882685D01*
X98983909Y-65882684D01*
X98987623Y-65874516D01*
X98992471Y-65840664D01*
X99021928Y-65776067D01*
X99081633Y-65737650D01*
X99099335Y-65733800D01*
X99133187Y-65728952D01*
X99265783Y-65668665D01*
X99271936Y-65663718D01*
X99271939Y-65663716D01*
X99300456Y-65640787D01*
X99314529Y-65629472D01*
X100796814Y-64147187D01*
X100827326Y-64109238D01*
X100831058Y-64104597D01*
X100831060Y-64104594D01*
X100836007Y-64098441D01*
X100896294Y-63965845D01*
X100916943Y-63821659D01*
X100915670Y-63812770D01*
X100897567Y-63686359D01*
X100897566Y-63686356D01*
X100896294Y-63677473D01*
X100836007Y-63544877D01*
X100831060Y-63538724D01*
X100831058Y-63538721D01*
X100798954Y-63498793D01*
X100796814Y-63496131D01*
X98253869Y-60953186D01*
X98222063Y-60927613D01*
X98211279Y-60918942D01*
X98211276Y-60918940D01*
X98205123Y-60913993D01*
X98091598Y-60862377D01*
X98080696Y-60857420D01*
X98080695Y-60857420D01*
X98072527Y-60853706D01*
X98063644Y-60852434D01*
X98063641Y-60852433D01*
X97937230Y-60834330D01*
X97928341Y-60833057D01*
X97919452Y-60834330D01*
X97793041Y-60852433D01*
X97793038Y-60852434D01*
X97784155Y-60853706D01*
X97775987Y-60857420D01*
X97775986Y-60857420D01*
X97765084Y-60862377D01*
X97651559Y-60913993D01*
X97645406Y-60918940D01*
X97645403Y-60918942D01*
X97634619Y-60927613D01*
X97602813Y-60953186D01*
X96120528Y-62435471D01*
X96118388Y-62438133D01*
X96086284Y-62478061D01*
X96086282Y-62478064D01*
X96081335Y-62484217D01*
X96021048Y-62616813D01*
X96018534Y-62634366D01*
X96016200Y-62650665D01*
X95986743Y-62715262D01*
X95927038Y-62753679D01*
X95909336Y-62757529D01*
X95875484Y-62762377D01*
X95867316Y-62766091D01*
X95867315Y-62766091D01*
X95858148Y-62770259D01*
X95742888Y-62822664D01*
X95736735Y-62827611D01*
X95736732Y-62827613D01*
X95735644Y-62828488D01*
X95694142Y-62861857D01*
X94211857Y-64344142D01*
X94209717Y-64346804D01*
X94207443Y-64349338D01*
X94206769Y-64348734D01*
X94151657Y-64387076D01*
X94080708Y-64389676D01*
X94022659Y-64356656D01*
X93595405Y-63929402D01*
X93561379Y-63867090D01*
X93558500Y-63840307D01*
X93558500Y-62967031D01*
X93578502Y-62898910D01*
X93595405Y-62877936D01*
X97177936Y-59295405D01*
X97240248Y-59261379D01*
X97267031Y-59258500D01*
X106862969Y-59258500D01*
X106931090Y-59278502D01*
X106952064Y-59295405D01*
X108924595Y-61267936D01*
X108958621Y-61330248D01*
X108961500Y-61357031D01*
X108961500Y-64014014D01*
X108941498Y-64082135D01*
X108887842Y-64128628D01*
X108817568Y-64138732D01*
X108752988Y-64109238D01*
X108746405Y-64103110D01*
X108447730Y-63804436D01*
X108433792Y-63796825D01*
X108431956Y-63796957D01*
X108425344Y-63801206D01*
X106658670Y-65567879D01*
X105254439Y-66972111D01*
X105246827Y-66986052D01*
X105246958Y-66987887D01*
X105251209Y-66994501D01*
X105800714Y-67544006D01*
X105805796Y-67548567D01*
X105845670Y-67580627D01*
X105859023Y-67588850D01*
X105976126Y-67642093D01*
X105993180Y-67647079D01*
X106017930Y-67650624D01*
X106082527Y-67680081D01*
X106120944Y-67739786D01*
X106124794Y-67757486D01*
X106129716Y-67791854D01*
X106190003Y-67924450D01*
X106194950Y-67930603D01*
X106194952Y-67930606D01*
X106215740Y-67956460D01*
X106229196Y-67973196D01*
X107711481Y-69455481D01*
X107714143Y-69457621D01*
X107754071Y-69489725D01*
X107754074Y-69489727D01*
X107760227Y-69494674D01*
X107892823Y-69554961D01*
X107926675Y-69559809D01*
X107991272Y-69589266D01*
X108029689Y-69648971D01*
X108033539Y-69666673D01*
X108038387Y-69700525D01*
X108098674Y-69833121D01*
X108103621Y-69839274D01*
X108103623Y-69839277D01*
X108115510Y-69854061D01*
X108137867Y-69881867D01*
X109620152Y-71364152D01*
X109622814Y-71366292D01*
X109662742Y-71398396D01*
X109662745Y-71398398D01*
X109668898Y-71403345D01*
X109801494Y-71463632D01*
X109810377Y-71464904D01*
X109810380Y-71464905D01*
X109936791Y-71483008D01*
X109945680Y-71484281D01*
X109954569Y-71483008D01*
X110080980Y-71464905D01*
X110080983Y-71464904D01*
X110089866Y-71463632D01*
X110222462Y-71403345D01*
X110228615Y-71398398D01*
X110228618Y-71398396D01*
X110268546Y-71366292D01*
X110271208Y-71364152D01*
X110883546Y-70751814D01*
X110901818Y-70736697D01*
X110934278Y-70714637D01*
X111024317Y-70653446D01*
X111200691Y-70486658D01*
X111231913Y-70445822D01*
X111345056Y-70297837D01*
X111345058Y-70297835D01*
X111348130Y-70293816D01*
X111350521Y-70289357D01*
X111351418Y-70287965D01*
X111368233Y-70267127D01*
X112814153Y-68821207D01*
X112827609Y-68804471D01*
X112848397Y-68778617D01*
X112848399Y-68778614D01*
X112853346Y-68772461D01*
X112913633Y-68639865D01*
X112916148Y-68622309D01*
X112933009Y-68504568D01*
X112934282Y-68495679D01*
X112913633Y-68351493D01*
X112853346Y-68218897D01*
X112848399Y-68212744D01*
X112848397Y-68212741D01*
X112816293Y-68172813D01*
X112814153Y-68170151D01*
X111331868Y-66687866D01*
X111329206Y-66685726D01*
X111326672Y-66683452D01*
X111327279Y-66682776D01*
X111288939Y-66627684D01*
X111286327Y-66556735D01*
X111319352Y-66498666D01*
X111519702Y-66298317D01*
X111522224Y-66295864D01*
X111591005Y-66230821D01*
X111594681Y-66227345D01*
X111642412Y-66164916D01*
X111646554Y-66159784D01*
X111694187Y-66103815D01*
X111694189Y-66103812D01*
X111697470Y-66099957D01*
X111700090Y-66095631D01*
X111700095Y-66095624D01*
X111714491Y-66071853D01*
X111722163Y-66060606D01*
X111742120Y-66034503D01*
X111779247Y-65965261D01*
X111782510Y-65959540D01*
X111820602Y-65896643D01*
X111820603Y-65896642D01*
X111823220Y-65892320D01*
X111835534Y-65861843D01*
X111841303Y-65849527D01*
X111856831Y-65820568D01*
X111882423Y-65746244D01*
X111884718Y-65740106D01*
X111885711Y-65737650D01*
X111897782Y-65707771D01*
X111912258Y-65671944D01*
X111912259Y-65671940D01*
X111914155Y-65667248D01*
X111921432Y-65635216D01*
X111925163Y-65622118D01*
X111935862Y-65591046D01*
X111949243Y-65513577D01*
X111950526Y-65507159D01*
X111956050Y-65482848D01*
X111967935Y-65430533D01*
X111969999Y-65397724D01*
X111971585Y-65384224D01*
X111977179Y-65351841D01*
X111978500Y-65322752D01*
X111978500Y-65266570D01*
X111978749Y-65258658D01*
X111982860Y-65193319D01*
X111983178Y-65188265D01*
X111979101Y-65146686D01*
X111978500Y-65134390D01*
X111978500Y-60704016D01*
X111978549Y-60700498D01*
X111981193Y-60605850D01*
X111981193Y-60605847D01*
X111981334Y-60600795D01*
X111970941Y-60522902D01*
X111970241Y-60516353D01*
X111964346Y-60443077D01*
X111964345Y-60443073D01*
X111963940Y-60438035D01*
X111956101Y-60406122D01*
X111953573Y-60392738D01*
X111949898Y-60365194D01*
X111949229Y-60360180D01*
X111926522Y-60284971D01*
X111924781Y-60278608D01*
X111907244Y-60207209D01*
X111906037Y-60202294D01*
X111893199Y-60172048D01*
X111888561Y-60159237D01*
X111880530Y-60132638D01*
X111879067Y-60127792D01*
X111876849Y-60123244D01*
X111876846Y-60123237D01*
X111844629Y-60057182D01*
X111841893Y-60051180D01*
X111813162Y-59983495D01*
X111811188Y-59978844D01*
X111793681Y-59951044D01*
X111787052Y-59939134D01*
X111772654Y-59909612D01*
X111727357Y-59845400D01*
X111723699Y-59839914D01*
X111684529Y-59777714D01*
X111684528Y-59777713D01*
X111681833Y-59773433D01*
X111678492Y-59769644D01*
X111678488Y-59769638D01*
X111660102Y-59748783D01*
X111651656Y-59738088D01*
X111635009Y-59714490D01*
X111632726Y-59711253D01*
X111613091Y-59689750D01*
X111573375Y-59650034D01*
X111567956Y-59644264D01*
X111524650Y-59595142D01*
X111524647Y-59595139D01*
X111521302Y-59591345D01*
X111489011Y-59564821D01*
X111479892Y-59556551D01*
X108623675Y-56700334D01*
X108621221Y-56697812D01*
X108556138Y-56628988D01*
X108556135Y-56628986D01*
X108552668Y-56625319D01*
X108490239Y-56577589D01*
X108485108Y-56573448D01*
X108429133Y-56525809D01*
X108429132Y-56525808D01*
X108425280Y-56522530D01*
X108420955Y-56519911D01*
X108420950Y-56519907D01*
X108397176Y-56505509D01*
X108385929Y-56497837D01*
X108359826Y-56477880D01*
X108290592Y-56440757D01*
X108284868Y-56437493D01*
X108266413Y-56426316D01*
X108217642Y-56396779D01*
X108187181Y-56384472D01*
X108174841Y-56378692D01*
X108150350Y-56365560D01*
X108150351Y-56365560D01*
X108145891Y-56363169D01*
X108141110Y-56361523D01*
X108141106Y-56361521D01*
X108071599Y-56337588D01*
X108065421Y-56335278D01*
X107997266Y-56307742D01*
X107997267Y-56307742D01*
X107992571Y-56305845D01*
X107960539Y-56298568D01*
X107947441Y-56294837D01*
X107916369Y-56284138D01*
X107838900Y-56270757D01*
X107832496Y-56269477D01*
X107755856Y-56252065D01*
X107723047Y-56250001D01*
X107709547Y-56248415D01*
X107677164Y-56242821D01*
X107673207Y-56242641D01*
X107673204Y-56242641D01*
X107649494Y-56241564D01*
X107649475Y-56241564D01*
X107648075Y-56241500D01*
X107591892Y-56241500D01*
X107583980Y-56241251D01*
X107578386Y-56240899D01*
X107513587Y-56236822D01*
X107474545Y-56240650D01*
X107472008Y-56240899D01*
X107459712Y-56241500D01*
X96614016Y-56241500D01*
X96610498Y-56241451D01*
X96515851Y-56238807D01*
X96515848Y-56238807D01*
X96510795Y-56238666D01*
X96505782Y-56239335D01*
X96505779Y-56239335D01*
X96432911Y-56249057D01*
X96426354Y-56249758D01*
X96353080Y-56255654D01*
X96353079Y-56255654D01*
X96348035Y-56256060D01*
X96343124Y-56257266D01*
X96343119Y-56257267D01*
X96316139Y-56263894D01*
X96302750Y-56266424D01*
X96290315Y-56268083D01*
X96270180Y-56270770D01*
X96194949Y-56293484D01*
X96188604Y-56295220D01*
X96112294Y-56313963D01*
X96107642Y-56315938D01*
X96107638Y-56315939D01*
X96082052Y-56326800D01*
X96069239Y-56331438D01*
X96037792Y-56340932D01*
X95967138Y-56375392D01*
X95961204Y-56378097D01*
X95888844Y-56408812D01*
X95884564Y-56411507D01*
X95884553Y-56411513D01*
X95861047Y-56426316D01*
X95849140Y-56432944D01*
X95839814Y-56437493D01*
X95819612Y-56447346D01*
X95815483Y-56450259D01*
X95755403Y-56492641D01*
X95749914Y-56496301D01*
X95712429Y-56519907D01*
X95683433Y-56538167D01*
X95679644Y-56541508D01*
X95679638Y-56541512D01*
X95658783Y-56559898D01*
X95648088Y-56568344D01*
X95621253Y-56587274D01*
X95599750Y-56606909D01*
X95560034Y-56646625D01*
X95554264Y-56652044D01*
X95505142Y-56695350D01*
X95505139Y-56695353D01*
X95501345Y-56698698D01*
X95498135Y-56702606D01*
X95498134Y-56702607D01*
X95474821Y-56730989D01*
X95466551Y-56740108D01*
X91000334Y-61206325D01*
X90997812Y-61208779D01*
X90925319Y-61277332D01*
X90922252Y-61281344D01*
X90877592Y-61339757D01*
X90873448Y-61344892D01*
X90822530Y-61404720D01*
X90819911Y-61409045D01*
X90819907Y-61409050D01*
X90805509Y-61432824D01*
X90797837Y-61444071D01*
X90777880Y-61470174D01*
X90775490Y-61474632D01*
X90775489Y-61474633D01*
X90740761Y-61539401D01*
X90737496Y-61545126D01*
X90696779Y-61612358D01*
X90694884Y-61617049D01*
X90684473Y-61642817D01*
X90678693Y-61655158D01*
X90663169Y-61684109D01*
X90661523Y-61688890D01*
X90661521Y-61688894D01*
X90637588Y-61758401D01*
X90635278Y-61764579D01*
X90605845Y-61837429D01*
X90604723Y-61842368D01*
X90598568Y-61869460D01*
X90594837Y-61882559D01*
X90584138Y-61913631D01*
X90570757Y-61991100D01*
X90569477Y-61997504D01*
X90552065Y-62074144D01*
X90550001Y-62106953D01*
X90548415Y-62120453D01*
X90542821Y-62152836D01*
X90541500Y-62181925D01*
X90541500Y-62238108D01*
X90541251Y-62246019D01*
X90536822Y-62316413D01*
X90537316Y-62321448D01*
X90540899Y-62357992D01*
X90541500Y-62370288D01*
X90541500Y-64493322D01*
X90541451Y-64496840D01*
X90538666Y-64596543D01*
X90539335Y-64601557D01*
X90549058Y-64674424D01*
X90549758Y-64680977D01*
X90556060Y-64759303D01*
X90563897Y-64791208D01*
X90566426Y-64804596D01*
X90570771Y-64837158D01*
X90572232Y-64841999D01*
X90572233Y-64842001D01*
X90593478Y-64912367D01*
X90595219Y-64918728D01*
X90613963Y-64995044D01*
X90615941Y-64999704D01*
X90626801Y-65025289D01*
X90631438Y-65038099D01*
X90640933Y-65069546D01*
X90643151Y-65074094D01*
X90643154Y-65074101D01*
X90675371Y-65140156D01*
X90678107Y-65146158D01*
X90693843Y-65183230D01*
X90708812Y-65218494D01*
X90711504Y-65222768D01*
X90726319Y-65246294D01*
X90732945Y-65258198D01*
X90747346Y-65287726D01*
X90750265Y-65291863D01*
X90750265Y-65291864D01*
X90792641Y-65351935D01*
X90796301Y-65357424D01*
X90835471Y-65419624D01*
X90838167Y-65423905D01*
X90841508Y-65427694D01*
X90841512Y-65427700D01*
X90859898Y-65448555D01*
X90868344Y-65459250D01*
X90887274Y-65486085D01*
X90906909Y-65507588D01*
X90946625Y-65547304D01*
X90952044Y-65553074D01*
X90995350Y-65602196D01*
X90995353Y-65602199D01*
X90998698Y-65605993D01*
X91002606Y-65609203D01*
X91002607Y-65609204D01*
X91030989Y-65632517D01*
X91040108Y-65640787D01*
X91889319Y-66489998D01*
X91923345Y-66552310D01*
X91918280Y-66623125D01*
X91881438Y-66674155D01*
X91882000Y-66674782D01*
X91879466Y-66677056D01*
X91876804Y-66679196D01*
X90394519Y-68161481D01*
X90392379Y-68164143D01*
X90360275Y-68204071D01*
X90360273Y-68204074D01*
X90355326Y-68210227D01*
X90352058Y-68217415D01*
X90321883Y-68283783D01*
X90295039Y-68342823D01*
X90293767Y-68351706D01*
X90293766Y-68351709D01*
X90282086Y-68433272D01*
X90274390Y-68487009D01*
X80431726Y-68487009D01*
X80577646Y-67722073D01*
X80578743Y-67716911D01*
X80783095Y-66845650D01*
X80784408Y-66840538D01*
X81025057Y-65978631D01*
X81026582Y-65973579D01*
X81296412Y-65143125D01*
X81303123Y-65122472D01*
X81304858Y-65117490D01*
X81324491Y-65064700D01*
X81501091Y-64589836D01*
X81616783Y-64278752D01*
X81618725Y-64273845D01*
X81965520Y-63448851D01*
X81967667Y-63444030D01*
X82348683Y-62634331D01*
X82351029Y-62629604D01*
X82765636Y-61836533D01*
X82768179Y-61831908D01*
X83215622Y-61056915D01*
X83218356Y-61052401D01*
X83657652Y-60360180D01*
X83697861Y-60296821D01*
X83700771Y-60292440D01*
X83705963Y-60284971D01*
X84211511Y-59557582D01*
X84214593Y-59553339D01*
X84755655Y-58840516D01*
X84758933Y-58836381D01*
X85282383Y-58203638D01*
X85329384Y-58146824D01*
X85332775Y-58142896D01*
X85931616Y-57477815D01*
X85935199Y-57473999D01*
X86561348Y-56834596D01*
X86565119Y-56830904D01*
X87183978Y-56249758D01*
X87217462Y-56218314D01*
X87221383Y-56214784D01*
X87898802Y-55630051D01*
X87902866Y-55626689D01*
X88604190Y-55070826D01*
X88608394Y-55067635D01*
X89332377Y-54541631D01*
X89336711Y-54538619D01*
X89763316Y-54255183D01*
X90082089Y-54043391D01*
X90086522Y-54040577D01*
X90851983Y-53576998D01*
X90856553Y-53574359D01*
X91640762Y-53143237D01*
X91645439Y-53140792D01*
X92446999Y-52742893D01*
X92451774Y-52740646D01*
X93269299Y-52376661D01*
X93274164Y-52374616D01*
X93623457Y-52236321D01*
X94106237Y-52045175D01*
X94111161Y-52043344D01*
X94429763Y-51932396D01*
X94956264Y-51749049D01*
X94961283Y-51747418D01*
X95817988Y-51488764D01*
X95823071Y-51487345D01*
X96689820Y-51264801D01*
X96694958Y-51263595D01*
X97213611Y-51153352D01*
X97570321Y-51077531D01*
X97575494Y-51076545D01*
X98457877Y-50927301D01*
X98463081Y-50926533D01*
X98981852Y-50860996D01*
X99350901Y-50814375D01*
X99356150Y-50813823D01*
X100015808Y-50758430D01*
X100247921Y-50738939D01*
X100253179Y-50738608D01*
X101147267Y-50701134D01*
X101152544Y-50701023D01*
X102047456Y-50701023D01*
X102052733Y-50701134D01*
G37*
%TD.AperFunction*%
%TD*%
M02*
