<?xml version="1.0" standalone="no"?>
 <!DOCTYPE svg PUBLIC "-//W3C//DTD SVG 1.1//EN" 
 "http://www.w3.org/Graphics/SVG/1.1/DTD/svg11.dtd"> 
<svg
  xmlns:svg="http://www.w3.org/2000/svg"
  xmlns="http://www.w3.org/2000/svg"
  xmlns:xlink="http://www.w3.org/1999/xlink"
  version="1.1"
  width="14.800580cm" height="21.000720cm" viewBox="0 0 148005800 210007200">
<title>SVG Picture created as GlowTowerPCB-Edge_Cuts.svg date 2022/06/21 16:20:17 </title>
  <desc>Picture generated by PCBNEW </desc>
<g style="fill:#000000; fill-opacity:1.000000;stroke:#000000; stroke-opacity:1.000000;
stroke-linecap:round; stroke-linejoin:round;"
 transform="translate(0 0) scale(1 1)">
</g>
<g style="fill:#000000; fill-opacity:0.0; 
stroke:#000000; stroke-width:0.000000; stroke-opacity:1; 
stroke-linecap:round; stroke-linejoin:round;">
</g>
<g style="fill:#000000; fill-opacity:0.0; 
stroke:#000000; stroke-width:100000.000000; stroke-opacity:1; 
stroke-linecap:round; stroke-linejoin:round;">
<path d="M92091585.999888 77519582.000098 A1000018.000000 1000018.000000 0.0 0 0 91091582.000098 78519586.000000" />
<path d="M53820216.999975 38640717.000036 A3999983.000000 3999983.000000 0.0 0 0 49820217.000005 42640706.000000" />
<path d="M98177298.988826 42640701.000599 A4000299.000000 4000299.000000 0.0 0 0 94176966.000000 38640701.000144" />
<path d="M91091582 78519586
L91091474 104927058
" />
<path d="M65103657.564014 59053079.562947 A1099737.000000 1099737.000000 0.0 0 0 65103076.064813 60608338.935235" />
<path d="M82894519 60608668
L74776403 68726033
" />
<path d="M49820414 128167641
L49820217 42640706
" />
<path d="M97177164.001548 77519567.999352 A999968.000000 999968.000000 0.0 0 0 98177167.999887 76519615.000000" />
<path d="M97127814.825407 130868434.755370 A3999957.000000 3999957.000000 0.0 0 0 98176956.984687 128167650.000001" />
<path d="M51280799.918877 131271436.320715 A17928250.000000 17928250.000000 0.0 0 0 61817024.009739 135980421.895138" />
<path d="M82894517.199410 60608666.201378 A1100388.000000 1100388.000000 0.0 0 0 82893935.801138 59052752.198942" />
<path d="M73220778 68726021
L65103076 60608339
" />
<path d="M98177307 42640701
L98177168 76519615
" />
<path d="M91091538.000882 104927058.002688 A999962.000000 999962.000000 0.0 0 0 92091470.000000 105927061.999550" />
<path d="M65103659 59053081
L73220787 50935204
" />
<path d="M98177016.999916 106927087.000351 A1000017.000000 1000017.000000 0.0 0 0 97177048.000000 105927083.001152" />
<path d="M86180144 135980276
L61817024 135980422
" />
<path d="M49820412.016112 128167640.999822 A3999588.000000 3999588.000000 0.0 0 0 50731718.366016 130709499.698788" />
<path d="M86180144.437632 135980280.711466 A17928125.000000 17928125.000000 0.0 0 0 96703678.231564 131282873.250045" />
<path d="M97177164 77519611
L92091586 77519590
" />
<path d="M53820217 38640711
L94176966 38640701
" />
<path d="M97127814 130868434
L96703678 131282873
" />
<path d="M74776400 50935216
L82893936 59052752
" />
<path d="M73220781.333590 68726017.666414 A1100001.000000 1100001.000000 0.0 0 0 74776403.166264 68726033.166271" />
<path d="M51280803 131271433
L50731718 130709500
" />
<path d="M92091470 105927062
L97177048 105927083
" />
<path d="M74776412.227064 50935203.771616 A1100052.000000 1100052.000000 0.0 0 0 73220787.272235 50935204.272264" />
<path d="M98177044 106927087
L98176957 128167650
" />
<g >
</g>
<g >
</g>
<g >
</g>
<g >
</g>
<g >
</g>
<g >
</g>
<g >
</g>
<g >
</g>
<g >
</g>
<g >
</g>
<g >
</g>
<g >
</g>
<g >
</g>
<g >
</g>
<g >
</g>
<g >
</g>
<g >
</g>
<g >
</g>
<g >
</g>
<g >
</g>
<g >
</g>
<g >
</g>
<g >
</g>
<g >
</g>
<g >
</g>
<g >
</g>
<g >
</g>
<g >
</g>
<g >
</g>
<g >
</g>
<g >
</g>
<g >
</g>
<g >
</g>
<g >
</g>
<g >
</g>
<g >
</g>
<g >
</g>
<g >
</g>
<g >
</g>
<g >
</g>
<g >
</g>
<g >
</g>
<g >
</g>
<g >
</g>
<g >
</g>
<g >
</g>
<g >
</g>
<g >
</g>
<g >
</g>
<g >
</g>
<g >
</g>
</g> 
</svg>
