<?xml version="1.0" standalone="no"?>
 <!DOCTYPE svg PUBLIC "-//W3C//DTD SVG 1.1//EN" 
 "http://www.w3.org/Graphics/SVG/1.1/DTD/svg11.dtd"> 
<svg
  xmlns:svg="http://www.w3.org/2000/svg"
  xmlns="http://www.w3.org/2000/svg"
  xmlns:xlink="http://www.w3.org/1999/xlink"
  version="1.1"
  width="14.800580cm" height="21.000720cm" viewBox="0 0 148005800 210007200">
<title>SVG Picture created as GlowTowerPCB-Edge_Cuts.svg date 2022/05/05 17:06:45 </title>
  <desc>Picture generated by PCBNEW </desc>
<g style="fill:#000000; fill-opacity:1.000000;stroke:#000000; stroke-opacity:1.000000;
stroke-linecap:round; stroke-linejoin:round;"
 transform="translate(0 0) scale(1 1)">
</g>
<g style="fill:#000000; fill-opacity:0.0; 
stroke:#000000; stroke-width:0.000000; stroke-opacity:1; 
stroke-linecap:round; stroke-linejoin:round;">
</g>
<g style="fill:#000000; fill-opacity:0.0; 
stroke:#000000; stroke-width:100000.000000; stroke-opacity:1; 
stroke-linecap:round; stroke-linejoin:round;">
<path d="M82469698.314513 60184153.310206 A499961.000000 499961.000000 0.0 0 0 82469725.813429 59477074.186571" />
<path d="M96949813.254133 131050596.621171 A4000159.000000 4000159.000000 0.0 0 0 98176958.999700 128167649.000000" />
<path d="M73645033.902302 68301767.097699 A500001.000000 500001.000000 0.0 0 0 74352140.097698 68301767.097699" />
<path d="M74352140 68301767
L82469726 60184181
" />
<path d="M51047360.836762 131050596.527069 A17928083.000000 17928083.000000 0.0 0 0 61817014.956370 135980425.469669" />
<path d="M65527448 60184181
L73645034 68301767
" />
<path d="M73645034 51359488
L65527448 59477074
" />
<path d="M82469726 59477074
L74352140 51359488
" />
<path d="M61817015 135980425
L86180159 135980425
" />
<path d="M74352140.097698 51359487.902301 A500001.000000 500001.000000 0.0 0 0 73645033.902302 51359487.902301" />
<path d="M98176959 128167649
L98176959 42640705
" />
<path d="M98176994.999997 42640705.000045 A3999995.000000 3999995.000000 0.0 0 0 94176959.000000 38640705.000210" />
<path d="M86180161.925498 135980456.491203 A17928121.000000 17928121.000000 0.0 0 0 96949803.945149 131050586.942972" />
<path d="M94176959 38640705
L53820215 38640705
" />
<path d="M49820215 128167649
L49820215 42640705
" />
<path d="M49820175.000300 128167649.000490 A4000025.000000 4000025.000000 0.0 0 0 51047370.021701 131050586.977437" />
<path d="M53820214.999963 38640715.000028 A3999985.000000 3999985.000000 0.0 0 0 49820215.000003 42640705.000000" />
<path d="M65527420.173594 59477046.175640 A500019.000000 500019.000000 0.0 0 0 65527447.674689 60184181.325338" />
<g >
</g>
<g >
</g>
<g >
</g>
<g >
</g>
<g >
</g>
<g >
</g>
<g >
</g>
<g >
</g>
<g >
</g>
<g >
</g>
<g >
</g>
<g >
</g>
<g >
</g>
<g >
</g>
<g >
</g>
<g >
</g>
<g >
</g>
<g >
</g>
<g >
</g>
<g >
</g>
<g >
</g>
<g >
</g>
<g >
</g>
<g >
</g>
<g >
</g>
<g >
</g>
<g >
</g>
<g >
</g>
<g >
</g>
<g >
</g>
<g >
</g>
<g >
</g>
<g >
</g>
<g >
</g>
<g >
</g>
<g >
</g>
<g >
</g>
<g >
</g>
<g >
</g>
<g >
</g>
<g >
</g>
<g >
</g>
<g >
</g>
<g >
</g>
<g >
</g>
<g >
</g>
</g> 
</svg>
