<?xml version="1.0" standalone="no"?>
 <!DOCTYPE svg PUBLIC "-//W3C//DTD SVG 1.1//EN" 
 "http://www.w3.org/Graphics/SVG/1.1/DTD/svg11.dtd"> 
<svg
  xmlns:svg="http://www.w3.org/2000/svg"
  xmlns="http://www.w3.org/2000/svg"
  xmlns:xlink="http://www.w3.org/1999/xlink"
  version="1.1"
  width="14.800580cm" height="21.000720cm" viewBox="0 0 148005800 210007200">
<title>SVG Picture created as GlowTowerPCB-F_Paste.svg date 2022/06/21 16:20:17 </title>
  <desc>Picture generated by PCBNEW </desc>
<g style="fill:#000000; fill-opacity:1.000000;stroke:#000000; stroke-opacity:1.000000;
stroke-linecap:round; stroke-linejoin:round;"
 transform="translate(0 0) scale(1 1)">
</g>
<g style="fill:#000000; fill-opacity:0.0; 
stroke:#000000; stroke-width:0.000000; stroke-opacity:1; 
stroke-linecap:round; stroke-linejoin:round;">
<g >
</g>
<g style="fill:#000000; fill-opacity:0.0; 
stroke:#000000; stroke-width:1.000000; stroke-opacity:1; 
stroke-linecap:round; stroke-linejoin:round;">
</g>
<g style="fill:#000000; fill-opacity:1.0; 
stroke:#000000; stroke-width:1.000000; stroke-opacity:1; 
stroke-linecap:round; stroke-linejoin:round;">
<path style="fill:#000000; fill-opacity:1.0; 
stroke:#000000; stroke-width:1.000000; stroke-opacity:1; 
stroke-linecap:round; stroke-linejoin:round;fill-rule:evenodd;"
d="M 83660077.000000,105300551.000000
83660077.000000,104750539.000000
84710089.000000,104750539.000000
84710089.000000,105300551.000000
Z" /> 
<path style="fill:#000000; fill-opacity:1.0; 
stroke:#000000; stroke-width:1.000000; stroke-opacity:1; 
stroke-linecap:round; stroke-linejoin:round;fill-rule:evenodd;"
d="M 82309810.000000,105300551.000000
82309810.000000,104750539.000000
83359822.000000,104750539.000000
83359822.000000,105300551.000000
Z" /> 
<path style="fill:#000000; fill-opacity:1.0; 
stroke:#000000; stroke-width:1.000000; stroke-opacity:1; 
stroke-linecap:round; stroke-linejoin:round;fill-rule:evenodd;"
d="M 82309810.000000,106150437.000000
82309810.000000,105600425.000000
83359822.000000,105600425.000000
83359822.000000,106150437.000000
Z" /> 
<path style="fill:#000000; fill-opacity:1.0; 
stroke:#000000; stroke-width:1.000000; stroke-opacity:1; 
stroke-linecap:round; stroke-linejoin:round;fill-rule:evenodd;"
d="M 83660077.000000,106150437.000000
83660077.000000,105600425.000000
84710089.000000,105600425.000000
84710089.000000,106150437.000000
Z" /> 
<path style="fill:#000000; fill-opacity:1.0; 
stroke:#000000; stroke-width:1.000000; stroke-opacity:1; 
stroke-linecap:round; stroke-linejoin:round;fill-rule:evenodd;"
d="M 85009861.000000,106150487.000000
85009861.000000,104750489.000000
85459873.000000,104750489.000000
85459873.000000,106150487.000000
Z" /> 
<path style="fill:#000000; fill-opacity:1.0; 
stroke:#000000; stroke-width:1.000000; stroke-opacity:1; 
stroke-linecap:round; stroke-linejoin:round;fill-rule:evenodd;"
d="M 82309950.000000,104450449.000000
82309950.000000,104000437.000000
84709948.000000,104000437.000000
84709948.000000,104450449.000000
Z" /> 
<path style="fill:#000000; fill-opacity:1.0; 
stroke:#000000; stroke-width:1.000000; stroke-opacity:1; 
stroke-linecap:round; stroke-linejoin:round;fill-rule:evenodd;"
d="M 81560026.000000,106150487.000000
81560026.000000,104750489.000000
82010038.000000,104750489.000000
82010038.000000,106150487.000000
Z" /> 
<path style="fill:#000000; fill-opacity:1.0; 
stroke:#000000; stroke-width:1.000000; stroke-opacity:1; 
stroke-linecap:round; stroke-linejoin:round;fill-rule:evenodd;"
d="M 82309950.000000,106900538.000000
82309950.000000,106450526.000000
84709948.000000,106450526.000000
84709948.000000,106900538.000000
Z" /> 
</g>
<g >
</g>
<g style="fill:#000000; fill-opacity:1.0; 
stroke:#000000; stroke-width:1.000000; stroke-opacity:1; 
stroke-linecap:round; stroke-linejoin:round;">
<path style="fill:#000000; fill-opacity:1.0; 
stroke:#000000; stroke-width:1.000000; stroke-opacity:1; 
stroke-linecap:round; stroke-linejoin:round;fill-rule:evenodd;"
d="M 94830000.000000,74507500.000000
94811921.000000,74598387.000000
94760438.000000,74675438.000000
94683387.000000,74726921.000000
94592500.000000,74745000.000000
94092500.000000,74745000.000000
94001613.000000,74726921.000000
93924562.000000,74675438.000000
93873079.000000,74598387.000000
93855000.000000,74507500.000000
93855000.000000,74032500.000000
93873079.000000,73941613.000000
93924562.000000,73864562.000000
94001613.000000,73813079.000000
94092500.000000,73795000.000000
94592500.000000,73795000.000000
94683387.000000,73813079.000000
94760438.000000,73864562.000000
94811921.000000,73941613.000000
94830000.000000,74032500.000000
Z" /> 
<path style="fill:#000000; fill-opacity:1.0; 
stroke:#000000; stroke-width:1.000000; stroke-opacity:1; 
stroke-linecap:round; stroke-linejoin:round;fill-rule:evenodd;"
d="M 93005000.000000,74507500.000000
92986921.000000,74598387.000000
92935438.000000,74675438.000000
92858387.000000,74726921.000000
92767500.000000,74745000.000000
92267500.000000,74745000.000000
92176613.000000,74726921.000000
92099562.000000,74675438.000000
92048079.000000,74598387.000000
92030000.000000,74507500.000000
92030000.000000,74032500.000000
92048079.000000,73941613.000000
92099562.000000,73864562.000000
92176613.000000,73813079.000000
92267500.000000,73795000.000000
92767500.000000,73795000.000000
92858387.000000,73813079.000000
92935438.000000,73864562.000000
92986921.000000,73941613.000000
93005000.000000,74032500.000000
Z" /> 
</g>
<g >
</g>
<g style="fill:#000000; fill-opacity:1.0; 
stroke:#000000; stroke-width:1.000000; stroke-opacity:1; 
stroke-linecap:round; stroke-linejoin:round;">
<path style="fill:#000000; fill-opacity:1.0; 
stroke:#000000; stroke-width:1.000000; stroke-opacity:1; 
stroke-linecap:round; stroke-linejoin:round;fill-rule:evenodd;"
d="M 78547500.000000,123230000.000000
78638387.000000,123248079.000000
78715438.000000,123299562.000000
78766921.000000,123376613.000000
78785000.000000,123467500.000000
78785000.000000,123967500.000000
78766921.000000,124058387.000000
78715438.000000,124135438.000000
78638387.000000,124186921.000000
78547500.000000,124205000.000000
78072500.000000,124205000.000000
77981613.000000,124186921.000000
77904562.000000,124135438.000000
77853079.000000,124058387.000000
77835000.000000,123967500.000000
77835000.000000,123467500.000000
77853079.000000,123376613.000000
77904562.000000,123299562.000000
77981613.000000,123248079.000000
78072500.000000,123230000.000000
Z" /> 
<path style="fill:#000000; fill-opacity:1.0; 
stroke:#000000; stroke-width:1.000000; stroke-opacity:1; 
stroke-linecap:round; stroke-linejoin:round;fill-rule:evenodd;"
d="M 78547500.000000,125055000.000000
78638387.000000,125073079.000000
78715438.000000,125124562.000000
78766921.000000,125201613.000000
78785000.000000,125292500.000000
78785000.000000,125792500.000000
78766921.000000,125883387.000000
78715438.000000,125960438.000000
78638387.000000,126011921.000000
78547500.000000,126030000.000000
78072500.000000,126030000.000000
77981613.000000,126011921.000000
77904562.000000,125960438.000000
77853079.000000,125883387.000000
77835000.000000,125792500.000000
77835000.000000,125292500.000000
77853079.000000,125201613.000000
77904562.000000,125124562.000000
77981613.000000,125073079.000000
78072500.000000,125055000.000000
Z" /> 
</g>
<g >
</g>
<g style="fill:#000000; fill-opacity:1.0; 
stroke:#000000; stroke-width:1.000000; stroke-opacity:1; 
stroke-linecap:round; stroke-linejoin:round;">
<path style="fill:#000000; fill-opacity:1.0; 
stroke:#000000; stroke-width:1.000000; stroke-opacity:1; 
stroke-linecap:round; stroke-linejoin:round;fill-rule:evenodd;"
d="M 95870000.000000,49107500.000000
95851921.000000,49198387.000000
95800438.000000,49275438.000000
95723387.000000,49326921.000000
95632500.000000,49345000.000000
95132500.000000,49345000.000000
95041613.000000,49326921.000000
94964562.000000,49275438.000000
94913079.000000,49198387.000000
94895000.000000,49107500.000000
94895000.000000,48632500.000000
94913079.000000,48541613.000000
94964562.000000,48464562.000000
95041613.000000,48413079.000000
95132500.000000,48395000.000000
95632500.000000,48395000.000000
95723387.000000,48413079.000000
95800438.000000,48464562.000000
95851921.000000,48541613.000000
95870000.000000,48632500.000000
Z" /> 
<path style="fill:#000000; fill-opacity:1.0; 
stroke:#000000; stroke-width:1.000000; stroke-opacity:1; 
stroke-linecap:round; stroke-linejoin:round;fill-rule:evenodd;"
d="M 94045000.000000,49107500.000000
94026921.000000,49198387.000000
93975438.000000,49275438.000000
93898387.000000,49326921.000000
93807500.000000,49345000.000000
93307500.000000,49345000.000000
93216613.000000,49326921.000000
93139562.000000,49275438.000000
93088079.000000,49198387.000000
93070000.000000,49107500.000000
93070000.000000,48632500.000000
93088079.000000,48541613.000000
93139562.000000,48464562.000000
93216613.000000,48413079.000000
93307500.000000,48395000.000000
93807500.000000,48395000.000000
93898387.000000,48413079.000000
93975438.000000,48464562.000000
94026921.000000,48541613.000000
94045000.000000,48632500.000000
Z" /> 
</g>
<g >
</g>
<g style="fill:#000000; fill-opacity:1.0; 
stroke:#000000; stroke-width:1.000000; stroke-opacity:1; 
stroke-linecap:round; stroke-linejoin:round;">
<path style="fill:#000000; fill-opacity:1.0; 
stroke:#000000; stroke-width:1.000000; stroke-opacity:1; 
stroke-linecap:round; stroke-linejoin:round;fill-rule:evenodd;"
d="M 76895000.000000,125970000.000000
76875970.000000,126065671.000000
76821777.000000,126146777.000000
76740671.000000,126200970.000000
76645000.000000,126220000.000000
75845000.000000,126220000.000000
75749329.000000,126200970.000000
75668223.000000,126146777.000000
75614030.000000,126065671.000000
75595000.000000,125970000.000000
75595000.000000,123070000.000000
75614030.000000,122974329.000000
75668223.000000,122893223.000000
75749329.000000,122839030.000000
75845000.000000,122820000.000000
76645000.000000,122820000.000000
76740671.000000,122839030.000000
76821777.000000,122893223.000000
76875970.000000,122974329.000000
76895000.000000,123070000.000000
Z" /> 
<path style="fill:#000000; fill-opacity:1.0; 
stroke:#000000; stroke-width:1.000000; stroke-opacity:1; 
stroke-linecap:round; stroke-linejoin:round;fill-rule:evenodd;"
d="M 72445000.000000,125970000.000000
72425970.000000,126065671.000000
72371777.000000,126146777.000000
72290671.000000,126200970.000000
72195000.000000,126220000.000000
71395000.000000,126220000.000000
71299329.000000,126200970.000000
71218223.000000,126146777.000000
71164030.000000,126065671.000000
71145000.000000,125970000.000000
71145000.000000,123070000.000000
71164030.000000,122974329.000000
71218223.000000,122893223.000000
71299329.000000,122839030.000000
71395000.000000,122820000.000000
72195000.000000,122820000.000000
72290671.000000,122839030.000000
72371777.000000,122893223.000000
72425970.000000,122974329.000000
72445000.000000,123070000.000000
Z" /> 
</g>
<g >
</g>
<g >
</g>
<g >
</g>
<g style="fill:#000000; fill-opacity:1.0; 
stroke:#000000; stroke-width:1.000000; stroke-opacity:1; 
stroke-linecap:round; stroke-linejoin:round;">
<path style="fill:#000000; fill-opacity:1.0; 
stroke:#000000; stroke-width:1.000000; stroke-opacity:1; 
stroke-linecap:round; stroke-linejoin:round;fill-rule:evenodd;"
d="M 92820000.000000,65702500.000000
92838079.000000,65611613.000000
92889562.000000,65534562.000000
92966613.000000,65483079.000000
93057500.000000,65465000.000000
93657500.000000,65465000.000000
93748387.000000,65483079.000000
93825438.000000,65534562.000000
93876921.000000,65611613.000000
93895000.000000,65702500.000000
93895000.000000,66177500.000000
93876921.000000,66268387.000000
93825438.000000,66345438.000000
93748387.000000,66396921.000000
93657500.000000,66415000.000000
93057500.000000,66415000.000000
92966613.000000,66396921.000000
92889562.000000,66345438.000000
92838079.000000,66268387.000000
92820000.000000,66177500.000000
Z" /> 
<path style="fill:#000000; fill-opacity:1.0; 
stroke:#000000; stroke-width:1.000000; stroke-opacity:1; 
stroke-linecap:round; stroke-linejoin:round;fill-rule:evenodd;"
d="M 94545000.000000,65702500.000000
94563079.000000,65611613.000000
94614562.000000,65534562.000000
94691613.000000,65483079.000000
94782500.000000,65465000.000000
95382500.000000,65465000.000000
95473387.000000,65483079.000000
95550438.000000,65534562.000000
95601921.000000,65611613.000000
95620000.000000,65702500.000000
95620000.000000,66177500.000000
95601921.000000,66268387.000000
95550438.000000,66345438.000000
95473387.000000,66396921.000000
95382500.000000,66415000.000000
94782500.000000,66415000.000000
94691613.000000,66396921.000000
94614562.000000,66345438.000000
94563079.000000,66268387.000000
94545000.000000,66177500.000000
Z" /> 
</g>
<g >
</g>
<g >
</g>
<g >
</g>
<g style="fill:#000000; fill-opacity:1.0; 
stroke:#000000; stroke-width:1.000000; stroke-opacity:1; 
stroke-linecap:round; stroke-linejoin:round;">
<circle cx="92029970.000000" cy="60002540.000000" r="3214265.000000" /> 
</g>
<g style="fill:#000000; fill-opacity:1.0; 
stroke:#000000; stroke-width:21200.000000; stroke-opacity:1; 
stroke-linecap:round; stroke-linejoin:round;">
</g>
<g >
</g>
<g style="fill:#000000; fill-opacity:1.0; 
stroke:#000000; stroke-width:21200.000000; stroke-opacity:1; 
stroke-linecap:round; stroke-linejoin:round;">
</g>
<g style="fill:#000000; fill-opacity:1.0; 
stroke:#000000; stroke-width:1.000000; stroke-opacity:1; 
stroke-linecap:round; stroke-linejoin:round;">
<path style="fill:#000000; fill-opacity:1.0; 
stroke:#000000; stroke-width:1.000000; stroke-opacity:1; 
stroke-linecap:round; stroke-linejoin:round;fill-rule:evenodd;"
d="M 84150000.000000,80372500.000000
84168079.000000,80281613.000000
84219562.000000,80204562.000000
84296613.000000,80153079.000000
84387500.000000,80135000.000000
84887500.000000,80135000.000000
84978387.000000,80153079.000000
85055438.000000,80204562.000000
85106921.000000,80281613.000000
85125000.000000,80372500.000000
85125000.000000,80847500.000000
85106921.000000,80938387.000000
85055438.000000,81015438.000000
84978387.000000,81066921.000000
84887500.000000,81085000.000000
84387500.000000,81085000.000000
84296613.000000,81066921.000000
84219562.000000,81015438.000000
84168079.000000,80938387.000000
84150000.000000,80847500.000000
Z" /> 
<path style="fill:#000000; fill-opacity:1.0; 
stroke:#000000; stroke-width:1.000000; stroke-opacity:1; 
stroke-linecap:round; stroke-linejoin:round;fill-rule:evenodd;"
d="M 85975000.000000,80372500.000000
85993079.000000,80281613.000000
86044562.000000,80204562.000000
86121613.000000,80153079.000000
86212500.000000,80135000.000000
86712500.000000,80135000.000000
86803387.000000,80153079.000000
86880438.000000,80204562.000000
86931921.000000,80281613.000000
86950000.000000,80372500.000000
86950000.000000,80847500.000000
86931921.000000,80938387.000000
86880438.000000,81015438.000000
86803387.000000,81066921.000000
86712500.000000,81085000.000000
86212500.000000,81085000.000000
86121613.000000,81066921.000000
86044562.000000,81015438.000000
85993079.000000,80938387.000000
85975000.000000,80847500.000000
Z" /> 
</g>
<g >
</g>
<g style="fill:#000000; fill-opacity:1.0; 
stroke:#000000; stroke-width:1.000000; stroke-opacity:1; 
stroke-linecap:round; stroke-linejoin:round;">
<path style="fill:#000000; fill-opacity:1.0; 
stroke:#000000; stroke-width:1.000000; stroke-opacity:1; 
stroke-linecap:round; stroke-linejoin:round;fill-rule:evenodd;"
d="M 73180000.000000,102182500.000000
73198079.000000,102091613.000000
73249562.000000,102014562.000000
73326613.000000,101963079.000000
73417500.000000,101945000.000000
74017500.000000,101945000.000000
74108387.000000,101963079.000000
74185438.000000,102014562.000000
74236921.000000,102091613.000000
74255000.000000,102182500.000000
74255000.000000,102657500.000000
74236921.000000,102748387.000000
74185438.000000,102825438.000000
74108387.000000,102876921.000000
74017500.000000,102895000.000000
73417500.000000,102895000.000000
73326613.000000,102876921.000000
73249562.000000,102825438.000000
73198079.000000,102748387.000000
73180000.000000,102657500.000000
Z" /> 
<path style="fill:#000000; fill-opacity:1.0; 
stroke:#000000; stroke-width:1.000000; stroke-opacity:1; 
stroke-linecap:round; stroke-linejoin:round;fill-rule:evenodd;"
d="M 74905000.000000,102182500.000000
74923079.000000,102091613.000000
74974562.000000,102014562.000000
75051613.000000,101963079.000000
75142500.000000,101945000.000000
75742500.000000,101945000.000000
75833387.000000,101963079.000000
75910438.000000,102014562.000000
75961921.000000,102091613.000000
75980000.000000,102182500.000000
75980000.000000,102657500.000000
75961921.000000,102748387.000000
75910438.000000,102825438.000000
75833387.000000,102876921.000000
75742500.000000,102895000.000000
75142500.000000,102895000.000000
75051613.000000,102876921.000000
74974562.000000,102825438.000000
74923079.000000,102748387.000000
74905000.000000,102657500.000000
Z" /> 
</g>
<g >
</g>
<g >
</g>
<g style="fill:#000000; fill-opacity:1.0; 
stroke:#000000; stroke-width:1.000000; stroke-opacity:1; 
stroke-linecap:round; stroke-linejoin:round;">
<path style="fill:#000000; fill-opacity:1.0; 
stroke:#000000; stroke-width:1.000000; stroke-opacity:1; 
stroke-linecap:round; stroke-linejoin:round;fill-rule:evenodd;"
d="M 94202435.000000,47469923.000000
93302437.000000,47469923.000000
93302437.000000,45969925.000000
94202435.000000,45969925.000000
Z" /> 
<path style="fill:#000000; fill-opacity:1.0; 
stroke:#000000; stroke-width:1.000000; stroke-opacity:1; 
stroke-linecap:round; stroke-linejoin:round;fill-rule:evenodd;"
d="M 94202435.000000,43670075.000000
93302437.000000,43670075.000000
93302437.000000,42170077.000000
94202435.000000,42170077.000000
Z" /> 
<path style="fill:#000000; fill-opacity:1.0; 
stroke:#000000; stroke-width:1.000000; stroke-opacity:1; 
stroke-linecap:round; stroke-linejoin:round;fill-rule:evenodd;"
d="M 95702563.000000,43670075.000000
94802565.000000,43670075.000000
94802565.000000,42170077.000000
95702563.000000,42170077.000000
Z" /> 
<path style="fill:#000000; fill-opacity:1.0; 
stroke:#000000; stroke-width:1.000000; stroke-opacity:1; 
stroke-linecap:round; stroke-linejoin:round;fill-rule:evenodd;"
d="M 95702563.000000,47469923.000000
94802565.000000,47469923.000000
94802565.000000,45969925.000000
95702563.000000,45969925.000000
Z" /> 
</g>
<g >
</g>
<g style="fill:#000000; fill-opacity:1.0; 
stroke:#000000; stroke-width:1.000000; stroke-opacity:1; 
stroke-linecap:round; stroke-linejoin:round;">
<path style="fill:#000000; fill-opacity:1.0; 
stroke:#000000; stroke-width:1.000000; stroke-opacity:1; 
stroke-linecap:round; stroke-linejoin:round;fill-rule:evenodd;"
d="M 82487565.000000,42230077.000000
83387563.000000,42230077.000000
83387563.000000,43730075.000000
82487565.000000,43730075.000000
Z" /> 
<path style="fill:#000000; fill-opacity:1.0; 
stroke:#000000; stroke-width:1.000000; stroke-opacity:1; 
stroke-linecap:round; stroke-linejoin:round;fill-rule:evenodd;"
d="M 82487565.000000,46029925.000000
83387563.000000,46029925.000000
83387563.000000,47529923.000000
82487565.000000,47529923.000000
Z" /> 
<path style="fill:#000000; fill-opacity:1.0; 
stroke:#000000; stroke-width:1.000000; stroke-opacity:1; 
stroke-linecap:round; stroke-linejoin:round;fill-rule:evenodd;"
d="M 80987437.000000,42230077.000000
81887435.000000,42230077.000000
81887435.000000,43730075.000000
80987437.000000,43730075.000000
Z" /> 
<path style="fill:#000000; fill-opacity:1.0; 
stroke:#000000; stroke-width:1.000000; stroke-opacity:1; 
stroke-linecap:round; stroke-linejoin:round;fill-rule:evenodd;"
d="M 80987437.000000,46029925.000000
81887435.000000,46029925.000000
81887435.000000,47529923.000000
80987437.000000,47529923.000000
Z" /> 
</g>
<g >
</g>
<g style="fill:#000000; fill-opacity:1.0; 
stroke:#000000; stroke-width:1.000000; stroke-opacity:1; 
stroke-linecap:round; stroke-linejoin:round;">
<path style="fill:#000000; fill-opacity:1.0; 
stroke:#000000; stroke-width:1.000000; stroke-opacity:1; 
stroke-linecap:round; stroke-linejoin:round;fill-rule:evenodd;"
d="M 86532500.000000,106790000.000000
86441613.000000,106771921.000000
86364562.000000,106720438.000000
86313079.000000,106643387.000000
86295000.000000,106552500.000000
86295000.000000,105952500.000000
86313079.000000,105861613.000000
86364562.000000,105784562.000000
86441613.000000,105733079.000000
86532500.000000,105715000.000000
87007500.000000,105715000.000000
87098387.000000,105733079.000000
87175438.000000,105784562.000000
87226921.000000,105861613.000000
87245000.000000,105952500.000000
87245000.000000,106552500.000000
87226921.000000,106643387.000000
87175438.000000,106720438.000000
87098387.000000,106771921.000000
87007500.000000,106790000.000000
Z" /> 
<path style="fill:#000000; fill-opacity:1.0; 
stroke:#000000; stroke-width:1.000000; stroke-opacity:1; 
stroke-linecap:round; stroke-linejoin:round;fill-rule:evenodd;"
d="M 86532500.000000,105065000.000000
86441613.000000,105046921.000000
86364562.000000,104995438.000000
86313079.000000,104918387.000000
86295000.000000,104827500.000000
86295000.000000,104227500.000000
86313079.000000,104136613.000000
86364562.000000,104059562.000000
86441613.000000,104008079.000000
86532500.000000,103990000.000000
87007500.000000,103990000.000000
87098387.000000,104008079.000000
87175438.000000,104059562.000000
87226921.000000,104136613.000000
87245000.000000,104227500.000000
87245000.000000,104827500.000000
87226921.000000,104918387.000000
87175438.000000,104995438.000000
87098387.000000,105046921.000000
87007500.000000,105065000.000000
Z" /> 
</g>
<g >
</g>
<g >
</g>
<g style="fill:#000000; fill-opacity:1.0; 
stroke:#000000; stroke-width:1.000000; stroke-opacity:1; 
stroke-linecap:round; stroke-linejoin:round;">
<path style="fill:#000000; fill-opacity:1.0; 
stroke:#000000; stroke-width:1.000000; stroke-opacity:1; 
stroke-linecap:round; stroke-linejoin:round;fill-rule:evenodd;"
d="M 91787500.000000,69850000.000000
91878387.000000,69868079.000000
91955438.000000,69919562.000000
92006921.000000,69996613.000000
92025000.000000,70087500.000000
92025000.000000,70687500.000000
92006921.000000,70778387.000000
91955438.000000,70855438.000000
91878387.000000,70906921.000000
91787500.000000,70925000.000000
91312500.000000,70925000.000000
91221613.000000,70906921.000000
91144562.000000,70855438.000000
91093079.000000,70778387.000000
91075000.000000,70687500.000000
91075000.000000,70087500.000000
91093079.000000,69996613.000000
91144562.000000,69919562.000000
91221613.000000,69868079.000000
91312500.000000,69850000.000000
Z" /> 
<path style="fill:#000000; fill-opacity:1.0; 
stroke:#000000; stroke-width:1.000000; stroke-opacity:1; 
stroke-linecap:round; stroke-linejoin:round;fill-rule:evenodd;"
d="M 91787500.000000,71575000.000000
91878387.000000,71593079.000000
91955438.000000,71644562.000000
92006921.000000,71721613.000000
92025000.000000,71812500.000000
92025000.000000,72412500.000000
92006921.000000,72503387.000000
91955438.000000,72580438.000000
91878387.000000,72631921.000000
91787500.000000,72650000.000000
91312500.000000,72650000.000000
91221613.000000,72631921.000000
91144562.000000,72580438.000000
91093079.000000,72503387.000000
91075000.000000,72412500.000000
91075000.000000,71812500.000000
91093079.000000,71721613.000000
91144562.000000,71644562.000000
91221613.000000,71593079.000000
91312500.000000,71575000.000000
Z" /> 
</g>
<g >
</g>
<g style="fill:#000000; fill-opacity:1.0; 
stroke:#000000; stroke-width:1.000000; stroke-opacity:1; 
stroke-linecap:round; stroke-linejoin:round;">
<circle cx="55720000.000000" cy="60002540.000000" r="3214265.000000" /> 
</g>
<g style="fill:#000000; fill-opacity:1.0; 
stroke:#000000; stroke-width:21200.000000; stroke-opacity:1; 
stroke-linecap:round; stroke-linejoin:round;">
</g>
<g >
</g>
<g style="fill:#000000; fill-opacity:1.0; 
stroke:#000000; stroke-width:21200.000000; stroke-opacity:1; 
stroke-linecap:round; stroke-linejoin:round;">
</g>
<g style="fill:#000000; fill-opacity:1.0; 
stroke:#000000; stroke-width:1.000000; stroke-opacity:1; 
stroke-linecap:round; stroke-linejoin:round;">
<path style="fill:#000000; fill-opacity:1.0; 
stroke:#000000; stroke-width:1.000000; stroke-opacity:1; 
stroke-linecap:round; stroke-linejoin:round;fill-rule:evenodd;"
d="M 89497565.000000,42230077.000000
90397563.000000,42230077.000000
90397563.000000,43730075.000000
89497565.000000,43730075.000000
Z" /> 
<path style="fill:#000000; fill-opacity:1.0; 
stroke:#000000; stroke-width:1.000000; stroke-opacity:1; 
stroke-linecap:round; stroke-linejoin:round;fill-rule:evenodd;"
d="M 89497565.000000,46029925.000000
90397563.000000,46029925.000000
90397563.000000,47529923.000000
89497565.000000,47529923.000000
Z" /> 
<path style="fill:#000000; fill-opacity:1.0; 
stroke:#000000; stroke-width:1.000000; stroke-opacity:1; 
stroke-linecap:round; stroke-linejoin:round;fill-rule:evenodd;"
d="M 87997437.000000,42230077.000000
88897435.000000,42230077.000000
88897435.000000,43730075.000000
87997437.000000,43730075.000000
Z" /> 
<path style="fill:#000000; fill-opacity:1.0; 
stroke:#000000; stroke-width:1.000000; stroke-opacity:1; 
stroke-linecap:round; stroke-linejoin:round;fill-rule:evenodd;"
d="M 87997437.000000,46029925.000000
88897435.000000,46029925.000000
88897435.000000,47529923.000000
87997437.000000,47529923.000000
Z" /> 
</g>
<g >
</g>
<g style="fill:#000000; fill-opacity:1.0; 
stroke:#000000; stroke-width:1.000000; stroke-opacity:1; 
stroke-linecap:round; stroke-linejoin:round;">
<path style="fill:#000000; fill-opacity:1.0; 
stroke:#000000; stroke-width:1.000000; stroke-opacity:1; 
stroke-linecap:round; stroke-linejoin:round;fill-rule:evenodd;"
d="M 89532500.000000,115627500.000000
89514421.000000,115718387.000000
89462938.000000,115795438.000000
89385887.000000,115846921.000000
89295000.000000,115865000.000000
88695000.000000,115865000.000000
88604113.000000,115846921.000000
88527062.000000,115795438.000000
88475579.000000,115718387.000000
88457500.000000,115627500.000000
88457500.000000,115152500.000000
88475579.000000,115061613.000000
88527062.000000,114984562.000000
88604113.000000,114933079.000000
88695000.000000,114915000.000000
89295000.000000,114915000.000000
89385887.000000,114933079.000000
89462938.000000,114984562.000000
89514421.000000,115061613.000000
89532500.000000,115152500.000000
Z" /> 
<path style="fill:#000000; fill-opacity:1.0; 
stroke:#000000; stroke-width:1.000000; stroke-opacity:1; 
stroke-linecap:round; stroke-linejoin:round;fill-rule:evenodd;"
d="M 87807500.000000,115627500.000000
87789421.000000,115718387.000000
87737938.000000,115795438.000000
87660887.000000,115846921.000000
87570000.000000,115865000.000000
86970000.000000,115865000.000000
86879113.000000,115846921.000000
86802062.000000,115795438.000000
86750579.000000,115718387.000000
86732500.000000,115627500.000000
86732500.000000,115152500.000000
86750579.000000,115061613.000000
86802062.000000,114984562.000000
86879113.000000,114933079.000000
86970000.000000,114915000.000000
87570000.000000,114915000.000000
87660887.000000,114933079.000000
87737938.000000,114984562.000000
87789421.000000,115061613.000000
87807500.000000,115152500.000000
Z" /> 
</g>
<g >
</g>
<g >
</g>
<g style="fill:#000000; fill-opacity:1.0; 
stroke:#000000; stroke-width:1.000000; stroke-opacity:1; 
stroke-linecap:round; stroke-linejoin:round;">
<path style="fill:#000000; fill-opacity:1.0; 
stroke:#000000; stroke-width:1.000000; stroke-opacity:1; 
stroke-linecap:round; stroke-linejoin:round;fill-rule:evenodd;"
d="M 90660000.000000,80847500.000000
90641921.000000,80938387.000000
90590438.000000,81015438.000000
90513387.000000,81066921.000000
90422500.000000,81085000.000000
89822500.000000,81085000.000000
89731613.000000,81066921.000000
89654562.000000,81015438.000000
89603079.000000,80938387.000000
89585000.000000,80847500.000000
89585000.000000,80372500.000000
89603079.000000,80281613.000000
89654562.000000,80204562.000000
89731613.000000,80153079.000000
89822500.000000,80135000.000000
90422500.000000,80135000.000000
90513387.000000,80153079.000000
90590438.000000,80204562.000000
90641921.000000,80281613.000000
90660000.000000,80372500.000000
Z" /> 
<path style="fill:#000000; fill-opacity:1.0; 
stroke:#000000; stroke-width:1.000000; stroke-opacity:1; 
stroke-linecap:round; stroke-linejoin:round;fill-rule:evenodd;"
d="M 88935000.000000,80847500.000000
88916921.000000,80938387.000000
88865438.000000,81015438.000000
88788387.000000,81066921.000000
88697500.000000,81085000.000000
88097500.000000,81085000.000000
88006613.000000,81066921.000000
87929562.000000,81015438.000000
87878079.000000,80938387.000000
87860000.000000,80847500.000000
87860000.000000,80372500.000000
87878079.000000,80281613.000000
87929562.000000,80204562.000000
88006613.000000,80153079.000000
88097500.000000,80135000.000000
88697500.000000,80135000.000000
88788387.000000,80153079.000000
88865438.000000,80204562.000000
88916921.000000,80281613.000000
88935000.000000,80372500.000000
Z" /> 
</g>
<g >
</g>
<g >
</g>
<g style="fill:#000000; fill-opacity:1.0; 
stroke:#000000; stroke-width:1.000000; stroke-opacity:1; 
stroke-linecap:round; stroke-linejoin:round;">
<path style="fill:#000000; fill-opacity:1.0; 
stroke:#000000; stroke-width:1.000000; stroke-opacity:1; 
stroke-linecap:round; stroke-linejoin:round;fill-rule:evenodd;"
d="M 70520103.000000,130139963.000000
70520103.000000,128839965.000000
71120101.000000,128839965.000000
71120101.000000,130139963.000000
Z" /> 
<path style="fill:#000000; fill-opacity:1.0; 
stroke:#000000; stroke-width:1.000000; stroke-opacity:1; 
stroke-linecap:round; stroke-linejoin:round;fill-rule:evenodd;"
d="M 71319950.000000,130139963.000000
71319950.000000,128839965.000000
71919948.000000,128839965.000000
71919948.000000,130139963.000000
Z" /> 
<path style="fill:#000000; fill-opacity:1.0; 
stroke:#000000; stroke-width:1.000000; stroke-opacity:1; 
stroke-linecap:round; stroke-linejoin:round;fill-rule:evenodd;"
d="M 72620065.000000,130139963.000000
72620065.000000,128839965.000000
72920063.000000,128839965.000000
72920063.000000,130139963.000000
Z" /> 
<path style="fill:#000000; fill-opacity:1.0; 
stroke:#000000; stroke-width:1.000000; stroke-opacity:1; 
stroke-linecap:round; stroke-linejoin:round;fill-rule:evenodd;"
d="M 73620065.000000,130139963.000000
73620065.000000,128839965.000000
73920063.000000,128839965.000000
73920063.000000,130139963.000000
Z" /> 
<path style="fill:#000000; fill-opacity:1.0; 
stroke:#000000; stroke-width:1.000000; stroke-opacity:1; 
stroke-linecap:round; stroke-linejoin:round;fill-rule:evenodd;"
d="M 74119937.000000,130139963.000000
74119937.000000,128839965.000000
74419935.000000,128839965.000000
74419935.000000,130139963.000000
Z" /> 
<path style="fill:#000000; fill-opacity:1.0; 
stroke:#000000; stroke-width:1.000000; stroke-opacity:1; 
stroke-linecap:round; stroke-linejoin:round;fill-rule:evenodd;"
d="M 75119937.000000,130139963.000000
75119937.000000,128839965.000000
75419935.000000,128839965.000000
75419935.000000,130139963.000000
Z" /> 
<path style="fill:#000000; fill-opacity:1.0; 
stroke:#000000; stroke-width:1.000000; stroke-opacity:1; 
stroke-linecap:round; stroke-linejoin:round;fill-rule:evenodd;"
d="M 76919899.000000,130139963.000000
76919899.000000,128839965.000000
77519897.000000,128839965.000000
77519897.000000,130139963.000000
Z" /> 
<path style="fill:#000000; fill-opacity:1.0; 
stroke:#000000; stroke-width:1.000000; stroke-opacity:1; 
stroke-linecap:round; stroke-linejoin:round;fill-rule:evenodd;"
d="M 76120052.000000,130139963.000000
76120052.000000,128839965.000000
76720050.000000,128839965.000000
76720050.000000,130139963.000000
Z" /> 
<path style="fill:#000000; fill-opacity:1.0; 
stroke:#000000; stroke-width:1.000000; stroke-opacity:1; 
stroke-linecap:round; stroke-linejoin:round;fill-rule:evenodd;"
d="M 75620065.000000,130139963.000000
75620065.000000,128839965.000000
75920063.000000,128839965.000000
75920063.000000,130139963.000000
Z" /> 
<path style="fill:#000000; fill-opacity:1.0; 
stroke:#000000; stroke-width:1.000000; stroke-opacity:1; 
stroke-linecap:round; stroke-linejoin:round;fill-rule:evenodd;"
d="M 74620065.000000,130139963.000000
74620065.000000,128839965.000000
74920063.000000,128839965.000000
74920063.000000,130139963.000000
Z" /> 
<path style="fill:#000000; fill-opacity:1.0; 
stroke:#000000; stroke-width:1.000000; stroke-opacity:1; 
stroke-linecap:round; stroke-linejoin:round;fill-rule:evenodd;"
d="M 73119937.000000,130139963.000000
73119937.000000,128839965.000000
73419935.000000,128839965.000000
73419935.000000,130139963.000000
Z" /> 
<path style="fill:#000000; fill-opacity:1.0; 
stroke:#000000; stroke-width:1.000000; stroke-opacity:1; 
stroke-linecap:round; stroke-linejoin:round;fill-rule:evenodd;"
d="M 72119937.000000,130139963.000000
72119937.000000,128839965.000000
72419935.000000,128839965.000000
72419935.000000,130139963.000000
Z" /> 
</g>
<g >
</g>
<g style="fill:#000000; fill-opacity:1.0; 
stroke:#000000; stroke-width:1.000000; stroke-opacity:1; 
stroke-linecap:round; stroke-linejoin:round;">
</g>
<g style="fill:#000000; fill-opacity:1.0; 
stroke:#000000; stroke-width:250013.000000; stroke-opacity:1; 
stroke-linecap:round; stroke-linejoin:round;">
</g>
<g style="fill:#000000; fill-opacity:0.0; 
stroke:#000000; stroke-width:250013.000000; stroke-opacity:1; 
stroke-linecap:round; stroke-linejoin:round;">
<path d="M93308039 70929911
L93308039 71429911
" />
<path d="M93808166 70929911
L93808166 71429911
" />
<path d="M94308039 70929911
L94308039 71429911
" />
<path d="M94808166 70929911
L94808166 71429911
" />
<path d="M94808166 67830089
L94808166 68330089
" />
<path d="M94308039 67830089
L94308039 68330089
" />
<path d="M93808166 67830089
L93808166 68330089
" />
<path d="M93308039 67830089
L93308039 68330089
" />
</g>
<g >
</g>
<g style="fill:#000000; fill-opacity:0.0; 
stroke:#000000; stroke-width:250013.000000; stroke-opacity:1; 
stroke-linecap:round; stroke-linejoin:round;">
</g>
<g style="fill:#000000; fill-opacity:0.0; 
stroke:#000000; stroke-width:1.000000; stroke-opacity:1; 
stroke-linecap:round; stroke-linejoin:round;">
</g>
<g style="fill:#000000; fill-opacity:1.0; 
stroke:#000000; stroke-width:1.000000; stroke-opacity:1; 
stroke-linecap:round; stroke-linejoin:round;">
<path style="fill:#000000; fill-opacity:1.0; 
stroke:#000000; stroke-width:1.000000; stroke-opacity:1; 
stroke-linecap:round; stroke-linejoin:round;fill-rule:evenodd;"
d="M 73180000.000000,104102500.000000
73198079.000000,104011613.000000
73249562.000000,103934562.000000
73326613.000000,103883079.000000
73417500.000000,103865000.000000
73917500.000000,103865000.000000
74008387.000000,103883079.000000
74085438.000000,103934562.000000
74136921.000000,104011613.000000
74155000.000000,104102500.000000
74155000.000000,104577500.000000
74136921.000000,104668387.000000
74085438.000000,104745438.000000
74008387.000000,104796921.000000
73917500.000000,104815000.000000
73417500.000000,104815000.000000
73326613.000000,104796921.000000
73249562.000000,104745438.000000
73198079.000000,104668387.000000
73180000.000000,104577500.000000
Z" /> 
<path style="fill:#000000; fill-opacity:1.0; 
stroke:#000000; stroke-width:1.000000; stroke-opacity:1; 
stroke-linecap:round; stroke-linejoin:round;fill-rule:evenodd;"
d="M 75005000.000000,104102500.000000
75023079.000000,104011613.000000
75074562.000000,103934562.000000
75151613.000000,103883079.000000
75242500.000000,103865000.000000
75742500.000000,103865000.000000
75833387.000000,103883079.000000
75910438.000000,103934562.000000
75961921.000000,104011613.000000
75980000.000000,104102500.000000
75980000.000000,104577500.000000
75961921.000000,104668387.000000
75910438.000000,104745438.000000
75833387.000000,104796921.000000
75742500.000000,104815000.000000
75242500.000000,104815000.000000
75151613.000000,104796921.000000
75074562.000000,104745438.000000
75023079.000000,104668387.000000
75005000.000000,104577500.000000
Z" /> 
</g>
<g >
</g>
<g style="fill:#000000; fill-opacity:1.0; 
stroke:#000000; stroke-width:1.000000; stroke-opacity:1; 
stroke-linecap:round; stroke-linejoin:round;">
<path style="fill:#000000; fill-opacity:1.0; 
stroke:#000000; stroke-width:1.000000; stroke-opacity:1; 
stroke-linecap:round; stroke-linejoin:round;fill-rule:evenodd;"
d="M 62987500.000000,97870000.000000
63078387.000000,97888079.000000
63155438.000000,97939562.000000
63206921.000000,98016613.000000
63225000.000000,98107500.000000
63225000.000000,98707500.000000
63206921.000000,98798387.000000
63155438.000000,98875438.000000
63078387.000000,98926921.000000
62987500.000000,98945000.000000
62512500.000000,98945000.000000
62421613.000000,98926921.000000
62344562.000000,98875438.000000
62293079.000000,98798387.000000
62275000.000000,98707500.000000
62275000.000000,98107500.000000
62293079.000000,98016613.000000
62344562.000000,97939562.000000
62421613.000000,97888079.000000
62512500.000000,97870000.000000
Z" /> 
<path style="fill:#000000; fill-opacity:1.0; 
stroke:#000000; stroke-width:1.000000; stroke-opacity:1; 
stroke-linecap:round; stroke-linejoin:round;fill-rule:evenodd;"
d="M 62987500.000000,99595000.000000
63078387.000000,99613079.000000
63155438.000000,99664562.000000
63206921.000000,99741613.000000
63225000.000000,99832500.000000
63225000.000000,100432500.000000
63206921.000000,100523387.000000
63155438.000000,100600438.000000
63078387.000000,100651921.000000
62987500.000000,100670000.000000
62512500.000000,100670000.000000
62421613.000000,100651921.000000
62344562.000000,100600438.000000
62293079.000000,100523387.000000
62275000.000000,100432500.000000
62275000.000000,99832500.000000
62293079.000000,99741613.000000
62344562.000000,99664562.000000
62421613.000000,99613079.000000
62512500.000000,99595000.000000
Z" /> 
</g>
<g >
</g>
<g style="fill:#000000; fill-opacity:1.0; 
stroke:#000000; stroke-width:1.000000; stroke-opacity:1; 
stroke-linecap:round; stroke-linejoin:round;">
<path style="fill:#000000; fill-opacity:1.0; 
stroke:#000000; stroke-width:1.000000; stroke-opacity:1; 
stroke-linecap:round; stroke-linejoin:round;fill-rule:evenodd;"
d="M 89733301.000000,82025101.000000
90633299.000000,82025101.000000
90633299.000000,84025099.000000
89733301.000000,84025099.000000
Z" /> 
<path style="fill:#000000; fill-opacity:1.0; 
stroke:#000000; stroke-width:1.000000; stroke-opacity:1; 
stroke-linecap:round; stroke-linejoin:round;fill-rule:evenodd;"
d="M 88463301.000000,82025101.000000
89363299.000000,82025101.000000
89363299.000000,84025099.000000
88463301.000000,84025099.000000
Z" /> 
<path style="fill:#000000; fill-opacity:1.0; 
stroke:#000000; stroke-width:1.000000; stroke-opacity:1; 
stroke-linecap:round; stroke-linejoin:round;fill-rule:evenodd;"
d="M 87193301.000000,82025101.000000
88093299.000000,82025101.000000
88093299.000000,84025099.000000
87193301.000000,84025099.000000
Z" /> 
<path style="fill:#000000; fill-opacity:1.0; 
stroke:#000000; stroke-width:1.000000; stroke-opacity:1; 
stroke-linecap:round; stroke-linejoin:round;fill-rule:evenodd;"
d="M 85923301.000000,82025101.000000
86823299.000000,82025101.000000
86823299.000000,84025099.000000
85923301.000000,84025099.000000
Z" /> 
<path style="fill:#000000; fill-opacity:1.0; 
stroke:#000000; stroke-width:1.000000; stroke-opacity:1; 
stroke-linecap:round; stroke-linejoin:round;fill-rule:evenodd;"
d="M 84653301.000000,82025101.000000
85553299.000000,82025101.000000
85553299.000000,84025099.000000
84653301.000000,84025099.000000
Z" /> 
<path style="fill:#000000; fill-opacity:1.0; 
stroke:#000000; stroke-width:1.000000; stroke-opacity:1; 
stroke-linecap:round; stroke-linejoin:round;fill-rule:evenodd;"
d="M 83383301.000000,82025101.000000
84283299.000000,82025101.000000
84283299.000000,84025099.000000
83383301.000000,84025099.000000
Z" /> 
<path style="fill:#000000; fill-opacity:1.0; 
stroke:#000000; stroke-width:1.000000; stroke-opacity:1; 
stroke-linecap:round; stroke-linejoin:round;fill-rule:evenodd;"
d="M 82113301.000000,82025101.000000
83013299.000000,82025101.000000
83013299.000000,84025099.000000
82113301.000000,84025099.000000
Z" /> 
<path style="fill:#000000; fill-opacity:1.0; 
stroke:#000000; stroke-width:1.000000; stroke-opacity:1; 
stroke-linecap:round; stroke-linejoin:round;fill-rule:evenodd;"
d="M 80843301.000000,82025101.000000
81743299.000000,82025101.000000
81743299.000000,84025099.000000
80843301.000000,84025099.000000
Z" /> 
<path style="fill:#000000; fill-opacity:1.0; 
stroke:#000000; stroke-width:1.000000; stroke-opacity:1; 
stroke-linecap:round; stroke-linejoin:round;fill-rule:evenodd;"
d="M 79573301.000000,82025101.000000
80473299.000000,82025101.000000
80473299.000000,84025099.000000
79573301.000000,84025099.000000
Z" /> 
<path style="fill:#000000; fill-opacity:1.0; 
stroke:#000000; stroke-width:1.000000; stroke-opacity:1; 
stroke-linecap:round; stroke-linejoin:round;fill-rule:evenodd;"
d="M 78303301.000000,82025101.000000
79203299.000000,82025101.000000
79203299.000000,84025099.000000
78303301.000000,84025099.000000
Z" /> 
<path style="fill:#000000; fill-opacity:1.0; 
stroke:#000000; stroke-width:1.000000; stroke-opacity:1; 
stroke-linecap:round; stroke-linejoin:round;fill-rule:evenodd;"
d="M 77033301.000000,82025101.000000
77933299.000000,82025101.000000
77933299.000000,84025099.000000
77033301.000000,84025099.000000
Z" /> 
<path style="fill:#000000; fill-opacity:1.0; 
stroke:#000000; stroke-width:1.000000; stroke-opacity:1; 
stroke-linecap:round; stroke-linejoin:round;fill-rule:evenodd;"
d="M 75763301.000000,82025101.000000
76663299.000000,82025101.000000
76663299.000000,84025099.000000
75763301.000000,84025099.000000
Z" /> 
<path style="fill:#000000; fill-opacity:1.0; 
stroke:#000000; stroke-width:1.000000; stroke-opacity:1; 
stroke-linecap:round; stroke-linejoin:round;fill-rule:evenodd;"
d="M 74493301.000000,82025101.000000
75393299.000000,82025101.000000
75393299.000000,84025099.000000
74493301.000000,84025099.000000
Z" /> 
<path style="fill:#000000; fill-opacity:1.0; 
stroke:#000000; stroke-width:1.000000; stroke-opacity:1; 
stroke-linecap:round; stroke-linejoin:round;fill-rule:evenodd;"
d="M 73223301.000000,82025101.000000
74123299.000000,82025101.000000
74123299.000000,84025099.000000
73223301.000000,84025099.000000
Z" /> 
<path style="fill:#000000; fill-opacity:1.0; 
stroke:#000000; stroke-width:1.000000; stroke-opacity:1; 
stroke-linecap:round; stroke-linejoin:round;fill-rule:evenodd;"
d="M 71673301.000000,85360101.000000
73673299.000000,85360101.000000
73673299.000000,86260099.000000
71673301.000000,86260099.000000
Z" /> 
<path style="fill:#000000; fill-opacity:1.0; 
stroke:#000000; stroke-width:1.000000; stroke-opacity:1; 
stroke-linecap:round; stroke-linejoin:round;fill-rule:evenodd;"
d="M 71673301.000000,86630101.000000
73673299.000000,86630101.000000
73673299.000000,87530099.000000
71673301.000000,87530099.000000
Z" /> 
<path style="fill:#000000; fill-opacity:1.0; 
stroke:#000000; stroke-width:1.000000; stroke-opacity:1; 
stroke-linecap:round; stroke-linejoin:round;fill-rule:evenodd;"
d="M 71673301.000000,87900101.000000
73673299.000000,87900101.000000
73673299.000000,88800099.000000
71673301.000000,88800099.000000
Z" /> 
<path style="fill:#000000; fill-opacity:1.0; 
stroke:#000000; stroke-width:1.000000; stroke-opacity:1; 
stroke-linecap:round; stroke-linejoin:round;fill-rule:evenodd;"
d="M 71673301.000000,89170101.000000
73673299.000000,89170101.000000
73673299.000000,90070099.000000
71673301.000000,90070099.000000
Z" /> 
<path style="fill:#000000; fill-opacity:1.0; 
stroke:#000000; stroke-width:1.000000; stroke-opacity:1; 
stroke-linecap:round; stroke-linejoin:round;fill-rule:evenodd;"
d="M 71673301.000000,90440101.000000
73673299.000000,90440101.000000
73673299.000000,91340099.000000
71673301.000000,91340099.000000
Z" /> 
<path style="fill:#000000; fill-opacity:1.0; 
stroke:#000000; stroke-width:1.000000; stroke-opacity:1; 
stroke-linecap:round; stroke-linejoin:round;fill-rule:evenodd;"
d="M 71673301.000000,91710101.000000
73673299.000000,91710101.000000
73673299.000000,92610099.000000
71673301.000000,92610099.000000
Z" /> 
<path style="fill:#000000; fill-opacity:1.0; 
stroke:#000000; stroke-width:1.000000; stroke-opacity:1; 
stroke-linecap:round; stroke-linejoin:round;fill-rule:evenodd;"
d="M 71673301.000000,92980101.000000
73673299.000000,92980101.000000
73673299.000000,93880099.000000
71673301.000000,93880099.000000
Z" /> 
<path style="fill:#000000; fill-opacity:1.0; 
stroke:#000000; stroke-width:1.000000; stroke-opacity:1; 
stroke-linecap:round; stroke-linejoin:round;fill-rule:evenodd;"
d="M 71673301.000000,94250101.000000
73673299.000000,94250101.000000
73673299.000000,95150099.000000
71673301.000000,95150099.000000
Z" /> 
<path style="fill:#000000; fill-opacity:1.0; 
stroke:#000000; stroke-width:1.000000; stroke-opacity:1; 
stroke-linecap:round; stroke-linejoin:round;fill-rule:evenodd;"
d="M 71673301.000000,95520101.000000
73673299.000000,95520101.000000
73673299.000000,96420099.000000
71673301.000000,96420099.000000
Z" /> 
<path style="fill:#000000; fill-opacity:1.0; 
stroke:#000000; stroke-width:1.000000; stroke-opacity:1; 
stroke-linecap:round; stroke-linejoin:round;fill-rule:evenodd;"
d="M 71673301.000000,96790101.000000
73673299.000000,96790101.000000
73673299.000000,97690099.000000
71673301.000000,97690099.000000
Z" /> 
<path style="fill:#000000; fill-opacity:1.0; 
stroke:#000000; stroke-width:1.000000; stroke-opacity:1; 
stroke-linecap:round; stroke-linejoin:round;fill-rule:evenodd;"
d="M 73223301.000000,99025101.000000
74123299.000000,99025101.000000
74123299.000000,101025099.000000
73223301.000000,101025099.000000
Z" /> 
<path style="fill:#000000; fill-opacity:1.0; 
stroke:#000000; stroke-width:1.000000; stroke-opacity:1; 
stroke-linecap:round; stroke-linejoin:round;fill-rule:evenodd;"
d="M 74493301.000000,99025101.000000
75393299.000000,99025101.000000
75393299.000000,101025099.000000
74493301.000000,101025099.000000
Z" /> 
<path style="fill:#000000; fill-opacity:1.0; 
stroke:#000000; stroke-width:1.000000; stroke-opacity:1; 
stroke-linecap:round; stroke-linejoin:round;fill-rule:evenodd;"
d="M 75763301.000000,99025101.000000
76663299.000000,99025101.000000
76663299.000000,101025099.000000
75763301.000000,101025099.000000
Z" /> 
<path style="fill:#000000; fill-opacity:1.0; 
stroke:#000000; stroke-width:1.000000; stroke-opacity:1; 
stroke-linecap:round; stroke-linejoin:round;fill-rule:evenodd;"
d="M 77033301.000000,99025101.000000
77933299.000000,99025101.000000
77933299.000000,101025099.000000
77033301.000000,101025099.000000
Z" /> 
<path style="fill:#000000; fill-opacity:1.0; 
stroke:#000000; stroke-width:1.000000; stroke-opacity:1; 
stroke-linecap:round; stroke-linejoin:round;fill-rule:evenodd;"
d="M 78303301.000000,99025101.000000
79203299.000000,99025101.000000
79203299.000000,101025099.000000
78303301.000000,101025099.000000
Z" /> 
<path style="fill:#000000; fill-opacity:1.0; 
stroke:#000000; stroke-width:1.000000; stroke-opacity:1; 
stroke-linecap:round; stroke-linejoin:round;fill-rule:evenodd;"
d="M 79573301.000000,99025101.000000
80473299.000000,99025101.000000
80473299.000000,101025099.000000
79573301.000000,101025099.000000
Z" /> 
<path style="fill:#000000; fill-opacity:1.0; 
stroke:#000000; stroke-width:1.000000; stroke-opacity:1; 
stroke-linecap:round; stroke-linejoin:round;fill-rule:evenodd;"
d="M 80843301.000000,99025101.000000
81743299.000000,99025101.000000
81743299.000000,101025099.000000
80843301.000000,101025099.000000
Z" /> 
<path style="fill:#000000; fill-opacity:1.0; 
stroke:#000000; stroke-width:1.000000; stroke-opacity:1; 
stroke-linecap:round; stroke-linejoin:round;fill-rule:evenodd;"
d="M 82113301.000000,99025101.000000
83013299.000000,99025101.000000
83013299.000000,101025099.000000
82113301.000000,101025099.000000
Z" /> 
<path style="fill:#000000; fill-opacity:1.0; 
stroke:#000000; stroke-width:1.000000; stroke-opacity:1; 
stroke-linecap:round; stroke-linejoin:round;fill-rule:evenodd;"
d="M 83383301.000000,99025101.000000
84283299.000000,99025101.000000
84283299.000000,101025099.000000
83383301.000000,101025099.000000
Z" /> 
<path style="fill:#000000; fill-opacity:1.0; 
stroke:#000000; stroke-width:1.000000; stroke-opacity:1; 
stroke-linecap:round; stroke-linejoin:round;fill-rule:evenodd;"
d="M 84653301.000000,99025101.000000
85553299.000000,99025101.000000
85553299.000000,101025099.000000
84653301.000000,101025099.000000
Z" /> 
<path style="fill:#000000; fill-opacity:1.0; 
stroke:#000000; stroke-width:1.000000; stroke-opacity:1; 
stroke-linecap:round; stroke-linejoin:round;fill-rule:evenodd;"
d="M 85923301.000000,99025101.000000
86823299.000000,99025101.000000
86823299.000000,101025099.000000
85923301.000000,101025099.000000
Z" /> 
<path style="fill:#000000; fill-opacity:1.0; 
stroke:#000000; stroke-width:1.000000; stroke-opacity:1; 
stroke-linecap:round; stroke-linejoin:round;fill-rule:evenodd;"
d="M 87193301.000000,99025101.000000
88093299.000000,99025101.000000
88093299.000000,101025099.000000
87193301.000000,101025099.000000
Z" /> 
<path style="fill:#000000; fill-opacity:1.0; 
stroke:#000000; stroke-width:1.000000; stroke-opacity:1; 
stroke-linecap:round; stroke-linejoin:round;fill-rule:evenodd;"
d="M 88463301.000000,99025101.000000
89363299.000000,99025101.000000
89363299.000000,101025099.000000
88463301.000000,101025099.000000
Z" /> 
<path style="fill:#000000; fill-opacity:1.0; 
stroke:#000000; stroke-width:1.000000; stroke-opacity:1; 
stroke-linecap:round; stroke-linejoin:round;fill-rule:evenodd;"
d="M 89733301.000000,99025101.000000
90633299.000000,99025101.000000
90633299.000000,101025099.000000
89733301.000000,101025099.000000
Z" /> 
<path style="fill:#000000; fill-opacity:1.0; 
stroke:#000000; stroke-width:1.000000; stroke-opacity:1; 
stroke-linecap:round; stroke-linejoin:round;fill-rule:evenodd;"
d="M 83853301.000000,89860101.000000
85183299.000000,89860101.000000
85183299.000000,91190099.000000
83853301.000000,91190099.000000
Z" /> 
<path style="fill:#000000; fill-opacity:1.0; 
stroke:#000000; stroke-width:1.000000; stroke-opacity:1; 
stroke-linecap:round; stroke-linejoin:round;fill-rule:evenodd;"
d="M 80183301.000000,89860101.000000
81513299.000000,89860101.000000
81513299.000000,91190099.000000
80183301.000000,91190099.000000
Z" /> 
<path style="fill:#000000; fill-opacity:1.0; 
stroke:#000000; stroke-width:1.000000; stroke-opacity:1; 
stroke-linecap:round; stroke-linejoin:round;fill-rule:evenodd;"
d="M 80183301.000000,88025101.000000
81513299.000000,88025101.000000
81513299.000000,89355099.000000
80183301.000000,89355099.000000
Z" /> 
<path style="fill:#000000; fill-opacity:1.0; 
stroke:#000000; stroke-width:1.000000; stroke-opacity:1; 
stroke-linecap:round; stroke-linejoin:round;fill-rule:evenodd;"
d="M 82018301.000000,91695101.000000
83348299.000000,91695101.000000
83348299.000000,93025099.000000
82018301.000000,93025099.000000
Z" /> 
<path style="fill:#000000; fill-opacity:1.0; 
stroke:#000000; stroke-width:1.000000; stroke-opacity:1; 
stroke-linecap:round; stroke-linejoin:round;fill-rule:evenodd;"
d="M 82018301.000000,89860101.000000
83348299.000000,89860101.000000
83348299.000000,91190099.000000
82018301.000000,91190099.000000
Z" /> 
<path style="fill:#000000; fill-opacity:1.0; 
stroke:#000000; stroke-width:1.000000; stroke-opacity:1; 
stroke-linecap:round; stroke-linejoin:round;fill-rule:evenodd;"
d="M 83853301.000000,88025101.000000
85183299.000000,88025101.000000
85183299.000000,89355099.000000
83853301.000000,89355099.000000
Z" /> 
<path style="fill:#000000; fill-opacity:1.0; 
stroke:#000000; stroke-width:1.000000; stroke-opacity:1; 
stroke-linecap:round; stroke-linejoin:round;fill-rule:evenodd;"
d="M 82018301.000000,88025101.000000
83348299.000000,88025101.000000
83348299.000000,89355099.000000
82018301.000000,89355099.000000
Z" /> 
<path style="fill:#000000; fill-opacity:1.0; 
stroke:#000000; stroke-width:1.000000; stroke-opacity:1; 
stroke-linecap:round; stroke-linejoin:round;fill-rule:evenodd;"
d="M 83853301.000000,91695101.000000
85183299.000000,91695101.000000
85183299.000000,93025099.000000
83853301.000000,93025099.000000
Z" /> 
<path style="fill:#000000; fill-opacity:1.0; 
stroke:#000000; stroke-width:1.000000; stroke-opacity:1; 
stroke-linecap:round; stroke-linejoin:round;fill-rule:evenodd;"
d="M 80183301.000000,91695101.000000
81513299.000000,91695101.000000
81513299.000000,93025099.000000
80183301.000000,93025099.000000
Z" /> 
</g>
<g >
</g>
<g style="fill:#000000; fill-opacity:1.0; 
stroke:#000000; stroke-width:1.000000; stroke-opacity:1; 
stroke-linecap:round; stroke-linejoin:round;">
<path style="fill:#000000; fill-opacity:1.0; 
stroke:#000000; stroke-width:1.000000; stroke-opacity:1; 
stroke-linecap:round; stroke-linejoin:round;fill-rule:evenodd;"
d="M 87830000.000000,48632500.000000
87848079.000000,48541613.000000
87899562.000000,48464562.000000
87976613.000000,48413079.000000
88067500.000000,48395000.000000
88567500.000000,48395000.000000
88658387.000000,48413079.000000
88735438.000000,48464562.000000
88786921.000000,48541613.000000
88805000.000000,48632500.000000
88805000.000000,49107500.000000
88786921.000000,49198387.000000
88735438.000000,49275438.000000
88658387.000000,49326921.000000
88567500.000000,49345000.000000
88067500.000000,49345000.000000
87976613.000000,49326921.000000
87899562.000000,49275438.000000
87848079.000000,49198387.000000
87830000.000000,49107500.000000
Z" /> 
<path style="fill:#000000; fill-opacity:1.0; 
stroke:#000000; stroke-width:1.000000; stroke-opacity:1; 
stroke-linecap:round; stroke-linejoin:round;fill-rule:evenodd;"
d="M 89655000.000000,48632500.000000
89673079.000000,48541613.000000
89724562.000000,48464562.000000
89801613.000000,48413079.000000
89892500.000000,48395000.000000
90392500.000000,48395000.000000
90483387.000000,48413079.000000
90560438.000000,48464562.000000
90611921.000000,48541613.000000
90630000.000000,48632500.000000
90630000.000000,49107500.000000
90611921.000000,49198387.000000
90560438.000000,49275438.000000
90483387.000000,49326921.000000
90392500.000000,49345000.000000
89892500.000000,49345000.000000
89801613.000000,49326921.000000
89724562.000000,49275438.000000
89673079.000000,49198387.000000
89655000.000000,49107500.000000
Z" /> 
</g>
<g >
</g>
<g style="fill:#000000; fill-opacity:1.0; 
stroke:#000000; stroke-width:1.000000; stroke-opacity:1; 
stroke-linecap:round; stroke-linejoin:round;">
<path style="fill:#000000; fill-opacity:1.0; 
stroke:#000000; stroke-width:1.000000; stroke-opacity:1; 
stroke-linecap:round; stroke-linejoin:round;fill-rule:evenodd;"
d="M 90930351.000000,112465937.000000
90030353.000000,112465937.000000
90030353.000000,112185929.000000
90930351.000000,112185929.000000
Z" /> 
<path style="fill:#000000; fill-opacity:1.0; 
stroke:#000000; stroke-width:1.000000; stroke-opacity:1; 
stroke-linecap:round; stroke-linejoin:round;fill-rule:evenodd;"
d="M 90930351.000000,112966318.000000
90030353.000000,112966318.000000
90030353.000000,112686310.000000
90930351.000000,112686310.000000
Z" /> 
<path style="fill:#000000; fill-opacity:1.0; 
stroke:#000000; stroke-width:1.000000; stroke-opacity:1; 
stroke-linecap:round; stroke-linejoin:round;fill-rule:evenodd;"
d="M 90930351.000000,113466699.000000
90030353.000000,113466699.000000
90030353.000000,113186691.000000
90930351.000000,113186691.000000
Z" /> 
<path style="fill:#000000; fill-opacity:1.0; 
stroke:#000000; stroke-width:1.000000; stroke-opacity:1; 
stroke-linecap:round; stroke-linejoin:round;fill-rule:evenodd;"
d="M 90930351.000000,113967080.000000
90030353.000000,113967080.000000
90030353.000000,113687072.000000
90930351.000000,113687072.000000
Z" /> 
<path style="fill:#000000; fill-opacity:1.0; 
stroke:#000000; stroke-width:1.000000; stroke-opacity:1; 
stroke-linecap:round; stroke-linejoin:round;fill-rule:evenodd;"
d="M 90930351.000000,114467461.000000
90030353.000000,114467461.000000
90030353.000000,114187453.000000
90930351.000000,114187453.000000
Z" /> 
<path style="fill:#000000; fill-opacity:1.0; 
stroke:#000000; stroke-width:1.000000; stroke-opacity:1; 
stroke-linecap:round; stroke-linejoin:round;fill-rule:evenodd;"
d="M 90930351.000000,114967842.000000
90030353.000000,114967842.000000
90030353.000000,114687834.000000
90930351.000000,114687834.000000
Z" /> 
<path style="fill:#000000; fill-opacity:1.0; 
stroke:#000000; stroke-width:1.000000; stroke-opacity:1; 
stroke-linecap:round; stroke-linejoin:round;fill-rule:evenodd;"
d="M 90930351.000000,115468223.000000
90030353.000000,115468223.000000
90030353.000000,115188215.000000
90930351.000000,115188215.000000
Z" /> 
<path style="fill:#000000; fill-opacity:1.0; 
stroke:#000000; stroke-width:1.000000; stroke-opacity:1; 
stroke-linecap:round; stroke-linejoin:round;fill-rule:evenodd;"
d="M 91339078.000000,116777202.000000
91339078.000000,115877204.000000
91619086.000000,115877204.000000
91619086.000000,116777202.000000
Z" /> 
<path style="fill:#000000; fill-opacity:1.0; 
stroke:#000000; stroke-width:1.000000; stroke-opacity:1; 
stroke-linecap:round; stroke-linejoin:round;fill-rule:evenodd;"
d="M 91839459.000000,116777202.000000
91839459.000000,115877204.000000
92119467.000000,115877204.000000
92119467.000000,116777202.000000
Z" /> 
<path style="fill:#000000; fill-opacity:1.0; 
stroke:#000000; stroke-width:1.000000; stroke-opacity:1; 
stroke-linecap:round; stroke-linejoin:round;fill-rule:evenodd;"
d="M 92339840.000000,116777202.000000
92339840.000000,115877204.000000
92619848.000000,115877204.000000
92619848.000000,116777202.000000
Z" /> 
<path style="fill:#000000; fill-opacity:1.0; 
stroke:#000000; stroke-width:1.000000; stroke-opacity:1; 
stroke-linecap:round; stroke-linejoin:round;fill-rule:evenodd;"
d="M 92840221.000000,116777202.000000
92840221.000000,115877204.000000
93120229.000000,115877204.000000
93120229.000000,116777202.000000
Z" /> 
<path style="fill:#000000; fill-opacity:1.0; 
stroke:#000000; stroke-width:1.000000; stroke-opacity:1; 
stroke-linecap:round; stroke-linejoin:round;fill-rule:evenodd;"
d="M 93340602.000000,116777202.000000
93340602.000000,115877204.000000
93620610.000000,115877204.000000
93620610.000000,116777202.000000
Z" /> 
<path style="fill:#000000; fill-opacity:1.0; 
stroke:#000000; stroke-width:1.000000; stroke-opacity:1; 
stroke-linecap:round; stroke-linejoin:round;fill-rule:evenodd;"
d="M 93840983.000000,116777202.000000
93840983.000000,115877204.000000
94120991.000000,115877204.000000
94120991.000000,116777202.000000
Z" /> 
<path style="fill:#000000; fill-opacity:1.0; 
stroke:#000000; stroke-width:1.000000; stroke-opacity:1; 
stroke-linecap:round; stroke-linejoin:round;fill-rule:evenodd;"
d="M 94341364.000000,116777202.000000
94341364.000000,115877204.000000
94621372.000000,115877204.000000
94621372.000000,116777202.000000
Z" /> 
<path style="fill:#000000; fill-opacity:1.0; 
stroke:#000000; stroke-width:1.000000; stroke-opacity:1; 
stroke-linecap:round; stroke-linejoin:round;fill-rule:evenodd;"
d="M 95930351.000000,115468223.000000
95030353.000000,115468223.000000
95030353.000000,115188215.000000
95930351.000000,115188215.000000
Z" /> 
<path style="fill:#000000; fill-opacity:1.0; 
stroke:#000000; stroke-width:1.000000; stroke-opacity:1; 
stroke-linecap:round; stroke-linejoin:round;fill-rule:evenodd;"
d="M 95930351.000000,114967842.000000
95030353.000000,114967842.000000
95030353.000000,114687834.000000
95930351.000000,114687834.000000
Z" /> 
<path style="fill:#000000; fill-opacity:1.0; 
stroke:#000000; stroke-width:1.000000; stroke-opacity:1; 
stroke-linecap:round; stroke-linejoin:round;fill-rule:evenodd;"
d="M 95930351.000000,114467461.000000
95030353.000000,114467461.000000
95030353.000000,114187453.000000
95930351.000000,114187453.000000
Z" /> 
<path style="fill:#000000; fill-opacity:1.0; 
stroke:#000000; stroke-width:1.000000; stroke-opacity:1; 
stroke-linecap:round; stroke-linejoin:round;fill-rule:evenodd;"
d="M 95930351.000000,113967080.000000
95030353.000000,113967080.000000
95030353.000000,113687072.000000
95930351.000000,113687072.000000
Z" /> 
<path style="fill:#000000; fill-opacity:1.0; 
stroke:#000000; stroke-width:1.000000; stroke-opacity:1; 
stroke-linecap:round; stroke-linejoin:round;fill-rule:evenodd;"
d="M 95930351.000000,113466699.000000
95030353.000000,113466699.000000
95030353.000000,113186691.000000
95930351.000000,113186691.000000
Z" /> 
<path style="fill:#000000; fill-opacity:1.0; 
stroke:#000000; stroke-width:1.000000; stroke-opacity:1; 
stroke-linecap:round; stroke-linejoin:round;fill-rule:evenodd;"
d="M 95930351.000000,112966318.000000
95030353.000000,112966318.000000
95030353.000000,112686310.000000
95930351.000000,112686310.000000
Z" /> 
<path style="fill:#000000; fill-opacity:1.0; 
stroke:#000000; stroke-width:1.000000; stroke-opacity:1; 
stroke-linecap:round; stroke-linejoin:round;fill-rule:evenodd;"
d="M 95930351.000000,112465937.000000
95030353.000000,112465937.000000
95030353.000000,112185929.000000
95930351.000000,112185929.000000
Z" /> 
<path style="fill:#000000; fill-opacity:1.0; 
stroke:#000000; stroke-width:1.000000; stroke-opacity:1; 
stroke-linecap:round; stroke-linejoin:round;fill-rule:evenodd;"
d="M 94341364.000000,111777202.000000
94341364.000000,110877204.000000
94621372.000000,110877204.000000
94621372.000000,111777202.000000
Z" /> 
<path style="fill:#000000; fill-opacity:1.0; 
stroke:#000000; stroke-width:1.000000; stroke-opacity:1; 
stroke-linecap:round; stroke-linejoin:round;fill-rule:evenodd;"
d="M 93840983.000000,111777202.000000
93840983.000000,110877204.000000
94120991.000000,110877204.000000
94120991.000000,111777202.000000
Z" /> 
<path style="fill:#000000; fill-opacity:1.0; 
stroke:#000000; stroke-width:1.000000; stroke-opacity:1; 
stroke-linecap:round; stroke-linejoin:round;fill-rule:evenodd;"
d="M 93340602.000000,111777202.000000
93340602.000000,110877204.000000
93620610.000000,110877204.000000
93620610.000000,111777202.000000
Z" /> 
<path style="fill:#000000; fill-opacity:1.0; 
stroke:#000000; stroke-width:1.000000; stroke-opacity:1; 
stroke-linecap:round; stroke-linejoin:round;fill-rule:evenodd;"
d="M 92840221.000000,111777202.000000
92840221.000000,110877204.000000
93120229.000000,110877204.000000
93120229.000000,111777202.000000
Z" /> 
<path style="fill:#000000; fill-opacity:1.0; 
stroke:#000000; stroke-width:1.000000; stroke-opacity:1; 
stroke-linecap:round; stroke-linejoin:round;fill-rule:evenodd;"
d="M 92339840.000000,111777202.000000
92339840.000000,110877204.000000
92619848.000000,110877204.000000
92619848.000000,111777202.000000
Z" /> 
<path style="fill:#000000; fill-opacity:1.0; 
stroke:#000000; stroke-width:1.000000; stroke-opacity:1; 
stroke-linecap:round; stroke-linejoin:round;fill-rule:evenodd;"
d="M 91839459.000000,111777202.000000
91839459.000000,110877204.000000
92119467.000000,110877204.000000
92119467.000000,111777202.000000
Z" /> 
<path style="fill:#000000; fill-opacity:1.0; 
stroke:#000000; stroke-width:1.000000; stroke-opacity:1; 
stroke-linecap:round; stroke-linejoin:round;fill-rule:evenodd;"
d="M 91339078.000000,111777202.000000
91339078.000000,110877204.000000
91619086.000000,110877204.000000
91619086.000000,111777202.000000
Z" /> 
<path style="fill:#000000; fill-opacity:1.0; 
stroke:#000000; stroke-width:1.000000; stroke-opacity:1; 
stroke-linecap:round; stroke-linejoin:round;fill-rule:evenodd;"
d="M 91330226.000000,115477075.000000
91330226.000000,112177077.000000
94630224.000000,112177077.000000
94630224.000000,115477075.000000
Z" /> 
</g>
<g >
</g>
<g style="fill:#000000; fill-opacity:1.0; 
stroke:#000000; stroke-width:1.000000; stroke-opacity:1; 
stroke-linecap:round; stroke-linejoin:round;">
<path style="fill:#000000; fill-opacity:1.0; 
stroke:#000000; stroke-width:1.000000; stroke-opacity:1; 
stroke-linecap:round; stroke-linejoin:round;fill-rule:evenodd;"
d="M 80447500.000000,123230000.000000
80538387.000000,123248079.000000
80615438.000000,123299562.000000
80666921.000000,123376613.000000
80685000.000000,123467500.000000
80685000.000000,123967500.000000
80666921.000000,124058387.000000
80615438.000000,124135438.000000
80538387.000000,124186921.000000
80447500.000000,124205000.000000
79972500.000000,124205000.000000
79881613.000000,124186921.000000
79804562.000000,124135438.000000
79753079.000000,124058387.000000
79735000.000000,123967500.000000
79735000.000000,123467500.000000
79753079.000000,123376613.000000
79804562.000000,123299562.000000
79881613.000000,123248079.000000
79972500.000000,123230000.000000
Z" /> 
<path style="fill:#000000; fill-opacity:1.0; 
stroke:#000000; stroke-width:1.000000; stroke-opacity:1; 
stroke-linecap:round; stroke-linejoin:round;fill-rule:evenodd;"
d="M 80447500.000000,125055000.000000
80538387.000000,125073079.000000
80615438.000000,125124562.000000
80666921.000000,125201613.000000
80685000.000000,125292500.000000
80685000.000000,125792500.000000
80666921.000000,125883387.000000
80615438.000000,125960438.000000
80538387.000000,126011921.000000
80447500.000000,126030000.000000
79972500.000000,126030000.000000
79881613.000000,126011921.000000
79804562.000000,125960438.000000
79753079.000000,125883387.000000
79735000.000000,125792500.000000
79735000.000000,125292500.000000
79753079.000000,125201613.000000
79804562.000000,125124562.000000
79881613.000000,125073079.000000
79972500.000000,125055000.000000
Z" /> 
</g>
<g >
</g>
<g >
</g>
<g style="fill:#000000; fill-opacity:1.0; 
stroke:#000000; stroke-width:1.000000; stroke-opacity:1; 
stroke-linecap:round; stroke-linejoin:round;">
<path style="fill:#000000; fill-opacity:1.0; 
stroke:#000000; stroke-width:1.000000; stroke-opacity:1; 
stroke-linecap:round; stroke-linejoin:round;fill-rule:evenodd;"
d="M 53830000.000000,112990000.000000
53849030.000000,112894329.000000
53903223.000000,112813223.000000
53984329.000000,112759030.000000
54080000.000000,112740000.000000
57080000.000000,112740000.000000
57175671.000000,112759030.000000
57256777.000000,112813223.000000
57310970.000000,112894329.000000
57330000.000000,112990000.000000
57330000.000000,114090000.000000
57310970.000000,114185671.000000
57256777.000000,114266777.000000
57175671.000000,114320970.000000
57080000.000000,114340000.000000
54080000.000000,114340000.000000
53984329.000000,114320970.000000
53903223.000000,114266777.000000
53849030.000000,114185671.000000
53830000.000000,114090000.000000
Z" /> 
<path style="fill:#000000; fill-opacity:1.0; 
stroke:#000000; stroke-width:1.000000; stroke-opacity:1; 
stroke-linecap:round; stroke-linejoin:round;fill-rule:evenodd;"
d="M 59430000.000000,112990000.000000
59449030.000000,112894329.000000
59503223.000000,112813223.000000
59584329.000000,112759030.000000
59680000.000000,112740000.000000
62680000.000000,112740000.000000
62775671.000000,112759030.000000
62856777.000000,112813223.000000
62910970.000000,112894329.000000
62930000.000000,112990000.000000
62930000.000000,114090000.000000
62910970.000000,114185671.000000
62856777.000000,114266777.000000
62775671.000000,114320970.000000
62680000.000000,114340000.000000
59680000.000000,114340000.000000
59584329.000000,114320970.000000
59503223.000000,114266777.000000
59449030.000000,114185671.000000
59430000.000000,114090000.000000
Z" /> 
</g>
<g >
</g>
<g style="fill:#000000; fill-opacity:1.0; 
stroke:#000000; stroke-width:1.000000; stroke-opacity:1; 
stroke-linecap:round; stroke-linejoin:round;">
<circle cx="74129970.000000" cy="44582540.000000" r="3214265.000000" /> 
</g>
<g style="fill:#000000; fill-opacity:1.0; 
stroke:#000000; stroke-width:21200.000000; stroke-opacity:1; 
stroke-linecap:round; stroke-linejoin:round;">
</g>
<g >
</g>
<g style="fill:#000000; fill-opacity:1.0; 
stroke:#000000; stroke-width:21200.000000; stroke-opacity:1; 
stroke-linecap:round; stroke-linejoin:round;">
</g>
<g style="fill:#000000; fill-opacity:1.0; 
stroke:#000000; stroke-width:1.000000; stroke-opacity:1; 
stroke-linecap:round; stroke-linejoin:round;">
<path style="fill:#000000; fill-opacity:1.0; 
stroke:#000000; stroke-width:1.000000; stroke-opacity:1; 
stroke-linecap:round; stroke-linejoin:round;fill-rule:evenodd;"
d="M 74990000.000000,72030000.000000
75085671.000000,72049030.000000
75166777.000000,72103223.000000
75220970.000000,72184329.000000
75240000.000000,72280000.000000
75240000.000000,75280000.000000
75220970.000000,75375671.000000
75166777.000000,75456777.000000
75085671.000000,75510970.000000
74990000.000000,75530000.000000
73890000.000000,75530000.000000
73794329.000000,75510970.000000
73713223.000000,75456777.000000
73659030.000000,75375671.000000
73640000.000000,75280000.000000
73640000.000000,72280000.000000
73659030.000000,72184329.000000
73713223.000000,72103223.000000
73794329.000000,72049030.000000
73890000.000000,72030000.000000
Z" /> 
<path style="fill:#000000; fill-opacity:1.0; 
stroke:#000000; stroke-width:1.000000; stroke-opacity:1; 
stroke-linecap:round; stroke-linejoin:round;fill-rule:evenodd;"
d="M 74990000.000000,77630000.000000
75085671.000000,77649030.000000
75166777.000000,77703223.000000
75220970.000000,77784329.000000
75240000.000000,77880000.000000
75240000.000000,80880000.000000
75220970.000000,80975671.000000
75166777.000000,81056777.000000
75085671.000000,81110970.000000
74990000.000000,81130000.000000
73890000.000000,81130000.000000
73794329.000000,81110970.000000
73713223.000000,81056777.000000
73659030.000000,80975671.000000
73640000.000000,80880000.000000
73640000.000000,77880000.000000
73659030.000000,77784329.000000
73713223.000000,77703223.000000
73794329.000000,77649030.000000
73890000.000000,77630000.000000
Z" /> 
</g>
<g >
</g>
<g style="fill:#000000; fill-opacity:1.0; 
stroke:#000000; stroke-width:1.000000; stroke-opacity:1; 
stroke-linecap:round; stroke-linejoin:round;">
<path style="fill:#000000; fill-opacity:1.0; 
stroke:#000000; stroke-width:1.000000; stroke-opacity:1; 
stroke-linecap:round; stroke-linejoin:round;fill-rule:evenodd;"
d="M 70637500.000000,104450000.000000
70728387.000000,104468079.000000
70805438.000000,104519562.000000
70856921.000000,104596613.000000
70875000.000000,104687500.000000
70875000.000000,105287500.000000
70856921.000000,105378387.000000
70805438.000000,105455438.000000
70728387.000000,105506921.000000
70637500.000000,105525000.000000
70162500.000000,105525000.000000
70071613.000000,105506921.000000
69994562.000000,105455438.000000
69943079.000000,105378387.000000
69925000.000000,105287500.000000
69925000.000000,104687500.000000
69943079.000000,104596613.000000
69994562.000000,104519562.000000
70071613.000000,104468079.000000
70162500.000000,104450000.000000
Z" /> 
<path style="fill:#000000; fill-opacity:1.0; 
stroke:#000000; stroke-width:1.000000; stroke-opacity:1; 
stroke-linecap:round; stroke-linejoin:round;fill-rule:evenodd;"
d="M 70637500.000000,106175000.000000
70728387.000000,106193079.000000
70805438.000000,106244562.000000
70856921.000000,106321613.000000
70875000.000000,106412500.000000
70875000.000000,107012500.000000
70856921.000000,107103387.000000
70805438.000000,107180438.000000
70728387.000000,107231921.000000
70637500.000000,107250000.000000
70162500.000000,107250000.000000
70071613.000000,107231921.000000
69994562.000000,107180438.000000
69943079.000000,107103387.000000
69925000.000000,107012500.000000
69925000.000000,106412500.000000
69943079.000000,106321613.000000
69994562.000000,106244562.000000
70071613.000000,106193079.000000
70162500.000000,106175000.000000
Z" /> 
</g>
<g >
</g>
<g >
</g>
<g style="fill:#000000; fill-opacity:1.0; 
stroke:#000000; stroke-width:1.000000; stroke-opacity:1; 
stroke-linecap:round; stroke-linejoin:round;">
<path style="fill:#000000; fill-opacity:1.0; 
stroke:#000000; stroke-width:1.000000; stroke-opacity:1; 
stroke-linecap:round; stroke-linejoin:round;fill-rule:evenodd;"
d="M 91260039.000000,106410019.000000
91860037.000000,106410019.000000
91860037.000000,106830007.000000
91260039.000000,106830007.000000
Z" /> 
<path style="fill:#000000; fill-opacity:1.0; 
stroke:#000000; stroke-width:1.000000; stroke-opacity:1; 
stroke-linecap:round; stroke-linejoin:round;fill-rule:evenodd;"
d="M 91260039.000000,107060006.000000
91860037.000000,107060006.000000
91860037.000000,107479994.000000
91260039.000000,107479994.000000
Z" /> 
<path style="fill:#000000; fill-opacity:1.0; 
stroke:#000000; stroke-width:1.000000; stroke-opacity:1; 
stroke-linecap:round; stroke-linejoin:round;fill-rule:evenodd;"
d="M 91260039.000000,107709993.000000
91860037.000000,107709993.000000
91860037.000000,108129981.000000
91260039.000000,108129981.000000
Z" /> 
<path style="fill:#000000; fill-opacity:1.0; 
stroke:#000000; stroke-width:1.000000; stroke-opacity:1; 
stroke-linecap:round; stroke-linejoin:round;fill-rule:evenodd;"
d="M 93759961.000000,108129981.000000
93159963.000000,108129981.000000
93159963.000000,107709993.000000
93759961.000000,107709993.000000
Z" /> 
<path style="fill:#000000; fill-opacity:1.0; 
stroke:#000000; stroke-width:1.000000; stroke-opacity:1; 
stroke-linecap:round; stroke-linejoin:round;fill-rule:evenodd;"
d="M 93759961.000000,107479994.000000
93159963.000000,107479994.000000
93159963.000000,107060006.000000
93759961.000000,107060006.000000
Z" /> 
<path style="fill:#000000; fill-opacity:1.0; 
stroke:#000000; stroke-width:1.000000; stroke-opacity:1; 
stroke-linecap:round; stroke-linejoin:round;fill-rule:evenodd;"
d="M 93759961.000000,106830007.000000
93159963.000000,106830007.000000
93159963.000000,106410019.000000
93759961.000000,106410019.000000
Z" /> 
</g>
<g >
</g>
<g style="fill:#000000; fill-opacity:1.0; 
stroke:#000000; stroke-width:1.000000; stroke-opacity:1; 
stroke-linecap:round; stroke-linejoin:round;">
<path style="fill:#000000; fill-opacity:1.0; 
stroke:#000000; stroke-width:1.000000; stroke-opacity:1; 
stroke-linecap:round; stroke-linejoin:round;fill-rule:evenodd;"
d="M 64219999.000000,107292499.000000
62720001.000000,107292499.000000
62720001.000000,105292501.000000
64219999.000000,105292501.000000
Z" /> 
<path style="fill:#000000; fill-opacity:1.0; 
stroke:#000000; stroke-width:1.000000; stroke-opacity:1; 
stroke-linecap:round; stroke-linejoin:round;fill-rule:evenodd;"
d="M 66519999.000000,107292499.000000
65020001.000000,107292499.000000
65020001.000000,105292501.000000
66519999.000000,105292501.000000
Z" /> 
<path style="fill:#000000; fill-opacity:1.0; 
stroke:#000000; stroke-width:1.000000; stroke-opacity:1; 
stroke-linecap:round; stroke-linejoin:round;fill-rule:evenodd;"
d="M 68819999.000000,107292499.000000
67320001.000000,107292499.000000
67320001.000000,105292501.000000
68819999.000000,105292501.000000
Z" /> 
<path style="fill:#000000; fill-opacity:1.0; 
stroke:#000000; stroke-width:1.000000; stroke-opacity:1; 
stroke-linecap:round; stroke-linejoin:round;fill-rule:evenodd;"
d="M 67669999.000000,100992499.000000
63870001.000000,100992499.000000
63870001.000000,98992501.000000
67669999.000000,98992501.000000
Z" /> 
</g>
<g >
</g>
<g style="fill:#000000; fill-opacity:1.0; 
stroke:#000000; stroke-width:1.000000; stroke-opacity:1; 
stroke-linecap:round; stroke-linejoin:round;">
<path style="fill:#000000; fill-opacity:1.0; 
stroke:#000000; stroke-width:1.000000; stroke-opacity:1; 
stroke-linecap:round; stroke-linejoin:round;fill-rule:evenodd;"
d="M 84150000.000000,78512500.000000
84168079.000000,78421613.000000
84219562.000000,78344562.000000
84296613.000000,78293079.000000
84387500.000000,78275000.000000
84987500.000000,78275000.000000
85078387.000000,78293079.000000
85155438.000000,78344562.000000
85206921.000000,78421613.000000
85225000.000000,78512500.000000
85225000.000000,78987500.000000
85206921.000000,79078387.000000
85155438.000000,79155438.000000
85078387.000000,79206921.000000
84987500.000000,79225000.000000
84387500.000000,79225000.000000
84296613.000000,79206921.000000
84219562.000000,79155438.000000
84168079.000000,79078387.000000
84150000.000000,78987500.000000
Z" /> 
<path style="fill:#000000; fill-opacity:1.0; 
stroke:#000000; stroke-width:1.000000; stroke-opacity:1; 
stroke-linecap:round; stroke-linejoin:round;fill-rule:evenodd;"
d="M 85875000.000000,78512500.000000
85893079.000000,78421613.000000
85944562.000000,78344562.000000
86021613.000000,78293079.000000
86112500.000000,78275000.000000
86712500.000000,78275000.000000
86803387.000000,78293079.000000
86880438.000000,78344562.000000
86931921.000000,78421613.000000
86950000.000000,78512500.000000
86950000.000000,78987500.000000
86931921.000000,79078387.000000
86880438.000000,79155438.000000
86803387.000000,79206921.000000
86712500.000000,79225000.000000
86112500.000000,79225000.000000
86021613.000000,79206921.000000
85944562.000000,79155438.000000
85893079.000000,79078387.000000
85875000.000000,78987500.000000
Z" /> 
</g>
<g >
</g>
<g style="fill:#000000; fill-opacity:1.0; 
stroke:#000000; stroke-width:1.000000; stroke-opacity:1; 
stroke-linecap:round; stroke-linejoin:round;">
<circle cx="74089970.000000" cy="112902540.000000" r="3214265.000000" /> 
</g>
<g style="fill:#000000; fill-opacity:1.0; 
stroke:#000000; stroke-width:21200.000000; stroke-opacity:1; 
stroke-linecap:round; stroke-linejoin:round;">
</g>
<g >
</g>
<g style="fill:#000000; fill-opacity:1.0; 
stroke:#000000; stroke-width:21200.000000; stroke-opacity:1; 
stroke-linecap:round; stroke-linejoin:round;">
</g>
<g style="fill:#000000; fill-opacity:1.0; 
stroke:#000000; stroke-width:1.000000; stroke-opacity:1; 
stroke-linecap:round; stroke-linejoin:round;">
<path style="fill:#000000; fill-opacity:1.0; 
stroke:#000000; stroke-width:1.000000; stroke-opacity:1; 
stroke-linecap:round; stroke-linejoin:round;fill-rule:evenodd;"
d="M 86740000.000000,116912500.000000
86758079.000000,116821613.000000
86809562.000000,116744562.000000
86886613.000000,116693079.000000
86977500.000000,116675000.000000
87577500.000000,116675000.000000
87668387.000000,116693079.000000
87745438.000000,116744562.000000
87796921.000000,116821613.000000
87815000.000000,116912500.000000
87815000.000000,117387500.000000
87796921.000000,117478387.000000
87745438.000000,117555438.000000
87668387.000000,117606921.000000
87577500.000000,117625000.000000
86977500.000000,117625000.000000
86886613.000000,117606921.000000
86809562.000000,117555438.000000
86758079.000000,117478387.000000
86740000.000000,117387500.000000
Z" /> 
<path style="fill:#000000; fill-opacity:1.0; 
stroke:#000000; stroke-width:1.000000; stroke-opacity:1; 
stroke-linecap:round; stroke-linejoin:round;fill-rule:evenodd;"
d="M 88465000.000000,116912500.000000
88483079.000000,116821613.000000
88534562.000000,116744562.000000
88611613.000000,116693079.000000
88702500.000000,116675000.000000
89302500.000000,116675000.000000
89393387.000000,116693079.000000
89470438.000000,116744562.000000
89521921.000000,116821613.000000
89540000.000000,116912500.000000
89540000.000000,117387500.000000
89521921.000000,117478387.000000
89470438.000000,117555438.000000
89393387.000000,117606921.000000
89302500.000000,117625000.000000
88702500.000000,117625000.000000
88611613.000000,117606921.000000
88534562.000000,117555438.000000
88483079.000000,117478387.000000
88465000.000000,117387500.000000
Z" /> 
</g>
<g >
</g>
<g >
</g>
<g style="fill:#000000; fill-opacity:1.0; 
stroke:#000000; stroke-width:1.000000; stroke-opacity:1; 
stroke-linecap:round; stroke-linejoin:round;">
<path style="fill:#000000; fill-opacity:1.0; 
stroke:#000000; stroke-width:1.000000; stroke-opacity:1; 
stroke-linecap:round; stroke-linejoin:round;fill-rule:evenodd;"
d="M 88342500.000000,106790000.000000
88251613.000000,106771921.000000
88174562.000000,106720438.000000
88123079.000000,106643387.000000
88105000.000000,106552500.000000
88105000.000000,105952500.000000
88123079.000000,105861613.000000
88174562.000000,105784562.000000
88251613.000000,105733079.000000
88342500.000000,105715000.000000
88817500.000000,105715000.000000
88908387.000000,105733079.000000
88985438.000000,105784562.000000
89036921.000000,105861613.000000
89055000.000000,105952500.000000
89055000.000000,106552500.000000
89036921.000000,106643387.000000
88985438.000000,106720438.000000
88908387.000000,106771921.000000
88817500.000000,106790000.000000
Z" /> 
<path style="fill:#000000; fill-opacity:1.0; 
stroke:#000000; stroke-width:1.000000; stroke-opacity:1; 
stroke-linecap:round; stroke-linejoin:round;fill-rule:evenodd;"
d="M 88342500.000000,105065000.000000
88251613.000000,105046921.000000
88174562.000000,104995438.000000
88123079.000000,104918387.000000
88105000.000000,104827500.000000
88105000.000000,104227500.000000
88123079.000000,104136613.000000
88174562.000000,104059562.000000
88251613.000000,104008079.000000
88342500.000000,103990000.000000
88817500.000000,103990000.000000
88908387.000000,104008079.000000
88985438.000000,104059562.000000
89036921.000000,104136613.000000
89055000.000000,104227500.000000
89055000.000000,104827500.000000
89036921.000000,104918387.000000
88985438.000000,104995438.000000
88908387.000000,105046921.000000
88817500.000000,105065000.000000
Z" /> 
</g>
<g >
</g>
<g >
</g>
<g >
</g>
<g >
</g>
<g >
</g>
</g> 
</svg>
