<?xml version="1.0" standalone="no"?>
 <!DOCTYPE svg PUBLIC "-//W3C//DTD SVG 1.1//EN" 
 "http://www.w3.org/Graphics/SVG/1.1/DTD/svg11.dtd"> 
<svg
  xmlns:svg="http://www.w3.org/2000/svg"
  xmlns="http://www.w3.org/2000/svg"
  xmlns:xlink="http://www.w3.org/1999/xlink"
  version="1.1"
  width="14.800580cm" height="21.000720cm" viewBox="0 0 148005800 210007200">
<title>SVG Picture created as GlowTowerPCB-Edge_Cuts.svg date 2022/03/25 12:23:16 </title>
  <desc>Picture generated by PCBNEW </desc>
<g style="fill:#000000; fill-opacity:1.000000;stroke:#000000; stroke-opacity:1.000000;
stroke-linecap:round; stroke-linejoin:round;"
 transform="translate(0 0) scale(1 1)">
</g>
<g style="fill:#000000; fill-opacity:0.0; 
stroke:#000000; stroke-width:0.000000; stroke-opacity:1; 
stroke-linecap:round; stroke-linejoin:round;">
</g>
<g style="fill:#000000; fill-opacity:0.0; 
stroke:#000000; stroke-width:100000.000000; stroke-opacity:1; 
stroke-linecap:round; stroke-linejoin:round;">
<path d="M66358742 59558482
L73712652 52204572
" />
<path d="M87286533.000000 73389464.000000 A1999999.000000 1999999.000000 0.0 0 0 85286533.000000 75389464.000000" />
<path d="M57955028.000000 46987414.000000 A4000000.000000 4000000.000000 0.0 0 0 53955028.000000 50987414.000000" />
<path d="M85286533.000000 101589464.000000 A1999999.000000 1999999.000000 0.0 0 0 87286533.000000 103589464.000000" />
<path d="M74278338.005366 52204571.994634 A399999.000000 399999.000000 0.0 0 0 73712651.994634 52204571.994634" />
<path d="M66358741.994634 59558481.994634 A399999.000000 399999.000000 0.0 0 0 66358741.994634 60124168.005366" />
<path d="M74278338 52204572
L81632248 59558482
" />
<path d="M53955028 50987414
L53955028 131980424
" />
<path d="M73712651.994634 67478078.005366 A399999.000000 399999.000000 0.0 0 0 74278338.005366 67478078.005366" />
<path d="M85286533 101589464
L85286533 75389464
" />
<path d="M73712652 67478078
L66358742 60124168
" />
<path d="M88286533.000000 135980424.000000 A4000000.000000 4000000.000000 0.0 0 0 92286533.000000 131980424.000000" />
<path d="M92286533 71389464
L92286533 50987414
" />
<path d="M90286533.000000 73389464.000000 A1999999.000000 1999999.000000 0.0 0 0 92286533.000000 71389464.000000" />
<path d="M81632248 60124168
L74278338 67478078
" />
<path d="M92286533 131980424
L92286533 105589464
" />
<path d="M92286533.000000 50987414.000000 A4000000.000000 4000000.000000 0.0 0 0 88286533.000000 46987414.000000" />
<path d="M53955028.000000 131980424.000000 A4000000.000000 4000000.000000 0.0 0 0 57955028.000000 135980424.000000" />
<path d="M81632248.005366 60124168.005366 A399999.000000 399999.000000 0.0 0 0 81632248.005366 59558481.994634" />
<path d="M57955028 135980424
L88286533 135980424
" />
<path d="M88286533 46987414
L57955028 46987414
" />
<path d="M87286533 73389464
L90286533 73389464
" />
<path d="M90286533 103589464
L87286533 103589464
" />
<path d="M92286533.000000 105589464.000000 A1999999.000000 1999999.000000 0.0 0 0 90286533.000000 103589464.000000" />
<g >
</g>
<g >
</g>
<g >
</g>
<g >
</g>
<g >
</g>
<g >
</g>
<g >
</g>
<g >
</g>
<g >
</g>
<g >
</g>
<g >
</g>
<g >
</g>
<g >
</g>
<g >
</g>
<g >
</g>
<g >
</g>
<g >
</g>
<g >
</g>
<g >
</g>
<g >
</g>
<g >
</g>
<g >
</g>
<g >
</g>
<g >
</g>
<g >
</g>
<g >
</g>
<g >
</g>
<g >
</g>
<g >
</g>
<g >
</g>
<g >
</g>
<g >
</g>
<g >
</g>
<g >
</g>
<g >
</g>
<g >
</g>
<g >
</g>
<g >
</g>
<g >
</g>
<g >
</g>
<g >
</g>
<g >
</g>
<g >
</g>
<g >
</g>
</g> 
</svg>
