<?xml version="1.0" standalone="no"?>
 <!DOCTYPE svg PUBLIC "-//W3C//DTD SVG 1.1//EN" 
 "http://www.w3.org/Graphics/SVG/1.1/DTD/svg11.dtd"> 
<svg
  xmlns:svg="http://www.w3.org/2000/svg"
  xmlns="http://www.w3.org/2000/svg"
  xmlns:xlink="http://www.w3.org/1999/xlink"
  version="1.1"
  width="14.800580cm" height="21.000720cm" viewBox="0 0 148005800 210007200">
<title>SVG Picture created as GlowTowerPCB-F_Paste.svg date 2022/03/25 12:23:16 </title>
  <desc>Picture generated by PCBNEW </desc>
<g style="fill:#000000; fill-opacity:1.000000;stroke:#000000; stroke-opacity:1.000000;
stroke-linecap:round; stroke-linejoin:round;"
 transform="translate(0 0) scale(1 1)">
</g>
<g style="fill:#000000; fill-opacity:0.0; 
stroke:#000000; stroke-width:0.000000; stroke-opacity:1; 
stroke-linecap:round; stroke-linejoin:round;">
</g>
<g style="fill:#000000; fill-opacity:0.0; 
stroke:#000000; stroke-width:240000.000000; stroke-opacity:1; 
stroke-linecap:round; stroke-linejoin:round;">
<path d="M62551199.971780 91323000.007561 A721249.000000 721249.000000 0.0 0 0 63061199.992439 91833000.028220" />
<path d="M63401200.007561 91833000.028220 A721249.000000 721249.000000 0.0 0 0 63911200.028220 91323000.007561" />
<path d="M63061199.992439 90472999.971780 A721249.000000 721249.000000 0.0 0 0 62551199.971780 90982999.992439" />
<path d="M63911200.028220 90982999.992439 A721249.000000 721249.000000 0.0 0 0 63401200.007561 90472999.971780" />
</g>
<g style="fill:#000000; fill-opacity:0.0; 
stroke:#000000; stroke-width:10000.000000; stroke-opacity:1; 
stroke-linecap:round; stroke-linejoin:round;">
<path d="M64056200 88428000
L64556200 88428000
" />
<path d="M64556200 88428000
L64556200 88728000
" />
<path d="M64556200 88728000
L64056200 88728000
" />
<path d="M64056200 88728000
L64056200 88428000
" />
</g>
<g style="fill:#000000; fill-opacity:1.0; 
stroke:#000000; stroke-width:10000.000000; stroke-opacity:1; 
stroke-linecap:round; stroke-linejoin:round;">
<path style="fill:#000000; fill-opacity:1.0; 
stroke:#000000; stroke-width:10000.000000; stroke-opacity:1; 
stroke-linecap:round; stroke-linejoin:round;fill-rule:evenodd;"
d="M 64556200.000000,88728000.000000
64056200.000000,88728000.000000
64056200.000000,88428000.000000
64556200.000000,88428000.000000
Z" /> 
</g>
<g style="fill:#000000; fill-opacity:0.0; 
stroke:#000000; stroke-width:10000.000000; stroke-opacity:1; 
stroke-linecap:round; stroke-linejoin:round;">
<path d="M64056200 89078000
L64556200 89078000
" />
<path d="M64556200 89078000
L64556200 89378000
" />
<path d="M64556200 89378000
L64056200 89378000
" />
<path d="M64056200 89378000
L64056200 89078000
" />
</g>
<g style="fill:#000000; fill-opacity:1.0; 
stroke:#000000; stroke-width:10000.000000; stroke-opacity:1; 
stroke-linecap:round; stroke-linejoin:round;">
<path style="fill:#000000; fill-opacity:1.0; 
stroke:#000000; stroke-width:10000.000000; stroke-opacity:1; 
stroke-linecap:round; stroke-linejoin:round;fill-rule:evenodd;"
d="M 64556200.000000,89378000.000000
64056200.000000,89378000.000000
64056200.000000,89078000.000000
64556200.000000,89078000.000000
Z" /> 
</g>
<g style="fill:#000000; fill-opacity:0.0; 
stroke:#000000; stroke-width:10000.000000; stroke-opacity:1; 
stroke-linecap:round; stroke-linejoin:round;">
<path d="M64056200 89728000
L64556200 89728000
" />
<path d="M64556200 89728000
L64556200 90028000
" />
<path d="M64556200 90028000
L64056200 90028000
" />
<path d="M64056200 90028000
L64056200 89728000
" />
</g>
<g style="fill:#000000; fill-opacity:1.0; 
stroke:#000000; stroke-width:10000.000000; stroke-opacity:1; 
stroke-linecap:round; stroke-linejoin:round;">
<path style="fill:#000000; fill-opacity:1.0; 
stroke:#000000; stroke-width:10000.000000; stroke-opacity:1; 
stroke-linecap:round; stroke-linejoin:round;fill-rule:evenodd;"
d="M 64556200.000000,90028000.000000
64056200.000000,90028000.000000
64056200.000000,89728000.000000
64556200.000000,89728000.000000
Z" /> 
</g>
<g style="fill:#000000; fill-opacity:0.0; 
stroke:#000000; stroke-width:10000.000000; stroke-opacity:1; 
stroke-linecap:round; stroke-linejoin:round;">
<path d="M61906200 88428000
L62406200 88428000
" />
<path d="M62406200 88428000
L62406200 88728000
" />
<path d="M62406200 88728000
L61906200 88728000
" />
<path d="M61906200 88728000
L61906200 88428000
" />
</g>
<g style="fill:#000000; fill-opacity:1.0; 
stroke:#000000; stroke-width:10000.000000; stroke-opacity:1; 
stroke-linecap:round; stroke-linejoin:round;">
<path style="fill:#000000; fill-opacity:1.0; 
stroke:#000000; stroke-width:10000.000000; stroke-opacity:1; 
stroke-linecap:round; stroke-linejoin:round;fill-rule:evenodd;"
d="M 62406200.000000,88728000.000000
61906200.000000,88728000.000000
61906200.000000,88428000.000000
62406200.000000,88428000.000000
Z" /> 
</g>
<g style="fill:#000000; fill-opacity:0.0; 
stroke:#000000; stroke-width:10000.000000; stroke-opacity:1; 
stroke-linecap:round; stroke-linejoin:round;">
<path d="M61906200 89728000
L62406200 89728000
" />
<path d="M62406200 89728000
L62406200 90028000
" />
<path d="M62406200 90028000
L61906200 90028000
" />
<path d="M61906200 90028000
L61906200 89728000
" />
</g>
<g style="fill:#000000; fill-opacity:1.0; 
stroke:#000000; stroke-width:10000.000000; stroke-opacity:1; 
stroke-linecap:round; stroke-linejoin:round;">
<path style="fill:#000000; fill-opacity:1.0; 
stroke:#000000; stroke-width:10000.000000; stroke-opacity:1; 
stroke-linecap:round; stroke-linejoin:round;fill-rule:evenodd;"
d="M 62406200.000000,90028000.000000
61906200.000000,90028000.000000
61906200.000000,89728000.000000
62406200.000000,89728000.000000
Z" /> 
</g>
<g style="fill:#000000; fill-opacity:0.0; 
stroke:#000000; stroke-width:10000.000000; stroke-opacity:1; 
stroke-linecap:round; stroke-linejoin:round;">
<path d="M61906200 89078000
L62406200 89078000
" />
<path d="M62406200 89078000
L62406200 89378000
" />
<path d="M62406200 89378000
L61906200 89378000
" />
<path d="M61906200 89378000
L61906200 89078000
" />
</g>
<g style="fill:#000000; fill-opacity:1.0; 
stroke:#000000; stroke-width:10000.000000; stroke-opacity:1; 
stroke-linecap:round; stroke-linejoin:round;">
<path style="fill:#000000; fill-opacity:1.0; 
stroke:#000000; stroke-width:10000.000000; stroke-opacity:1; 
stroke-linecap:round; stroke-linejoin:round;fill-rule:evenodd;"
d="M 62406200.000000,89378000.000000
61906200.000000,89378000.000000
61906200.000000,89078000.000000
62406200.000000,89078000.000000
Z" /> 
<g >
</g>
<g >
</g>
<g style="fill:#000000; fill-opacity:1.0; 
stroke:#000000; stroke-width:10000.000000; stroke-opacity:1; 
stroke-linecap:round; stroke-linejoin:round;">
</g>
<g style="fill:#000000; fill-opacity:1.0; 
stroke:#000000; stroke-width:1.000000; stroke-opacity:1; 
stroke-linecap:round; stroke-linejoin:round;">
<path style="fill:#000000; fill-opacity:1.0; 
stroke:#000000; stroke-width:1.000000; stroke-opacity:1; 
stroke-linecap:round; stroke-linejoin:round;fill-rule:evenodd;"
d="M 88310000.000000,70607500.000000
88291921.000000,70698387.000000
88240438.000000,70775438.000000
88163387.000000,70826921.000000
88072500.000000,70845000.000000
87572500.000000,70845000.000000
87481613.000000,70826921.000000
87404562.000000,70775438.000000
87353079.000000,70698387.000000
87335000.000000,70607500.000000
87335000.000000,70132500.000000
87353079.000000,70041613.000000
87404562.000000,69964562.000000
87481613.000000,69913079.000000
87572500.000000,69895000.000000
88072500.000000,69895000.000000
88163387.000000,69913079.000000
88240438.000000,69964562.000000
88291921.000000,70041613.000000
88310000.000000,70132500.000000
Z" /> 
<path style="fill:#000000; fill-opacity:1.0; 
stroke:#000000; stroke-width:1.000000; stroke-opacity:1; 
stroke-linecap:round; stroke-linejoin:round;fill-rule:evenodd;"
d="M 86485000.000000,70607500.000000
86466921.000000,70698387.000000
86415438.000000,70775438.000000
86338387.000000,70826921.000000
86247500.000000,70845000.000000
85747500.000000,70845000.000000
85656613.000000,70826921.000000
85579562.000000,70775438.000000
85528079.000000,70698387.000000
85510000.000000,70607500.000000
85510000.000000,70132500.000000
85528079.000000,70041613.000000
85579562.000000,69964562.000000
85656613.000000,69913079.000000
85747500.000000,69895000.000000
86247500.000000,69895000.000000
86338387.000000,69913079.000000
86415438.000000,69964562.000000
86466921.000000,70041613.000000
86485000.000000,70132500.000000
Z" /> 
</g>
<g >
</g>
<g style="fill:#000000; fill-opacity:1.0; 
stroke:#000000; stroke-width:1.000000; stroke-opacity:1; 
stroke-linecap:round; stroke-linejoin:round;">
<path style="fill:#000000; fill-opacity:1.0; 
stroke:#000000; stroke-width:1.000000; stroke-opacity:1; 
stroke-linecap:round; stroke-linejoin:round;fill-rule:evenodd;"
d="M 70615000.000000,101160000.000000
70603582.000000,101217403.000000
70571066.000000,101266066.000000
70522403.000000,101298582.000000
70465000.000000,101310000.000000
69290000.000000,101310000.000000
69232597.000000,101298582.000000
69183934.000000,101266066.000000
69151418.000000,101217403.000000
69140000.000000,101160000.000000
69140000.000000,100860000.000000
69151418.000000,100802597.000000
69183934.000000,100753934.000000
69232597.000000,100721418.000000
69290000.000000,100710000.000000
70465000.000000,100710000.000000
70522403.000000,100721418.000000
70571066.000000,100753934.000000
70603582.000000,100802597.000000
70615000.000000,100860000.000000
Z" /> 
<path style="fill:#000000; fill-opacity:1.0; 
stroke:#000000; stroke-width:1.000000; stroke-opacity:1; 
stroke-linecap:round; stroke-linejoin:round;fill-rule:evenodd;"
d="M 70615000.000000,99260000.000000
70603582.000000,99317403.000000
70571066.000000,99366066.000000
70522403.000000,99398582.000000
70465000.000000,99410000.000000
69290000.000000,99410000.000000
69232597.000000,99398582.000000
69183934.000000,99366066.000000
69151418.000000,99317403.000000
69140000.000000,99260000.000000
69140000.000000,98960000.000000
69151418.000000,98902597.000000
69183934.000000,98853934.000000
69232597.000000,98821418.000000
69290000.000000,98810000.000000
70465000.000000,98810000.000000
70522403.000000,98821418.000000
70571066.000000,98853934.000000
70603582.000000,98902597.000000
70615000.000000,98960000.000000
Z" /> 
<path style="fill:#000000; fill-opacity:1.0; 
stroke:#000000; stroke-width:1.000000; stroke-opacity:1; 
stroke-linecap:round; stroke-linejoin:round;fill-rule:evenodd;"
d="M 68740000.000000,100210000.000000
68728582.000000,100267403.000000
68696066.000000,100316066.000000
68647403.000000,100348582.000000
68590000.000000,100360000.000000
67415000.000000,100360000.000000
67357597.000000,100348582.000000
67308934.000000,100316066.000000
67276418.000000,100267403.000000
67265000.000000,100210000.000000
67265000.000000,99910000.000000
67276418.000000,99852597.000000
67308934.000000,99803934.000000
67357597.000000,99771418.000000
67415000.000000,99760000.000000
68590000.000000,99760000.000000
68647403.000000,99771418.000000
68696066.000000,99803934.000000
68728582.000000,99852597.000000
68740000.000000,99910000.000000
Z" /> 
</g>
<g >
</g>
<g style="fill:#000000; fill-opacity:1.0; 
stroke:#000000; stroke-width:1.000000; stroke-opacity:1; 
stroke-linecap:round; stroke-linejoin:round;">
<path style="fill:#000000; fill-opacity:1.0; 
stroke:#000000; stroke-width:1.000000; stroke-opacity:1; 
stroke-linecap:round; stroke-linejoin:round;fill-rule:evenodd;"
d="M 56897500.000000,120740000.000000
56988387.000000,120758079.000000
57065438.000000,120809562.000000
57116921.000000,120886613.000000
57135000.000000,120977500.000000
57135000.000000,121477500.000000
57116921.000000,121568387.000000
57065438.000000,121645438.000000
56988387.000000,121696921.000000
56897500.000000,121715000.000000
56422500.000000,121715000.000000
56331613.000000,121696921.000000
56254562.000000,121645438.000000
56203079.000000,121568387.000000
56185000.000000,121477500.000000
56185000.000000,120977500.000000
56203079.000000,120886613.000000
56254562.000000,120809562.000000
56331613.000000,120758079.000000
56422500.000000,120740000.000000
Z" /> 
<path style="fill:#000000; fill-opacity:1.0; 
stroke:#000000; stroke-width:1.000000; stroke-opacity:1; 
stroke-linecap:round; stroke-linejoin:round;fill-rule:evenodd;"
d="M 56897500.000000,122565000.000000
56988387.000000,122583079.000000
57065438.000000,122634562.000000
57116921.000000,122711613.000000
57135000.000000,122802500.000000
57135000.000000,123302500.000000
57116921.000000,123393387.000000
57065438.000000,123470438.000000
56988387.000000,123521921.000000
56897500.000000,123540000.000000
56422500.000000,123540000.000000
56331613.000000,123521921.000000
56254562.000000,123470438.000000
56203079.000000,123393387.000000
56185000.000000,123302500.000000
56185000.000000,122802500.000000
56203079.000000,122711613.000000
56254562.000000,122634562.000000
56331613.000000,122583079.000000
56422500.000000,122565000.000000
Z" /> 
</g>
<g >
</g>
<g style="fill:#000000; fill-opacity:1.0; 
stroke:#000000; stroke-width:1.000000; stroke-opacity:1; 
stroke-linecap:round; stroke-linejoin:round;">
<path style="fill:#000000; fill-opacity:1.0; 
stroke:#000000; stroke-width:1.000000; stroke-opacity:1; 
stroke-linecap:round; stroke-linejoin:round;fill-rule:evenodd;"
d="M 73850000.000000,102465000.000000
73792597.000000,102453582.000000
73743934.000000,102421066.000000
73711418.000000,102372403.000000
73700000.000000,102315000.000000
73700000.000000,101140000.000000
73711418.000000,101082597.000000
73743934.000000,101033934.000000
73792597.000000,101001418.000000
73850000.000000,100990000.000000
74150000.000000,100990000.000000
74207403.000000,101001418.000000
74256066.000000,101033934.000000
74288582.000000,101082597.000000
74300000.000000,101140000.000000
74300000.000000,102315000.000000
74288582.000000,102372403.000000
74256066.000000,102421066.000000
74207403.000000,102453582.000000
74150000.000000,102465000.000000
Z" /> 
<path style="fill:#000000; fill-opacity:1.0; 
stroke:#000000; stroke-width:1.000000; stroke-opacity:1; 
stroke-linecap:round; stroke-linejoin:round;fill-rule:evenodd;"
d="M 75750000.000000,102465000.000000
75692597.000000,102453582.000000
75643934.000000,102421066.000000
75611418.000000,102372403.000000
75600000.000000,102315000.000000
75600000.000000,101140000.000000
75611418.000000,101082597.000000
75643934.000000,101033934.000000
75692597.000000,101001418.000000
75750000.000000,100990000.000000
76050000.000000,100990000.000000
76107403.000000,101001418.000000
76156066.000000,101033934.000000
76188582.000000,101082597.000000
76200000.000000,101140000.000000
76200000.000000,102315000.000000
76188582.000000,102372403.000000
76156066.000000,102421066.000000
76107403.000000,102453582.000000
76050000.000000,102465000.000000
Z" /> 
<path style="fill:#000000; fill-opacity:1.0; 
stroke:#000000; stroke-width:1.000000; stroke-opacity:1; 
stroke-linecap:round; stroke-linejoin:round;fill-rule:evenodd;"
d="M 74800000.000000,100590000.000000
74742597.000000,100578582.000000
74693934.000000,100546066.000000
74661418.000000,100497403.000000
74650000.000000,100440000.000000
74650000.000000,99265000.000000
74661418.000000,99207597.000000
74693934.000000,99158934.000000
74742597.000000,99126418.000000
74800000.000000,99115000.000000
75100000.000000,99115000.000000
75157403.000000,99126418.000000
75206066.000000,99158934.000000
75238582.000000,99207597.000000
75250000.000000,99265000.000000
75250000.000000,100440000.000000
75238582.000000,100497403.000000
75206066.000000,100546066.000000
75157403.000000,100578582.000000
75100000.000000,100590000.000000
Z" /> 
</g>
<g >
</g>
<g style="fill:#000000; fill-opacity:1.0; 
stroke:#000000; stroke-width:1.000000; stroke-opacity:1; 
stroke-linecap:round; stroke-linejoin:round;">
<path style="fill:#000000; fill-opacity:1.0; 
stroke:#000000; stroke-width:1.000000; stroke-opacity:1; 
stroke-linecap:round; stroke-linejoin:round;fill-rule:evenodd;"
d="M 75853580.000000,125619424.000000
75834550.000000,125715095.000000
75780357.000000,125796201.000000
75699251.000000,125850394.000000
75603580.000000,125869424.000000
74803580.000000,125869424.000000
74707909.000000,125850394.000000
74626803.000000,125796201.000000
74572610.000000,125715095.000000
74553580.000000,125619424.000000
74553580.000000,122719424.000000
74572610.000000,122623753.000000
74626803.000000,122542647.000000
74707909.000000,122488454.000000
74803580.000000,122469424.000000
75603580.000000,122469424.000000
75699251.000000,122488454.000000
75780357.000000,122542647.000000
75834550.000000,122623753.000000
75853580.000000,122719424.000000
Z" /> 
<path style="fill:#000000; fill-opacity:1.0; 
stroke:#000000; stroke-width:1.000000; stroke-opacity:1; 
stroke-linecap:round; stroke-linejoin:round;fill-rule:evenodd;"
d="M 71403580.000000,125619424.000000
71384550.000000,125715095.000000
71330357.000000,125796201.000000
71249251.000000,125850394.000000
71153580.000000,125869424.000000
70353580.000000,125869424.000000
70257909.000000,125850394.000000
70176803.000000,125796201.000000
70122610.000000,125715095.000000
70103580.000000,125619424.000000
70103580.000000,122719424.000000
70122610.000000,122623753.000000
70176803.000000,122542647.000000
70257909.000000,122488454.000000
70353580.000000,122469424.000000
71153580.000000,122469424.000000
71249251.000000,122488454.000000
71330357.000000,122542647.000000
71384550.000000,122623753.000000
71403580.000000,122719424.000000
Z" /> 
</g>
<g >
</g>
<g >
</g>
<g style="fill:#000000; fill-opacity:1.0; 
stroke:#000000; stroke-width:1.000000; stroke-opacity:1; 
stroke-linecap:round; stroke-linejoin:round;">
<path style="fill:#000000; fill-opacity:1.0; 
stroke:#000000; stroke-width:1.000000; stroke-opacity:1; 
stroke-linecap:round; stroke-linejoin:round;fill-rule:evenodd;"
d="M 84750000.000000,109575000.000000
84807403.000000,109586418.000000
84856066.000000,109618934.000000
84888582.000000,109667597.000000
84900000.000000,109725000.000000
84900000.000000,110900000.000000
84888582.000000,110957403.000000
84856066.000000,111006066.000000
84807403.000000,111038582.000000
84750000.000000,111050000.000000
84450000.000000,111050000.000000
84392597.000000,111038582.000000
84343934.000000,111006066.000000
84311418.000000,110957403.000000
84300000.000000,110900000.000000
84300000.000000,109725000.000000
84311418.000000,109667597.000000
84343934.000000,109618934.000000
84392597.000000,109586418.000000
84450000.000000,109575000.000000
Z" /> 
<path style="fill:#000000; fill-opacity:1.0; 
stroke:#000000; stroke-width:1.000000; stroke-opacity:1; 
stroke-linecap:round; stroke-linejoin:round;fill-rule:evenodd;"
d="M 82850000.000000,109575000.000000
82907403.000000,109586418.000000
82956066.000000,109618934.000000
82988582.000000,109667597.000000
83000000.000000,109725000.000000
83000000.000000,110900000.000000
82988582.000000,110957403.000000
82956066.000000,111006066.000000
82907403.000000,111038582.000000
82850000.000000,111050000.000000
82550000.000000,111050000.000000
82492597.000000,111038582.000000
82443934.000000,111006066.000000
82411418.000000,110957403.000000
82400000.000000,110900000.000000
82400000.000000,109725000.000000
82411418.000000,109667597.000000
82443934.000000,109618934.000000
82492597.000000,109586418.000000
82550000.000000,109575000.000000
Z" /> 
<path style="fill:#000000; fill-opacity:1.0; 
stroke:#000000; stroke-width:1.000000; stroke-opacity:1; 
stroke-linecap:round; stroke-linejoin:round;fill-rule:evenodd;"
d="M 83800000.000000,111450000.000000
83857403.000000,111461418.000000
83906066.000000,111493934.000000
83938582.000000,111542597.000000
83950000.000000,111600000.000000
83950000.000000,112775000.000000
83938582.000000,112832403.000000
83906066.000000,112881066.000000
83857403.000000,112913582.000000
83800000.000000,112925000.000000
83500000.000000,112925000.000000
83442597.000000,112913582.000000
83393934.000000,112881066.000000
83361418.000000,112832403.000000
83350000.000000,112775000.000000
83350000.000000,111600000.000000
83361418.000000,111542597.000000
83393934.000000,111493934.000000
83442597.000000,111461418.000000
83500000.000000,111450000.000000
Z" /> 
</g>
<g >
</g>
<g style="fill:#000000; fill-opacity:1.0; 
stroke:#000000; stroke-width:1.000000; stroke-opacity:1; 
stroke-linecap:round; stroke-linejoin:round;">
<path style="fill:#000000; fill-opacity:1.0; 
stroke:#000000; stroke-width:1.000000; stroke-opacity:1; 
stroke-linecap:round; stroke-linejoin:round;fill-rule:evenodd;"
d="M 72647500.000000,99100000.000000
72738387.000000,99118079.000000
72815438.000000,99169562.000000
72866921.000000,99246613.000000
72885000.000000,99337500.000000
72885000.000000,99837500.000000
72866921.000000,99928387.000000
72815438.000000,100005438.000000
72738387.000000,100056921.000000
72647500.000000,100075000.000000
72172500.000000,100075000.000000
72081613.000000,100056921.000000
72004562.000000,100005438.000000
71953079.000000,99928387.000000
71935000.000000,99837500.000000
71935000.000000,99337500.000000
71953079.000000,99246613.000000
72004562.000000,99169562.000000
72081613.000000,99118079.000000
72172500.000000,99100000.000000
Z" /> 
<path style="fill:#000000; fill-opacity:1.0; 
stroke:#000000; stroke-width:1.000000; stroke-opacity:1; 
stroke-linecap:round; stroke-linejoin:round;fill-rule:evenodd;"
d="M 72647500.000000,100925000.000000
72738387.000000,100943079.000000
72815438.000000,100994562.000000
72866921.000000,101071613.000000
72885000.000000,101162500.000000
72885000.000000,101662500.000000
72866921.000000,101753387.000000
72815438.000000,101830438.000000
72738387.000000,101881921.000000
72647500.000000,101900000.000000
72172500.000000,101900000.000000
72081613.000000,101881921.000000
72004562.000000,101830438.000000
71953079.000000,101753387.000000
71935000.000000,101662500.000000
71935000.000000,101162500.000000
71953079.000000,101071613.000000
72004562.000000,100994562.000000
72081613.000000,100943079.000000
72172500.000000,100925000.000000
Z" /> 
</g>
<g >
</g>
<g style="fill:#000000; fill-opacity:1.0; 
stroke:#000000; stroke-width:1.000000; stroke-opacity:1; 
stroke-linecap:round; stroke-linejoin:round;">
<path style="fill:#000000; fill-opacity:1.0; 
stroke:#000000; stroke-width:1.000000; stroke-opacity:1; 
stroke-linecap:round; stroke-linejoin:round;fill-rule:evenodd;"
d="M 77380000.000000,102455000.000000
77322597.000000,102443582.000000
77273934.000000,102411066.000000
77241418.000000,102362403.000000
77230000.000000,102305000.000000
77230000.000000,101130000.000000
77241418.000000,101072597.000000
77273934.000000,101023934.000000
77322597.000000,100991418.000000
77380000.000000,100980000.000000
77680000.000000,100980000.000000
77737403.000000,100991418.000000
77786066.000000,101023934.000000
77818582.000000,101072597.000000
77830000.000000,101130000.000000
77830000.000000,102305000.000000
77818582.000000,102362403.000000
77786066.000000,102411066.000000
77737403.000000,102443582.000000
77680000.000000,102455000.000000
Z" /> 
<path style="fill:#000000; fill-opacity:1.0; 
stroke:#000000; stroke-width:1.000000; stroke-opacity:1; 
stroke-linecap:round; stroke-linejoin:round;fill-rule:evenodd;"
d="M 79280000.000000,102455000.000000
79222597.000000,102443582.000000
79173934.000000,102411066.000000
79141418.000000,102362403.000000
79130000.000000,102305000.000000
79130000.000000,101130000.000000
79141418.000000,101072597.000000
79173934.000000,101023934.000000
79222597.000000,100991418.000000
79280000.000000,100980000.000000
79580000.000000,100980000.000000
79637403.000000,100991418.000000
79686066.000000,101023934.000000
79718582.000000,101072597.000000
79730000.000000,101130000.000000
79730000.000000,102305000.000000
79718582.000000,102362403.000000
79686066.000000,102411066.000000
79637403.000000,102443582.000000
79580000.000000,102455000.000000
Z" /> 
<path style="fill:#000000; fill-opacity:1.0; 
stroke:#000000; stroke-width:1.000000; stroke-opacity:1; 
stroke-linecap:round; stroke-linejoin:round;fill-rule:evenodd;"
d="M 78330000.000000,100580000.000000
78272597.000000,100568582.000000
78223934.000000,100536066.000000
78191418.000000,100487403.000000
78180000.000000,100430000.000000
78180000.000000,99255000.000000
78191418.000000,99197597.000000
78223934.000000,99148934.000000
78272597.000000,99116418.000000
78330000.000000,99105000.000000
78630000.000000,99105000.000000
78687403.000000,99116418.000000
78736066.000000,99148934.000000
78768582.000000,99197597.000000
78780000.000000,99255000.000000
78780000.000000,100430000.000000
78768582.000000,100487403.000000
78736066.000000,100536066.000000
78687403.000000,100568582.000000
78630000.000000,100580000.000000
Z" /> 
</g>
<g >
</g>
<g style="fill:#000000; fill-opacity:1.0; 
stroke:#000000; stroke-width:1.000000; stroke-opacity:1; 
stroke-linecap:round; stroke-linejoin:round;">
<path style="fill:#000000; fill-opacity:1.0; 
stroke:#000000; stroke-width:1.000000; stroke-opacity:1; 
stroke-linecap:round; stroke-linejoin:round;fill-rule:evenodd;"
d="M 63880000.000000,94114500.000000
63861921.000000,94205387.000000
63810438.000000,94282438.000000
63733387.000000,94333921.000000
63642500.000000,94352000.000000
63042500.000000,94352000.000000
62951613.000000,94333921.000000
62874562.000000,94282438.000000
62823079.000000,94205387.000000
62805000.000000,94114500.000000
62805000.000000,93639500.000000
62823079.000000,93548613.000000
62874562.000000,93471562.000000
62951613.000000,93420079.000000
63042500.000000,93402000.000000
63642500.000000,93402000.000000
63733387.000000,93420079.000000
63810438.000000,93471562.000000
63861921.000000,93548613.000000
63880000.000000,93639500.000000
Z" /> 
<path style="fill:#000000; fill-opacity:1.0; 
stroke:#000000; stroke-width:1.000000; stroke-opacity:1; 
stroke-linecap:round; stroke-linejoin:round;fill-rule:evenodd;"
d="M 62155000.000000,94114500.000000
62136921.000000,94205387.000000
62085438.000000,94282438.000000
62008387.000000,94333921.000000
61917500.000000,94352000.000000
61317500.000000,94352000.000000
61226613.000000,94333921.000000
61149562.000000,94282438.000000
61098079.000000,94205387.000000
61080000.000000,94114500.000000
61080000.000000,93639500.000000
61098079.000000,93548613.000000
61149562.000000,93471562.000000
61226613.000000,93420079.000000
61317500.000000,93402000.000000
61917500.000000,93402000.000000
62008387.000000,93420079.000000
62085438.000000,93471562.000000
62136921.000000,93548613.000000
62155000.000000,93639500.000000
Z" /> 
</g>
<g >
</g>
<g >
</g>
<g style="fill:#000000; fill-opacity:1.0; 
stroke:#000000; stroke-width:1.000000; stroke-opacity:1; 
stroke-linecap:round; stroke-linejoin:round;">
<path style="fill:#000000; fill-opacity:1.0; 
stroke:#000000; stroke-width:1.000000; stroke-opacity:1; 
stroke-linecap:round; stroke-linejoin:round;fill-rule:evenodd;"
d="M 61979999.000000,104059999.000000
61080001.000000,104059999.000000
61080001.000000,102560001.000000
61979999.000000,102560001.000000
Z" /> 
<path style="fill:#000000; fill-opacity:1.0; 
stroke:#000000; stroke-width:1.000000; stroke-opacity:1; 
stroke-linecap:round; stroke-linejoin:round;fill-rule:evenodd;"
d="M 61979999.000000,107859999.000000
61080001.000000,107859999.000000
61080001.000000,106360001.000000
61979999.000000,106360001.000000
Z" /> 
<path style="fill:#000000; fill-opacity:1.0; 
stroke:#000000; stroke-width:1.000000; stroke-opacity:1; 
stroke-linecap:round; stroke-linejoin:round;fill-rule:evenodd;"
d="M 63479999.000000,107859999.000000
62580001.000000,107859999.000000
62580001.000000,106360001.000000
63479999.000000,106360001.000000
Z" /> 
<path style="fill:#000000; fill-opacity:1.0; 
stroke:#000000; stroke-width:1.000000; stroke-opacity:1; 
stroke-linecap:round; stroke-linejoin:round;fill-rule:evenodd;"
d="M 63479999.000000,104059999.000000
62580001.000000,104059999.000000
62580001.000000,102560001.000000
63479999.000000,102560001.000000
Z" /> 
</g>
<g >
</g>
<g >
</g>
<g >
</g>
<g style="fill:#000000; fill-opacity:1.0; 
stroke:#000000; stroke-width:1.000000; stroke-opacity:1; 
stroke-linecap:round; stroke-linejoin:round;">
<path style="fill:#000000; fill-opacity:1.0; 
stroke:#000000; stroke-width:1.000000; stroke-opacity:1; 
stroke-linecap:round; stroke-linejoin:round;fill-rule:evenodd;"
d="M 60454000.000000,92326200.000000
60363113.000000,92308121.000000
60286062.000000,92256638.000000
60234579.000000,92179587.000000
60216500.000000,92088700.000000
60216500.000000,91488700.000000
60234579.000000,91397813.000000
60286062.000000,91320762.000000
60363113.000000,91269279.000000
60454000.000000,91251200.000000
60929000.000000,91251200.000000
61019887.000000,91269279.000000
61096938.000000,91320762.000000
61148421.000000,91397813.000000
61166500.000000,91488700.000000
61166500.000000,92088700.000000
61148421.000000,92179587.000000
61096938.000000,92256638.000000
61019887.000000,92308121.000000
60929000.000000,92326200.000000
Z" /> 
<path style="fill:#000000; fill-opacity:1.0; 
stroke:#000000; stroke-width:1.000000; stroke-opacity:1; 
stroke-linecap:round; stroke-linejoin:round;fill-rule:evenodd;"
d="M 60454000.000000,90601200.000000
60363113.000000,90583121.000000
60286062.000000,90531638.000000
60234579.000000,90454587.000000
60216500.000000,90363700.000000
60216500.000000,89763700.000000
60234579.000000,89672813.000000
60286062.000000,89595762.000000
60363113.000000,89544279.000000
60454000.000000,89526200.000000
60929000.000000,89526200.000000
61019887.000000,89544279.000000
61096938.000000,89595762.000000
61148421.000000,89672813.000000
61166500.000000,89763700.000000
61166500.000000,90363700.000000
61148421.000000,90454587.000000
61096938.000000,90531638.000000
61019887.000000,90583121.000000
60929000.000000,90601200.000000
Z" /> 
</g>
<g >
</g>
<g style="fill:#000000; fill-opacity:1.0; 
stroke:#000000; stroke-width:1.000000; stroke-opacity:1; 
stroke-linecap:round; stroke-linejoin:round;">
<path style="fill:#000000; fill-opacity:1.0; 
stroke:#000000; stroke-width:1.000000; stroke-opacity:1; 
stroke-linecap:round; stroke-linejoin:round;fill-rule:evenodd;"
d="M 85440300.000000,61660200.000000
85531187.000000,61678279.000000
85608238.000000,61729762.000000
85659721.000000,61806813.000000
85677800.000000,61897700.000000
85677800.000000,62497700.000000
85659721.000000,62588587.000000
85608238.000000,62665638.000000
85531187.000000,62717121.000000
85440300.000000,62735200.000000
84965300.000000,62735200.000000
84874413.000000,62717121.000000
84797362.000000,62665638.000000
84745879.000000,62588587.000000
84727800.000000,62497700.000000
84727800.000000,61897700.000000
84745879.000000,61806813.000000
84797362.000000,61729762.000000
84874413.000000,61678279.000000
84965300.000000,61660200.000000
Z" /> 
<path style="fill:#000000; fill-opacity:1.0; 
stroke:#000000; stroke-width:1.000000; stroke-opacity:1; 
stroke-linecap:round; stroke-linejoin:round;fill-rule:evenodd;"
d="M 85440300.000000,63385200.000000
85531187.000000,63403279.000000
85608238.000000,63454762.000000
85659721.000000,63531813.000000
85677800.000000,63622700.000000
85677800.000000,64222700.000000
85659721.000000,64313587.000000
85608238.000000,64390638.000000
85531187.000000,64442121.000000
85440300.000000,64460200.000000
84965300.000000,64460200.000000
84874413.000000,64442121.000000
84797362.000000,64390638.000000
84745879.000000,64313587.000000
84727800.000000,64222700.000000
84727800.000000,63622700.000000
84745879.000000,63531813.000000
84797362.000000,63454762.000000
84874413.000000,63403279.000000
84965300.000000,63385200.000000
Z" /> 
</g>
<g >
</g>
<g style="fill:#000000; fill-opacity:1.0; 
stroke:#000000; stroke-width:1.000000; stroke-opacity:1; 
stroke-linecap:round; stroke-linejoin:round;">
<path style="fill:#000000; fill-opacity:1.0; 
stroke:#000000; stroke-width:1.000000; stroke-opacity:1; 
stroke-linecap:round; stroke-linejoin:round;fill-rule:evenodd;"
d="M 62730001.000000,95040001.000000
63629999.000000,95040001.000000
63629999.000000,96539999.000000
62730001.000000,96539999.000000
Z" /> 
<path style="fill:#000000; fill-opacity:1.0; 
stroke:#000000; stroke-width:1.000000; stroke-opacity:1; 
stroke-linecap:round; stroke-linejoin:round;fill-rule:evenodd;"
d="M 62730001.000000,98840001.000000
63629999.000000,98840001.000000
63629999.000000,100339999.000000
62730001.000000,100339999.000000
Z" /> 
<path style="fill:#000000; fill-opacity:1.0; 
stroke:#000000; stroke-width:1.000000; stroke-opacity:1; 
stroke-linecap:round; stroke-linejoin:round;fill-rule:evenodd;"
d="M 61230001.000000,98840001.000000
62129999.000000,98840001.000000
62129999.000000,100339999.000000
61230001.000000,100339999.000000
Z" /> 
<path style="fill:#000000; fill-opacity:1.0; 
stroke:#000000; stroke-width:1.000000; stroke-opacity:1; 
stroke-linecap:round; stroke-linejoin:round;fill-rule:evenodd;"
d="M 61230001.000000,95040001.000000
62129999.000000,95040001.000000
62129999.000000,96539999.000000
61230001.000000,96539999.000000
Z" /> 
</g>
<g >
</g>
<g style="fill:#000000; fill-opacity:1.0; 
stroke:#000000; stroke-width:1.000000; stroke-opacity:1; 
stroke-linecap:round; stroke-linejoin:round;">
<path style="fill:#000000; fill-opacity:1.0; 
stroke:#000000; stroke-width:1.000000; stroke-opacity:1; 
stroke-linecap:round; stroke-linejoin:round;fill-rule:evenodd;"
d="M 71951100.000000,111046500.000000
71933021.000000,111137387.000000
71881538.000000,111214438.000000
71804487.000000,111265921.000000
71713600.000000,111284000.000000
71113600.000000,111284000.000000
71022713.000000,111265921.000000
70945662.000000,111214438.000000
70894179.000000,111137387.000000
70876100.000000,111046500.000000
70876100.000000,110571500.000000
70894179.000000,110480613.000000
70945662.000000,110403562.000000
71022713.000000,110352079.000000
71113600.000000,110334000.000000
71713600.000000,110334000.000000
71804487.000000,110352079.000000
71881538.000000,110403562.000000
71933021.000000,110480613.000000
71951100.000000,110571500.000000
Z" /> 
<path style="fill:#000000; fill-opacity:1.0; 
stroke:#000000; stroke-width:1.000000; stroke-opacity:1; 
stroke-linecap:round; stroke-linejoin:round;fill-rule:evenodd;"
d="M 70226100.000000,111046500.000000
70208021.000000,111137387.000000
70156538.000000,111214438.000000
70079487.000000,111265921.000000
69988600.000000,111284000.000000
69388600.000000,111284000.000000
69297713.000000,111265921.000000
69220662.000000,111214438.000000
69169179.000000,111137387.000000
69151100.000000,111046500.000000
69151100.000000,110571500.000000
69169179.000000,110480613.000000
69220662.000000,110403562.000000
69297713.000000,110352079.000000
69388600.000000,110334000.000000
69988600.000000,110334000.000000
70079487.000000,110352079.000000
70156538.000000,110403562.000000
70208021.000000,110480613.000000
70226100.000000,110571500.000000
Z" /> 
</g>
<g >
</g>
<g style="fill:#000000; fill-opacity:1.0; 
stroke:#000000; stroke-width:1.000000; stroke-opacity:1; 
stroke-linecap:round; stroke-linejoin:round;">
<path style="fill:#000000; fill-opacity:1.0; 
stroke:#000000; stroke-width:1.000000; stroke-opacity:1; 
stroke-linecap:round; stroke-linejoin:round;fill-rule:evenodd;"
d="M 80752500.000000,101580000.000000
80661613.000000,101561921.000000
80584562.000000,101510438.000000
80533079.000000,101433387.000000
80515000.000000,101342500.000000
80515000.000000,100842500.000000
80533079.000000,100751613.000000
80584562.000000,100674562.000000
80661613.000000,100623079.000000
80752500.000000,100605000.000000
81227500.000000,100605000.000000
81318387.000000,100623079.000000
81395438.000000,100674562.000000
81446921.000000,100751613.000000
81465000.000000,100842500.000000
81465000.000000,101342500.000000
81446921.000000,101433387.000000
81395438.000000,101510438.000000
81318387.000000,101561921.000000
81227500.000000,101580000.000000
Z" /> 
<path style="fill:#000000; fill-opacity:1.0; 
stroke:#000000; stroke-width:1.000000; stroke-opacity:1; 
stroke-linecap:round; stroke-linejoin:round;fill-rule:evenodd;"
d="M 80752500.000000,99755000.000000
80661613.000000,99736921.000000
80584562.000000,99685438.000000
80533079.000000,99608387.000000
80515000.000000,99517500.000000
80515000.000000,99017500.000000
80533079.000000,98926613.000000
80584562.000000,98849562.000000
80661613.000000,98798079.000000
80752500.000000,98780000.000000
81227500.000000,98780000.000000
81318387.000000,98798079.000000
81395438.000000,98849562.000000
81446921.000000,98926613.000000
81465000.000000,99017500.000000
81465000.000000,99517500.000000
81446921.000000,99608387.000000
81395438.000000,99685438.000000
81318387.000000,99736921.000000
81227500.000000,99755000.000000
Z" /> 
</g>
<g >
</g>
<g style="fill:#000000; fill-opacity:1.0; 
stroke:#000000; stroke-width:1.000000; stroke-opacity:1; 
stroke-linecap:round; stroke-linejoin:round;">
<path style="fill:#000000; fill-opacity:1.0; 
stroke:#000000; stroke-width:1.000000; stroke-opacity:1; 
stroke-linecap:round; stroke-linejoin:round;fill-rule:evenodd;"
d="M 81829980.000000,77297524.000000
81848059.000000,77206637.000000
81899542.000000,77129586.000000
81976593.000000,77078103.000000
82067480.000000,77060024.000000
82667480.000000,77060024.000000
82758367.000000,77078103.000000
82835418.000000,77129586.000000
82886901.000000,77206637.000000
82904980.000000,77297524.000000
82904980.000000,77772524.000000
82886901.000000,77863411.000000
82835418.000000,77940462.000000
82758367.000000,77991945.000000
82667480.000000,78010024.000000
82067480.000000,78010024.000000
81976593.000000,77991945.000000
81899542.000000,77940462.000000
81848059.000000,77863411.000000
81829980.000000,77772524.000000
Z" /> 
<path style="fill:#000000; fill-opacity:1.0; 
stroke:#000000; stroke-width:1.000000; stroke-opacity:1; 
stroke-linecap:round; stroke-linejoin:round;fill-rule:evenodd;"
d="M 83554980.000000,77297524.000000
83573059.000000,77206637.000000
83624542.000000,77129586.000000
83701593.000000,77078103.000000
83792480.000000,77060024.000000
84392480.000000,77060024.000000
84483367.000000,77078103.000000
84560418.000000,77129586.000000
84611901.000000,77206637.000000
84629980.000000,77297524.000000
84629980.000000,77772524.000000
84611901.000000,77863411.000000
84560418.000000,77940462.000000
84483367.000000,77991945.000000
84392480.000000,78010024.000000
83792480.000000,78010024.000000
83701593.000000,77991945.000000
83624542.000000,77940462.000000
83573059.000000,77863411.000000
83554980.000000,77772524.000000
Z" /> 
</g>
<g >
</g>
<g >
</g>
<g style="fill:#000000; fill-opacity:1.0; 
stroke:#000000; stroke-width:1.000000; stroke-opacity:1; 
stroke-linecap:round; stroke-linejoin:round;">
<path style="fill:#000000; fill-opacity:1.0; 
stroke:#000000; stroke-width:1.000000; stroke-opacity:1; 
stroke-linecap:round; stroke-linejoin:round;fill-rule:evenodd;"
d="M 71144781.000000,130193923.000000
71144781.000000,128893925.000000
71744779.000000,128893925.000000
71744779.000000,130193923.000000
Z" /> 
<path style="fill:#000000; fill-opacity:1.0; 
stroke:#000000; stroke-width:1.000000; stroke-opacity:1; 
stroke-linecap:round; stroke-linejoin:round;fill-rule:evenodd;"
d="M 71944781.000000,130193923.000000
71944781.000000,128893925.000000
72544779.000000,128893925.000000
72544779.000000,130193923.000000
Z" /> 
<path style="fill:#000000; fill-opacity:1.0; 
stroke:#000000; stroke-width:1.000000; stroke-opacity:1; 
stroke-linecap:round; stroke-linejoin:round;fill-rule:evenodd;"
d="M 73244781.000000,130193923.000000
73244781.000000,128893925.000000
73544779.000000,128893925.000000
73544779.000000,130193923.000000
Z" /> 
<path style="fill:#000000; fill-opacity:1.0; 
stroke:#000000; stroke-width:1.000000; stroke-opacity:1; 
stroke-linecap:round; stroke-linejoin:round;fill-rule:evenodd;"
d="M 74244781.000000,130193923.000000
74244781.000000,128893925.000000
74544779.000000,128893925.000000
74544779.000000,130193923.000000
Z" /> 
<path style="fill:#000000; fill-opacity:1.0; 
stroke:#000000; stroke-width:1.000000; stroke-opacity:1; 
stroke-linecap:round; stroke-linejoin:round;fill-rule:evenodd;"
d="M 74744781.000000,130193923.000000
74744781.000000,128893925.000000
75044779.000000,128893925.000000
75044779.000000,130193923.000000
Z" /> 
<path style="fill:#000000; fill-opacity:1.0; 
stroke:#000000; stroke-width:1.000000; stroke-opacity:1; 
stroke-linecap:round; stroke-linejoin:round;fill-rule:evenodd;"
d="M 75744781.000000,130193923.000000
75744781.000000,128893925.000000
76044779.000000,128893925.000000
76044779.000000,130193923.000000
Z" /> 
<path style="fill:#000000; fill-opacity:1.0; 
stroke:#000000; stroke-width:1.000000; stroke-opacity:1; 
stroke-linecap:round; stroke-linejoin:round;fill-rule:evenodd;"
d="M 77544781.000000,130193923.000000
77544781.000000,128893925.000000
78144779.000000,128893925.000000
78144779.000000,130193923.000000
Z" /> 
<path style="fill:#000000; fill-opacity:1.0; 
stroke:#000000; stroke-width:1.000000; stroke-opacity:1; 
stroke-linecap:round; stroke-linejoin:round;fill-rule:evenodd;"
d="M 76744781.000000,130193923.000000
76744781.000000,128893925.000000
77344779.000000,128893925.000000
77344779.000000,130193923.000000
Z" /> 
<path style="fill:#000000; fill-opacity:1.0; 
stroke:#000000; stroke-width:1.000000; stroke-opacity:1; 
stroke-linecap:round; stroke-linejoin:round;fill-rule:evenodd;"
d="M 76244781.000000,130193923.000000
76244781.000000,128893925.000000
76544779.000000,128893925.000000
76544779.000000,130193923.000000
Z" /> 
<path style="fill:#000000; fill-opacity:1.0; 
stroke:#000000; stroke-width:1.000000; stroke-opacity:1; 
stroke-linecap:round; stroke-linejoin:round;fill-rule:evenodd;"
d="M 75244781.000000,130193923.000000
75244781.000000,128893925.000000
75544779.000000,128893925.000000
75544779.000000,130193923.000000
Z" /> 
<path style="fill:#000000; fill-opacity:1.0; 
stroke:#000000; stroke-width:1.000000; stroke-opacity:1; 
stroke-linecap:round; stroke-linejoin:round;fill-rule:evenodd;"
d="M 73744781.000000,130193923.000000
73744781.000000,128893925.000000
74044779.000000,128893925.000000
74044779.000000,130193923.000000
Z" /> 
<path style="fill:#000000; fill-opacity:1.0; 
stroke:#000000; stroke-width:1.000000; stroke-opacity:1; 
stroke-linecap:round; stroke-linejoin:round;fill-rule:evenodd;"
d="M 72744781.000000,130193923.000000
72744781.000000,128893925.000000
73044779.000000,128893925.000000
73044779.000000,130193923.000000
Z" /> 
</g>
<g >
</g>
<g style="fill:#000000; fill-opacity:1.0; 
stroke:#000000; stroke-width:1.000000; stroke-opacity:1; 
stroke-linecap:round; stroke-linejoin:round;">
<path style="fill:#000000; fill-opacity:1.0; 
stroke:#000000; stroke-width:1.000000; stroke-opacity:1; 
stroke-linecap:round; stroke-linejoin:round;fill-rule:evenodd;"
d="M 87077798.000000,68927599.000000
86722200.000000,68927599.000000
86722200.000000,67251201.000000
87077798.000000,67251201.000000
Z" /> 
<path style="fill:#000000; fill-opacity:1.0; 
stroke:#000000; stroke-width:1.000000; stroke-opacity:1; 
stroke-linecap:round; stroke-linejoin:round;fill-rule:evenodd;"
d="M 87727799.000000,68927599.000000
87372201.000000,68927599.000000
87372201.000000,67251201.000000
87727799.000000,67251201.000000
Z" /> 
<path style="fill:#000000; fill-opacity:1.0; 
stroke:#000000; stroke-width:1.000000; stroke-opacity:1; 
stroke-linecap:round; stroke-linejoin:round;fill-rule:evenodd;"
d="M 88377800.000000,68927599.000000
88022202.000000,68927599.000000
88022202.000000,67251201.000000
88377800.000000,67251201.000000
Z" /> 
<path style="fill:#000000; fill-opacity:1.0; 
stroke:#000000; stroke-width:1.000000; stroke-opacity:1; 
stroke-linecap:round; stroke-linejoin:round;fill-rule:evenodd;"
d="M 89027799.000000,68927599.000000
88672201.000000,68927599.000000
88672201.000000,67251201.000000
89027799.000000,67251201.000000
Z" /> 
<path style="fill:#000000; fill-opacity:1.0; 
stroke:#000000; stroke-width:1.000000; stroke-opacity:1; 
stroke-linecap:round; stroke-linejoin:round;fill-rule:evenodd;"
d="M 89677798.000000,68927599.000000
89322200.000000,68927599.000000
89322200.000000,67251201.000000
89677798.000000,67251201.000000
Z" /> 
<path style="fill:#000000; fill-opacity:1.0; 
stroke:#000000; stroke-width:1.000000; stroke-opacity:1; 
stroke-linecap:round; stroke-linejoin:round;fill-rule:evenodd;"
d="M 90327799.000000,68927599.000000
89972201.000000,68927599.000000
89972201.000000,67251201.000000
90327799.000000,67251201.000000
Z" /> 
<path style="fill:#000000; fill-opacity:1.0; 
stroke:#000000; stroke-width:1.000000; stroke-opacity:1; 
stroke-linecap:round; stroke-linejoin:round;fill-rule:evenodd;"
d="M 90977798.000000,68927599.000000
90622200.000000,68927599.000000
90622200.000000,67251201.000000
90977798.000000,67251201.000000
Z" /> 
<path style="fill:#000000; fill-opacity:1.0; 
stroke:#000000; stroke-width:1.000000; stroke-opacity:1; 
stroke-linecap:round; stroke-linejoin:round;fill-rule:evenodd;"
d="M 90977800.000000,63288799.000000
90622202.000000,63288799.000000
90622202.000000,61612401.000000
90977800.000000,61612401.000000
Z" /> 
<path style="fill:#000000; fill-opacity:1.0; 
stroke:#000000; stroke-width:1.000000; stroke-opacity:1; 
stroke-linecap:round; stroke-linejoin:round;fill-rule:evenodd;"
d="M 90327799.000000,63288799.000000
89972201.000000,63288799.000000
89972201.000000,61612401.000000
90327799.000000,61612401.000000
Z" /> 
<path style="fill:#000000; fill-opacity:1.0; 
stroke:#000000; stroke-width:1.000000; stroke-opacity:1; 
stroke-linecap:round; stroke-linejoin:round;fill-rule:evenodd;"
d="M 89677800.000000,63288799.000000
89322202.000000,63288799.000000
89322202.000000,61612401.000000
89677800.000000,61612401.000000
Z" /> 
<path style="fill:#000000; fill-opacity:1.0; 
stroke:#000000; stroke-width:1.000000; stroke-opacity:1; 
stroke-linecap:round; stroke-linejoin:round;fill-rule:evenodd;"
d="M 89027799.000000,63288799.000000
88672201.000000,63288799.000000
88672201.000000,61612401.000000
89027799.000000,61612401.000000
Z" /> 
<path style="fill:#000000; fill-opacity:1.0; 
stroke:#000000; stroke-width:1.000000; stroke-opacity:1; 
stroke-linecap:round; stroke-linejoin:round;fill-rule:evenodd;"
d="M 88377800.000000,63288799.000000
88022202.000000,63288799.000000
88022202.000000,61612401.000000
88377800.000000,61612401.000000
Z" /> 
<path style="fill:#000000; fill-opacity:1.0; 
stroke:#000000; stroke-width:1.000000; stroke-opacity:1; 
stroke-linecap:round; stroke-linejoin:round;fill-rule:evenodd;"
d="M 87727799.000000,63288799.000000
87372201.000000,63288799.000000
87372201.000000,61612401.000000
87727799.000000,61612401.000000
Z" /> 
<path style="fill:#000000; fill-opacity:1.0; 
stroke:#000000; stroke-width:1.000000; stroke-opacity:1; 
stroke-linecap:round; stroke-linejoin:round;fill-rule:evenodd;"
d="M 87077800.000000,63288799.000000
86722202.000000,63288799.000000
86722202.000000,61612401.000000
87077800.000000,61612401.000000
Z" /> 
</g>
<g >
</g>
<g style="fill:#000000; fill-opacity:1.0; 
stroke:#000000; stroke-width:1.000000; stroke-opacity:1; 
stroke-linecap:round; stroke-linejoin:round;">
<path style="fill:#000000; fill-opacity:1.0; 
stroke:#000000; stroke-width:1.000000; stroke-opacity:1; 
stroke-linecap:round; stroke-linejoin:round;fill-rule:evenodd;"
d="M 61002500.000000,101342500.000000
61020579.000000,101251613.000000
61072062.000000,101174562.000000
61149113.000000,101123079.000000
61240000.000000,101105000.000000
61740000.000000,101105000.000000
61830887.000000,101123079.000000
61907938.000000,101174562.000000
61959421.000000,101251613.000000
61977500.000000,101342500.000000
61977500.000000,101817500.000000
61959421.000000,101908387.000000
61907938.000000,101985438.000000
61830887.000000,102036921.000000
61740000.000000,102055000.000000
61240000.000000,102055000.000000
61149113.000000,102036921.000000
61072062.000000,101985438.000000
61020579.000000,101908387.000000
61002500.000000,101817500.000000
Z" /> 
<path style="fill:#000000; fill-opacity:1.0; 
stroke:#000000; stroke-width:1.000000; stroke-opacity:1; 
stroke-linecap:round; stroke-linejoin:round;fill-rule:evenodd;"
d="M 62827500.000000,101342500.000000
62845579.000000,101251613.000000
62897062.000000,101174562.000000
62974113.000000,101123079.000000
63065000.000000,101105000.000000
63565000.000000,101105000.000000
63655887.000000,101123079.000000
63732938.000000,101174562.000000
63784421.000000,101251613.000000
63802500.000000,101342500.000000
63802500.000000,101817500.000000
63784421.000000,101908387.000000
63732938.000000,101985438.000000
63655887.000000,102036921.000000
63565000.000000,102055000.000000
63065000.000000,102055000.000000
62974113.000000,102036921.000000
62897062.000000,101985438.000000
62845579.000000,101908387.000000
62827500.000000,101817500.000000
Z" /> 
</g>
<g >
</g>
<g style="fill:#000000; fill-opacity:1.0; 
stroke:#000000; stroke-width:1.000000; stroke-opacity:1; 
stroke-linecap:round; stroke-linejoin:round;">
<path style="fill:#000000; fill-opacity:1.0; 
stroke:#000000; stroke-width:1.000000; stroke-opacity:1; 
stroke-linecap:round; stroke-linejoin:round;fill-rule:evenodd;"
d="M 84982500.000000,103577500.000000
84964421.000000,103668387.000000
84912938.000000,103745438.000000
84835887.000000,103796921.000000
84745000.000000,103815000.000000
84145000.000000,103815000.000000
84054113.000000,103796921.000000
83977062.000000,103745438.000000
83925579.000000,103668387.000000
83907500.000000,103577500.000000
83907500.000000,103102500.000000
83925579.000000,103011613.000000
83977062.000000,102934562.000000
84054113.000000,102883079.000000
84145000.000000,102865000.000000
84745000.000000,102865000.000000
84835887.000000,102883079.000000
84912938.000000,102934562.000000
84964421.000000,103011613.000000
84982500.000000,103102500.000000
Z" /> 
<path style="fill:#000000; fill-opacity:1.0; 
stroke:#000000; stroke-width:1.000000; stroke-opacity:1; 
stroke-linecap:round; stroke-linejoin:round;fill-rule:evenodd;"
d="M 83257500.000000,103577500.000000
83239421.000000,103668387.000000
83187938.000000,103745438.000000
83110887.000000,103796921.000000
83020000.000000,103815000.000000
82420000.000000,103815000.000000
82329113.000000,103796921.000000
82252062.000000,103745438.000000
82200579.000000,103668387.000000
82182500.000000,103577500.000000
82182500.000000,103102500.000000
82200579.000000,103011613.000000
82252062.000000,102934562.000000
82329113.000000,102883079.000000
82420000.000000,102865000.000000
83020000.000000,102865000.000000
83110887.000000,102883079.000000
83187938.000000,102934562.000000
83239421.000000,103011613.000000
83257500.000000,103102500.000000
Z" /> 
</g>
<g >
</g>
<g style="fill:#000000; fill-opacity:1.0; 
stroke:#000000; stroke-width:1.000000; stroke-opacity:1; 
stroke-linecap:round; stroke-linejoin:round;">
<path style="fill:#000000; fill-opacity:1.0; 
stroke:#000000; stroke-width:1.000000; stroke-opacity:1; 
stroke-linecap:round; stroke-linejoin:round;fill-rule:evenodd;"
d="M 83851219.000000,79022964.000000
84751217.000000,79022964.000000
84751217.000000,81022962.000000
83851219.000000,81022962.000000
Z" /> 
<path style="fill:#000000; fill-opacity:1.0; 
stroke:#000000; stroke-width:1.000000; stroke-opacity:1; 
stroke-linecap:round; stroke-linejoin:round;fill-rule:evenodd;"
d="M 82581219.000000,79022964.000000
83481217.000000,79022964.000000
83481217.000000,81022962.000000
82581219.000000,81022962.000000
Z" /> 
<path style="fill:#000000; fill-opacity:1.0; 
stroke:#000000; stroke-width:1.000000; stroke-opacity:1; 
stroke-linecap:round; stroke-linejoin:round;fill-rule:evenodd;"
d="M 81311219.000000,79022964.000000
82211217.000000,79022964.000000
82211217.000000,81022962.000000
81311219.000000,81022962.000000
Z" /> 
<path style="fill:#000000; fill-opacity:1.0; 
stroke:#000000; stroke-width:1.000000; stroke-opacity:1; 
stroke-linecap:round; stroke-linejoin:round;fill-rule:evenodd;"
d="M 80041219.000000,79022964.000000
80941217.000000,79022964.000000
80941217.000000,81022962.000000
80041219.000000,81022962.000000
Z" /> 
<path style="fill:#000000; fill-opacity:1.0; 
stroke:#000000; stroke-width:1.000000; stroke-opacity:1; 
stroke-linecap:round; stroke-linejoin:round;fill-rule:evenodd;"
d="M 78771219.000000,79022964.000000
79671217.000000,79022964.000000
79671217.000000,81022962.000000
78771219.000000,81022962.000000
Z" /> 
<path style="fill:#000000; fill-opacity:1.0; 
stroke:#000000; stroke-width:1.000000; stroke-opacity:1; 
stroke-linecap:round; stroke-linejoin:round;fill-rule:evenodd;"
d="M 77501219.000000,79022964.000000
78401217.000000,79022964.000000
78401217.000000,81022962.000000
77501219.000000,81022962.000000
Z" /> 
<path style="fill:#000000; fill-opacity:1.0; 
stroke:#000000; stroke-width:1.000000; stroke-opacity:1; 
stroke-linecap:round; stroke-linejoin:round;fill-rule:evenodd;"
d="M 76231219.000000,79022964.000000
77131217.000000,79022964.000000
77131217.000000,81022962.000000
76231219.000000,81022962.000000
Z" /> 
<path style="fill:#000000; fill-opacity:1.0; 
stroke:#000000; stroke-width:1.000000; stroke-opacity:1; 
stroke-linecap:round; stroke-linejoin:round;fill-rule:evenodd;"
d="M 74961219.000000,79022964.000000
75861217.000000,79022964.000000
75861217.000000,81022962.000000
74961219.000000,81022962.000000
Z" /> 
<path style="fill:#000000; fill-opacity:1.0; 
stroke:#000000; stroke-width:1.000000; stroke-opacity:1; 
stroke-linecap:round; stroke-linejoin:round;fill-rule:evenodd;"
d="M 73691219.000000,79022964.000000
74591217.000000,79022964.000000
74591217.000000,81022962.000000
73691219.000000,81022962.000000
Z" /> 
<path style="fill:#000000; fill-opacity:1.0; 
stroke:#000000; stroke-width:1.000000; stroke-opacity:1; 
stroke-linecap:round; stroke-linejoin:round;fill-rule:evenodd;"
d="M 72421219.000000,79022964.000000
73321217.000000,79022964.000000
73321217.000000,81022962.000000
72421219.000000,81022962.000000
Z" /> 
<path style="fill:#000000; fill-opacity:1.0; 
stroke:#000000; stroke-width:1.000000; stroke-opacity:1; 
stroke-linecap:round; stroke-linejoin:round;fill-rule:evenodd;"
d="M 71151219.000000,79022964.000000
72051217.000000,79022964.000000
72051217.000000,81022962.000000
71151219.000000,81022962.000000
Z" /> 
<path style="fill:#000000; fill-opacity:1.0; 
stroke:#000000; stroke-width:1.000000; stroke-opacity:1; 
stroke-linecap:round; stroke-linejoin:round;fill-rule:evenodd;"
d="M 69881219.000000,79022964.000000
70781217.000000,79022964.000000
70781217.000000,81022962.000000
69881219.000000,81022962.000000
Z" /> 
<path style="fill:#000000; fill-opacity:1.0; 
stroke:#000000; stroke-width:1.000000; stroke-opacity:1; 
stroke-linecap:round; stroke-linejoin:round;fill-rule:evenodd;"
d="M 68611219.000000,79022964.000000
69511217.000000,79022964.000000
69511217.000000,81022962.000000
68611219.000000,81022962.000000
Z" /> 
<path style="fill:#000000; fill-opacity:1.0; 
stroke:#000000; stroke-width:1.000000; stroke-opacity:1; 
stroke-linecap:round; stroke-linejoin:round;fill-rule:evenodd;"
d="M 67341219.000000,79022964.000000
68241217.000000,79022964.000000
68241217.000000,81022962.000000
67341219.000000,81022962.000000
Z" /> 
<path style="fill:#000000; fill-opacity:1.0; 
stroke:#000000; stroke-width:1.000000; stroke-opacity:1; 
stroke-linecap:round; stroke-linejoin:round;fill-rule:evenodd;"
d="M 65791219.000000,82357964.000000
67791217.000000,82357964.000000
67791217.000000,83257962.000000
65791219.000000,83257962.000000
Z" /> 
<path style="fill:#000000; fill-opacity:1.0; 
stroke:#000000; stroke-width:1.000000; stroke-opacity:1; 
stroke-linecap:round; stroke-linejoin:round;fill-rule:evenodd;"
d="M 65791219.000000,83627964.000000
67791217.000000,83627964.000000
67791217.000000,84527962.000000
65791219.000000,84527962.000000
Z" /> 
<path style="fill:#000000; fill-opacity:1.0; 
stroke:#000000; stroke-width:1.000000; stroke-opacity:1; 
stroke-linecap:round; stroke-linejoin:round;fill-rule:evenodd;"
d="M 65791219.000000,84897964.000000
67791217.000000,84897964.000000
67791217.000000,85797962.000000
65791219.000000,85797962.000000
Z" /> 
<path style="fill:#000000; fill-opacity:1.0; 
stroke:#000000; stroke-width:1.000000; stroke-opacity:1; 
stroke-linecap:round; stroke-linejoin:round;fill-rule:evenodd;"
d="M 65791219.000000,86167964.000000
67791217.000000,86167964.000000
67791217.000000,87067962.000000
65791219.000000,87067962.000000
Z" /> 
<path style="fill:#000000; fill-opacity:1.0; 
stroke:#000000; stroke-width:1.000000; stroke-opacity:1; 
stroke-linecap:round; stroke-linejoin:round;fill-rule:evenodd;"
d="M 65791219.000000,87437964.000000
67791217.000000,87437964.000000
67791217.000000,88337962.000000
65791219.000000,88337962.000000
Z" /> 
<path style="fill:#000000; fill-opacity:1.0; 
stroke:#000000; stroke-width:1.000000; stroke-opacity:1; 
stroke-linecap:round; stroke-linejoin:round;fill-rule:evenodd;"
d="M 65791219.000000,88707964.000000
67791217.000000,88707964.000000
67791217.000000,89607962.000000
65791219.000000,89607962.000000
Z" /> 
<path style="fill:#000000; fill-opacity:1.0; 
stroke:#000000; stroke-width:1.000000; stroke-opacity:1; 
stroke-linecap:round; stroke-linejoin:round;fill-rule:evenodd;"
d="M 65791219.000000,89977964.000000
67791217.000000,89977964.000000
67791217.000000,90877962.000000
65791219.000000,90877962.000000
Z" /> 
<path style="fill:#000000; fill-opacity:1.0; 
stroke:#000000; stroke-width:1.000000; stroke-opacity:1; 
stroke-linecap:round; stroke-linejoin:round;fill-rule:evenodd;"
d="M 65791219.000000,91247964.000000
67791217.000000,91247964.000000
67791217.000000,92147962.000000
65791219.000000,92147962.000000
Z" /> 
<path style="fill:#000000; fill-opacity:1.0; 
stroke:#000000; stroke-width:1.000000; stroke-opacity:1; 
stroke-linecap:round; stroke-linejoin:round;fill-rule:evenodd;"
d="M 65791219.000000,92517964.000000
67791217.000000,92517964.000000
67791217.000000,93417962.000000
65791219.000000,93417962.000000
Z" /> 
<path style="fill:#000000; fill-opacity:1.0; 
stroke:#000000; stroke-width:1.000000; stroke-opacity:1; 
stroke-linecap:round; stroke-linejoin:round;fill-rule:evenodd;"
d="M 65791219.000000,93787964.000000
67791217.000000,93787964.000000
67791217.000000,94687962.000000
65791219.000000,94687962.000000
Z" /> 
<path style="fill:#000000; fill-opacity:1.0; 
stroke:#000000; stroke-width:1.000000; stroke-opacity:1; 
stroke-linecap:round; stroke-linejoin:round;fill-rule:evenodd;"
d="M 67341219.000000,96022964.000000
68241217.000000,96022964.000000
68241217.000000,98022962.000000
67341219.000000,98022962.000000
Z" /> 
<path style="fill:#000000; fill-opacity:1.0; 
stroke:#000000; stroke-width:1.000000; stroke-opacity:1; 
stroke-linecap:round; stroke-linejoin:round;fill-rule:evenodd;"
d="M 68611219.000000,96022964.000000
69511217.000000,96022964.000000
69511217.000000,98022962.000000
68611219.000000,98022962.000000
Z" /> 
<path style="fill:#000000; fill-opacity:1.0; 
stroke:#000000; stroke-width:1.000000; stroke-opacity:1; 
stroke-linecap:round; stroke-linejoin:round;fill-rule:evenodd;"
d="M 69881219.000000,96022964.000000
70781217.000000,96022964.000000
70781217.000000,98022962.000000
69881219.000000,98022962.000000
Z" /> 
<path style="fill:#000000; fill-opacity:1.0; 
stroke:#000000; stroke-width:1.000000; stroke-opacity:1; 
stroke-linecap:round; stroke-linejoin:round;fill-rule:evenodd;"
d="M 71151219.000000,96022964.000000
72051217.000000,96022964.000000
72051217.000000,98022962.000000
71151219.000000,98022962.000000
Z" /> 
<path style="fill:#000000; fill-opacity:1.0; 
stroke:#000000; stroke-width:1.000000; stroke-opacity:1; 
stroke-linecap:round; stroke-linejoin:round;fill-rule:evenodd;"
d="M 72421219.000000,96022964.000000
73321217.000000,96022964.000000
73321217.000000,98022962.000000
72421219.000000,98022962.000000
Z" /> 
<path style="fill:#000000; fill-opacity:1.0; 
stroke:#000000; stroke-width:1.000000; stroke-opacity:1; 
stroke-linecap:round; stroke-linejoin:round;fill-rule:evenodd;"
d="M 73691219.000000,96022964.000000
74591217.000000,96022964.000000
74591217.000000,98022962.000000
73691219.000000,98022962.000000
Z" /> 
<path style="fill:#000000; fill-opacity:1.0; 
stroke:#000000; stroke-width:1.000000; stroke-opacity:1; 
stroke-linecap:round; stroke-linejoin:round;fill-rule:evenodd;"
d="M 74961219.000000,96022964.000000
75861217.000000,96022964.000000
75861217.000000,98022962.000000
74961219.000000,98022962.000000
Z" /> 
<path style="fill:#000000; fill-opacity:1.0; 
stroke:#000000; stroke-width:1.000000; stroke-opacity:1; 
stroke-linecap:round; stroke-linejoin:round;fill-rule:evenodd;"
d="M 76231219.000000,96022964.000000
77131217.000000,96022964.000000
77131217.000000,98022962.000000
76231219.000000,98022962.000000
Z" /> 
<path style="fill:#000000; fill-opacity:1.0; 
stroke:#000000; stroke-width:1.000000; stroke-opacity:1; 
stroke-linecap:round; stroke-linejoin:round;fill-rule:evenodd;"
d="M 77501219.000000,96022964.000000
78401217.000000,96022964.000000
78401217.000000,98022962.000000
77501219.000000,98022962.000000
Z" /> 
<path style="fill:#000000; fill-opacity:1.0; 
stroke:#000000; stroke-width:1.000000; stroke-opacity:1; 
stroke-linecap:round; stroke-linejoin:round;fill-rule:evenodd;"
d="M 78771219.000000,96022964.000000
79671217.000000,96022964.000000
79671217.000000,98022962.000000
78771219.000000,98022962.000000
Z" /> 
<path style="fill:#000000; fill-opacity:1.0; 
stroke:#000000; stroke-width:1.000000; stroke-opacity:1; 
stroke-linecap:round; stroke-linejoin:round;fill-rule:evenodd;"
d="M 80041219.000000,96022964.000000
80941217.000000,96022964.000000
80941217.000000,98022962.000000
80041219.000000,98022962.000000
Z" /> 
<path style="fill:#000000; fill-opacity:1.0; 
stroke:#000000; stroke-width:1.000000; stroke-opacity:1; 
stroke-linecap:round; stroke-linejoin:round;fill-rule:evenodd;"
d="M 81311219.000000,96022964.000000
82211217.000000,96022964.000000
82211217.000000,98022962.000000
81311219.000000,98022962.000000
Z" /> 
<path style="fill:#000000; fill-opacity:1.0; 
stroke:#000000; stroke-width:1.000000; stroke-opacity:1; 
stroke-linecap:round; stroke-linejoin:round;fill-rule:evenodd;"
d="M 82581219.000000,96022964.000000
83481217.000000,96022964.000000
83481217.000000,98022962.000000
82581219.000000,98022962.000000
Z" /> 
<path style="fill:#000000; fill-opacity:1.0; 
stroke:#000000; stroke-width:1.000000; stroke-opacity:1; 
stroke-linecap:round; stroke-linejoin:round;fill-rule:evenodd;"
d="M 83851219.000000,96022964.000000
84751217.000000,96022964.000000
84751217.000000,98022962.000000
83851219.000000,98022962.000000
Z" /> 
<path style="fill:#000000; fill-opacity:1.0; 
stroke:#000000; stroke-width:1.000000; stroke-opacity:1; 
stroke-linecap:round; stroke-linejoin:round;fill-rule:evenodd;"
d="M 77971219.000000,85022964.000000
79301217.000000,85022964.000000
79301217.000000,86352962.000000
77971219.000000,86352962.000000
Z" /> 
<path style="fill:#000000; fill-opacity:1.0; 
stroke:#000000; stroke-width:1.000000; stroke-opacity:1; 
stroke-linecap:round; stroke-linejoin:round;fill-rule:evenodd;"
d="M 77971219.000000,86857964.000000
79301217.000000,86857964.000000
79301217.000000,88187962.000000
77971219.000000,88187962.000000
Z" /> 
<path style="fill:#000000; fill-opacity:1.0; 
stroke:#000000; stroke-width:1.000000; stroke-opacity:1; 
stroke-linecap:round; stroke-linejoin:round;fill-rule:evenodd;"
d="M 77971219.000000,88692964.000000
79301217.000000,88692964.000000
79301217.000000,90022962.000000
77971219.000000,90022962.000000
Z" /> 
<path style="fill:#000000; fill-opacity:1.0; 
stroke:#000000; stroke-width:1.000000; stroke-opacity:1; 
stroke-linecap:round; stroke-linejoin:round;fill-rule:evenodd;"
d="M 76136219.000000,85022964.000000
77466217.000000,85022964.000000
77466217.000000,86352962.000000
76136219.000000,86352962.000000
Z" /> 
<path style="fill:#000000; fill-opacity:1.0; 
stroke:#000000; stroke-width:1.000000; stroke-opacity:1; 
stroke-linecap:round; stroke-linejoin:round;fill-rule:evenodd;"
d="M 76136219.000000,86857964.000000
77466217.000000,86857964.000000
77466217.000000,88187962.000000
76136219.000000,88187962.000000
Z" /> 
<path style="fill:#000000; fill-opacity:1.0; 
stroke:#000000; stroke-width:1.000000; stroke-opacity:1; 
stroke-linecap:round; stroke-linejoin:round;fill-rule:evenodd;"
d="M 76136219.000000,88692964.000000
77466217.000000,88692964.000000
77466217.000000,90022962.000000
76136219.000000,90022962.000000
Z" /> 
<path style="fill:#000000; fill-opacity:1.0; 
stroke:#000000; stroke-width:1.000000; stroke-opacity:1; 
stroke-linecap:round; stroke-linejoin:round;fill-rule:evenodd;"
d="M 74301219.000000,85022964.000000
75631217.000000,85022964.000000
75631217.000000,86352962.000000
74301219.000000,86352962.000000
Z" /> 
<path style="fill:#000000; fill-opacity:1.0; 
stroke:#000000; stroke-width:1.000000; stroke-opacity:1; 
stroke-linecap:round; stroke-linejoin:round;fill-rule:evenodd;"
d="M 74301219.000000,86857964.000000
75631217.000000,86857964.000000
75631217.000000,88187962.000000
74301219.000000,88187962.000000
Z" /> 
<path style="fill:#000000; fill-opacity:1.0; 
stroke:#000000; stroke-width:1.000000; stroke-opacity:1; 
stroke-linecap:round; stroke-linejoin:round;fill-rule:evenodd;"
d="M 74301219.000000,88692964.000000
75631217.000000,88692964.000000
75631217.000000,90022962.000000
74301219.000000,90022962.000000
Z" /> 
</g>
<g >
</g>
<g style="fill:#000000; fill-opacity:1.0; 
stroke:#000000; stroke-width:1.000000; stroke-opacity:1; 
stroke-linecap:round; stroke-linejoin:round;">
<path style="fill:#000000; fill-opacity:1.0; 
stroke:#000000; stroke-width:1.000000; stroke-opacity:1; 
stroke-linecap:round; stroke-linejoin:round;fill-rule:evenodd;"
d="M 64714000.000000,87373700.000000
64695921.000000,87464587.000000
64644438.000000,87541638.000000
64567387.000000,87593121.000000
64476500.000000,87611200.000000
63976500.000000,87611200.000000
63885613.000000,87593121.000000
63808562.000000,87541638.000000
63757079.000000,87464587.000000
63739000.000000,87373700.000000
63739000.000000,86898700.000000
63757079.000000,86807813.000000
63808562.000000,86730762.000000
63885613.000000,86679279.000000
63976500.000000,86661200.000000
64476500.000000,86661200.000000
64567387.000000,86679279.000000
64644438.000000,86730762.000000
64695921.000000,86807813.000000
64714000.000000,86898700.000000
Z" /> 
<path style="fill:#000000; fill-opacity:1.0; 
stroke:#000000; stroke-width:1.000000; stroke-opacity:1; 
stroke-linecap:round; stroke-linejoin:round;fill-rule:evenodd;"
d="M 62889000.000000,87373700.000000
62870921.000000,87464587.000000
62819438.000000,87541638.000000
62742387.000000,87593121.000000
62651500.000000,87611200.000000
62151500.000000,87611200.000000
62060613.000000,87593121.000000
61983562.000000,87541638.000000
61932079.000000,87464587.000000
61914000.000000,87373700.000000
61914000.000000,86898700.000000
61932079.000000,86807813.000000
61983562.000000,86730762.000000
62060613.000000,86679279.000000
62151500.000000,86661200.000000
62651500.000000,86661200.000000
62742387.000000,86679279.000000
62819438.000000,86730762.000000
62870921.000000,86807813.000000
62889000.000000,86898700.000000
Z" /> 
</g>
<g >
</g>
<g style="fill:#000000; fill-opacity:1.0; 
stroke:#000000; stroke-width:1.000000; stroke-opacity:1; 
stroke-linecap:round; stroke-linejoin:round;">
<path style="fill:#000000; fill-opacity:1.0; 
stroke:#000000; stroke-width:1.000000; stroke-opacity:1; 
stroke-linecap:round; stroke-linejoin:round;fill-rule:evenodd;"
d="M 66720001.000000,106500001.000000
67619999.000000,106500001.000000
67619999.000000,107399999.000000
66720001.000000,107399999.000000
Z" /> 
<path style="fill:#000000; fill-opacity:1.0; 
stroke:#000000; stroke-width:1.000000; stroke-opacity:1; 
stroke-linecap:round; stroke-linejoin:round;fill-rule:evenodd;"
d="M 67820001.000000,107600001.000000
68719999.000000,107600001.000000
68719999.000000,108499999.000000
67820001.000000,108499999.000000
Z" /> 
<path style="fill:#000000; fill-opacity:1.0; 
stroke:#000000; stroke-width:1.000000; stroke-opacity:1; 
stroke-linecap:round; stroke-linejoin:round;fill-rule:evenodd;"
d="M 67820001.000000,106500001.000000
68719999.000000,106500001.000000
68719999.000000,107399999.000000
67820001.000000,107399999.000000
Z" /> 
<path style="fill:#000000; fill-opacity:1.0; 
stroke:#000000; stroke-width:1.000000; stroke-opacity:1; 
stroke-linecap:round; stroke-linejoin:round;fill-rule:evenodd;"
d="M 65620001.000000,106500001.000000
66519999.000000,106500001.000000
66519999.000000,107399999.000000
65620001.000000,107399999.000000
Z" /> 
<path style="fill:#000000; fill-opacity:1.0; 
stroke:#000000; stroke-width:1.000000; stroke-opacity:1; 
stroke-linecap:round; stroke-linejoin:round;fill-rule:evenodd;"
d="M 65620001.000000,105400001.000000
66519999.000000,105400001.000000
66519999.000000,106299999.000000
65620001.000000,106299999.000000
Z" /> 
<path style="fill:#000000; fill-opacity:1.0; 
stroke:#000000; stroke-width:1.000000; stroke-opacity:1; 
stroke-linecap:round; stroke-linejoin:round;fill-rule:evenodd;"
d="M 66720001.000000,105400001.000000
67619999.000000,105400001.000000
67619999.000000,106299999.000000
66720001.000000,106299999.000000
Z" /> 
<path style="fill:#000000; fill-opacity:1.0; 
stroke:#000000; stroke-width:1.000000; stroke-opacity:1; 
stroke-linecap:round; stroke-linejoin:round;fill-rule:evenodd;"
d="M 67820001.000000,105400001.000000
68719999.000000,105400001.000000
68719999.000000,106299999.000000
67820001.000000,106299999.000000
Z" /> 
<path style="fill:#000000; fill-opacity:1.0; 
stroke:#000000; stroke-width:1.000000; stroke-opacity:1; 
stroke-linecap:round; stroke-linejoin:round;fill-rule:evenodd;"
d="M 65620001.000000,107600001.000000
66519999.000000,107600001.000000
66519999.000000,108499999.000000
65620001.000000,108499999.000000
Z" /> 
<path style="fill:#000000; fill-opacity:1.0; 
stroke:#000000; stroke-width:1.000000; stroke-opacity:1; 
stroke-linecap:round; stroke-linejoin:round;fill-rule:evenodd;"
d="M 66720001.000000,107600001.000000
67619999.000000,107600001.000000
67619999.000000,108499999.000000
66720001.000000,108499999.000000
Z" /> 
<path style="fill:#000000; fill-opacity:1.0; 
stroke:#000000; stroke-width:1.000000; stroke-opacity:1; 
stroke-linecap:round; stroke-linejoin:round;fill-rule:evenodd;"
d="M 68545000.000000,104099988.000000
68794998.000000,104099988.000000
68794998.000000,104999986.000000
68545000.000000,104999986.000000
Z" /> 
<path style="fill:#000000; fill-opacity:1.0; 
stroke:#000000; stroke-width:1.000000; stroke-opacity:1; 
stroke-linecap:round; stroke-linejoin:round;fill-rule:evenodd;"
d="M 68045000.000000,104099988.000000
68294998.000000,104099988.000000
68294998.000000,104999986.000000
68045000.000000,104999986.000000
Z" /> 
<path style="fill:#000000; fill-opacity:1.0; 
stroke:#000000; stroke-width:1.000000; stroke-opacity:1; 
stroke-linecap:round; stroke-linejoin:round;fill-rule:evenodd;"
d="M 67545000.000000,104099988.000000
67794998.000000,104099988.000000
67794998.000000,104999986.000000
67545000.000000,104999986.000000
Z" /> 
<path style="fill:#000000; fill-opacity:1.0; 
stroke:#000000; stroke-width:1.000000; stroke-opacity:1; 
stroke-linecap:round; stroke-linejoin:round;fill-rule:evenodd;"
d="M 67045000.000000,104099988.000000
67294998.000000,104099988.000000
67294998.000000,104999986.000000
67045000.000000,104999986.000000
Z" /> 
<path style="fill:#000000; fill-opacity:1.0; 
stroke:#000000; stroke-width:1.000000; stroke-opacity:1; 
stroke-linecap:round; stroke-linejoin:round;fill-rule:evenodd;"
d="M 66545001.000000,104099988.000000
66794999.000000,104099988.000000
66794999.000000,104999986.000000
66545001.000000,104999986.000000
Z" /> 
<path style="fill:#000000; fill-opacity:1.0; 
stroke:#000000; stroke-width:1.000000; stroke-opacity:1; 
stroke-linecap:round; stroke-linejoin:round;fill-rule:evenodd;"
d="M 66045001.000000,104099988.000000
66294999.000000,104099988.000000
66294999.000000,104999986.000000
66045001.000000,104999986.000000
Z" /> 
<path style="fill:#000000; fill-opacity:1.0; 
stroke:#000000; stroke-width:1.000000; stroke-opacity:1; 
stroke-linecap:round; stroke-linejoin:round;fill-rule:evenodd;"
d="M 65545001.000000,104099988.000000
65794999.000000,104099988.000000
65794999.000000,104999986.000000
65545001.000000,104999986.000000
Z" /> 
<path style="fill:#000000; fill-opacity:1.0; 
stroke:#000000; stroke-width:1.000000; stroke-opacity:1; 
stroke-linecap:round; stroke-linejoin:round;fill-rule:evenodd;"
d="M 64319987.000000,105325002.000000
65219985.000000,105325002.000000
65219985.000000,105575000.000000
64319987.000000,105575000.000000
Z" /> 
<path style="fill:#000000; fill-opacity:1.0; 
stroke:#000000; stroke-width:1.000000; stroke-opacity:1; 
stroke-linecap:round; stroke-linejoin:round;fill-rule:evenodd;"
d="M 64319987.000000,105825002.000000
65219985.000000,105825002.000000
65219985.000000,106075000.000000
64319987.000000,106075000.000000
Z" /> 
<path style="fill:#000000; fill-opacity:1.0; 
stroke:#000000; stroke-width:1.000000; stroke-opacity:1; 
stroke-linecap:round; stroke-linejoin:round;fill-rule:evenodd;"
d="M 64319987.000000,106325002.000000
65219985.000000,106325002.000000
65219985.000000,106575000.000000
64319987.000000,106575000.000000
Z" /> 
<path style="fill:#000000; fill-opacity:1.0; 
stroke:#000000; stroke-width:1.000000; stroke-opacity:1; 
stroke-linecap:round; stroke-linejoin:round;fill-rule:evenodd;"
d="M 64319987.000000,106825002.000000
65219985.000000,106825002.000000
65219985.000000,107075000.000000
64319987.000000,107075000.000000
Z" /> 
<path style="fill:#000000; fill-opacity:1.0; 
stroke:#000000; stroke-width:1.000000; stroke-opacity:1; 
stroke-linecap:round; stroke-linejoin:round;fill-rule:evenodd;"
d="M 64319987.000000,107325001.000000
65219985.000000,107325001.000000
65219985.000000,107574999.000000
64319987.000000,107574999.000000
Z" /> 
<path style="fill:#000000; fill-opacity:1.0; 
stroke:#000000; stroke-width:1.000000; stroke-opacity:1; 
stroke-linecap:round; stroke-linejoin:round;fill-rule:evenodd;"
d="M 64319987.000000,107825001.000000
65219985.000000,107825001.000000
65219985.000000,108074999.000000
64319987.000000,108074999.000000
Z" /> 
<path style="fill:#000000; fill-opacity:1.0; 
stroke:#000000; stroke-width:1.000000; stroke-opacity:1; 
stroke-linecap:round; stroke-linejoin:round;fill-rule:evenodd;"
d="M 64319987.000000,108325001.000000
65219985.000000,108325001.000000
65219985.000000,108574999.000000
64319987.000000,108574999.000000
Z" /> 
<path style="fill:#000000; fill-opacity:1.0; 
stroke:#000000; stroke-width:1.000000; stroke-opacity:1; 
stroke-linecap:round; stroke-linejoin:round;fill-rule:evenodd;"
d="M 65545001.000000,108900015.000000
65794999.000000,108900015.000000
65794999.000000,109800013.000000
65545001.000000,109800013.000000
Z" /> 
<path style="fill:#000000; fill-opacity:1.0; 
stroke:#000000; stroke-width:1.000000; stroke-opacity:1; 
stroke-linecap:round; stroke-linejoin:round;fill-rule:evenodd;"
d="M 66045001.000000,108900015.000000
66294999.000000,108900015.000000
66294999.000000,109800013.000000
66045001.000000,109800013.000000
Z" /> 
<path style="fill:#000000; fill-opacity:1.0; 
stroke:#000000; stroke-width:1.000000; stroke-opacity:1; 
stroke-linecap:round; stroke-linejoin:round;fill-rule:evenodd;"
d="M 66545001.000000,108900015.000000
66794999.000000,108900015.000000
66794999.000000,109800013.000000
66545001.000000,109800013.000000
Z" /> 
<path style="fill:#000000; fill-opacity:1.0; 
stroke:#000000; stroke-width:1.000000; stroke-opacity:1; 
stroke-linecap:round; stroke-linejoin:round;fill-rule:evenodd;"
d="M 67045000.000000,108900015.000000
67294998.000000,108900015.000000
67294998.000000,109800013.000000
67045000.000000,109800013.000000
Z" /> 
<path style="fill:#000000; fill-opacity:1.0; 
stroke:#000000; stroke-width:1.000000; stroke-opacity:1; 
stroke-linecap:round; stroke-linejoin:round;fill-rule:evenodd;"
d="M 67545000.000000,108900015.000000
67794998.000000,108900015.000000
67794998.000000,109800013.000000
67545000.000000,109800013.000000
Z" /> 
<path style="fill:#000000; fill-opacity:1.0; 
stroke:#000000; stroke-width:1.000000; stroke-opacity:1; 
stroke-linecap:round; stroke-linejoin:round;fill-rule:evenodd;"
d="M 68045000.000000,108900015.000000
68294998.000000,108900015.000000
68294998.000000,109800013.000000
68045000.000000,109800013.000000
Z" /> 
<path style="fill:#000000; fill-opacity:1.0; 
stroke:#000000; stroke-width:1.000000; stroke-opacity:1; 
stroke-linecap:round; stroke-linejoin:round;fill-rule:evenodd;"
d="M 68545000.000000,108900015.000000
68794998.000000,108900015.000000
68794998.000000,109800013.000000
68545000.000000,109800013.000000
Z" /> 
<path style="fill:#000000; fill-opacity:1.0; 
stroke:#000000; stroke-width:1.000000; stroke-opacity:1; 
stroke-linecap:round; stroke-linejoin:round;fill-rule:evenodd;"
d="M 69120014.000000,108325001.000000
70020012.000000,108325001.000000
70020012.000000,108574999.000000
69120014.000000,108574999.000000
Z" /> 
<path style="fill:#000000; fill-opacity:1.0; 
stroke:#000000; stroke-width:1.000000; stroke-opacity:1; 
stroke-linecap:round; stroke-linejoin:round;fill-rule:evenodd;"
d="M 69120014.000000,107825001.000000
70020012.000000,107825001.000000
70020012.000000,108074999.000000
69120014.000000,108074999.000000
Z" /> 
<path style="fill:#000000; fill-opacity:1.0; 
stroke:#000000; stroke-width:1.000000; stroke-opacity:1; 
stroke-linecap:round; stroke-linejoin:round;fill-rule:evenodd;"
d="M 69120014.000000,107325001.000000
70020012.000000,107325001.000000
70020012.000000,107574999.000000
69120014.000000,107574999.000000
Z" /> 
<path style="fill:#000000; fill-opacity:1.0; 
stroke:#000000; stroke-width:1.000000; stroke-opacity:1; 
stroke-linecap:round; stroke-linejoin:round;fill-rule:evenodd;"
d="M 69120014.000000,106825002.000000
70020012.000000,106825002.000000
70020012.000000,107075000.000000
69120014.000000,107075000.000000
Z" /> 
<path style="fill:#000000; fill-opacity:1.0; 
stroke:#000000; stroke-width:1.000000; stroke-opacity:1; 
stroke-linecap:round; stroke-linejoin:round;fill-rule:evenodd;"
d="M 69120014.000000,106325002.000000
70020012.000000,106325002.000000
70020012.000000,106575000.000000
69120014.000000,106575000.000000
Z" /> 
<path style="fill:#000000; fill-opacity:1.0; 
stroke:#000000; stroke-width:1.000000; stroke-opacity:1; 
stroke-linecap:round; stroke-linejoin:round;fill-rule:evenodd;"
d="M 69120014.000000,105825002.000000
70020012.000000,105825002.000000
70020012.000000,106075000.000000
69120014.000000,106075000.000000
Z" /> 
<path style="fill:#000000; fill-opacity:1.0; 
stroke:#000000; stroke-width:1.000000; stroke-opacity:1; 
stroke-linecap:round; stroke-linejoin:round;fill-rule:evenodd;"
d="M 69120014.000000,105325002.000000
70020012.000000,105325002.000000
70020012.000000,105575000.000000
69120014.000000,105575000.000000
Z" /> 
</g>
<g >
</g>
<g style="fill:#000000; fill-opacity:1.0; 
stroke:#000000; stroke-width:1.000000; stroke-opacity:1; 
stroke-linecap:round; stroke-linejoin:round;">
<path style="fill:#000000; fill-opacity:1.0; 
stroke:#000000; stroke-width:1.000000; stroke-opacity:1; 
stroke-linecap:round; stroke-linejoin:round;fill-rule:evenodd;"
d="M 58467500.000000,120760000.000000
58558387.000000,120778079.000000
58635438.000000,120829562.000000
58686921.000000,120906613.000000
58705000.000000,120997500.000000
58705000.000000,121497500.000000
58686921.000000,121588387.000000
58635438.000000,121665438.000000
58558387.000000,121716921.000000
58467500.000000,121735000.000000
57992500.000000,121735000.000000
57901613.000000,121716921.000000
57824562.000000,121665438.000000
57773079.000000,121588387.000000
57755000.000000,121497500.000000
57755000.000000,120997500.000000
57773079.000000,120906613.000000
57824562.000000,120829562.000000
57901613.000000,120778079.000000
57992500.000000,120760000.000000
Z" /> 
<path style="fill:#000000; fill-opacity:1.0; 
stroke:#000000; stroke-width:1.000000; stroke-opacity:1; 
stroke-linecap:round; stroke-linejoin:round;fill-rule:evenodd;"
d="M 58467500.000000,122585000.000000
58558387.000000,122603079.000000
58635438.000000,122654562.000000
58686921.000000,122731613.000000
58705000.000000,122822500.000000
58705000.000000,123322500.000000
58686921.000000,123413387.000000
58635438.000000,123490438.000000
58558387.000000,123541921.000000
58467500.000000,123560000.000000
57992500.000000,123560000.000000
57901613.000000,123541921.000000
57824562.000000,123490438.000000
57773079.000000,123413387.000000
57755000.000000,123322500.000000
57755000.000000,122822500.000000
57773079.000000,122731613.000000
57824562.000000,122654562.000000
57901613.000000,122603079.000000
57992500.000000,122585000.000000
Z" /> 
</g>
<g >
</g>
<g >
</g>
<g style="fill:#000000; fill-opacity:1.0; 
stroke:#000000; stroke-width:1.000000; stroke-opacity:1; 
stroke-linecap:round; stroke-linejoin:round;">
<path style="fill:#000000; fill-opacity:1.0; 
stroke:#000000; stroke-width:1.000000; stroke-opacity:1; 
stroke-linecap:round; stroke-linejoin:round;fill-rule:evenodd;"
d="M 66610000.000000,114220000.000000
66705671.000000,114239030.000000
66786777.000000,114293223.000000
66840970.000000,114374329.000000
66860000.000000,114470000.000000
66860000.000000,117470000.000000
66840970.000000,117565671.000000
66786777.000000,117646777.000000
66705671.000000,117700970.000000
66610000.000000,117720000.000000
65510000.000000,117720000.000000
65414329.000000,117700970.000000
65333223.000000,117646777.000000
65279030.000000,117565671.000000
65260000.000000,117470000.000000
65260000.000000,114470000.000000
65279030.000000,114374329.000000
65333223.000000,114293223.000000
65414329.000000,114239030.000000
65510000.000000,114220000.000000
Z" /> 
<path style="fill:#000000; fill-opacity:1.0; 
stroke:#000000; stroke-width:1.000000; stroke-opacity:1; 
stroke-linecap:round; stroke-linejoin:round;fill-rule:evenodd;"
d="M 66610000.000000,119820000.000000
66705671.000000,119839030.000000
66786777.000000,119893223.000000
66840970.000000,119974329.000000
66860000.000000,120070000.000000
66860000.000000,123070000.000000
66840970.000000,123165671.000000
66786777.000000,123246777.000000
66705671.000000,123300970.000000
66610000.000000,123320000.000000
65510000.000000,123320000.000000
65414329.000000,123300970.000000
65333223.000000,123246777.000000
65279030.000000,123165671.000000
65260000.000000,123070000.000000
65260000.000000,120070000.000000
65279030.000000,119974329.000000
65333223.000000,119893223.000000
65414329.000000,119839030.000000
65510000.000000,119820000.000000
Z" /> 
</g>
<g >
</g>
<g >
</g>
<g style="fill:#000000; fill-opacity:1.0; 
stroke:#000000; stroke-width:1.000000; stroke-opacity:1; 
stroke-linecap:round; stroke-linejoin:round;">
<path style="fill:#000000; fill-opacity:1.0; 
stroke:#000000; stroke-width:1.000000; stroke-opacity:1; 
stroke-linecap:round; stroke-linejoin:round;fill-rule:evenodd;"
d="M 64990000.000000,75630000.000000
64970970.000000,75725671.000000
64916777.000000,75806777.000000
64835671.000000,75860970.000000
64740000.000000,75880000.000000
61740000.000000,75880000.000000
61644329.000000,75860970.000000
61563223.000000,75806777.000000
61509030.000000,75725671.000000
61490000.000000,75630000.000000
61490000.000000,74530000.000000
61509030.000000,74434329.000000
61563223.000000,74353223.000000
61644329.000000,74299030.000000
61740000.000000,74280000.000000
64740000.000000,74280000.000000
64835671.000000,74299030.000000
64916777.000000,74353223.000000
64970970.000000,74434329.000000
64990000.000000,74530000.000000
Z" /> 
<path style="fill:#000000; fill-opacity:1.0; 
stroke:#000000; stroke-width:1.000000; stroke-opacity:1; 
stroke-linecap:round; stroke-linejoin:round;fill-rule:evenodd;"
d="M 59390000.000000,75630000.000000
59370970.000000,75725671.000000
59316777.000000,75806777.000000
59235671.000000,75860970.000000
59140000.000000,75880000.000000
56140000.000000,75880000.000000
56044329.000000,75860970.000000
55963223.000000,75806777.000000
55909030.000000,75725671.000000
55890000.000000,75630000.000000
55890000.000000,74530000.000000
55909030.000000,74434329.000000
55963223.000000,74353223.000000
56044329.000000,74299030.000000
56140000.000000,74280000.000000
59140000.000000,74280000.000000
59235671.000000,74299030.000000
59316777.000000,74353223.000000
59370970.000000,74434329.000000
59390000.000000,74530000.000000
Z" /> 
</g>
<g >
</g>
<g style="fill:#000000; fill-opacity:1.0; 
stroke:#000000; stroke-width:1.000000; stroke-opacity:1; 
stroke-linecap:round; stroke-linejoin:round;">
<path style="fill:#000000; fill-opacity:1.0; 
stroke:#000000; stroke-width:1.000000; stroke-opacity:1; 
stroke-linecap:round; stroke-linejoin:round;fill-rule:evenodd;"
d="M 78365000.000000,111327500.000000
78346921.000000,111418387.000000
78295438.000000,111495438.000000
78218387.000000,111546921.000000
78127500.000000,111565000.000000
77527500.000000,111565000.000000
77436613.000000,111546921.000000
77359562.000000,111495438.000000
77308079.000000,111418387.000000
77290000.000000,111327500.000000
77290000.000000,110852500.000000
77308079.000000,110761613.000000
77359562.000000,110684562.000000
77436613.000000,110633079.000000
77527500.000000,110615000.000000
78127500.000000,110615000.000000
78218387.000000,110633079.000000
78295438.000000,110684562.000000
78346921.000000,110761613.000000
78365000.000000,110852500.000000
Z" /> 
<path style="fill:#000000; fill-opacity:1.0; 
stroke:#000000; stroke-width:1.000000; stroke-opacity:1; 
stroke-linecap:round; stroke-linejoin:round;fill-rule:evenodd;"
d="M 76640000.000000,111327500.000000
76621921.000000,111418387.000000
76570438.000000,111495438.000000
76493387.000000,111546921.000000
76402500.000000,111565000.000000
75802500.000000,111565000.000000
75711613.000000,111546921.000000
75634562.000000,111495438.000000
75583079.000000,111418387.000000
75565000.000000,111327500.000000
75565000.000000,110852500.000000
75583079.000000,110761613.000000
75634562.000000,110684562.000000
75711613.000000,110633079.000000
75802500.000000,110615000.000000
76402500.000000,110615000.000000
76493387.000000,110633079.000000
76570438.000000,110684562.000000
76621921.000000,110761613.000000
76640000.000000,110852500.000000
Z" /> 
</g>
<g >
</g>
<g style="fill:#000000; fill-opacity:1.0; 
stroke:#000000; stroke-width:1.000000; stroke-opacity:1; 
stroke-linecap:round; stroke-linejoin:round;">
<path style="fill:#000000; fill-opacity:1.0; 
stroke:#000000; stroke-width:1.000000; stroke-opacity:1; 
stroke-linecap:round; stroke-linejoin:round;fill-rule:evenodd;"
d="M 75552501.000000,105049999.000000
75552501.000000,103550001.000000
77552499.000000,103550001.000000
77552499.000000,105049999.000000
Z" /> 
<path style="fill:#000000; fill-opacity:1.0; 
stroke:#000000; stroke-width:1.000000; stroke-opacity:1; 
stroke-linecap:round; stroke-linejoin:round;fill-rule:evenodd;"
d="M 75552501.000000,107349999.000000
75552501.000000,105850001.000000
77552499.000000,105850001.000000
77552499.000000,107349999.000000
Z" /> 
<path style="fill:#000000; fill-opacity:1.0; 
stroke:#000000; stroke-width:1.000000; stroke-opacity:1; 
stroke-linecap:round; stroke-linejoin:round;fill-rule:evenodd;"
d="M 75552501.000000,109649999.000000
75552501.000000,108150001.000000
77552499.000000,108150001.000000
77552499.000000,109649999.000000
Z" /> 
<path style="fill:#000000; fill-opacity:1.0; 
stroke:#000000; stroke-width:1.000000; stroke-opacity:1; 
stroke-linecap:round; stroke-linejoin:round;fill-rule:evenodd;"
d="M 81852501.000000,108499999.000000
81852501.000000,104700001.000000
83852499.000000,104700001.000000
83852499.000000,108499999.000000
Z" /> 
</g>
<g >
</g>
<g style="fill:#000000; fill-opacity:1.0; 
stroke:#000000; stroke-width:1.000000; stroke-opacity:1; 
stroke-linecap:round; stroke-linejoin:round;">
<path style="fill:#000000; fill-opacity:1.0; 
stroke:#000000; stroke-width:1.000000; stroke-opacity:1; 
stroke-linecap:round; stroke-linejoin:round;fill-rule:evenodd;"
d="M 69150000.000000,112222500.000000
69168079.000000,112131613.000000
69219562.000000,112054562.000000
69296613.000000,112003079.000000
69387500.000000,111985000.000000
69987500.000000,111985000.000000
70078387.000000,112003079.000000
70155438.000000,112054562.000000
70206921.000000,112131613.000000
70225000.000000,112222500.000000
70225000.000000,112697500.000000
70206921.000000,112788387.000000
70155438.000000,112865438.000000
70078387.000000,112916921.000000
69987500.000000,112935000.000000
69387500.000000,112935000.000000
69296613.000000,112916921.000000
69219562.000000,112865438.000000
69168079.000000,112788387.000000
69150000.000000,112697500.000000
Z" /> 
<path style="fill:#000000; fill-opacity:1.0; 
stroke:#000000; stroke-width:1.000000; stroke-opacity:1; 
stroke-linecap:round; stroke-linejoin:round;fill-rule:evenodd;"
d="M 70875000.000000,112222500.000000
70893079.000000,112131613.000000
70944562.000000,112054562.000000
71021613.000000,112003079.000000
71112500.000000,111985000.000000
71712500.000000,111985000.000000
71803387.000000,112003079.000000
71880438.000000,112054562.000000
71931921.000000,112131613.000000
71950000.000000,112222500.000000
71950000.000000,112697500.000000
71931921.000000,112788387.000000
71880438.000000,112865438.000000
71803387.000000,112916921.000000
71712500.000000,112935000.000000
71112500.000000,112935000.000000
71021613.000000,112916921.000000
70944562.000000,112865438.000000
70893079.000000,112788387.000000
70875000.000000,112697500.000000
Z" /> 
</g>
<g >
</g>
<g >
</g>
<g >
</g>
<g >
</g>
<g >
</g>
<g >
</g>
<g >
</g>
</g> 
</svg>
